<?xml version="1.0" encoding="utf-8"?>
<!-- Generator: Adobe Illustrator 15.0.2, SVG Export Plug-In . SVG Version: 6.00 Build 0)  -->
<!DOCTYPE svg PUBLIC "-//W3C//DTD SVG 1.1//EN" "http://www.w3.org/Graphics/SVG/1.1/DTD/svg11.dtd">
<svg version="1.1" id="Layer_1" xmlns="http://www.w3.org/2000/svg" xmlns:xlink="http://www.w3.org/1999/xlink" x="0px" y="0px"
	 width="364px" height="26.646px" viewBox="0 0 364 26.646" enable-background="new 0 0 364 26.646" xml:space="preserve">

<path class="photon" d="M-25.25,0L-23.9875,-0.06021763156636811L-22.725,-0.13089547350794506L-21.462500000000002,-0.21387428832387065L-20.200000000000003,-0.3113248660733613L-18.9375,-0.4257921930984827L-17.675,-0.5602321359329714L-16.4125,-0.7180284852740012L-15.150000000000002,-0.9029699595044358L-13.887500000000001,-1.1191547588469009L-12.625,-1.3707742490654553L-11.3625,-1.6617091058951805L-10.100000000000001,-1.9948572378795688L-8.8375,-2.3711183108050133L-7.575000000000001,-2.788012652958018L-6.3125,-3.2380505194908764L-5.050000000000001,-3.7072161865143856L-3.7875000000000005,-4.174246852368105L-2.5250000000000004,-4.611586021917021L-1.2625000000000002,-4.988659396441932L0,-5.27723542300285L1.2625000000000002,-5.45736377057915L2.5250000000000004,-5.521610198889954L3.7875000000000005,-5.475846629509524L5.050000000000001,-5.336518234682521L6.3125,-5.125897662944049L7.575000000000001,-4.867310024530048L8.8375,-4.581684229688572L10.100000000000001,-4.2858043600676226L11.3625,-3.9919436137633135L12.625,-3.7083286245081233L13.887500000000001,-3.4399513916538393L15.150000000000002,-3.189419530980609L16.4125,-2.957693146658845L17.675,-2.744660074567111L18.9375,-2.5495552261492884L20.200000000000003,-2.371251195609119L21.462500000000002,-2.208451301958353L22.725,-2.0598126554272747L23.9875,-1.9240209747395627" stroke-width="1" stroke="black" fill-opacity="0" transform="translate(100, 100) rotate(0)"></path>

<path class="photon" d="M-25.25,0L-23.9875,1.5793104830150724L-22.725,-2.380238977837571L-21.462500000000002,1.7246657128287768L-20.200000000000003,0.22259462552001183L-18.9375,-2.402278639681123L-17.675,3.388510613258363L-16.4125,-2.2661394103089445L-15.150000000000002,-0.6475361052894869L-13.887500000000001,3.749345963623393L-12.625,-4.952965666036312L-11.3625,3.0084514151387203L-10.100000000000001,1.4376818139906513L-8.8375,-5.848065300923296L-7.575000000000001,7.147645506016052L-6.3125,-3.8088856335540395L-5.050000000000001,-2.6905790027474143L-3.7875000000000005,8.337117127456379L-2.5250000000000004,-9.111281243093343L-1.2625000000000002,4.007488331031375L0,3.865102666887444L1.2625000000000002,-9.312149347588052L2.5250000000000004,8.819467361185868L3.7875000000000005,-3.035839278507394L5.050000000000001,-3.9528483166978168L6.3125,7.732077912716261L7.575000000000001,-6.479565934878842L8.8375,1.7115200858074109L10.100000000000001,3.217826526604349L11.3625,-5.450461547702104L12.625,4.198921542127837L13.887500000000001,-0.8034128630483472L15.150000000000002,-2.4330455115385377L16.4125,3.719238044044658L17.675,-2.6796287168565818L18.9375,0.30460711302412913L20.200000000000003,1.8425351932963232L21.462500000000002,-2.591897856777797L22.725,1.7492116380425404L23.9875,-0.04301524812412028" stroke-width="1" stroke="black" fill-opacity="0" transform="translate(100, 150) rotate(0)"></path>

</svg>