<?xml version="1.0" encoding="utf-8"?>
<!-- Generator: Adobe Illustrator 15.0.0, SVG Export Plug-In . SVG Version: 6.00 Build 0)  -->
<!DOCTYPE svg PUBLIC "-//W3C//DTD SVG 1.1//EN" "http://www.w3.org/Graphics/SVG/1.1/DTD/svg11.dtd">
<svg version="1.1" id="Layer_1" xmlns="http://www.w3.org/2000/svg" xmlns:xlink="http://www.w3.org/1999/xlink" x="0px" y="0px"
	 width="176px" height="80px" viewBox="26.25 4.167 176 80" enable-background="new 26.25 4.167 176 80" xml:space="preserve">
<rect x="26.25" y="4.167" fill="#BBDBDB" stroke="#231F20" width="176" height="80"/>
<path fill-opacity="0" stroke="#000000" d="M128.309,31.937l1.262-0.06l1.264-0.071l1.264-0.083l1.262-0.098l1.264-0.115
	l1.262-0.133l1.264-0.158l1.263-0.186l1.262-0.217l1.265-0.251l1.262-0.291l1.263-0.334l1.263-0.376l1.262-0.417l1.265-0.45
	l1.263-0.469l1.262-0.467l1.264-0.438l1.262-0.377l1.264-0.289l1.263-0.18l1.263-0.064l1.264,0.046l1.262,0.14l1.264,0.21
	l1.262,0.259l1.264,0.286l1.263,0.296l1.263,0.293l1.264,0.284l1.262,0.269l1.263,0.25l1.263,0.232l1.263,0.213l1.264,0.193
	l1.263,0.18l1.262,0.163l1.264,0.147l1.262,0.137"/>
<path fill-opacity="0" stroke="#000000" d="M50.084,29.422l1.263,1.58l1.262-3.959l1.263,4.104l1.263-1.502l1.263-2.625l1.263,5.791
	l1.262-5.654l1.263,1.618l1.263,4.397l1.263-8.704l1.263,7.962l1.262-1.571l1.263-7.285l1.264,12.995l1.262-10.956l1.264,1.118
	l1.262,11.026l1.264-17.447l1.263,13.119l1.263-0.143l1.264-13.178l1.262,18.131l1.263-11.854l1.263-0.917l1.264,11.685
	l1.263-14.212l1.263,8.19l1.262,1.507l1.264-8.668l1.263,9.649l1.263-5.002l1.263-1.63l1.263,6.152l1.264-6.399l1.263,2.984
	l1.263,1.538l1.262-4.435l1.264,4.341l1.263-1.793"/>
<text transform="matrix(1 0 0 1 51.0156 64.8237)" font-family="'Lato-Regular'" font-size="14">Sunlight</text>
<text transform="matrix(1 0 0 1 129.2178 64.8237)" font-family="'Lato-Regular'" font-size="14">Infrared</text>
</svg>
