<?xml version="1.0" encoding="utf-8"?>
<!-- Generator: Adobe Illustrator 14.0.0, SVG Export Plug-In . SVG Version: 6.00 Build 43363)  -->
<!DOCTYPE svg PUBLIC "-//W3C//DTD SVG 1.1//EN" "http://www.w3.org/Graphics/SVG/1.1/DTD/svg11.dtd">
<svg version="1.1" id="Layer_1" xmlns="http://www.w3.org/2000/svg" xmlns:xlink="http://www.w3.org/1999/xlink" x="0px" y="0px"
	 width="39px" height="111px" viewBox="25.5 4.093 39 111" enable-background="new 25.5 4.093 39 111" xml:space="preserve">
<path fill="#E6E7E8" d="M60.915,106.038c0,6.81-1.053,7.92-7.68,7.92l-14.445,0.273c-6.627,0-7.625-1.384-7.625-8.193V13.563
	c0-6.81,0.998-8.22,7.625-8.22h14.445c6.627,0,7.68,1.41,7.68,8.22V106.038z"/>
<linearGradient id="SVGID_1_" gradientUnits="userSpaceOnUse" x1="986.0449" y1="1290.5266" x2="986.0449" y2="1226.1321">
	<stop  offset="0" style="stop-color:#A7A9AC"/>
	<stop  offset="1" style="stop-color:#FFFFFF"/>
</linearGradient>
<path fill="#E6E7E8" stroke="url(#SVGID_1_)" stroke-width="0.5" stroke-miterlimit="10" d="M36.971,24.763
	c0-2.005,1.624-3.628,3.628-3.628h10.937c2.004,0,3.628,1.622,3.628,3.628v68.458c0,2.003-1.624,3.629-3.628,3.629H40.599
	c-2.004,0-3.628-1.625-3.628-3.629V24.763z"/>
<linearGradient id="SVGID_2_" gradientUnits="userSpaceOnUse" x1="1245.5889" y1="890.0452" x2="1245.5889" y2="962.26" gradientTransform="matrix(-1 0 0 1 1291.6289 -867.2383)">
	<stop  offset="0.0043" style="stop-color:#EF4136"/>
	<stop  offset="0.1653" style="stop-color:#F1604B"/>
	<stop  offset="0.5189" style="stop-color:#F79E85"/>
	<stop  offset="1" style="stop-color:#FFFFFF"/>
</linearGradient>
<path fill="url(#SVGID_2_)" d="M42.827,95.023c-2.215,0-4.009-1.796-4.009-4.011V26.893c0-2.257,1.828-4.086,4.085-4.086h6.274
	c2.257,0,4.086,1.829,4.086,4.086v64.119c0,2.215-1.795,4.011-4.011,4.011H42.827z"/>
<rect x="14.397" y="9.607" fill="none" width="61.36" height="14.812"/>
<text transform="matrix(1 0 0 1 34.606 17.0129)" font-family="'ArialMT'" font-size="9.4798">HIGH</text>
<rect x="14.397" y="103.033" fill="none" width="61.36" height="14.812"/>
<text transform="matrix(1 0 0 1 35.293 108.6692)" font-family="'ArialMT'" font-size="9.4798">LOW</text>
</svg>
