<?xml version="1.0" encoding="utf-8"?>
<!-- Generator: Adobe Illustrator 15.0.0, SVG Export Plug-In . SVG Version: 6.00 Build 0)  -->
<!DOCTYPE svg PUBLIC "-//W3C//DTD SVG 1.1//EN" "http://www.w3.org/Graphics/SVG/1.1/DTD/svg11.dtd">
<svg version="1.1" id="Selected_Items" xmlns="http://www.w3.org/2000/svg" xmlns:xlink="http://www.w3.org/1999/xlink" x="0px"
	 y="0px" width="48.05px" height="13.8px" viewBox="0 0 48.05 13.8" enable-background="new 0 0 48.05 13.8" xml:space="preserve">
<g>
	<rect y="0.1" fill-rule="evenodd" clip-rule="evenodd" fill="#FC3E4B" width="48" height="6.9"/>
	<rect y="10.25" fill-rule="evenodd" clip-rule="evenodd" fill="#FE9CA0" width="48" height="2.95"/>
	<rect y="7" fill-rule="evenodd" clip-rule="evenodd" fill="#FE707E" width="48" height="3.25"/>
	<g>
		<path fill-rule="evenodd" clip-rule="evenodd" fill="#B80315" d="M47.15,12.4c0.3-0.033,0.6-0.033,0.9,0v1.4H0v-1.45
			c0.133,0,0.267,0,0.4,0c15.934,0,31.434,0.017,46.5,0.05C47,12.4,47.083,12.4,47.15,12.4z M47.15,0.05c0.3-0.033,0.6-0.033,0.9,0
			v1.4H0V0c0.133,0,0.267,0,0.4,0c15.934,0,31.434,0.017,46.5,0.05C47,0.05,47.083,0.05,47.15,0.05z"/>
	</g>
</g>
</svg>
