<svg id="Selected_Items" data-name="Selected Items" xmlns="http://www.w3.org/2000/svg" xmlns:xlink="http://www.w3.org/1999/xlink" viewBox="0 0 729.45 543.2"><defs><linearGradient id="linear-gradient" x1="364.77" y1="597.04" x2="364.73" y2="95.86" gradientTransform="translate(0 -69.85)" gradientUnits="userSpaceOnUse"><stop offset="0.01" stop-color="#55b7b2"/><stop offset="1" stop-color="#69cbc6"/></linearGradient></defs><title>bg nucleus dark brown</title><g id="Layer_1" data-name="Layer 1"><path d="M728.5,28.15a4563.2,4563.2,0,0,0-727.85,0,8.61,8.61,0,0,1-.25-2V24.8a4128,4128,0,0,1,727.5,0c.22.8.42,1.71.6,2.75Z" style="fill:#8ed6d1;fill-rule:evenodd;opacity:0.3"/><path d="M727.9,24.8A4128,4128,0,0,0,.4,24.8H0V19.05q359.09-32.1,729.45,0V24.8Z" style="fill-rule:evenodd;fill:url(#linear-gradient)"/><path d="M.65,28.15a4563.2,4563.2,0,0,1,727.85,0h1V543.2H0V28.15Z" style="fill:#55b7b2;fill-rule:evenodd"/></g></svg>