<?xml version="1.0" encoding="UTF-8" standalone="no"?>
<!-- Created with Inkscape (http://www.inkscape.org/) -->

<svg
   xmlns:dc="http://purl.org/dc/elements/1.1/"
   xmlns:cc="http://creativecommons.org/ns#"
   xmlns:rdf="http://www.w3.org/1999/02/22-rdf-syntax-ns#"
   xmlns:svg="http://www.w3.org/2000/svg"
   xmlns="http://www.w3.org/2000/svg"
   version="1.1"
   width="50.700001"
   height="21.050766"
   viewBox="0 0 50.700002 21.050766"
   id="Selected_Items"
   xml:space="preserve"><metadata
     id="metadata150"><rdf:RDF><cc:Work
         rdf:about=""><dc:format>image/svg+xml</dc:format><dc:type
           rdf:resource="http://purl.org/dc/dcmitype/StillImage" /><dc:title></dc:title></cc:Work></rdf:RDF></metadata><defs
     id="defs148" /><g
     transform="translate(-11.5,-54.099234)"
     id="g60"><path
       d="m 33.7,69.2 c 1,-1.267 1.6,-2.534 1.8,-3.8 h -7.2 v -1.5 h 7.25 c -0.167,-1.333 -0.783,-2.667 -1.85,-4 l 7.35,4.65 -7.35,4.65 z"
       id="path62"
       style="fill:#828a8b;fill-rule:evenodd" /></g><g
     transform="translate(-11.5,-54.099234)"
     id="g96"><g
       id="g98"><path
         d="m 23.8,57.45 c 1.367,2 2.05,4.417 2.05,7.25 0,2.833 -0.684,5.25 -2.05,7.25 V 71.9 c -1.133,1.667 -2.433,2.667 -3.9,3 H 17.4 C 15.9,74.567 14.6,73.584 13.5,71.95 V 71.9 c -1.333,-1.967 -2,-4.367 -2,-7.2 0,-2.833 0.667,-5.25 2,-7.25 1.433,-2.1 3.15,-3.133 5.15,-3.1 2.033,0 3.75,1.033 5.15,3.1 z m -5.35,-2.4 c -1.767,0.133 -3.184,1.083 -4.25,2.85 -1.2,1.867 -1.784,4.133 -1.75,6.8 0.066,2.633 0.65,4.883 1.75,6.75 1.233,1.566 2.716,2.35 4.45,2.35 1.767,0 3.25,-0.783 4.45,-2.35 1.167,-1.733 1.75,-3.934 1.75,-6.6 0.033,-2.633 -0.55,-4.95 -1.75,-6.95 -1.367,-2 -2.917,-2.95 -4.65,-2.85 z"
         id="path100"
         style="fill:#cc5b4c;fill-rule:evenodd" /><path
         d="m 18.45,55.05 c 1.733,-0.1 3.283,0.85 4.65,2.85 1.2,2 1.783,4.317 1.75,6.95 0,2.667 -0.583,4.867 -1.75,6.6 -1.2,1.566 -2.684,2.35 -4.45,2.35 -1.733,0 -3.217,-0.783 -4.45,-2.35 -1.1,-1.867 -1.684,-4.117 -1.75,-6.75 -0.034,-2.667 0.55,-4.934 1.75,-6.8 1.067,-1.767 2.483,-2.717 4.25,-2.85 z"
         id="path102"
         style="fill:#f9ceff;fill-rule:evenodd" /></g><g
       id="g104"><path
         d="m 19.2,62.4 c 0.7,0.033 1.267,0.233 1.7,0.6 0.533,0.433 0.833,0.983 0.9,1.65 h -1.4 c -0.1,-0.467 -0.35,-0.8 -0.75,-1 -0.1,-0.033 -0.2,-0.066 -0.3,-0.1 -0.167,-0.033 -0.333,-0.05 -0.5,-0.05 -0.567,0 -1.017,0.217 -1.35,0.65 -0.367,0.4 -0.55,1.017 -0.55,1.85 0,0.833 0.2,1.433 0.6,1.8 0.367,0.333 0.8,0.5 1.3,0.5 0.1,0 0.217,0 0.35,0 0.3,-0.066 0.566,-0.2 0.8,-0.4 0.3,-0.267 0.5,-0.617 0.6,-1.05 V 66.8 H 19 v -1.1 h 2.85 v 3.65 H 20.9 L 20.75,68.5 c -0.267,0.333 -0.517,0.567 -0.75,0.7 -0.233,0.133 -0.5,0.233 -0.8,0.3 -0.2,0.033 -0.4,0.05 -0.6,0.05 -0.9,0 -1.633,-0.316 -2.2,-0.95 -0.6,-0.633 -0.9,-1.5 -0.9,-2.6 0,-1.1 0.3,-1.983 0.9,-2.65 0.6,-0.667 1.4,-1 2.4,-1 0.133,0 0.267,0.017 0.4,0.05 z"
         id="path106"
         style="fill:#4a3217;fill-rule:evenodd" /></g></g><g
     transform="translate(-11.5,-54.099234)"
     id="g134"><g
       id="g136"><path
         d="m 57.3,73.05 h -0.45 c 0.066,-0.133 0.15,-0.3 0.25,-0.5 0.833,-1.966 2.117,-5.15 3.85,-9.55 l -4.75,-5.65 -3.65,4.1 c -0.066,0 -0.1,-0.017 -0.1,-0.05 -0.167,-0.066 -0.284,-0.167 -0.35,-0.3 h -0.05 c -0.9,-0.934 -1.767,-1.883 -2.6,-2.85 l -0.7,-0.9 -4.7,5.65 c 1.767,4.5 3.05,7.683 3.85,9.55 0.067,0.2 0.133,0.367 0.2,0.5 h -0.3 -0.5 c -0.033,0 -0.05,-0.033 -0.05,-0.1 l -4.3,-9.6 c 0,-0.033 -0.017,-0.067 -0.05,-0.1 -0.066,-0.1 -0.1,-0.2 -0.1,-0.3 0,-0.167 0.05,-0.317 0.15,-0.45 l 5.55,-6.1 c 0.067,-0.066 0.15,-0.117 0.25,-0.15 0.1,-0.033 0.2,-0.033 0.3,0 0.1,0.033 0.2,0.083 0.3,0.15 l 3.1,3.5 3.2,-3.5 c 0.067,-0.066 0.15,-0.117 0.25,-0.15 0.1,-0.033 0.2,-0.033 0.3,0 0.1,0.033 0.2,0.083 0.3,0.15 l 5.55,6.1 c 0.1,0.133 0.15,0.283 0.15,0.45 0,0.1 -0.034,0.2 -0.1,0.3 -0.033,0.033 -0.05,0.067 -0.05,0.1 l -4.35,9.7 h -0.4 z"
         id="path138"
         style="fill:#278db0;fill-rule:evenodd" /><path
         d="m 57.3,73.05 c -0.033,0.034 -0.066,0.05 -0.1,0.05 -0.233,0.066 -2.717,0.066 -7.45,0 l 0.9,0.05 c -1.333,0 -2.15,0 -2.45,0 -0.167,0 -0.3,-0.033 -0.4,-0.1 h 0.3 C 48.033,72.917 47.967,72.75 47.9,72.55 47.1,70.683 45.817,67.5 44.05,63 l 4.7,-5.65 0.7,0.9 c 0.833,0.967 1.7,1.917 2.6,2.85 h 0.05 c 0.066,0.133 0.183,0.233 0.35,0.3 0,0.033 0.033,0.05 0.1,0.05 l 3.65,-4.1 4.75,5.65 c -1.733,4.4 -3.017,7.583 -3.85,9.55 -0.1,0.2 -0.184,0.367 -0.25,0.5 h 0.45 z"
         id="path140"
         style="fill:#99f0e3;fill-rule:evenodd" /></g><g
       id="g142"><polygon
         points="49.6,63.3 55.15,63.3 55.15,64.55 53.1,64.55 53.1,70.15 51.65,70.15 51.65,64.55 49.6,64.55 "
         id="polygon144"
         style="fill:#4a3217;fill-rule:evenodd" /></g></g></svg>