<?xml version="1.0" encoding="utf-8"?>
<!-- Generator: Adobe Illustrator 15.0.0, SVG Export Plug-In . SVG Version: 6.00 Build 0)  -->
<!DOCTYPE svg PUBLIC "-//W3C//DTD SVG 1.1//EN" "http://www.w3.org/Graphics/SVG/1.1/DTD/svg11.dtd">
<svg version="1.1" id="Selected_Items" xmlns="http://www.w3.org/2000/svg" xmlns:xlink="http://www.w3.org/1999/xlink" x="0px"
	 y="0px" width="21.2px" height="25.3px" viewBox="0 0 21.2 25.3" enable-background="new 0 0 21.2 25.3" xml:space="preserve">
<g>
	<g>
		<path fill-rule="evenodd" clip-rule="evenodd" fill="#CC5B4C" d="M12.45,0c2.167,0.5,4.066,1.95,5.7,4.35
			c2.033,2.967,3.05,6.533,3.05,10.7c0,3.8-0.867,7.117-2.6,9.95c-0.067,0.133-0.167,0.217-0.3,0.25c-0.133,0.067-0.267,0.067-0.4,0
			c-0.133-0.033-0.233-0.117-0.3-0.25c-0.133-0.233-0.283-0.45-0.45-0.65V24.3c-1.8-2.667-3.983-4-6.55-4
			c-2.567,0.034-4.767,1.383-6.6,4.05c-0.167,0.2-0.3,0.417-0.4,0.65c-0.1,0.133-0.217,0.217-0.35,0.25
			c-0.133,0.067-0.267,0.067-0.4,0c-0.133-0.033-0.233-0.117-0.3-0.25C0.85,22.167,0,18.85,0,15.05c0-4.167,1-7.733,3-10.7
			C4.633,1.95,6.55,0.5,8.75,0H12.45z M4,5.05V5C3.991,5.016,3.982,5.033,3.975,5.05C2.289,7.935,1.431,11.126,1.4,14.625
			c-0.03,3.519,0.536,6.477,1.7,8.875c2.066-3.39,4.566-5.064,7.5-5.025c2.933,0.04,5.433,1.731,7.5,5.075
			c1.088-2.518,1.605-5.559,1.55-9.125c-0.055-3.565-0.888-6.69-2.5-9.375V5c-1.8-2.397-3.983-3.589-6.55-3.575
			C8.033,1.439,5.833,2.647,4,5.05z"/>
		<path fill-rule="evenodd" clip-rule="evenodd" fill="#FBB394" d="M3.975,5.05H4c1.833-2.402,4.033-3.611,6.6-3.625
			C13.167,1.411,15.35,2.603,17.15,5v0.05c1.612,2.685,2.445,5.81,2.5,9.375c0.055,3.566-0.461,6.607-1.55,9.125
			c-2.067-3.344-4.567-5.035-7.5-5.075c-2.934-0.04-5.434,1.635-7.5,5.025c-1.164-2.398-1.73-5.356-1.7-8.875
			C1.431,11.126,2.289,7.935,3.975,5.05z"/>
	</g>
	<g>
		<path fill-rule="evenodd" clip-rule="evenodd" fill="#4A3217" d="M15,12.35c-0.033,0.633-0.267,1.267-0.7,1.9
			c-0.767,1.1-1.983,1.65-3.65,1.65c-1.267,0-2.3-0.417-3.1-1.25c-0.933-0.933-1.4-2.283-1.4-4.05c0-1.633,0.4-2.917,1.2-3.85
			c0.833-0.933,1.967-1.4,3.4-1.4c1.167,0,2.117,0.35,2.85,1.05c0.733,0.7,1.183,1.6,1.35,2.7H12.9
			c-0.133-0.533-0.316-0.934-0.55-1.2c-0.367-0.467-0.917-0.7-1.65-0.7c-0.7,0-1.284,0.283-1.75,0.85
			c-0.434,0.567-0.65,1.4-0.65,2.5c0,1.133,0.217,2.017,0.65,2.65c0.433,0.6,1.017,0.9,1.75,0.9c0.733,0,1.3-0.217,1.7-0.65
			c0.2-0.233,0.367-0.6,0.5-1.1H15z"/>
	</g>
</g>
</svg>
