<?xml version="1.0" encoding="utf-8"?>
<!-- Generator: Adobe Illustrator 15.0.0, SVG Export Plug-In . SVG Version: 6.00 Build 0)  -->
<!DOCTYPE svg PUBLIC "-//W3C//DTD SVG 1.1//EN" "http://www.w3.org/Graphics/SVG/1.1/DTD/svg11.dtd">
<svg version="1.1"
	 id="Layer_1" xmlns:svg="http://www.w3.org/2000/svg" xmlns:rdf="http://www.w3.org/1999/02/22-rdf-syntax-ns#" xmlns:cc="http://creativecommons.org/ns#" xmlns:dc="http://purl.org/dc/elements/1.1/" inkscape:version="0.48.2 r9819" xmlns:sodipodi="http://sodipodi.sourceforge.net/DTD/sodipodi-0.dtd" xmlns:inkscape="http://www.inkscape.org/namespaces/inkscape" sodipodi:docname="waterDyeKey.svg"
	 xmlns="http://www.w3.org/2000/svg" xmlns:xlink="http://www.w3.org/1999/xlink" x="0px" y="0px" width="77.704px"
	 height="64.764px" viewBox="3.175 3.682 77.704 64.764" enable-background="new 3.175 3.682 77.704 64.764" xml:space="preserve">
<filter  height="1.5" width="1.5" y="-.25" x="-.25" id="filter3296" inkscape:label="Drop shadow">
	<feGaussianBlur  id="feGaussianBlur3298" in="SourceAlpha" stdDeviation="2" result="blur"></feGaussianBlur>
	<feColorMatrix  type="matrix" id="feColorMatrix3300" values="1 0 0 0 0 0 1 0 0 0 0 0 1 0 0 0 0 0 0.5 0 " result="bluralpha">
		</feColorMatrix>
	<feOffset  id="feOffset3302" in="bluralpha" dy="3" dx="3" result="offsetBlur"></feOffset>
	<feMerge  id="feMerge3304">
		<feMergeNode  id="feMergeNode3306" in="offsetBlur"></feMergeNode>
		<feMergeNode  id="feMergeNode3308" in="SourceGraphic"></feMergeNode>
	</feMerge>
</filter>
<sodipodi:namedview  id="namedview3087" inkscape:cx="45" inkscape:cy="39" inkscape:window-x="0" inkscape:window-y="0" inkscape:window-maximized="0" pagecolor="#ffffff" objecttolerance="10" gridtolerance="10" guidetolerance="10" inkscape:pageopacity="0" inkscape:pageshadow="2" inkscape:window-width="1679" inkscape:window-height="915" borderopacity="1" showgrid="false" inkscape:zoom="8.1025641" inkscape:current-layer="g3067" bordercolor="#666666">
	</sodipodi:namedview>
<g id="g3067">
	<g id="g3071" filter="url(#filter3296)">
		<path fill="#DCECDA" d="M80.396,62.387c0,3.08-2.688,5.577-6,5.577H9.657c-3.313,0-6-2.497-6-5.577V9.741
			c0-3.08,2.687-5.577,6-5.577h64.739c3.312,0,6,2.497,6,5.577V62.387z"/>
		<path fill="none" stroke="#231F20" stroke-width="0.9641" stroke-miterlimit="10" d="M80.396,62.387c0,3.08-2.688,5.577-6,5.577
			H9.657c-3.313,0-6-2.497-6-5.577V9.741c0-3.08,2.687-5.577,6-5.577h64.739c3.312,0,6,2.497,6,5.577V62.387z"/>
	</g>
</g>
<g id="text3077" enable-background="new    ">
	<path d="M31.96,13.063h0.584c0.203,0,0.364-0.024,0.484-0.075s0.233-0.138,0.34-0.261l3.816-4.319
		c0.117-0.134,0.231-0.229,0.34-0.284c0.109-0.056,0.249-0.084,0.42-0.084h1.32l-4.368,4.936c-0.112,0.123-0.218,0.228-0.316,0.312
		s-0.204,0.154-0.316,0.208c0.149,0.048,0.28,0.12,0.392,0.216s0.229,0.216,0.352,0.36l4.56,5.432h-1.344
		c-0.101,0-0.187-0.008-0.256-0.024c-0.069-0.016-0.129-0.037-0.18-0.063s-0.097-0.062-0.14-0.104
		c-0.043-0.042-0.085-0.088-0.128-0.136l-3.96-4.552c-0.059-0.064-0.113-0.119-0.164-0.164c-0.051-0.045-0.109-0.084-0.176-0.116
		s-0.144-0.055-0.232-0.067c-0.088-0.014-0.196-0.021-0.324-0.021H31.96v5.248h-1.544V8.04h1.544V13.063z"/>
	<path d="M43.849,11.271c0.485,0,0.933,0.082,1.344,0.244c0.411,0.163,0.765,0.397,1.064,0.704c0.298,0.307,0.532,0.686,0.7,1.136
		c0.168,0.451,0.252,0.965,0.252,1.54c0,0.225-0.024,0.374-0.072,0.448c-0.048,0.075-0.139,0.112-0.271,0.112h-5.393
		c0.011,0.512,0.08,0.957,0.208,1.336s0.304,0.694,0.528,0.948c0.224,0.253,0.491,0.442,0.8,0.567
		c0.309,0.126,0.656,0.188,1.04,0.188c0.357,0,0.665-0.041,0.924-0.124s0.481-0.172,0.668-0.269
		c0.187-0.096,0.343-0.185,0.469-0.268c0.125-0.083,0.232-0.124,0.323-0.124c0.117,0,0.208,0.045,0.272,0.136l0.399,0.521
		c-0.176,0.213-0.387,0.398-0.632,0.556c-0.246,0.157-0.508,0.287-0.788,0.388c-0.28,0.102-0.569,0.178-0.868,0.229
		c-0.299,0.051-0.595,0.076-0.888,0.076c-0.56,0-1.076-0.095-1.548-0.284c-0.472-0.189-0.88-0.467-1.224-0.832
		c-0.344-0.365-0.612-0.817-0.804-1.356c-0.192-0.538-0.288-1.157-0.288-1.855c0-0.565,0.087-1.094,0.26-1.584
		c0.173-0.491,0.422-0.916,0.748-1.276c0.325-0.359,0.723-0.643,1.192-0.848S43.262,11.271,43.849,11.271z M43.881,12.32
		c-0.688,0-1.229,0.198-1.624,0.596c-0.395,0.397-0.64,0.948-0.736,1.652h4.408c0-0.331-0.046-0.634-0.136-0.908
		c-0.091-0.274-0.225-0.513-0.4-0.712c-0.176-0.2-0.391-0.354-0.644-0.464S44.206,12.32,43.881,12.32z"/>
	<path d="M51.192,21.896c-0.048,0.107-0.108,0.192-0.181,0.257c-0.071,0.063-0.182,0.096-0.331,0.096h-1.056l1.479-3.216L47.76,11.4
		h1.232c0.123,0,0.219,0.03,0.288,0.092s0.12,0.129,0.152,0.204l2.168,5.104c0.048,0.117,0.089,0.234,0.124,0.353
		c0.035,0.117,0.064,0.237,0.092,0.359c0.037-0.122,0.074-0.242,0.111-0.359c0.038-0.118,0.08-0.237,0.129-0.36l2.104-5.096
		c0.032-0.086,0.087-0.156,0.164-0.212c0.078-0.057,0.162-0.084,0.252-0.084h1.137L51.192,21.896z"/>
</g>
<g id="text3079" enable-background="new    ">
	<path d="M27.962,29.248h1.127c0.121,0,0.222,0.03,0.301,0.091c0.08,0.062,0.133,0.138,0.161,0.231l2.072,6.972
		c0.038,0.126,0.071,0.262,0.102,0.406s0.06,0.297,0.088,0.455c0.032-0.158,0.065-0.312,0.098-0.459
		c0.033-0.146,0.07-0.28,0.112-0.402l2.359-6.972c0.028-0.079,0.083-0.152,0.165-0.221c0.082-0.067,0.181-0.102,0.297-0.102h0.392
		c0.121,0,0.22,0.03,0.297,0.091c0.077,0.062,0.132,0.138,0.165,0.231l2.345,6.972c0.084,0.243,0.158,0.521,0.224,0.833
		c0.028-0.153,0.054-0.301,0.077-0.44c0.023-0.141,0.054-0.271,0.091-0.393l2.079-6.972c0.023-0.084,0.076-0.158,0.158-0.224
		c0.082-0.065,0.181-0.099,0.297-0.099h1.057l-3.129,10.031h-1.218l-2.541-7.651c-0.051-0.145-0.098-0.312-0.14-0.504
		c-0.023,0.094-0.045,0.184-0.066,0.27c-0.021,0.087-0.043,0.165-0.066,0.234l-2.555,7.651h-1.218L27.962,29.248z"/>
	<path d="M47.744,39.279h-0.553c-0.121,0-0.22-0.019-0.295-0.056c-0.074-0.038-0.123-0.117-0.146-0.238l-0.14-0.658
		c-0.187,0.168-0.368,0.318-0.546,0.451c-0.178,0.134-0.364,0.245-0.561,0.337c-0.196,0.091-0.405,0.159-0.626,0.206
		s-0.468,0.07-0.738,0.07c-0.275,0-0.533-0.039-0.773-0.116c-0.24-0.076-0.449-0.192-0.626-0.346
		c-0.178-0.154-0.318-0.35-0.424-0.585c-0.105-0.235-0.157-0.515-0.157-0.837c0-0.279,0.077-0.549,0.231-0.808
		c0.154-0.26,0.402-0.489,0.746-0.689c0.343-0.201,0.792-0.365,1.347-0.494c0.556-0.128,1.235-0.201,2.038-0.221v-0.553
		c0-0.551-0.118-0.967-0.354-1.249c-0.236-0.282-0.585-0.424-1.047-0.424c-0.303,0-0.559,0.038-0.767,0.115
		s-0.387,0.164-0.539,0.259c-0.151,0.096-0.282,0.183-0.392,0.26c-0.11,0.077-0.218,0.115-0.326,0.115
		c-0.084,0-0.158-0.022-0.221-0.066s-0.113-0.1-0.15-0.165l-0.224-0.398c0.392-0.378,0.814-0.66,1.267-0.847
		c0.453-0.188,0.955-0.28,1.505-0.28c0.397,0,0.749,0.065,1.057,0.195c0.309,0.131,0.566,0.313,0.777,0.547
		c0.21,0.233,0.368,0.516,0.476,0.847s0.161,0.695,0.161,1.092V39.279z M44.51,38.517c0.219,0,0.42-0.022,0.602-0.066
		c0.182-0.045,0.354-0.107,0.515-0.189c0.16-0.081,0.314-0.181,0.462-0.298c0.147-0.116,0.29-0.249,0.431-0.398v-1.478
		c-0.574,0.02-1.062,0.064-1.463,0.137s-0.728,0.167-0.98,0.283c-0.252,0.117-0.435,0.255-0.549,0.413
		c-0.115,0.159-0.172,0.336-0.172,0.532c0,0.187,0.03,0.348,0.091,0.483c0.061,0.135,0.142,0.246,0.245,0.332
		c0.103,0.087,0.224,0.149,0.364,0.189C44.195,38.496,44.347,38.517,44.51,38.517z"/>
	<path d="M51.783,39.392c-0.561,0-0.99-0.156-1.291-0.47c-0.301-0.312-0.451-0.763-0.451-1.351v-4.34h-0.854
		c-0.075,0-0.138-0.022-0.189-0.066c-0.052-0.045-0.077-0.113-0.077-0.207v-0.497l1.162-0.146l0.287-2.191
		c0.01-0.069,0.039-0.127,0.092-0.171c0.051-0.045,0.115-0.066,0.195-0.066h0.63v2.442h2.03v0.903h-2.03v4.256
		c0,0.299,0.072,0.521,0.218,0.665c0.145,0.145,0.33,0.217,0.56,0.217c0.13,0,0.243-0.018,0.339-0.053
		c0.096-0.034,0.18-0.073,0.249-0.115s0.13-0.08,0.179-0.115s0.092-0.053,0.129-0.053c0.065,0,0.124,0.04,0.176,0.119l0.363,0.595
		c-0.215,0.201-0.474,0.358-0.777,0.473C52.418,39.334,52.105,39.392,51.783,39.392z"/>
	<path d="M57.663,32.076c0.425,0,0.816,0.071,1.176,0.214s0.67,0.348,0.931,0.616c0.262,0.268,0.466,0.6,0.613,0.993
		c0.146,0.395,0.221,0.844,0.221,1.348c0,0.196-0.021,0.327-0.063,0.393s-0.122,0.098-0.238,0.098h-4.718
		c0.01,0.448,0.07,0.838,0.182,1.169c0.112,0.331,0.267,0.608,0.463,0.829c0.195,0.222,0.429,0.388,0.699,0.497
		c0.271,0.11,0.574,0.165,0.91,0.165c0.312,0,0.582-0.036,0.809-0.108s0.421-0.15,0.584-0.234c0.164-0.084,0.301-0.162,0.41-0.235
		c0.109-0.072,0.204-0.108,0.283-0.108c0.103,0,0.182,0.04,0.238,0.119l0.35,0.455c-0.154,0.187-0.338,0.349-0.553,0.486
		s-0.444,0.251-0.689,0.34s-0.498,0.155-0.76,0.199c-0.262,0.045-0.52,0.066-0.777,0.066c-0.489,0-0.941-0.083-1.354-0.248
		c-0.414-0.166-0.771-0.408-1.071-0.729c-0.302-0.319-0.536-0.715-0.704-1.187c-0.168-0.471-0.252-1.012-0.252-1.624
		c0-0.494,0.076-0.956,0.229-1.386c0.15-0.429,0.369-0.802,0.654-1.116c0.284-0.315,0.632-0.562,1.043-0.742
		C56.688,32.166,57.149,32.076,57.663,32.076z M57.691,32.993c-0.603,0-1.076,0.174-1.422,0.521c-0.345,0.348-0.56,0.83-0.644,1.445
		h3.856c0-0.289-0.039-0.554-0.119-0.794c-0.078-0.24-0.195-0.448-0.35-0.623s-0.342-0.311-0.562-0.406
		C58.229,33.041,57.976,32.993,57.691,32.993z"/>
	<path d="M62.191,39.279v-7.091h0.715c0.135,0,0.229,0.025,0.279,0.077c0.052,0.051,0.087,0.14,0.105,0.266l0.084,1.106
		c0.242-0.495,0.543-0.881,0.899-1.159c0.356-0.277,0.776-0.416,1.257-0.416c0.195,0,0.373,0.022,0.531,0.066
		c0.159,0.044,0.307,0.106,0.441,0.186l-0.161,0.931c-0.032,0.117-0.104,0.175-0.217,0.175c-0.065,0-0.165-0.021-0.302-0.066
		c-0.135-0.044-0.324-0.066-0.566-0.066c-0.434,0-0.797,0.126-1.088,0.378c-0.292,0.252-0.536,0.619-0.732,1.1v4.515H62.191z"/>
</g>
<g id="text3081" enable-background="new    ">
	<path d="M37.776,52.957c0,0.751-0.119,1.435-0.357,2.051c-0.238,0.616-0.574,1.144-1.008,1.582s-0.954,0.778-1.561,1.019
		c-0.606,0.24-1.278,0.36-2.016,0.36h-3.752V47.938h3.752c0.737,0,1.409,0.12,2.016,0.36c0.607,0.241,1.127,0.581,1.561,1.022
		s0.77,0.97,1.008,1.585C37.657,51.521,37.776,52.205,37.776,52.957z M36.383,52.957c0-0.616-0.084-1.167-0.252-1.652
		s-0.406-0.896-0.714-1.232c-0.308-0.336-0.682-0.592-1.12-0.77c-0.439-0.178-0.926-0.266-1.463-0.266h-2.387v7.833h2.387
		c0.537,0,1.024-0.089,1.463-0.267c0.438-0.177,0.812-0.433,1.12-0.767c0.308-0.333,0.546-0.743,0.714-1.229
		S36.383,53.572,36.383,52.957z"/>
	<path d="M41.507,60.062c-0.042,0.094-0.095,0.168-0.158,0.225c-0.063,0.056-0.16,0.084-0.291,0.084h-0.924l1.295-2.814
		l-2.926-6.678h1.078c0.107,0,0.191,0.026,0.252,0.08c0.061,0.054,0.105,0.113,0.133,0.179l1.897,4.466
		c0.042,0.103,0.078,0.206,0.108,0.309s0.057,0.207,0.081,0.314c0.033-0.107,0.065-0.212,0.098-0.314s0.07-0.208,0.112-0.315
		l1.841-4.459c0.028-0.074,0.076-0.137,0.143-0.186c0.068-0.049,0.141-0.073,0.221-0.073h0.994L41.507,60.062z"/>
	<path d="M49.221,50.766c0.425,0,0.816,0.071,1.176,0.214s0.67,0.348,0.932,0.616c0.262,0.268,0.465,0.6,0.612,0.993
		c0.147,0.395,0.221,0.844,0.221,1.348c0,0.196-0.021,0.327-0.063,0.393c-0.041,0.065-0.121,0.098-0.238,0.098h-4.717
		c0.009,0.448,0.069,0.838,0.182,1.169c0.111,0.331,0.266,0.608,0.462,0.829c0.196,0.222,0.429,0.388,0.7,0.497
		c0.271,0.11,0.574,0.165,0.91,0.165c0.312,0,0.582-0.036,0.809-0.108c0.226-0.072,0.42-0.15,0.584-0.234
		c0.163-0.084,0.3-0.162,0.41-0.235c0.109-0.072,0.203-0.108,0.283-0.108c0.102,0,0.182,0.04,0.238,0.119l0.35,0.455
		c-0.154,0.187-0.339,0.349-0.553,0.486c-0.215,0.138-0.445,0.251-0.689,0.34c-0.246,0.089-0.498,0.155-0.76,0.199
		c-0.262,0.045-0.521,0.066-0.777,0.066c-0.49,0-0.941-0.083-1.354-0.248c-0.413-0.166-0.771-0.408-1.071-0.729
		c-0.301-0.319-0.535-0.715-0.703-1.187c-0.168-0.471-0.252-1.012-0.252-1.624c0-0.494,0.076-0.956,0.228-1.386
		c0.151-0.429,0.37-0.802,0.654-1.116c0.284-0.315,0.632-0.562,1.043-0.742S48.707,50.766,49.221,50.766z M49.249,51.683
		c-0.603,0-1.075,0.174-1.421,0.521s-0.561,0.83-0.645,1.445h3.857c0-0.289-0.039-0.554-0.119-0.794
		c-0.079-0.24-0.195-0.448-0.35-0.623s-0.342-0.311-0.563-0.406S49.533,51.683,49.249,51.683z"/>
</g>
<circle id="circle3083" fill="#99CCFF" stroke="#000000" stroke-miterlimit="10" cx="17.783" cy="34.713" r="3.473"/>
<circle id="circle3085" fill="#FF0000" stroke="#000000" stroke-miterlimit="10" cx="17.783" cy="52.906" r="3.473"/>
</svg>
