<?xml version="1.0" encoding="utf-8"?>
<!-- Generator: Adobe Illustrator 15.0.0, SVG Export Plug-In . SVG Version: 6.00 Build 0)  -->
<!DOCTYPE svg PUBLIC "-//W3C//DTD SVG 1.1//EN" "http://www.w3.org/Graphics/SVG/1.1/DTD/svg11.dtd">
<svg version="1.1" id="Layer_2" xmlns="http://www.w3.org/2000/svg" xmlns:xlink="http://www.w3.org/1999/xlink" x="0px" y="0px"
	 width="176.333px" height="149.167px" viewBox="0 0 176.333 149.167" enable-background="new 0 0 176.333 149.167"
	 xml:space="preserve">
<g>
	<path fill="#BE3526" stroke="#000000" stroke-miterlimit="10" d="M37.747,64.453c-4.938,4.197-11.85,5.678-11.85,5.678
		c7.159,20.491-20.738,36.538-20.738,36.538c28.638-8.394,49.128,20.983,49.128,20.983c16.295-12.59,27.65-1.233,27.65-1.233
		c-1.481-15.06,10.122-17.035,10.122-17.035c17.774,1.234,11.108,27.897,11.108,27.897c17.775-7.406,27.156,8.394,27.156,8.394
		c-0.987-23.453,10.862-24.935,10.862-24.935c-8.641-18.762,7.407-24.193,7.407-24.193c-3.457-5.432,0-11.85,0-11.85
		c-20.244-31.106,11.355-42.956,11.355-42.956s8.19-4.713,14.812-16.541c2.346-14.38-11.788-16.787-14.812-10.122
		c-1.173,3.148,3.518,9.382,0,17.281c-3.518,7.9-15.801,14.812-15.801,14.812c-5.862,2.777-15.017-0.37-19.749-5.431
		c-4.732-5.062-5.431-23.947-5.431-23.947c-7.901,0.494-7.653-6.912-7.653-6.912c-15.06,7.406-24.44-8.888-24.44-8.888
		C70.828,18.288,49.349,4.957,49.349,4.957c16.047,14.071,6.172,34.81,6.172,34.81c14.565-2.223,12.591,10.121,12.591,10.121
		c-10.369,13.085-27.65-2.716-27.65-2.716C42.684,60.256,37.747,64.453,37.747,64.453"/>
	<g>
		<path d="M136.415,54.908c-1.659,1.934-3.784,3.401-5.904,4.788c-2.14,1.376-4.356,2.627-6.605,3.812
			c-4.513,2.344-9.16,4.419-13.868,6.338c-4.706,1.927-9.507,3.616-14.357,5.149c-4.854,1.521-9.77,2.863-14.766,3.879
			c-2.502,0.492-5.023,0.896-7.569,1.151c-1.272,0.137-2.556,0.188-3.812,0.269c-1.241,0.092-2.496,0.243-3.736,0.439
			c-4.974,0.791-9.822,2.292-14.569,4.019c-4.745,1.753-9.375,3.826-13.905,6.094c-4.542,2.249-8.986,4.702-13.317,7.346
			c8.463-5.603,17.47-10.431,26.949-14.159c4.741-1.854,9.647-3.347,14.697-4.198c1.265-0.208,2.53-0.369,3.819-0.472
			c1.275-0.091,2.527-0.147,3.778-0.289c2.504-0.264,4.995-0.682,7.471-1.18c9.914-1.98,19.584-5.14,29.037-8.76
			c4.724-1.825,9.389-3.816,13.929-6.061c2.274-1.114,4.518-2.295,6.687-3.602C132.517,58.145,134.678,56.767,136.415,54.908z"/>
	</g>
	<g>
		<path d="M107.468,70.432c-2.738-0.528-5.218-1.992-7.426-3.68c-2.191-1.742-4.084-3.84-5.717-6.111
			c-3.26-4.567-5.388-9.835-6.954-15.16c-1.521-5.28-3.723-10.384-6.857-14.89c-1.563-2.25-3.385-4.33-5.482-6.103
			c-2.081-1.777-4.439-3.307-7.084-4.143c2.716,0.62,5.176,2.086,7.394,3.763c2.199,1.728,4.125,3.792,5.797,6.033
			c3.335,4.512,5.576,9.729,7.19,15.055c1.476,5.305,3.571,10.445,6.626,15.008c1.523,2.276,3.312,4.386,5.397,6.171
			C102.422,68.16,104.794,69.687,107.468,70.432z"/>
	</g>
	<g>
		<path d="M119.569,65.341c-2.548,2.742-4.48,6-5.798,9.451c-0.646,1.732-1.103,3.531-1.339,5.355
			c-0.229,1.824-0.286,3.668-0.098,5.495l-0.008-0.052c0.748,3.368,1.635,6.709,2.584,10.027c0.939,3.318,1.942,6.632,3.241,9.805
			c0.33,0.789,0.68,1.57,1.087,2.304c0.415,0.735,0.856,1.521,1.224,2.316c0.757,1.598,1.24,3.325,1.486,5.058
			c0.26,1.734,0.314,3.479,0.312,5.214c0,1.736-0.061,3.469-0.166,5.198c-0.077-3.458-0.13-6.941-0.715-10.319
			c-0.3-1.685-0.818-3.312-1.598-4.821c-0.385-0.765-0.818-1.476-1.279-2.232c-0.441-0.776-0.809-1.574-1.156-2.378
			c-1.361-3.224-2.405-6.541-3.391-9.872c-0.949-3.341-1.778-6.713-2.501-10.113l-0.006-0.028l-0.002-0.023
			c-0.161-1.897-0.124-3.819,0.199-5.695c0.309-1.877,0.842-3.71,1.563-5.459c0.717-1.751,1.627-3.417,2.7-4.964
			C116.983,68.063,118.177,66.597,119.569,65.341z"/>
	</g>
	<g>
		<path d="M81.333,78.28c-1.597,0.845-3.029,1.937-4.342,3.153c-1.328,1.198-2.558,2.502-3.713,3.868
			c-2.307,2.735-4.404,5.647-6.308,8.681c-1.92,3.024-3.645,6.172-5.2,9.402c-0.777,1.616-1.489,3.263-2.12,4.943
			c-0.662,1.67-1.205,3.384-1.662,5.13c0.499-3.585,1.679-7.052,3.08-10.389c1.407-3.344,3.131-6.547,5.056-9.621
			c1.949-3.057,4.099-6,6.582-8.657C75.185,82.171,77.948,79.631,81.333,78.28z"/>
	</g>
	<g>
		<path d="M62.169,80.978c-2.195-0.095-4.369-0.443-6.519-0.903c-2.153-0.455-4.269-1.094-6.33-1.894
			c-2.048-0.824-4.056-1.811-5.85-3.134c-0.895-0.66-1.74-1.394-2.494-2.211c-0.724-0.843-1.38-1.754-1.812-2.767
			c1.244,1.81,2.922,3.205,4.737,4.342c1.827,1.126,3.776,2.055,5.786,2.841c2.003,0.804,4.07,1.457,6.15,2.082
			c1.041,0.312,2.092,0.593,3.148,0.856C60.039,80.482,61.103,80.721,62.169,80.978z"/>
	</g>
</g>
</svg>
