<!-- Created with Inkscape (http://www.inkscape.org/) -->
<svg xmlns:rdf="http://www.w3.org/1999/02/22-rdf-syntax-ns#" xmlns="http://www.w3.org/2000/svg" version="1.1" xmlns:cc="http://creativecommons.org/ns#" xmlns:dc="http://purl.org/dc/elements/1.1/" viewBox="0 0 208.25 27.719">
<metadata>
<rdf:RDF>
<cc:Work rdf:about="">
<dc:format>image/svg+xml</dc:format>
<dc:type rdf:resource="http://purl.org/dc/dcmitype/StillImage"/>
<dc:title/>
</cc:Work>
</rdf:RDF>
</metadata>
<g transform="translate(-273.03125,-522.8125)">
<rect stroke-linejoin="miter" fill-rule="evenodd" rx="4" ry="4" height="27.412" width="207.94" stroke="#000" stroke-linecap="butt" stroke-dasharray="none" x="273.17" y="522.98" stroke-miterlimit="4" stroke-width="0.4" fill="#f9f9f9"/>
<path d="m296.75,536.69a7.8088,7.8088,0,0,1,-15.618,0,7.8088,7.8088,0,1,1,15.618,0z" stroke="#000" stroke-miterlimit="4" stroke-dasharray="none" stroke-width="0.6" fill="#008000"/>
<text style="word-spacing:0px;letter-spacing:0px;" font-weight="normal" transform="scale(1.0065206,0.99352165)" xml:space="preserve" font-size="12px" line-height="125%" y="543.49115" x="298.70422" font-style="normal" fill="#333333"><tspan style="writing-mode:lr-tb;text-anchor:start;text-align:start;" font-weight="normal" font-size="12px" font-style="normal" font-stretch="normal" font-variant="normal" y="543.49115" x="298.70422" font-family="Arial" line-height="125%" fill="#333333">a single atom</tspan></text>
<text style="word-spacing:0px;letter-spacing:0px;" font-weight="normal" transform="scale(1.0065206,0.99352165)" xml:space="preserve" font-size="12px" line-height="125%" y="543.49115" x="415.63223" font-style="normal" fill="#333333"><tspan style="writing-mode:lr-tb;text-anchor:start;text-align:start;" font-weight="normal" font-size="12px" font-style="normal" font-stretch="normal" font-variant="normal" y="543.49115" x="415.63223" font-family="Arial" line-height="125%" fill="#333333">a molecule</tspan></text>
<rect height="3.1502" width="10.851" stroke="#000" y="535.11" x="390.33" stroke-width="0.3465" fill="#008000"/>
<path d="m394.76,536.68a7.8088,7.8088,0,0,1,-15.618,0,7.8088,7.8088,0,1,1,15.618,0z" stroke="#000" stroke-miterlimit="4" stroke-dasharray="none" stroke-width="0.6" fill="#008000"/>
<path d="m414.56,536.68a7.8088,7.8088,0,0,1,-15.618,0,7.8088,7.8088,0,1,1,15.618,0z" stroke="#000" stroke-miterlimit="4" stroke-dasharray="none" stroke-width="0.6" fill="#008000"/>
</g>
</svg>
