<?xml version="1.0" encoding="utf-8"?>
<!-- Generator: Adobe Illustrator 15.0.2, SVG Export Plug-In . SVG Version: 6.00 Build 0)  -->
<!DOCTYPE svg PUBLIC "-//W3C//DTD SVG 1.1//EN" "http://www.w3.org/Graphics/SVG/1.1/DTD/svg11.dtd">
<svg version="1.1" id="Layer_1" xmlns="http://www.w3.org/2000/svg" xmlns:xlink="http://www.w3.org/1999/xlink" x="0px" y="0px"
	 width="276px" height="149.016px" viewBox="0 0 276 149.016" enable-background="new 0 0 276 149.016" xml:space="preserve">
<g>
	<rect y="2.016" fill="none" width="276" height="147"/>
	<path d="M18.562,2.011h5.743v1.205h-4.356v3.096h3.544v1.205h-3.544v3.18h4.595V11.9h-5.981V2.011z"/>
	<path d="M28.783,9.141c0,0-0.112,0.224-0.21,0.392L27.088,11.9h-1.541l2.409-3.642l-2.283-3.446h1.555l1.316,2.157
		c0.112,0.182,0.238,0.42,0.238,0.42h0.028c0,0,0.126-0.238,0.238-0.42l1.317-2.157h1.555l-2.283,3.446l2.409,3.642h-1.541
		l-1.485-2.367c-0.098-0.168-0.21-0.392-0.21-0.392H28.783z"/>
	<path d="M33.415,4.812h1.247v0.603c0,0.28-0.028,0.518-0.028,0.518h0.028c0,0,0.603-1.289,2.381-1.289
		c1.905,0,3.11,1.513,3.11,3.712c0,2.255-1.359,3.712-3.208,3.712c-1.555,0-2.171-1.163-2.171-1.163h-0.028
		c0,0,0.028,0.252,0.028,0.616v3.18h-1.359V4.812z M36.735,10.905c1.121,0,2.045-0.924,2.045-2.535c0-1.541-0.827-2.536-2.003-2.536
		c-1.064,0-2.045,0.743-2.045,2.549C34.732,9.645,35.432,10.905,36.735,10.905z"/>
	<path d="M41.731,2.011h1.359v7.718c0,0.854,0.336,1.009,0.756,1.009c0.126,0,0.238-0.014,0.238-0.014v1.205
		c0,0-0.21,0.028-0.448,0.028c-0.771,0-1.905-0.21-1.905-1.989V2.011z"/>
	<path d="M48.831,4.644c2.115,0,3.824,1.555,3.824,3.698c0,2.157-1.709,3.726-3.824,3.726c-2.115,0-3.824-1.569-3.824-3.726
		C45.007,6.199,46.716,4.644,48.831,4.644z M48.831,10.891c1.345,0,2.437-1.064,2.437-2.549c0-1.471-1.092-2.521-2.437-2.521
		c-1.331,0-2.438,1.05-2.438,2.521C46.394,9.827,47.5,10.891,48.831,10.891z"/>
	<path d="M54.261,4.812h1.317v1.233c0,0.294-0.028,0.532-0.028,0.532h0.028c0.322-1.037,1.148-1.849,2.241-1.849
		c0.182,0,0.35,0.028,0.35,0.028v1.345c0,0-0.182-0.042-0.392-0.042c-0.869,0-1.667,0.617-1.989,1.667
		C55.662,8.132,55.62,8.566,55.62,9V11.9h-1.359V4.812z"/>
	<path d="M62.564,4.644c2.003,0,3.068,1.485,3.068,3.32c0,0.182-0.042,0.588-0.042,0.588h-5.169c0.07,1.555,1.177,2.339,2.438,2.339
		c1.218,0,2.101-0.826,2.101-0.826l0.56,0.995c0,0-1.05,1.008-2.746,1.008c-2.227,0-3.754-1.611-3.754-3.712
		C59.021,6.101,60.547,4.644,62.564,4.644z M64.246,7.53c-0.042-1.219-0.799-1.807-1.709-1.807c-1.037,0-1.877,0.644-2.073,1.807
		H64.246z"/>
	<path d="M71.173,6.003h-0.925V4.91h0.967V2.865h1.316V4.91h1.709v1.093h-1.709v3.151c0,1.415,0.995,1.597,1.513,1.597
		c0.196,0,0.322-0.028,0.322-0.028v1.205c0,0-0.196,0.028-0.476,0.028c-0.911,0-2.717-0.28-2.717-2.647V6.003z"/>
	<path d="M75.89,2.011h1.359v3.628c0,0.336-0.028,0.588-0.028,0.588h0.028c0.308-0.687,1.205-1.583,2.619-1.583
		c1.667,0,2.438,0.911,2.438,2.717V11.9h-1.359v-4.23c0-0.994-0.21-1.779-1.345-1.779c-1.064,0-1.947,0.729-2.241,1.751
		c-0.084,0.28-0.112,0.603-0.112,0.938v3.32H75.89V2.011z"/>
	<path d="M87.386,4.644c2.003,0,3.068,1.485,3.068,3.32c0,0.182-0.042,0.588-0.042,0.588h-5.169c0.07,1.555,1.177,2.339,2.438,2.339
		c1.218,0,2.101-0.826,2.101-0.826l0.56,0.995c0,0-1.05,1.008-2.746,1.008c-2.227,0-3.754-1.611-3.754-3.712
		C83.842,6.101,85.369,4.644,87.386,4.644z M89.067,7.53c-0.042-1.219-0.799-1.807-1.709-1.807c-1.037,0-1.877,0.644-2.073,1.807
		H89.067z"/>
	<path d="M98.445,4.644c1.639,0,2.185,1.121,2.185,1.121h0.028c0,0-0.028-0.21-0.028-0.476V2.011h1.359V11.9h-1.289v-0.672
		c0-0.28,0.014-0.476,0.014-0.476h-0.028c0,0-0.574,1.316-2.325,1.316c-1.919,0-3.124-1.513-3.124-3.712
		C95.238,6.101,96.568,4.644,98.445,4.644z M98.627,10.891c1.05,0,2.045-0.742,2.045-2.549c0-1.26-0.658-2.521-2.003-2.521
		c-1.121,0-2.045,0.924-2.045,2.535C96.625,9.897,97.451,10.891,98.627,10.891z"/>
	<path d="M104.1,2.011h1.373v1.387H104.1V2.011z M104.114,4.812h1.359V11.9h-1.359V4.812z"/>
	<path d="M107.978,6.003h-0.882V4.91h0.882V4.574c0-2.339,1.765-2.633,2.661-2.633c0.309,0,0.519,0.042,0.519,0.042v1.163
		c0,0-0.14-0.028-0.35-0.028c-0.519,0-1.485,0.168-1.485,1.485V4.91h1.681v1.093h-1.681V11.9h-1.345V6.003z"/>
	<path d="M112.682,6.003H111.8V4.91h0.882V4.574c0-2.339,1.765-2.633,2.661-2.633c0.309,0,0.519,0.042,0.519,0.042v1.163
		c0,0-0.14-0.028-0.35-0.028c-0.519,0-1.485,0.168-1.485,1.485V4.91h1.681v1.093h-1.681V11.9h-1.345V6.003z"/>
	<path d="M120.062,4.644c2.003,0,3.068,1.485,3.068,3.32c0,0.182-0.042,0.588-0.042,0.588h-5.169
		c0.07,1.555,1.177,2.339,2.438,2.339c1.218,0,2.101-0.826,2.101-0.826l0.56,0.995c0,0-1.05,1.008-2.746,1.008
		c-2.227,0-3.754-1.611-3.754-3.712C116.518,6.101,118.044,4.644,120.062,4.644z M121.743,7.53
		c-0.042-1.219-0.799-1.807-1.709-1.807c-1.037,0-1.877,0.644-2.073,1.807H121.743z"/>
	<path d="M124.778,4.812h1.317v1.233c0,0.294-0.028,0.532-0.028,0.532h0.028c0.322-1.037,1.148-1.849,2.241-1.849
		c0.182,0,0.35,0.028,0.35,0.028v1.345c0,0-0.182-0.042-0.392-0.042c-0.869,0-1.667,0.617-1.989,1.667
		c-0.126,0.406-0.168,0.84-0.168,1.275V11.9h-1.359V4.812z"/>
	<path d="M133.082,4.644c2.003,0,3.068,1.485,3.068,3.32c0,0.182-0.042,0.588-0.042,0.588h-5.169
		c0.07,1.555,1.177,2.339,2.438,2.339c1.218,0,2.101-0.826,2.101-0.826l0.56,0.995c0,0-1.05,1.008-2.746,1.008
		c-2.227,0-3.754-1.611-3.754-3.712C129.538,6.101,131.064,4.644,133.082,4.644z M134.763,7.53
		c-0.042-1.219-0.799-1.807-1.709-1.807c-1.037,0-1.877,0.644-2.073,1.807H134.763z"/>
	<path d="M137.798,4.812h1.317V5.75c0,0.28-0.028,0.519-0.028,0.519h0.028c0.28-0.617,1.121-1.625,2.662-1.625
		c1.667,0,2.437,0.911,2.437,2.717V11.9h-1.359v-4.23c0-0.994-0.21-1.779-1.345-1.779c-1.078,0-1.947,0.714-2.241,1.737
		c-0.084,0.28-0.112,0.603-0.112,0.953v3.32h-1.359V4.812z"/>
	<path d="M146.534,6.003h-0.925V4.91h0.967V2.865h1.316V4.91h1.709v1.093h-1.709v3.151c0,1.415,0.995,1.597,1.513,1.597
		c0.196,0,0.322-0.028,0.322-0.028v1.205c0,0-0.196,0.028-0.476,0.028c-0.911,0-2.717-0.28-2.717-2.647V6.003z"/>
	<path d="M158.547,7.474h0.308V7.348c0-1.163-0.658-1.555-1.555-1.555c-1.093,0-1.975,0.687-1.975,0.687l-0.561-0.995
		c0,0,1.022-0.84,2.647-0.84c1.793,0,2.802,0.98,2.802,2.773V11.9h-1.261v-0.672c0-0.322,0.028-0.56,0.028-0.56h-0.028
		c0,0-0.575,1.4-2.27,1.4c-1.218,0-2.409-0.742-2.409-2.157C154.275,7.572,157.356,7.474,158.547,7.474z M156.979,10.976
		c1.148,0,1.891-1.205,1.891-2.255V8.496h-0.351c-1.022,0-2.872,0.07-2.872,1.345C155.647,10.415,156.096,10.976,156.979,10.976z"/>
	<path d="M162.536,6.003h-0.925V4.91h0.967V2.865h1.316V4.91h1.709v1.093h-1.709v3.151c0,1.415,0.995,1.597,1.513,1.597
		c0.196,0,0.322-0.028,0.322-0.028v1.205c0,0-0.196,0.028-0.476,0.028c-0.911,0-2.717-0.28-2.717-2.647V6.003z"/>
	<path d="M167.547,6.003h-0.925V4.91h0.967V2.865h1.316V4.91h1.709v1.093h-1.709v3.151c0,1.415,0.995,1.597,1.513,1.597
		c0.196,0,0.322-0.028,0.322-0.028v1.205c0,0-0.196,0.028-0.476,0.028c-0.911,0-2.717-0.28-2.717-2.647V6.003z"/>
	<path d="M172.265,4.812h1.317v1.233c0,0.294-0.028,0.532-0.028,0.532h0.028c0.322-1.037,1.148-1.849,2.241-1.849
		c0.182,0,0.35,0.028,0.35,0.028v1.345c0,0-0.182-0.042-0.392-0.042c-0.869,0-1.667,0.617-1.989,1.667
		c-0.126,0.406-0.168,0.84-0.168,1.275V11.9h-1.359V4.812z"/>
	<path d="M181.213,7.474h0.308V7.348c0-1.163-0.658-1.555-1.555-1.555c-1.093,0-1.975,0.687-1.975,0.687l-0.561-0.995
		c0,0,1.022-0.84,2.647-0.84c1.793,0,2.802,0.98,2.802,2.773V11.9h-1.261v-0.672c0-0.322,0.028-0.56,0.028-0.56h-0.028
		c0,0-0.574,1.4-2.27,1.4c-1.219,0-2.409-0.742-2.409-2.157C176.94,7.572,180.022,7.474,181.213,7.474z M179.644,10.976
		c1.148,0,1.891-1.205,1.891-2.255V8.496h-0.351c-1.022,0-2.872,0.07-2.872,1.345C178.313,10.415,178.761,10.976,179.644,10.976z"/>
	<path d="M188.199,4.644c1.779,0,2.661,1.037,2.661,1.037l-0.644,0.953c0,0-0.756-0.812-1.961-0.812
		c-1.429,0-2.465,1.064-2.465,2.521c0,1.443,1.036,2.549,2.507,2.549c1.316,0,2.185-0.952,2.185-0.952l0.546,0.995
		c0,0-0.98,1.134-2.83,1.134c-2.227,0-3.796-1.583-3.796-3.712C184.402,6.255,185.972,4.644,188.199,4.644z"/>
	<path d="M192.859,6.003h-0.925V4.91h0.967V2.865h1.316V4.91h1.709v1.093h-1.709v3.151c0,1.415,0.995,1.597,1.513,1.597
		c0.196,0,0.322-0.028,0.322-0.028v1.205c0,0-0.196,0.028-0.477,0.028c-0.911,0-2.717-0.28-2.717-2.647V6.003z"/>
	<path d="M197.562,2.011h1.372v1.387h-1.372V2.011z M197.576,4.812h1.358V11.9h-1.358V4.812z"/>
	<path d="M200.096,4.812h1.443l1.723,4.791c0.141,0.392,0.225,0.967,0.238,0.967h0.028c0.014,0,0.111-0.575,0.252-0.967l1.723-4.791
		h1.429l-2.619,7.088h-1.569L200.096,4.812z"/>
	<path d="M211.145,4.644c2.003,0,3.067,1.485,3.067,3.32c0,0.182-0.042,0.588-0.042,0.588h-5.169
		c0.07,1.555,1.177,2.339,2.438,2.339c1.219,0,2.102-0.826,2.102-0.826l0.561,0.995c0,0-1.051,1.008-2.746,1.008
		c-2.227,0-3.754-1.611-3.754-3.712C207.601,6.101,209.128,4.644,211.145,4.644z M212.825,7.53
		c-0.042-1.219-0.798-1.807-1.709-1.807c-1.036,0-1.877,0.644-2.073,1.807H212.825z"/>
	<path d="M219.836,6.003h-0.882V4.91h0.882V4.574c0-2.339,1.766-2.633,2.662-2.633c0.308,0,0.518,0.042,0.518,0.042v1.163
		c0,0-0.14-0.028-0.35-0.028c-0.519,0-1.485,0.168-1.485,1.485V4.91h1.682v1.093h-1.682V11.9h-1.345V6.003z"/>
	<path d="M227.468,4.644c2.115,0,3.824,1.555,3.824,3.698c0,2.157-1.709,3.726-3.824,3.726s-3.824-1.569-3.824-3.726
		C223.644,6.199,225.353,4.644,227.468,4.644z M227.468,10.891c1.345,0,2.438-1.064,2.438-2.549c0-1.471-1.093-2.521-2.438-2.521
		c-1.33,0-2.438,1.05-2.438,2.521C225.03,9.827,226.138,10.891,227.468,10.891z"/>
	<path d="M232.898,4.812h1.316v1.233c0,0.294-0.027,0.532-0.027,0.532h0.027c0.322-1.037,1.149-1.849,2.241-1.849
		c0.183,0,0.351,0.028,0.351,0.028v1.345c0,0-0.182-0.042-0.393-0.042c-0.868,0-1.666,0.617-1.988,1.667
		c-0.127,0.406-0.169,0.84-0.169,1.275V11.9h-1.358V4.812z"/>
	<path d="M241.44,4.644c1.779,0,2.661,1.037,2.661,1.037l-0.645,0.953c0,0-0.756-0.812-1.961-0.812
		c-1.429,0-2.465,1.064-2.465,2.521c0,1.443,1.036,2.549,2.507,2.549c1.317,0,2.186-0.952,2.186-0.952l0.546,0.995
		c0,0-0.98,1.134-2.829,1.134c-2.228,0-3.796-1.583-3.796-3.712C237.645,6.255,239.213,4.644,241.44,4.644z"/>
	<path d="M248.86,4.644c2.003,0,3.067,1.485,3.067,3.32c0,0.182-0.042,0.588-0.042,0.588h-5.169c0.07,1.555,1.177,2.339,2.438,2.339
		c1.219,0,2.102-0.826,2.102-0.826l0.561,0.995c0,0-1.051,1.008-2.746,1.008c-2.227,0-3.754-1.611-3.754-3.712
		C245.316,6.101,246.844,4.644,248.86,4.644z M250.541,7.53c-0.042-1.219-0.798-1.807-1.709-1.807c-1.036,0-1.877,0.644-2.072,1.807
		H250.541z"/>
	<path d="M253.66,10.065c0,0,0.799,0.826,2.031,0.826c0.588,0,1.177-0.308,1.177-0.882c0-1.303-3.642-1.037-3.642-3.348
		c0-1.289,1.148-2.017,2.562-2.017c1.556,0,2.283,0.784,2.283,0.784l-0.546,1.023c0,0-0.63-0.63-1.751-0.63
		c-0.588,0-1.162,0.252-1.162,0.868c0,1.275,3.642,0.995,3.642,3.32c0,1.177-1.009,2.059-2.563,2.059
		c-1.737,0-2.689-1.037-2.689-1.037L253.66,10.065z"/>
	<path d="M8.467,18.811h1.359v3.235c0,0.351-0.028,0.603-0.028,0.603h0.028c0,0,0.602-1.205,2.269-1.205
		c1.905,0,3.11,1.513,3.11,3.712c0,2.255-1.359,3.712-3.222,3.712c-1.583,0-2.227-1.219-2.227-1.219H9.728
		c0,0,0.028,0.224,0.028,0.533V28.7H8.467V18.811z M11.787,27.706c1.121,0,2.045-0.924,2.045-2.535c0-1.541-0.827-2.536-2.003-2.536
		c-1.064,0-2.045,0.743-2.045,2.549C9.784,26.445,10.442,27.706,11.787,27.706z"/>
	<path d="M19.92,21.444c2.003,0,3.068,1.485,3.068,3.32c0,0.182-0.042,0.588-0.042,0.588h-5.169c0.07,1.555,1.177,2.339,2.438,2.339
		c1.218,0,2.101-0.827,2.101-0.827l0.56,0.995c0,0-1.05,1.008-2.746,1.008c-2.227,0-3.754-1.611-3.754-3.712
		C16.376,22.901,17.903,21.444,19.92,21.444z M21.602,24.33c-0.042-1.218-0.799-1.807-1.709-1.807c-1.037,0-1.877,0.644-2.073,1.807
		H21.602z"/>
	<path d="M24.931,22.803h-0.925V21.71h0.967v-2.045h1.316v2.045h1.709v1.093H26.29v3.151c0,1.415,0.995,1.597,1.513,1.597
		c0.196,0,0.322-0.028,0.322-0.028v1.205c0,0-0.196,0.028-0.476,0.028c-0.911,0-2.717-0.28-2.717-2.647V22.803z"/>
	<path d="M28.822,21.612h1.442l1.471,4.973c0.112,0.364,0.168,0.756,0.182,0.756h0.028c0,0,0.07-0.392,0.182-0.756l1.541-4.958
		h1.247l1.527,4.958c0.112,0.364,0.196,0.756,0.196,0.756h0.028c0,0,0.056-0.392,0.168-0.756l1.485-4.973h1.429L37.465,28.7h-1.499
		l-1.471-4.552c-0.112-0.364-0.196-0.771-0.196-0.771h-0.028c0,0-0.084,0.406-0.196,0.771L32.618,28.7h-1.513L28.822,21.612z"/>
	<path d="M44.098,21.444c2.003,0,3.068,1.485,3.068,3.32c0,0.182-0.042,0.588-0.042,0.588h-5.169
		c0.07,1.555,1.177,2.339,2.438,2.339c1.218,0,2.101-0.827,2.101-0.827l0.56,0.995c0,0-1.05,1.008-2.746,1.008
		c-2.227,0-3.754-1.611-3.754-3.712C40.554,22.901,42.081,21.444,44.098,21.444z M45.779,24.33
		c-0.042-1.218-0.799-1.807-1.709-1.807c-1.037,0-1.877,0.644-2.073,1.807H45.779z"/>
	<path d="M51.868,21.444c2.003,0,3.068,1.485,3.068,3.32c0,0.182-0.042,0.588-0.042,0.588h-5.169
		c0.07,1.555,1.177,2.339,2.438,2.339c1.218,0,2.101-0.827,2.101-0.827l0.56,0.995c0,0-1.05,1.008-2.746,1.008
		c-2.227,0-3.754-1.611-3.754-3.712C48.324,22.901,49.851,21.444,51.868,21.444z M53.549,24.33
		c-0.042-1.218-0.799-1.807-1.709-1.807c-1.037,0-1.877,0.644-2.073,1.807H53.549z"/>
	<path d="M56.584,21.612h1.317v0.938c0,0.28-0.028,0.519-0.028,0.519h0.028c0.28-0.617,1.121-1.625,2.661-1.625
		c1.667,0,2.438,0.911,2.438,2.717V28.7h-1.359v-4.23c0-0.994-0.21-1.779-1.345-1.779c-1.079,0-1.947,0.714-2.241,1.737
		c-0.084,0.28-0.112,0.603-0.112,0.953v3.32h-1.359V21.612z"/>
	<path d="M68.624,21.612h1.247v0.603c0,0.28-0.028,0.518-0.028,0.518h0.028c0,0,0.603-1.289,2.381-1.289
		c1.905,0,3.11,1.513,3.11,3.712c0,2.255-1.359,3.712-3.208,3.712c-1.555,0-2.171-1.163-2.171-1.163h-0.028
		c0,0,0.028,0.252,0.028,0.616v3.18h-1.359V21.612z M71.944,27.706c1.121,0,2.045-0.924,2.045-2.535
		c0-1.541-0.827-2.536-2.003-2.536c-1.064,0-2.045,0.743-2.045,2.549C69.941,26.445,70.641,27.706,71.944,27.706z"/>
	<path d="M80.33,21.444c2.115,0,3.824,1.555,3.824,3.698c0,2.157-1.709,3.726-3.824,3.726c-2.115,0-3.824-1.569-3.824-3.726
		C76.506,22.999,78.215,21.444,80.33,21.444z M80.33,27.692c1.345,0,2.437-1.065,2.437-2.55c0-1.471-1.092-2.521-2.437-2.521
		c-1.331,0-2.438,1.05-2.438,2.521C77.893,26.627,78.999,27.692,80.33,27.692z"/>
	<path d="M85.676,18.811h1.359v7.718c0,0.854,0.336,1.009,0.756,1.009c0.126,0,0.238-0.014,0.238-0.014v1.205
		c0,0-0.21,0.028-0.448,0.028c-0.771,0-1.905-0.21-1.905-1.989V18.811z"/>
	<path d="M93.168,24.274h0.308v-0.126c0-1.163-0.658-1.555-1.555-1.555c-1.093,0-1.975,0.687-1.975,0.687l-0.561-0.995
		c0,0,1.022-0.84,2.647-0.84c1.793,0,2.802,0.98,2.802,2.773V28.7h-1.261v-0.672c0-0.322,0.028-0.561,0.028-0.561h-0.028
		c0,0-0.574,1.401-2.27,1.401c-1.219,0-2.409-0.742-2.409-2.157C88.896,24.372,91.977,24.274,93.168,24.274z M91.599,27.776
		c1.148,0,1.891-1.205,1.891-2.255v-0.224H93.14c-1.022,0-2.872,0.07-2.872,1.345C90.268,27.215,90.716,27.776,91.599,27.776z"/>
	<path d="M96.862,21.612h1.317v1.233c0,0.294-0.028,0.532-0.028,0.532h0.028c0.322-1.037,1.148-1.849,2.241-1.849
		c0.182,0,0.35,0.028,0.35,0.028v1.345c0,0-0.182-0.042-0.392-0.042c-0.869,0-1.667,0.617-1.989,1.667
		c-0.126,0.406-0.168,0.84-0.168,1.275V28.7h-1.359V21.612z"/>
	<path d="M109.408,24.274h0.308v-0.126c0-1.163-0.658-1.555-1.555-1.555c-1.093,0-1.975,0.687-1.975,0.687l-0.561-0.995
		c0,0,1.022-0.84,2.647-0.84c1.793,0,2.802,0.98,2.802,2.773V28.7h-1.261v-0.672c0-0.322,0.028-0.561,0.028-0.561h-0.028
		c0,0-0.575,1.401-2.27,1.401c-1.218,0-2.409-0.742-2.409-2.157C105.135,24.372,108.217,24.274,109.408,24.274z M107.839,27.776
		c1.148,0,1.891-1.205,1.891-2.255v-0.224h-0.351c-1.022,0-2.872,0.07-2.872,1.345C106.508,27.215,106.956,27.776,107.839,27.776z"
		/>
	<path d="M113.102,21.612h1.317v0.938c0,0.28-0.028,0.519-0.028,0.519h0.028c0.28-0.617,1.121-1.625,2.662-1.625
		c1.667,0,2.437,0.911,2.437,2.717V28.7h-1.359v-4.23c0-0.994-0.21-1.779-1.345-1.779c-1.078,0-1.947,0.714-2.241,1.737
		c-0.084,0.28-0.112,0.603-0.112,0.953v3.32h-1.359V21.612z"/>
	<path d="M124.289,21.444c1.639,0,2.185,1.121,2.185,1.121h0.028c0,0-0.028-0.21-0.028-0.477v-3.277h1.359V28.7h-1.289v-0.672
		c0-0.28,0.014-0.476,0.014-0.476h-0.028c0,0-0.574,1.316-2.325,1.316c-1.919,0-3.124-1.513-3.124-3.712
		C121.082,22.901,122.412,21.444,124.289,21.444z M124.471,27.692c1.05,0,2.045-0.743,2.045-2.55c0-1.261-0.658-2.521-2.003-2.521
		c-1.121,0-2.045,0.924-2.045,2.535C122.468,26.697,123.294,27.692,124.471,27.692z"/>
	<path d="M133.555,21.612h1.317v0.938c0,0.28-0.028,0.519-0.028,0.519h0.028c0.28-0.617,1.121-1.625,2.661-1.625
		c1.667,0,2.438,0.911,2.438,2.717V28.7h-1.359v-4.23c0-0.994-0.21-1.779-1.345-1.779c-1.079,0-1.947,0.714-2.241,1.737
		c-0.084,0.28-0.112,0.603-0.112,0.953v3.32h-1.359V21.612z"/>
	<path d="M145.303,21.444c2.115,0,3.824,1.555,3.824,3.698c0,2.157-1.709,3.726-3.824,3.726c-2.115,0-3.824-1.569-3.824-3.726
		C141.479,22.999,143.188,21.444,145.303,21.444z M145.303,27.692c1.345,0,2.438-1.065,2.438-2.55c0-1.471-1.093-2.521-2.438-2.521
		c-1.331,0-2.437,1.05-2.437,2.521C142.866,26.627,143.972,27.692,145.303,27.692z"/>
	<path d="M150.733,21.612h1.317v0.938c0,0.28-0.028,0.519-0.028,0.519h0.028c0.28-0.617,1.121-1.625,2.661-1.625
		c1.667,0,2.438,0.911,2.438,2.717V28.7h-1.359v-4.23c0-0.994-0.21-1.779-1.345-1.779c-1.079,0-1.947,0.714-2.241,1.737
		c-0.084,0.28-0.112,0.603-0.112,0.953v3.32h-1.359V21.612z"/>
	<path d="M159.371,24.106h4.09v1.205h-4.09V24.106z"/>
	<path d="M165.783,21.612h1.247v0.603c0,0.28-0.028,0.518-0.028,0.518h0.028c0,0,0.603-1.289,2.381-1.289
		c1.905,0,3.11,1.513,3.11,3.712c0,2.255-1.359,3.712-3.208,3.712c-1.555,0-2.171-1.163-2.171-1.163h-0.028
		c0,0,0.028,0.252,0.028,0.616v3.18h-1.359V21.612z M169.103,27.706c1.121,0,2.045-0.924,2.045-2.535
		c0-1.541-0.827-2.536-2.003-2.536c-1.064,0-2.045,0.743-2.045,2.549C167.1,26.445,167.8,27.706,169.103,27.706z"/>
	<path d="M177.488,21.444c2.115,0,3.824,1.555,3.824,3.698c0,2.157-1.709,3.726-3.824,3.726c-2.115,0-3.824-1.569-3.824-3.726
		C173.665,22.999,175.374,21.444,177.488,21.444z M177.488,27.692c1.345,0,2.438-1.065,2.438-2.55c0-1.471-1.093-2.521-2.438-2.521
		c-1.331,0-2.437,1.05-2.437,2.521C175.051,26.627,176.158,27.692,177.488,27.692z"/>
	<path d="M182.834,18.811h1.359v7.718c0,0.854,0.336,1.009,0.756,1.009c0.126,0,0.238-0.014,0.238-0.014v1.205
		c0,0-0.21,0.028-0.448,0.028c-0.771,0-1.905-0.21-1.905-1.989V18.811z"/>
	<path d="M190.327,24.274h0.308v-0.126c0-1.163-0.658-1.555-1.555-1.555c-1.093,0-1.975,0.687-1.975,0.687l-0.561-0.995
		c0,0,1.022-0.84,2.647-0.84c1.793,0,2.802,0.98,2.802,2.773V28.7h-1.261v-0.672c0-0.322,0.028-0.561,0.028-0.561h-0.028
		c0,0-0.575,1.401-2.27,1.401c-1.218,0-2.409-0.742-2.409-2.157C186.054,24.372,189.136,24.274,190.327,24.274z M188.758,27.776
		c1.148,0,1.891-1.205,1.891-2.255v-0.224h-0.351c-1.022,0-2.872,0.07-2.872,1.345C187.427,27.215,187.875,27.776,188.758,27.776z"
		/>
	<path d="M194.021,21.612h1.316v1.233c0,0.294-0.027,0.532-0.027,0.532h0.027c0.322-1.037,1.149-1.849,2.241-1.849
		c0.183,0,0.351,0.028,0.351,0.028v1.345c0,0-0.182-0.042-0.393-0.042c-0.868,0-1.667,0.617-1.988,1.667
		c-0.126,0.406-0.169,0.84-0.169,1.275V28.7h-1.358V21.612z"/>
	<path d="M202.868,21.612h1.316v0.938c0,0.28-0.027,0.519-0.027,0.519h0.027c0.337-0.827,1.331-1.625,2.438-1.625
		c1.19,0,1.892,0.546,2.13,1.611h0.027c0.393-0.854,1.373-1.611,2.521-1.611c1.597,0,2.339,0.911,2.339,2.717V28.7h-1.358v-4.244
		c0-0.995-0.196-1.779-1.261-1.779c-0.994,0-1.736,0.841-1.989,1.807c-0.069,0.294-0.098,0.616-0.098,0.98V28.7h-1.358v-4.244
		c0-0.925-0.141-1.779-1.233-1.779c-1.036,0-1.765,0.854-2.03,1.863c-0.07,0.28-0.085,0.602-0.085,0.924V28.7h-1.358V21.612z"/>
	<path d="M218.97,21.444c2.115,0,3.824,1.555,3.824,3.698c0,2.157-1.709,3.726-3.824,3.726s-3.824-1.569-3.824-3.726
		C215.146,22.999,216.854,21.444,218.97,21.444z M218.97,27.692c1.345,0,2.438-1.065,2.438-2.55c0-1.471-1.093-2.521-2.438-2.521
		c-1.33,0-2.438,1.05-2.438,2.521C216.532,26.627,217.64,27.692,218.97,27.692z"/>
	<path d="M224.316,18.811h1.358v7.718c0,0.854,0.337,1.009,0.757,1.009c0.126,0,0.238-0.014,0.238-0.014v1.205
		c0,0-0.21,0.028-0.448,0.028c-0.771,0-1.905-0.21-1.905-1.989V18.811z"/>
	<path d="M231.164,21.444c2.003,0,3.067,1.485,3.067,3.32c0,0.182-0.042,0.588-0.042,0.588h-5.169
		c0.07,1.555,1.177,2.339,2.438,2.339c1.219,0,2.102-0.827,2.102-0.827l0.561,0.995c0,0-1.051,1.008-2.746,1.008
		c-2.227,0-3.754-1.611-3.754-3.712C227.62,22.901,229.147,21.444,231.164,21.444z M232.845,24.33
		c-0.042-1.218-0.798-1.807-1.709-1.807c-1.036,0-1.877,0.644-2.073,1.807H232.845z"/>
	<path d="M239.172,21.444c1.779,0,2.661,1.037,2.661,1.037l-0.645,0.952c0,0-0.756-0.812-1.961-0.812
		c-1.429,0-2.465,1.064-2.465,2.521c0,1.443,1.036,2.55,2.507,2.55c1.317,0,2.186-0.953,2.186-0.953l0.546,0.995
		c0,0-0.98,1.134-2.829,1.134c-2.228,0-3.796-1.583-3.796-3.712C235.376,23.055,236.944,21.444,239.172,21.444z"/>
	<path d="M243.44,21.612h1.358v4.23c0,0.98,0.196,1.765,1.331,1.765c1.442,0,2.297-1.274,2.297-2.675v-3.32h1.358V28.7h-1.316
		v-0.938c0-0.294,0.028-0.518,0.028-0.518h-0.028c-0.294,0.7-1.219,1.625-2.605,1.625c-1.597,0-2.423-0.84-2.423-2.717V21.612z"/>
	<path d="M251.826,18.811h1.358v7.718c0,0.854,0.337,1.009,0.757,1.009c0.126,0,0.238-0.014,0.238-0.014v1.205
		c0,0-0.21,0.028-0.448,0.028c-0.771,0-1.905-0.21-1.905-1.989V18.811z"/>
	<path d="M258.674,21.444c2.003,0,3.067,1.485,3.067,3.32c0,0.182-0.042,0.588-0.042,0.588h-5.169
		c0.07,1.555,1.177,2.339,2.438,2.339c1.219,0,2.102-0.827,2.102-0.827l0.561,0.995c0,0-1.051,1.008-2.746,1.008
		c-2.227,0-3.754-1.611-3.754-3.712C255.13,22.901,256.657,21.444,258.674,21.444z M260.354,24.33
		c-0.042-1.218-0.798-1.807-1.709-1.807c-1.036,0-1.877,0.644-2.073,1.807H260.354z"/>
	<path d="M263.474,26.865c0,0,0.799,0.827,2.031,0.827c0.588,0,1.177-0.309,1.177-0.883c0-1.303-3.642-1.037-3.642-3.348
		c0-1.289,1.148-2.017,2.562-2.017c1.556,0,2.283,0.784,2.283,0.784l-0.546,1.023c0,0-0.63-0.63-1.751-0.63
		c-0.588,0-1.162,0.252-1.162,0.868c0,1.275,3.642,0.995,3.642,3.32c0,1.177-1.009,2.059-2.563,2.059
		c-1.737,0-2.689-1.037-2.689-1.037L263.474,26.865z"/>
	<path d="M6.298,35.611h1.359v3.235c0,0.351-0.028,0.603-0.028,0.603h0.028c0,0,0.602-1.205,2.269-1.205
		c1.905,0,3.11,1.513,3.11,3.712c0,2.255-1.359,3.712-3.222,3.712c-1.583,0-2.227-1.219-2.227-1.219H7.559
		c0,0,0.028,0.224,0.028,0.533V45.5H6.298V35.611z M9.618,44.505c1.121,0,2.045-0.924,2.045-2.535c0-1.541-0.827-2.536-2.003-2.536
		c-1.064,0-2.045,0.743-2.045,2.549C7.615,43.245,8.273,44.505,9.618,44.505z"/>
	<path d="M14.18,46.971c0,0,0.392,0.294,0.826,0.294c0.546,0,1.009-0.393,1.275-1.037l0.35-0.812l-2.97-7.004h1.527l1.779,4.637
		c0.14,0.364,0.266,0.854,0.266,0.854h0.028c0,0,0.112-0.477,0.238-0.841l1.723-4.65h1.471l-3.32,8.363
		c-0.435,1.092-1.303,1.667-2.297,1.667c-0.798,0-1.373-0.434-1.373-0.434L14.18,46.971z"/>
	<path d="M28.181,38.244c1.639,0,2.185,1.121,2.185,1.121h0.028c0,0-0.028-0.21-0.028-0.477v-3.277h1.359V45.5h-1.289v-0.672
		c0-0.28,0.014-0.476,0.014-0.476h-0.028c0,0-0.574,1.316-2.325,1.316c-1.919,0-3.124-1.513-3.124-3.712
		C24.974,39.701,26.304,38.244,28.181,38.244z M28.363,44.492c1.051,0,2.045-0.743,2.045-2.55c0-1.261-0.658-2.521-2.003-2.521
		c-1.121,0-2.045,0.924-2.045,2.535C26.36,43.497,27.187,44.492,28.363,44.492z"/>
	<path d="M33.85,38.412h1.317v1.233c0,0.294-0.028,0.532-0.028,0.532h0.028c0.322-1.037,1.148-1.849,2.241-1.849
		c0.182,0,0.35,0.028,0.35,0.028v1.345c0,0-0.182-0.042-0.392-0.042c-0.869,0-1.667,0.617-1.989,1.667
		c-0.126,0.406-0.168,0.84-0.168,1.275V45.5H33.85V38.412z"/>
	<path d="M42.798,41.074h0.308v-0.126c0-1.163-0.658-1.555-1.555-1.555c-1.093,0-1.975,0.687-1.975,0.687l-0.561-0.995
		c0,0,1.022-0.84,2.647-0.84c1.793,0,2.802,0.98,2.802,2.773V45.5h-1.261v-0.672c0-0.322,0.028-0.561,0.028-0.561h-0.028
		c0,0-0.574,1.401-2.27,1.401c-1.219,0-2.409-0.742-2.409-2.157C38.525,41.172,41.607,41.074,42.798,41.074z M41.229,44.576
		c1.148,0,1.891-1.205,1.891-2.255v-0.224H42.77c-1.022,0-2.872,0.07-2.872,1.345C39.898,44.015,40.346,44.576,41.229,44.576z"/>
	<path d="M49.069,47.265c1.232,0,2.241-0.546,2.241-1.989v-0.518c0-0.224,0.014-0.448,0.014-0.448h-0.028
		c-0.42,0.7-1.079,1.106-2.101,1.106c-1.975,0-3.166-1.583-3.166-3.628c0-2.031,1.134-3.544,3.095-3.544
		c1.709,0,2.228,1.05,2.228,1.05h0.028c0,0-0.014-0.098-0.014-0.224v-0.658h1.303v6.794c0,2.339-1.779,3.235-3.572,3.235
		c-0.854,0-1.737-0.238-2.423-0.588l0.448-1.064C47.122,46.789,48.005,47.265,49.069,47.265z M51.338,41.802
		c0-1.849-0.896-2.381-2.003-2.381c-1.233,0-1.933,0.896-1.933,2.339c0,1.471,0.784,2.479,2.059,2.479
		C50.442,44.239,51.338,43.651,51.338,41.802z"/>
	<path d="M57.371,47.265c1.232,0,2.241-0.546,2.241-1.989v-0.518c0-0.224,0.014-0.448,0.014-0.448h-0.028
		c-0.42,0.7-1.079,1.106-2.101,1.106c-1.975,0-3.166-1.583-3.166-3.628c0-2.031,1.134-3.544,3.095-3.544
		c1.709,0,2.228,1.05,2.228,1.05h0.028c0,0-0.014-0.098-0.014-0.224v-0.658h1.303v6.794c0,2.339-1.779,3.235-3.572,3.235
		c-0.854,0-1.737-0.238-2.423-0.588l0.448-1.064C55.424,46.789,56.307,47.265,57.371,47.265z M59.64,41.802
		c0-1.849-0.896-2.381-2.003-2.381c-1.233,0-1.933,0.896-1.933,2.339c0,1.471,0.784,2.479,2.059,2.479
		C58.744,44.239,59.64,43.651,59.64,41.802z"/>
	<path d="M63.082,35.611h1.373v1.387h-1.373V35.611z M63.095,38.412h1.359V45.5h-1.359V38.412z"/>
	<path d="M66.581,38.412h1.317v0.938c0,0.28-0.028,0.519-0.028,0.519h0.028c0.28-0.617,1.121-1.625,2.662-1.625
		c1.667,0,2.437,0.911,2.437,2.717V45.5h-1.359v-4.23c0-0.994-0.21-1.779-1.345-1.779c-1.078,0-1.947,0.714-2.241,1.737
		c-0.084,0.28-0.112,0.603-0.112,0.953v3.32h-1.359V38.412z"/>
	<path d="M77.601,47.265c1.232,0,2.241-0.546,2.241-1.989v-0.518c0-0.224,0.014-0.448,0.014-0.448h-0.028
		c-0.42,0.7-1.079,1.106-2.101,1.106c-1.975,0-3.166-1.583-3.166-3.628c0-2.031,1.134-3.544,3.095-3.544
		c1.709,0,2.228,1.05,2.228,1.05h0.028c0,0-0.014-0.098-0.014-0.224v-0.658H81.2v6.794c0,2.339-1.779,3.235-3.572,3.235
		c-0.854,0-1.737-0.238-2.423-0.588l0.448-1.064C75.653,46.789,76.536,47.265,77.601,47.265z M79.87,41.802
		c0-1.849-0.896-2.381-2.003-2.381c-1.233,0-1.933,0.896-1.933,2.339c0,1.471,0.784,2.479,2.059,2.479
		C78.973,44.239,79.87,43.651,79.87,41.802z"/>
	<path d="M87.217,39.603h-0.925V38.51h0.967v-2.045h1.316v2.045h1.709v1.093h-1.709v3.151c0,1.415,0.995,1.597,1.513,1.597
		c0.196,0,0.322-0.028,0.322-0.028v1.205c0,0-0.196,0.028-0.476,0.028c-0.911,0-2.717-0.28-2.717-2.647V39.603z"/>
	<path d="M91.934,35.611h1.359v3.628c0,0.336-0.028,0.588-0.028,0.588h0.028c0.308-0.687,1.205-1.583,2.619-1.583
		c1.667,0,2.438,0.911,2.438,2.717V45.5h-1.359v-4.23c0-0.994-0.21-1.779-1.345-1.779c-1.064,0-1.947,0.729-2.241,1.751
		c-0.084,0.28-0.112,0.603-0.112,0.938v3.32h-1.359V35.611z"/>
	<path d="M103.43,38.244c2.003,0,3.068,1.485,3.068,3.32c0,0.182-0.042,0.588-0.042,0.588h-5.169
		c0.07,1.555,1.177,2.339,2.438,2.339c1.218,0,2.101-0.827,2.101-0.827l0.56,0.995c0,0-1.05,1.008-2.746,1.008
		c-2.227,0-3.754-1.611-3.754-3.712C99.886,39.701,101.413,38.244,103.43,38.244z M105.111,41.129
		c-0.042-1.218-0.799-1.807-1.709-1.807c-1.037,0-1.877,0.644-2.073,1.807H105.111z"/>
	<path d="M112.29,35.457h1.009l-0.603,2.731h-1.331L112.29,35.457z M114.265,35.457h1.008l-0.602,2.731h-1.331L114.265,35.457z"/>
	<path d="M116.994,43.665c0,0,0.799,0.827,2.031,0.827c0.588,0,1.177-0.309,1.177-0.883c0-1.303-3.642-1.037-3.642-3.348
		c0-1.289,1.148-2.017,2.563-2.017c1.555,0,2.283,0.784,2.283,0.784l-0.546,1.023c0,0-0.63-0.63-1.751-0.63
		c-0.588,0-1.163,0.252-1.163,0.868c0,1.275,3.642,0.995,3.642,3.32c0,1.177-1.009,2.059-2.563,2.059
		c-1.737,0-2.689-1.037-2.689-1.037L116.994,43.665z"/>
	<path d="M123.476,39.603h-0.925V38.51h0.967v-2.045h1.316v2.045h1.709v1.093h-1.709v3.151c0,1.415,0.995,1.597,1.513,1.597
		c0.196,0,0.322-0.028,0.322-0.028v1.205c0,0-0.196,0.028-0.476,0.028c-0.911,0-2.717-0.28-2.717-2.647V39.603z"/>
	<path d="M131.892,41.074h0.308v-0.126c0-1.163-0.658-1.555-1.555-1.555c-1.093,0-1.975,0.687-1.975,0.687l-0.561-0.995
		c0,0,1.022-0.84,2.647-0.84c1.793,0,2.802,0.98,2.802,2.773V45.5h-1.261v-0.672c0-0.322,0.028-0.561,0.028-0.561h-0.028
		c0,0-0.574,1.401-2.27,1.401c-1.219,0-2.409-0.742-2.409-2.157C127.619,41.172,130.701,41.074,131.892,41.074z M130.323,44.576
		c1.148,0,1.891-1.205,1.891-2.255v-0.224h-0.351c-1.022,0-2.872,0.07-2.872,1.345C128.992,44.015,129.44,44.576,130.323,44.576z"/>
	<path d="M135.585,38.412h1.317v1.233c0,0.294-0.028,0.532-0.028,0.532h0.028c0.322-1.037,1.148-1.849,2.241-1.849
		c0.182,0,0.35,0.028,0.35,0.028v1.345c0,0-0.182-0.042-0.392-0.042c-0.869,0-1.667,0.617-1.989,1.667
		c-0.126,0.406-0.168,0.84-0.168,1.275V45.5h-1.359V38.412z"/>
	<path d="M141.088,35.442h1.331l-0.924,2.731h-1.009L141.088,35.442z M143.063,35.442h1.331l-0.911,2.731h-1.022L143.063,35.442z"/>
	<path d="M149.459,35.611h1.373v1.387h-1.373V35.611z M149.473,38.412h1.359V45.5h-1.359V38.412z"/>
	<path d="M152.958,38.412h1.317v0.938c0,0.28-0.028,0.519-0.028,0.519h0.028c0.336-0.827,1.331-1.625,2.438-1.625
		c1.19,0,1.891,0.546,2.129,1.611h0.028c0.393-0.854,1.373-1.611,2.521-1.611c1.597,0,2.339,0.911,2.339,2.717V45.5h-1.359v-4.244
		c0-0.995-0.196-1.779-1.261-1.779c-0.994,0-1.737,0.841-1.989,1.807c-0.07,0.294-0.098,0.616-0.098,0.98V45.5h-1.359v-4.244
		c0-0.925-0.14-1.779-1.232-1.779c-1.037,0-1.765,0.854-2.031,1.863c-0.07,0.28-0.084,0.602-0.084,0.924V45.5h-1.359V38.412z"/>
	<path d="M169.453,41.074h0.308v-0.126c0-1.163-0.658-1.555-1.555-1.555c-1.093,0-1.975,0.687-1.975,0.687l-0.561-0.995
		c0,0,1.022-0.84,2.647-0.84c1.793,0,2.802,0.98,2.802,2.773V45.5h-1.261v-0.672c0-0.322,0.028-0.561,0.028-0.561h-0.028
		c0,0-0.575,1.401-2.27,1.401c-1.218,0-2.409-0.742-2.409-2.157C165.18,41.172,168.262,41.074,169.453,41.074z M167.884,44.576
		c1.148,0,1.891-1.205,1.891-2.255v-0.224h-0.351c-1.022,0-2.872,0.07-2.872,1.345C166.553,44.015,167.001,44.576,167.884,44.576z"
		/>
	<path d="M175.724,47.265c1.232,0,2.241-0.546,2.241-1.989v-0.518c0-0.224,0.014-0.448,0.014-0.448h-0.028
		c-0.42,0.7-1.079,1.106-2.101,1.106c-1.975,0-3.166-1.583-3.166-3.628c0-2.031,1.134-3.544,3.096-3.544
		c1.708,0,2.227,1.05,2.227,1.05h0.028c0,0-0.014-0.098-0.014-0.224v-0.658h1.302v6.794c0,2.339-1.779,3.235-3.572,3.235
		c-0.854,0-1.737-0.238-2.423-0.588l0.448-1.064C173.777,46.789,174.659,47.265,175.724,47.265z M177.993,41.802
		c0-1.849-0.896-2.381-2.003-2.381c-1.233,0-1.933,0.896-1.933,2.339c0,1.471,0.784,2.479,2.059,2.479
		C177.097,44.239,177.993,43.651,177.993,41.802z"/>
	<path d="M184.502,38.244c2.003,0,3.068,1.485,3.068,3.32c0,0.182-0.042,0.588-0.042,0.588h-5.169
		c0.07,1.555,1.177,2.339,2.438,2.339c1.218,0,2.101-0.827,2.101-0.827l0.56,0.995c0,0-1.05,1.008-2.746,1.008
		c-2.227,0-3.754-1.611-3.754-3.712C180.958,39.701,182.485,38.244,184.502,38.244z M186.183,41.129
		c-0.042-1.218-0.799-1.807-1.709-1.807c-1.037,0-1.877,0.644-2.073,1.807H186.183z"/>
	<path d="M193.194,39.603h-0.883V38.51h0.883v-0.336c0-2.339,1.765-2.633,2.661-2.633c0.309,0,0.519,0.042,0.519,0.042v1.163
		c0,0-0.14-0.028-0.351-0.028c-0.518,0-1.484,0.168-1.484,1.485v0.308h1.681v1.093h-1.681V45.5h-1.345V39.603z"/>
	<path d="M200.825,38.244c2.115,0,3.824,1.555,3.824,3.698c0,2.157-1.709,3.726-3.824,3.726s-3.824-1.569-3.824-3.726
		C197.001,39.799,198.71,38.244,200.825,38.244z M200.825,44.492c1.345,0,2.438-1.065,2.438-2.55c0-1.471-1.093-2.521-2.438-2.521
		c-1.33,0-2.438,1.05-2.438,2.521C198.388,43.427,199.495,44.492,200.825,44.492z"/>
	<path d="M206.158,38.412h1.358v4.23c0,0.98,0.196,1.765,1.331,1.765c1.442,0,2.297-1.274,2.297-2.675v-3.32h1.358V45.5h-1.316
		v-0.938c0-0.294,0.028-0.518,0.028-0.518h-0.028c-0.294,0.7-1.219,1.625-2.605,1.625c-1.597,0-2.423-0.84-2.423-2.717V38.412z"/>
	<path d="M214.628,38.412h1.316v0.938c0,0.28-0.027,0.519-0.027,0.519h0.027c0.28-0.617,1.121-1.625,2.662-1.625
		c1.667,0,2.438,0.911,2.438,2.717V45.5h-1.359v-4.23c0-0.994-0.21-1.779-1.345-1.779c-1.078,0-1.947,0.714-2.241,1.737
		c-0.084,0.28-0.112,0.603-0.112,0.953v3.32h-1.358V38.412z"/>
	<path d="M225.816,38.244c1.639,0,2.185,1.121,2.185,1.121h0.028c0,0-0.028-0.21-0.028-0.477v-3.277h1.358V45.5h-1.288v-0.672
		c0-0.28,0.014-0.476,0.014-0.476h-0.028c0,0-0.574,1.316-2.325,1.316c-1.919,0-3.123-1.513-3.123-3.712
		C222.608,39.701,223.938,38.244,225.816,38.244z M225.998,44.492c1.051,0,2.045-0.743,2.045-2.55c0-1.261-0.658-2.521-2.003-2.521
		c-1.12,0-2.045,0.924-2.045,2.535C223.995,43.497,224.821,44.492,225.998,44.492z"/>
	<path d="M235.068,35.611h1.372v1.387h-1.372V35.611z M235.082,38.412h1.358V45.5h-1.358V38.412z"/>
	<path d="M238.568,38.412h1.316v0.938c0,0.28-0.027,0.519-0.027,0.519h0.027c0.28-0.617,1.121-1.625,2.662-1.625
		c1.667,0,2.438,0.911,2.438,2.717V45.5h-1.359v-4.23c0-0.994-0.21-1.779-1.345-1.779c-1.078,0-1.947,0.714-2.241,1.737
		c-0.084,0.28-0.112,0.603-0.112,0.953v3.32h-1.358V38.412z"/>
	<path d="M250.902,39.603h-0.924V38.51h0.966v-2.045h1.317v2.045h1.709v1.093h-1.709v3.151c0,1.415,0.994,1.597,1.513,1.597
		c0.196,0,0.322-0.028,0.322-0.028v1.205c0,0-0.196,0.028-0.477,0.028c-0.91,0-2.718-0.28-2.718-2.647V39.603z"/>
	<path d="M255.62,35.611h1.358v3.628c0,0.336-0.027,0.588-0.027,0.588h0.027c0.309-0.687,1.205-1.583,2.62-1.583
		c1.667,0,2.438,0.911,2.438,2.717V45.5h-1.359v-4.23c0-0.994-0.21-1.779-1.345-1.779c-1.064,0-1.947,0.729-2.241,1.751
		c-0.084,0.28-0.112,0.603-0.112,0.938v3.32h-1.358V35.611z"/>
	<path d="M267.116,38.244c2.003,0,3.067,1.485,3.067,3.32c0,0.182-0.042,0.588-0.042,0.588h-5.169
		c0.07,1.555,1.177,2.339,2.438,2.339c1.219,0,2.102-0.827,2.102-0.827l0.561,0.995c0,0-1.051,1.008-2.746,1.008
		c-2.227,0-3.754-1.611-3.754-3.712C263.572,39.701,265.1,38.244,267.116,38.244z M268.797,41.129
		c-0.042-1.218-0.798-1.807-1.709-1.807c-1.036,0-1.877,0.644-2.072,1.807H268.797z"/>
	<path d="M68.268,56.403h-0.883V55.31h0.883v-0.336c0-2.339,1.765-2.633,2.661-2.633c0.309,0,0.519,0.042,0.519,0.042v1.163
		c0,0-0.14-0.028-0.35-0.028c-0.519,0-1.485,0.168-1.485,1.485v0.308h1.681v1.093h-1.681V62.3h-1.345V56.403z"/>
	<path d="M75.899,55.044c2.115,0,3.824,1.555,3.824,3.698c0,2.157-1.709,3.726-3.824,3.726c-2.115,0-3.824-1.569-3.824-3.726
		C72.075,56.599,73.784,55.044,75.899,55.044z M75.899,61.292c1.345,0,2.437-1.065,2.437-2.55c0-1.471-1.092-2.521-2.437-2.521
		c-1.331,0-2.438,1.05-2.438,2.521C73.462,60.227,74.568,61.292,75.899,61.292z"/>
	<path d="M81.245,52.411h1.359v7.718c0,0.854,0.336,1.009,0.756,1.009c0.126,0,0.238-0.014,0.238-0.014v1.205
		c0,0-0.21,0.028-0.448,0.028c-0.771,0-1.905-0.21-1.905-1.989V52.411z"/>
	<path d="M84.955,52.411h1.359v7.718c0,0.854,0.336,1.009,0.756,1.009c0.126,0,0.238-0.014,0.238-0.014v1.205
		c0,0-0.21,0.028-0.448,0.028c-0.771,0-1.905-0.21-1.905-1.989V52.411z"/>
	<path d="M92.055,55.044c2.115,0,3.824,1.555,3.824,3.698c0,2.157-1.709,3.726-3.824,3.726c-2.115,0-3.824-1.569-3.824-3.726
		C88.231,56.599,89.94,55.044,92.055,55.044z M92.055,61.292c1.345,0,2.438-1.065,2.438-2.55c0-1.471-1.093-2.521-2.438-2.521
		c-1.331,0-2.437,1.05-2.437,2.521C89.618,60.227,90.724,61.292,92.055,61.292z"/>
	<path d="M96.659,55.212h1.443l1.471,4.973c0.112,0.364,0.168,0.756,0.182,0.756h0.028c0,0,0.07-0.392,0.182-0.756l1.541-4.958
		h1.247l1.527,4.958c0.112,0.364,0.196,0.756,0.196,0.756h0.028c0,0,0.056-0.392,0.168-0.756l1.485-4.973h1.429l-2.283,7.088h-1.499
		l-1.471-4.552c-0.112-0.364-0.196-0.771-0.196-0.771h-0.028c0,0-0.084,0.406-0.196,0.771l-1.457,4.552h-1.513L96.659,55.212z"/>
	<path d="M108.867,52.411h1.373v1.387h-1.373V52.411z M108.881,55.212h1.359V62.3h-1.359V55.212z"/>
	<path d="M112.367,55.212h1.317v0.938c0,0.28-0.028,0.519-0.028,0.519h0.028c0.28-0.617,1.121-1.625,2.661-1.625
		c1.667,0,2.438,0.911,2.438,2.717V62.3h-1.359v-4.23c0-0.994-0.21-1.779-1.345-1.779c-1.079,0-1.947,0.714-2.241,1.737
		c-0.084,0.28-0.112,0.603-0.112,0.953v3.32h-1.359V55.212z"/>
	<path d="M123.386,64.065c1.232,0,2.241-0.546,2.241-1.989v-0.518c0-0.224,0.014-0.448,0.014-0.448h-0.028
		c-0.42,0.7-1.079,1.106-2.101,1.106c-1.975,0-3.166-1.583-3.166-3.628c0-2.031,1.134-3.544,3.096-3.544
		c1.708,0,2.227,1.05,2.227,1.05h0.028c0,0-0.014-0.098-0.014-0.224v-0.658h1.302v6.794c0,2.339-1.779,3.235-3.572,3.235
		c-0.854,0-1.737-0.238-2.423-0.588l0.448-1.064C121.439,63.588,122.321,64.065,123.386,64.065z M125.655,58.602
		c0-1.849-0.896-2.381-2.003-2.381c-1.233,0-1.933,0.896-1.933,2.339c0,1.471,0.784,2.479,2.059,2.479
		C124.759,61.039,125.655,60.451,125.655,58.602z"/>
	<path d="M132.792,60.465c0,0,0.799,0.827,2.031,0.827c0.588,0,1.177-0.309,1.177-0.883c0-1.303-3.642-1.037-3.642-3.348
		c0-1.289,1.148-2.017,2.563-2.017c1.555,0,2.283,0.784,2.283,0.784l-0.546,1.023c0,0-0.63-0.63-1.751-0.63
		c-0.588,0-1.163,0.252-1.163,0.868c0,1.275,3.642,0.995,3.642,3.32c0,1.177-1.009,2.059-2.563,2.059
		c-1.737,0-2.689-1.037-2.689-1.037L132.792,60.465z"/>
	<path d="M138.966,52.411h1.373v1.387h-1.373V52.411z M138.98,55.212h1.359V62.3h-1.359V55.212z"/>
	<path d="M142.466,55.212h1.317v0.938c0,0.28-0.028,0.519-0.028,0.519h0.028c0.336-0.827,1.331-1.625,2.437-1.625
		c1.191,0,1.891,0.546,2.129,1.611h0.028c0.393-0.854,1.373-1.611,2.521-1.611c1.597,0,2.339,0.911,2.339,2.717V62.3h-1.359v-4.244
		c0-0.995-0.196-1.779-1.261-1.779c-0.994,0-1.737,0.841-1.989,1.807c-0.07,0.294-0.098,0.616-0.098,0.98V62.3h-1.359v-4.244
		c0-0.925-0.14-1.779-1.232-1.779c-1.037,0-1.765,0.854-2.031,1.863c-0.07,0.28-0.084,0.602-0.084,0.924V62.3h-1.359V55.212z"/>
	<path d="M155.164,55.212h1.359v4.23c0,0.98,0.196,1.765,1.331,1.765c1.443,0,2.297-1.274,2.297-2.675v-3.32h1.359V62.3h-1.317
		v-0.938c0-0.294,0.028-0.518,0.028-0.518h-0.028c-0.294,0.7-1.219,1.625-2.605,1.625c-1.597,0-2.423-0.84-2.423-2.717V55.212z"/>
	<path d="M163.55,52.411h1.359v7.718c0,0.854,0.336,1.009,0.756,1.009c0.126,0,0.238-0.014,0.238-0.014v1.205
		c0,0-0.21,0.028-0.448,0.028c-0.771,0-1.905-0.21-1.905-1.989V52.411z"/>
	<path d="M171.042,57.874h0.308v-0.126c0-1.163-0.658-1.555-1.555-1.555c-1.093,0-1.975,0.687-1.975,0.687l-0.561-0.995
		c0,0,1.022-0.84,2.647-0.84c1.793,0,2.802,0.98,2.802,2.773V62.3h-1.261v-0.672c0-0.322,0.028-0.561,0.028-0.561h-0.028
		c0,0-0.574,1.401-2.27,1.401c-1.219,0-2.409-0.742-2.409-2.157C166.77,57.972,169.851,57.874,171.042,57.874z M169.473,61.375
		c1.148,0,1.891-1.205,1.891-2.255v-0.224h-0.351c-1.022,0-2.872,0.07-2.872,1.345C168.142,60.815,168.59,61.375,169.473,61.375z"/>
	<path d="M175.03,56.403h-0.925V55.31h0.967v-2.045h1.316v2.045h1.709v1.093h-1.709v3.151c0,1.415,0.995,1.597,1.513,1.597
		c0.196,0,0.322-0.028,0.322-0.028v1.205c0,0-0.196,0.028-0.476,0.028c-0.911,0-2.717-0.28-2.717-2.647V56.403z"/>
	<path d="M179.734,52.411h1.373v1.387h-1.373V52.411z M179.748,55.212h1.359V62.3h-1.359V55.212z"/>
	<path d="M186.539,55.044c2.115,0,3.824,1.555,3.824,3.698c0,2.157-1.709,3.726-3.824,3.726c-2.115,0-3.824-1.569-3.824-3.726
		C182.715,56.599,184.424,55.044,186.539,55.044z M186.539,61.292c1.345,0,2.438-1.065,2.438-2.55c0-1.471-1.093-2.521-2.438-2.521
		c-1.331,0-2.437,1.05-2.437,2.521C184.102,60.227,185.208,61.292,186.539,61.292z"/>
	<path d="M191.969,55.212h1.317v0.938c0,0.28-0.028,0.519-0.028,0.519h0.028c0.28-0.617,1.121-1.625,2.661-1.625
		c1.667,0,2.438,0.911,2.438,2.717V62.3h-1.358v-4.23c0-0.994-0.21-1.779-1.345-1.779c-1.079,0-1.947,0.714-2.242,1.737
		c-0.084,0.28-0.112,0.603-0.112,0.953v3.32h-1.359V55.212z"/>
	<path d="M200.495,60.465c0,0,0.799,0.827,2.031,0.827c0.588,0,1.177-0.309,1.177-0.883c0-1.303-3.642-1.037-3.642-3.348
		c0-1.289,1.148-2.017,2.562-2.017c1.556,0,2.283,0.784,2.283,0.784l-0.546,1.023c0,0-0.63-0.63-1.751-0.63
		c-0.588,0-1.162,0.252-1.162,0.868c0,1.275,3.642,0.995,3.642,3.32c0,1.177-1.009,2.059-2.563,2.059
		c-1.737,0-2.689-1.037-2.689-1.037L200.495,60.465z"/>
	<path d="M206.684,60.857h1.429V62.3h-1.429V60.857z"/>
	<path d="M25.445,102.643c2.381,0,3.6,1.303,3.6,1.303l-0.687,1.037c0,0-1.149-1.079-2.857-1.079c-2.213,0-3.656,1.681-3.656,3.782
		c0,2.115,1.471,3.908,3.67,3.908c1.863,0,3.054-1.289,3.054-1.289l0.743,0.995c0,0-1.359,1.569-3.838,1.569
		c-2.97,0-5.057-2.269-5.057-5.168C20.416,104.828,22.573,102.643,25.445,102.643z"/>
	<path d="M30.916,102.811h1.359v3.628c0,0.336-0.028,0.588-0.028,0.588h0.028c0.308-0.687,1.205-1.583,2.62-1.583
		c1.667,0,2.437,0.911,2.437,2.717v4.539h-1.359v-4.23c0-0.994-0.21-1.779-1.345-1.779c-1.064,0-1.947,0.729-2.241,1.751
		c-0.084,0.28-0.112,0.603-0.112,0.938v3.32h-1.359V102.811z"/>
	<path d="M42.664,105.444c2.115,0,3.824,1.555,3.824,3.698c0,2.157-1.709,3.726-3.824,3.726c-2.115,0-3.824-1.569-3.824-3.726
		C38.84,106.999,40.549,105.444,42.664,105.444z M42.664,111.692c1.345,0,2.437-1.065,2.437-2.55c0-1.471-1.092-2.521-2.437-2.521
		c-1.331,0-2.438,1.05-2.438,2.521C40.227,110.627,41.333,111.692,42.664,111.692z"/>
	<path d="M51.399,105.444c2.115,0,3.824,1.555,3.824,3.698c0,2.157-1.709,3.726-3.824,3.726c-2.115,0-3.824-1.569-3.824-3.726
		C47.576,106.999,49.285,105.444,51.399,105.444z M51.399,111.692c1.345,0,2.438-1.065,2.438-2.55c0-1.471-1.093-2.521-2.438-2.521
		c-1.331,0-2.437,1.05-2.437,2.521C48.962,110.627,50.069,111.692,51.399,111.692z"/>
	<path d="M56.914,110.865c0,0,0.799,0.827,2.031,0.827c0.588,0,1.177-0.309,1.177-0.883c0-1.303-3.642-1.037-3.642-3.348
		c0-1.289,1.148-2.017,2.563-2.017c1.555,0,2.283,0.784,2.283,0.784l-0.546,1.023c0,0-0.63-0.63-1.751-0.63
		c-0.588,0-1.163,0.252-1.163,0.868c0,1.275,3.642,0.995,3.642,3.32c0,1.177-1.009,2.059-2.563,2.059
		c-1.737,0-2.689-1.037-2.689-1.037L56.914,110.865z"/>
	<path d="M66.155,105.444c2.003,0,3.068,1.485,3.068,3.32c0,0.182-0.042,0.588-0.042,0.588h-5.169
		c0.07,1.555,1.177,2.339,2.438,2.339c1.218,0,2.101-0.827,2.101-0.827l0.56,0.995c0,0-1.05,1.008-2.746,1.008
		c-2.227,0-3.754-1.611-3.754-3.712C62.611,106.901,64.138,105.444,66.155,105.444z M67.836,108.33
		c-0.042-1.218-0.799-1.807-1.709-1.807c-1.037,0-1.877,0.644-2.073,1.807H67.836z"/>
	<path d="M78.167,108.274h0.308v-0.126c0-1.163-0.658-1.555-1.555-1.555c-1.093,0-1.975,0.687-1.975,0.687l-0.561-0.995
		c0,0,1.022-0.84,2.647-0.84c1.793,0,2.802,0.98,2.802,2.773v4.482h-1.261v-0.672c0-0.322,0.028-0.561,0.028-0.561h-0.028
		c0,0-0.575,1.401-2.27,1.401c-1.218,0-2.409-0.742-2.409-2.157C73.895,108.372,76.977,108.274,78.167,108.274z M76.599,111.776
		c1.148,0,1.891-1.205,1.891-2.255v-0.224h-0.351c-1.022,0-2.872,0.07-2.872,1.345C75.268,111.215,75.716,111.776,76.599,111.776z"
		/>
	<path d="M85.459,105.612h1.247v0.603c0,0.28-0.028,0.518-0.028,0.518h0.028c0,0,0.603-1.289,2.381-1.289
		c1.905,0,3.11,1.513,3.11,3.712c0,2.255-1.359,3.712-3.208,3.712c-1.555,0-2.171-1.163-2.171-1.163H86.79
		c0,0,0.028,0.252,0.028,0.616v3.18h-1.359V105.612z M88.779,111.706c1.121,0,2.045-0.924,2.045-2.535
		c0-1.541-0.827-2.536-2.003-2.536c-1.064,0-2.045,0.743-2.045,2.549C86.776,110.445,87.476,111.706,88.779,111.706z"/>
	<path d="M97.557,108.274h0.308v-0.126c0-1.163-0.658-1.555-1.555-1.555c-1.093,0-1.975,0.687-1.975,0.687l-0.561-0.995
		c0,0,1.022-0.84,2.647-0.84c1.793,0,2.802,0.98,2.802,2.773v4.482h-1.261v-0.672c0-0.322,0.028-0.561,0.028-0.561h-0.028
		c0,0-0.575,1.401-2.27,1.401c-1.218,0-2.409-0.742-2.409-2.157C93.285,108.372,96.366,108.274,97.557,108.274z M95.988,111.776
		c1.148,0,1.891-1.205,1.891-2.255v-0.224h-0.351c-1.022,0-2.872,0.07-2.872,1.345C94.657,111.215,95.105,111.776,95.988,111.776z"
		/>
	<path d="M101.237,102.811h1.373v1.387h-1.373V102.811z M101.251,105.612h1.359v7.088h-1.359V105.612z"/>
	<path d="M104.737,105.612h1.317v1.233c0,0.294-0.028,0.532-0.028,0.532h0.028c0.322-1.037,1.148-1.849,2.241-1.849
		c0.182,0,0.35,0.028,0.35,0.028v1.345c0,0-0.182-0.042-0.392-0.042c-0.869,0-1.667,0.617-1.989,1.667
		c-0.126,0.406-0.168,0.84-0.168,1.275v2.899h-1.359V105.612z"/>
	<path d="M116.891,105.444c2.115,0,3.824,1.555,3.824,3.698c0,2.157-1.709,3.726-3.824,3.726c-2.115,0-3.824-1.569-3.824-3.726
		C113.066,106.999,114.775,105.444,116.891,105.444z M116.891,111.692c1.345,0,2.437-1.065,2.437-2.55
		c0-1.471-1.092-2.521-2.437-2.521c-1.331,0-2.438,1.05-2.438,2.521C114.453,110.627,115.56,111.692,116.891,111.692z"/>
	<path d="M122.699,106.803h-0.882v-1.093h0.882v-0.336c0-2.339,1.765-2.633,2.661-2.633c0.309,0,0.519,0.042,0.519,0.042v1.163
		c0,0-0.14-0.028-0.35-0.028c-0.519,0-1.485,0.168-1.485,1.485v0.308h1.681v1.093h-1.681v5.897h-1.345V106.803z"/>
	<path d="M130.622,105.612h1.317v0.938c0,0.28-0.028,0.519-0.028,0.519h0.028c0.336-0.827,1.331-1.625,2.437-1.625
		c1.191,0,1.891,0.546,2.129,1.611h0.028c0.393-0.854,1.373-1.611,2.521-1.611c1.597,0,2.339,0.911,2.339,2.717v4.539h-1.359v-4.244
		c0-0.995-0.196-1.779-1.261-1.779c-0.994,0-1.737,0.841-1.989,1.807c-0.07,0.294-0.098,0.616-0.098,0.98v3.236h-1.359v-4.244
		c0-0.925-0.14-1.779-1.232-1.779c-1.037,0-1.765,0.854-2.031,1.863c-0.07,0.28-0.084,0.602-0.084,0.924v3.236h-1.359V105.612z"/>
	<path d="M146.724,105.444c2.115,0,3.824,1.555,3.824,3.698c0,2.157-1.709,3.726-3.824,3.726c-2.115,0-3.824-1.569-3.824-3.726
		C142.9,106.999,144.609,105.444,146.724,105.444z M146.724,111.692c1.345,0,2.438-1.065,2.438-2.55
		c0-1.471-1.093-2.521-2.438-2.521c-1.331,0-2.437,1.05-2.437,2.521C144.287,110.627,145.393,111.692,146.724,111.692z"/>
	<path d="M152.07,102.811h1.359v7.718c0,0.854,0.336,1.009,0.756,1.009c0.126,0,0.238-0.014,0.238-0.014v1.205
		c0,0-0.21,0.028-0.448,0.028c-0.771,0-1.905-0.21-1.905-1.989V102.811z"/>
	<path d="M158.917,105.444c2.003,0,3.068,1.485,3.068,3.32c0,0.182-0.042,0.588-0.042,0.588h-5.169
		c0.07,1.555,1.177,2.339,2.438,2.339c1.218,0,2.101-0.827,2.101-0.827l0.56,0.995c0,0-1.05,1.008-2.746,1.008
		c-2.227,0-3.754-1.611-3.754-3.712C155.374,106.901,156.9,105.444,158.917,105.444z M160.599,108.33
		c-0.042-1.218-0.799-1.807-1.709-1.807c-1.037,0-1.877,0.644-2.073,1.807H160.599z"/>
	<path d="M166.926,105.444c1.779,0,2.661,1.037,2.661,1.037l-0.644,0.952c0,0-0.756-0.812-1.961-0.812
		c-1.429,0-2.465,1.064-2.465,2.521c0,1.443,1.036,2.55,2.507,2.55c1.316,0,2.185-0.953,2.185-0.953l0.546,0.995
		c0,0-0.98,1.134-2.83,1.134c-2.228,0-3.796-1.583-3.796-3.712C163.13,107.055,164.698,105.444,166.926,105.444z"/>
	<path d="M171.194,105.612h1.359v4.23c0,0.98,0.196,1.765,1.331,1.765c1.443,0,2.297-1.274,2.297-2.675v-3.32h1.359v7.088h-1.317
		v-0.938c0-0.294,0.028-0.518,0.028-0.518h-0.028c-0.294,0.7-1.219,1.625-2.605,1.625c-1.597,0-2.423-0.84-2.423-2.717V105.612z"/>
	<path d="M179.58,102.811h1.359v7.718c0,0.854,0.336,1.009,0.756,1.009c0.126,0,0.238-0.014,0.238-0.014v1.205
		c0,0-0.21,0.028-0.448,0.028c-0.771,0-1.905-0.21-1.905-1.989V102.811z"/>
	<path d="M186.428,105.444c2.003,0,3.068,1.485,3.068,3.32c0,0.182-0.042,0.588-0.042,0.588h-5.169
		c0.07,1.555,1.177,2.339,2.438,2.339c1.218,0,2.101-0.827,2.101-0.827l0.56,0.995c0,0-1.05,1.008-2.746,1.008
		c-2.227,0-3.754-1.611-3.754-3.712C182.884,106.901,184.411,105.444,186.428,105.444z M188.109,108.33
		c-0.042-1.218-0.799-1.807-1.709-1.807c-1.037,0-1.877,0.644-2.073,1.807H188.109z"/>
	<path d="M191.228,110.865c0,0,0.799,0.827,2.031,0.827c0.588,0,1.177-0.309,1.177-0.883c0-1.303-3.642-1.037-3.642-3.348
		c0-1.289,1.148-2.017,2.563-2.017c1.555,0,2.283,0.784,2.283,0.784l-0.546,1.023c0,0-0.631-0.63-1.751-0.63
		c-0.588,0-1.163,0.252-1.163,0.868c0,1.275,3.642,0.995,3.642,3.32c0,1.177-1.008,2.059-2.563,2.059
		c-1.737,0-2.689-1.037-2.689-1.037L191.228,110.865z"/>
	<path d="M201.392,106.803h-0.882v-1.093h0.882v-0.336c0-2.339,1.766-2.633,2.662-2.633c0.308,0,0.518,0.042,0.518,0.042v1.163
		c0,0-0.14-0.028-0.35-0.028c-0.519,0-1.485,0.168-1.485,1.485v0.308h1.682v1.093h-1.682v5.897h-1.345V106.803z"/>
	<path d="M205.718,105.612h1.316v1.233c0,0.294-0.027,0.532-0.027,0.532h0.027c0.322-1.037,1.149-1.849,2.241-1.849
		c0.183,0,0.351,0.028,0.351,0.028v1.345c0,0-0.182-0.042-0.393-0.042c-0.868,0-1.667,0.617-1.988,1.667
		c-0.126,0.406-0.169,0.84-0.169,1.275v2.899h-1.358V105.612z"/>
	<path d="M214.273,105.444c2.115,0,3.824,1.555,3.824,3.698c0,2.157-1.709,3.726-3.824,3.726s-3.824-1.569-3.824-3.726
		C210.449,106.999,212.158,105.444,214.273,105.444z M214.273,111.692c1.345,0,2.438-1.065,2.438-2.55
		c0-1.471-1.093-2.521-2.438-2.521c-1.33,0-2.438,1.05-2.438,2.521C211.836,110.627,212.943,111.692,214.273,111.692z"/>
	<path d="M219.704,105.612h1.316v0.938c0,0.28-0.027,0.519-0.027,0.519h0.027c0.337-0.827,1.331-1.625,2.438-1.625
		c1.19,0,1.892,0.546,2.13,1.611h0.027c0.393-0.854,1.373-1.611,2.521-1.611c1.597,0,2.339,0.911,2.339,2.717v4.539h-1.358v-4.244
		c0-0.995-0.196-1.779-1.261-1.779c-0.994,0-1.736,0.841-1.989,1.807c-0.069,0.294-0.098,0.616-0.098,0.98v3.236h-1.358v-4.244
		c0-0.925-0.141-1.779-1.233-1.779c-1.036,0-1.765,0.854-2.03,1.863c-0.07,0.28-0.085,0.602-0.085,0.924v3.236h-1.358V105.612z"/>
	<path d="M236.392,106.803h-0.924v-1.093h0.966v-2.045h1.317v2.045h1.709v1.093h-1.709v3.151c0,1.415,0.994,1.597,1.513,1.597
		c0.196,0,0.322-0.028,0.322-0.028v1.205c0,0-0.196,0.028-0.477,0.028c-0.91,0-2.718-0.28-2.718-2.647V106.803z"/>
	<path d="M241.109,102.811h1.358v3.628c0,0.336-0.027,0.588-0.027,0.588h0.027c0.309-0.687,1.205-1.583,2.62-1.583
		c1.667,0,2.438,0.911,2.438,2.717v4.539h-1.359v-4.23c0-0.994-0.21-1.779-1.345-1.779c-1.064,0-1.947,0.729-2.241,1.751
		c-0.084,0.28-0.112,0.603-0.112,0.938v3.32h-1.358V102.811z"/>
	<path d="M252.605,105.444c2.003,0,3.067,1.485,3.067,3.32c0,0.182-0.042,0.588-0.042,0.588h-5.169
		c0.07,1.555,1.177,2.339,2.438,2.339c1.219,0,2.102-0.827,2.102-0.827l0.561,0.995c0,0-1.051,1.008-2.746,1.008
		c-2.227,0-3.754-1.611-3.754-3.712C249.062,106.901,250.589,105.444,252.605,105.444z M254.286,108.33
		c-0.042-1.218-0.798-1.807-1.709-1.807c-1.036,0-1.877,0.644-2.073,1.807H254.286z"/>
	<path d="M96.792,122.412h1.317v0.938c0,0.28-0.028,0.519-0.028,0.519h0.028c0.336-0.827,1.331-1.625,2.437-1.625
		c1.191,0,1.891,0.546,2.129,1.611h0.028c0.393-0.854,1.373-1.611,2.521-1.611c1.597,0,2.339,0.911,2.339,2.717v4.539h-1.359v-4.244
		c0-0.995-0.196-1.779-1.261-1.779c-0.994,0-1.737,0.841-1.989,1.807c-0.07,0.294-0.098,0.616-0.098,0.98v3.236h-1.359v-4.244
		c0-0.925-0.14-1.779-1.232-1.779c-1.037,0-1.765,0.854-2.031,1.863c-0.07,0.28-0.084,0.602-0.084,0.924v3.236h-1.359V122.412z"/>
	<path d="M112.642,122.244c2.003,0,3.068,1.485,3.068,3.32c0,0.182-0.042,0.588-0.042,0.588h-5.169
		c0.07,1.555,1.177,2.339,2.438,2.339c1.218,0,2.101-0.827,2.101-0.827l0.56,0.995c0,0-1.05,1.008-2.746,1.008
		c-2.227,0-3.754-1.611-3.754-3.712C109.098,123.701,110.625,122.244,112.642,122.244z M114.323,125.129
		c-0.042-1.218-0.799-1.807-1.709-1.807c-1.037,0-1.877,0.644-2.073,1.807H114.323z"/>
	<path d="M117.358,122.412h1.317v0.938c0,0.28-0.028,0.519-0.028,0.519h0.028c0.28-0.617,1.121-1.625,2.661-1.625
		c1.667,0,2.438,0.911,2.438,2.717v4.539h-1.359v-4.23c0-0.994-0.21-1.779-1.345-1.779c-1.079,0-1.947,0.714-2.241,1.737
		c-0.084,0.28-0.112,0.603-0.112,0.953v3.32h-1.359V122.412z"/>
	<path d="M125.702,122.412h1.359v4.23c0,0.98,0.196,1.765,1.331,1.765c1.443,0,2.297-1.274,2.297-2.675v-3.32h1.359v7.088h-1.317
		v-0.938c0-0.294,0.028-0.518,0.028-0.518h-0.028c-0.294,0.7-1.219,1.625-2.605,1.625c-1.597,0-2.423-0.84-2.423-2.717V122.412z"/>
	<path d="M137.77,119.611h1.359v3.235c0,0.351-0.028,0.603-0.028,0.603h0.028c0,0,0.602-1.205,2.269-1.205
		c1.905,0,3.11,1.513,3.11,3.712c0,2.255-1.359,3.712-3.222,3.712c-1.583,0-2.227-1.219-2.227-1.219h-0.028
		c0,0,0.028,0.224,0.028,0.533v0.518h-1.289V119.611z M141.089,128.505c1.121,0,2.045-0.924,2.045-2.535
		c0-1.541-0.827-2.536-2.003-2.536c-1.064,0-2.045,0.743-2.045,2.549C139.086,127.245,139.745,128.505,141.089,128.505z"/>
	<path d="M149.223,122.244c2.003,0,3.068,1.485,3.068,3.32c0,0.182-0.042,0.588-0.042,0.588h-5.169
		c0.07,1.555,1.177,2.339,2.438,2.339c1.218,0,2.101-0.827,2.101-0.827l0.56,0.995c0,0-1.05,1.008-2.746,1.008
		c-2.227,0-3.754-1.611-3.754-3.712C145.679,123.701,147.206,122.244,149.223,122.244z M150.904,125.129
		c-0.042-1.218-0.799-1.807-1.709-1.807c-1.037,0-1.877,0.644-2.073,1.807H150.904z"/>
	<path d="M153.855,119.611h1.359v7.718c0,0.854,0.336,1.009,0.756,1.009c0.126,0,0.238-0.014,0.238-0.014v1.205
		c0,0-0.21,0.028-0.448,0.028c-0.771,0-1.905-0.21-1.905-1.989V119.611z"/>
	<path d="M160.955,122.244c2.115,0,3.824,1.555,3.824,3.698c0,2.157-1.709,3.726-3.824,3.726c-2.115,0-3.824-1.569-3.824-3.726
		C157.131,123.799,158.84,122.244,160.955,122.244z M160.955,128.492c1.345,0,2.438-1.065,2.438-2.55
		c0-1.471-1.093-2.521-2.438-2.521c-1.331,0-2.437,1.05-2.437,2.521C158.518,127.427,159.625,128.492,160.955,128.492z"/>
	<path d="M165.559,122.412h1.443l1.471,4.973c0.112,0.364,0.168,0.756,0.182,0.756h0.028c0,0,0.07-0.392,0.182-0.756l1.541-4.958
		h1.247l1.527,4.958c0.112,0.364,0.196,0.756,0.196,0.756h0.028c0,0,0.056-0.392,0.168-0.756l1.485-4.973h1.429l-2.283,7.088h-1.499
		l-1.471-4.552c-0.112-0.364-0.196-0.771-0.196-0.771h-0.028c0,0-0.084,0.406-0.196,0.771l-1.457,4.552h-1.513L165.559,122.412z"/>
	<path d="M177.781,128.057h1.429v1.443h-1.429V128.057z"/>
</g>
</svg>
