<?xml version="1.0" encoding="utf-8"?>
<!-- Generator: Adobe Illustrator 15.0.0, SVG Export Plug-In . SVG Version: 6.00 Build 0)  -->
<!DOCTYPE svg PUBLIC "-//W3C//DTD SVG 1.1//EN" "http://www.w3.org/Graphics/SVG/1.1/DTD/svg11.dtd">
<svg version="1.1" id="Layer_1" xmlns="http://www.w3.org/2000/svg" xmlns:xlink="http://www.w3.org/1999/xlink" x="0px" y="0px"
	 width="120.574px" height="23.167px" viewBox="0 10.865 120.574 23.167" enable-background="new 0 10.865 120.574 23.167"
	 xml:space="preserve">
<path fill="#FFFFFF" stroke="#010101" d="M119.909,22.474c0.008,6.062-3.357,10.983-7.514,10.987L8.284,33.563
	c-4.156,0.005-7.532-4.91-7.539-10.973v-0.102c-0.008-6.065,3.357-10.984,7.513-10.988L112.37,11.4
	c4.155-0.004,7.531,4.91,7.537,10.973v0.103L119.909,22.474L119.909,22.474z"/>
<text transform="matrix(1 0 0 1 29.7498 26.4333)" fill="#010101" font-family="'Lato-Regular'" font-size="16">O</text>
<text transform="matrix(1 0 0 1 42.1389 29.0925)" fill="#010101" font-family="'Lato-Regular'" font-size="10">2</text>
<text transform="matrix(1 0 0 1 79.9993 26.2507)" fill="#010101" font-family="'Lato-Regular'" font-size="16">CO</text>
<text transform="matrix(1 0 0 1 103.7083 28.9099)" fill="#010101" font-family="'Lato-Regular'" font-size="10">2</text>
<circle fill="#F1E91A" stroke="#010101" cx="18.417" cy="22.481" r="5.667"/>
<circle fill="#8F72B3" stroke="#010101" cx="68.167" cy="21.72" r="5.667"/>
</svg>
