<?xml version="1.0" encoding="utf-8"?>
<!-- Generator: Adobe Illustrator 15.0.0, SVG Export Plug-In . SVG Version: 6.00 Build 0)  -->
<!DOCTYPE svg PUBLIC "-//W3C//DTD SVG 1.1//EN" "http://www.w3.org/Graphics/SVG/1.1/DTD/svg11.dtd">
<svg version="1.1" id="Layer_1" xmlns="http://www.w3.org/2000/svg" xmlns:xlink="http://www.w3.org/1999/xlink" x="0px" y="0px"
	 width="106.968px" height="142.694px" viewBox="0 0 106.968 142.694" enable-background="new 0 0 106.968 142.694"
	 xml:space="preserve">
<g>
	<g>
		<path fill="#3C803D" stroke="#282A73" stroke-miterlimit="10" d="M10.312,139.669c0,0,0.73-2.273,3.301-5.681
			c0.592-0.785,1.285-1.63,2.087-2.521c0.567-0.632,1.523-0.742,1.523-0.742s1.55-2.371,2.216-2.966
			c0.665-0.594,1.746-0.656,1.746-0.656s1.819-2.281,2.596-2.854c0.695-0.511,1.726-0.331,1.726-0.331s2.22-2.398,3.142-3.004
			c0.885-0.582,2.063-0.182,2.063-0.182s2.24-2.592,3.052-3.102c0.897-0.563,2.4-0.199,2.4-0.199s2.018-2.54,2.871-3.062
			c0.844-0.515,2.432-0.188,2.432-0.188s2.005-2.5,2.956-3.072c0.856-0.515,2.566,0.154,2.566,0.154s1.932-2.849,2.896-3.424
			c0.848-0.507,2.113,0.399,2.113,0.399s2.413-3.105,3.4-3.696c0.785-0.47,2.188,0.448,2.188,0.448s2.284-3.137,3.337-3.775
			c0.863-0.524,2.723,0.337,2.723,0.337s1.818-3.113,2.788-3.716c0.931-0.577,2.193,0.359,2.193,0.359s2.375-3.236,3.259-3.806
			c0.894-0.576,1.983,0.447,1.983,0.447s2.486-3.385,3.373-3.987c0.844-0.572,1.669,0.89,1.669,0.89s2.645-3.897,3.522-4.541
			c0.874-0.641,2.106,0.627,2.106,0.627s2.064-3.813,2.831-4.444c0.8-0.659,1.34,0.724,1.34,0.724s2.489-4.092,3.187-4.784
			c0.659-0.655,1.809,0.06,1.809,0.06s1.872-3.485,2.448-4.292c16.242-22.711,1.481-43.812-20.841-53.956
			C54.314,11.145,28.334,9.159,16.462,32.839c-0.41,0.818-2.612,3.875-2.612,3.875s1.317,0.583,1.062,1.403
			c-0.27,0.866-2.839,4.717-2.839,4.717s1.613-0.213,1.397,0.724c-0.207,0.897-2.838,4.317-2.838,4.317s1.844,0.377,1.655,1.372
			c-0.19,0.998-2.697,4.963-2.697,4.963s1.814-0.06,1.656,0.884c-0.167,0.994-2.305,4.631-2.305,4.631s1.499,0.35,1.347,1.344
			c-0.15,0.983-2.219,4.507-2.219,4.507s1.482,0.515,1.34,1.549c-0.148,1.077-2.341,4.153-2.341,4.153s1.663,1.01,1.546,1.973
			c-0.143,1.172-2.101,4.689-2.101,4.689s1.503,0.602,1.415,1.482c-0.111,1.108-1.902,4.775-1.902,4.775s1.428,0.478,1.356,1.439
			c-0.082,1.091-1.755,4.296-1.755,4.296s1.427,0.951,1.385,1.935c-0.048,1.095-1.242,4.209-1.242,4.209s1.087,1.052,1.081,2.039
			c-0.006,1-1.062,4.217-1.062,4.217s1.108,0.948,1.145,2.024c0.033,0.973-0.724,4.472-0.724,4.472s0.989,0.659,1.075,1.755
			c0.09,1.14-0.271,4.568-0.271,4.568s0.773,0.686,0.868,1.599c0.106,1.021-0.166,4.126-0.166,4.126s0.693,0.898,0.797,1.867
			c0.104,0.971-0.109,4.018-0.109,4.018s0.644,0.842,0.75,1.788c0.15,1.337,0.29,2.561,0.416,3.671
			C10.115,137.036,10.312,139.669,10.312,139.669z"/>
		<g opacity="0.38">
			<path fill="#003F27" d="M12.073,42.833c4.108-2.497,8.473-4.428,12.958-5.813c4.487-1.386,9.124-2.139,13.757-2.274
				c4.654-0.098,9.21,0.656,13.652,1.538c2.225,0.44,4.437,0.899,6.677,1.19c1.118,0.148,2.246,0.262,3.383,0.227
				c1.127-0.048,2.304-0.21,3.315-0.833c-0.956,0.715-2.166,0.983-3.315,1.095c-1.162,0.112-2.318,0.072-3.464-0.004
				c-2.287-0.197-4.53-0.576-6.773-0.925c-4.473-0.728-8.956-1.472-13.501-1.298c-4.543,0.051-9.095,0.802-13.561,2.012
				c-2.236,0.601-4.45,1.341-6.635,2.201C16.368,40.78,14.215,41.771,12.073,42.833z"/>
		</g>
		<g opacity="0.38">
			<path fill="#003F27" d="M9.59,54.208c1.863-1.16,3.768-2.266,5.773-3.116c2.005-0.838,4.071-1.454,6.143-1.904
				c4.156-0.885,8.317-1.03,12.393-0.892c4.09,0.221,8.015,0.987,11.892,1.765c1.938,0.392,3.875,0.783,5.852,0.997
				c0.986,0.116,1.985,0.183,3,0.127c1.009-0.07,2.055-0.256,3.006-0.802c-0.902,0.637-1.982,0.929-3.02,1.064
				c-1.044,0.132-2.08,0.138-3.1,0.096c-2.034-0.119-4.01-0.428-5.981-0.729c-3.933-0.625-7.822-1.391-11.833-1.53
				c-4.008-0.218-8.091-0.06-12.166,0.648C17.462,50.597,13.451,52.135,9.59,54.208z"/>
		</g>
		<g opacity="0.38">
			<path fill="#003F27" d="M8.07,65.574c3.289-1.801,6.896-2.533,10.374-2.948c3.501-0.396,6.95-0.279,10.271,0.19
				c3.317,0.477,6.503,1.302,9.598,2.233c1.551,0.453,3.091,0.931,4.708,1.164c1.587,0.281,3.371,0.186,5.013-0.762
				c-1.544,1.147-3.486,1.386-5.164,1.254c-1.702-0.147-3.299-0.542-4.895-0.905c-3.175-0.765-6.321-1.544-9.584-2.007
				c-3.249-0.484-6.613-0.626-10.026-0.42c-1.707,0.105-3.431,0.322-5.155,0.668C11.486,64.37,9.754,64.834,8.07,65.574z"/>
		</g>
		<g opacity="0.38">
			<path fill="#003F27" d="M6.514,77.938c1.228-0.935,2.744-1.347,4.161-1.532c1.43-0.166,2.831-0.14,4.208-0.057
				c2.754,0.18,5.391,0.7,7.982,1.298c2.585,0.62,5.105,1.403,7.557,2.265c1.23,0.414,2.457,0.851,3.763,0.993
				c0.649,0.08,1.328,0.059,2.014-0.112c0.685-0.171,1.365-0.473,2.024-0.834c-1.202,0.927-2.73,1.483-4.161,1.433
				c-1.421-0.053-2.711-0.421-3.993-0.747c-2.55-0.693-5.045-1.44-7.615-2.032c-2.558-0.617-5.148-1.153-7.792-1.508
				c-1.322-0.172-2.67-0.279-4.041-0.217C9.255,76.914,7.84,77.189,6.514,77.938z"/>
		</g>
		<g opacity="0.38">
			<path fill="#003F27" d="M5.628,89.932c1.01-0.649,2.188-0.93,3.317-1.093c1.136-0.132,2.256-0.118,3.357-0.052
				c2.204,0.146,4.31,0.593,6.379,1.091c1.024,0.26,2.064,0.549,3.063,0.889c1.181,0.415,1.771,0.626,2.954,1.041
				c0.977,0.32,1.992,0.535,3.058,0.411c1.069-0.093,2.148-0.558,3.183-1.112c-0.932,0.734-2.009,1.317-3.173,1.59
				c-1.17,0.24-2.324,0.089-3.375-0.154c-2.109-0.526-4.02-1.242-6.096-1.698c-2.044-0.518-4.1-0.981-6.195-1.301
				c-1.047-0.156-2.115-0.249-3.199-0.22C7.821,89.324,6.71,89.482,5.628,89.932z"/>
		</g>
		<g opacity="0.38">
			<path fill="#003F27" d="M5.789,102.331c1.566-0.576,3.239-0.803,4.874-0.794c1.641,0.002,3.256,0.266,4.792,0.729
				c0.782,0.257,1.465,0.517,2.212,0.697c0.736,0.2,1.494,0.331,2.26,0.416c1.526,0.134,3.139,0.09,4.677-0.553
				c-1.384,0.991-3.135,1.345-4.776,1.327c-0.832,0.005-1.648-0.119-2.447-0.276c-0.796-0.161-1.58-0.447-2.291-0.662
				c-1.46-0.459-2.982-0.751-4.535-0.908C8.999,102.172,7.408,102.13,5.789,102.331z"/>
		</g>
		<g opacity="0.38">
			<path fill="#003F27" d="M7.013,115.15c0.828-0.481,1.729-0.82,2.666-1.059c0.938-0.232,1.917-0.377,2.969-0.227
				c0.26,0.042,0.545,0.136,0.752,0.207c0.196,0.063,0.42,0.117,0.637,0.172c0.437,0.117,0.893,0.186,1.35,0.274
				c1.124,0.175,1.685,0.262,2.809,0.437c-0.931,0.251-1.89,0.344-2.86,0.333c-0.486,0.001-0.974-0.052-1.467-0.124
				c-0.249-0.04-0.486-0.097-0.746-0.168c-0.246-0.074-0.414-0.123-0.624-0.153c-0.829-0.141-1.76-0.064-2.675,0.009
				C8.699,114.971,8.137,115.031,7.013,115.15z"/>
		</g>
		<g opacity="0.38">
			<path fill="#003F27" d="M88.713,84.105c0.022-2.251-0.012-4.484-0.212-6.671c-0.167-2.193-0.455-4.35-0.888-6.451
				c-0.854-4.202-2.202-8.229-4.257-11.85c-1.943-3.698-4.762-6.81-7.643-9.941c-1.429-1.578-2.907-3.141-4.267-4.84
				c-0.664-0.861-1.302-1.756-1.821-2.737c-0.513-0.97-0.927-2.072-0.825-3.229c0.009,1.149,0.501,2.168,1.061,3.084
				c0.574,0.918,1.264,1.749,1.98,2.548c1.424,1.61,2.961,3.102,4.469,4.612c3.01,3.012,5.891,6.185,7.956,9.917
				c2.025,3.741,3.411,7.842,4.113,12.165C89.082,75.033,89.193,79.546,88.713,84.105z"/>
		</g>
		<g opacity="0.38">
			<path fill="#003F27" d="M78.913,91.74c0.129-4.039-0.23-7.963-1.443-11.521c-1.165-3.569-2.834-6.877-4.848-9.938
				c-1.936-3.104-4.441-5.798-6.855-8.602c-1.199-1.411-2.412-2.826-3.479-4.376c-0.519-0.785-1.004-1.604-1.367-2.496
				c-0.36-0.884-0.598-1.881-0.414-2.908c-0.074,1.02,0.25,1.939,0.662,2.77c0.424,0.832,0.964,1.586,1.538,2.309
				c1.136,1.458,2.41,2.799,3.684,4.138c2.54,2.683,5.066,5.402,7.119,8.527c1.966,3.152,3.684,6.518,4.711,10.24
				c0.504,1.861,0.851,3.798,0.971,5.791C79.299,87.675,79.13,89.716,78.913,91.74z"/>
		</g>
		<g opacity="0.38">
			<path fill="#003F27" d="M68.629,98.196c-0.153-1.666-0.571-3.247-1.103-4.759c-0.514-1.52-1.133-2.981-1.845-4.379
				c-1.429-2.792-3.131-5.384-5.104-7.732c-1.958-2.37-4.163-4.504-6.362-6.669c-1.084-1.098-2.2-2.182-3.112-3.461
				c-0.886-1.268-1.517-2.909-1.058-4.648c-0.214,1.726,0.49,3.179,1.485,4.307c0.961,1.172,2.133,2.175,3.287,3.196
				c2.33,2.025,4.595,4.167,6.588,6.571c1.986,2.412,3.696,5.087,4.975,8.035C67.629,91.595,68.676,94.782,68.629,98.196z"/>
		</g>
		<g opacity="0.38">
			<path fill="#003F27" d="M57.587,104.991c-0.027-1.389-0.529-2.632-1.231-3.723c-0.671-1.112-1.478-2.129-2.328-3.097
				c-1.708-1.93-3.532-3.736-5.396-5.479c-1.846-1.763-3.785-3.395-5.679-5.094c-0.931-0.864-1.901-1.716-2.616-2.815
				c-0.717-1.108-0.869-2.572-0.491-3.944c-0.061,0.686-0.051,1.363,0.095,1.982c0.146,0.62,0.44,1.166,0.822,1.643
				c0.75,0.967,1.759,1.737,2.75,2.521c2.013,1.546,3.993,3.182,5.867,4.944c1.856,1.778,3.678,3.627,5.268,5.723
				c0.788,1.052,1.541,2.149,2.142,3.354C57.366,102.211,57.792,103.597,57.587,104.991z"/>
		</g>
		<g opacity="0.38">
			<path fill="#003F27" d="M46.99,111.264c-0.243-1.071-0.749-2.027-1.372-2.882c-0.599-0.87-1.292-1.665-2.024-2.418
				c-1.471-1.503-3.027-2.905-4.606-4.271c-1.539-1.419-3.214-2.582-4.796-3.991c-0.77-0.713-1.502-1.551-1.86-2.595
				c-0.324-1.054-0.298-2.191-0.043-3.285c-0.03,1.087,0.058,2.168,0.505,3.059c0.415,0.903,1.136,1.602,1.94,2.218
				c0.999,0.732,1.5,1.094,2.507,1.826c0.842,0.625,1.659,1.312,2.447,1.996c1.568,1.396,3.127,2.847,4.493,4.52
				c0.676,0.839,1.323,1.717,1.856,2.679C46.537,109.089,46.971,110.152,46.99,111.264z"/>
		</g>
		<g opacity="0.38">
			<path fill="#003F27" d="M36.165,117.432c-0.884-1.389-1.923-2.621-2.996-3.778c-1.09-1.143-2.253-2.188-3.513-3.093
				c-0.606-0.445-1.314-0.91-1.917-1.451c-0.601-0.546-1.176-1.122-1.646-1.782c-0.952-1.288-1.625-2.869-1.49-4.501
				c0.259,1.564,1.125,2.863,2.106,3.998c0.508,0.56,1.055,1.087,1.654,1.561c0.588,0.493,1.211,0.892,1.892,1.372
				c1.303,0.966,2.492,2.102,3.5,3.397C34.765,114.441,35.624,115.883,36.165,117.432z"/>
		</g>
		<g opacity="0.38">
			<path fill="#003F27" d="M25.508,123.918c-0.713-0.964-1.062-1.446-1.747-2.41c-0.574-0.77-1.142-1.551-1.797-2.118
				c-0.162-0.146-0.311-0.252-0.529-0.399c-0.225-0.161-0.423-0.311-0.616-0.482c-0.378-0.345-0.737-0.696-1.052-1.082
				c-0.637-0.76-1.18-1.578-1.572-2.471c0.84,0.779,1.263,1.168,2.119,1.947c0.361,0.306,0.708,0.624,1.081,0.896
				c0.183,0.138,0.37,0.282,0.545,0.398c0.188,0.119,0.445,0.287,0.648,0.467c0.806,0.738,1.354,1.601,1.824,2.486
				C24.878,122.038,25.259,122.961,25.508,123.918z"/>
		</g>
		<g>
			<path fill="#3A602E" d="M10.312,139.669C21.338,87.64,68.743,53.255,78.021,0.659c1.921,0.792,2.873,1.187,4.768,1.979
				C70.291,54.403,23.077,88.003,10.312,139.669z"/>
			<path fill="#003F27" d="M10.312,139.669c1.553-12.325,6.312-24.026,12.24-34.856c6.631-12.047,14.35-23.396,22.024-34.788
				C59.352,47.938,73.03,27.033,77.491,0.449C77.505,0.27,77.513,0.18,77.525,0c0.215,0.088,0.32,0.132,0.535,0.221
				c1.927,0.791,2.887,1.185,4.787,1.976c0.213,0.088,0.319,0.133,0.531,0.221c-0.027,0.178-0.041,0.267-0.069,0.444
				C76.91,28.984,62.348,49.658,46.921,71.302c-7.992,11.189-16.015,22.341-22.977,34.215
				C17.673,116.08,12.482,127.507,10.312,139.669z M10.312,139.669c1.98-12.213,7.048-23.726,13.216-34.368
				c6.933-11.895,14.913-23.077,22.866-34.297C61.733,49.309,76.169,28.611,82.268,2.415c0.185,0.266,0.276,0.399,0.458,0.666
				c-1.889-0.792-2.838-1.188-4.753-1.98c0.229-0.092,0.343-0.138,0.572-0.23c-4.761,26.524-18.567,47.404-33.434,69.434
				C37.397,81.669,29.637,92.99,22.97,105.017C16.939,115.768,12.048,127.39,10.312,139.669z"/>
		</g>
	</g>
</g>
</svg>
