<svg width="32" height="32" xmlns="http://www.w3.org/2000/svg">
 <!-- Created with SVG-edit - http://svg-edit.googlecode.com/ -->
 <g>
  <title>Layer 1</title>
  <path fill="#e2e28f" stroke="#e2e28f" stroke-width="null" stroke-dasharray="null" stroke-linejoin="null" stroke-linecap="null" id="svg_9" d="m30.55,9.2c0,-0.1 0,-0.2 0,-0.3c0,-0.1 0,-0.2 0,-0.3c0,-0.1 0,-0.2 0,-0.3c0,-0.1 0.02929,-0.12929 0.1,-0.2c0.07071,-0.07071 0,-0.2 0,-0.3c0,-0.1 -0.1,-0.1 -0.1,-0.2c0,-0.1 -0.12929,-0.02929 -0.2,-0.1c-0.07071,-0.07071 -0.10761,-0.06173 -0.2,-0.1c-0.13066,-0.05412 -0.2,-0.1 -0.3,-0.1c-0.1,0 -0.1,-0.1 -0.2,-0.1c-0.1,0 -0.2,-0.1 -0.3,-0.1c-0.1,0 -0.2,0 -0.3,0c-0.1,0 -0.12929,-0.02929 -0.2,-0.1c-0.07071,-0.07071 -0.1,-0.1 -0.1,-0.2c0,-0.1 -0.1,-0.1 -0.1,-0.2c0,-0.1 0,-0.2 0,-0.3c0,-0.1 -0.1,-0.2 -0.1,-0.3c0,-0.1 0,-0.2 0,-0.3c0,-0.1 0,-0.2 0,-0.3c0,-0.1 0,-0.2 0,-0.3c0,-0.1 0.02929,-0.12929 0.1,-0.2c0.07071,-0.07071 0.02929,-0.12929 0.1,-0.2c0.07071,-0.07071 0.02929,-0.12929 0.1,-0.2c0.07071,-0.07071 0.1,-0.1 0.1,-0.2c0,-0.1 0.07071,-0.22929 0,-0.3c-0.07071,-0.07071 -0.12929,-0.02929 -0.2,-0.1c-0.07071,-0.07071 -0.1,-0.1 -0.2,-0.1c-0.1,0 -0.12929,-0.02929 -0.2,-0.1c-0.07071,-0.07071 -0.12929,-0.02929 -0.2,-0.1c-0.07071,-0.07071 -0.1,-0.1 -0.2,-0.1c-0.1,0 -0.12929,-0.02929 -0.2,-0.1c-0.07071,-0.07071 -0.2,0 -0.3,0c-0.1,0 -0.2,0 -0.3,0c-0.1,0 -0.2,0 -0.3,0c-0.1,0 -0.2,0 -0.3,0c-0.1,0 -0.2,0.1 -0.2,0.2c0,0.1 -0.1,0.1 -0.1,0.2c0,0.1 -0.02929,0.22929 -0.1,0.3c-0.07071,0.07071 -0.12929,0.02929 -0.2,0.1c-0.07071,0.07071 -0.2,0 -0.3,0c-0.1,0 -0.2,0 -0.3,0c-0.1,0 -0.2,0 -0.3,0c-0.1,0 -0.2,0 -0.3,0c-0.1,0 -0.16934,-0.04588 -0.3,-0.1c-0.09239,-0.03827 -0.12929,-0.02929 -0.2,-0.1c-0.07071,-0.07071 -0.1,-0.1 -0.2,-0.1c-0.1,0 -0.1,-0.1 -0.2,-0.1c-0.1,0 -0.1,0.1 -0.1,0.2c0,0.1 -0.02929,0.12929 -0.1,0.2c-0.07071,0.07071 -0.06173,0.10761 -0.1,0.2c-0.05412,0.13066 -0.14588,0.16934 -0.2,0.3c-0.03827,0.09239 -0.12929,0.02929 -0.2,0.1c-0.07071,0.07071 -0.1,0.1 -0.2,0.1c-0.1,0 -0.12929,-0.02929 -0.2,-0.1c-0.07071,-0.07071 -0.02929,-0.12929 -0.1,-0.2c-0.07071,-0.07071 -0.06173,-0.10761 -0.1,-0.2c-0.05412,-0.13066 -0.12929,-0.12929 -0.2,-0.2c-0.07071,-0.07071 -0.02929,-0.12929 -0.1,-0.2c-0.07071,-0.07071 -0.02929,-0.12929 -0.1,-0.2c-0.07071,-0.07071 0,-0.2 0,-0.3c0,-0.1 0.07071,-0.22929 0,-0.3c-0.07071,-0.07071 -0.1,-0.1 -0.1,-0.2c0,-0.1 0,-0.2 0,-0.3c0,-0.1 -0.02929,-0.12929 -0.1,-0.2c-0.07071,-0.07071 0,-0.2 -0.1,-0.2c-0.1,0 -0.12929,-0.02929 -0.2,-0.1c-0.07071,-0.07071 0,-0.2 -0.1,-0.2c-0.1,0 -0.12929,-0.02929 -0.2,-0.1c-0.07071,-0.07071 -0.1,-0.1 -0.2,-0.1c-0.1,0 -0.22929,0.07071 -0.3,0c-0.07071,-0.07071 -0.1,-0.1 -0.2,-0.1c-0.1,0 -0.2,0 -0.3,0c-0.1,0 -0.2,0 -0.3,0c-0.1,0 -0.2,0 -0.3,0c-0.1,0 -0.12929,0.02929 -0.2,0.1c-0.07071,0.07071 -0.1,0.1 -0.2,0.1c-0.1,0 -0.2,0.1 -0.3,0.1c-0.1,0 -0.1,0.1 -0.2,0.1c-0.1,0 -0.22929,0.07071 -0.3,0c-0.07071,-0.07071 -0.1,-0.1 -0.1,-0.2c0,-0.1 -0.12929,-0.02929 -0.2,-0.1c-0.07071,-0.07071 -0.02929,-0.12929 -0.1,-0.2c-0.07071,-0.07071 -0.1,-0.1 -0.2,-0.1c-0.1,0 -0.1,-0.1 -0.2,-0.1c-0.1,0 -0.2,0 -0.3,0c-0.1,0 -0.1,0.1 -0.2,0.2c-0.1,0.1 -0.12929,0.12929 -0.2,0.2c-0.07071,0.07071 -0.02929,0.12929 -0.1,0.2c-0.07071,0.07071 -0.02929,0.12929 -0.1,0.2c-0.07071,0.07071 -0.02929,0.12929 -0.1,0.2c-0.07071,0.07071 -0.02929,0.12929 -0.1,0.2c-0.07071,0.07071 -0.2,0 -0.2,0.1c0,0.1 -0.1,0.1 -0.1,0.2c0,0.1 -0.12929,0.02929 -0.2,0.1c-0.07071,0.07071 -0.06173,0.10761 -0.1,0.2c-0.05412,0.13066 -0.12929,0.12929 -0.2,0.2c-0.07071,0.07071 -0.12929,0.02929 -0.2,0.1c-0.07071,0.07071 -0.2,0 -0.2,0.1c0,0.1 -0.02929,0.12929 -0.1,0.2c-0.07071,0.07071 -0.2,0 -0.3,0c-0.1,0 -0.16934,-0.04588 -0.3,-0.1c-0.09239,-0.03827 -0.12929,-0.02929 -0.2,-0.1c-0.07071,-0.07071 -0.1,-0.1 -0.2,-0.1c-0.1,0 -0.12929,-0.02929 -0.2,-0.1c-0.07071,-0.07071 -0.02929,-0.12929 -0.1,-0.2c-0.07071,-0.07071 -0.12929,-0.02929 -0.2,-0.1c-0.07071,-0.07071 0,-0.2 -0.1,-0.2c-0.1,0 -0.12929,-0.02929 -0.2,-0.1c-0.07071,-0.07071 -0.1,-0.1 -0.1,-0.2c0,-0.1 -0.12929,-0.02929 -0.2,-0.1c-0.07071,-0.07071 -0.02929,-0.12929 -0.1,-0.2c-0.07071,-0.07071 -0.12929,-0.02929 -0.2,-0.1c-0.07071,-0.07071 -0.2,0 -0.3,0c-0.1,0 -0.2,0 -0.3,0c-0.1,0 -0.12929,0.02929 -0.2,0.1c-0.07071,0.07071 -0.2,0 -0.3,0c-0.1,0 -0.2,0 -0.3,0c-0.1,0 -0.2,0 -0.3,0c-0.1,0 -0.22929,0.07071 -0.3,0c-0.07071,-0.07071 -0.1,-0.1 -0.2,-0.1c-0.1,0 -0.22929,-0.07071 -0.3,0c-0.07071,0.07071 0,0.2 0,0.3c0,0.1 0.1,0.1 0.1,0.2c0,0.1 0,0.2 0,0.3c0,0.1 0,0.2 0,0.3c0,0.1 -0.1,0.1 -0.2,0.1c-0.1,0 -0.2,0 -0.3,0c-0.1,0 -0.20761,0.03827 -0.3,0c-0.13066,-0.05412 -0.12929,-0.12929 -0.2,-0.2c-0.07071,-0.07071 -0.22929,0.07071 -0.3,0c-0.07071,-0.07071 -0.1,-0.1 -0.2,-0.1c-0.1,0 -0.12929,-0.02929 -0.2,-0.1c-0.07071,-0.07071 -0.12929,-0.02929 -0.2,-0.1c-0.07071,-0.07071 -0.1,-0.1 -0.2,-0.1c-0.1,0 -0.12929,-0.02929 -0.2,-0.1c-0.07071,-0.07071 -0.12929,-0.02929 -0.2,-0.1c-0.07071,-0.07071 -0.1,-0.1 -0.2,-0.1c-0.1,0 -0.12929,-0.02929 -0.2,-0.1c-0.07071,-0.07071 -0.12929,-0.02929 -0.2,-0.1c-0.07071,-0.07071 -0.12929,-0.02929 -0.2,-0.1c-0.07071,-0.07071 -0.2,0 -0.3,0c-0.1,0 -0.2,0 -0.3,0c-0.1,0 -0.2,0 -0.3,0c-0.1,0 -0.2,0 -0.3,0c-0.1,0 -0.2,0 -0.3,0c-0.1,0 -0.22929,0.07071 -0.3,0c-0.07071,-0.07071 -0.1,-0.1 -0.2,-0.1c-0.1,0 -0.2,0 -0.3,0c-0.1,0 -0.1,-0.1 -0.2,-0.1c-0.1,0 -0.22929,-0.07071 -0.3,0c-0.07071,0.07071 0,0.2 0,0.3c0,0.1 0,0.2 0,0.3c0,0.1 0.02929,0.12929 0.1,0.2c0.07071,0.07071 0.02929,0.12929 0.1,0.2c0.07071,0.07071 0,0.2 0,0.3c0,0.1 -0.07071,0.22929 0,0.3c0.07071,0.07071 0.1,0.1 0.1,0.2c0,0.1 -0.00761,0.16173 -0.1,0.2c-0.13066,0.05412 -0.2,0.1 -0.3,0.1c-0.1,0 -0.2,0 -0.3,0c-0.1,0 -0.22929,-0.07071 -0.3,0c-0.07071,0.07071 -0.1,0.1 -0.2,0.1c-0.1,0 -0.12929,0.02929 -0.2,0.1c-0.07071,0.07071 -0.22929,-0.07071 -0.3,0c-0.07071,0.07071 0,0.2 0.1,0.2c0.1,0 0.12929,0.02929 0.2,0.1c0.07071,0.07071 0.1,0.1 0.2,0.1c0.1,0 0.1,0.1 0.2,0.1c0.1,0 0.1,0.1 0.2,0.1c0.1,0 0.10761,0.06173 0.2,0.1c0.13066,0.05412 0.2,0.1 0.2,0.2c0,0.1 0.07071,0.22929 0,0.3c-0.07071,0.07071 -0.12929,0.02929 -0.2,0.1c-0.07071,0.07071 -0.14588,0.16934 -0.2,0.3c-0.03827,0.09239 -0.12929,0.02929 -0.2,0.1c-0.07071,0.07071 -0.02929,0.12929 -0.1,0.2c-0.07071,0.07071 -0.06173,0.10761 -0.1,0.2c-0.05412,0.13066 -0.2,0.1 -0.2,0.2c0,0.1 -0.06173,0.10761 -0.1,0.2c-0.05412,0.13066 -0.2,0.1 -0.2,0.2c0,0.1 -0.02929,0.12929 -0.1,0.2c-0.07071,0.07071 0,0.2 0,0.3c0,0.1 0,0.2 0,0.3c0,0.1 0,0.2 0,0.3c0,0.1 0,0.2 0,0.3c0,0.1 0.07071,0.22929 0,0.3c-0.07071,0.07071 -0.12929,0.02929 -0.2,0.1c-0.07071,0.07071 0.07071,0.22929 0,0.3c-0.07071,0.07071 -0.1,0.1 -0.1,0.2c0,0.1 -0.1,0.1 -0.1,0.2c0,0.1 -0.14588,0.16934 -0.2,0.3c-0.03827,0.09239 -0.02929,0.12929 -0.1,0.2c-0.07071,0.07071 -0.02929,0.12929 -0.1,0.2c-0.07071,0.07071 -0.12929,0.12929 -0.2,0.2c-0.07071,0.07071 -0.12929,0.02929 -0.2,0.1c-0.07071,0.07071 -0.02929,0.22929 -0.1,0.3c-0.07071,0.07071 -0.1,0.1 -0.1,0.2c0,0.1 0,0.2 0,0.3c0,0.1 0.04588,0.16934 0.1,0.3c0.03827,0.09239 0.1,0.1 0.1,0.2c0,0.1 0.02929,0.12929 0.1,0.2c0.07071,0.07071 -0.03827,0.20761 0,0.3c0.05412,0.13066 0.12929,0.12929 0.2,0.2c0.07071,0.07071 0.02929,0.12929 0.1,0.2c0.07071,0.07071 0.02929,0.12929 0.1,0.2c0.07071,0.07071 0,0.2 0,0.3c0,0.1 0,0.2 0,0.3c0,0.1 0.02929,0.12929 0.1,0.2c0.07071,0.07071 0.02929,0.12929 0.1,0.2c0.07071,0.07071 0,0.2 0,0.3c0,0.1 0.02929,0.12929 0.1,0.2c0.07071,0.07071 -0.07071,0.22929 0,0.3c0.07071,0.07071 0.1,0.1 0.1,0.2c0,0.1 0,0.2 0,0.3c0,0.1 0,0.2 0,0.3c0,0.1 0,0.2 0,0.3c0,0.1 0,0.2 0,0.3c0,0.1 0,0.2 0,0.3c0,0.1 0,0.2 0,0.3c0,0.1 0,0.2 0,0.3c0,0.1 0,0.2 0,0.3c0,0.1 0,0.2 0,0.3c0,0.1 -0.02929,0.12929 -0.1,0.2c-0.07071,0.07071 -0.02929,0.12929 -0.1,0.2c-0.07071,0.07071 -0.2,0 -0.2,0.1c0,0.1 -0.06934,0.14588 -0.2,0.2c-0.09239,0.03827 -0.12929,0.02929 -0.2,0.1c-0.07071,0.07071 -0.12929,0.02929 -0.2,0.1c-0.07071,0.07071 -0.07071,0.22929 0,0.3c0.07071,0.07071 0.1,0.1 0.2,0.1c0.1,0 0.12929,0.02929 0.2,0.1c0.07071,0.07071 0.2,0 0.3,0c0.1,0 0.1,0.1 0.2,0.1c0.1,0 0.12929,0.02929 0.2,0.1c0.07071,0.07071 0.2,0 0.3,0c0.1,0 0.16934,0.04588 0.3,0.1c0.09239,0.03827 0.2,0 0.3,0c0.1,0 0.2,0 0.3,0c0.1,0 0.2,0 0.3,0c0.1,0 0.1,0.1 0.2,0.1c0.1,0 0.12929,0.02929 0.2,0.1c0.07071,0.07071 0.04588,0.16934 0.1,0.3c0.03827,0.09239 -0.07071,0.22929 0,0.3c0.07071,0.07071 0.02929,0.12929 0.1,0.2c0.07071,0.07071 0.1,0.1 0.1,0.2c0,0.1 0.06173,0.20761 0.1,0.3c0.05412,0.13066 0.12929,0.12929 0.2,0.2c0.07071,0.07071 0,0.2 0,0.3c0,0.1 0,0.2 0,0.3c0,0.1 0,0.2 0,0.3c0,0.1 0,0.2 0,0.3c0,0.1 0,0.2 0,0.3c0,0.1 0,0.2 0,0.3c0,0.1 0,0.2 0,0.3c0,0.1 0,0.2 0,0.3c0,0.1 0,0.2 0,0.3c0,0.1 0,0.2 0,0.3c0,0.1 0,0.2 0,0.3c0,0.1 0,0.2 0,0.3c0,0.1 0.1,0.1 0.1,0.2c0,0.1 -0.07071,0.22929 0,0.3c0.07071,0.07071 0.02929,0.12929 0.1,0.2c0.07071,0.07071 0.12929,0.02929 0.2,0.1c0.07071,0.07071 0.00761,0.16173 0.1,0.2c0.13066,0.05412 0.22929,0.02929 0.3,0.1c0.07071,0.07071 0.06934,0.14588 0.2,0.2c0.09239,0.03827 0.2,0 0.3,0c0.1,0 0.1,0.1 0.2,0.1c0.1,0 0.22929,-0.07071 0.3,0c0.07071,0.07071 0.1,0.1 0.2,0.1c0.1,0 0.16934,0.04588 0.3,0.1c0.09239,0.03827 0.12929,0.02929 0.2,0.1c0.07071,0.07071 0.2,0 0.3,0c0.1,0 0.2,0 0.2,0.1c0,0.1 0.02929,0.12929 0.1,0.2c0.07071,0.07071 0.1,0.1 0.1,0.2c0,0.1 0.02929,0.12929 0.1,0.2c0.07071,0.07071 0.02929,0.12929 0.1,0.2c0.07071,0.07071 0.02929,0.12929 0.1,0.2c0.07071,0.07071 0.06173,0.10761 0.1,0.2c0.05412,0.13066 0.12929,0.12929 0.2,0.2c0.07071,0.07071 0.02929,0.12929 0.1,0.2c0.07071,0.07071 0.1,0.1 0.1,0.2c0,0.1 0.02929,0.12929 0.1,0.2c0.07071,0.07071 0.02929,0.12929 0.1,0.2c0.07071,0.07071 0.1,0.1 0.2,0.1c0.1,0 0.2,0 0.3,0c0.1,0 0.2,0 0.3,0c0.1,0 0.20761,-0.06173 0.3,-0.1c0.13066,-0.05412 0.2,-0.1 0.2,-0.2c0,-0.1 0.02929,-0.12929 0.1,-0.2c0.07071,-0.07071 0.12929,-0.02929 0.2,-0.1c0.07071,-0.07071 0.02929,-0.12929 0.1,-0.2c0.07071,-0.07071 0.10761,-0.06173 0.2,-0.1c0.13066,-0.05412 0.1,-0.2 0.2,-0.2c0.1,0 0.1,-0.1 0.2,-0.1c0.1,0 0.1,-0.1 0.2,-0.1c0.1,0 0.2,0 0.3,0c0.1,0 0.12929,0.02929 0.2,0.1c0.07071,0.07071 0.2,0 0.2,0.1c0,0.1 0.12929,0.02929 0.2,0.1c0.07071,0.07071 0.12929,0.02929 0.2,0.1c0.07071,0.07071 0.06934,0.14588 0.2,0.2c0.09239,0.03827 0.2,0 0.3,0c0.1,0 0.22929,0.07071 0.3,0c0.07071,-0.07071 0.1,-0.1 0.2,-0.1c0.1,0 0.12929,0.02929 0.2,0.1c0.07071,0.07071 0.12929,0.02929 0.2,0.1c0.07071,0.07071 0.06173,0.10761 0.1,0.2c0.05412,0.13066 0.12929,0.12929 0.2,0.2c0.07071,0.07071 0.02929,0.12929 0.1,0.2c0.07071,0.07071 0.20761,0.06173 0.3,0.1c0.13066,0.05412 0.16934,0.14588 0.3,0.2c0.09239,0.03827 0.1,0.1 0.2,0.1c0.1,0 0.20761,-0.03827 0.3,0c0.13066,0.05412 0.2,0.1 0.3,0.1c0.1,0 0.2,0 0.3,0c0.1,0 0.2,0 0.3,0c0.1,0 0.2,0 0.3,0c0.1,0 0.22929,0.07071 0.3,0c0.07071,-0.07071 0.02929,-0.12929 0.1,-0.2c0.07071,-0.07071 0.2,0 0.2,-0.1c0,-0.1 0.02929,-0.12929 0.1,-0.2c0.07071,-0.07071 0.1,-0.1 0.1,-0.2c0,-0.1 0.1,-0.1 0.1,-0.2c0,-0.1 0.1,-0.2 0.1,-0.3c0,-0.1 0.02929,-0.12929 0.1,-0.2c0.07071,-0.07071 0.02929,-0.12929 0.1,-0.2c0.07071,-0.07071 0.02929,-0.12929 0.1,-0.2c0.07071,-0.07071 0.2,0 0.2,-0.1c0,-0.1 0.06934,-0.14588 0.2,-0.2c0.09239,-0.03827 0.2,0 0.3,0c0.1,0 0.2,0 0.3,0c0.1,0 0.22929,-0.07071 0.3,0c0.07071,0.07071 0.02929,0.12929 0.1,0.2c0.07071,0.07071 0.12929,0.02929 0.2,0.1c0.07071,0.07071 0.12929,0.02929 0.2,0.1c0.07071,0.07071 0.2,0 0.2,0.1c0,0.1 0.12929,0.02929 0.2,0.1c0.07071,0.07071 0.02929,0.12929 0.1,0.2c0.07071,0.07071 0.12929,0.02929 0.2,0.1c0.07071,0.07071 0.02929,0.12929 0.1,0.2c0.07071,0.07071 0.02929,0.12929 0.1,0.2c0.07071,0.07071 0.12929,0.02929 0.2,0.1c0.07071,0.07071 0,0.2 0.1,0.2c0.1,0 0.10761,0.06173 0.2,0.1c0.13066,0.05412 0.22929,0.02929 0.3,0.1c0.07071,0.07071 0.02929,0.12929 0.1,0.2c0.07071,0.07071 0.20761,-0.03827 0.3,0c0.13066,0.05412 0.22929,0.02929 0.3,0.1c0.07071,0.07071 0.02929,0.12929 0.1,0.2c0.07071,0.07071 0.12929,0.02929 0.2,0.1c0.07071,0.07071 0.16934,0.04588 0.3,0.1c0.09239,0.03827 0.22929,0.02929 0.3,0.1c0.07071,0.07071 0.1,0.1 0.2,0.1c0.1,0 0.1,0.1 0.2,0.1c0.1,0 0.12929,0.02929 0.2,0.1c0.07071,0.07071 0,0.2 0.1,0.2c0.1,0 0.12929,0.02929 0.2,0.1c0.07071,0.07071 0.12929,0.02929 0.2,0.1c0.07071,0.07071 0.1,0.1 0.2,0.1c0.1,0 0.2,0 0.3,0c0.1,0 0.2,0 0.3,0c0.1,0 0.1,-0.1 0.2,-0.1c0.1,0 0.2,0 0.3,0c0.1,0 0.2,0 0.3,0c0.1,0 0.2,0 0.3,0c0.1,0 0.2,0 0.3,0c0.1,0 0.2,0 0.3,0c0.1,0 0.1,-0.1 0.2,-0.1c0.1,0 0.1,-0.1 0.1,-0.2c0,-0.1 0.1,-0.1 0.1,-0.2c0,-0.1 0,-0.2 0,-0.3c0,-0.1 0,-0.2 0,-0.3c0,-0.1 0.07071,-0.22929 0,-0.3c-0.07071,-0.07071 -0.12929,-0.02929 -0.2,-0.1c-0.07071,-0.07071 -0.07071,-0.22929 0,-0.3c0.07071,-0.07071 0.12929,-0.02929 0.2,-0.1c0.07071,-0.07071 0.22929,0.07071 0.3,0c0.07071,-0.07071 0.06934,-0.14588 0.2,-0.2c0.09239,-0.03827 0.12929,-0.02929 0.2,-0.1c0.07071,-0.07071 0.22929,0.07071 0.3,0c0.07071,-0.07071 0.1,-0.1 0.1,-0.2c0,-0.1 0.06173,-0.10761 0.1,-0.2c0.05412,-0.13066 0.12929,-0.12929 0.2,-0.2c0.07071,-0.07071 -0.07071,-0.22929 0,-0.3c0.07071,-0.07071 0.02929,-0.12929 0.1,-0.2c0.07071,-0.07071 0.2,0 0.2,-0.1c0,-0.1 0.02929,-0.12929 0.1,-0.2c0.07071,-0.07071 0.14588,-0.06934 0.2,-0.2c0.03827,-0.09239 0.02929,-0.12929 0.1,-0.2c0.07071,-0.07071 0.02929,-0.12929 0.1,-0.2c0.07071,-0.07071 0.12929,-0.12929 0.2,-0.2c0.07071,-0.07071 0.02929,-0.12929 0.1,-0.2c0.07071,-0.07071 0.12929,-0.02929 0.2,-0.1c0.07071,-0.07071 0.02929,-0.12929 0.1,-0.2c0.07071,-0.07071 0.04588,-0.16934 0.1,-0.3c0.03827,-0.09239 0,-0.2 0,-0.3c0,-0.1 0,-0.2 0,-0.3c0,-0.1 0.07071,-0.22929 0,-0.3c-0.07071,-0.07071 -0.02929,-0.12929 -0.1,-0.2c-0.07071,-0.07071 -0.06173,-0.10761 -0.1,-0.2c-0.05412,-0.13066 -0.1,-0.2 -0.1,-0.3c0,-0.1 -0.02929,-0.12929 -0.1,-0.2c-0.07071,-0.07071 -0.02929,-0.12929 -0.1,-0.2c-0.07071,-0.07071 -0.02929,-0.12929 -0.1,-0.2c-0.07071,-0.07071 -0.12929,-0.02929 -0.2,-0.1c-0.07071,-0.07071 -0.02929,-0.12929 -0.1,-0.2c-0.07071,-0.07071 0,-0.2 0,-0.3c0,-0.1 0.1,-0.1 0.1,-0.2c0,-0.1 0.1,-0.1 0.1,-0.2c0,-0.1 0.12929,-0.02929 0.2,-0.1c0.07071,-0.07071 0.1,-0.1 0.1,-0.2c0,-0.1 0.02929,-0.12929 0.1,-0.2c0.07071,-0.07071 0.12929,-0.02929 0.2,-0.1c0.07071,-0.07071 0.02929,-0.12929 0.1,-0.2c0.07071,-0.07071 0.06173,-0.10761 0.1,-0.2c0.05412,-0.13066 0.14588,-0.16934 0.2,-0.3c0.03827,-0.09239 0.06173,-0.20761 0.1,-0.3c0.05412,-0.13066 0.12929,-0.12929 0.2,-0.2c0.07071,-0.07071 0,-0.2 0,-0.3c0,-0.1 0,-0.2 0,-0.3c0,-0.1 -0.02929,-0.22929 -0.1,-0.3c-0.07071,-0.07071 -0.02929,-0.12929 -0.1,-0.2c-0.07071,-0.07071 -0.12929,-0.02929 -0.2,-0.1c-0.07071,-0.07071 -0.02929,-0.12929 -0.1,-0.2c-0.07071,-0.07071 -0.06934,-0.14588 -0.2,-0.2c-0.09239,-0.03827 -0.1,-0.1 -0.1,-0.2c0,-0.1 0,-0.2 0,-0.3c0,-0.1 0,-0.2 0,-0.3c0,-0.1 0,-0.2 0,-0.3c0,-0.1 0,-0.2 0,-0.3c0,-0.1 0,-0.2 0,-0.3c0,-0.1 0,-0.2 0,-0.3c0,-0.1 0.07071,-0.22929 0,-0.3c-0.07071,-0.07071 -0.12929,-0.02929 -0.2,-0.1c-0.07071,-0.07071 -0.12929,-0.02929 -0.2,-0.1c-0.07071,-0.07071 -0.02929,-0.12929 -0.1,-0.2c-0.07071,-0.07071 -0.2,0 -0.2,-0.1c0,-0.1 -0.1,-0.1 -0.1,-0.2c0,-0.1 0,-0.2 0,-0.3c0,-0.1 -0.1,-0.2 -0.1,-0.3c0,-0.1 0,-0.2 0,-0.3c0,-0.1 0,-0.2 0,-0.3c0,-0.1 0,-0.2 0,-0.3c0,-0.1 0,-0.2 0,-0.3c0,-0.1 0,-0.2 0,-0.3c0,-0.1 0,-0.2 0,-0.3c0,-0.1 0.1,-0.1 0.1,-0.2c0,-0.1 0.02929,-0.12929 0.1,-0.2c0.07071,-0.07071 0.1,-0.2 0.1,-0.3c0,-0.1 0.02929,-0.12929 0.1,-0.2c0.07071,-0.07071 0.12929,-0.02929 0.2,-0.1c0.07071,-0.07071 0.02929,-0.22929 0.1,-0.3c0.07071,-0.07071 0.06934,-0.14588 0.2,-0.2c0.09239,-0.03827 0.14588,-0.06934 0.2,-0.2c0.03827,-0.09239 0.02929,-0.12929 0.1,-0.2c0.07071,-0.07071 0.02929,-0.12929 0.1,-0.2c0.07071,-0.07071 0.02929,-0.12929 0.1,-0.2c0.07071,-0.07071 0.02929,-0.12929 0.1,-0.2c0.07071,-0.07071 0.12929,-0.02929 0.2,-0.1c0.07071,-0.07071 0,-0.2 0,-0.3c0,-0.1 0.1,-0.1 0.1,-0.2c0,-0.1 0,-0.2 0,-0.3c0,-0.1 0.03827,-0.20761 0,-0.3c-0.05412,-0.13066 -0.2,-0.1 -0.2,-0.2c0,-0.1 0,-0.2 0,-0.3l0,-0.1l-0.4,0.3z"/>
 </g>
</svg>