<?xml version="1.0" encoding="utf-8"?>
<!-- Generator: Adobe Illustrator 15.0.0, SVG Export Plug-In . SVG Version: 6.00 Build 0)  -->
<!DOCTYPE svg PUBLIC "-//W3C//DTD SVG 1.1//EN" "http://www.w3.org/Graphics/SVG/1.1/DTD/svg11.dtd">
<svg version="1.1" id="Layer_1" xmlns="http://www.w3.org/2000/svg" xmlns:xlink="http://www.w3.org/1999/xlink" x="0px" y="0px"
	 width="141.5px" height="61.333px" viewBox="47.667 11.156 141.5 61.333" enable-background="new 47.667 11.156 141.5 61.333"
	 xml:space="preserve">
<path fill-opacity="0" stroke="#000000" d="M132.309,32.937l1.262-0.06l1.263-0.071l1.263-0.083l1.262-0.098l1.264-0.114
	l1.262-0.134l1.263-0.158l1.263-0.185l1.262-0.217l1.264-0.251l1.262-0.291l1.263-0.334l1.263-0.376l1.262-0.417l1.264-0.45
	l1.262-0.469l1.263-0.467l1.263-0.438l1.262-0.377l1.264-0.289l1.262-0.18l1.263-0.064l1.263,0.046l1.262,0.14l1.264,0.21
	l1.262,0.259l1.263,0.286l1.263,0.296l1.262,0.293l1.264,0.284l1.262,0.269l1.263,0.25l1.263,0.232l1.262,0.213l1.264,0.194
	l1.262,0.179l1.263,0.163l1.263,0.148l1.262,0.136"/>
<path fill-opacity="0" stroke="#000000" d="M54.084,30.423l1.263,1.579l1.262-3.959l1.263,4.104l1.263-1.502l1.263-2.625
	l1.263,5.791l1.262-5.654l1.263,1.618l1.263,4.397l1.263-8.703l1.263,7.962l1.262-1.571l1.263-7.285l1.263,12.995l1.263-10.956
	l1.263,1.118l1.262,11.027l1.263-17.448l1.263,13.119l1.263-0.143l1.263-13.177l1.262,18.131l1.263-11.854l1.263-0.917l1.263,11.685
	l1.263-14.212l1.262,8.191l1.263,1.506l1.263-8.668l1.263,9.649l1.263-5.002l1.262-1.63l1.263,6.152l1.263-6.399l1.263,2.984
	l1.263,1.538l1.262-4.435l1.263,4.341l1.263-1.792"/>
<text transform="matrix(1 0 0 1 55.0156 65.823)" font-family="'Lato-Regular'" font-size="14">Sunlight</text>
<text transform="matrix(1 0 0 1 133.2178 65.823)" font-family="'Lato-Regular'" font-size="14">Infrared</text>
</svg>
