<?xml version="1.0" encoding="utf-8"?>
<!-- Generator: Adobe Illustrator 15.0.2, SVG Export Plug-In . SVG Version: 6.00 Build 0)  -->
<!DOCTYPE svg PUBLIC "-//W3C//DTD SVG 1.1//EN" "http://www.w3.org/Graphics/SVG/1.1/DTD/svg11.dtd">
<svg version="1.1" id="Layer_1" xmlns="http://www.w3.org/2000/svg" xmlns:xlink="http://www.w3.org/1999/xlink" x="0px" y="0px"
	 width="406.096px" height="26.699px" viewBox="0 0.121 406.096 26.699" enable-background="new 0 0.121 406.096 26.699"
	 xml:space="preserve">
<line fill="none" stroke="#B30000" stroke-width="2.1048" stroke-miterlimit="10" x1="0" y1="1.174" x2="403.167" y2="1.174"/>
<line fill="none" stroke="#B30000" stroke-width="2" stroke-miterlimit="10" x1="27.372" y1="1.174" x2="27.372" y2="5.323"/>
<line fill="none" stroke="#B30000" stroke-width="2" stroke-miterlimit="10" x1="77.247" y1="1.174" x2="77.247" y2="5.323"/>
<line fill="none" stroke="#B30000" stroke-width="2" stroke-miterlimit="10" x1="127.122" y1="1.174" x2="127.122" y2="5.323"/>
<line fill="none" stroke="#B30000" stroke-width="2" stroke-miterlimit="10" x1="176.996" y1="1.174" x2="176.996" y2="5.323"/>
<line fill="none" stroke="#B30000" stroke-width="2" stroke-miterlimit="10" x1="227.524" y1="1.174" x2="227.524" y2="5.323"/>
<line fill="none" stroke="#B30000" stroke-width="2" stroke-miterlimit="10" x1="277.617" y1="1.174" x2="277.617" y2="5.323"/>
<line fill="none" stroke="#B30000" stroke-width="2" stroke-miterlimit="10" x1="327.49" y1="1.174" x2="327.492" y2="5.323"/>
<line fill="none" stroke="#B30000" stroke-width="2" stroke-miterlimit="10" x1="52.418" y1="1.174" x2="52.418" y2="9.896"/>
<line fill="none" stroke="#B30000" stroke-width="2" stroke-miterlimit="10" x1="102.511" y1="1.174" x2="102.511" y2="9.896"/>
<line fill="none" stroke="#B30000" stroke-width="2" stroke-miterlimit="10" x1="202.479" y1="1.174" x2="202.479" y2="9.896"/>
<line fill="none" stroke="#B30000" stroke-width="2" stroke-miterlimit="10" x1="152.167" y1="1.174" x2="152.167" y2="9.896"/>
<line fill="none" stroke="#B30000" stroke-width="2" stroke-miterlimit="10" x1="252.353" y1="1.174" x2="252.353" y2="9.896"/>
<line fill="none" stroke="#B30000" stroke-width="2" stroke-miterlimit="10" x1="302.662" y1="1.183" x2="302.664" y2="9.905"/>
<line fill="none" stroke="#B30000" stroke-width="2" stroke-miterlimit="10" x1="352.102" y1="1.166" x2="352.104" y2="9.888"/>
<line fill="none" stroke="#B30000" stroke-width="2" stroke-miterlimit="10" x1="376.93" y1="1.174" x2="376.932" y2="5.323"/>
<line fill="none" stroke="#B30000" stroke-width="2" stroke-miterlimit="10" x1="401.541" y1="1.166" x2="401.543" y2="9.888"/>
<text transform="matrix(1 0 0 1 48.498 23.1814)" fill="#B30000" font-family="'Verdana-Bold'" font-size="12">1</text>
<text transform="matrix(1 0 0 1 98.3726 23.1814)" fill="#B30000" font-family="'Verdana-Bold'" font-size="12">2</text>
<text transform="matrix(1 0 0 1 148.4653 23.1814)" fill="#B30000" font-family="'Verdana-Bold'" font-size="12">3</text>
<text transform="matrix(1 0 0 1 197.9048 23.1814)" fill="#B30000" font-family="'Verdana-Bold'" font-size="12">4</text>
<text transform="matrix(1 0 0 1 248.4331 23.1814)" fill="#B30000" font-family="'Verdana-Bold'" font-size="12">5</text>
<text transform="matrix(1 0 0 1 298.7441 23.1814)" fill="#B30000" font-family="'Verdana-Bold'" font-size="12">6</text>
<text transform="matrix(1 0 0 1 348.8359 23.1814)" fill="#B30000" font-family="'Verdana-Bold'" font-size="12">7</text>
<text transform="matrix(1 0 0 1 397.5645 23.1814)" fill="#B30000" font-family="'Verdana-Bold'" font-size="12">8</text>
</svg>
