<?xml version="1.0" encoding="utf-8"?>
<!-- Generator: Adobe Illustrator 12.0.0, SVG Export Plug-In . SVG Version: 6.00 Build 51448)  -->
<!DOCTYPE svg PUBLIC "-//W3C//DTD SVG 1.1//EN" "http://www.w3.org/Graphics/SVG/1.1/DTD/svg11.dtd" [
	<!ENTITY ns_svg "http://www.w3.org/2000/svg">
	<!ENTITY ns_xlink "http://www.w3.org/1999/xlink">
]>
<svg  version="1.1" xmlns="&ns_svg;" xmlns:xlink="&ns_xlink;" width="64.672" height="276.826" viewBox="0 0 64.672 276.826"
	 overflow="visible" enable-background="new 0 0 64.672 276.826" xml:space="preserve">
<g id="Tails">
	<path fill="#FFBF00" stroke="#8B5C29" d="M7.761,17.026c-0.31-0.681,1.391-1.834,3.778-2.563c2.387-0.73,6.234-1.157,8.547-0.949
		c2.313,0.207,6.345,0.009,8.963-0.441c2.615-0.449,4.861-0.224,4.99,0.502s-1.978,1.699-4.68,2.163
		c-2.703,0.463-6.82,0.656-9.148,0.427c-2.33-0.229-5.956,0.15-8.061,0.841C10.045,17.697,8.07,17.706,7.761,17.026z"/>
	<path fill="#FFBF00" stroke="#8B5C29" d="M32.297,21.707c0.287-0.681-1.234-1.831-3.382-2.557
		c-2.146-0.726-5.613-1.147-7.703-0.935c-2.089,0.21-5.728,0.018-8.085-0.427c-2.356-0.445-4.387-0.217-4.511,0.51
		c-0.125,0.726,1.765,1.694,4.199,2.154c2.435,0.458,6.148,0.645,8.253,0.413c2.105-0.232,5.375,0.142,7.267,0.829
		C30.227,22.381,32.01,22.387,32.297,21.707z"/>
	<path fill="#FFBF00" stroke="#8B5C29" d="M7.761,8.151c-0.31-0.681,1.391-1.834,3.778-2.563c2.387-0.73,6.234-1.157,8.547-0.949
		c2.313,0.207,6.345,0.009,8.963-0.441c2.615-0.449,4.861-0.224,4.99,0.502s-1.978,1.699-4.68,2.163
		c-2.703,0.463-6.82,0.656-9.148,0.427c-2.33-0.229-5.956,0.15-8.061,0.841C10.045,8.822,8.07,8.831,7.761,8.151z"/>
	<path fill="#FFBF00" stroke="#8B5C29" d="M32.297,12.832c0.287-0.681-1.234-1.831-3.382-2.557
		c-2.146-0.726-5.613-1.147-7.703-0.935c-2.089,0.21-5.728,0.018-8.085-0.427c-2.356-0.445-4.387-0.217-4.511,0.51
		c-0.125,0.726,1.765,1.694,4.199,2.154c2.435,0.458,6.148,0.645,8.253,0.413c2.105-0.232,5.375,0.142,7.267,0.829
		C30.227,13.506,32.01,13.512,32.297,12.832z"/>
	<path fill="#FFBF00" stroke="#8B5C29" d="M7.067,28.89c-0.329-0.676,1.487-1.86,4.035-2.632c2.547-0.771,6.65-1.266,9.116-1.098
		c2.466,0.167,6.767-0.102,9.56-0.598c2.791-0.495,5.187-0.308,5.321,0.417c0.137,0.724-2.112,1.734-4.994,2.245
		c-2.885,0.511-7.275,0.776-9.759,0.587s-6.354,0.254-8.599,0.982C9.503,29.522,7.396,29.566,7.067,28.89z"/>
	<path fill="#FFBF00" stroke="#8B5C29" d="M8.778,30.067c-0.287,0.681,1.233,1.831,3.381,2.557s5.614,1.147,7.703,0.935
		c2.09-0.21,5.729-0.018,8.086,0.427c2.356,0.445,4.387,0.217,4.511-0.51c0.125-0.726-1.766-1.694-4.199-2.154
		c-2.435-0.458-6.148-0.645-8.253-0.413c-2.105,0.232-5.375-0.142-7.268-0.829C10.848,29.392,9.064,29.387,8.778,30.067z"/>
	<path fill="#FFBF00" stroke="#8B5C29" d="M35.468,44.939c0.221,0.742-1.743,1.473-4.361,1.624c-2.618,0.152-6.722-0.339-9.117-1.09
		c-2.395-0.75-6.658-1.51-9.477-1.687c-2.815-0.178-5.138-0.931-5.16-1.675c-0.023-0.744,2.338-1.2,5.246-1.016
		c2.909,0.185,7.26,0.968,9.67,1.744c2.409,0.776,6.275,1.262,8.59,1.082C33.175,43.741,35.248,44.198,35.468,44.939z"/>
	<path fill="#FFBF00" stroke="#8B5C29" d="M7.442,40.207c-0.287-0.681,1.233-1.831,3.381-2.557s5.614-1.147,7.703-0.935
		c2.09,0.21,5.729,0.018,8.086-0.427c2.356-0.445,4.387-0.217,4.511,0.51c0.125,0.726-1.765,1.694-4.199,2.154
		c-2.435,0.458-6.148,0.645-8.253,0.413c-2.105-0.232-5.375,0.142-7.267,0.829C9.513,40.881,7.729,40.887,7.442,40.207z"/>
	<path fill="#FFBF00" stroke="#8B5C29" d="M31.006,53.942c0.178,0.746-1.293,1.429-3.266,1.517c-1.973,0.089-5.075-0.5-6.894-1.307
		c-1.817-0.807-5.045-1.667-7.174-1.911c-2.127-0.246-3.89-1.053-3.918-1.796c-0.029-0.743,1.745-1.143,3.941-0.889
		c2.196,0.254,5.491,1.141,7.32,1.973s4.754,1.41,6.497,1.286C29.257,52.69,30.827,53.196,31.006,53.942z"/>
	<path fill="#FFBF00" stroke="#8B5C29" d="M8.056,49.482c-0.286-0.714,1.475-1.686,3.916-2.161c2.441-0.476,6.345-0.494,8.673-0.04
		c2.33,0.453,6.414,0.683,9.076,0.512c2.661-0.171,4.923,0.292,5.025,1.033c0.104,0.739-2.063,1.487-4.812,1.665
		c-2.75,0.175-6.918-0.07-9.263-0.545c-2.346-0.477-6.026-0.483-8.18-0.017C10.34,50.397,8.342,50.195,8.056,49.482z"/>
	<path fill="#FFBF00" stroke="#8B5C29" d="M8.295,59.526c-0.31-0.681,1.391-1.834,3.778-2.563c2.387-0.73,6.233-1.157,8.546-0.949
		c2.313,0.207,6.346,0.009,8.964-0.441c2.615-0.449,4.861-0.224,4.99,0.502s-1.978,1.699-4.681,2.163
		c-2.702,0.463-6.819,0.656-9.147,0.427c-2.33-0.229-5.956,0.15-8.061,0.841C10.579,60.197,8.604,60.206,8.295,59.526z"/>
	<path fill="#FFBF00" stroke="#8B5C29" d="M32.831,64.207c0.287-0.681-1.234-1.831-3.382-2.557
		c-2.146-0.726-5.613-1.147-7.703-0.935c-2.089,0.21-5.729,0.018-8.085-0.427s-4.387-0.217-4.511,0.51
		c-0.125,0.726,1.765,1.694,4.199,2.154c2.435,0.458,6.148,0.645,8.253,0.413c2.105-0.232,5.375,0.142,7.267,0.829
		C30.761,64.881,32.544,64.887,32.831,64.207z"/>
	<path fill="#FFBF00" stroke="#8B5C29" d="M7.506,70.176c-0.29-0.703,1.587-1.727,4.172-2.276c2.584-0.549,6.704-0.688,9.155-0.307
		c2.45,0.38,6.756,0.484,9.57,0.23c2.812-0.252,5.19,0.142,5.285,0.876c0.097,0.734-2.203,1.547-5.107,1.808
		c-2.906,0.26-7.3,0.145-9.768-0.258s-6.352-0.296-8.632,0.236S7.797,70.879,7.506,70.176z"/>
	<path fill="#FFBF00" stroke="#8B5C29" d="M9.313,72.567c-0.287,0.681,1.233,1.831,3.381,2.557c2.146,0.726,5.613,1.147,7.703,0.935
		c2.09-0.21,5.729-0.018,8.086,0.427c2.356,0.445,4.387,0.217,4.511-0.51c0.125-0.726-1.766-1.694-4.199-2.154
		c-2.435-0.458-6.148-0.645-8.253-0.413c-2.105,0.232-5.375-0.142-7.268-0.829C11.382,71.892,9.599,71.887,9.313,72.567z"/>
	<path fill="#FFBF00" stroke="#8B5C29" d="M36.391,86.208c0.22,0.742-1.743,1.473-4.362,1.624c-2.618,0.152-6.722-0.339-9.116-1.09
		c-2.396-0.75-6.659-1.51-9.478-1.687c-2.815-0.178-5.138-0.931-5.16-1.675c-0.023-0.744,2.338-1.2,5.246-1.016
		c2.909,0.185,7.26,0.968,9.67,1.744c2.409,0.776,6.275,1.262,8.591,1.082C34.097,85.01,36.17,85.467,36.391,86.208z"/>
	<path fill="#FFBF00" stroke="#8B5C29" d="M7.977,82.707c-0.287-0.681,1.233-1.831,3.381-2.557s5.614-1.147,7.703-0.935
		c2.09,0.21,5.729,0.018,8.086-0.427c2.356-0.445,4.387-0.217,4.511,0.51c0.125,0.726-1.765,1.694-4.199,2.154
		c-2.435,0.458-6.148,0.645-8.253,0.413c-2.105-0.232-5.375,0.142-7.267,0.829C10.046,83.381,8.264,83.387,7.977,82.707z"/>
	<path fill="#FFBF00" stroke="#8B5C29" d="M31.54,96.442c0.178,0.746-1.293,1.429-3.266,1.517c-1.973,0.089-5.075-0.5-6.894-1.307
		c-1.817-0.807-5.045-1.667-7.174-1.911c-2.127-0.246-3.89-1.053-3.918-1.796c-0.029-0.743,1.745-1.143,3.941-0.889
		c2.196,0.254,5.491,1.141,7.32,1.973s4.754,1.41,6.497,1.286C29.791,95.19,31.361,95.696,31.54,96.442z"/>
	<path fill="#FFBF00" stroke="#8B5C29" d="M8.59,91.982c-0.287-0.714,1.475-1.686,3.916-2.161c2.441-0.476,6.345-0.494,8.673-0.04
		c2.33,0.453,6.414,0.683,9.075,0.512c2.662-0.171,4.924,0.292,5.025,1.033c0.104,0.739-2.062,1.487-4.811,1.665
		c-2.75,0.175-6.918-0.07-9.263-0.545c-2.346-0.477-6.026-0.483-8.18-0.017C10.874,92.897,8.876,92.695,8.59,91.982z"/>
	<path fill="#FFBF00" stroke="#8B5C29" d="M8.562,99.526c-0.31-0.681,1.391-1.834,3.778-2.563c2.387-0.73,6.234-1.157,8.547-0.949
		c2.313,0.207,6.345,0.009,8.963-0.441c2.615-0.449,4.861-0.224,4.99,0.502c0.13,0.726-1.978,1.699-4.68,2.163
		c-2.703,0.463-6.82,0.656-9.148,0.427c-2.33-0.229-5.956,0.15-8.061,0.841C10.846,100.197,8.871,100.206,8.562,99.526z"/>
	<path fill="#FFBF00" stroke="#8B5C29" d="M33.098,104.207c0.287-0.681-1.233-1.831-3.381-2.557s-5.614-1.147-7.703-0.935
		c-2.09,0.21-5.729,0.018-8.086-0.427c-2.356-0.445-4.387-0.217-4.511,0.51c-0.125,0.726,1.765,1.694,4.199,2.154
		c2.435,0.458,6.148,0.645,8.253,0.413c2.105-0.232,5.375,0.142,7.267,0.829C31.027,104.881,32.811,104.887,33.098,104.207z"/>
	<path fill="#FFBF00" stroke="#8B5C29" d="M7.868,111.39c-0.329-0.676,1.487-1.86,4.035-2.632c2.547-0.771,6.65-1.266,9.116-1.098
		c2.466,0.167,6.767-0.102,9.56-0.598c2.791-0.495,5.187-0.308,5.321,0.417c0.137,0.724-2.112,1.734-4.994,2.245
		c-2.885,0.511-7.275,0.776-9.759,0.587s-6.354,0.254-8.599,0.982C10.304,112.022,8.197,112.066,7.868,111.39z"/>
	<path fill="#FFBF00" stroke="#8B5C29" d="M9.579,112.567c-0.287,0.681,1.233,1.831,3.381,2.557s5.614,1.147,7.703,0.935
		c2.09-0.21,5.729-0.018,8.086,0.427c2.356,0.445,4.387,0.217,4.511-0.51c0.125-0.726-1.765-1.694-4.199-2.154
		c-2.435-0.458-6.148-0.645-8.253-0.413c-2.105,0.232-5.375-0.142-7.267-0.829C11.648,111.892,9.865,111.887,9.579,112.567z"/>
	<path fill="#FFBF00" stroke="#8B5C29" d="M36.27,127.439c0.22,0.742-1.744,1.474-4.362,1.624c-2.618,0.152-6.722-0.339-9.116-1.09
		c-2.396-0.75-6.659-1.51-9.478-1.687c-2.815-0.178-5.138-0.931-5.16-1.675c-0.023-0.744,2.338-1.2,5.246-1.016
		c2.909,0.185,7.26,0.968,9.67,1.744c2.409,0.776,6.275,1.262,8.591,1.082C33.976,126.241,36.049,126.698,36.27,127.439z"/>
	<path fill="#FFBF00" stroke="#8B5C29" d="M8.243,122.707c-0.287-0.681,1.233-1.831,3.382-2.557
		c2.146-0.726,5.613-1.147,7.703-0.935c2.089,0.21,5.728,0.018,8.085-0.427c2.356-0.445,4.387-0.217,4.511,0.51
		c0.125,0.726-1.765,1.694-4.199,2.154c-2.435,0.458-6.148,0.645-8.253,0.413c-2.105-0.232-5.375,0.142-7.267,0.829
		C10.313,123.381,8.53,123.387,8.243,122.707z"/>
	<path fill="#FFBF00" stroke="#8B5C29" d="M31.807,136.442c0.178,0.746-1.293,1.429-3.266,1.517
		c-1.973,0.089-5.075-0.499-6.893-1.307c-1.818-0.807-5.046-1.667-7.175-1.911c-2.127-0.246-3.89-1.053-3.918-1.796
		c-0.029-0.743,1.745-1.143,3.941-0.89c2.196,0.254,5.491,1.141,7.32,1.974s4.754,1.41,6.497,1.286
		C30.058,135.19,31.628,135.696,31.807,136.442z"/>
	<path fill="#FFBF00" stroke="#8B5C29" d="M8.856,131.982c-0.286-0.714,1.475-1.687,3.916-2.161c2.441-0.476,6.345-0.494,8.673-0.04
		c2.33,0.453,6.414,0.683,9.076,0.513c2.661-0.172,4.923,0.292,5.025,1.032c0.104,0.739-2.063,1.487-4.812,1.665
		c-2.75,0.175-6.918-0.07-9.263-0.546c-2.346-0.477-6.026-0.483-8.18-0.017C11.141,132.897,9.144,132.694,8.856,131.982z"/>
	<path fill="#FFBF00" stroke="#8B5C29" d="M9.096,142.026c-0.31-0.682,1.391-1.834,3.778-2.564c2.387-0.729,6.233-1.156,8.546-0.948
		c2.313,0.207,6.346,0.009,8.964-0.44c2.615-0.449,4.861-0.225,4.99,0.502c0.13,0.727-1.978,1.699-4.681,2.162
		c-2.702,0.463-6.819,0.656-9.147,0.428c-2.33-0.229-5.956,0.15-8.061,0.842C11.38,142.697,9.405,142.706,9.096,142.026z"/>
	<path fill="#FFBF00" stroke="#8B5C29" d="M33.632,146.706c0.287-0.68-1.234-1.83-3.382-2.557c-2.146-0.725-5.613-1.146-7.703-0.935
		c-2.089,0.21-5.729,0.019-8.085-0.427s-4.387-0.217-4.511,0.51c-0.125,0.725,1.765,1.693,4.199,2.154
		c2.435,0.458,6.148,0.645,8.253,0.412c2.105-0.231,5.375,0.143,7.267,0.829C31.562,147.382,33.345,147.387,33.632,146.706z"/>
	<path fill="#FFBF00" stroke="#8B5C29" d="M8.307,152.677c-0.29-0.703,1.587-1.728,4.172-2.277c2.584-0.549,6.704-0.688,9.155-0.307
		c2.45,0.38,6.756,0.484,9.57,0.23c2.812-0.252,5.19,0.142,5.285,0.877c0.097,0.734-2.203,1.547-5.107,1.807
		c-2.906,0.261-7.3,0.146-9.768-0.258c-2.467-0.402-6.352-0.295-8.632,0.236S8.598,153.379,8.307,152.677z"/>
	<path fill="#FFBF00" stroke="#8B5C29" d="M10.113,155.067c-0.287,0.68,1.233,1.83,3.381,2.557c2.146,0.725,5.613,1.146,7.703,0.935
		c2.09-0.21,5.729-0.019,8.086,0.427c2.356,0.445,4.387,0.217,4.511-0.51c0.125-0.725-1.765-1.693-4.199-2.154
		c-2.435-0.458-6.148-0.645-8.253-0.412c-2.105,0.231-5.375-0.143-7.268-0.829C12.183,154.392,10.399,154.387,10.113,155.067z"/>
	<path fill="#FFBF00" stroke="#8B5C29" d="M37.191,168.708c0.22,0.742-1.743,1.474-4.362,1.625c-2.618,0.152-6.722-0.34-9.116-1.09
		c-2.396-0.751-6.659-1.51-9.478-1.688c-2.815-0.178-5.138-0.932-5.16-1.675c-0.023-0.743,2.338-1.2,5.246-1.017
		c2.909,0.186,7.26,0.969,9.67,1.744c2.409,0.776,6.275,1.262,8.591,1.082C34.897,167.51,36.971,167.968,37.191,168.708z"/>
	<path fill="#FFBF00" stroke="#8B5C29" d="M8.777,165.206c-0.287-0.68,1.233-1.83,3.381-2.557c2.147-0.725,5.614-1.146,7.703-0.935
		c2.09,0.21,5.729,0.019,8.086-0.427c2.356-0.445,4.387-0.217,4.511,0.51c0.125,0.725-1.765,1.693-4.199,2.154
		c-2.435,0.458-6.148,0.645-8.253,0.412c-2.105-0.231-5.375,0.143-7.267,0.829C10.848,165.882,9.064,165.887,8.777,165.206z"/>
	<path fill="#FFBF00" stroke="#8B5C29" d="M32.341,178.942c0.178,0.746-1.293,1.429-3.266,1.517
		c-1.973,0.089-5.075-0.499-6.894-1.307c-1.817-0.807-5.045-1.667-7.174-1.911c-2.127-0.246-3.89-1.053-3.918-1.796
		c-0.029-0.743,1.745-1.143,3.941-0.89c2.196,0.254,5.491,1.141,7.32,1.974s4.754,1.41,6.497,1.286
		C30.592,177.69,32.162,178.196,32.341,178.942z"/>
	<path fill="#FFBF00" stroke="#8B5C29" d="M9.391,174.482c-0.287-0.714,1.475-1.687,3.916-2.161c2.441-0.476,6.345-0.494,8.673-0.04
		c2.33,0.453,6.414,0.683,9.075,0.513c2.662-0.172,4.924,0.292,5.025,1.032c0.104,0.739-2.062,1.487-4.811,1.665
		c-2.75,0.175-6.918-0.07-9.263-0.546c-2.346-0.477-6.026-0.483-8.18-0.017C11.675,175.397,9.678,175.194,9.391,174.482z"/>
	<path fill="#FFBF00" stroke="#8B5C29" d="M9.362,185.026c-0.31-0.682,1.391-1.834,3.778-2.564c2.387-0.729,6.234-1.156,8.547-0.948
		c2.313,0.207,6.345,0.009,8.963-0.44c2.615-0.449,4.861-0.225,4.99,0.502c0.13,0.727-1.978,1.699-4.68,2.162
		c-2.703,0.463-6.82,0.656-9.148,0.428c-2.33-0.229-5.956,0.15-8.061,0.842C11.646,185.697,9.672,185.706,9.362,185.026z"/>
	<path fill="#FFBF00" stroke="#8B5C29" d="M33.898,189.706c0.287-0.68-1.233-1.83-3.381-2.557c-2.147-0.725-5.614-1.146-7.703-0.935
		c-2.09,0.21-5.729,0.019-8.086-0.427c-2.356-0.445-4.387-0.217-4.511,0.51c-0.125,0.725,1.765,1.693,4.199,2.154
		c2.435,0.458,6.148,0.645,8.253,0.412c2.105-0.231,5.375,0.143,7.267,0.829C31.828,190.382,33.611,190.387,33.898,189.706z"/>
	<path fill="#FFBF00" stroke="#8B5C29" d="M8.669,196.89c-0.329-0.676,1.487-1.859,4.035-2.631c2.547-0.771,6.65-1.266,9.116-1.099
		s6.767-0.102,9.56-0.598c2.791-0.495,5.187-0.308,5.321,0.417c0.137,0.725-2.112,1.734-4.994,2.245
		c-2.885,0.511-7.275,0.776-9.759,0.587c-2.483-0.188-6.354,0.255-8.599,0.982C11.104,197.522,8.998,197.565,8.669,196.89z"/>
	<path fill="#FFBF00" stroke="#8B5C29" d="M10.38,198.067c-0.287,0.68,1.233,1.83,3.381,2.557c2.147,0.725,5.614,1.146,7.703,0.935
		c2.09-0.21,5.729-0.019,8.086,0.427c2.356,0.445,4.387,0.217,4.511-0.51c0.125-0.725-1.765-1.693-4.199-2.154
		c-2.435-0.458-6.148-0.645-8.253-0.412c-2.105,0.231-5.375-0.143-7.267-0.829C12.449,197.392,10.667,197.387,10.38,198.067z"/>
	<path fill="#FFBF00" stroke="#8B5C29" d="M37.07,212.939c0.22,0.742-1.744,1.474-4.362,1.624c-2.618,0.152-6.722-0.339-9.116-1.09
		c-2.396-0.75-6.659-1.51-9.478-1.688c-2.815-0.178-5.138-0.931-5.16-1.674c-0.023-0.744,2.338-1.201,5.246-1.017
		c2.909,0.185,7.26,0.968,9.67,1.744c2.409,0.776,6.275,1.262,8.591,1.081C34.776,211.741,36.85,212.198,37.07,212.939z"/>
	<path fill="#FFBF00" stroke="#8B5C29" d="M9.044,208.206c-0.287-0.68,1.233-1.83,3.382-2.557c2.146-0.725,5.613-1.146,7.703-0.935
		c2.089,0.21,5.728,0.019,8.085-0.427c2.356-0.445,4.387-0.217,4.511,0.51c0.125,0.725-1.765,1.693-4.199,2.154
		c-2.435,0.458-6.148,0.645-8.253,0.412c-2.105-0.231-5.375,0.143-7.267,0.829C11.114,208.882,9.331,208.887,9.044,208.206z"/>
	<path fill="#FFBF00" stroke="#8B5C29" d="M32.607,221.942c0.178,0.746-1.293,1.429-3.266,1.517
		c-1.973,0.089-5.075-0.499-6.893-1.307c-1.818-0.807-5.046-1.667-7.175-1.911c-2.126-0.246-3.89-1.053-3.918-1.796
		c-0.029-0.743,1.745-1.143,3.941-0.89c2.196,0.254,5.491,1.141,7.32,1.974s4.754,1.41,6.497,1.286
		C30.858,220.69,32.43,221.196,32.607,221.942z"/>
	<path fill="#FFBF00" stroke="#8B5C29" d="M9.657,217.482c-0.286-0.714,1.475-1.687,3.916-2.161c2.441-0.476,6.345-0.494,8.673-0.04
		c2.33,0.453,6.414,0.683,9.076,0.513c2.661-0.172,4.923,0.292,5.025,1.032c0.104,0.739-2.063,1.487-4.812,1.665
		c-2.75,0.175-6.918-0.07-9.263-0.546c-2.346-0.477-6.026-0.483-8.18-0.017C11.941,218.397,9.944,218.194,9.657,217.482z"/>
	<path fill="#FFBF00" stroke="#8B5C29" d="M9.896,227.526c-0.31-0.682,1.391-1.834,3.778-2.564c2.387-0.729,6.233-1.156,8.546-0.948
		c2.313,0.207,6.346,0.009,8.964-0.44c2.615-0.449,4.861-0.225,4.99,0.502c0.13,0.727-1.978,1.699-4.68,2.162
		c-2.703,0.463-6.82,0.656-9.148,0.428c-2.33-0.229-5.956,0.15-8.061,0.842C12.181,228.197,10.206,228.206,9.896,227.526z"/>
	<path fill="#FFBF00" stroke="#8B5C29" d="M34.433,232.206c0.287-0.68-1.233-1.83-3.382-2.557c-2.146-0.725-5.613-1.146-7.703-0.935
		c-2.089,0.21-5.728,0.019-8.085-0.427c-2.356-0.445-4.387-0.217-4.511,0.51c-0.125,0.725,1.765,1.693,4.199,2.154
		c2.435,0.458,6.148,0.645,8.253,0.412c2.105-0.231,5.375,0.143,7.267,0.829C32.362,232.882,34.146,232.887,34.433,232.206z"/>
	<path fill="#FFBF00" stroke="#8B5C29" d="M9.107,238.177c-0.29-0.703,1.587-1.728,4.172-2.277c2.584-0.549,6.704-0.688,9.155-0.307
		c2.45,0.38,6.756,0.484,9.57,0.23c2.812-0.252,5.19,0.142,5.285,0.877c0.097,0.734-2.203,1.547-5.107,1.807
		c-2.906,0.261-7.3,0.146-9.768-0.258c-2.467-0.402-6.352-0.295-8.632,0.236S9.398,238.879,9.107,238.177z"/>
	<path fill="#FFBF00" stroke="#8B5C29" d="M10.914,240.567c-0.287,0.68,1.233,1.83,3.381,2.557c2.146,0.725,5.613,1.146,7.703,0.935
		c2.09-0.21,5.729-0.019,8.086,0.427c2.356,0.445,4.387,0.217,4.511-0.51c0.125-0.725-1.765-1.693-4.199-2.154
		c-2.435-0.458-6.148-0.645-8.253-0.412c-2.105,0.231-5.375-0.143-7.268-0.829C12.983,239.892,11.2,239.887,10.914,240.567z"/>
	<path fill="#FFBF00" stroke="#8B5C29" d="M37.992,254.208c0.221,0.742-1.743,1.474-4.362,1.625c-2.618,0.152-6.722-0.34-9.116-1.09
		c-2.396-0.751-6.659-1.51-9.478-1.688c-2.814-0.178-5.138-0.932-5.16-1.675c-0.023-0.743,2.338-1.2,5.246-1.017
		c2.909,0.186,7.26,0.969,9.67,1.744c2.409,0.776,6.275,1.262,8.591,1.082C35.698,253.01,37.771,253.468,37.992,254.208z"/>
	<path fill="#FFBF00" stroke="#8B5C29" d="M9.578,250.706c-0.287-0.68,1.233-1.83,3.381-2.557c2.147-0.725,5.614-1.146,7.703-0.935
		c2.09,0.21,5.729,0.019,8.086-0.427c2.356-0.445,4.387-0.217,4.511,0.51c0.125,0.725-1.765,1.693-4.199,2.154
		c-2.435,0.458-6.148,0.645-8.253,0.412c-2.105-0.231-5.375,0.143-7.267,0.829C11.648,251.382,9.865,251.387,9.578,250.706z"/>
	<path fill="#FFBF00" stroke="#8B5C29" d="M33.142,264.442c0.178,0.746-1.293,1.429-3.266,1.517
		c-1.973,0.089-5.075-0.499-6.894-1.307c-1.817-0.807-5.045-1.667-7.174-1.911c-2.127-0.246-3.89-1.053-3.918-1.796
		c-0.029-0.743,1.745-1.143,3.941-0.89c2.196,0.254,5.491,1.141,7.32,1.974s4.754,1.41,6.497,1.286
		C31.393,263.19,32.963,263.696,33.142,264.442z"/>
	<path fill="#FFBF00" stroke="#8B5C29" d="M10.191,259.982c-0.286-0.714,1.475-1.687,3.916-2.161
		c2.441-0.476,6.345-0.494,8.673-0.04c2.33,0.453,6.414,0.683,9.075,0.513c2.662-0.172,4.924,0.292,5.026,1.032
		c0.104,0.739-2.063,1.487-4.812,1.665c-2.75,0.175-6.918-0.07-9.263-0.546c-2.346-0.477-6.026-0.483-8.18-0.017
		C12.476,260.897,10.479,260.694,10.191,259.982z"/>
	<path fill="#FFBF00" stroke="#8B5C29" d="M33.142,268.978c0.178-0.746-1.293-1.429-3.266-1.517
		c-1.973-0.089-5.075,0.499-6.894,1.307c-1.817,0.807-5.045,1.667-7.174,1.911c-2.127,0.246-3.89,1.053-3.918,1.796
		c-0.029,0.743,1.745,1.143,3.941,0.89c2.196-0.254,5.491-1.141,7.32-1.974s4.754-1.41,6.497-1.286
		C31.393,270.229,32.963,269.724,33.142,268.978z"/>
	<path fill="#FFBF00" stroke="#8B5C29" d="M10.191,273.438c-0.286,0.714,1.475,1.687,3.916,2.161
		c2.441,0.476,6.345,0.494,8.673,0.04c2.33-0.453,6.414-0.683,9.075-0.513c2.662,0.172,4.924-0.292,5.026-1.032
		c0.104-0.739-2.063-1.487-4.812-1.665c-2.75-0.175-6.918,0.07-9.263,0.546c-2.346,0.477-6.026,0.483-8.18,0.017
		C12.476,272.522,10.479,272.726,10.191,273.438z"/>
	<path fill="#FFBF00" stroke="#8B5C29" d="M57.675,262.417c0.31,0.682-1.391,1.834-3.778,2.564
		c-2.387,0.729-6.233,1.156-8.546,0.948c-2.313-0.207-6.346-0.009-8.964,0.44c-2.615,0.449-4.861,0.225-4.99-0.502
		s1.978-1.699,4.68-2.162c2.703-0.463,6.82-0.656,9.148-0.428c2.33,0.229,5.956-0.15,8.061-0.842
		C55.391,261.746,57.365,261.737,57.675,262.417z"/>
	<path fill="#FFBF00" stroke="#8B5C29" d="M33.139,257.737c-0.287,0.68,1.234,1.83,3.382,2.557c2.146,0.725,5.613,1.146,7.703,0.935
		c2.089-0.21,5.728-0.019,8.085,0.427c2.356,0.445,4.387,0.217,4.511-0.51c0.125-0.725-1.765-1.693-4.199-2.154
		c-2.435-0.458-6.148-0.645-8.253-0.412c-2.105,0.231-5.375-0.143-7.267-0.829C35.209,257.062,33.426,257.057,33.139,257.737z"/>
	<path fill="#FFBF00" stroke="#8B5C29" d="M57.675,271.292c0.31,0.682-1.391,1.834-3.778,2.564
		c-2.387,0.729-6.233,1.156-8.546,0.948c-2.313-0.207-6.346-0.009-8.964,0.44c-2.615,0.449-4.861,0.225-4.99-0.502
		s1.978-1.699,4.68-2.162c2.703-0.463,6.82-0.656,9.148-0.428c2.33,0.229,5.956-0.15,8.061-0.842
		C55.391,270.621,57.365,270.612,57.675,271.292z"/>
	<path fill="#FFBF00" stroke="#8B5C29" d="M33.139,266.612c-0.287,0.68,1.234,1.83,3.382,2.557c2.146,0.725,5.613,1.146,7.703,0.935
		c2.089-0.21,5.728-0.019,8.085,0.427c2.356,0.445,4.387,0.217,4.511-0.51c0.125-0.725-1.765-1.693-4.199-2.154
		c-2.435-0.458-6.148-0.645-8.253-0.412c-2.105,0.231-5.375-0.143-7.267-0.829C35.209,265.937,33.426,265.932,33.139,266.612z"/>
	<path fill="#FFBF00" stroke="#8B5C29" d="M58.368,250.554c0.329,0.676-1.487,1.859-4.035,2.631
		c-2.547,0.771-6.65,1.266-9.116,1.099s-6.767,0.102-9.56,0.598c-2.791,0.495-5.187,0.308-5.321-0.417
		c-0.137-0.725,2.112-1.734,4.995-2.245c2.884-0.511,7.274-0.776,9.758-0.587c2.483,0.188,6.354-0.255,8.599-0.982
		C55.933,249.921,58.039,249.878,58.368,250.554z"/>
	<path fill="#FFBF00" stroke="#8B5C29" d="M56.657,249.376c0.287-0.68-1.233-1.83-3.381-2.557c-2.147-0.725-5.613-1.146-7.703-0.935
		c-2.09,0.21-5.729,0.019-8.086-0.427c-2.356-0.445-4.387-0.217-4.511,0.51c-0.125,0.725,1.766,1.693,4.199,2.154
		c2.435,0.458,6.148,0.645,8.253,0.412c2.105-0.231,5.375,0.143,7.268,0.829C54.588,250.052,56.371,250.057,56.657,249.376z"/>
	<path fill="#FFBF00" stroke="#8B5C29" d="M29.968,234.504c-0.221-0.742,1.743-1.474,4.361-1.624
		c2.618-0.152,6.722,0.339,9.117,1.09c2.395,0.75,6.658,1.51,9.477,1.688c2.815,0.178,5.138,0.931,5.16,1.674
		c0.023,0.744-2.338,1.201-5.245,1.017c-2.91-0.185-7.261-0.968-9.671-1.744c-2.409-0.776-6.275-1.262-8.59-1.081
		C32.261,235.702,30.188,235.245,29.968,234.504z"/>
	<path fill="#FFBF00" stroke="#8B5C29" d="M57.993,239.237c0.287,0.68-1.233,1.83-3.381,2.557c-2.147,0.725-5.614,1.146-7.703,0.935
		c-2.09-0.21-5.729-0.019-8.086,0.427c-2.356,0.445-4.387,0.217-4.511-0.51c-0.125-0.725,1.765-1.693,4.199-2.154
		c2.435-0.458,6.148-0.645,8.253-0.412c2.105,0.231,5.375-0.143,7.267-0.829C55.924,238.562,57.706,238.557,57.993,239.237z"/>
	<path fill="#FFBF00" stroke="#8B5C29" d="M34.43,225.501c-0.178-0.746,1.293-1.429,3.266-1.517
		c1.973-0.089,5.075,0.499,6.894,1.307c1.817,0.807,5.045,1.667,7.174,1.911c2.127,0.246,3.89,1.053,3.918,1.796
		c0.029,0.743-1.745,1.143-3.941,0.89c-2.196-0.254-5.491-1.141-7.32-1.974s-4.754-1.41-6.497-1.286
		C36.179,226.753,34.608,226.247,34.43,225.501z"/>
	<path fill="#FFBF00" stroke="#8B5C29" d="M57.38,229.961c0.286,0.714-1.475,1.687-3.916,2.161c-2.441,0.476-6.345,0.494-8.673,0.04
		c-2.33-0.453-6.414-0.683-9.076-0.513c-2.661,0.172-4.923-0.292-5.025-1.032c-0.104-0.739,2.063-1.487,4.812-1.665
		c2.75-0.175,6.918,0.07,9.263,0.546c2.346,0.477,6.026,0.483,8.18,0.017C55.096,229.046,57.094,229.249,57.38,229.961z"/>
	<path fill="#FFBF00" stroke="#8B5C29" d="M57.141,219.917c0.31,0.682-1.391,1.834-3.778,2.564
		c-2.387,0.729-6.233,1.156-8.546,0.948c-2.313-0.207-6.346-0.009-8.964,0.44c-2.615,0.449-4.861,0.225-4.99-0.502
		s1.978-1.699,4.681-2.162c2.702-0.463,6.819-0.656,9.147-0.428c2.33,0.229,5.956-0.15,8.061-0.842
		C54.856,219.246,56.831,219.237,57.141,219.917z"/>
	<path fill="#FFBF00" stroke="#8B5C29" d="M32.604,215.237c-0.287,0.68,1.234,1.83,3.382,2.557c2.146,0.725,5.613,1.146,7.703,0.935
		c2.089-0.21,5.729-0.019,8.085,0.427s4.387,0.217,4.511-0.51c0.125-0.725-1.765-1.693-4.199-2.154
		c-2.435-0.458-6.148-0.645-8.253-0.412c-2.105,0.231-5.375-0.143-7.267-0.829C34.675,214.562,32.892,214.557,32.604,215.237z"/>
	<path fill="#FFBF00" stroke="#8B5C29" d="M57.93,209.267c0.29,0.703-1.587,1.728-4.172,2.277c-2.584,0.549-6.704,0.688-9.155,0.307
		c-2.45-0.38-6.756-0.484-9.57-0.23c-2.812,0.252-5.19-0.142-5.285-0.877c-0.097-0.734,2.203-1.547,5.107-1.807
		c2.906-0.261,7.3-0.146,9.768,0.258c2.468,0.402,6.352,0.295,8.632-0.236C55.535,208.427,57.639,208.564,57.93,209.267z"/>
	<path fill="#FFBF00" stroke="#8B5C29" d="M56.123,206.876c0.287-0.68-1.233-1.83-3.381-2.557c-2.146-0.725-5.613-1.146-7.703-0.935
		c-2.09,0.21-5.729,0.019-8.086-0.427c-2.356-0.445-4.387-0.217-4.511,0.51c-0.125,0.725,1.766,1.693,4.199,2.154
		c2.435,0.458,6.148,0.645,8.253,0.412c2.105-0.231,5.375,0.143,7.268,0.829C54.054,207.552,55.837,207.557,56.123,206.876z"/>
	<path fill="#FFBF00" stroke="#8B5C29" d="M29.045,193.235c-0.22-0.742,1.743-1.474,4.362-1.625c2.618-0.152,6.722,0.34,9.116,1.09
		c2.396,0.751,6.659,1.51,9.478,1.688c2.815,0.178,5.138,0.932,5.16,1.675c0.023,0.743-2.338,1.2-5.246,1.017
		c-2.909-0.186-7.26-0.969-9.67-1.744c-2.409-0.776-6.275-1.262-8.591-1.082C31.339,194.434,29.266,193.976,29.045,193.235z"/>
	<path fill="#FFBF00" stroke="#8B5C29" d="M57.459,196.737c0.287,0.68-1.233,1.83-3.381,2.557c-2.147,0.725-5.614,1.146-7.703,0.935
		c-2.09-0.21-5.729-0.019-8.086,0.427c-2.356,0.445-4.387,0.217-4.511-0.51c-0.125-0.725,1.765-1.693,4.199-2.154
		c2.435-0.458,6.148-0.645,8.253-0.412c2.105,0.231,5.375-0.143,7.267-0.829C55.39,196.062,57.172,196.057,57.459,196.737z"/>
	<path fill="#FFBF00" stroke="#8B5C29" d="M33.896,183.001c-0.178-0.746,1.293-1.429,3.266-1.517
		c1.973-0.089,5.075,0.499,6.894,1.307c1.817,0.807,5.045,1.667,7.174,1.911c2.127,0.246,3.89,1.053,3.918,1.796
		c0.029,0.743-1.745,1.143-3.941,0.89c-2.196-0.254-5.491-1.141-7.32-1.974s-4.754-1.41-6.497-1.286
		C35.645,184.253,34.074,183.747,33.896,183.001z"/>
	<path fill="#FFBF00" stroke="#8B5C29" d="M56.846,187.461c0.287,0.714-1.475,1.687-3.916,2.161
		c-2.441,0.476-6.345,0.494-8.673,0.04c-2.33-0.453-6.414-0.683-9.075-0.513c-2.662,0.172-4.924-0.292-5.025-1.032
		c-0.104-0.739,2.062-1.487,4.811-1.665c2.75-0.175,6.918,0.07,9.263,0.546c2.346,0.477,6.026,0.483,8.18,0.017
		C54.562,186.546,56.56,186.749,56.846,187.461z"/>
	<path fill="#FFBF00" stroke="#8B5C29" d="M56.874,179.917c0.31,0.682-1.391,1.834-3.778,2.564
		c-2.387,0.729-6.234,1.156-8.547,0.948c-2.313-0.207-6.345-0.009-8.963,0.44c-2.615,0.449-4.861,0.225-4.99-0.502
		c-0.13-0.727,1.978-1.699,4.68-2.162c2.703-0.463,6.82-0.656,9.148-0.428c2.33,0.229,5.956-0.15,8.061-0.842
		C54.59,179.246,56.564,179.237,56.874,179.917z"/>
	<path fill="#FFBF00" stroke="#8B5C29" d="M32.338,175.237c-0.287,0.68,1.234,1.83,3.382,2.557c2.146,0.725,5.613,1.146,7.702,0.935
		c2.09-0.21,5.729-0.019,8.086,0.427c2.356,0.445,4.387,0.217,4.511-0.51c0.125-0.725-1.765-1.693-4.199-2.154
		c-2.435-0.458-6.148-0.645-8.253-0.412c-2.105,0.231-5.375-0.143-7.267-0.829C34.408,174.562,32.625,174.557,32.338,175.237z"/>
	<path fill="#FFBF00" stroke="#8B5C29" d="M57.567,168.054c0.329,0.676-1.487,1.859-4.035,2.631
		c-2.547,0.771-6.65,1.266-9.116,1.099s-6.767,0.102-9.56,0.598c-2.791,0.495-5.187,0.308-5.321-0.417
		c-0.137-0.725,2.112-1.734,4.994-2.245c2.885-0.511,7.275-0.776,9.759-0.587c2.483,0.188,6.354-0.255,8.599-0.982
		C55.132,167.421,57.238,167.378,57.567,168.054z"/>
	<path fill="#FFBF00" stroke="#8B5C29" d="M55.856,166.876c0.287-0.68-1.233-1.83-3.381-2.557c-2.147-0.725-5.614-1.146-7.703-0.935
		c-2.09,0.21-5.729,0.019-8.086-0.427c-2.356-0.445-4.387-0.217-4.511,0.51c-0.125,0.725,1.765,1.693,4.199,2.154
		c2.435,0.458,6.148,0.645,8.253,0.412c2.105-0.231,5.375,0.143,7.267,0.829C53.787,167.552,55.57,167.557,55.856,166.876z"/>
	<path fill="#FFBF00" stroke="#8B5C29" d="M29.167,152.004c-0.221-0.742,1.743-1.474,4.361-1.624
		c2.618-0.152,6.722,0.339,9.116,1.09c2.396,0.75,6.659,1.51,9.478,1.688c2.815,0.178,5.138,0.931,5.16,1.674
		c0.023,0.744-2.338,1.201-5.246,1.017c-2.909-0.185-7.26-0.968-9.67-1.744c-2.409-0.776-6.275-1.262-8.591-1.081
		C31.46,153.202,29.387,152.745,29.167,152.004z"/>
	<path fill="#FFBF00" stroke="#8B5C29" d="M57.192,156.737c0.287,0.68-1.233,1.83-3.382,2.557c-2.146,0.725-5.613,1.146-7.703,0.935
		c-2.089-0.21-5.728-0.019-8.085,0.427c-2.356,0.445-4.387,0.217-4.511-0.51c-0.125-0.725,1.765-1.693,4.199-2.154
		c2.435-0.458,6.148-0.645,8.253-0.412c2.105,0.231,5.375-0.143,7.267-0.829C55.122,156.062,56.905,156.057,57.192,156.737z"/>
	<path fill="#FFBF00" stroke="#8B5C29" d="M33.629,143.001c-0.178-0.746,1.293-1.429,3.266-1.517
		c1.973-0.089,5.075,0.499,6.893,1.307c1.818,0.807,5.046,1.667,7.175,1.911c2.127,0.246,3.89,1.053,3.918,1.796
		c0.029,0.743-1.745,1.143-3.941,0.89c-2.196-0.254-5.491-1.141-7.32-1.974s-4.754-1.41-6.497-1.286
		C35.378,144.253,33.808,143.747,33.629,143.001z"/>
	<path fill="#FFBF00" stroke="#8B5C29" d="M56.579,147.461c0.286,0.714-1.475,1.687-3.916,2.161
		c-2.441,0.476-6.345,0.494-8.673,0.04c-2.33-0.453-6.414-0.683-9.076-0.513c-2.661,0.172-4.923-0.292-5.025-1.032
		c-0.104-0.739,2.063-1.487,4.812-1.665c2.75-0.175,6.918,0.07,9.263,0.546c2.346,0.477,6.026,0.483,8.18,0.017
		C54.295,146.546,56.292,146.749,56.579,147.461z"/>
	<path fill="#FFBF00" stroke="#8B5C29" d="M56.34,137.417c0.31,0.682-1.391,1.834-3.778,2.564c-2.387,0.729-6.233,1.156-8.546,0.948
		c-2.313-0.207-6.346-0.009-8.964,0.44c-2.615,0.449-4.861,0.225-4.99-0.502c-0.13-0.727,1.978-1.699,4.681-2.162
		c2.702-0.463,6.819-0.656,9.147-0.428c2.33,0.229,5.956-0.15,8.061-0.842C54.056,136.746,56.03,136.737,56.34,137.417z"/>
	<path fill="#FFBF00" stroke="#8B5C29" d="M31.804,132.737c-0.287,0.68,1.234,1.83,3.382,2.557c2.146,0.725,5.613,1.146,7.703,0.935
		c2.089-0.21,5.729-0.019,8.085,0.427s4.387,0.217,4.511-0.51c0.125-0.725-1.765-1.693-4.199-2.154
		c-2.435-0.458-6.148-0.645-8.253-0.412c-2.105,0.231-5.375-0.143-7.267-0.829C33.874,132.062,32.091,132.057,31.804,132.737z"/>
	<path fill="#FFBF00" stroke="#8B5C29" d="M57.129,126.767c0.29,0.703-1.587,1.728-4.172,2.277
		c-2.584,0.549-6.704,0.688-9.155,0.307c-2.45-0.38-6.756-0.484-9.57-0.23c-2.812,0.252-5.19-0.142-5.285-0.877
		c-0.097-0.734,2.203-1.547,5.107-1.807c2.906-0.261,7.3-0.146,9.768,0.258c2.468,0.402,6.352,0.295,8.632-0.236
		S56.838,126.064,57.129,126.767z"/>
	<path fill="#FFBF00" stroke="#8B5C29" d="M55.322,124.376c0.287-0.68-1.233-1.83-3.381-2.557c-2.146-0.725-5.613-1.146-7.703-0.935
		c-2.09,0.21-5.729,0.019-8.086-0.427c-2.356-0.445-4.387-0.217-4.511,0.51c-0.125,0.725,1.766,1.693,4.199,2.154
		c2.435,0.458,6.148,0.645,8.253,0.412c2.105-0.231,5.375,0.143,7.268,0.829C53.253,125.052,55.036,125.057,55.322,124.376z"/>
	<path fill="#FFBF00" stroke="#8B5C29" d="M28.244,110.735c-0.22-0.742,1.743-1.474,4.362-1.625c2.618-0.152,6.722,0.34,9.116,1.09
		c2.396,0.751,6.659,1.51,9.478,1.688c2.815,0.178,5.138,0.932,5.16,1.675c0.023,0.743-2.338,1.2-5.246,1.017
		c-2.909-0.186-7.26-0.969-9.67-1.744c-2.409-0.776-6.275-1.262-8.591-1.082C30.538,111.934,28.465,111.476,28.244,110.735z"/>
	<path fill="#FFBF00" stroke="#8B5C29" d="M56.658,114.237c0.287,0.68-1.233,1.83-3.381,2.557c-2.147,0.725-5.614,1.146-7.703,0.935
		c-2.09-0.21-5.729-0.019-8.086,0.427c-2.356,0.445-4.387,0.217-4.511-0.51c-0.125-0.725,1.765-1.693,4.199-2.154
		c2.435-0.458,6.148-0.645,8.253-0.412c2.105,0.231,5.375-0.143,7.267-0.829C54.588,113.562,56.371,113.557,56.658,114.237z"/>
	<path fill="#FFBF00" stroke="#8B5C29" d="M33.095,100.501c-0.178-0.746,1.293-1.429,3.266-1.517
		c1.973-0.089,5.075,0.499,6.894,1.307c1.817,0.807,5.045,1.667,7.174,1.911c2.127,0.246,3.89,1.053,3.918,1.796
		c0.029,0.743-1.745,1.143-3.941,0.89c-2.196-0.254-5.491-1.141-7.32-1.974s-4.754-1.41-6.497-1.286
		C34.844,101.753,33.273,101.247,33.095,100.501z"/>
	<path fill="#FFBF00" stroke="#8B5C29" d="M56.045,104.961c0.287,0.714-1.475,1.687-3.916,2.161
		c-2.441,0.476-6.345,0.494-8.673,0.04c-2.33-0.453-6.414-0.683-9.075-0.513c-2.662,0.172-4.924-0.292-5.025-1.032
		c-0.104-0.739,2.062-1.487,4.811-1.665c2.75-0.175,6.918,0.07,9.263,0.546c2.346,0.477,6.026,0.483,8.18,0.017
		C53.761,104.046,55.759,104.249,56.045,104.961z"/>
	<path fill="#FFBF00" stroke="#8B5C29" d="M56.073,94.417c0.31,0.682-1.391,1.834-3.778,2.564c-2.387,0.729-6.234,1.156-8.547,0.948
		c-2.313-0.207-6.345-0.009-8.963,0.44c-2.615,0.449-4.861,0.225-4.99-0.502c-0.13-0.727,1.978-1.699,4.68-2.162
		c2.703-0.463,6.82-0.656,9.148-0.428c2.33,0.229,5.956-0.15,8.061-0.842C53.789,93.746,55.764,93.737,56.073,94.417z"/>
	<path fill="#FFBF00" stroke="#8B5C29" d="M31.537,89.737c-0.287,0.68,1.233,1.83,3.381,2.557c2.147,0.725,5.614,1.146,7.703,0.935
		c2.09-0.21,5.729-0.019,8.086,0.427c2.356,0.445,4.387,0.217,4.511-0.51c0.125-0.725-1.765-1.693-4.199-2.154
		c-2.435-0.458-6.148-0.645-8.253-0.412c-2.105,0.231-5.375-0.143-7.267-0.829C33.607,89.062,31.824,89.057,31.537,89.737z"/>
	<path fill="#FFBF00" stroke="#8B5C29" d="M56.767,82.554c0.329,0.676-1.487,1.859-4.035,2.631c-2.547,0.771-6.65,1.266-9.116,1.099
		s-6.767,0.102-9.56,0.598c-2.791,0.495-5.187,0.308-5.321-0.417c-0.137-0.725,2.112-1.734,4.994-2.245
		c2.885-0.511,7.275-0.776,9.759-0.587c2.483,0.188,6.354-0.255,8.599-0.982C54.331,81.921,56.438,81.878,56.767,82.554z"/>
	<path fill="#FFBF00" stroke="#8B5C29" d="M55.056,81.376c0.287-0.68-1.233-1.83-3.381-2.557c-2.147-0.725-5.614-1.146-7.703-0.935
		c-2.09,0.21-5.729,0.019-8.086-0.427c-2.356-0.445-4.387-0.217-4.511,0.51c-0.125,0.725,1.765,1.693,4.199,2.154
		c2.435,0.458,6.148,0.645,8.253,0.412c2.105-0.231,5.375,0.143,7.267,0.829C52.986,82.052,54.77,82.057,55.056,81.376z"/>
	<path fill="#FFBF00" stroke="#8B5C29" d="M28.365,66.504c-0.22-0.742,1.744-1.474,4.362-1.624c2.618-0.152,6.722,0.339,9.116,1.09
		c2.396,0.75,6.659,1.51,9.478,1.688c2.815,0.178,5.138,0.931,5.16,1.674c0.023,0.744-2.338,1.201-5.246,1.017
		c-2.909-0.185-7.26-0.968-9.67-1.744c-2.409-0.776-6.275-1.262-8.591-1.081C30.659,67.702,28.586,67.245,28.365,66.504z"/>
	<path fill="#FFBF00" stroke="#8B5C29" d="M56.392,71.237c0.287,0.68-1.233,1.83-3.382,2.557c-2.146,0.725-5.613,1.146-7.703,0.935
		c-2.089-0.21-5.728-0.019-8.085,0.427c-2.356,0.445-4.387,0.217-4.511-0.51c-0.125-0.725,1.765-1.693,4.199-2.154
		c2.435-0.458,6.148-0.645,8.253-0.412c2.105,0.231,5.375-0.143,7.267-0.829C54.321,70.562,56.104,70.557,56.392,71.237z"/>
	<path fill="#FFBF00" stroke="#8B5C29" d="M32.828,57.501c-0.178-0.746,1.293-1.429,3.266-1.517
		c1.973-0.089,5.075,0.499,6.893,1.307c1.818,0.807,5.046,1.667,7.175,1.911c2.127,0.246,3.89,1.053,3.918,1.796
		c0.029,0.743-1.745,1.143-3.941,0.89c-2.196-0.254-5.491-1.141-7.32-1.974s-4.754-1.41-6.497-1.286
		C34.577,58.753,33.006,58.247,32.828,57.501z"/>
	<path fill="#FFBF00" stroke="#8B5C29" d="M55.778,61.961c0.286,0.714-1.475,1.687-3.916,2.161c-2.441,0.476-6.345,0.494-8.673,0.04
		c-2.33-0.453-6.414-0.683-9.076-0.513c-2.661,0.172-4.923-0.292-5.025-1.032c-0.104-0.739,2.063-1.487,4.812-1.665
		c2.75-0.175,6.918,0.07,9.263,0.546c2.346,0.477,6.026,0.483,8.18,0.017C53.494,61.046,55.491,61.249,55.778,61.961z"/>
	<path fill="#FFBF00" stroke="#8B5C29" d="M55.539,51.917c0.31,0.682-1.391,1.834-3.778,2.564c-2.387,0.729-6.233,1.156-8.546,0.948
		c-2.313-0.207-6.346-0.009-8.964,0.44c-2.615,0.449-4.861,0.225-4.99-0.502c-0.13-0.727,1.978-1.699,4.68-2.162
		c2.703-0.463,6.82-0.656,9.148-0.428c2.33,0.229,5.956-0.15,8.061-0.842C53.255,51.246,55.229,51.237,55.539,51.917z"/>
	<path fill="#FFBF00" stroke="#8B5C29" d="M31.003,47.237c-0.287,0.68,1.233,1.83,3.382,2.557c2.146,0.725,5.613,1.146,7.703,0.935
		c2.089-0.21,5.728-0.019,8.085,0.427c2.356,0.445,4.387,0.217,4.511-0.51c0.125-0.725-1.765-1.693-4.199-2.154
		c-2.435-0.458-6.148-0.645-8.253-0.412c-2.105,0.231-5.375-0.143-7.267-0.829C33.073,46.562,31.29,46.557,31.003,47.237z"/>
	<path fill="#FFBF00" stroke="#8B5C29" d="M56.328,41.267c0.29,0.703-1.587,1.728-4.172,2.277c-2.584,0.549-6.704,0.688-9.155,0.307
		c-2.45-0.38-6.756-0.484-9.57-0.23c-2.812,0.252-5.19-0.142-5.285-0.877c-0.097-0.734,2.203-1.547,5.107-1.807
		c2.906-0.261,7.3-0.146,9.768,0.258c2.467,0.402,6.352,0.295,8.632-0.236S56.037,40.564,56.328,41.267z"/>
	<path fill="#FFBF00" stroke="#8B5C29" d="M54.521,38.876c0.287-0.68-1.233-1.83-3.381-2.557c-2.146-0.725-5.613-1.146-7.703-0.935
		c-2.09,0.21-5.729,0.019-8.086-0.427c-2.356-0.445-4.387-0.217-4.511,0.51c-0.125,0.725,1.765,1.693,4.199,2.154
		c2.435,0.458,6.148,0.645,8.253,0.412c2.105-0.231,5.375,0.143,7.268,0.829C52.452,39.552,54.235,39.557,54.521,38.876z"/>
	<path fill="#FFBF00" stroke="#8B5C29" d="M27.443,25.235c-0.221-0.742,1.743-1.474,4.362-1.625c2.618-0.152,6.722,0.34,9.116,1.09
		c2.396,0.751,6.659,1.51,9.478,1.688c2.814,0.178,5.138,0.932,5.16,1.675c0.023,0.743-2.338,1.2-5.246,1.017
		c-2.909-0.186-7.26-0.969-9.67-1.744c-2.409-0.776-6.275-1.262-8.591-1.082C29.737,26.434,27.664,25.976,27.443,25.235z"/>
	<path fill="#FFBF00" stroke="#8B5C29" d="M55.857,28.737c0.287,0.68-1.233,1.83-3.381,2.557c-2.147,0.725-5.614,1.146-7.703,0.935
		c-2.09-0.21-5.729-0.019-8.086,0.427c-2.356,0.445-4.387,0.217-4.511-0.51c-0.125-0.725,1.765-1.693,4.199-2.154
		c2.435-0.458,6.148-0.645,8.253-0.412c2.105,0.231,5.375-0.143,7.267-0.829C53.787,28.062,55.57,28.057,55.857,28.737z"/>
	<path fill="#FFBF00" stroke="#8B5C29" d="M32.294,15.001c-0.178-0.746,1.293-1.429,3.266-1.517
		c1.973-0.089,5.075,0.499,6.894,1.307c1.817,0.807,5.045,1.667,7.174,1.911c2.127,0.246,3.89,1.053,3.918,1.796
		c0.029,0.743-1.745,1.143-3.941,0.89c-2.196-0.254-5.491-1.141-7.32-1.974s-4.754-1.41-6.497-1.286
		C34.043,16.253,32.473,15.747,32.294,15.001z"/>
	<path fill="#FFBF00" stroke="#8B5C29" d="M55.244,19.461c0.286,0.714-1.475,1.687-3.916,2.161c-2.441,0.476-6.345,0.494-8.673,0.04
		c-2.33-0.453-6.414-0.683-9.075-0.513c-2.662,0.172-4.924-0.292-5.026-1.032c-0.104-0.739,2.063-1.487,4.812-1.665
		c2.75-0.175,6.918,0.07,9.263,0.546c2.346,0.477,6.026,0.483,8.18,0.017C52.96,18.546,54.957,18.749,55.244,19.461z"/>
	<path fill="#FFBF00" stroke="#8B5C29" d="M32.294,10.466c-0.178,0.746,1.293,1.429,3.266,1.517
		c1.973,0.089,5.075-0.499,6.894-1.307c1.817-0.807,5.045-1.667,7.174-1.911c2.127-0.246,3.89-1.053,3.918-1.796
		c0.029-0.743-1.745-1.143-3.941-0.89c-2.196,0.254-5.491,1.141-7.32,1.974s-4.754,1.41-6.497,1.286
		C34.043,9.214,32.473,9.72,32.294,10.466z"/>
	<path fill="#FFBF00" stroke="#8B5C29" d="M55.244,6.006c0.286-0.714-1.475-1.687-3.916-2.161c-2.441-0.476-6.345-0.494-8.673-0.04
		c-2.33,0.453-6.414,0.683-9.075,0.513c-2.662-0.172-4.924,0.292-5.026,1.032c-0.104,0.739,2.063,1.487,4.812,1.665
		c2.75,0.175,6.918-0.07,9.263-0.546c2.346-0.477,6.026-0.483,8.18-0.017C52.96,6.921,54.957,6.718,55.244,6.006z"/>
</g>
<g id="Circls">
	<path fill="#EB4000" stroke="#000000" d="M6.666,64.493"/>
	<ellipse fill="#EB4000" stroke="#000000" cx="7.604" cy="16.243" rx="5.938" ry="6.25"/>
	<ellipse fill="#EB4000" stroke="#000000" cx="7.604" cy="7.368" rx="5.938" ry="6.25"/>
	<ellipse fill="#EB4000" stroke="#000000" cx="9.102" cy="38.91" rx="5.938" ry="6.25"/>
	<ellipse fill="#EB4000" stroke="#000000" cx="8.27" cy="49.41" rx="5.938" ry="6.25"/>
	<ellipse fill="#EB4000" stroke="#000000" cx="7.77" cy="27.743" rx="5.938" ry="6.25"/>
	<ellipse fill="#EB4000" stroke="#000000" cx="6.438" cy="58.243" rx="5.938" ry="6.25"/>
	<ellipse fill="#EB4000" stroke="#000000" cx="8.103" cy="81.41" rx="5.938" ry="6.25"/>
	<ellipse fill="#EB4000" stroke="#000000" cx="7.77" cy="92.076" rx="5.938" ry="6.25"/>
	<ellipse fill="#EB4000" stroke="#000000" cx="9.103" cy="70.243" rx="5.938" ry="6.25"/>
	<path fill="#EB4000" stroke="#000000" d="M7.666,146.993"/>
	<ellipse fill="#EB4000" stroke="#000000" cx="8.604" cy="98.743" rx="5.938" ry="6.25"/>
	<ellipse fill="#EB4000" stroke="#000000" cx="10.102" cy="121.41" rx="5.938" ry="6.25"/>
	<ellipse fill="#EB4000" stroke="#000000" cx="9.27" cy="131.91" rx="5.938" ry="6.25"/>
	<ellipse fill="#EB4000" stroke="#000000" cx="8.77" cy="110.243" rx="5.938" ry="6.25"/>
	<ellipse fill="#EB4000" stroke="#000000" cx="7.438" cy="140.743" rx="5.938" ry="6.25"/>
	<ellipse fill="#EB4000" stroke="#000000" cx="9.103" cy="163.909" rx="5.938" ry="6.25"/>
	<ellipse fill="#EB4000" stroke="#000000" cx="8.77" cy="174.576" rx="5.938" ry="6.25"/>
	<ellipse fill="#EB4000" stroke="#000000" cx="10.103" cy="152.743" rx="5.938" ry="6.25"/>
	<path fill="#EB4000" stroke="#000000" d="M8.666,232.493"/>
	<ellipse fill="#EB4000" stroke="#000000" cx="9.604" cy="184.243" rx="5.938" ry="6.25"/>
	<ellipse fill="#EB4000" stroke="#000000" cx="11.102" cy="206.909" rx="5.938" ry="6.25"/>
	<ellipse fill="#EB4000" stroke="#000000" cx="10.27" cy="217.409" rx="5.938" ry="6.25"/>
	<ellipse fill="#EB4000" stroke="#000000" cx="9.77" cy="195.743" rx="5.938" ry="6.25"/>
	<ellipse fill="#EB4000" stroke="#000000" cx="8.438" cy="226.243" rx="5.938" ry="6.25"/>
	<ellipse fill="#EB4000" stroke="#000000" cx="10.103" cy="249.409" rx="5.938" ry="6.25"/>
	<ellipse fill="#EB4000" stroke="#000000" cx="9.77" cy="260.076" rx="5.938" ry="6.25"/>
	<ellipse fill="#EB4000" stroke="#000000" cx="9.77" cy="270.076" rx="5.938" ry="6.25"/>
	<ellipse fill="#EB4000" stroke="#000000" cx="11.103" cy="238.243" rx="5.938" ry="6.25"/>
	<path fill="#EB4000" stroke="#000000" d="M55.506,212.833"/>
	<ellipse fill="#EB4000" stroke="#000000" cx="57.068" cy="260.583" rx="5.938" ry="6.25"/>
	<ellipse fill="#EB4000" stroke="#000000" cx="57.068" cy="269.458" rx="5.938" ry="6.25"/>
	<ellipse fill="#EB4000" stroke="#000000" cx="55.57" cy="237.917" rx="5.938" ry="6.25"/>
	<ellipse fill="#EB4000" stroke="#000000" cx="56.402" cy="227.417" rx="5.938" ry="6.25"/>
	<ellipse fill="#EB4000" stroke="#000000" cx="56.902" cy="249.083" rx="5.938" ry="6.25"/>
	<ellipse fill="#EB4000" stroke="#000000" cx="58.234" cy="218.583" rx="5.938" ry="6.25"/>
	<ellipse fill="#EB4000" stroke="#000000" cx="56.569" cy="195.417" rx="5.938" ry="6.25"/>
	<ellipse fill="#EB4000" stroke="#000000" cx="56.902" cy="184.75" rx="5.938" ry="6.25"/>
	<ellipse fill="#EB4000" stroke="#000000" cx="55.569" cy="206.583" rx="5.938" ry="6.25"/>
	<path fill="#EB4000" stroke="#000000" d="M54.506,130.333"/>
	<ellipse fill="#EB4000" stroke="#000000" cx="56.068" cy="178.083" rx="5.938" ry="6.25"/>
	<ellipse fill="#EB4000" stroke="#000000" cx="54.57" cy="155.417" rx="5.938" ry="6.25"/>
	<ellipse fill="#EB4000" stroke="#000000" cx="55.402" cy="144.917" rx="5.938" ry="6.25"/>
	<ellipse fill="#EB4000" stroke="#000000" cx="55.902" cy="166.583" rx="5.938" ry="6.25"/>
	<ellipse fill="#EB4000" stroke="#000000" cx="57.234" cy="136.083" rx="5.938" ry="6.25"/>
	<ellipse fill="#EB4000" stroke="#000000" cx="55.569" cy="112.917" rx="5.938" ry="6.25"/>
	<ellipse fill="#EB4000" stroke="#000000" cx="55.902" cy="102.25" rx="5.938" ry="6.25"/>
	<ellipse fill="#EB4000" stroke="#000000" cx="54.569" cy="124.083" rx="5.938" ry="6.25"/>
	<path fill="#EB4000" stroke="#000000" d="M53.506,44.833"/>
	<ellipse fill="#EB4000" stroke="#000000" cx="55.068" cy="92.583" rx="5.938" ry="6.25"/>
	<ellipse fill="#EB4000" stroke="#000000" cx="53.57" cy="69.917" rx="5.938" ry="6.25"/>
	<ellipse fill="#EB4000" stroke="#000000" cx="54.402" cy="59.417" rx="5.938" ry="6.25"/>
	<ellipse fill="#EB4000" stroke="#000000" cx="54.902" cy="81.083" rx="5.938" ry="6.25"/>
	<ellipse fill="#EB4000" stroke="#000000" cx="56.234" cy="50.583" rx="5.938" ry="6.25"/>
	<ellipse fill="#EB4000" stroke="#000000" cx="54.569" cy="27.417" rx="5.938" ry="6.25"/>
	<ellipse fill="#EB4000" stroke="#000000" cx="54.902" cy="16.75" rx="5.938" ry="6.25"/>
	<ellipse fill="#EB4000" stroke="#000000" cx="54.902" cy="6.75" rx="5.938" ry="6.25"/>
	<ellipse fill="#EB4000" stroke="#000000" cx="53.569" cy="38.583" rx="5.938" ry="6.25"/>
</g>
</svg>
