<?xml version="1.0" encoding="utf-8"?>
<!-- Generator: Adobe Illustrator 15.0.0, SVG Export Plug-In . SVG Version: 6.00 Build 0)  -->
<!DOCTYPE svg PUBLIC "-//W3C//DTD SVG 1.1//EN" "http://www.w3.org/Graphics/SVG/1.1/DTD/svg11.dtd">
<svg version="1.1" id="Layer_1" xmlns="http://www.w3.org/2000/svg" xmlns:xlink="http://www.w3.org/1999/xlink" x="0px" y="0px"
	 width="120.164px" height="23.164px" viewBox="0.245 -0.5 120.164 23.164" enable-background="new 0.245 -0.5 120.164 23.164"
	 xml:space="preserve">
<path fill="#FFFFFF" stroke="#010101" d="M119.909,11.074c0.008,6.062-3.357,10.982-7.515,10.986L8.284,22.164
	c-4.156,0.004-7.532-4.91-7.539-10.975v-0.102C0.737,5.023,4.102,0.104,8.258,0.1L112.37,0c4.155-0.004,7.53,4.91,7.537,10.973
	v0.104L119.909,11.074L119.909,11.074z"/>
<g enable-background="new    ">
	<path fill="#010101" d="M41.79,9.306c0,0.858-0.136,1.646-0.408,2.363c-0.272,0.717-0.656,1.334-1.152,1.852
		s-1.092,0.92-1.788,1.205c-0.696,0.285-1.465,0.428-2.308,0.428s-1.61-0.143-2.304-0.428s-1.288-0.688-1.784-1.205
		s-0.88-1.135-1.152-1.852c-0.272-0.717-0.408-1.505-0.408-2.363c0-0.859,0.136-1.647,0.408-2.364
		c0.272-0.718,0.656-1.336,1.152-1.856c0.496-0.52,1.091-0.924,1.784-1.212s1.461-0.432,2.304-0.432s1.612,0.144,2.308,0.432
		c0.696,0.288,1.292,0.692,1.788,1.212c0.496,0.521,0.88,1.139,1.152,1.856C41.654,7.658,41.79,8.446,41.79,9.306z M40.198,9.306
		c0-0.704-0.096-1.337-0.288-1.896c-0.192-0.56-0.464-1.033-0.816-1.42c-0.352-0.387-0.779-0.684-1.28-0.892
		s-1.062-0.312-1.68-0.312c-0.613,0-1.17,0.104-1.672,0.312s-0.929,0.505-1.284,0.892c-0.355,0.387-0.628,0.86-0.82,1.42
		S32.07,8.602,32.07,9.306c0,0.703,0.096,1.334,0.288,1.892s0.465,1.029,0.82,1.416c0.354,0.387,0.782,0.684,1.284,0.889
		s1.059,0.309,1.672,0.309c0.619,0,1.179-0.104,1.68-0.309s0.928-0.502,1.28-0.889c0.352-0.387,0.624-0.858,0.816-1.416
		C40.102,10.64,40.198,10.009,40.198,9.306z"/>
</g>
<g enable-background="new    ">
	<path fill="#010101" d="M45.144,10.447c0.303,0,0.587,0.045,0.85,0.135c0.263,0.091,0.491,0.222,0.683,0.393
		c0.191,0.172,0.342,0.381,0.453,0.628c0.11,0.246,0.165,0.526,0.165,0.84c0,0.266-0.04,0.514-0.12,0.74s-0.188,0.443-0.325,0.652
		c-0.137,0.207-0.294,0.41-0.473,0.604c-0.178,0.195-0.367,0.395-0.567,0.598l-1.885,1.932c0.133-0.037,0.268-0.066,0.405-0.088
		s0.269-0.033,0.395-0.033h2.4c0.097,0,0.173,0.029,0.23,0.086s0.085,0.129,0.085,0.219v0.541h-4.78v-0.305
		c0-0.064,0.013-0.129,0.038-0.195s0.065-0.129,0.123-0.186l2.295-2.305c0.19-0.193,0.363-0.379,0.52-0.559
		c0.157-0.178,0.291-0.357,0.402-0.537s0.198-0.361,0.257-0.547c0.06-0.186,0.09-0.383,0.09-0.592c0-0.211-0.034-0.395-0.1-0.553
		c-0.067-0.158-0.158-0.289-0.275-0.393s-0.253-0.181-0.41-0.232s-0.325-0.078-0.505-0.078c-0.18,0-0.347,0.027-0.5,0.08
		c-0.153,0.054-0.289,0.128-0.408,0.223c-0.118,0.096-0.218,0.208-0.3,0.338s-0.139,0.274-0.172,0.43
		c-0.027,0.096-0.067,0.166-0.12,0.209c-0.053,0.045-0.124,0.066-0.21,0.066c-0.017,0-0.034-0.002-0.053-0.004
		c-0.018,0-0.039-0.004-0.062-0.006l-0.465-0.08c0.046-0.328,0.137-0.617,0.27-0.869c0.133-0.251,0.302-0.462,0.507-0.632
		s0.44-0.3,0.705-0.388C44.551,10.491,44.837,10.447,45.144,10.447z"/>
</g>
<g enable-background="new    ">
	<path fill="#010101" d="M89.472,12.482c0.085,0,0.163,0.035,0.231,0.105l0.608,0.664c-0.47,0.543-1.038,0.967-1.708,1.271
		c-0.67,0.303-1.477,0.455-2.42,0.455c-0.826,0-1.576-0.143-2.248-0.428s-1.246-0.686-1.721-1.199
		c-0.475-0.516-0.842-1.133-1.104-1.852c-0.262-0.721-0.392-1.513-0.392-2.376c0-0.864,0.14-1.656,0.42-2.376
		c0.28-0.721,0.673-1.339,1.18-1.856s1.113-0.919,1.82-1.204c0.706-0.285,1.486-0.428,2.34-0.428c0.843,0,1.569,0.131,2.181,0.392
		c0.609,0.262,1.152,0.616,1.627,1.064l-0.504,0.712c-0.037,0.053-0.08,0.098-0.128,0.132c-0.048,0.035-0.117,0.052-0.208,0.052
		c-0.069,0-0.143-0.025-0.22-0.076c-0.077-0.05-0.169-0.113-0.276-0.188c-0.106-0.075-0.231-0.154-0.375-0.24
		c-0.145-0.085-0.315-0.165-0.513-0.24c-0.197-0.074-0.427-0.137-0.688-0.188c-0.261-0.051-0.562-0.076-0.903-0.076
		c-0.614,0-1.175,0.105-1.685,0.316c-0.509,0.21-0.947,0.511-1.315,0.899c-0.368,0.39-0.655,0.864-0.86,1.424
		c-0.205,0.561-0.308,1.188-0.308,1.881c0,0.714,0.103,1.352,0.308,1.911c0.205,0.561,0.485,1.034,0.84,1.42
		c0.355,0.387,0.775,0.682,1.26,0.885c0.486,0.201,1.009,0.303,1.568,0.303c0.342,0,0.648-0.02,0.92-0.059
		c0.272-0.041,0.524-0.104,0.756-0.189c0.232-0.084,0.448-0.193,0.648-0.324c0.2-0.129,0.401-0.285,0.604-0.467
		C89.299,12.523,89.387,12.482,89.472,12.482z"/>
	<path fill="#010101" d="M103,9.123c0,0.858-0.137,1.646-0.408,2.363c-0.272,0.718-0.656,1.335-1.152,1.853
		s-1.092,0.918-1.788,1.203s-1.466,0.428-2.308,0.428c-0.844,0-1.611-0.143-2.305-0.428s-1.287-0.686-1.783-1.203
		s-0.881-1.135-1.152-1.853c-0.271-0.717-0.408-1.505-0.408-2.363c0-0.859,0.137-1.647,0.408-2.364
		c0.271-0.718,0.656-1.336,1.152-1.856c0.496-0.52,1.09-0.924,1.783-1.212s1.461-0.432,2.305-0.432c0.842,0,1.611,0.144,2.308,0.432
		s1.292,0.692,1.788,1.212c0.496,0.521,0.88,1.139,1.152,1.856C102.863,7.476,103,8.264,103,9.123z M101.408,9.123
		c0-0.704-0.097-1.337-0.289-1.896c-0.191-0.56-0.464-1.033-0.815-1.42c-0.353-0.387-0.778-0.684-1.28-0.892
		s-1.062-0.312-1.68-0.312c-0.613,0-1.171,0.104-1.672,0.312c-0.502,0.208-0.93,0.505-1.284,0.892s-0.628,0.86-0.82,1.42
		s-0.288,1.192-0.288,1.896c0,0.703,0.096,1.334,0.288,1.892s0.466,1.029,0.82,1.417c0.354,0.387,0.782,0.682,1.284,0.887
		c0.501,0.207,1.059,0.309,1.672,0.309c0.618,0,1.178-0.102,1.68-0.309c0.502-0.205,0.928-0.5,1.28-0.887
		c0.352-0.387,0.624-0.859,0.815-1.417C101.312,10.457,101.408,9.826,101.408,9.123z"/>
</g>
<g enable-background="new    ">
	<path fill="#010101" d="M106.713,10.265c0.304,0,0.588,0.045,0.851,0.135c0.263,0.091,0.491,0.222,0.683,0.393
		c0.191,0.172,0.342,0.381,0.453,0.628c0.109,0.246,0.164,0.526,0.164,0.839c0,0.268-0.039,0.514-0.119,0.74
		s-0.189,0.445-0.326,0.652c-0.137,0.209-0.293,0.41-0.473,0.605c-0.178,0.195-0.367,0.395-0.566,0.598l-1.885,1.93
		c0.133-0.037,0.268-0.066,0.404-0.088s0.269-0.031,0.395-0.031h2.4c0.097,0,0.174,0.027,0.23,0.084s0.084,0.131,0.084,0.221v0.539
		h-4.779v-0.305c0-0.062,0.013-0.129,0.037-0.195c0.025-0.066,0.066-0.127,0.123-0.184l2.295-2.307
		c0.189-0.193,0.363-0.379,0.52-0.557c0.157-0.178,0.291-0.357,0.402-0.537c0.112-0.18,0.198-0.363,0.258-0.549
		c0.061-0.184,0.09-0.381,0.09-0.592c0-0.209-0.033-0.394-0.1-0.552s-0.158-0.289-0.275-0.393c-0.116-0.104-0.253-0.181-0.41-0.232
		c-0.156-0.052-0.324-0.078-0.504-0.078c-0.181,0-0.348,0.027-0.5,0.08c-0.154,0.054-0.289,0.128-0.408,0.223
		c-0.118,0.096-0.219,0.208-0.3,0.338s-0.14,0.273-0.173,0.429c-0.026,0.098-0.066,0.168-0.119,0.211
		c-0.054,0.043-0.124,0.064-0.211,0.064c-0.016,0-0.033,0-0.053-0.002c-0.018-0.002-0.039-0.004-0.062-0.008l-0.465-0.08
		c0.047-0.327,0.137-0.616,0.271-0.868c0.134-0.251,0.302-0.462,0.507-0.632s0.44-0.3,0.705-0.388
		C106.121,10.309,106.406,10.265,106.713,10.265z"/>
</g>
<circle fill="#F1E91A" stroke="#010101" cx="18.417" cy="11.081" r="5.667"/>
<circle fill="#8F72B3" stroke="#010101" cx="68.167" cy="10.32" r="5.668"/>
</svg>
