<?xml version="1.0" encoding="UTF-8" standalone="no"?>
<!-- Created with Inkscape (http://www.inkscape.org/) -->

<svg
   xmlns:dc="http://purl.org/dc/elements/1.1/"
   xmlns:cc="http://creativecommons.org/ns#"
   xmlns:rdf="http://www.w3.org/1999/02/22-rdf-syntax-ns#"
   xmlns:svg="http://www.w3.org/2000/svg"
   xmlns="http://www.w3.org/2000/svg"
   version="1.1"
   width="239"
   height="44"
   viewBox="0 0 239.41 44.406"
   id="svg6148">
  <defs
     id="defs6186" />
  <metadata
     id="metadata6150">
    <rdf:RDF>
      <cc:Work
         rdf:about="">
        <dc:format>image/svg+xml</dc:format>
        <dc:type
           rdf:resource="http://purl.org/dc/dcmitype/StillImage" />
        <dc:title></dc:title>
      </cc:Work>
    </rdf:RDF>
  </metadata>
  <g
     transform="translate(-1.96875,-1007.9687)"
     id="g6152">
    <rect
       width="239"
       height="44"
       rx="4"
       ry="4"
       x="2.1643"
       y="1008.2"
       id="rect6154"
       style="fill:#f9f9f9;stroke:#333333;stroke-width:0.40000001;stroke-miterlimit:4;stroke-dasharray:none" />
    <text
       x="11.147573"
       y="1026.3506"
       id="text6156"
       xml:space="preserve"
       style="font-size:13px;font-style:normal;font-weight:normal;line-height:125%;letter-spacing:0px;word-spacing:0px;fill:#333333;font-family:Sans"><tspan
         x="11.147573"
         y="1026.3506"
         id="tspan6158"
         style="font-size:14px;font-style:normal;font-variant:normal;font-weight:bold;font-stretch:normal;fill:#333333;font-family:Arial">Your goal:</tspan></text>
    <text
       x="12.207073"
       y="1043.8268"
       id="text6160"
       xml:space="preserve"
       style="font-size:11px;font-style:normal;font-variant:normal;font-weight:normal;font-stretch:normal;line-height:125%;letter-spacing:0px;word-spacing:0px;fill:#333333;font-family:Arial"><tspan
         x="12.207073"
         y="1043.8268"
         id="tspan6162"
         style="font-size:12px;fill:#333333">To get atoms to react to form molecules</tspan></text>
    <path
       d="m 105.99,1022 a 9.344,9.344 0 0 1 -18.688,0 9.344,9.344 0 1 1 18.688,0 z"
       id="path6164"
       style="fill:#008000;stroke:#333333;stroke-width:0.60000002;stroke-miterlimit:4;stroke-dasharray:none" />
    <path
       d="m 140.15,1021.7 a 9.344,9.344 0 0 1 -18.688,0 9.344,9.344 0 1 1 18.688,0 z"
       id="path6166"
       style="fill:#008000;stroke:#333333;stroke-width:0.60000002;stroke-miterlimit:4;stroke-dasharray:none" />
    <rect
       width="19.698"
       height="4"
       x="192.21001"
       y="1020.1"
       id="rect6168"
       style="fill:#008000;stroke:#333333;stroke-width:0.40000001;stroke-miterlimit:4;stroke-dasharray:none" />
    <path
       d="m 196.62,1022.1 a 9.344,9.344 0 0 1 -18.688,0 9.344,9.344 0 1 1 18.688,0 z"
       id="path6170"
       style="fill:#008000;stroke:#333333;stroke-width:0.60000002;stroke-miterlimit:4;stroke-dasharray:none" />
    <path
       d="m 222.89,1022.1 a 9.344,9.344 0 0 1 -18.688,0 9.344,9.344 0 1 1 18.688,0 z"
       id="path6172"
       style="fill:#008000;stroke:#333333;stroke-width:0.60000002;stroke-miterlimit:4;stroke-dasharray:none" />
    <path
       d="m 109.66,1022.1 8.4723,0"
       id="path6174"
       style="fill:none;stroke:#333333;stroke-width:1px;stroke-linecap:butt;stroke-linejoin:miter" />
    <path
       d="m 113.99,1018.1 v 8.1923"
       id="path6176"
       style="fill:none;stroke:#333333;stroke-width:1.04739428px;stroke-linecap:butt;stroke-linejoin:miter" />
    <g
       transform="translate(3.5987264,0.18940665)"
       id="g6178"
       style="fill:#333333">
      <path
         d="m 139.34,1021.1 0,1 29.812,0 0,-1 -29.812,0 z"
         id="path6180"
         style="text-indent:0;text-align:start;text-transform:none;direction:ltr;block-progression:tb;baseline-shift:baseline;color:#000000;enable-background:accumulate" />
      <path
         d="m 158.46,1017.2 12.019,4.4195 -12.019,4.4195 c 1.92,-2.6093 1.909,-6.1792 0,-8.839 z"
         id="path6182"
         style="fill-rule:evenodd;stroke-width:0.625;stroke-linejoin:round" />
    </g>
  </g>
</svg>
