<!-- Created with Inkscape (http://www.inkscape.org/) -->
<svg xmlns:rdf="http://www.w3.org/1999/02/22-rdf-syntax-ns#" xmlns="http://www.w3.org/2000/svg" height="100%" width="100%" version="1.1" xmlns:cc="http://creativecommons.org/ns#" xmlns:dc="http://purl.org/dc/elements/1.1/" viewBox="0 0 239.41 44.406">
<metadata>
<rdf:RDF>
<cc:Work rdf:about="">
<dc:format>image/svg+xml</dc:format>
<dc:type rdf:resource="http://purl.org/dc/dcmitype/StillImage"/>
<dc:title/>
</cc:Work>
</rdf:RDF>
</metadata>
<g transform="translate(-1.96875,-1007.9687)">
<rect rx="4" ry="4" height="44" width="239" stroke="#333" stroke-dasharray="none" x="2.1643" y="1008.2" stroke-miterlimit="4" stroke-width="0.4" fill="#f9f9f9"/>
<text style="word-spacing:0px;letter-spacing:0px;" font-weight="normal" xml:space="preserve" font-size="13px" line-height="125%" y="1026.3506" x="11.147573" font-family="Sans" font-style="normal" fill="#333333"><tspan font-size="14px" font-family="Arial" font-stretch="normal" font-variant="normal" y="1026.3506" x="11.147573" font-weight="bold" font-style="normal" fill="#333333">Your goal:</tspan></text>
<text style="word-spacing:0px;letter-spacing:0px;" font-family="Arial" xml:space="preserve" font-size="11px" font-style="normal" font-stretch="normal" font-variant="normal" y="1043.8268" x="12.207073" font-weight="normal" line-height="125%" fill="#333333"><tspan y="1043.8268" x="12.207073" font-size="12px" fill="#333333">To get atoms to react to form molecules</tspan></text>
<path d="m105.99,1022a9.344,9.344,0,0,1,-18.688,0,9.344,9.344,0,1,1,18.688,0z" stroke="#333" stroke-miterlimit="4" stroke-dasharray="none" stroke-width="0.60000002" fill="#008000"/>
<path d="m140.15,1021.7a9.344,9.344,0,0,1,-18.688,0,9.344,9.344,0,1,1,18.688,0z" stroke="#333" stroke-miterlimit="4" stroke-dasharray="none" stroke-width="0.60000002" fill="#008000"/>
<rect height="4" width="19.698" stroke="#333" stroke-dasharray="none" x="192.21" y="1020.1" stroke-miterlimit="4" stroke-width="0.4" fill="#008000"/>
<path d="m196.62,1022.1a9.344,9.344,0,0,1,-18.688,0,9.344,9.344,0,1,1,18.688,0z" stroke="#333" stroke-miterlimit="4" stroke-dasharray="none" stroke-width="0.60000002" fill="#008000"/>
<path d="m222.89,1022.1a9.344,9.344,0,0,1,-18.688,0,9.344,9.344,0,1,1,18.688,0z" stroke="#333" stroke-miterlimit="4" stroke-dasharray="none" stroke-width="0.60000002" fill="#008000"/>
<path stroke-linejoin="miter" d="m109.66,1022.1,8.4723,0" stroke="#333" stroke-linecap="butt" stroke-width="1px" fill="none"/>
<path stroke-linejoin="miter" d="m113.99,1018.1v8.1923" stroke="#333" stroke-linecap="butt" stroke-width="1.04739428px" fill="none"/>
<g transform="translate(3.5987264,0.18940665)" fill="#333">
<path style="direction:ltr;baseline-shift:baseline;block-progression:tb;text-indent:0;color:#000000;enable-background:accumulate;text-transform:none;text-align:start;" d="m139.34,1021.1,0,1,29.812,0,0-1-29.812,0z"/>
<path stroke-linejoin="round" stroke-width="0.625" d="m158.46,1017.2,12.019,4.4195-12.019,4.4195c1.92-2.6093,1.909-6.1792,0-8.839z" fill-rule="evenodd"/>
</g>
</g>
</svg>
