<?xml version="1.0" encoding="UTF-8" standalone="no"?>
<!-- Created with Inkscape (http://www.inkscape.org/) -->

<svg
   xmlns:dc="http://purl.org/dc/elements/1.1/"
   xmlns:cc="http://creativecommons.org/ns#"
   xmlns:rdf="http://www.w3.org/1999/02/22-rdf-syntax-ns#"
   xmlns:svg="http://www.w3.org/2000/svg"
   xmlns="http://www.w3.org/2000/svg"
   version="1.1"
   width="54.25"
   height="21.049999"
   viewBox="0 0 54.250001 21.049999"
   id="Selected_Items"
   xml:space="preserve"><metadata
     id="metadata154"><rdf:RDF><cc:Work
         rdf:about=""><dc:format>image/svg+xml</dc:format><dc:type
           rdf:resource="http://purl.org/dc/dcmitype/StillImage" /><dc:title></dc:title></cc:Work></rdf:RDF></metadata><defs
     id="defs152" /><g
     transform="translate(-7.95,-54.1)"
     id="g60"><path
       d="m 33.7,69.2 c 1,-1.267 1.6,-2.534 1.8,-3.8 h -7.2 v -1.5 h 7.25 c -0.167,-1.333 -0.783,-2.667 -1.85,-4 l 7.35,4.65 -7.35,4.65 z"
       id="path62"
       style="fill:#828a8b;fill-rule:evenodd" /></g><g
     transform="translate(-7.95,-54.1)"
     id="g72"><g
       id="g74"><path
         d="m 57.3,73.05 h -0.45 c 0.066,-0.133 0.15,-0.3 0.25,-0.5 0.833,-1.966 2.117,-5.15 3.85,-9.55 l -4.75,-5.65 -3.65,4.1 c -0.066,0 -0.1,-0.017 -0.1,-0.05 -0.167,-0.066 -0.284,-0.167 -0.35,-0.3 h -0.05 c -0.9,-0.934 -1.767,-1.883 -2.6,-2.85 l -0.7,-0.9 -4.7,5.65 c 1.767,4.5 3.05,7.683 3.85,9.55 0.067,0.2 0.133,0.367 0.2,0.5 h -0.3 -0.5 c -0.033,0 -0.05,-0.033 -0.05,-0.1 l -4.3,-9.6 c 0,-0.033 -0.017,-0.067 -0.05,-0.1 -0.066,-0.1 -0.1,-0.2 -0.1,-0.3 0,-0.167 0.05,-0.317 0.15,-0.45 l 5.55,-6.1 c 0.067,-0.066 0.15,-0.117 0.25,-0.15 0.1,-0.033 0.2,-0.033 0.3,0 0.1,0.033 0.2,0.083 0.3,0.15 l 3.1,3.5 3.2,-3.5 c 0.067,-0.066 0.15,-0.117 0.25,-0.15 0.1,-0.033 0.2,-0.033 0.3,0 0.1,0.033 0.2,0.083 0.3,0.15 l 5.55,6.1 c 0.1,0.133 0.15,0.283 0.15,0.45 0,0.1 -0.034,0.2 -0.1,0.3 -0.033,0.033 -0.05,0.067 -0.05,0.1 l -4.35,9.7 h -0.4 z"
         id="path76"
         style="fill:#278db0;fill-rule:evenodd" /><path
         d="m 57.3,73.05 c -0.033,0.034 -0.066,0.05 -0.1,0.05 -0.233,0.066 -2.717,0.066 -7.45,0 l 0.9,0.05 c -1.333,0 -2.15,0 -2.45,0 -0.167,0 -0.3,-0.033 -0.4,-0.1 h 0.3 C 48.033,72.917 47.967,72.75 47.9,72.55 47.1,70.683 45.817,67.5 44.05,63 l 4.7,-5.65 0.7,0.9 c 0.833,0.967 1.7,1.917 2.6,2.85 h 0.05 c 0.066,0.133 0.183,0.233 0.35,0.3 0,0.033 0.033,0.05 0.1,0.05 l 3.65,-4.1 4.75,5.65 c -1.733,4.4 -3.017,7.583 -3.85,9.55 -0.1,0.2 -0.184,0.367 -0.25,0.5 h 0.45 z"
         id="path78"
         style="fill:#99f0e3;fill-rule:evenodd" /></g><g
       id="g80"><polygon
         points="49.6,63.3 55.15,63.3 55.15,64.55 53.1,64.55 53.1,70.15 51.65,70.15 51.65,64.55 49.6,64.55 "
         id="polygon82"
         style="fill:#4a3217;fill-rule:evenodd" /></g></g><g
     transform="translate(-7.95,-54.1)"
     id="g136"><g
       id="g138"><path
         d="m 22.3,75.1 c -0.1,0.033 -0.183,0.033 -0.25,0 -0.066,-0.033 -0.1,-0.067 -0.1,-0.1 v -0.05 l 4.05,-9.9 -8.55,-9.3 -8.4,9.2 3.85,9.9 c 0.067,-0.033 0.117,-0.067 0.15,-0.1 0.1,0 0.133,0.033 0.1,0.1 -0.033,0.1 -0.083,0.167 -0.15,0.2 l -0.05,0.05 c -0.1,0.033 -0.2,0.033 -0.3,0 C 12.55,75.067 12.467,75 12.4,74.9 L 8.1,65.3 C 8.067,65.267 8.05,65.217 8.05,65.15 7.984,65.084 7.95,65 7.95,64.9 c 0,-0.1 0.033,-0.183 0.1,-0.25 l 9.4,-10.55 c 1.1,1.433 2.216,2.717 3.35,3.85 l 6.1,6.7 c 0.067,0.067 0.1,0.15 0.1,0.25 0,0.1 -0.033,0.184 -0.1,0.25 0,0.067 0,0.117 0,0.15 l -4.3,9.6 c -0.067,0.1 -0.133,0.167 -0.2,0.2 h -0.1 z"
         id="path140"
         style="fill:#278db0;fill-rule:evenodd" /><path
         d="m 21.95,74.95 -0.1,-0.1 c 0,0.066 0.033,0.117 0.1,0.15 0,0.033 0.033,0.067 0.1,0.1 0.067,0.033 0.15,0.033 0.25,0 v 0.05 h -4.15 c -0.133,0 -1.816,-0.017 -5.05,-0.05 L 13,75.05 c 0.067,-0.033 0.117,-0.1 0.15,-0.2 0.033,-0.067 0,-0.1 -0.1,-0.1 -0.033,0.033 -0.083,0.067 -0.15,0.1 l -3.85,-9.9 8.4,-9.2 8.55,9.3 -4.05,9.9 z"
         id="path142"
         style="fill:#a2d6ff;fill-rule:evenodd" /><path
         d="m 21.95,75 c -0.067,-0.033 -0.1,-0.083 -0.1,-0.15 l 0.1,0.1 V 75 z"
         id="path144"
         style="fill-rule:evenodd" /></g><g
       id="g146"><path
         d="m 16.55,68.6 h 1.75 l -0.9,-2.65 -0.85,2.65 z m 1.7,-4.25 0.05,0.05 2.35,6.8 H 19.1 l -0.45,-1.4 h -2.5 l -0.45,1.4 h -1.5 l 2.45,-6.85 h 1.6 z"
         id="path148"
         style="fill:#4a3217;fill-rule:evenodd" /></g></g></svg>