<?xml version="1.0" encoding="utf-8"?>
<!-- Generator: Adobe Illustrator 15.0.0, SVG Export Plug-In . SVG Version: 6.00 Build 0)  -->
<!DOCTYPE svg PUBLIC "-//W3C//DTD SVG 1.1//EN" "http://www.w3.org/Graphics/SVG/1.1/DTD/svg11.dtd">
<svg version="1.1" id="Selected_Items" xmlns="http://www.w3.org/2000/svg" xmlns:xlink="http://www.w3.org/1999/xlink" x="0px"
	 y="0px" width="720px" height="414.263px" viewBox="0 0 720 414.263" enable-background="new 0 0 720 414.263"
	 xml:space="preserve">
<g>
	<g>
		<g>
			<path fill-rule="evenodd" clip-rule="evenodd" fill="#FFBF25" fill-opacity="0.3569" d="M535.452,70.488
				c7.8-5.338,18.164-11.109,31.093-17.314c14.837-7.141,25.281-10.832,31.336-11.075c-27.938,9.509-48.99,19.793-63.156,30.851
				c-13.438,10.48-20.157,21.237-20.157,32.271c0,1.641,0.734,3.64,2.201,5.997c1.537,2.461,3.6,4.876,6.188,7.245
				c0.023,0.012,0.041,0.029,0.052,0.052c5.42,4.968,11.693,8.319,18.822,10.052c1.583,0.404,3.143,0.873,4.68,1.404
				c7.545,2.635,15.327,4.142,23.346,4.523c14.836,1.063,41.146,1.624,78.929,1.681l0.156,0.624
				c-8.955,0.381-15.691,0.67-20.209,0.867c-8.169,0.347-12.577,0.52-13.224,0.52c-17.633,0-32.85-0.757-45.652-2.271
				c-0.624-0.069-1.236-0.139-1.837-0.208c-7.856-0.901-15.587-2.444-23.189-4.627c-7.95-2.265-15.224-5.875-21.821-10.833
				c-0.981-0.82-1.929-1.681-2.842-2.583c-2.254-2.23-4.021-4.471-5.304-6.725c-1.236-2.207-1.854-4.159-1.854-5.858
				c0-5.939,1.635-11.629,4.904-17.072C521.645,81.76,527.491,75.919,535.452,70.488z M313.225,76.139
				c3.351,1.987,6.523,4.223,9.515,6.707c3.709,3.12,6.286,6.944,7.73,11.474c2.588,8.134,1.439,15.737-3.449,22.809
				c-4.645,7.129-12.612,15.021-23.9,23.675c-13.831,10.583-33.196,22.658-58.096,36.223c-13.056,7.083-23.732,13.207-32.029,18.372
				c-10.746,6.667-19.204,12.71-25.374,18.128c-8.1,7.095-13.334,13.415-15.703,18.961c-1.086,2.508-1.808,5.281-2.167,8.319
				c-0.266,2.138-0.398,5.217-0.398,9.238c0,6.782,1.537,13.045,4.61,18.787c4.31,8.054,11.104,13.502,20.382,16.344
				c11.115,3.397,17.5,5.361,19.152,5.893c6.274,2.046,11.19,3.935,14.749,5.668c4.264,2.068,7.424,4.287,9.48,6.655
				c2.23,2.565,3.345,5.518,3.345,8.856c0,3.051-1.577,7.378-4.731,12.981c-3.201,5.615-5.777,8.556-7.729,8.822
				c0.612-1.145,1.629-2.825,3.05-5.044c1.722-2.715,2.877-4.575,3.466-5.581c2.727-4.645,4.09-8.371,4.09-11.179
				c0-3.489-1.317-6.441-3.951-8.856c-2.265-2.103-5.899-4.125-10.902-6.065c-2.473-0.959-7.979-2.803-16.517-5.529
				c-8.285-2.635-15.183-5.049-20.694-7.245c-3.871-1.548-7.389-4.193-10.555-7.938c-2.588-3.039-4.483-6.17-5.685-9.394
				c-2.288-6.078-3.49-9.452-3.605-10.122c-0.093-0.52-0.104-1.312-0.035-2.374c0.104-1.676,0.156-3.207,0.156-4.593
				c0-7.499,1.034-13.883,3.103-19.152c2.23-5.661,6.049-11.092,11.456-16.291c5.269-5.107,12.895-10.781,22.878-17.02
				c8.689-5.442,21.167-12.531,37.437-21.266c24.021-12.941,43.346-24.871,57.975-35.79c11.693-8.735,20.012-16.563,24.958-23.484
				c2.218-2.958,3.755-6.233,4.61-9.827c1.144-4.887,0.705-9.654-1.317-14.298c-1.294-2.923-3.062-5.558-5.304-7.903
				c-5.199-5.454-11.277-9.648-18.233-12.583c-17.829-4.98-36.09-6.02-54.785-3.12c-10.237,1.595-20.498,3.154-30.781,4.68
				c-5.269,0.786-11.358,1.704-18.268,2.755c-3.836,0.589-8.868,1.179-15.096,1.768c-3.467,0.324-8.666,0.814-15.599,1.473
				c-12.294,1.271-21.093,3.004-26.396,5.2l-0.936-0.312c3.975-2.357,12.236-4.241,24.784-5.65
				c15.379-1.363,26.818-2.547,34.317-3.553c1.652-0.208,7.383-1.057,17.193-2.548c19.146-3.755,38.47-5.737,57.975-5.945
				c9.486-0.104,18.684,1.491,27.592,4.784C307.812,73.181,310.556,74.544,313.225,76.139z"/>
			<path fill-rule="evenodd" clip-rule="evenodd" fill="#FFE900" fill-opacity="0.3569" d="M426.228,323.444
				c14.259-20.972,32.162-38.17,53.711-51.597c21.33-13.299,44.046-23.554,68.148-30.764c23.144-6.933,46.646-8.516,70.506-4.748
				c2.877,0.427,5.754,0.895,8.631,1.403c-30.527-3.951-60.43-1.225-89.709,8.181c-21.434,6.897-41.451,16.685-60.055,29.359
				c-19.423,13.276-36.147,29.337-50.175,48.183L426.228,323.444z"/>
			<g>
				<path fill-rule="evenodd" clip-rule="evenodd" fill="#FFBF25" d="M707.729,116.504c0.485,0.439-0.063,0.647-1.646,0.624
					c-20.013-7.892-41.134-13.363-63.365-16.413c-24.691-3.42-49.689-4.72-74.994-3.899c-16.615,0.485-34.322,2.507-53.121,6.066
					c-6.263,1.398-12.664,3.033-19.204,4.905c-10.78,3.097-21.335,6.638-31.665,10.625c1.063,0.381,2.138,0.774,3.224,1.178
					c10.146,3.802,19.47,8.198,27.974,13.189c7.58,4.449,13.889,9.001,18.927,13.658c11.797,10.884,19.937,21.226,24.42,31.023
					c3.79,8.308,5.685,18.21,5.685,29.707c0,20.972-11.312,37.749-33.936,50.331c-8.492,4.691-18.238,8.603-29.238,11.733
					c-8.608,2.438-17.152,4.178-25.634,5.218c-7.983,0.993-17.152,2.519-27.505,4.575c-11.162,1.641-22.017,3.935-32.566,6.881
					c-3.178,0.484-6.239,1.092-9.186,1.819c-27.823,6.459-43.081,21.602-45.773,45.427c-0.659,5.766,0.358,11.369,3.051,16.812
					c1.086,2.184,2.316,4.299,3.691,6.344c0.162,0.242,0.329,0.485,0.502,0.728c0.324,0.451,0.659,0.896,1.005,1.335
					c6.136,7.776,15.616,14.634,28.441,20.572c24.784,11.509,65.254,20.596,121.408,27.263c-0.127,0.301-0.248,0.525-0.363,0.676
					c-0.162,0.186-0.388,0.324-0.677,0.416c-23.964-0.751-47.009-3.64-69.136-8.665c-16.766-3.802-34.259-9.187-52.48-16.153
					c-3.686-1.41-7.973-3.594-12.86-6.552c-4.333-2.623-7.256-4.656-8.77-6.101c-1.987-1.86-5.401-6.072-10.243-12.635
					c-0.035-0.046-0.069-0.099-0.104-0.156c-0.162-0.242-0.312-0.485-0.451-0.728c-13.403-25.582-7.244-46.224,18.476-61.927
					c7.406-4.494,15.5-7.631,24.282-9.411c3.038-0.682,6.101-1.276,9.186-1.785c10.792-2.392,21.647-4.61,32.566-6.655
					c6.031-1.189,12.479-2.426,19.342-3.709c12.248-2.288,18.458-3.454,18.632-3.501c7.083-1.421,13.259-2.905,18.527-4.454
					c13.819-4.09,25.686-9.954,35.6-17.592c8.966-6.897,14.911-13.778,17.834-20.642c1.225-2.946,2.057-6.176,2.496-9.688
					c0.312-2.53,0.468-5.91,0.468-10.139c0-11.081-2.017-20.746-6.049-28.996c-4.24-8.689-12.161-18.903-23.762-30.642
					c-3.905-3.952-11.508-8.943-22.809-14.975c-9.972-5.338-19.048-9.539-27.228-12.601c-8.562,3.397-16.963,7.101-25.201,11.11
					c-34.328,16.731-64.52,32.491-90.575,47.281c-11.092,6.274-25.761,14.177-44.005,23.71c-9.59,5.003-24.865,12.86-45.825,23.571
					c-14.767,7.568-33.554,14.518-56.363,20.85c-28.354,7.846-57.015,12.733-85.982,14.663c-4.021,0.196-8.042,0.363-12.063,0.502
					H63.684c-17.886-0.462-32.688-2.611-44.404-6.447c-9.59-3.131-15.46-6.685-17.609-10.659c0.185-0.369,0.474-0.646,0.867-0.832
					c0.589-0.288,1.508-0.433,2.755-0.433c0.081,0,2.605,1.282,7.574,3.848c5.142,2.634,8.221,4.107,9.238,4.419
					c1.953,0.59,4.136,1.19,6.551,1.803c3.721,0.913,6.869,1.525,9.446,1.837c1.872,0.231,6.343,0.515,13.415,0.85
					c6.887,0.301,10.665,0.503,11.335,0.606l38.944-0.173c3.64-0.081,7.291-0.196,10.954-0.347
					c28.794-1.549,57.859-6.627,87.196-15.234c12.028-3.524,23.508-7.487,34.438-11.89c8.712-3.501,16.096-6.863,22.15-10.087
					c33.924-18.037,63.873-33.826,89.848-47.368c8.458-4.426,22.769-12.132,42.931-23.121c19.181-10.214,36.298-18.638,51.354-25.27
					c4.333-1.918,8.631-3.75,12.896-5.494c-2.138-0.589-4.478-1.162-7.02-1.716c-2.346-0.52-6.649-1.352-12.912-2.496
					c-1.872-0.89-5.702-1.71-11.491-2.461c-11.416-1.514-28.528-2.271-51.336-2.271c-9.21,0-21.076,0.705-35.6,2.114
					c-12.953,1.236-23.785,2.588-32.497,4.056c-10.18,1.583-17.661,2.762-22.444,3.536c-8.377,1.34-14.594,2.56-18.649,3.657
					c-9.821,2.634-19.024,4.847-27.609,6.638c-16.095,3.178-32.803,6.482-50.123,9.914l-20.694-0.19
					c-17.991,0.196-30.342-3.79-37.056-11.959c-3.663-4.426-5.494-10.139-5.494-17.141c0-6.575,1.779-13.005,5.338-19.29
					c2.496-4.46,6.396-9.562,11.699-15.304c1.409-1.525,3.495-3.744,6.256-6.655c2.311-2.496,4.119-4.593,5.425-6.292
					c3.559-4.599,5.338-8.724,5.338-12.375c0-3.547-0.803-6.424-2.409-8.631c-2.6-3.594-7.383-6.049-14.351-7.366l-21.023,0.191
					c-12.144,2.253-21.012,3.888-26.604,4.905c-9.567,1.745-17.742,3.108-24.524,4.09c-6.551,0.97-13.328,2.975-20.33,6.014
					c-1.768,0.762-4.16,1.802-7.175,3.12c-2.392,0.982-4.437,1.606-6.136,1.872c5.454-4.552,16.771-8.828,33.953-12.825
					c6.413-1.502,14.691-3.207,24.836-5.113c5.846-1.098,14.853-2.756,27.02-4.975c12.167-1.837,21.942-0.976,29.325,2.583
					c7.152,3.443,10.729,8.735,10.729,15.876c0,3.952-1.791,8.308-5.373,13.068c-1.352,1.779-5.304,6.181-11.855,13.207
					c-5.419,5.8-9.371,10.815-11.855,15.044c-3.593,6.124-5.39,12.323-5.39,18.597c0,6.54,1.641,11.78,4.922,15.72
					c6.159,7.383,17.736,11.173,34.733,11.369l21.942-0.173c21.133-3.732,37.927-7.146,50.383-10.243
					c3.362-0.844,7.972-2.034,13.831-3.57c5.384-1.363,10.786-2.611,16.205-3.744c19.076-4.044,40.897-7.199,65.462-9.463
					c21.087-1.93,40.117-2.895,57.091-2.895c24.01,0,46.864,3.443,68.563,10.33c20.128-8.077,39.441-14.212,57.94-18.406
					c18.383-3.559,36.09-5.731,53.121-6.517c31.775-2.184,63.007-0.601,93.695,4.749C681.64,99.409,697.076,106.29,707.729,116.504z
					"/>
			</g>
		</g>
		<g>
			<path fill-rule="evenodd" clip-rule="evenodd" fill="#FFE900" d="M684.072,7.904h-37.836c-16.096,1.791-26.506,2.981-31.231,3.57
				c-8.631,1.063-15.858,2.137-21.683,3.224c-6.25,1.144-12.842,2.64-19.775,4.489c-6.181,1.652-14.662,4.136-25.442,7.453
				c-9.278,2.831-18.533,6.355-27.766,10.572c-5.766,2.611-13.374,6.43-22.825,11.456c-1.918,1.005-3.721,1.959-5.408,2.86
				c-6.852,3.559-12.04,6.147-15.563,7.765c-4.783,2.207-9.451,4.09-14.004,5.65c-12.121,2.646-23.912,2.172-35.374-1.421
				c-0.416-0.139-0.814-0.312-1.196-0.52c-4.587-2.692-7.851-5.783-9.792-9.272c-0.982-1.756-1.849-4.09-2.6-7.002
				c-0.867-3.293-1.543-5.477-2.028-6.551c-0.196-0.451-0.52-1.265-0.971-2.444c-0.485-1.155-0.993-2.189-1.524-3.103
				c-0.394-0.635-0.838-1.259-1.335-1.872c-1.525-1.883-3.489-3.547-5.893-4.992c-9.232-5.558-25.391-8.336-48.477-8.336
				c-11.474,0-25.53,0.988-42.168,2.964c-11.092,1.317-21.965,2.883-32.618,4.697c-5.916,1.051-11.994,2.276-18.233,3.674
				c-5.8,1.306-10.965,2.583-15.495,3.831c-3.686,0.982-22.19,7.175-55.513,18.579c-9.972,3.397-19.695,7.262-29.169,11.595
				c-5.361,2.45-12.456,5.852-21.284,10.208c8.308-6.344,25.38-14.276,51.215-23.797c21.006-7.765,39.488-13.755,55.444-17.973
				c4.472-1.144,9.723-2.403,15.754-3.778c6.817-1.525,12.981-2.819,18.493-3.882c8.793-1.664,20.602-3.287,35.426-4.87
				c16.222-1.756,28.903-2.634,38.043-2.634c22.901,0,39.262,2.888,49.083,8.666c2.08,1.213,3.877,2.571,5.391,4.073
				c0.936,0.936,1.768,1.923,2.495,2.963c0.625,0.913,1.226,1.947,1.803,3.103c0.521,1.167,0.884,1.964,1.093,2.392
				c0.739,1.502,1.467,3.732,2.184,6.69c0.716,2.993,1.438,5.223,2.166,6.69c1.549,3.177,4.385,6.054,8.51,8.631
				c10.653,5.384,22.381,6.401,35.184,3.05c0.474-0.139,0.936-0.271,1.387-0.398c5.176-1.606,10.521-3.899,16.031-6.881
				c1.722-0.947,5.136-2.912,10.243-5.893c1.156-0.67,2.253-1.3,3.293-1.889c2.716-1.548,5.032-2.791,6.95-3.726
				c8.424-4.171,16.28-7.788,23.571-10.85c10.41-4.391,20.677-8.123,30.799-11.196c16.695-5.084,30.307-8.602,40.833-10.555
				c10.307-1.907,28.101-4.217,53.382-6.933V5.824h35.2c4.206,0.508,8.759,1.225,13.657,2.149c7.164,1.34,12.635,2.709,16.413,4.107
				l0.78,0.294c0.578,0.231,1.011,0.445,1.3,0.642c-1.49-0.185-6.626-1.034-15.407-2.548C690.883,8.943,685.712,8.088,684.072,7.904
				z M672.441,215.728c-10.55,5.822-20.796,13.05-30.737,21.683c-4.597,4.385-7.015,6.689-7.253,6.915
				c-9.578,8.839-18.313,16.223-26.205,22.15c-5.789,4.482-10.336,7.979-13.641,10.485c-6.02,4.541-11.474,8.331-16.361,11.369
				c-5.477,3.386-10.994,6.286-16.552,8.701c-12.871,5.592-25.708,8.284-38.511,8.076c-28.551,0.601-47.911-11.832-58.078-37.298
				c-0.475-1.121-0.954-2.241-1.439-3.362c-1.756-3.536-3.188-6.239-4.298-8.111c-3.097-5.223-6.431-9.694-10.001-13.414
				c-5.222-5.454-11.185-9.619-17.886-12.497c-8.481-3.686-15.078-6.025-19.793-7.019c-2.311-0.485-5.563-1.006-9.758-1.561
				c-5.777-0.728-10.78-1.381-15.009-1.958h-35.392c-29.984,2.681-56.455,8.608-79.414,17.782
				c-21.896,8.712-41.423,20.705-58.581,35.98c-1.583,1.41-3.155,2.837-4.714,4.281c3.05,3.073,6.06,6.21,9.03,9.411
				c18.141,19.688,32.474,41.734,43,66.138c6.401,14.882,9.244,30.469,8.527,46.761c-0.234,5.239-1.991,9.841-5.269,13.805
				c0.235-1.949,0.327-4.136,0.277-6.56c-0.116-2.543-0.173-3.998-0.173-4.368c0-7.036-0.075-11.202-0.226-12.496
				c-0.081-0.612-1.08-5.898-2.998-15.858c-0.385-1.976-0.974-3.902-1.768-5.78c-1.098-4.763-2.675-9.462-4.731-14.1
				c-12.236-27.604-28.748-52.035-49.534-73.295c-16.216,15.517-30.552,32.443-43.008,50.781l-8.935,13.952l0.641-0.832
				l-27.705,48.789c-4.911,7.495-9.761,14.156-14.55,19.983c2.785-4.46,6.234-10.278,10.347-17.453
				c0.493-0.866,0.972-1.71,1.438-2.53l36.293-61.909c4.611-7.437,9.712-14.692,15.304-21.769
				c8.585-10.861,18.146-21.041,28.684-30.538c-9.001-9.036-18.759-17.482-29.273-25.339c-3.455-2.589-6.95-5.137-10.485-7.644
				c-18.869-14.975-39.424-27.055-61.667-36.241c-23.375-9.671-47.703-15.714-72.984-18.129c-5.65-0.647-11.127-1.219-16.43-1.716
				l-0.052-2.6c12.756-1.606,25.547-1.277,38.373,0.988c21.954,3.94,42.873,10.774,62.758,20.503
				c35.171,17.216,66.415,39.435,93.729,66.658c1.999-1.744,4.033-3.455,6.101-5.13c10.122-8.238,19.821-15.194,29.1-20.867
				c11.485-7.061,23.062-12.646,34.733-16.76c7.961-2.785,19.059-5.714,33.294-8.788c15.333-3.315,29.21-5.638,41.631-6.967v-0.19
				h33.866c12.698,1.663,21.058,2.94,25.079,3.83c4.956,1.132,11.52,3.305,19.688,6.517c12.179,4.876,22.034,13.449,29.568,25.721
				c1.213,1.964,3.067,5.477,5.563,10.537c9.532,24.889,27.973,37.991,55.322,39.309c0.59,0,1.19,0,1.803,0
				c8.272,0.012,16.921-1.381,25.945-4.177c4.264-1.329,8.452-2.9,12.565-4.715c5.974-2.564,11.606-5.621,16.898-9.168
				c3.651-2.473,8.476-6.13,14.472-10.971c6.171-5.015,10.781-8.574,13.831-10.677c6.147-4.218,14.42-10.988,24.819-20.312
				c11.127-9.972,19.278-16.864,24.455-20.677h0.555c-2.266,2.163-4.357,4.162-6.274,5.996c6.705-5.391,13.603-10.169,20.694-14.333
				c13.287-7.811,27.754-13.825,43.398-18.042C696.204,203.994,682.171,210.344,672.441,215.728z"/>
			<g>
				<path fill-rule="evenodd" clip-rule="evenodd" fill="#FFE900" d="M717.228,155.015v8.094
					c-14.998,0.404-29.996,0.844-44.993,1.317c-0.023,0-0.081,0.006-0.174,0.017h-0.069c-46.125,1.19-92.164,2.421-138.116,3.692
					c-33.104,0.843-66.172,1.514-99.206,2.01c-0.186,0-0.364,0-0.538,0h-0.017c-0.196,0.012-0.364,0.029-0.503,0.052
					c-8.724,0.15-17.424,0.323-26.102,0.52c-0.012,0-0.04,0-0.087,0c-14.224,0.15-28.517,0.289-42.879,0.416h-0.138
					c-17.864,0.173-35.634,0.254-53.312,0.242h-0.018c-43.768-0.023-87.479-0.497-131.132-1.421h-0.139
					c-26.344-0.578-52.457-1.312-78.339-2.201c-28.54-1.005-57.091-2.091-85.653-3.258v-7.522
					c41.227,1.641,82.678,2.998,124.355,4.073c0.081,0,0.185,0,0.312,0l0.086,0.018c36.443,0.901,73.082,1.588,109.917,2.062
					c0.023,0,0.046,0,0.069,0h0.173c0.093,0,0.191,0,0.295,0c55.196,0.393,110.409,0.127,165.639-0.797c0.058,0,0.109,0,0.156,0
					h0.155c16.361-0.3,32.693-0.676,48.997-1.126c0.081-0.012,0.214-0.012,0.398,0c68.68-1.733,137.365-3.432,206.057-5.096
					L717.228,155.015z"/>
			</g>
		</g>
	</g>
</g>
</svg>
