<?xml version="1.0" encoding="utf-8"?>
<!-- Generator: Adobe Illustrator 15.0.0, SVG Export Plug-In . SVG Version: 6.00 Build 0)  -->
<!DOCTYPE svg PUBLIC "-//W3C//DTD SVG 1.1//EN" "http://www.w3.org/Graphics/SVG/1.1/DTD/svg11.dtd">
<svg version="1.1" id="Selected_Items" xmlns="http://www.w3.org/2000/svg" xmlns:xlink="http://www.w3.org/1999/xlink" x="0px"
	 y="0px" width="44.125px" height="44.55px" viewBox="0 0 44.125 44.55" enable-background="new 0 0 44.125 44.55"
	 xml:space="preserve">
<g transform="translate(0,44.55) scale(1,-1)">
	<path fill-rule="evenodd" clip-rule="evenodd" fill="#FFFF00" fill-opacity="0.0549" d="M43,20.9c-0.033-0.1-0.067-0.183-0.1-0.25
		c-0.333-0.8-0.8-1.533-1.4-2.2l-9-9.85c-0.1-0.1-0.183-0.184-0.25-0.25c-1.467-1.467-2.9-3.117-4.3-4.95
		c-0.067-0.033-0.1-0.083-0.1-0.15c-0.9-1.1-2.017-1.867-3.35-2.3c-0.1-0.034-0.167-0.067-0.2-0.1c-1.4-0.434-2.8-0.467-4.2-0.1
		s-2.6,1.083-3.6,2.15c-0.033,0.033-0.067,0.067-0.1,0.1L2.55,18.5l0.2-0.15c-0.667,0.667-1.167,1.417-1.5,2.25
		c-0.033,0.1-0.067,0.2-0.1,0.3L1,21.3c-0.033,0.067-0.067,0.133-0.1,0.2c-0.267,0.8-0.4,1.617-0.4,2.45c0,0.066,0,0.15,0,0.25
		c0.033,1.466,0.4,2.733,1.1,3.8l6.15,13.75c0.433,0.967,1.033,1.8,1.8,2.5c0.034,0,0.083,0.033,0.15,0.1L10,44.6l0.05,0.05
		c1.367,1.167,2.95,1.767,4.75,1.8h0.65c0.033,0,0.066,0,0.1,0l13.6,0.05c0.867,0,1.684-0.133,2.45-0.4
		c1.1-0.367,2.083-0.983,2.95-1.85c0.034,0,0.05-0.017,0.05-0.05l0.25-0.25c0.033-0.034,0.066-0.067,0.1-0.1
		c0.6-0.633,1.083-1.333,1.45-2.1V41.7l6.4-14.2c0.133-0.333,0.25-0.65,0.35-0.95c0.667-1.767,0.667-3.533,0-5.3v0.05L43,20.9z
		 M43.45,20.7l0.15,0.4c0.7,1.867,0.7,3.75,0,5.65V26.7L43.5,27c-0.033,0.033-0.05,0.067-0.05,0.1c-0.067,0.2-0.133,0.4-0.2,0.6
		L36.9,41.9c-0.033,0-0.05,0.017-0.05,0.05c-0.367,0.833-0.867,1.583-1.5,2.25c-0.067,0.033-0.117,0.066-0.15,0.1l-0.3,0.3l0.1-0.05
		c-0.967,0.967-2.033,1.633-3.2,2l-0.75,0.2c-0.1,0.033-0.2,0.067-0.3,0.1c-0.5,0.1-1.033,0.15-1.6,0.15L14.8,46.95
		c-1.933-0.034-3.633-0.667-5.1-1.9L9.65,45l-0.3-0.25c-0.033-0.067-0.083-0.117-0.15-0.15c-0.833-0.733-1.483-1.617-1.95-2.65
		L1.1,28.15C0.4,27.017,0.033,25.7,0,24.2c0-0.1,0-0.184,0-0.25c0-0.9,0.15-1.767,0.45-2.6c0-0.1,0.017-0.184,0.05-0.25l0.15-0.4
		c0.033-0.1,0.083-0.2,0.15-0.3c0.332-0.814,0.798-1.547,1.4-2.2L16.05,2.7c0.034-0.034,0.067-0.067,0.1-0.1
		c0.967-1.067,2.133-1.8,3.5-2.2c0.1-0.066,0.217-0.1,0.35-0.1c1.467-0.433,2.95-0.4,4.45,0.1c0.033,0,0.1,0.017,0.2,0.05
		c1.4,0.5,2.583,1.333,3.55,2.5c0.033,0.066,0.083,0.117,0.15,0.15c1.4,1.833,2.816,3.467,4.25,4.9c0.066,0.1,0.15,0.183,0.25,0.25
		l8.85,9.7c0.7,0.733,1.25,1.566,1.65,2.5C43.383,20.517,43.417,20.6,43.45,20.7z M1.1,26.8H1.05l-0.025-0.15
		C1.038,26.694,1.063,26.745,1.1,26.8z"/>
	<path fill-rule="evenodd" clip-rule="evenodd" fill="#FFFF00" fill-opacity="0.1098" d="M43,20.9l0.15,0.4v-0.05
		c0.667,1.767,0.667,3.533,0,5.3c-0.1,0.3-0.217,0.617-0.35,0.95l-6.4,14.2v0.05c-0.367,0.767-0.85,1.467-1.45,2.1
		c-0.034,0.033-0.067,0.066-0.1,0.1L34.6,44.2c0,0.033-0.017,0.05-0.05,0.05c-0.867,0.867-1.85,1.483-2.95,1.85
		c-0.767,0.267-1.583,0.4-2.45,0.4l-13.6-0.05c-0.033,0-0.066,0-0.1,0H14.8c-1.8-0.034-3.383-0.633-4.75-1.8L10,44.6l-0.3-0.25
		c-0.067-0.067-0.117-0.1-0.15-0.1c-0.767-0.7-1.367-1.533-1.8-2.5L1.6,28c-0.7-1.067-1.067-2.333-1.1-3.8c0-0.1,0-0.184,0-0.25
		c0-0.833,0.133-1.65,0.4-2.45c0.033-0.067,0.067-0.133,0.1-0.2l0.15-0.4c0.033-0.1,0.067-0.2,0.1-0.3
		c0.333-0.833,0.833-1.583,1.5-2.25l-0.2,0.15L16.4,3c0.033-0.033,0.067-0.067,0.1-0.1c1-1.066,2.2-1.783,3.6-2.15
		s2.8-0.333,4.2,0.1c0.034,0.033,0.1,0.066,0.2,0.1c1.333,0.433,2.45,1.2,3.35,2.3c0,0.067,0.033,0.117,0.1,0.15
		c1.4,1.833,2.833,3.483,4.3,4.95C32.317,8.417,32.4,8.5,32.5,8.6l9,9.85c0.6,0.667,1.067,1.4,1.4,2.2
		C42.933,20.717,42.967,20.8,43,20.9z M42.5,21.05c-0.033-0.066-0.05-0.133-0.05-0.2c-0.333-0.8-0.817-1.517-1.45-2.15l0.15,0.1
		L32.1,8.95c-0.067-0.1-0.133-0.184-0.2-0.25c-1.467-1.467-2.917-3.117-4.35-4.95c-0.066-0.067-0.1-0.117-0.1-0.15
		c-0.867-1.033-1.917-1.767-3.15-2.2c-0.066-0.033-0.117-0.05-0.15-0.05c-1.299-0.433-2.599-0.467-3.9-0.1
		c-1.333,0.333-2.467,1-3.4,2c-0.033,0.033-0.05,0.067-0.05,0.1L3.1,18.65C2.5,19.283,2.033,20,1.7,20.8
		c-0.034,0.067-0.067,0.15-0.1,0.25l-0.15,0.4c-0.034,0.066-0.05,0.133-0.05,0.2c-0.267,0.733-0.4,1.5-0.4,2.3
		c0,0.066,0,0.133,0,0.2c0.033,1.4,0.367,2.617,1,3.65l6.2,13.7l-0.05-0.05c0.4,0.933,0.983,1.733,1.75,2.4
		c0.033,0.033,0.067,0.066,0.1,0.1l0.35,0.3H10.3c1.3,1.133,2.817,1.7,4.55,1.7h0.6c0.033,0,0.066,0,0.1,0L29.15,46
		c0.867,0,1.667-0.133,2.4-0.4c1-0.367,1.883-0.934,2.65-1.7c0.033,0,0.05-0.017,0.05-0.05l0.25-0.25
		c0.033-0.033,0.067-0.067,0.1-0.1c0.566-0.6,1.017-1.267,1.35-2l6.35-14.15l0.05-0.05c0.1-0.333,0.2-0.65,0.3-0.95v0.05
		c0.633-1.667,0.633-3.316,0-4.95L42.5,21.05z M1.1,26.8c-0.037-0.055-0.062-0.105-0.075-0.15L1.05,26.8H1.1z"/>
	<path fill-rule="evenodd" clip-rule="evenodd" fill="#FFFF00" fill-opacity="0.1686" d="M42.5,21.05l0.15,0.4
		c0.633,1.633,0.633,3.283,0,4.95v-0.05c-0.1,0.3-0.2,0.617-0.3,0.95l-0.05,0.05L35.95,41.5c-0.333,0.733-0.784,1.4-1.35,2
		c-0.033,0.033-0.067,0.067-0.1,0.1l-0.25,0.25c0,0.033-0.017,0.05-0.05,0.05c-0.767,0.767-1.65,1.333-2.65,1.7
		c-0.733,0.267-1.533,0.4-2.4,0.4l-13.6-0.05c-0.033,0-0.066,0-0.1,0h-0.6c-1.733,0-3.25-0.567-4.55-1.7h0.05L10,43.95
		c-0.033-0.034-0.067-0.067-0.1-0.1c-0.767-0.667-1.35-1.467-1.75-2.4L8.2,41.5L2,27.8c-0.633-1.033-0.967-2.25-1-3.65
		c0-0.066,0-0.133,0-0.2c0-0.8,0.133-1.567,0.4-2.3c0-0.066,0.017-0.133,0.05-0.2l0.15-0.4c0.033-0.1,0.066-0.183,0.1-0.25
		c0.333-0.8,0.8-1.517,1.4-2.15l13.7-15.3c0-0.033,0.017-0.067,0.05-0.1c0.933-1,2.066-1.667,3.4-2c1.301-0.367,2.601-0.333,3.9,0.1
		c0.033,0,0.083,0.017,0.15,0.05c1.233,0.434,2.284,1.167,3.15,2.2c0,0.033,0.033,0.083,0.1,0.15c1.434,1.833,2.883,3.483,4.35,4.95
		c0.067,0.066,0.133,0.15,0.2,0.25l9.05,9.85L41,18.7c0.633,0.633,1.117,1.35,1.45,2.15C42.45,20.917,42.467,20.983,42.5,21.05z
		 M42.05,21.25c-0.033-0.1-0.05-0.167-0.05-0.2c-0.3-0.7-0.717-1.333-1.25-1.9l-9-9.9c-0.067-0.067-0.133-0.133-0.2-0.2
		c-1.466-1.466-2.933-3.133-4.4-5c-0.033-0.066-0.066-0.117-0.1-0.15c-0.767-0.933-1.733-1.6-2.9-2
		c-0.066-0.033-0.133-0.066-0.2-0.1c-1.2-0.367-2.4-0.383-3.6-0.05c-0.1,0-0.184,0.017-0.25,0.05c-1.1,0.333-2.05,0.934-2.85,1.8
		c-0.033,0.033-0.067,0.066-0.1,0.1L3.45,19c-0.567,0.6-1,1.267-1.3,2c-0.033,0.067-0.066,0.15-0.1,0.25l-0.15,0.4
		c0,0.033-0.017,0.083-0.05,0.15c-0.233,0.7-0.35,1.417-0.35,2.15c0,0.033,0,0.1,0,0.2c0.033,1.333,0.367,2.483,1,3.45l6.15,13.7
		L8.6,41.25c0.367,0.867,0.917,1.617,1.65,2.25c0.033,0,0.067,0.033,0.1,0.1l0.3,0.25c0.018,0.016,0.034,0.032,0.05,0.05
		c1.19,1.033,2.573,1.55,4.15,1.55h0.6c0.033,0,0.066,0,0.1,0l13.6,0.05c0.6,0,1.167-0.067,1.7-0.2c1.133-0.3,2.133-0.883,3-1.75
		c0.033,0,0.05-0.017,0.05-0.05l0.25-0.25c0.033-0.033,0.067-0.067,0.1-0.1c0.533-0.533,0.95-1.15,1.25-1.85l6.35-14.2
		c0.066-0.167,0.133-0.333,0.2-0.5c0-0.067,0.017-0.1,0.05-0.1l0.1-0.3c0.566-1.534,0.566-3.067,0-4.6v0.05L42.05,21.25z"/>
	<path fill-rule="evenodd" clip-rule="evenodd" fill="#FFFF00" fill-opacity="0.2235" d="M42.05,21.25l0.15,0.4V21.6
		c0.566,1.533,0.566,3.066,0,4.6l-0.1,0.3c-0.033,0-0.05,0.033-0.05,0.1c-0.066,0.167-0.133,0.333-0.2,0.5L35.5,41.3
		c-0.3,0.7-0.717,1.317-1.25,1.85c-0.033,0.033-0.067,0.067-0.1,0.1L33.9,43.5c0,0.033-0.017,0.05-0.05,0.05
		c-0.867,0.867-1.867,1.45-3,1.75c-0.533,0.133-1.1,0.2-1.7,0.2l-13.6-0.05c-0.033,0-0.066,0-0.1,0h-0.6
		c-1.577,0-2.96-0.517-4.15-1.55c-0.016-0.018-0.033-0.034-0.05-0.05l-0.3-0.25c-0.033-0.067-0.067-0.1-0.1-0.1
		c-0.733-0.633-1.283-1.383-1.65-2.25l0.05,0.05L2.5,27.6c-0.633-0.967-0.967-2.117-1-3.45c0-0.1,0-0.167,0-0.2
		c0-0.733,0.117-1.45,0.35-2.15c0.033-0.066,0.05-0.117,0.05-0.15l0.15-0.4c0.034-0.1,0.067-0.183,0.1-0.25
		c0.3-0.733,0.733-1.4,1.3-2l13.7-15.3c0.033-0.034,0.067-0.067,0.1-0.1c0.8-0.867,1.75-1.467,2.85-1.8
		c0.066-0.033,0.15-0.05,0.25-0.05c1.2-0.333,2.4-0.317,3.6,0.05c0.066,0.034,0.133,0.067,0.2,0.1c1.167,0.4,2.133,1.067,2.9,2
		c0.034,0.033,0.067,0.083,0.1,0.15c1.467,1.867,2.934,3.534,4.4,5c0.067,0.067,0.133,0.133,0.2,0.2l9,9.9
		c0.533,0.567,0.95,1.2,1.25,1.9C42,21.083,42.017,21.15,42.05,21.25z M41.5,21.25c-0.272-0.665-0.639-1.248-1.1-1.75l-9.05-9.9
		c-0.067-0.067-0.117-0.117-0.15-0.15c-1.5-1.534-2.983-3.233-4.45-5.1c-0.033-0.033-0.067-0.067-0.1-0.1
		c-0.7-0.9-1.583-1.533-2.65-1.9c-0.1-0.033-0.167-0.05-0.2-0.05c-1.1-0.367-2.2-0.4-3.3-0.1c-0.1,0.033-0.183,0.066-0.25,0.1
		c-1.033,0.3-1.917,0.85-2.65,1.65c-0.033,0-0.05,0.017-0.05,0.05L3.7,19.5c-0.458,0.499-0.809,1.066-1.05,1.7
		c-0.033,0.066-0.066,0.133-0.1,0.2L2.4,21.8c-0.033,0.067-0.05,0.133-0.05,0.2C2.117,22.6,2,23.25,2,23.95c0,0.033,0,0.1,0,0.2
		c0.033,1.2,0.333,2.25,0.9,3.15l6.2,13.8l-0.05-0.05c0.333,0.8,0.833,1.5,1.5,2.1c0.034,0,0.067,0.017,0.1,0.05L11,43.5h-0.05
		c1.1,0.967,2.4,1.45,3.9,1.45h0.55c0.033,0,0.067,0,0.1,0L29.15,45c0.633,0,1.233-0.083,1.8-0.25c0.945-0.293,1.795-0.81,2.55-1.55
		c0.017-0.017,0.033-0.034,0.05-0.05l0.25-0.25c0.034-0.033,0.067-0.066,0.1-0.1c0.467-0.5,0.85-1.066,1.15-1.7l6.35-14.2
		c0.1-0.233,0.184-0.45,0.25-0.65l0.1-0.25v0.05c0.533-1.433,0.533-2.85,0-4.25l-0.15-0.4C41.567,21.333,41.533,21.283,41.5,21.25z"
		/>
	<path fill-rule="evenodd" clip-rule="evenodd" fill="#FFFF00" fill-opacity="0.2824" d="M41.05,21.45c-0.233-0.6-0.566-1.15-1-1.65
		L31,9.95c-0.067-0.067-0.117-0.117-0.15-0.15c-1.5-1.533-3-3.25-4.5-5.15c-0.033-0.033-0.05-0.066-0.05-0.1
		c-0.667-0.833-1.5-1.417-2.5-1.75c-0.066-0.033-0.117-0.05-0.15-0.05c-1-0.333-2-0.35-3-0.05c-0.1,0-0.183,0.017-0.25,0.05
		c-0.967,0.3-1.783,0.817-2.45,1.55L4.05,19.85c-0.423,0.463-0.74,0.98-0.95,1.55c-0.033,0.067-0.067,0.133-0.1,0.2L2.85,22
		c-0.033,0.033-0.05,0.083-0.05,0.15c-0.2,0.567-0.3,1.167-0.3,1.8c0,0.033,0,0.083,0,0.15c0.033,1.167,0.317,2.167,0.85,3l6.2,13.8
		L9.5,40.85c0.333,0.733,0.8,1.367,1.4,1.9c0.033,0.033,0.067,0.067,0.1,0.1l0.3,0.25c0.018,0.016,0.035,0.032,0.05,0.05
		c0.991,0.867,2.157,1.3,3.5,1.3h0.55c0.033,0,0.067,0,0.1,0l13.65,0.05c0.633,0,1.233-0.1,1.8-0.3c0.812-0.26,1.545-0.71,2.2-1.35
		c0.017-0.017,0.033-0.033,0.05-0.05l0.25-0.25c0-0.033,0.033-0.066,0.1-0.1c0.4-0.467,0.733-0.983,1-1.55l0.05-0.05l6.35-14.15
		c0.1-0.233,0.183-0.467,0.25-0.7l0.05-0.15c0.5-1.3,0.5-2.6,0-3.9V22l-0.15-0.4C41.067,21.533,41.05,21.483,41.05,21.45z
		 M41.5,21.25c0.033,0.033,0.067,0.083,0.1,0.15l0.15,0.4c0.533,1.4,0.533,2.817,0,4.25V26l-0.1,0.25
		c-0.066,0.2-0.15,0.417-0.25,0.65l-6.35,14.2c-0.3,0.633-0.683,1.2-1.15,1.7c-0.033,0.034-0.066,0.067-0.1,0.1l-0.25,0.25
		c-0.017,0.017-0.033,0.033-0.05,0.05c-0.754,0.74-1.604,1.256-2.55,1.55c-0.567,0.167-1.167,0.25-1.8,0.25L15.5,44.95
		c-0.033,0-0.067,0-0.1,0h-0.55c-1.5,0-2.8-0.483-3.9-1.45H11l-0.35-0.3c-0.033-0.034-0.066-0.05-0.1-0.05
		c-0.667-0.6-1.167-1.3-1.5-2.1L9.1,41.1L2.9,27.3c-0.566-0.9-0.867-1.95-0.9-3.15c0-0.1,0-0.167,0-0.2c0-0.7,0.117-1.35,0.35-1.95
		c0-0.067,0.017-0.133,0.05-0.2l0.15-0.4c0.034-0.066,0.067-0.133,0.1-0.2c0.242-0.634,0.592-1.201,1.05-1.7L17.55,4
		c0-0.033,0.017-0.05,0.05-0.05c0.733-0.8,1.617-1.35,2.65-1.65c0.067-0.033,0.15-0.066,0.25-0.1c1.1-0.3,2.2-0.267,3.3,0.1
		c0.034,0,0.1,0.017,0.2,0.05c1.067,0.367,1.95,1,2.65,1.9c0.033,0.033,0.067,0.067,0.1,0.1c1.467,1.867,2.95,3.566,4.45,5.1
		c0.033,0.033,0.083,0.083,0.15,0.15l9.05,9.9C40.861,20.002,41.228,20.585,41.5,21.25z"/>
	<path fill-rule="evenodd" clip-rule="evenodd" fill="#FFFF00" fill-opacity="0.3373" d="M40.6,21.6
		c-0.233-0.533-0.55-1.017-0.95-1.45l-9-9.85c-0.066-0.066-0.117-0.117-0.15-0.15c-1.533-1.533-3.05-3.267-4.55-5.2
		c-0.034-0.034-0.05-0.067-0.05-0.1c-0.6-0.733-1.35-1.25-2.25-1.55c-0.066-0.033-0.117-0.05-0.15-0.05c-1-0.333-1.983-0.333-2.95,0
		c-0.848,0.252-1.581,0.719-2.2,1.4c-0.033,0-0.05,0.017-0.05,0.05L4.45,20.2l0.1-0.15c-0.433,0.434-0.767,0.934-1,1.5
		c-0.033,0.067-0.066,0.133-0.1,0.2l-0.15,0.4c0,0.033-0.017,0.083-0.05,0.15C3.083,22.833,3,23.383,3,23.95c0,0.033,0,0.083,0,0.15
		c0.033,1,0.283,1.883,0.75,2.65L10,40.7v-0.05c0.267,0.667,0.683,1.25,1.25,1.75l0.05,0.05l0.35,0.3c0.934,0.8,2,1.2,3.2,1.2
		L29.15,44c0.367,0,0.717-0.033,1.05-0.1c0.066-0.033,0.133-0.05,0.2-0.05l0.2-0.05c0.812-0.227,1.545-0.661,2.2-1.3
		c0.017-0.017,0.034-0.033,0.05-0.05l0.25-0.25c0-0.034,0.017-0.067,0.05-0.1c0.4-0.4,0.717-0.867,0.95-1.4l0.05-0.05L40.5,26.5
		c0.033-0.1,0.067-0.2,0.1-0.3c0-0.067,0.017-0.117,0.05-0.15l0.15-0.4v0.05c0.434-1.2,0.434-2.383,0-3.55l-0.15-0.4
		C40.617,21.683,40.6,21.633,40.6,21.6z M41.05,21.45c0,0.033,0.017,0.083,0.05,0.15l0.15,0.4v-0.05c0.5,1.3,0.5,2.6,0,3.9L41.2,26
		c-0.067,0.233-0.15,0.467-0.25,0.7L34.6,40.85l-0.05,0.05c-0.267,0.567-0.6,1.083-1,1.55c-0.066,0.033-0.1,0.066-0.1,0.1L33.2,42.8
		c-0.017,0.017-0.034,0.034-0.05,0.05c-0.654,0.64-1.387,1.09-2.2,1.35c-0.567,0.2-1.167,0.3-1.8,0.3L15.5,44.45
		c-0.033,0-0.067,0-0.1,0h-0.55c-1.343,0-2.509-0.434-3.5-1.3c-0.016-0.018-0.033-0.034-0.05-0.05L11,42.85
		c-0.033-0.033-0.067-0.067-0.1-0.1c-0.6-0.533-1.066-1.167-1.4-1.9l0.05,0.05l-6.2-13.8c-0.533-0.833-0.817-1.833-0.85-3
		c0-0.067,0-0.117,0-0.15c0-0.633,0.1-1.233,0.3-1.8c0-0.066,0.017-0.117,0.05-0.15L3,21.6c0.033-0.067,0.067-0.133,0.1-0.2
		c0.21-0.569,0.526-1.086,0.95-1.55L17.95,4.3c0.667-0.733,1.483-1.25,2.45-1.55c0.067-0.033,0.15-0.05,0.25-0.05
		c1-0.3,2-0.284,3,0.05c0.033,0,0.083,0.017,0.15,0.05c1,0.333,1.833,0.917,2.5,1.75c0,0.034,0.017,0.067,0.05,0.1
		c1.5,1.9,3,3.617,4.5,5.15c0.033,0.034,0.083,0.083,0.15,0.15l9.05,9.85C40.483,20.3,40.817,20.85,41.05,21.45z"/>
	<path fill-rule="evenodd" clip-rule="evenodd" fill="#FFFF00" fill-opacity="0.3922" d="M40.6,21.6c0,0.033,0.017,0.083,0.05,0.15
		l0.15,0.4c0.434,1.167,0.434,2.35,0,3.55v-0.05l-0.15,0.4c-0.033,0.034-0.05,0.083-0.05,0.15c-0.033,0.1-0.067,0.2-0.1,0.3
		l-6.35,14.15L34.1,40.7c-0.233,0.533-0.55,1-0.95,1.4c-0.033,0.033-0.05,0.066-0.05,0.1l-0.25,0.25
		c-0.017,0.017-0.033,0.033-0.05,0.05c-0.654,0.639-1.387,1.073-2.2,1.3l-0.2,0.05c-0.066,0-0.133,0.017-0.2,0.05
		c-0.333,0.067-0.684,0.1-1.05,0.1l-14.3-0.05c-1.2,0-2.267-0.4-3.2-1.2l-0.35-0.3l-0.05-0.05c-0.567-0.5-0.983-1.083-1.25-1.75
		v0.05L3.75,26.75C3.283,25.983,3.033,25.1,3,24.1c0-0.067,0-0.117,0-0.15c0-0.567,0.083-1.117,0.25-1.65
		c0.033-0.066,0.05-0.117,0.05-0.15l0.15-0.4c0.033-0.067,0.066-0.133,0.1-0.2c0.233-0.566,0.567-1.066,1-1.5l-0.1,0.15L18.3,4.7
		c0-0.034,0.017-0.05,0.05-0.05c0.619-0.681,1.352-1.147,2.2-1.4c0.967-0.333,1.95-0.333,2.95,0c0.033,0,0.083,0.017,0.15,0.05
		c0.9,0.3,1.65,0.817,2.25,1.55c0,0.033,0.017,0.066,0.05,0.1c1.5,1.933,3.017,3.667,4.55,5.2c0.033,0.033,0.083,0.083,0.15,0.15
		l9,9.85C40.05,20.583,40.367,21.067,40.6,21.6z M40.2,21.95c-0.034-0.067-0.05-0.117-0.05-0.15c-0.233-0.5-0.517-0.933-0.85-1.3
		l-9.05-9.9c-0.033-0.033-0.067-0.067-0.1-0.1c-1.566-1.567-3.1-3.317-4.6-5.25L25.5,5.2c-0.533-0.667-1.2-1.15-2-1.45
		c-0.067-0.033-0.117-0.05-0.15-0.05c-0.9-0.267-1.783-0.267-2.65,0c-0.767,0.233-1.434,0.65-2,1.25C18.7,4.983,18.683,5,18.65,5
		L4.8,20.5c-0.333,0.367-0.6,0.783-0.8,1.25c-0.033,0.067-0.05,0.133-0.05,0.2l-0.15,0.4c-0.033,0.033-0.05,0.066-0.05,0.1
		c-0.167,0.466-0.25,0.966-0.25,1.5c0,0.033,0,0.066,0,0.1c0.033,0.934,0.25,1.733,0.65,2.4l6.3,14.05v-0.05
		c0.233,0.6,0.6,1.117,1.1,1.55c0.034,0,0.067,0.017,0.1,0.05l0.35,0.3h-0.05c0.833,0.733,1.8,1.1,2.9,1.1l14.3,0.05
		c0.7,0,1.35-0.15,1.95-0.45c0.5-0.2,0.95-0.5,1.35-0.9l0.3-0.3c0-0.033,0.017-0.05,0.05-0.05c0.367-0.4,0.65-0.85,0.85-1.35v0.05
		l6.4-14.2c0.067-0.2,0.133-0.383,0.2-0.55l0.1-0.25c0.4-1.067,0.4-2.133,0-3.2v0.05L40.2,21.95z"/>
	<path fill-rule="evenodd" clip-rule="evenodd" fill="#FFFF00" fill-opacity="0.5059" d="M39.7,22.1l0.15,0.4
		c0.367,0.933,0.367,1.883,0,2.85V25.3l-0.15,0.4c-0.034,0.133-0.083,0.267-0.15,0.4v0.05L33.2,40.3v-0.05
		c-0.2,0.433-0.45,0.833-0.75,1.2c-0.034,0-0.05,0.017-0.05,0.05l-0.3,0.3c-0.4,0.367-0.85,0.667-1.35,0.9
		c-0.5,0.2-1.033,0.3-1.6,0.3l-14.3-0.05c-0.967,0-1.817-0.317-2.55-0.95v-0.05l-0.35-0.25l-0.05-0.05c-0.433-0.4-0.767-0.85-1-1.35
		L4.6,26.2l-0.05-0.05c-0.333-0.6-0.517-1.3-0.55-2.1c0-0.066,0-0.117,0-0.15c0-0.433,0.067-0.867,0.2-1.3
		c0.033-0.033,0.05-0.067,0.05-0.1l0.15-0.4c0.033-0.033,0.05-0.083,0.05-0.15c0.2-0.434,0.466-0.833,0.8-1.2l-0.05,0.1l13.85-15.5
		V5.3c0.534-0.566,1.184-0.95,1.95-1.15c0.719-0.216,1.452-0.199,2.2,0.05c0.033,0,0.066,0.017,0.1,0.05
		c0.733,0.233,1.333,0.65,1.8,1.25c0.033,0,0.066,0.017,0.1,0.05c1.5,1.967,3.033,3.733,4.6,5.3c0,0.033,0.034,0.066,0.1,0.1l9,9.9
		l-0.05-0.1c0.333,0.367,0.6,0.783,0.8,1.25C39.65,22.033,39.667,22.067,39.7,22.1z M39.4,22.65v0.05l-0.15-0.4l-0.05-0.1
		c-0.167-0.4-0.383-0.75-0.65-1.05l-9-9.85c-0.066-0.033-0.1-0.066-0.1-0.1c-1.567-1.6-3.117-3.383-4.65-5.35
		c-0.033,0-0.05-0.017-0.05-0.05c-0.433-0.5-0.967-0.867-1.6-1.1c-0.033,0-0.066,0-0.1,0c-0.633-0.233-1.267-0.25-1.9-0.05
		c-0.667,0.167-1.233,0.5-1.7,1c-0.034,0-0.05,0.017-0.05,0.05L5.55,21.2c-0.267,0.267-0.466,0.583-0.6,0.95
		C4.917,22.183,4.9,22.233,4.9,22.3l-0.15,0.4c-0.033,0.033-0.05,0.066-0.05,0.1c-0.133,0.333-0.2,0.7-0.2,1.1
		c0,0.033,0,0.083,0,0.15c0.033,0.7,0.2,1.317,0.5,1.85l0.05,0.05V26l6.35,14.1c0.2,0.433,0.483,0.816,0.85,1.15l0.35,0.35h0.05
		c0.633,0.566,1.367,0.85,2.2,0.85l14.3,0.05c0.434,0,0.833-0.067,1.2-0.2l0.1-0.05c0.466-0.167,0.9-0.433,1.3-0.8l0.3-0.3
		c0-0.033,0.017-0.05,0.05-0.05c0.267-0.333,0.483-0.684,0.65-1.05v0.05l6.35-14.15V25.9c0.1-0.2,0.167-0.383,0.2-0.55l0.1-0.2
		C39.7,24.317,39.7,23.483,39.4,22.65z"/>
	<path fill-rule="evenodd" clip-rule="evenodd" fill="#FFFF00" fill-opacity="0.5647" d="M39.4,22.65c0.3,0.833,0.3,1.667,0,2.5
		l-0.1,0.2c-0.033,0.167-0.1,0.35-0.2,0.55v0.05L32.75,40.1v-0.05c-0.167,0.367-0.383,0.717-0.65,1.05
		c-0.033,0-0.05,0.017-0.05,0.05l-0.3,0.3c-0.4,0.367-0.833,0.633-1.3,0.8l-0.1,0.05c-0.367,0.133-0.767,0.2-1.2,0.2l-14.3-0.05
		c-0.833,0-1.567-0.284-2.2-0.85H12.6l-0.35-0.35c-0.367-0.333-0.65-0.717-0.85-1.15L5.05,26v-0.05L5,25.9
		c-0.3-0.533-0.467-1.15-0.5-1.85c0-0.066,0-0.117,0-0.15c0-0.4,0.067-0.767,0.2-1.1c0-0.033,0.017-0.066,0.05-0.1l0.15-0.4
		c0-0.066,0.017-0.117,0.05-0.15c0.133-0.367,0.333-0.683,0.6-0.95L19.4,5.7c0-0.034,0.017-0.05,0.05-0.05
		c0.466-0.5,1.033-0.833,1.7-1c0.633-0.2,1.267-0.183,1.9,0.05c0.034,0,0.067,0,0.1,0c0.633,0.233,1.167,0.6,1.6,1.1
		c0,0.034,0.017,0.05,0.05,0.05c1.534,1.967,3.083,3.75,4.65,5.35c0,0.033,0.033,0.066,0.1,0.1l9,9.85
		c0.267,0.3,0.483,0.65,0.65,1.05l0.05,0.1l0.15,0.4V22.65z M19.8,6h-0.05L5.9,21.5L6,21.45c-0.267,0.267-0.467,0.566-0.6,0.9
		c-0.033,0.033-0.05,0.066-0.05,0.1l-0.15,0.4c-0.034,0.033-0.05,0.066-0.05,0.1C5.05,23.25,5,23.567,5,23.9c0,0.033,0,0.067,0,0.1
		c0.033,0.633,0.183,1.183,0.45,1.65v0.05l0.05,0.05l6.35,14.15c0.167,0.367,0.4,0.7,0.7,1c0.034,0,0.05,0.017,0.05,0.05l0.35,0.25
		v0.05c0.566,0.467,1.216,0.7,1.95,0.7L29.1,42c0.4,0,0.783-0.067,1.15-0.2c0.4-0.133,0.783-0.367,1.15-0.7l0.3-0.3v-0.05
		c0.267-0.267,0.466-0.567,0.6-0.9v0.05l6.35-14.15V25.7c0.033-0.1,0.067-0.184,0.1-0.25c0-0.034,0.017-0.067,0.05-0.1l0.15-0.4
		H38.9c0.267-0.7,0.267-1.4,0-2.1h0.05l-0.15-0.4l-0.05-0.05c-0.133-0.333-0.317-0.633-0.55-0.9c-0.034-0.033-0.067-0.05-0.1-0.05
		l-8.95-9.8c-0.033-0.033-0.05-0.066-0.05-0.1c-1.6-1.6-3.167-3.383-4.7-5.35l-0.05-0.05C23.983,5.683,23.533,5.367,23,5.2
		c-0.033-0.034-0.067-0.05-0.1-0.05c-0.6-0.2-1.183-0.2-1.75,0l0.1-0.05C20.683,5.233,20.2,5.533,19.8,6z"/>
	<path fill-rule="evenodd" clip-rule="evenodd" fill="#FFFF00" fill-opacity="0.451" d="M40.2,21.95l0.15,0.4V22.3
		c0.4,1.067,0.4,2.133,0,3.2l-0.1,0.25c-0.067,0.167-0.133,0.35-0.2,0.55l-6.4,14.2v-0.05c-0.2,0.5-0.483,0.95-0.85,1.35
		c-0.033,0-0.05,0.017-0.05,0.05l-0.3,0.3c-0.4,0.4-0.85,0.7-1.35,0.9c-0.6,0.3-1.25,0.45-1.95,0.45l-14.3-0.05
		c-1.1,0-2.067-0.367-2.9-1.1H12l-0.35-0.3c-0.033-0.033-0.066-0.05-0.1-0.05c-0.5-0.433-0.867-0.95-1.1-1.55v0.05l-6.3-14.05
		c-0.4-0.667-0.617-1.467-0.65-2.4c0-0.033,0-0.066,0-0.1c0-0.534,0.083-1.034,0.25-1.5c0-0.034,0.017-0.067,0.05-0.1l0.15-0.4
		c0-0.067,0.017-0.133,0.05-0.2c0.2-0.467,0.467-0.883,0.8-1.25L18.65,5c0.033,0,0.05-0.017,0.05-0.05c0.566-0.6,1.233-1.017,2-1.25
		c0.867-0.267,1.75-0.267,2.65,0c0.033,0,0.083,0.017,0.15,0.05c0.8,0.3,1.467,0.783,2,1.45l0.05,0.05
		c1.5,1.933,3.034,3.683,4.6,5.25c0.033,0.033,0.067,0.067,0.1,0.1l9.05,9.9c0.333,0.367,0.617,0.8,0.85,1.3
		C40.15,21.833,40.167,21.883,40.2,21.95z M39.7,22.1c-0.034-0.033-0.05-0.067-0.05-0.1c-0.2-0.467-0.467-0.883-0.8-1.25l0.05,0.1
		l-9-9.9c-0.066-0.034-0.1-0.067-0.1-0.1c-1.566-1.567-3.1-3.333-4.6-5.3c-0.034-0.033-0.067-0.05-0.1-0.05
		c-0.467-0.6-1.067-1.017-1.8-1.25c-0.033-0.033-0.066-0.05-0.1-0.05c-0.748-0.25-1.481-0.266-2.2-0.05
		c-0.767,0.2-1.417,0.583-1.95,1.15v0.05L5.2,20.85l0.05-0.1c-0.333,0.367-0.6,0.767-0.8,1.2c0,0.066-0.017,0.117-0.05,0.15
		l-0.15,0.4c0,0.033-0.017,0.067-0.05,0.1C4.067,23.033,4,23.467,4,23.9c0,0.033,0,0.083,0,0.15c0.033,0.8,0.217,1.5,0.55,2.1
		L4.6,26.2l6.3,14.1c0.233,0.5,0.567,0.95,1,1.35l0.05,0.05l0.35,0.25V42c0.733,0.633,1.583,0.95,2.55,0.95L29.15,43
		c0.567,0,1.1-0.1,1.6-0.3c0.5-0.233,0.95-0.534,1.35-0.9l0.3-0.3c0-0.033,0.017-0.05,0.05-0.05c0.3-0.367,0.55-0.767,0.75-1.2v0.05
		l6.35-14.15V26.1c0.067-0.133,0.117-0.267,0.15-0.4l0.15-0.4v0.05c0.367-0.967,0.367-1.917,0-2.85L39.7,22.1z"/>
	<path fill-rule="evenodd" clip-rule="evenodd" fill="#FFFF00" fill-opacity="0.6196" d="M19.8,6c0.4-0.467,0.883-0.767,1.45-0.9
		l-0.1,0.05c0.567-0.2,1.15-0.2,1.75,0c0.033,0,0.067,0.017,0.1,0.05c0.533,0.167,0.983,0.483,1.35,0.95L24.4,6.2
		c1.533,1.966,3.1,3.75,4.7,5.35c0,0.034,0.017,0.067,0.05,0.1l8.95,9.8c0.033,0,0.066,0.017,0.1,0.05
		c0.233,0.267,0.417,0.567,0.55,0.9l0.05,0.05l0.15,0.4H38.9c0.267,0.7,0.267,1.4,0,2.1h0.05l-0.15,0.4
		c-0.033,0.033-0.05,0.066-0.05,0.1c-0.033,0.066-0.067,0.15-0.1,0.25v0.05L32.3,39.9v-0.05c-0.133,0.333-0.333,0.633-0.6,0.9v0.05
		l-0.3,0.3c-0.367,0.333-0.75,0.566-1.15,0.7C29.883,41.933,29.5,42,29.1,42l-14.2-0.05c-0.733,0-1.383-0.233-1.95-0.7V41.2
		l-0.35-0.25c0-0.034-0.017-0.05-0.05-0.05c-0.3-0.3-0.533-0.633-0.7-1L5.5,25.75L5.45,25.7v-0.05C5.183,25.183,5.033,24.633,5,24
		c0-0.033,0-0.067,0-0.1c0-0.333,0.05-0.65,0.15-0.95c0-0.034,0.017-0.067,0.05-0.1l0.15-0.4c0-0.034,0.017-0.067,0.05-0.1
		c0.133-0.333,0.333-0.633,0.6-0.9L5.9,21.5L19.75,6H19.8z M21.4,5.6c-0.066,0-0.1,0.017-0.1,0.05c-0.433,0.1-0.816,0.333-1.15,0.7
		L6.3,21.85c-0.208,0.19-0.357,0.423-0.45,0.7c-0.033,0.034-0.05,0.067-0.05,0.1l-0.15,0.4v0.05c-0.1,0.267-0.15,0.533-0.15,0.8
		c0,0.033,0,0.067,0,0.1c0,0.6,0.15,1.117,0.45,1.55L12.3,39.7l-0.05-0.05c0.167,0.333,0.383,0.617,0.65,0.85l0.35,0.35h0.05
		c0.434,0.4,0.967,0.6,1.6,0.6l14.2,0.05c0.267,0,0.533-0.033,0.8-0.1c0.434-0.133,0.817-0.367,1.15-0.7v0.05l0.3-0.3V40.4
		c0.2-0.233,0.367-0.483,0.5-0.75v0.05l6.35-14.15V25.5c0.033-0.1,0.066-0.2,0.1-0.3c0-0.034,0.017-0.067,0.05-0.1l0.1-0.3
		c0.233-0.6,0.233-1.183,0-1.75l-0.15-0.4c0-0.033,0-0.066,0-0.1c-0.133-0.267-0.3-0.5-0.5-0.7c0-0.033-0.017-0.05-0.05-0.05l-9-9.9
		c-1.6-1.6-3.183-3.4-4.75-5.4l-0.05-0.05c-0.3-0.367-0.667-0.633-1.1-0.8c-0.033,0-0.067,0-0.1,0
		C22.283,5.483,21.833,5.467,21.4,5.6z"/>
	<path fill-rule="evenodd" clip-rule="evenodd" fill="#FFFF00" fill-opacity="0.6745" d="M21.4,5.6
		c0.434-0.133,0.883-0.117,1.35,0.05c0.033,0,0.067,0,0.1,0c0.433,0.167,0.8,0.434,1.1,0.8L24,6.5c1.567,2,3.15,3.8,4.75,5.4l9,9.9
		c0.033,0,0.05,0.017,0.05,0.05c0.2,0.2,0.367,0.433,0.5,0.7c0,0.034,0,0.067,0,0.1l0.15,0.4c0.233,0.567,0.233,1.15,0,1.75
		l-0.1,0.3c-0.033,0.033-0.05,0.066-0.05,0.1c-0.033,0.1-0.066,0.2-0.1,0.3v0.05L31.85,39.7v-0.05c-0.133,0.267-0.3,0.517-0.5,0.75
		v0.05l-0.3,0.3V40.7c-0.333,0.333-0.716,0.566-1.15,0.7c-0.267,0.067-0.533,0.1-0.8,0.1l-14.2-0.05c-0.633,0-1.167-0.2-1.6-0.6
		h-0.05L12.9,40.5c-0.267-0.233-0.483-0.517-0.65-0.85l0.05,0.05L5.95,25.55C5.65,25.117,5.5,24.6,5.5,24c0-0.033,0-0.067,0-0.1
		c0-0.267,0.05-0.533,0.15-0.8v-0.05l0.15-0.4c0-0.033,0.017-0.066,0.05-0.1c0.092-0.277,0.242-0.51,0.45-0.7l13.85-15.5
		c0.333-0.367,0.717-0.6,1.15-0.7C21.3,5.617,21.333,5.6,21.4,5.6z M21.5,6.1h-0.05c-0.367,0.1-0.667,0.283-0.9,0.55L6.65,22.2
		c-0.133,0.133-0.25,0.316-0.35,0.55v0.05l-0.15,0.4L6.1,23.25C6.033,23.45,6,23.667,6,23.9v0.05c0,0.5,0.117,0.933,0.35,1.3
		L6.4,25.3v0.05l6.35,14.15v-0.05c0.1,0.267,0.267,0.5,0.5,0.7v0.05l0.35,0.3v-0.05c0.367,0.333,0.8,0.5,1.3,0.5h0.45
		c0.033,0,0.066,0,0.1,0L29.1,41c0.3,0,0.566-0.05,0.8-0.15c0.3-0.1,0.567-0.267,0.8-0.5h-0.05l0.35-0.3c0.167-0.2,0.3-0.4,0.4-0.6
		v0.05l6.35-14.15V25.3c0.033-0.1,0.067-0.2,0.1-0.3L38,24.6c0.167-0.467,0.167-0.934,0-1.4l-0.15-0.4
		c-0.033,0-0.05-0.017-0.05-0.05c-0.09-0.21-0.207-0.394-0.35-0.55l-9.05-9.9c-0.033,0-0.05-0.017-0.05-0.05
		c-1.6-1.6-3.184-3.417-4.75-5.45l-0.05-0.05c-0.233-0.3-0.533-0.517-0.9-0.65H22.6C22.233,6,21.867,6,21.5,6.1z"/>
	<path fill-rule="evenodd" clip-rule="evenodd" fill="#FFFF00" fill-opacity="0.7333" d="M21.5,6.1c0.367-0.1,0.733-0.1,1.1,0h0.05
		c0.367,0.133,0.667,0.35,0.9,0.65L23.6,6.8c1.566,2.034,3.15,3.85,4.75,5.45c0,0.033,0.017,0.05,0.05,0.05l9.05,9.9
		c0.143,0.156,0.26,0.34,0.35,0.55c0,0.033,0.017,0.05,0.05,0.05L38,23.2c0.167,0.466,0.167,0.933,0,1.4L37.85,25
		c-0.033,0.1-0.067,0.2-0.1,0.3v0.05L31.4,39.5v-0.05c-0.1,0.2-0.233,0.4-0.4,0.6l-0.35,0.3h0.05c-0.233,0.233-0.5,0.4-0.8,0.5
		c-0.233,0.1-0.5,0.15-0.8,0.15l-13.65-0.05c-0.034,0-0.067,0-0.1,0H14.9c-0.5,0-0.933-0.167-1.3-0.5v0.05l-0.35-0.3v-0.05
		c-0.233-0.2-0.4-0.433-0.5-0.7v0.05L6.4,25.35V25.3l-0.05-0.05C6.117,24.883,6,24.45,6,23.95V23.9c0-0.233,0.033-0.45,0.1-0.65
		l0.05-0.05l0.15-0.4v-0.05c0.1-0.233,0.217-0.417,0.35-0.55l13.9-15.55c0.233-0.267,0.534-0.45,0.9-0.55H21.5z M22.45,6.6
		c-0.3-0.1-0.583-0.1-0.85,0l0.05-0.05C21.35,6.617,21.1,6.767,20.9,7L7.05,22.5c-0.133,0.133-0.233,0.283-0.3,0.45V23L6.6,23.4
		c-0.067,0.167-0.1,0.333-0.1,0.5v0.05c0,0.4,0.1,0.733,0.3,1V25c0,0.033,0.017,0.067,0.05,0.1l6.35,14.15
		c0.066,0.2,0.183,0.383,0.35,0.55h0.05l0.35,0.3c0.267,0.233,0.583,0.35,0.95,0.35h0.45c0.033,0,0.066,0,0.1,0L29.1,40.5
		c0.233,0,0.45-0.033,0.65-0.1c0.2-0.1,0.4-0.233,0.6-0.4H30.3l0.3-0.3h0.05c0.1-0.133,0.2-0.284,0.3-0.45H30.9l6.35-14.15h0.05
		c0-0.067,0.017-0.15,0.05-0.25l0.15-0.4c0.133-0.367,0.133-0.717,0-1.05L37.35,23v-0.05c-0.067-0.167-0.15-0.317-0.25-0.45
		l-9.05-9.85c0-0.033-0.017-0.05-0.05-0.05c-1.6-1.633-3.2-3.467-4.8-5.5c-0.2-0.233-0.434-0.4-0.7-0.5H22.45z"/>
	<path fill-rule="evenodd" clip-rule="evenodd" fill="#FFFF00" fill-opacity="0.7882" d="M22.8,7.4
		c-0.133-0.167-0.283-0.283-0.45-0.35H22.3c-0.2-0.066-0.383-0.066-0.55,0c-0.2,0.034-0.367,0.133-0.5,0.3l-13.8,15.5H7.4
		c-0.066,0.066-0.117,0.167-0.15,0.3H7.2l-0.15,0.4v0.05C7.017,23.7,7,23.8,7,23.9v0.05c0,0.333,0.083,0.617,0.25,0.85
		c0,0.034,0.017,0.067,0.05,0.1l6.35,14.15c0.067,0.133,0.15,0.25,0.25,0.35l0.35,0.3c0.2,0.167,0.417,0.25,0.65,0.25h0.45
		c0.033,0,0.066,0,0.1,0c0.033,0,0.066,0,0.1,0L29.1,40c0.1,0,0.217-0.017,0.35-0.05c0.2-0.034,0.367-0.133,0.5-0.3l0.3-0.3
		c0.1-0.1,0.167-0.2,0.2-0.3L36.8,24.9c0.034-0.033,0.05-0.083,0.05-0.15c0.033-0.033,0.05-0.067,0.05-0.1l0.15-0.4
		c0.1-0.233,0.1-0.467,0-0.7l-0.15-0.4c-0.066-0.133-0.133-0.233-0.2-0.3l-9.05-9.9C26.017,11.317,24.4,9.467,22.8,7.4z M22.45,6.6
		h0.05c0.267,0.1,0.5,0.267,0.7,0.5c1.6,2.033,3.2,3.867,4.8,5.5c0.033,0,0.05,0.017,0.05,0.05l9.05,9.85
		c0.1,0.133,0.183,0.283,0.25,0.45V23l0.15,0.4c0.133,0.333,0.133,0.684,0,1.05l-0.15,0.4c-0.033,0.1-0.05,0.183-0.05,0.25h-0.05
		L30.9,39.25h0.05c-0.1,0.167-0.2,0.317-0.3,0.45H30.6L30.3,40h0.05c-0.2,0.167-0.4,0.3-0.6,0.4c-0.2,0.067-0.417,0.1-0.65,0.1
		l-13.65-0.05c-0.034,0-0.067,0-0.1,0H14.9c-0.367,0-0.683-0.117-0.95-0.35l-0.35-0.3h-0.05c-0.167-0.167-0.283-0.35-0.35-0.55
		L6.85,25.1C6.817,25.067,6.8,25.033,6.8,25v-0.05c-0.2-0.267-0.3-0.6-0.3-1V23.9c0-0.167,0.033-0.333,0.1-0.5L6.75,23v-0.05
		c0.067-0.167,0.167-0.317,0.3-0.45L20.9,7c0.2-0.233,0.45-0.383,0.75-0.45L21.6,6.6C21.867,6.5,22.15,6.5,22.45,6.6z"/>
	<path fill-rule="evenodd" clip-rule="evenodd" fill="#FFFF00" fill-opacity="0.851" d="M22.8,7.4c1.6,2.067,3.217,3.917,4.85,5.55
		l9.05,9.9c0.066,0.066,0.133,0.167,0.2,0.3l0.15,0.4c0.1,0.233,0.1,0.467,0,0.7l-0.15,0.4c0,0.033-0.017,0.067-0.05,0.1
		c0,0.067-0.017,0.117-0.05,0.15l-6.35,14.15c-0.034,0.1-0.1,0.2-0.2,0.3l-0.3,0.3c-0.133,0.167-0.3,0.267-0.5,0.3
		C29.317,39.983,29.2,40,29.1,40l-13.55-0.05c-0.033,0-0.066,0-0.1,0c-0.034,0-0.067,0-0.1,0H14.9c-0.233,0-0.45-0.083-0.65-0.25
		l-0.35-0.3c-0.1-0.1-0.183-0.217-0.25-0.35L7.3,24.9c-0.033-0.033-0.05-0.066-0.05-0.1C7.083,24.567,7,24.283,7,23.95V23.9
		c0-0.1,0.017-0.2,0.05-0.3v-0.05l0.15-0.4h0.05c0.033-0.133,0.083-0.233,0.15-0.3h0.05l13.8-15.5c0.133-0.167,0.3-0.267,0.5-0.3
		c0.167-0.066,0.35-0.066,0.55,0h0.05C22.517,7.117,22.667,7.233,22.8,7.4z"/>
</g>
</svg>
