<?xml version="1.0" encoding="utf-8"?>
<!-- Generator: Adobe Illustrator 15.0.0, SVG Export Plug-In . SVG Version: 6.00 Build 0)  -->
<!DOCTYPE svg PUBLIC "-//W3C//DTD SVG 1.1//EN" "http://www.w3.org/Graphics/SVG/1.1/DTD/svg11.dtd">
<svg version="1.1" id="Layer_2" xmlns="http://www.w3.org/2000/svg" xmlns:xlink="http://www.w3.org/1999/xlink" x="0px" y="0px"
	 width="341.621px" height="68.415px" viewBox="-165.378 0.601 341.621 68.415"
	 enable-background="new -165.378 0.601 341.621 68.415" xml:space="preserve">
<g>
	<path fill="#BBBBBB" stroke="#000000" stroke-miterlimit="10" d="M169.618,4.75h-3.576V63h3.576c3.383,0,6.125-13.04,6.125-29.125
		S173,4.75,169.618,4.75z"/>
	<ellipse fill="#E9E9E9" stroke="#000000" stroke-miterlimit="10" cx="166.042" cy="33.875" rx="6.125" ry="29.125"/>
</g>
<linearGradient id="SVGID_1_" gradientUnits="userSpaceOnUse" x1="90.356" y1="49.6184" x2="90.4399" y2="20.7859" gradientTransform="matrix(1 0 0 -1 0 70.0161)">
	<stop  offset="0.5153" style="stop-color:#BCBCBC"/>
	<stop  offset="0.6829" style="stop-color:#A7A7A7"/>
	<stop  offset="1" style="stop-color:#767676"/>
</linearGradient>
<polyline fill="url(#SVGID_1_)" stroke="#000000" stroke-miterlimit="10" points="13.5,49.333 165.999,49.333 165.999,36.333 
	167.333,36.333 167.333,32.906 165.999,32.906 165.999,20.167 13.5,20.167 "/>
<rect x="13.541" y="32.906" fill="#F3F4F4" stroke="#000000" stroke-miterlimit="10" width="153.792" height="3.427"/>
<linearGradient id="SVGID_2_" gradientUnits="userSpaceOnUse" x1="7.0005" y1="69.0081" x2="7.0005" y2="1.6791" gradientTransform="matrix(1 0 0 -1 0 70.0161)">
	<stop  offset="0.0123" style="stop-color:#000000"/>
	<stop  offset="0.0151" style="stop-color:#030303"/>
	<stop  offset="0.0586" style="stop-color:#272727"/>
	<stop  offset="0.0939" style="stop-color:#3D3D3D"/>
	<stop  offset="0.1166" style="stop-color:#454545"/>
	<stop  offset="0.3348" style="stop-color:#414141"/>
	<stop  offset="0.5445" style="stop-color:#363636"/>
	<stop  offset="0.7508" style="stop-color:#222222"/>
	<stop  offset="0.9539" style="stop-color:#070707"/>
	<stop  offset="1" style="stop-color:#000000"/>
</linearGradient>
<polygon fill="url(#SVGID_2_)" stroke="#000000" stroke-miterlimit="10" points="13.5,68.516 0.5,68.516 0.5,0.5 13.5,0.5 
	13.5,20.167 "/>
</svg>
