<?xml version="1.0" encoding="utf-8"?>
<!-- Generator: Adobe Illustrator 15.0.0, SVG Export Plug-In . SVG Version: 6.00 Build 0)  -->
<!DOCTYPE svg PUBLIC "-//W3C//DTD SVG 1.1//EN" "http://www.w3.org/Graphics/SVG/1.1/DTD/svg11.dtd">
<svg version="1.1" id="Layer_1" xmlns="http://www.w3.org/2000/svg" xmlns:xlink="http://www.w3.org/1999/xlink" x="0px" y="0px"
	 width="204.918px" height="270.48px" viewBox="0 0 204.918 270.48" enable-background="new 0 0 204.918 270.48"
	 xml:space="preserve">
<g id="GoldRightOnLower">
	<g>
		<g>
			
				<linearGradient id="SVGID_1_" gradientUnits="userSpaceOnUse" x1="-794.1104" y1="721.1365" x2="-793.1104" y2="721.1365" gradientTransform="matrix(-1.0339 76.5126 -76.5126 -1.0339 54439.9062 61710.3867)">
				<stop  offset="0" style="stop-color:#E4E5E6"/>
				<stop  offset="0.2638" style="stop-color:#E2E3E4"/>
				<stop  offset="0.4059" style="stop-color:#DCDDDE"/>
				<stop  offset="0.5189" style="stop-color:#D0D2D4"/>
				<stop  offset="0.6167" style="stop-color:#C0C2C4"/>
				<stop  offset="0.7048" style="stop-color:#ACAEB0"/>
				<stop  offset="0.7857" style="stop-color:#939698"/>
				<stop  offset="0.8613" style="stop-color:#787A7C"/>
				<stop  offset="0.9307" style="stop-color:#57585A"/>
				<stop  offset="0.9963" style="stop-color:#0C0C0C"/>
				<stop  offset="1" style="stop-color:#000000"/>
			</linearGradient>
			<path fill="url(#SVGID_1_)" d="M55.03,221.948h55.973h0.001c0.725,0,1.376,0.329,1.833,0.839c0.458,0.51,0.733,1.202,0.733,1.959
				v37.62c0,0.757-0.275,1.449-0.734,1.959c-0.456,0.51-1.107,0.839-1.831,0.839c0,0-0.001,0-0.002,0H55.03c0,0-0.001,0-0.002,0
				c-0.723,0-1.376-0.329-1.832-0.839c-0.458-0.51-0.734-1.202-0.734-1.959v-37.62c0-0.757,0.275-1.449,0.734-1.959
				c0.456-0.51,1.109-0.839,1.832-0.839C55.028,221.948,55.029,221.948,55.03,221.948L55.03,221.948 M128.668,209.014h-88.5v61.467
				h88.5V209.014"/>
			
				<linearGradient id="SVGID_2_" gradientUnits="userSpaceOnUse" x1="-793.5034" y1="721.6707" x2="-792.5034" y2="721.6707" gradientTransform="matrix(3.6462 75.5037 -75.5037 3.6462 57518.5 57479.3789)">
				<stop  offset="0" style="stop-color:#EDEDEE"/>
				<stop  offset="0.108" style="stop-color:#DEDFE0"/>
				<stop  offset="0.3236" style="stop-color:#B8BABC"/>
				<stop  offset="0.6269" style="stop-color:#7F8083"/>
				<stop  offset="1" style="stop-color:#000000"/>
			</linearGradient>
			<polygon fill="url(#SVGID_2_)" points="147.668,258.481 128.668,270.481 128.668,209.014 147.668,197.014 			"/>
			
				<linearGradient id="SVGID_3_" gradientUnits="userSpaceOnUse" x1="-792.583" y1="719.9119" x2="-791.583" y2="719.9119" gradientTransform="matrix(-0.899 66.5305 -66.5305 -0.899 47277.7266 53568.3477)">
				<stop  offset="0" style="stop-color:#D4D5D7"/>
				<stop  offset="1" style="stop-color:#000000"/>
			</linearGradient>
			<polygon fill="url(#SVGID_3_)" points="147.668,197.014 59.168,197.014 40.168,209.014 128.668,209.014 			"/>
		</g>
		<g>
			<path fill="none" stroke="#000000" stroke-miterlimit="10" d="M55.03,222.948h55.973c0.417,0.001,0.798,0.186,1.09,0.508
				c0.29,0.322,0.478,0.777,0.478,1.29v37.62c0,0.513-0.188,0.969-0.478,1.291c-0.292,0.32-0.672,0.506-1.09,0.507H55.03
				c-0.418-0.001-0.799-0.187-1.09-0.507c-0.29-0.322-0.478-0.778-0.478-1.291v-37.62c0-0.513,0.188-0.968,0.478-1.29
				C54.231,223.133,54.612,222.949,55.03,222.948L55.03,222.948 M111.005,221.948c0,0-0.001,0-0.002,0H55.03c0,0-0.001,0-0.002,0
				c-0.723,0-1.376,0.33-1.832,0.839c-0.458,0.51-0.734,1.202-0.734,1.959v37.62c0,0.757,0.275,1.449,0.734,1.959
				c0.456,0.51,1.109,0.839,1.832,0.839h0.001h55.974h0.001c0.725,0,1.375-0.329,1.832-0.839c0.459-0.51,0.734-1.202,0.734-1.959
				v-37.62c0-0.757-0.275-1.449-0.733-1.959C112.381,222.279,111.729,221.948,111.005,221.948"/>
			<path opacity="0.9" fill="#010101" enable-background="new    " d="M83.361,241.987c-8.845-0.005-16.578-1.479-20.96-3.762
				c-1.461-0.769-2.563-1.622-3.205-2.611c-0.365-0.564-0.573-1.183-0.572-1.821c0-0.641,0.207-1.258,0.572-1.82
				c0.365-0.564,0.884-1.088,1.532-1.573c1.296-0.974,3.115-1.812,5.343-2.521c4.455-1.413,10.553-2.274,17.29-2.275
				c8.845,0.005,16.578,1.479,20.959,3.762c1.462,0.768,2.562,1.622,3.205,2.611c0.365,0.562,0.574,1.183,0.572,1.82l0,0l0,0
				c0.002,0.642-0.207,1.257-0.572,1.821c-0.364,0.565-0.883,1.087-1.531,1.573c-1.296,0.973-3.115,1.812-5.343,2.521
				C96.196,241.123,90.098,241.986,83.361,241.987 M108.29,224.946H58.892c-1.142,0-2.068,1.027-2.068,2.299v13.324
				c0,1.271,0.926,2.299,2.068,2.299h49.398c1.144,0,2.069-1.028,2.069-2.299v-13.324
				C110.357,225.973,109.432,224.946,108.29,224.946"/>
			<path fill="#EE2C24" d="M83.317,226.596c-8.706,0-16.341,1.49-20.453,3.646c-1.373,0.715-2.339,1.503-2.828,2.267
				c-0.281,0.438-0.412,0.857-0.413,1.28c0,0.423,0.132,0.843,0.413,1.279c0.28,0.437,0.714,0.882,1.292,1.313
				c1.156,0.869,2.887,1.688,5.045,2.369c4.315,1.371,10.331,2.229,16.977,2.229c0.003,0,0.007,0,0.011,0c0.015,0,0.029,0,0.044,0
				c8.706,0,16.341-1.491,20.453-3.647c1.373-0.715,2.342-1.503,2.828-2.268c0.281-0.438,0.412-0.856,0.414-1.279h0.5l0,0h-0.5
				c-0.002-0.423-0.133-0.843-0.414-1.28c-0.277-0.436-0.713-0.881-1.291-1.313c-1.156-0.868-2.888-1.688-5.043-2.368
				c-4.316-1.371-10.332-2.229-16.978-2.229c-0.002,0-0.006,0-0.009,0C83.346,226.596,83.332,226.596,83.317,226.596"/>
			<path fill="#FFFFFF" d="M98.826,231.4h1.042c0.541,0,0.866,0.009,0.974,0.021c0.216,0.036,0.384,0.122,0.503,0.261
				c0.119,0.137,0.178,0.314,0.178,0.539c0,0.196-0.045,0.361-0.135,0.494c-0.09,0.134-0.215,0.228-0.374,0.279
				c-0.16,0.054-0.559,0.081-1.199,0.081h-0.988L98.826,231.4L98.826,231.4z M98.826,236.892v-2.762h0.271
				c0.307,0,0.531,0.025,0.672,0.075c0.142,0.049,0.275,0.143,0.401,0.273c0.126,0.135,0.361,0.458,0.704,0.973l0.965,1.438h1.597
				l-0.808-1.289c-0.319-0.517-0.572-0.872-0.76-1.073c-0.188-0.2-0.426-0.387-0.715-0.555c0.58-0.084,1.016-0.288,1.308-0.61
				c0.292-0.323,0.438-0.732,0.438-1.229c0-0.391-0.096-0.736-0.289-1.041c-0.192-0.304-0.449-0.516-0.769-0.634
				c-0.32-0.119-0.833-0.179-1.54-0.179h-2.809v6.609h1.334V236.892z M96.355,236.892v-1.113h-3.693v-1.8h3.318v-1.112h-3.318V231.4
				h3.566v-1.117h-4.901v6.609H96.355z M88.749,234.461v0.839c-0.202,0.156-0.443,0.289-0.724,0.399
				c-0.281,0.108-0.562,0.164-0.841,0.164c-0.565,0-1.022-0.196-1.371-0.589c-0.349-0.395-0.523-0.979-0.523-1.768
				c0-0.728,0.172-1.273,0.517-1.646c0.344-0.37,0.808-0.556,1.391-0.556c0.385,0,0.706,0.094,0.963,0.28
				c0.257,0.188,0.432,0.443,0.525,0.771l1.325-0.248c-0.132-0.606-0.429-1.083-0.89-1.427c-0.461-0.347-1.103-0.519-1.923-0.519
				c-0.631,0-1.159,0.108-1.583,0.329c-0.556,0.286-0.979,0.695-1.267,1.23c-0.289,0.532-0.433,1.146-0.433,1.835
				c0,0.635,0.129,1.222,0.388,1.762c0.258,0.538,0.645,0.953,1.159,1.243S86.579,237,87.27,237c0.544,0,1.082-0.104,1.612-0.31
				c0.531-0.206,0.936-0.443,1.215-0.715v-2.635H87.22v1.113h1.529V234.461z M78.73,236.892v-4.312l2.665,4.312h1.339v-6.609h-1.24
				v4.415l-2.705-4.415h-1.298v6.609H78.73z M72.508,234.277l0.893-2.452l0.911,2.452H72.508z M74.123,230.282h-1.411l-2.575,6.609
				h1.416l0.546-1.501h2.642l0.577,1.501h1.452L74.123,230.282z M66.07,231.4c0.544,0,0.909,0.021,1.096,0.062
				c0.25,0.057,0.456,0.158,0.618,0.312c0.162,0.153,0.289,0.366,0.379,0.641c0.09,0.272,0.135,0.666,0.135,1.177
				c0,0.514-0.045,0.915-0.135,1.213c-0.09,0.296-0.207,0.509-0.35,0.638c-0.143,0.13-0.322,0.223-0.539,0.273
				c-0.165,0.042-0.434,0.062-0.807,0.062H65.47V231.4H66.07z M64.136,236.892h2.511c0.493,0,0.887-0.049,1.181-0.142
				c0.394-0.126,0.707-0.302,0.938-0.525c0.307-0.3,0.542-0.688,0.708-1.168c0.135-0.396,0.203-0.862,0.203-1.407
				c0-0.618-0.072-1.142-0.216-1.562c-0.145-0.423-0.354-0.777-0.631-1.069c-0.276-0.291-0.608-0.494-0.996-0.607
				c-0.289-0.084-0.708-0.127-1.258-0.127h-2.439L64.136,236.892L64.136,236.892z"/>
			<path fill="#010101" d="M76.569,251.579v-2.748h1.688v2.748h0.861v-6.284h-0.861v2.476h-1.688v-2.476h-0.862v6.284H76.569z
				 M74.04,249.268v0.798c-0.13,0.146-0.286,0.272-0.467,0.379c-0.181,0.104-0.362,0.156-0.543,0.156
				c-0.365,0-0.66-0.188-0.885-0.562c-0.225-0.372-0.337-0.933-0.337-1.678c0-0.691,0.111-1.214,0.333-1.564
				c0.222-0.351,0.521-0.525,0.898-0.525c0.249,0,0.456,0.091,0.622,0.269c0.166,0.181,0.279,0.423,0.339,0.73l0.855-0.235
				c-0.085-0.577-0.277-1.029-0.575-1.354c-0.298-0.327-0.712-0.49-1.242-0.49c-0.407,0-0.748,0.104-1.021,0.312
				c-0.359,0.271-0.632,0.662-0.818,1.17c-0.187,0.511-0.28,1.093-0.28,1.745c0,0.604,0.083,1.161,0.25,1.674
				c0.167,0.515,0.416,0.907,0.748,1.185c0.332,0.274,0.721,0.414,1.167,0.414c0.351,0,0.698-0.101,1.041-0.294
				c0.342-0.194,0.604-0.422,0.785-0.682v-2.503h-1.857v1.061L74.04,249.268L74.04,249.268z M70.247,251.579v-6.284h-0.861v6.284
				H70.247z M65.971,251.579v-2.748h1.688v2.748h0.861v-6.284h-0.861v2.476h-1.688v-2.476h-0.862v6.284H65.971z"/>
			<path fill="#010101" d="M85.793,260.357v-1.061h-2.384v-1.71h2.143v-1.061h-2.143v-1.395h2.303v-1.062h-3.165v6.283
				L85.793,260.357L85.793,260.357z M80.882,258.046v0.798c-0.13,0.148-0.286,0.274-0.467,0.381
				c-0.181,0.104-0.362,0.154-0.543,0.154c-0.365,0-0.66-0.188-0.885-0.561c-0.225-0.371-0.337-0.934-0.337-1.678
				c0-0.69,0.111-1.215,0.333-1.563c0.222-0.352,0.521-0.527,0.898-0.527c0.249,0,0.456,0.092,0.622,0.27
				c0.166,0.18,0.279,0.424,0.339,0.729l0.855-0.234c-0.085-0.577-0.277-1.028-0.575-1.355s-0.712-0.49-1.242-0.49
				c-0.407,0-0.748,0.104-1.021,0.312c-0.359,0.271-0.632,0.662-0.818,1.171c-0.187,0.509-0.28,1.091-0.28,1.744
				c0,0.604,0.083,1.161,0.25,1.675c0.167,0.513,0.416,0.906,0.748,1.183c0.332,0.276,0.721,0.414,1.167,0.414
				c0.351,0,0.698-0.099,1.041-0.294c0.342-0.193,0.604-0.422,0.785-0.68v-2.503h-1.857v1.059L80.882,258.046L80.882,258.046z
				 M74.702,257.871l0.576-2.332l0.588,2.332H74.702z M75.744,254.073h-0.911l-1.662,6.283h0.914l0.352-1.43h1.706l0.373,1.43h0.938
				L75.744,254.073z M72.228,260.357v-5.223h1.264v-1.062H70.1v1.062h1.267v5.223H72.228z M70.233,260.357v-1.061h-2.142v-5.174
				h-0.862v6.231L70.233,260.357L70.233,260.357z M63.608,255.588c0.217-0.356,0.503-0.538,0.858-0.538s0.64,0.18,0.854,0.531
				c0.214,0.354,0.322,0.894,0.322,1.611c0,0.729-0.11,1.273-0.331,1.641s-0.502,0.546-0.846,0.546c-0.343,0-0.627-0.184-0.85-0.551
				c-0.223-0.367-0.334-0.906-0.334-1.618C63.282,256.489,63.391,255.948,63.608,255.588z M62.956,259.609
				c0.375,0.57,0.879,0.854,1.514,0.854c0.627,0,1.127-0.287,1.502-0.857c0.375-0.572,0.562-1.366,0.562-2.382
				c0-1.021-0.189-1.821-0.566-2.396c-0.378-0.574-0.881-0.861-1.51-0.861c-0.347,0-0.654,0.083-0.919,0.248
				c-0.2,0.123-0.384,0.312-0.552,0.566s-0.3,0.541-0.397,0.86c-0.13,0.436-0.195,0.973-0.195,1.609
				C62.395,258.253,62.582,259.039,62.956,259.609z M60.601,260.357l1.528-6.283h-0.914l-1.045,4.65l-1.08-4.65h-0.935l1.525,6.283
				H60.601z"/>
			<path fill="#010101" d="M108.484,260.667l-9.381-16.249c-0.096-0.165-0.271-0.266-0.459-0.266s-0.364,0.104-0.459,0.266
				l-9.381,16.249c-0.096,0.165-0.096,0.367,0,0.528c0.096,0.165,0.271,0.265,0.459,0.265h18.76c0.188,0,0.365-0.103,0.461-0.265
				C108.58,261.031,108.58,260.829,108.484,260.667z"/>
			<polygon fill="#F2EA30" points="90.182,260.399 98.644,245.747 107.105,260.399 			"/>
			<polygon fill="#010101" points="97.783,249.927 96.114,255.611 98.555,254.35 98.033,258.176 97.534,257.448 97.918,259.846 
				99.318,257.825 98.61,258.264 100.082,252.844 97.449,254.294 99.375,249.925 			"/>
			<line fill="none" stroke="#000000" stroke-miterlimit="10" x1="53.827" y1="215.189" x2="66.765" y2="215.189"/>
			<path fill="none" stroke="#000000" stroke-miterlimit="10" d="M102.159,215.189h10.351 M107.334,220.365v-10.351"/>
		</g>
		<g>
			<ellipse fill="#FFFFFF" cx="69.168" cy="202.827" rx="8.625" ry="2.312"/>
			<path fill="#010101" d="M77.793,202.827h-0.5l-0.073,0.163c-0.111,0.151-0.415,0.378-0.878,0.578
				c-1.393,0.62-4.1,1.074-7.174,1.07c-2.345,0.001-4.469-0.259-5.969-0.66c-0.75-0.2-1.343-0.439-1.71-0.677
				c-0.184-0.113-0.308-0.229-0.373-0.312l-0.073-0.163l0.073-0.163c0.111-0.15,0.415-0.378,0.878-0.579
				c1.392-0.62,4.1-1.074,7.174-1.068c2.345-0.001,4.469,0.257,5.969,0.658c0.75,0.2,1.343,0.44,1.71,0.677
				c0.184,0.113,0.308,0.229,0.373,0.312l0.073,0.163H77.793h0.5c0.001-0.289-0.113-0.558-0.278-0.771
				c-0.292-0.374-0.723-0.645-1.269-0.889c-1.633-0.715-4.4-1.15-7.578-1.154c-2.419,0.001-4.607,0.261-6.229,0.692
				c-0.812,0.219-1.481,0.479-1.986,0.796c-0.252,0.16-0.467,0.337-0.632,0.555c-0.165,0.213-0.279,0.479-0.278,0.771
				c-0.001,0.289,0.113,0.557,0.278,0.771c0.292,0.374,0.723,0.644,1.269,0.887c1.633,0.716,4.4,1.15,7.578,1.156
				c2.419-0.001,4.607-0.263,6.229-0.694c0.812-0.219,1.481-0.479,1.986-0.796c0.252-0.159,0.467-0.338,0.632-0.553
				s0.279-0.479,0.278-0.771H77.793z"/>
			<ellipse fill="#FFFFFF" cx="69.168" cy="200.827" rx="6.9" ry="1.85"/>
			<path fill="#010101" d="M76.068,200.827h-0.5l-0.038,0.068c-0.071,0.101-0.301,0.274-0.663,0.434
				c-1.09,0.485-3.251,0.854-5.7,0.848c-1.868,0.001-3.561-0.203-4.75-0.522c-0.593-0.157-1.061-0.349-1.34-0.526
				c-0.141-0.089-0.231-0.173-0.272-0.229l-0.038-0.068l0.038-0.068c0.07-0.101,0.301-0.275,0.663-0.434
				c1.09-0.486,3.25-0.853,5.699-0.849c1.868-0.001,3.561,0.205,4.75,0.522c0.593,0.158,1.061,0.351,1.34,0.526
				c0.141,0.09,0.231,0.174,0.272,0.229l0.038,0.069H76.068h0.5c0.001-0.258-0.102-0.493-0.243-0.677
				c-0.251-0.321-0.609-0.541-1.055-0.74c-1.33-0.581-3.55-0.93-6.103-0.934c-1.942,0-3.7,0.209-5.008,0.56
				c-0.656,0.177-1.199,0.385-1.617,0.647c-0.208,0.134-0.389,0.279-0.532,0.467c-0.141,0.184-0.244,0.419-0.243,0.677
				c-0.001,0.257,0.102,0.492,0.243,0.676c0.251,0.322,0.609,0.541,1.055,0.741c1.33,0.58,3.55,0.929,6.103,0.933
				c1.943-0.001,3.7-0.209,5.009-0.559c0.656-0.178,1.199-0.386,1.617-0.648c0.208-0.134,0.389-0.279,0.532-0.467
				c0.141-0.184,0.244-0.419,0.243-0.676H76.068z"/>
			<ellipse fill="#FFFFFF" cx="69.168" cy="198.827" rx="5.52" ry="1.479"/>
			<path fill="#010101" d="M74.688,198.827h-0.5h0.073l-0.069-0.026l-0.004,0.026h0.073l-0.069-0.026l-0.011,0.02
				c-0.034,0.055-0.203,0.189-0.482,0.312c-0.844,0.384-2.574,0.681-4.531,0.677c-1.487,0.001-2.834-0.164-3.773-0.417
				c-0.468-0.125-0.834-0.274-1.045-0.41c-0.105-0.065-0.168-0.127-0.192-0.159l-0.013-0.021l-0.069,0.026h0.073l-0.004-0.026
				l-0.069,0.026h0.073h-0.072l0.068,0.025l0.004-0.025h-0.072l0.068,0.025l0.011-0.02c0.035-0.055,0.203-0.19,0.482-0.312
				c0.844-0.383,2.573-0.681,4.53-0.677c1.487,0,2.835,0.164,3.774,0.417c0.468,0.125,0.835,0.275,1.045,0.41
				c0.105,0.065,0.169,0.127,0.192,0.159l0.014,0.021l0.068-0.025h-0.072l0.004,0.025l0.068-0.025h-0.072H74.688l0.5-0.001
				c0.001-0.231-0.092-0.443-0.215-0.603c-0.219-0.28-0.518-0.459-0.883-0.624c-1.088-0.476-2.87-0.751-4.923-0.757
				c-1.562,0-2.974,0.167-4.032,0.451c-0.531,0.145-0.973,0.312-1.321,0.531c-0.174,0.11-0.327,0.235-0.451,0.396
				c-0.123,0.157-0.216,0.368-0.215,0.603c-0.001,0.23,0.092,0.442,0.215,0.602c0.219,0.279,0.518,0.459,0.882,0.623
				c1.088,0.476,2.87,0.751,4.922,0.757c1.562-0.001,2.974-0.168,4.033-0.45c0.53-0.146,0.973-0.312,1.321-0.53
				c0.174-0.111,0.328-0.235,0.452-0.396c0.123-0.159,0.216-0.37,0.215-0.604L74.688,198.827L74.688,198.827z"/>
			<ellipse fill="#FFFFFF" cx="69.168" cy="196.827" rx="4.416" ry="1.184"/>
			<path fill="#010101" d="M73.584,196.827h-0.5h0.159l-0.149-0.058l-0.01,0.058h0.159l-0.149-0.058l0.077,0.027l-0.072-0.04
				l-0.005,0.013l0.077,0.027l-0.072-0.04l-0.01,0.014c-0.034,0.042-0.176,0.145-0.399,0.232c-0.676,0.286-2.014,0.51-3.521,0.505
				c-1.182,0-2.253-0.131-2.993-0.328c-0.368-0.1-0.654-0.218-0.808-0.314l-0.128-0.104l-0.001-0.002l-0.119,0.068h0.134
				l-0.015-0.068l-0.119,0.068h0.134h-0.158l0.148,0.056l0.01-0.056h-0.158l0.148,0.056l-0.076-0.027l0.071,0.04l0.005-0.013
				l-0.076-0.027l0.071,0.04l0.01-0.014c0.034-0.042,0.176-0.145,0.399-0.232c0.676-0.285,2.014-0.508,3.521-0.504
				c1.183,0,2.254,0.131,2.994,0.33c0.368,0.099,0.654,0.216,0.808,0.314l0.127,0.104l0.002,0.002l0.118-0.066h-0.133l0.015,0.066
				l0.118-0.066h-0.133h0.499h0.5c0.001-0.211-0.084-0.401-0.192-0.542c-0.193-0.246-0.445-0.395-0.745-0.529
				c-0.895-0.389-2.326-0.607-3.979-0.611c-1.256,0-2.393,0.134-3.252,0.362c-0.431,0.117-0.792,0.255-1.084,0.438
				c-0.146,0.094-0.278,0.199-0.387,0.342c-0.108,0.141-0.193,0.331-0.192,0.542c-0.001,0.211,0.084,0.401,0.192,0.542
				c0.193,0.246,0.445,0.395,0.745,0.528c0.895,0.39,2.326,0.607,3.978,0.613c1.257-0.001,2.394-0.137,3.252-0.364
				c0.431-0.115,0.792-0.253,1.084-0.438c0.146-0.093,0.278-0.197,0.387-0.341c0.108-0.141,0.193-0.331,0.192-0.542h-0.499V196.827z
				"/>
			<ellipse fill="#FFFFFF" cx="120.814" cy="202.514" rx="8.625" ry="2.312"/>
			<path fill="#010101" d="M129.439,202.514h-0.5l-0.072,0.161c-0.111,0.152-0.416,0.38-0.879,0.579
				c-1.393,0.62-4.1,1.074-7.174,1.07c-2.348,0.001-4.469-0.258-5.973-0.66c-0.746-0.2-1.343-0.438-1.71-0.675
				c-0.184-0.115-0.309-0.229-0.373-0.314l-0.069-0.161l0.069-0.163c0.111-0.151,0.416-0.378,0.88-0.579
				c1.394-0.62,4.102-1.073,7.176-1.069c2.345-0.001,4.469,0.257,5.97,0.659c0.749,0.2,1.343,0.438,1.71,0.676
				c0.184,0.114,0.309,0.229,0.373,0.313l0.072,0.163H129.439h0.5c0-0.289-0.113-0.559-0.277-0.771
				c-0.292-0.374-0.725-0.644-1.27-0.888c-1.636-0.715-4.399-1.151-7.578-1.155c-2.42,0.001-4.607,0.261-6.229,0.693
				c-0.812,0.22-1.479,0.478-1.985,0.796c-0.254,0.16-0.468,0.337-0.634,0.554c-0.164,0.213-0.278,0.479-0.276,0.771
				c-0.002,0.287,0.112,0.558,0.276,0.771c0.292,0.374,0.724,0.643,1.271,0.887c1.635,0.715,4.398,1.152,7.578,1.156
				c2.418-0.001,4.606-0.262,6.229-0.694c0.812-0.219,1.479-0.477,1.985-0.796c0.254-0.16,0.468-0.338,0.634-0.553
				c0.164-0.213,0.276-0.479,0.276-0.771H129.439z"/>
			<ellipse fill="#FFFFFF" cx="120.814" cy="200.514" rx="6.897" ry="1.85"/>
			<path fill="#010101" d="M127.715,200.514h-0.5l-0.038,0.067c-0.069,0.102-0.301,0.275-0.663,0.435
				c-1.09,0.484-3.25,0.853-5.699,0.849c-1.865,0.001-3.561-0.205-4.75-0.524c-0.592-0.156-1.061-0.349-1.34-0.525
				c-0.141-0.089-0.229-0.173-0.271-0.229l-0.037-0.067l0.037-0.068c0.069-0.101,0.302-0.276,0.664-0.434
				c1.09-0.486,3.251-0.854,5.696-0.85c1.869-0.001,3.562,0.205,4.75,0.523c0.596,0.158,1.062,0.35,1.344,0.525
				c0.14,0.091,0.229,0.175,0.271,0.229l0.037,0.069H127.715h0.5c0.001-0.259-0.102-0.493-0.242-0.678
				c-0.252-0.32-0.609-0.541-1.055-0.739c-1.331-0.581-3.551-0.931-6.104-0.935c-1.942,0-3.701,0.209-5.01,0.561
				c-0.654,0.177-1.197,0.385-1.617,0.647c-0.209,0.133-0.392,0.28-0.53,0.466c-0.142,0.185-0.244,0.419-0.243,0.678
				c-0.001,0.257,0.102,0.491,0.243,0.676c0.251,0.321,0.608,0.541,1.054,0.741c1.331,0.578,3.551,0.929,6.104,0.934
				c1.942-0.001,3.701-0.209,5.012-0.56c0.652-0.179,1.195-0.387,1.615-0.647c0.209-0.135,0.392-0.281,0.531-0.468
				c0.141-0.185,0.243-0.419,0.242-0.676H127.715L127.715,200.514z"/>
			<ellipse fill="#FFFFFF" cx="120.814" cy="198.514" rx="5.521" ry="1.479"/>
			<path fill="#010101" d="M126.335,198.514h-0.5h0.073l-0.069-0.025l-0.004,0.025h0.073l-0.069-0.025l-0.012,0.018
				c-0.034,0.056-0.202,0.191-0.481,0.312c-0.845,0.383-2.574,0.681-4.531,0.676c-1.484,0-2.834-0.164-3.771-0.417
				c-0.472-0.125-0.835-0.275-1.045-0.41c-0.104-0.064-0.169-0.127-0.188-0.159l-0.017-0.021l-0.067,0.026h0.071l-0.004-0.026
				l-0.067,0.026h0.071h-0.069l0.065,0.024l0.004-0.024h-0.069l0.065,0.024l0.015-0.019c0.031-0.057,0.199-0.191,0.479-0.312
				c0.844-0.382,2.57-0.681,4.527-0.675c1.487-0.001,2.836,0.163,3.774,0.417c0.468,0.125,0.834,0.274,1.045,0.409
				c0.104,0.064,0.169,0.127,0.191,0.159l0.014,0.021l0.068-0.024h-0.072l0.004,0.024l0.068-0.024h-0.072H126.335l0.5-0.001
				c0.001-0.23-0.092-0.443-0.215-0.604c-0.22-0.28-0.519-0.459-0.884-0.624c-1.088-0.476-2.869-0.751-4.922-0.755
				c-1.562,0-2.977,0.167-4.032,0.45c-0.531,0.145-0.974,0.312-1.321,0.531c-0.174,0.109-0.327,0.234-0.451,0.396
				c-0.123,0.158-0.216,0.37-0.215,0.603c-0.001,0.23,0.092,0.442,0.215,0.604c0.219,0.278,0.518,0.459,0.883,0.623
				c1.088,0.474,2.869,0.751,4.922,0.755c1.562-0.001,2.977-0.168,4.033-0.45c0.53-0.145,0.973-0.312,1.321-0.529
				c0.174-0.111,0.327-0.235,0.451-0.396c0.123-0.159,0.216-0.37,0.215-0.603L126.335,198.514L126.335,198.514z"/>
			<ellipse fill="#FFFFFF" cx="120.814" cy="196.514" rx="4.416" ry="1.184"/>
			<path fill="#010101" d="M125.23,196.514h-0.5h0.158l-0.148-0.059l-0.01,0.059h0.158l-0.148-0.059l0.076,0.028l-0.071-0.039
				l-0.005,0.011l0.076,0.028l-0.071-0.039l-0.011,0.012c-0.033,0.042-0.176,0.146-0.398,0.233
				c-0.676,0.285-2.014,0.509-3.521,0.506c-1.182,0-2.254-0.132-2.992-0.33c-0.366-0.099-0.651-0.217-0.809-0.316l-0.127-0.103
				l-0.003-0.002l-0.118,0.067h0.133l-0.015-0.067l-0.118,0.067h0.133h-0.154l0.146,0.056l0.01-0.056h-0.155l0.146,0.056
				l-0.076-0.028l0.072,0.04l0.004-0.012l-0.076-0.028l0.072,0.04l0.01-0.013c0.033-0.042,0.177-0.146,0.398-0.233
				c0.676-0.285,2.016-0.507,3.521-0.504c1.183-0.001,2.254,0.13,2.992,0.33c0.366,0.097,0.652,0.216,0.81,0.314l0.127,0.104
				l0.002,0.002l0.118-0.065h-0.133l0.015,0.065l0.118-0.065h-0.133H125.23h0.5c0-0.213-0.084-0.402-0.192-0.542
				c-0.192-0.246-0.445-0.396-0.745-0.529c-0.895-0.391-2.325-0.607-3.979-0.611c-1.258,0-2.396,0.134-3.252,0.362
				c-0.434,0.117-0.793,0.254-1.086,0.438c-0.146,0.095-0.276,0.199-0.389,0.343c-0.105,0.14-0.191,0.33-0.189,0.542
				c-0.002,0.211,0.084,0.4,0.189,0.542c0.193,0.243,0.445,0.394,0.745,0.527c0.896,0.391,2.326,0.608,3.979,0.613
				c1.256-0.001,2.395-0.136,3.252-0.364c0.432-0.117,0.791-0.253,1.084-0.438c0.146-0.093,0.276-0.198,0.389-0.34
				c0.107-0.142,0.191-0.331,0.191-0.542L125.23,196.514L125.23,196.514z"/>
		</g>
		<path fill="#010101" d="M176.327,161.004c-0.706,2.606-1.968,4.558-3.683,6.115c-2.992,2.725-7.483,4.217-12.66,5.229
			c-7.758,1.533-16.941,2-24.668,4.658c-3.861,1.334-7.381,3.237-10.121,6.156c-2.741,2.917-4.659,6.837-5.371,12.028
			c-0.076,0.548,0.307,1.053,0.854,1.128c0.547,0.074,1.053-0.309,1.127-0.854c0.514-3.698,1.646-6.595,3.23-8.917
			c2.77-4.053,6.988-6.429,11.992-8c7.5-2.356,16.629-2.797,24.475-4.471c3.925-0.844,7.547-1.999,10.502-3.945
			c2.954-1.938,5.217-4.727,6.255-8.608c0.144-0.532-0.172-1.082-0.704-1.228C177.021,160.156,176.473,160.471,176.327,161.004z"/>
		<path d="M11.427,159.025c0.456,3.333,1.749,6.198,3.635,8.632c3.306,4.262,8.361,7.224,14.027,9.559
			c8.5,3.493,18.457,5.582,26.212,8.104c3.875,1.257,7.192,2.628,9.45,4.25c1.131,0.81,1.992,1.673,2.562,2.592
			c0.569,0.922,0.866,1.896,0.869,3.031c0,0.128-0.004,0.259-0.012,0.392c-0.033,0.551,0.387,1.024,0.938,1.06
			c0.551,0.031,1.025-0.389,1.058-0.938c0.01-0.171,0.016-0.342,0.016-0.511c0.009-2.296-0.988-4.274-2.593-5.854
			c-1.405-1.389-3.264-2.525-5.439-3.543c-3.808-1.771-8.608-3.168-13.726-4.591c-7.672-2.129-16.057-4.318-22.68-7.724
			c-3.312-1.698-6.175-3.694-8.309-6.101c-2.133-2.406-3.552-5.204-4.026-8.631c-0.075-0.547-0.58-0.93-1.126-0.854
			C11.735,157.974,11.352,158.478,11.427,159.025z"/>
		<path opacity="0.5" fill="#64BC46" enable-background="new    " d="M177.293,161.264H18.709c0,0-18.709-0.958-18.709-78.455
			C0,5.764,18.709,2.371,18.709,2.371h158.584V161.264z"/>
	</g>
</g>
<g id="GoldRightOff">
	<defs>
		<path id="SVGID_4_" d="M185.286,70.434c0.522,0,17.774,0,17.774,0V2.371h-47.669v158.894h47.669V93.177c0,0-17.297,0-17.774,0
			c-0.687,0-2.267-2.849-2.267-11.372S184.764,70.434,185.286,70.434z"/>
	</defs>
	<clipPath id="SVGID_5_">
		<use xlink:href="#SVGID_4_"  overflow="visible"/>
	</clipPath>
	
		<linearGradient id="SVGID_6_" gradientUnits="userSpaceOnUse" x1="181.9004" y1="192.323" x2="182.1379" y2="187.7717" gradientTransform="matrix(1 0 0 -1 0 271.48)">
		<stop  offset="0" style="stop-color:#303030"/>
		<stop  offset="1" style="stop-color:#C0C0C0"/>
	</linearGradient>
	<path clip-path="url(#SVGID_5_)" fill="url(#SVGID_6_)" d="M185.286,93.177h-8.248c0.791,0,2.272-3.906,2.272-11.372
		c0-7.464-1.481-11.371-2.272-11.371h8.248c0.791,0,2.272,3.907,2.272,11.371C187.559,89.271,186.077,93.177,185.286,93.177z"/>
	<path clip-path="url(#SVGID_5_)" fill="#606060" d="M185.286,2.367c9.802,0,17.774,36.159,17.774,79.438
		c0,43.28-7.975,79.446-17.774,79.446s-18.709-30.773-18.709-79.447C166.577,35.854,174.949,2.367,185.286,2.367z M185.286,94.126
		c2.349,0,3.208-7.37,3.208-12.32c0-4.949-0.859-12.319-3.208-12.319c-2.351,0-3.198,7.37-3.198,12.319
		C182.088,86.756,182.936,94.126,185.286,94.126"/>
	<path clip-path="url(#SVGID_5_)" fill="#606060" d="M185.286,69.486c2.349,0,3.208,7.37,3.208,12.319
		c0,4.951-0.859,12.32-3.208,12.32c-2.351,0-3.198-7.37-3.198-12.32C182.088,76.856,182.936,69.486,185.286,69.486z M185.286,93.177
		c0.791,0,2.272-3.906,2.272-11.372c0-7.464-1.481-11.371-2.272-11.371s-2.267,3.907-2.267,11.371
		C183.02,89.271,184.495,93.177,185.286,93.177"/>
	
		<linearGradient id="SVGID_7_" gradientUnits="userSpaceOnUse" x1="173.0381" y1="151.3777" x2="171.7717" y2="230.2259" gradientTransform="matrix(1 0 0 -1 0 271.48)">
		<stop  offset="0" style="stop-color:#303030"/>
		<stop  offset="1" style="stop-color:#C0C0C0"/>
	</linearGradient>
	<path clip-path="url(#SVGID_5_)" fill="url(#SVGID_7_)" d="M185.286,161.252h-8.248c-10.491,0-18.709-34.892-18.709-79.447
		c0-44.545,8.218-79.438,18.709-79.438h8.248c-9.962,0-18.709,34.893-18.709,79.438C166.577,126.36,174.795,161.252,185.286,161.252
		z"/>
</g>
</svg>
