<?xml version="1.0" encoding="utf-8"?>
<!-- Generator: Adobe Illustrator 15.0.0, SVG Export Plug-In . SVG Version: 6.00 Build 0)  -->
<!DOCTYPE svg PUBLIC "-//W3C//DTD SVG 1.1//EN" "http://www.w3.org/Graphics/SVG/1.1/DTD/svg11.dtd">
<svg version="1.1" id="Layer_1" xmlns="http://www.w3.org/2000/svg" xmlns:xlink="http://www.w3.org/1999/xlink" x="0px" y="0px"
	 width="45.666px" height="158.885px" viewBox="0 0 45.666 158.885" enable-background="new 0 0 45.666 158.885"
	 xml:space="preserve">
<path fill="#C4C4C4" d="M26.108,0c9.801,0,17.773,35.635,17.773,79.438c0,43.802-7.975,79.447-17.773,79.447
	c-9.8,0-17.86-35.646-17.86-79.447C8.248,35.635,16.307,0,26.108,0z"/>
<linearGradient id="SVGID_1_" gradientUnits="userSpaceOnUse" x1="14.708" y1="42.1504" x2="13.4417" y2="120.9993" gradientTransform="matrix(1 0 0 -1 0 159.8848)">
	<stop  offset="0" style="stop-color:#808080"/>
	<stop  offset="1" style="stop-color:#E0E0E0"/>
</linearGradient>
<path fill="url(#SVGID_1_)" d="M26.957,158.885h-8.248C8.217,158.885,0,123.992,0,79.438C0,34.893,8.217,0,18.709,0h8.248
	C16.466,0,8.248,34.893,8.248,79.438C8.248,123.992,16.466,158.885,26.957,158.885z"/>
</svg>
