<?xml version="1.0" encoding="utf-8"?>
<!-- Generator: Adobe Illustrator 15.0.0, SVG Export Plug-In . SVG Version: 6.00 Build 0)  -->
<!DOCTYPE svg PUBLIC "-//W3C//DTD SVG 1.1//EN" "http://www.w3.org/Graphics/SVG/1.1/DTD/svg11.dtd">
<svg version="1.1" id="Layer_1" xmlns="http://www.w3.org/2000/svg" xmlns:xlink="http://www.w3.org/1999/xlink" x="0px" y="0px"
	 width="20.041px" height="23.562px" viewBox="0 0 20.041 23.562" enable-background="new 0 0 20.041 23.562" xml:space="preserve">
<g>
	<defs>
		<path id="SVGID_1_" d="M20.041,24.156c0,0-17.297,0-17.774,0C1.58,24.156,0,20.307,0,11.784S1.744-0.587,2.267-0.587
			s17.774,0,17.774,0V24.156z"/>
	</defs>
	<clipPath id="SVGID_2_">
		<use xlink:href="#SVGID_1_"  overflow="visible"/>
	</clipPath>
	
		<linearGradient id="SVGID_3_" gradientUnits="userSpaceOnUse" x1="-1.1191" y1="16.3008" x2="-0.8816" y2="11.7493" gradientTransform="matrix(1 0 0 -1 0 25.4375)">
		<stop  offset="0" style="stop-color:#808080"/>
		<stop  offset="1" style="stop-color:#E0E0E0"/>
	</linearGradient>
	<path clip-path="url(#SVGID_2_)" fill="url(#SVGID_3_)" d="M2.267,23.156h-8.248c0.791,0,2.272-3.906,2.272-11.373
		c0-7.464-1.481-11.371-2.272-11.371h8.248c0.791,0,2.272,3.907,2.272,11.371C4.539,19.25,3.058,23.156,2.267,23.156z"/>
	<path clip-path="url(#SVGID_2_)" fill="#C4C4C3" d="M2.267-67.654c9.802,0,17.774,36.159,17.774,79.438
		c0,43.28-7.975,79.446-17.774,79.446s-18.709-30.773-18.709-79.447C-16.442-34.167-8.07-67.654,2.267-67.654z M2.267,24.105
		c2.349,0,3.208-7.371,3.208-12.321c0-4.949-0.859-12.319-3.208-12.319c-2.351,0-3.198,7.37-3.198,12.319
		C-0.932,16.734-0.084,24.105,2.267,24.105"/>
	<path clip-path="url(#SVGID_2_)" fill="#C4C4C3" d="M2.267-0.536c2.349,0,3.208,7.37,3.208,12.319c0,4.951-0.859,12.32-3.208,12.32
		c-2.351,0-3.198-7.369-3.198-12.32C-0.932,6.834-0.084-0.536,2.267-0.536z M2.267,23.156c0.791,0,2.272-3.906,2.272-11.373
		c0-7.464-1.481-11.371-2.272-11.371S0,4.32,0,11.784C0,19.25,1.476,23.156,2.267,23.156"/>
	
		<linearGradient id="SVGID_4_" gradientUnits="userSpaceOnUse" x1="-9.9814" y1="-24.6431" x2="-11.2478" y2="54.2054" gradientTransform="matrix(1 0 0 -1 0 25.4375)">
		<stop  offset="0" style="stop-color:#9F8657"/>
		<stop  offset="0" style="stop-color:#9F8657"/>
		<stop  offset="1" style="stop-color:#FCDE8B"/>
	</linearGradient>
	<path clip-path="url(#SVGID_2_)" fill="url(#SVGID_4_)" d="M2.267,91.23h-8.248c-10.491,0-18.709-34.893-18.709-79.447
		c0-44.545,8.218-79.438,18.709-79.438h8.248c-9.962,0-18.709,34.893-18.709,79.438C-16.442,56.338-8.225,91.23,2.267,91.23z"/>
</g>
</svg>
