<?xml version="1.0" encoding="utf-8"?>
<!-- Generator: Adobe Illustrator 15.0.0, SVG Export Plug-In . SVG Version: 6.00 Build 0)  -->
<!DOCTYPE svg PUBLIC "-//W3C//DTD SVG 1.1//EN" "http://www.w3.org/Graphics/SVG/1.1/DTD/svg11.dtd">
<svg version="1.1" xmlns="http://www.w3.org/2000/svg" xmlns:xlink="http://www.w3.org/1999/xlink" x="0px" y="0px" width="200px"
	 height="391.333px" viewBox="-194.083 -147.167 200 391.333" enable-background="new -194.083 -147.167 200 391.333"
	 xml:space="preserve">
<g id="Layer_2">
	<rect x="-194.083" y="-147.167" fill="#BBDBDB" stroke="#231F20" width="200" height="391.333"/>
</g>
<g id="Layer_1">
	<path fill-opacity="0" stroke="#000000" d="M-173.179,220.481l1.262-0.059l1.264-0.072l1.264-0.082l1.262-0.098l1.264-0.115
		l1.262-0.133l1.264-0.158l1.263-0.186l1.262-0.217l1.265-0.252l1.262-0.291l1.263-0.334l1.263-0.375l1.262-0.418l1.265-0.449
		l1.263-0.469l1.262-0.467l1.264-0.438l1.262-0.377l1.264-0.289l1.263-0.181l1.263-0.063l1.264,0.046l1.262,0.141l1.264,0.209
		l1.262,0.26l1.264,0.285l1.263,0.297l1.263,0.293l1.264,0.283l1.262,0.27l1.263,0.25l1.263,0.232l1.263,0.213l1.264,0.193
		l1.263,0.18l1.262,0.162l1.264,0.148l1.262,0.137"/>
	<path fill="#7354A3" fill-opacity="0" stroke="#711F7E" d="M-173.179-71.25l1.263,1.58l1.262-3.96l1.263,4.104l1.263-1.502
		l1.263-2.625l1.263,5.791l1.262-5.654l1.263,1.618l1.263,4.397l1.263-8.704l1.263,7.963l1.262-1.571l1.263-7.285l1.264,12.995
		l1.262-10.956l1.264,1.118l1.262,11.026l1.264-17.447l1.263,13.119l1.263-0.143l1.264-13.178l1.262,18.131l1.263-11.854
		l1.263-0.918l1.264,11.686l1.263-14.212l1.263,8.19l1.262,1.507l1.264-8.668l1.263,9.649l1.263-5.003l1.263-1.63l1.263,6.152
		l1.264-6.399l1.263,2.984l1.263,1.538l1.262-4.436l1.264,4.342l1.263-1.793"/>
	<path fill-opacity="0" stroke="#2E3192" d="M-173.179,11.083l1.262,3.025l1.264,0.736l1.263-2.658l1.262-4.205l1.264-2.104
		l1.263,2.398l1.263,5.564l1.263,4.124l1.262-1.55l1.265-6.99l1.262-6.947l1.263-0.232l1.263,8.166l1.264,10.488l1.263,3.198
		l1.262-8.485l1.264-13.941l1.263-6.921l1.263,7.259l1.263,15.58l1.262,9.936l1.265-4.438l1.262-14.141l1.263-10.921l1.263,1.063
		l1.263,10.525l1.264,9.998l1.262,1.551l1.263-6.656l1.264-8.146l1.263-2.968l1.263,3.596l1.263,6.165l1.264,3.457l1.262-1.483
		l1.263-4.419l1.264-3.395l1.262,0.129l1.264,2.992"/>
	<path fill-opacity="0" stroke="#F47920" d="M-173.179,137.389l1.23-1.09l1.23-1.104l1.23-0.947l1.23-0.611l1.23-0.105l1.23,0.518
		l1.23,1.189l1.229,1.805l1.232,2.258l1.229,2.426l1.23,2.211l1.23,1.559l1.23,0.482l1.23-0.926l1.23-2.443l1.229-3.777l1.231-4.584
		l1.229-4.572l1.231-3.619l1.229-1.863l1.23,0.311l1.23,2.375l1.23,3.861l1.23,4.49l1.23,4.244l1.229,3.307l1.231,1.98l1.229,0.574
		l1.231-0.668l1.229-1.584l1.231-2.104l1.23-2.23l1.229-2.023l1.231-1.574l1.229-0.992l1.231-0.375l1.229,0.188l1.23,0.631
		l1.23,0.92"/>
	<path fill-opacity="0" stroke="#008343" d="M-173.179,52.137l1.249,1.783l1.249,1.346l1.248,0.258l1.249-1.141l1.249-2.33
		l1.248-2.77l1.25-2.107l1.248-0.404l1.248,1.846l1.249,3.793l1.249,4.508l1.249,3.402l1.248,0.537l1.249-3.172l1.249-6.205
		l1.248-6.99l1.25-4.73l1.247-0.023l1.249,5.156l1.249,8.334l1.249,7.896l1.249,4.047l1.248-1.299l1.249-5.629l1.248-7.197
		l1.249-5.734l1.249-2.311l1.248,1.404l1.249,3.949l1.249,4.6l1.249,3.473l1.249,1.312l1.247-0.932l1.25-2.439l1.248-2.818
		l1.249-2.133l1.249-0.807l1.248,0.592l1.249,1.555"/>
	<path fill-opacity="0" stroke="#CE181E" d="M-173.179,179.279l1.275,0.586l1.274,0.662l1.274,0.731l1.274,0.778l1.274,0.803
		l1.275,0.799l1.274,0.753l1.274,0.665l1.274,0.521l1.274,0.318l1.274,0.043l1.274-0.299l1.274-0.708l1.274-1.164l1.274-1.641
		l1.274-2.085l1.274-2.436l1.274-2.621l1.275-2.578l1.274-2.287l1.274-1.773l1.274-1.103l1.274-0.377l1.274,0.308l1.274,0.875
		l1.275,1.294l1.274,1.554l1.275,1.67l1.274,1.674l1.274,1.592l1.275,1.449l1.273,1.271l1.275,1.074l1.274,0.871l1.274,0.674
		l1.275,0.484l1.274,0.312l1.275,0.158l1.274,0.025"/>
	<path fill-opacity="0" stroke="#711F7E" d="M-173.179-30.305l1.264,3.049l1.263-0.367l1.262-3.932l1.264-3.047l1.263,1.986
		l1.264,5.428l1.262,2.449l1.264-4.386l1.263-6.901l1.262-0.831l1.264,7.683l1.263,7.867l1.263-2.361l1.263-11.607l1.263-7.314
		l1.264,7.408l1.262,14.768l1.263,3.933l1.264-12.987l1.262-14.528l1.264,1.894l1.263,15.698l1.263,10.043l1.263-6.843l1.263-13.93
		l1.264-4.301l1.262,8.645l1.263,9.891l1.264,0.068l1.262-8.075l1.264-5.958l1.263,2.25l1.263,6.539l1.263,2.963l1.263-3.211
		l1.263-4.836l1.263-0.911l1.264,3.368l1.262,3.281"/>
	<path fill-opacity="0" stroke="#FFDD00" d="M-173.179,92.954l1.27,0.945l1.271,0.914l1.271,0.688l1.271,0.275l1.271-0.277
		l1.271-0.881l1.271-1.426l1.271-1.781l1.271-1.831l1.271-1.489l1.271-0.742l1.271,0.34l1.271,1.588l1.271,2.736l1.271,3.47
		l1.271,3.507l1.271,2.688l1.271,1.092l1.271-0.941l1.271-2.862l1.271-4.113l1.271-4.343l1.271-3.535l1.271-1.996l1.271-0.205
		l1.27,1.377l1.271,2.43l1.271,2.824l1.271,2.609l1.271,1.947l1.27,1.049l1.271,0.129l1.271-0.648l1.271-1.17l1.271-1.394
		l1.271-1.332l1.271-1.049l1.271-0.626l1.271-0.166"/>
	<text transform="matrix(1 0 0 1 -97.8457 -104.0093)" font-family="'Lato-Regular'" font-size="21">Sunlight</text>
	<text transform="matrix(1 0 0 1 -97.8457 225.1675)" font-family="'Lato-Regular'" font-size="21">Infrared</text>
	<path fill-opacity="0" stroke="#000000" d="M-173.179-112.566l1.263,1.58l1.262-3.959l1.263,4.104l1.263-1.502l1.263-2.625
		l1.263,5.791l1.262-5.654l1.263,1.618l1.263,4.397l1.263-8.704l1.263,7.962l1.262-1.571l1.263-7.285l1.264,12.995l1.262-10.956
		l1.264,1.118l1.262,11.026l1.264-17.447l1.263,13.119l1.263-0.143l1.264-13.178l1.262,18.131l1.263-11.854l1.263-0.917
		l1.264,11.685l1.263-14.212l1.263,8.19l1.262,1.507l1.264-8.668l1.263,9.649l1.263-5.002l1.263-1.63l1.263,6.152l1.264-6.399
		l1.263,2.984l1.263,1.538l1.262-4.435l1.264,4.341l1.263-1.792"/>
	<g>
		<path d="M-87.313,37.881c0.378,2.854,0.903,5.314,1.574,7.381s1.464,3.689,2.382,4.871c0.918,1.181,1.916,1.771,2.994,1.771v2.952
			c-1.079,0-2.076,0.564-2.994,1.697c-0.917,1.13-1.711,2.73-2.382,4.797c-0.67,2.067-1.195,4.525-1.574,7.381
			c-0.378,2.853-0.568,6-0.568,9.446c0,5.706,0.153,11.267,0.459,16.679c0.306,5.411,0.648,10.775,1.027,16.09
			c0.378,5.313,0.721,10.7,1.027,16.161c0.306,5.462,0.459,11.095,0.459,16.901c0,5.313-0.256,10.281-0.765,14.908
			c-0.51,4.625-1.224,8.656-2.142,12.104c-0.917,3.442-2.025,6.148-3.322,8.117c-1.296,1.967-2.717,2.953-4.261,2.953h-2.447v-1.182
			c0-0.985,0.175-1.476,0.524-1.476h1.923c1.34,0,2.593-0.837,3.759-2.509c1.165-1.676,2.178-4.061,3.038-7.16
			s1.53-6.814,2.011-11.144c0.48-4.331,0.721-9.202,0.721-14.612c0-5.609-0.153-11.144-0.459-16.605
			c-0.306-5.461-0.648-10.922-1.027-16.383c-0.379-5.463-0.721-10.924-1.027-16.385c-0.306-5.462-0.459-10.947-0.459-16.458
			c0-3.741,0.197-7.062,0.59-9.963c0.393-2.903,0.896-5.388,1.508-7.454c0.612-2.066,1.296-3.716,2.054-4.945
			c0.757-1.23,1.486-2.043,2.185-2.436c-0.699-0.493-1.428-1.354-2.185-2.582c-0.758-1.232-1.442-2.879-2.054-4.945
			c-0.612-2.066-1.115-4.527-1.508-7.38c-0.394-2.854-0.59-6.151-0.59-9.89c0-5.512,0.153-10.996,0.459-16.457
			c0.306-5.462,0.648-10.923,1.027-16.384s0.721-10.922,1.027-16.384c0.306-5.462,0.459-10.996,0.459-16.605
			c0-5.411-0.241-10.282-0.721-14.613c-0.481-4.329-1.151-8.044-2.011-11.144c-0.859-3.1-1.873-5.485-3.038-7.159
			c-1.166-1.672-2.419-2.509-3.759-2.509h-1.923c-0.35,0-0.524-0.491-0.524-1.477v-1.181h2.447c1.544,0,2.965,0.984,4.261,2.952
			c1.297,1.97,2.404,4.675,3.322,8.118c0.918,3.445,1.632,7.479,2.142,12.104c0.509,4.626,0.765,9.594,0.765,14.908
			c0,5.805-0.153,11.439-0.459,16.9c-0.306,5.461-0.648,10.849-1.027,16.162c-0.379,5.314-0.722,10.651-1.027,16.015
			c-0.306,5.362-0.459,10.946-0.459,16.753C-87.881,31.926-87.691,35.026-87.313,37.881z"/>
	</g>
	<text transform="matrix(1 0 0 1 -72.5127 59.9458)" font-family="'Lato-Regular'" font-size="21">Visible</text>
</g>
</svg>
