<?xml version="1.0" encoding="utf-8"?>
<!-- Generator: Adobe Illustrator 15.0.0, SVG Export Plug-In . SVG Version: 6.00 Build 0)  -->
<!DOCTYPE svg PUBLIC "-//W3C//DTD SVG 1.1//EN" "http://www.w3.org/Graphics/SVG/1.1/DTD/svg11.dtd">
<svg version="1.1" id="Selected_Items" xmlns="http://www.w3.org/2000/svg" xmlns:xlink="http://www.w3.org/1999/xlink" x="0px"
	 y="0px" width="720px" height="500px" viewBox="0 0 720 500" enable-background="new 0 0 720 500" xml:space="preserve">
<symbol  id="cell" viewBox="-11.15 -307.455 340.946 316.436">
	<g id="Layer_1_2_">
		<g>
			<path fill-rule="evenodd" clip-rule="evenodd" fill="#73D7DF" d="M328.45-125.3c-2.1-15.2-6.767-30.05-14-44.55
				c-10.9-21.7-25.667-40.483-44.3-56.35c-13.3-11.433-26.633-22.683-40-33.75c-26.133-21.667-55.8-36.183-89-43.55
				c-35.933-7.933-70.033-3.933-102.3,12c-33.367,16.5-50.033,43.483-50,80.95c0.033,36.3,12.467,68.066,37.3,95.3
				c12.633,13.9,23.7,29,33.2,45.3c9.667,17.534,21.767,32.3,36.3,44.3c5.467,4.5,11.15,8.533,17.05,12.1
				c36.033,18.233,74.066,25.4,114.1,21.5C266.133,7.583,295.2-8.6,314-40.6c6.4-10.9,10.767-22.633,13.1-35.2
				C330.167-92.267,330.617-108.767,328.45-125.3z"/>
		</g>
		<g>
			<radialGradient id="SVGID_1_" cx="188" cy="-129.75" r="238.2" gradientUnits="userSpaceOnUse">
				<stop  offset="0.0078" style="stop-color:#A6FBAC"/>
				<stop  offset="0.7255" style="stop-color:#B8EBF0"/>
			</radialGradient>
			<path fill-rule="evenodd" clip-rule="evenodd" fill="url(#SVGID_1_)" d="M317.1-79.8c2.867-15.5,3.283-31.017,1.25-46.55
				c-1.967-14.333-6.35-28.316-13.15-41.95c-10.2-20.434-24.034-38.117-41.5-53.05c-12.467-10.733-24.967-21.316-37.5-31.75
				c-24.5-20.4-52.317-34.066-83.45-41c-33.667-7.467-65.633-3.7-95.9,11.3C15.583-267.267-0.033-241.867,0-206.6
				c0.033,34.167,11.683,64.067,34.95,89.7C46.817-103.833,57.2-89.633,66.1-74.3c9.066,16.5,20.4,30.4,34,41.7
				c5.133,4.233,10.467,8.033,16,11.4C149.867-4.033,185.517,2.717,223.05-0.95c36.867-0.367,64.117-15.6,81.75-45.7
				C310.8-56.917,314.9-67.967,317.1-79.8z"/>
		</g>
	</g>
	<g id="Layer_2_2_">
		<g>
			<g>
				<linearGradient id="SVGID_2_" gradientUnits="userSpaceOnUse" x1="196.5483" y1="-199.5034" x2="201.7475" y2="-53.5034">
					<stop  offset="0" style="stop-color:#6F7CEC"/>
					<stop  offset="1" style="stop-color:#9BAAF3"/>
				</linearGradient>
				<path fill-rule="evenodd" clip-rule="evenodd" fill="url(#SVGID_2_)" d="M262.75-89c15.667-28.533,11.6-54.4-12.2-77.6
					c-28.833-28.033-60.667-32.05-95.5-12.05c-28.667,16.533-36.1,39.333-22.3,68.4c21.233,34.967,50.85,50.983,88.85,48.05
					C240-63.467,253.717-72.4,262.75-89z"/>
			</g>
			<g>
				<path fill-rule="evenodd" clip-rule="evenodd" fill="#B8EBF0" d="M259.35-91.1c14.733-26.933,10.883-51.35-11.55-73.25
					c-27.2-26.467-57.25-30.25-90.15-11.35c-27.066,15.6-34.083,37.117-21.05,64.55c20.033,33,47.983,48.1,83.85,45.3
					C237.85-67.017,250.817-75.433,259.35-91.1z"/>
			</g>
			<g>
				<linearGradient id="SVGID_3_" gradientUnits="userSpaceOnUse" x1="194.5156" y1="-191.2422" x2="204.1451" y2="-61.7925">
					<stop  offset="0" style="stop-color:#6F7CEC"/>
					<stop  offset="1" style="stop-color:#9BAAF3"/>
				</linearGradient>
				<path fill-rule="evenodd" clip-rule="evenodd" fill="url(#SVGID_3_)" d="M244.95-162.15c-25.633-24.934-53.934-28.5-84.9-10.7
					c-25.5,14.7-32.117,34.967-19.85,60.8c18.867,31.1,45.2,45.333,79,42.7c16.367-1.1,28.566-9.033,36.6-23.8
					C269.7-118.517,266.083-141.517,244.95-162.15z"/>
			</g>
		</g>
	</g>
</symbol>
<g>
	<linearGradient id="SVGID_4_" gradientUnits="userSpaceOnUse" x1="109.1055" y1="368.584" x2="774.4545" y2="60.9818">
		<stop  offset="0.0078" style="stop-color:#B8A652"/>
		<stop  offset="1" style="stop-color:#EAD469"/>
	</linearGradient>
	<path fill-rule="evenodd" clip-rule="evenodd" fill="url(#SVGID_4_)" d="M685.85,171.4c-1.133,0.4-2.283,1.017-3.449,1.85
		c3.199,2.8,5.216,6.183,6.05,10.15c0.3,1.533,0.45,4.65,0.45,9.35l2.5,0.5c1.033,0,2.3-1.167,3.8-3.5
		c0.833-1.3,1.983-3.217,3.45-5.75c0.533-0.767,2.517-2.8,5.949-6.1c3.034-2.9,4.551-4.617,4.551-5.15c0-1-0.167-1.583-0.5-1.75
		l-0.5-0.25c-6.834-0.167-12.084-0.25-15.75-0.25C689.8,170.5,687.616,170.8,685.85,171.4z M511.15,165.9
		c-1.7-0.967-2.601-1.467-2.7-1.5c-0.4-0.133-0.867-0.233-1.4-0.3c-0.833-0.4-1.717-0.733-2.649-1c0.166,0.433,0.333,0.9,0.5,1.4
		c0.233,0.467,0.483,0.967,0.75,1.5c1.699,1.833,3.133,3.867,4.3,6.1c1.2,2.267,2.184,4.983,2.95,8.15
		c0.199,0.767,0.3,2.817,0.3,6.15c0.666,2.434,1.133,4.9,1.399,7.4c0.067,0.5,0.117,1.2,0.15,2.1c0.333,0.5,0.717,0.95,1.15,1.35
		c0.366-0.1,0.767-0.267,1.199-0.5c0.101,0,0.2,0,0.301,0c0.066,0,0.116,0,0.149,0c1.4-2.033,3.2-4.267,5.4-6.7
		c5.6-6.2,12.083-11.917,19.45-17.15c0.433-0.566,0.767-1.05,1-1.45c0.833-0.267,1.6-0.567,2.3-0.9c0.166-0.066,0.333-0.15,0.5-0.25
		c0.899-0.433,1.666-0.9,2.3-1.4c0.366-0.367,0.684-0.717,0.95-1.05c-1.601,0.1-3.283,0.15-5.05,0.15
		c-1.634,0-3.184-0.017-4.65-0.05c-2.833,0.2-6.816,0.3-11.95,0.3C519.5,168.25,513.95,167.467,511.15,165.9z M665.9,313
		c-0.134,0.934-0.267,1.833-0.4,2.7c-1.8-0.101-3.316,1.217-4.55,3.95c-0.834,1.833-1.684,4.283-2.55,7.35
		c-0.301,0.634-2.101,2.95-5.4,6.95c-2.9,3.5-4.35,5.8-4.35,6.899c0,1,0.133,1.65,0.399,1.95l0.351,0.45h0.8
		c0.033,0.233,0.133,0.483,0.3,0.75c4.866-0.167,10.5,0.283,16.9,1.35c3.733,0.634,7.25,1.417,10.55,2.351
		c-1-2.101-1.917-4.4-2.75-6.9c-0.667-2-1.25-3.95-1.75-5.85c-1.667-2.3-2.684-4.117-3.05-5.45c-0.301-1.066-0.684-3.85-1.15-8.35
		c-0.4-3.767-1.017-6.483-1.85-8.15H665.9z M629.95,119c-1.233-0.833-2.667-1.25-4.3-1.25c0.066,1.7-1.034,3.417-3.301,5.15
		c-2.3,1.8-3.449,3.5-3.449,5.1c0,1,0.133,1.583,0.399,1.75l0.351,0.25c0.433,0.067,1,0.183,1.699,0.35
		c0.4,0.1,1.084,0.15,2.051,0.15c3.733,0,6.35-0.15,7.85-0.45c-0.467-2.367-0.816-4.883-1.05-7.55
		C630.066,121.2,629.983,120.033,629.95,119z M446.9,120.75c0.233,0,0.449,0,0.649,0v-0.05c-0.166-1.7-0.316-3.434-0.45-5.2
		c-0.133-3.833-0.199-5.8-0.199-5.9c0-5,0.267-9.434,0.8-13.3c0.3-2,1.2-6.933,2.7-14.8c0.399-2.1,0.949-4.017,1.649-5.75
		c-4.133,3.267-9.35,8.733-15.649,16.4c-8.167,9.9-14.834,16.85-20,20.85c0.166,0.267,0.433,0.633,0.8,1.1
		c0.3,0.4,0.45,0.7,0.45,0.9c7.733-0.9,14.533-0.217,20.399,2.05c1.2,0.467,3,1.3,5.4,2.5C445.05,120.35,446.2,120.75,446.9,120.75z
		 M422.4,111l0.5-0.5v0.5C422.733,111,422.566,111,422.4,111z M439.9,326.1c0,0.301,0.017,0.601,0.05,0.9
		c0.033-0.033,0.066-0.05,0.1-0.05c5.967-0.834,14.584-1.4,25.851-1.7c7.199-0.467,13.566-0.417,19.1,0.15
		c-0.3-0.7-0.583-1.417-0.85-2.15c-1.9-5.066-3.084-8.816-3.551-11.25c-0.466-2.333-0.699-5.717-0.699-10.15
		c0-1.966,0.149-4.483,0.449-7.55c0.167-1.467,0.351-2.833,0.551-4.1c-0.301-0.733-0.634-1.384-1-1.95
		c-0.634,0.667-2.567,3.333-5.801,8c-3.166,4.533-5.899,7.95-8.199,10.25c-1.767,1.767-6.717,5.517-14.851,11.25
		C443.616,322.983,439.9,325.767,439.9,326.1z M309.3,362.95c-0.267-0.667-0.517-1.066-0.75-1.2c0.067,0.4,0.017,0.884-0.15,1.45
		c-0.167,0.5-0.267,1.033-0.3,1.6c0.9,1.033,1.717,2.134,2.45,3.3c1.167,1.867,2.25,4.084,3.25,6.65c1.467,3.6,2.434,8.25,2.9,13.95
		c0.066,1.066,0.133,2.3,0.2,3.7c1.767-2.167,4-4.634,6.7-7.4c1.066-1.733,1.8-2.9,2.2-3.5c0.633-0.967,2.534-2.4,5.7-4.3
		c5.267-5.066,9.2-8.467,11.8-10.2c0.267-0.167,0.833-0.583,1.7-1.25c-18.267-0.134-29.4-0.65-33.4-1.55
		C310.267,363.9,309.5,363.483,309.3,362.95z M450.05,323.05c-0.3-0.033-0.6-0.05-0.899-0.05c0.166-0.167,0.5-0.417,1-0.75
		L450.05,323.05z M557.65,379.25c0-1-0.084-1.583-0.25-1.75l-0.25-0.25c-8-0.267-13-0.283-15-0.05c-2.5,0.333-3.75,1.267-3.75,2.8
		c0,0.134,0.5,1.884,1.5,5.25c1.433,3.333,3.267,5,5.5,5c0.6,0,2.767-1.583,6.5-4.75C555.733,382.233,557.65,380.15,557.65,379.25z
		 M184.55,97.4c6.967-0.8,16.467-0.933,28.5-0.4c-0.5-0.933-0.983-1.917-1.45-2.95c-1.434-3.167-2.617-6.65-3.55-10.45
		c-0.2-0.8-0.367-1.5-0.5-2.1c-0.5-0.4-1.1-0.633-1.8-0.7c-1.767,2.167-3.833,4.317-6.2,6.45c-3.8,3.467-7.783,6.317-11.95,8.55
		c-1.067,0.567-2.083,1.067-3.05,1.5c-0.033,0.034-0.083,0.067-0.15,0.1C184.467,97.4,184.517,97.4,184.55,97.4z M310,143.85
		l-22.65-2.1c0.5,2,1.3,4.067,2.4,6.2c0.633,1.1,1.3,2.2,2,3.3c0.9,1.5,1.35,3.1,1.35,4.8c0.066,8.567-1.4,16.867-4.4,24.9
		c-1.8,5.733-3.9,11.4-6.3,17c-0.267,0.6-0.533,1.2-0.8,1.8c-1.5,3.267-2.934,6.167-4.3,8.7c1.8-2.733,3.917-6.233,6.35-10.5
		c2.967-5.833,6.2-11.5,9.7-17l14.65-20c0.667-0.767,1.333-1.517,2-2.25c0.867-0.967,1.767-1.967,2.7-3c5.4-6,8.633-9.983,9.7-11.95
		c-1.566,0.167-3.017,0.25-4.35,0.25C315.217,144,312.533,143.95,310,143.85z M59.2,146.15c-0.6,0.5-0.9,1.533-0.9,3.1
		c0,0.9,0.15,2.467,0.45,4.7c0.333,2.466,0.517,4.15,0.55,5.05c0.1,1.367-0.083,3.217-0.55,5.55c-0.333,1.833-0.55,3.217-0.65,4.15
		c6.8-7,14.117-13.517,21.95-19.55c1.267-0.967,2.5-1.883,3.7-2.75c-4.1,0.4-8.333,0.6-12.7,0.6c-4.433,0-8.267-0.367-11.5-1.1
		C59.417,145.967,59.3,146.05,59.2,146.15z M119.95,346.55c-5.467,0.233-9.367,0.384-11.7,0.45c-0.133,0.066-0.2,0.15-0.2,0.25
		c1.633,1.533,2.733,3.934,3.3,7.2c0.3,1.899,0.45,4.75,0.45,8.55c0,1.833-0.5,3.967-1.5,6.4c-1,2.433-1.5,4.416-1.5,5.949
		c0,1.067,0.184,1.717,0.55,1.95c0.033,0,0.05,0.017,0.05,0.05c1.033-2.199,2.233-4.633,3.6-7.3c4.067-7.866,7.25-13.55,9.55-17.05
		c1.233-1.9,2.967-4.167,5.2-6.8C125.017,346.333,122.417,346.45,119.95,346.55z M18.4,313c3.467-0.767,8.45-1.634,14.95-2.6
		c0.967-0.634,1.45-1.184,1.45-1.65c0-0.934-0.7-3.184-2.1-6.75c-1.767-4.434-3.567-7.184-5.4-8.25c-0.733,1.134-2.4,3.95-5,8.45
		c-2.566,4.5-4.483,7.684-5.75,9.55c0.233,0.033,0.833,0.434,1.8,1.2L18.4,313z M245.2,283.2c-0.067-0.334-0.117-0.634-0.15-0.9
		c-0.1,0.334-0.216,0.684-0.35,1.05c-1.1,3.4-2.4,6.617-3.9,9.65c-2.667,5.333-5.417,9.033-8.25,11.1
		c-1.133,1.334-2.216,2.551-3.25,3.65c0.8,0.3,1.833,0.866,3.1,1.7c1.633,0.7,4.184,1.05,7.65,1.05c1,0,2-0.116,3-0.35l1.5-0.4
		c0-2.8,0.167-6.917,0.5-12.35c0.333-5.434,0.5-8.367,0.5-8.801C245.55,286.4,245.433,284.6,245.2,283.2z M285.6,511.05h-0.875
		c0.227-0.967,0.501-1.7,0.825-2.2C285.743,509.382,285.76,510.115,285.6,511.05z M317.4,388.15c-0.033,0.033-0.066,0.066-0.1,0.1
		V388L317.4,388.15z M280.1,511.05H-6.4V-6.4h733.95v517.45H489.275c0.228-2.146,0.853-4.879,1.875-8.2c1.333-4.3,2-7.083,2-8.35
		c0-0.833-0.301-1.75-0.9-2.75c-0.8-1.333-1.917-2.217-3.35-2.65c-0.334,1-2.067,4.034-5.2,9.101c-2.7,4.366-4.05,7.5-4.05,9.399
		c0,0.567,0.183,1.084,0.55,1.551c0.099,0.164,0.648,0.797,1.649,1.899H303.525c-2.086-6.274-3.678-10.891-4.775-13.85
		c-1.9-5.134-4.467-9.417-7.7-12.851c-0.833,0.601-2.833,4.517-6,11.75c-3.333,7.534-5,12.417-5,14.65
		C280.05,510.835,280.067,510.935,280.1,511.05z M484.5,511.05h-2.4c0.567-0.149,1-0.3,1.301-0.45c0.199-0.5,0.399-1.149,0.6-1.949
		c0.233-0.9,0.366-1.417,0.4-1.551l0.25,0.5c0.267,0.733,0.216,1.851-0.15,3.351C484.499,510.983,484.499,511.017,484.5,511.05z
		 M290.75,511.05c0.255-2.128,0.438-3.694,0.55-4.7c0.2,0.434,0.233,1.25,0.1,2.45c0.133,1.033,1.017,1.55,2.65,1.55
		c0.967,0,1.717-0.267,2.25-0.8c0.4-0.399,0.65-0.55,0.75-0.45c0.091,0.152,0.391,0.802,0.9,1.95H290.75z"/>
	<path fill-rule="evenodd" clip-rule="evenodd" fill="#E8D17D" d="M685.85,171.4c1.767-0.6,3.95-0.9,6.551-0.9
		c3.666,0,8.916,0.083,15.75,0.25l0.5,0.25c0.333,0.167,0.5,0.75,0.5,1.75c0,0.533-1.517,2.25-4.551,5.15
		c-3.433,3.3-5.416,5.333-5.949,6.1c-1.467,2.533-2.617,4.45-3.45,5.75c-1.5,2.333-2.767,3.5-3.8,3.5l-2.5-0.5
		c0-4.7-0.15-7.817-0.45-9.35c-0.834-3.967-2.851-7.35-6.05-10.15C683.566,172.417,684.717,171.8,685.85,171.4z M629.95,119
		c0.033,1.033,0.116,2.2,0.25,3.5c0.233,2.667,0.583,5.183,1.05,7.55c-1.5,0.3-4.116,0.45-7.85,0.45c-0.967,0-1.65-0.05-2.051-0.15
		c-0.699-0.167-1.267-0.283-1.699-0.35l-0.351-0.25c-0.267-0.167-0.399-0.75-0.399-1.75c0-1.6,1.149-3.3,3.449-5.1
		c2.267-1.733,3.367-3.45,3.301-5.15C627.283,117.75,628.717,118.167,629.95,119z"/>
	<path fill-rule="evenodd" clip-rule="evenodd" fill="#E3CD65" d="M665.9,313h1.5c0.833,1.667,1.449,4.384,1.85,8.15
		c0.467,4.5,0.85,7.283,1.15,8.35c0.366,1.333,1.383,3.15,3.05,5.45c0.5,1.899,1.083,3.85,1.75,5.85c0.833,2.5,1.75,4.8,2.75,6.9
		c-3.3-0.934-6.816-1.717-10.55-2.351c-6.4-1.066-12.034-1.517-16.9-1.35c-0.167-0.267-0.267-0.517-0.3-0.75h-0.8l-0.351-0.45
		c-0.267-0.3-0.399-0.95-0.399-1.95c0-1.1,1.449-3.399,4.35-6.899c3.3-4,5.1-6.316,5.4-6.95c0.866-3.066,1.716-5.517,2.55-7.35
		c1.233-2.733,2.75-4.051,4.55-3.95C665.634,314.833,665.767,313.934,665.9,313z M511.15,165.9c2.8,1.567,8.35,2.35,16.649,2.35
		c5.134,0,9.117-0.1,11.95-0.3c1.467,0.033,3.017,0.05,4.65,0.05c1.767,0,3.449-0.05,5.05-0.15c-0.267,0.333-0.584,0.683-0.95,1.05
		c-0.634,0.5-1.4,0.967-2.3,1.4c-0.167,0.1-0.334,0.184-0.5,0.25c-0.7,0.333-1.467,0.633-2.3,0.9c-0.233,0.4-0.567,0.883-1,1.45
		c-7.367,5.233-13.851,10.95-19.45,17.15c-2.2,2.434-4,4.667-5.4,6.7c-0.033,0-0.083,0-0.149,0c-0.101,0-0.2,0-0.301,0
		c-0.433,0.233-0.833,0.4-1.199,0.5c-0.434-0.4-0.817-0.85-1.15-1.35c-0.033-0.9-0.083-1.6-0.15-2.1
		c-0.267-2.5-0.733-4.966-1.399-7.4c0-3.333-0.101-5.383-0.3-6.15c-0.767-3.167-1.75-5.883-2.95-8.15
		c-1.167-2.233-2.601-4.267-4.3-6.1c-0.267-0.533-0.517-1.033-0.75-1.5c-0.167-0.5-0.334-0.967-0.5-1.4
		c0.933,0.267,1.816,0.6,2.649,1c0.533,0.066,1,0.167,1.4,0.3C508.55,164.433,509.45,164.933,511.15,165.9z M439.9,326.1
		l0.149,0.851c-0.033,0-0.066,0.017-0.1,0.05C439.917,326.7,439.9,326.4,439.9,326.1z"/>
	<path fill-rule="evenodd" clip-rule="evenodd" fill="#DFCA64" d="M447.55,120.7l-0.649,0.05c-0.7,0-1.851-0.4-3.45-1.2
		c-2.4-1.2-4.2-2.033-5.4-2.5c-5.866-2.267-12.666-2.95-20.399-2.05c0-0.2-0.15-0.5-0.45-0.9c-0.367-0.467-0.634-0.833-0.8-1.1
		c5.166-4,11.833-10.95,20-20.85c6.3-7.667,11.517-13.133,15.649-16.4c-0.7,1.733-1.25,3.65-1.649,5.75
		c-1.5,7.867-2.4,12.8-2.7,14.8c-0.533,3.867-0.8,8.3-0.8,13.3c0,0.1,0.066,2.066,0.199,5.9
		C447.233,117.267,447.384,119,447.55,120.7z M422.4,111c0.166,0,0.333,0,0.5,0v-0.5L422.4,111z"/>
	<path fill-rule="evenodd" clip-rule="evenodd" fill="#EBD994" d="M447.55,120.7v0.05c-0.2,0-0.416,0-0.649,0L447.55,120.7z"/>
	<path fill-rule="evenodd" clip-rule="evenodd" fill="#D9C461" d="M440.05,326.95L439.9,326.1c0-0.333,3.716-3.116,11.149-8.35
		c8.134-5.733,13.084-9.483,14.851-11.25c2.3-2.3,5.033-5.717,8.199-10.25c3.233-4.667,5.167-7.333,5.801-8
		c0.366,0.566,0.699,1.217,1,1.95c-0.2,1.267-0.384,2.633-0.551,4.1c-0.3,3.066-0.449,5.584-0.449,7.55
		c0,4.434,0.233,7.817,0.699,10.15c0.467,2.434,1.65,6.184,3.551,11.25c0.267,0.733,0.55,1.45,0.85,2.15
		c-5.533-0.567-11.9-0.617-19.1-0.15C454.634,325.55,446.017,326.116,440.05,326.95z M450.05,323.05l0.101-0.8
		c-0.5,0.333-0.834,0.583-1,0.75C449.45,323,449.75,323.017,450.05,323.05z M557.65,379.25c0,0.9-1.917,2.983-5.75,6.25
		c-3.733,3.167-5.9,4.75-6.5,4.75c-2.233,0-4.067-1.667-5.5-5c-1-3.366-1.5-5.116-1.5-5.25c0-1.533,1.25-2.467,3.75-2.8
		c2-0.233,7-0.217,15,0.05l0.25,0.25C557.566,377.667,557.65,378.25,557.65,379.25z M310,143.85c2.533,0.1,5.217,0.15,8.05,0.15
		c1.333,0,2.784-0.083,4.35-0.25c-1.066,1.967-4.3,5.95-9.7,11.95c-0.934,1.033-1.833,2.033-2.7,3c-0.667,0.733-1.333,1.483-2,2.25
		l-14.65,20c-3.5,5.5-6.733,11.167-9.7,17c-2.433,4.267-4.55,7.767-6.35,10.5c1.367-2.534,2.8-5.434,4.3-8.7
		c0.267-0.6,0.533-1.2,0.8-1.8c2.4-5.6,4.5-11.267,6.3-17c3-8.034,4.466-16.333,4.4-24.9c0-1.7-0.45-3.3-1.35-4.8
		c-0.7-1.1-1.367-2.2-2-3.3c-1.1-2.133-1.9-4.2-2.4-6.2L310,143.85z M184.55,97.4c-0.033,0-0.083,0-0.15,0
		c0.067-0.033,0.117-0.066,0.15-0.1V97.4z"/>
	<path fill-rule="evenodd" clip-rule="evenodd" fill="#D1BD5D" d="M308.4,363.2l0.9-0.25c0.2,0.533,0.967,0.95,2.3,1.25
		c4,0.899,15.133,1.416,33.4,1.55c-0.867,0.667-1.433,1.083-1.7,1.25c-2.6,1.733-6.533,5.134-11.8,10.2
		c-3.167,1.899-5.067,3.333-5.7,4.3c-0.4,0.6-1.133,1.767-2.2,3.5c-2.7,2.767-4.934,5.233-6.7,7.4c-0.066-1.4-0.133-2.634-0.2-3.7
		c-0.467-5.7-1.434-10.351-2.9-13.95c-1-2.566-2.083-4.783-3.25-6.65c-0.733-1.166-1.55-2.267-2.45-3.3
		C308.133,364.233,308.233,363.7,308.4,363.2z M184.55,97.4v-0.1c0.967-0.433,1.983-0.933,3.05-1.5
		c4.167-2.233,8.15-5.083,11.95-8.55c2.367-2.133,4.434-4.283,6.2-6.45c0.7,0.067,1.3,0.3,1.8,0.7c0.133,0.6,0.3,1.3,0.5,2.1
		c0.934,3.8,2.117,7.283,3.55,10.45c0.467,1.034,0.95,2.017,1.45,2.95C201.017,96.467,191.517,96.6,184.55,97.4z M244.7,283.35
		l0.5-0.149c0.233,1.399,0.35,3.2,0.35,5.399c0,0.434-0.167,3.367-0.5,8.801c-0.333,5.433-0.5,9.55-0.5,12.35l-1.5,0.4
		c-1,0.233-2,0.35-3,0.35c-3.466,0-6.017-0.35-7.65-1.05c-1.267-0.834-2.3-1.4-3.1-1.7c1.034-1.1,2.117-2.316,3.25-3.65
		c2.833-2.066,5.583-5.767,8.25-11.1C242.3,289.967,243.6,286.75,244.7,283.35z M317.4,388.15l-0.1-0.15v0.25
		C317.333,388.217,317.367,388.184,317.4,388.15z M285.6,511.05c0.16-0.935,0.143-1.668-0.05-2.2c-0.323,0.5-0.598,1.233-0.825,2.2
		c-0.022,0.129-0.048,0.263-0.075,0.4c-0.4,1.066-1.267,1.866-2.6,2.399c-1.107-1.301-1.757-2.234-1.95-2.8
		c-0.033-0.115-0.05-0.215-0.05-0.3c0-2.233,1.667-7.116,5-14.65c3.167-7.233,5.167-11.149,6-11.75
		c3.233,3.434,5.8,7.717,7.7,12.851c1.097,2.959,2.689,7.575,4.775,13.85c0.011,0.017,0.02,0.033,0.025,0.05
		c-0.066,0.267-0.2,0.733-0.4,1.4c-0.333,0.566-1.033,0.85-2.1,0.85c-1.167,0-2.15-0.649-2.95-1.949
		c-0.053-0.122-0.104-0.238-0.15-0.351c-0.509-1.148-0.809-1.798-0.9-1.95c-0.1-0.1-0.35,0.051-0.75,0.45
		c-0.533,0.533-1.283,0.8-2.25,0.8c-1.633,0-2.517-0.517-2.65-1.55c0.133-1.2,0.1-2.017-0.1-2.45c-0.111,1.006-0.295,2.572-0.55,4.7
		c-0.135,1.048-0.285,2.23-0.45,3.55c-0.167,0-0.483,0.101-0.95,0.301c-0.567,0.233-1,0.383-1.3,0.449
		c-1.867-0.733-2.767-1.783-2.7-3.149C285.46,511.788,285.543,511.404,285.6,511.05z M489.275,511.05
		c-0.084,0.655-0.125,1.255-0.125,1.8c-0.167,0-0.45,0.15-0.851,0.45c-0.5,0.367-0.967,0.634-1.399,0.8
		c-1.594-0.715-2.394-1.731-2.4-3.05c-0.001-0.033-0.001-0.066,0-0.1c0.366-1.5,0.417-2.617,0.15-3.351l-0.25-0.5
		c-0.034,0.134-0.167,0.65-0.4,1.551c-0.2,0.8-0.4,1.449-0.6,1.949c-0.301,0.15-0.733,0.301-1.301,0.45
		c-0.066,0.017-0.133,0.033-0.199,0.05c-0.016-0.017-0.032-0.033-0.051-0.05c-1.001-1.103-1.551-1.735-1.649-1.899
		c-0.367-0.467-0.55-0.983-0.55-1.551c0-1.899,1.35-5.033,4.05-9.399c3.133-5.066,4.866-8.101,5.2-9.101
		c1.433,0.434,2.55,1.317,3.35,2.65c0.6,1,0.9,1.917,0.9,2.75c0,1.267-0.667,4.05-2,8.35
		C490.128,506.171,489.503,508.904,489.275,511.05z"/>
	<path fill-rule="evenodd" clip-rule="evenodd" fill="#CBB85B" d="M308.4,363.2c0.167-0.566,0.217-1.05,0.15-1.45
		c0.233,0.134,0.483,0.533,0.75,1.2L308.4,363.2z M59.2,146.15c0.1-0.1,0.216-0.183,0.35-0.25c3.233,0.733,7.067,1.1,11.5,1.1
		c4.367,0,8.6-0.2,12.7-0.6c-1.2,0.867-2.433,1.783-3.7,2.75c-7.833,6.033-15.15,12.55-21.95,19.55c0.1-0.934,0.316-2.317,0.65-4.15
		c0.467-2.333,0.65-4.183,0.55-5.55c-0.033-0.9-0.216-2.583-0.55-5.05c-0.3-2.233-0.45-3.8-0.45-4.7
		C58.3,147.683,58.6,146.65,59.2,146.15z M18.4,313l-0.05-0.05c-0.967-0.767-1.567-1.167-1.8-1.2c1.267-1.866,3.184-5.05,5.75-9.55
		c2.6-4.5,4.267-7.316,5-8.45c1.833,1.066,3.633,3.816,5.4,8.25c1.4,3.566,2.1,5.816,2.1,6.75c0,0.467-0.483,1.017-1.45,1.65
		C26.85,311.366,21.867,312.233,18.4,313z M119.95,346.55c2.466-0.1,5.066-0.217,7.8-0.35c-2.233,2.633-3.967,4.899-5.2,6.8
		c-2.3,3.5-5.483,9.184-9.55,17.05c-1.367,2.667-2.567,5.101-3.6,7.3c0-0.033-0.017-0.05-0.05-0.05
		c-0.367-0.233-0.55-0.883-0.55-1.95c0-1.533,0.5-3.517,1.5-5.949c1-2.434,1.5-4.567,1.5-6.4c0-3.8-0.15-6.65-0.45-8.55
		c-0.567-3.267-1.667-5.667-3.3-7.2c0-0.1,0.067-0.184,0.2-0.25C110.583,346.934,114.483,346.783,119.95,346.55z M245.2,283.2
		l-0.5,0.149c0.133-0.366,0.25-0.716,0.35-1.05C245.083,282.566,245.133,282.866,245.2,283.2z"/>
	
		<use xlink:href="#cell"  width="340.946" height="316.436" x="-11.15" y="-307.455" transform="matrix(0.751 0 0 -0.751 258.5 127.7002)" overflow="visible"/>
	<g>
		<g>
			<path fill-rule="evenodd" clip-rule="evenodd" fill="#73D7DF" d="M169.949,106.828c39.251-9.262,72.982-0.5,101.194,26.284
				c15.12,19.275,16.997,40.102,5.632,62.481c-9.562,18.799-17.873,38.137-24.932,58.013c-11.04,30.965-30.465,53.944-58.276,68.939
				c-32.692,17.698-67.25,22.329-103.672,13.893c-41.729-9.537-61.004-35.584-57.825-78.139
				c2.854-37.799,17.598-70.529,44.232-98.19C102.211,133.174,133.427,115.414,169.949,106.828z"/>
		</g>
		<g>
			<radialGradient id="SVGID_5_" cx="127.3501" cy="255.8496" r="185.4375" gradientUnits="userSpaceOnUse">
				<stop  offset="0.0078" style="stop-color:#A6FBAC"/>
				<stop  offset="0.7255" style="stop-color:#B8EBF0"/>
			</radialGradient>
			<path fill-rule="evenodd" clip-rule="evenodd" fill="url(#SVGID_5_)" d="M170.024,110.695
				c36.898-8.812,68.614-0.451,95.148,25.083c14.219,18.374,15.983,38.225,5.294,59.552c-8.987,17.923-16.797,36.36-23.43,55.31
				c-10.389,29.538-28.663,51.454-54.821,65.748c-30.74,16.872-63.245,21.29-97.515,13.255
				c-39.226-9.087-57.35-33.919-54.371-74.497c2.679-36.047,16.546-67.262,41.604-93.646
				C106.292,135.815,135.655,118.881,170.024,110.695z"/>
		</g>
		<g>
			<g>
				<linearGradient id="SVGID_6_" gradientUnits="userSpaceOnUse" x1="127.8589" y1="282.7256" x2="131.7584" y2="173.0756">
					<stop  offset="0" style="stop-color:#6F7CEC"/>
					<stop  offset="1" style="stop-color:#9BAAF3"/>
				</linearGradient>
				<path fill-rule="evenodd" clip-rule="evenodd" fill="url(#SVGID_6_)" d="M146.669,179.635
					c13.818,0.951,24.119,7.66,30.902,20.126c11.766,21.428,8.711,40.853-9.162,58.276c-21.653,21.052-45.559,24.068-71.718,9.049
					c-21.528-12.416-27.11-29.538-16.747-51.367C95.89,189.46,118.132,177.432,146.669,179.635z"/>
			</g>
			<g>
				<path fill-rule="evenodd" clip-rule="evenodd" fill="#B8EBF0" d="M145.805,182.376c13.067,0.876,22.805,7.197,29.213,18.962
					c11.064,20.227,8.173,38.563-8.673,55.009c-20.427,19.876-42.994,22.718-67.701,8.524
					c-20.327-11.716-25.596-27.874-15.808-48.476C97.88,191.613,118.87,180.273,145.805,182.376z"/>
			</g>
			<g>
				<linearGradient id="SVGID_7_" gradientUnits="userSpaceOnUse" x1="126.332" y1="276.5273" x2="133.5612" y2="179.3027">
					<stop  offset="0" style="stop-color:#6F7CEC"/>
					<stop  offset="1" style="stop-color:#9BAAF3"/>
				</linearGradient>
				<path fill-rule="evenodd" clip-rule="evenodd" fill="url(#SVGID_7_)" d="M144.867,185.004
					c12.291,0.826,21.453,6.784,27.486,17.873c10.438,19.05,7.722,36.322-8.148,51.818c-19.25,18.724-40.502,21.402-63.758,8.035
					c-19.15-11.039-24.119-26.259-14.907-45.659C99.708,193.716,119.483,183.027,144.867,185.004z"/>
			</g>
		</g>
	</g>
	
		<use xlink:href="#cell"  width="340.946" height="316.436" x="-11.15" y="-307.455" transform="matrix(0.7213 -0.2006 -0.2006 -0.7213 46.2998 369.5498)" overflow="visible"/>
	<g>
		<g>
			<path fill-rule="evenodd" clip-rule="evenodd" fill="#73D7DF" d="M399.06-71.123c39.916,5.432,68.227,25.69,84.931,60.775
				c7.189,23.391,1.476,43.482-17.142,60.275c-15.653,14.101-30.333,29.152-44.038,45.154
				c-21.391,24.915-47.738,39.379-79.043,43.392c-36.825,4.785-70.706-3.283-101.641-24.202
				c-35.49-23.849-44.126-55.042-25.91-93.58c16.208-34.22,41.686-59.453,76.433-75.698C326.459-70.834,361.93-76.207,399.06-71.123
				z"/>
		</g>
		<g>
			<radialGradient id="SVGID_8_" cx="305.8999" cy="52.5498" r="185.2341" gradientUnits="userSpaceOnUse">
				<stop  offset="0.0078" style="stop-color:#A6FBAC"/>
				<stop  offset="0.7255" style="stop-color:#B8EBF0"/>
			</radialGradient>
			<path fill-rule="evenodd" clip-rule="evenodd" fill="url(#SVGID_8_)" d="M397.743-67.489
				c37.562,5.008,64.137,24.171,79.726,57.487c6.672,22.228,1.203,41.369-16.407,57.423c-14.803,13.491-28.692,27.881-41.669,43.172
				c-20.272,23.818-45.165,37.703-74.679,41.654c-34.708,4.714-66.598-2.816-95.67-22.591
				c-33.317-22.531-41.315-52.179-23.995-88.945c15.417-32.65,39.534-56.784,72.354-72.403
				C329.317-66.91,362.764-72.175,397.743-67.489z"/>
		</g>
		<g>
			<g>
				<linearGradient id="SVGID_9_" gradientUnits="userSpaceOnUse" x1="296.7461" y1="77.8433" x2="339.692" y2="-22.9835">
					<stop  offset="0" style="stop-color:#6F7CEC"/>
					<stop  offset="1" style="stop-color:#9BAAF3"/>
				</linearGradient>
				<path fill-rule="evenodd" clip-rule="evenodd" fill="url(#SVGID_9_)" d="M351.26-11.582c12.542,5.839,19.742,15.786,21.6,29.841
					c3.29,24.195-6.52,41.212-29.429,51.051c-27.734,11.868-51.104,6.113-70.112-17.267c-15.622-19.292-14.69-37.257,2.795-53.895
					C300.393-20.62,325.441-23.864,351.26-11.582z"/>
			</g>
			<g>
				<path fill-rule="evenodd" clip-rule="evenodd" fill="#B8EBF0" d="M349.472-9.336c11.869,5.5,18.684,14.883,20.441,28.15
					c3.067,22.824-6.2,38.884-27.802,48.18c-26.168,11.211-48.228,5.772-66.177-16.316c-14.753-18.208-13.875-35.163,2.634-50.863
					C301.477-17.9,325.112-20.95,349.472-9.336z"/>
			</g>
			<g>
				<linearGradient id="SVGID_10_" gradientUnits="userSpaceOnUse" x1="297.5513" y1="71.4961" x2="339.1492" y2="-16.5549">
					<stop  offset="0" style="stop-color:#6F7CEC"/>
					<stop  offset="1" style="stop-color:#9BAAF3"/>
				</linearGradient>
				<path fill-rule="evenodd" clip-rule="evenodd" fill="url(#SVGID_10_)" d="M347.655-7.222
					c11.164,5.175,17.571,14.014,19.221,26.516c2.905,21.502-5.817,36.634-26.168,45.393c-24.659,10.559-45.435,5.439-62.327-15.359
					c-13.898-17.156-13.077-33.127,2.466-47.915C302.427-15.284,324.697-18.163,347.655-7.222z"/>
			</g>
		</g>
	</g>
	
		<use xlink:href="#cell"  width="340.946" height="316.436" x="-11.15" y="-307.455" transform="matrix(0.6238 0.1679 0.1679 -0.6238 23.0498 -75.25)" overflow="visible"/>
	<g>
		<g>
			<path fill-rule="evenodd" clip-rule="evenodd" fill="#73D7DF" d="M-73.989,123.148c36.636-16.576,71.321-14.458,104.054,6.352
				c18.484,15.968,24.308,35.989,17.47,60.062c-5.759,20.227-10.19,40.74-13.293,61.541c-4.876,32.413-19.486,58.618-43.831,78.614
				c-28.604,23.575-61.533,34.722-98.789,33.438c-42.659-1.346-66.506-23.144-71.541-65.395
				c-4.442-37.534,3.721-72.384,24.49-104.549C-135.23,161.896-108.084,138.541-73.989,123.148z"/>
		</g>
		<g>
			<radialGradient id="SVGID_11_" cx="-87.2002" cy="277.1504" r="184.8877" gradientUnits="userSpaceOnUse">
				<stop  offset="0.0078" style="stop-color:#A6FBAC"/>
				<stop  offset="0.7255" style="stop-color:#B8EBF0"/>
			</radialGradient>
			<path fill-rule="evenodd" clip-rule="evenodd" fill="url(#SVGID_11_)" d="M-73.175,126.919
				c34.419-15.685,67.056-13.574,97.908,6.333c17.43,15.258,22.957,34.346,16.579,57.262c-5.363,19.259-9.477,38.794-12.341,58.607
				c-4.512,30.894-18.199,55.837-41.061,74.83c-26.852,22.394-57.813,32.938-92.885,31.635
				c-40.124-1.384-62.611-22.215-67.463-62.491c-4.278-35.786,3.317-68.987,22.788-99.601
				C-130.732,163.699-105.241,141.507-73.175,126.919z"/>
		</g>
		<g>
			<g>
				<linearGradient id="SVGID_12_" gradientUnits="userSpaceOnUse" x1="-81.5151" y1="303.3086" x2="-98.6795" y2="195.2609">
					<stop  offset="0" style="stop-color:#6F7CEC"/>
					<stop  offset="1" style="stop-color:#9BAAF3"/>
				</linearGradient>
				<path fill-rule="evenodd" clip-rule="evenodd" fill="url(#SVGID_12_)" d="M-82.834,198.85
					c13.703-1.714,25.067,2.879,34.092,13.779c15.614,18.716,16.344,38.31,2.188,58.779c-17.159,24.745-39.975,32.272-68.447,22.582
					c-23.442-8.029-32.182-23.716-26.219-47.06C-130.643,218.183-111.181,202.156-82.834,198.85z"/>
			</g>
			<g>
				<path fill-rule="evenodd" clip-rule="evenodd" fill="#B8EBF0" d="M-83.155,201.697c12.955-1.644,23.693,2.678,32.216,12.964
					c14.698,17.675,15.378,36.171,2.041,55.489c-16.184,23.358-37.723,30.458-64.617,21.298
					c-22.132-7.573-30.381-22.376-24.747-44.409C-128.283,219.909-109.914,204.795-83.155,201.697z"/>
			</g>
			<g>
				<linearGradient id="SVGID_13_" gradientUnits="userSpaceOnUse" x1="-84.1953" y1="297.5273" x2="-95.7207" y2="201.0274">
					<stop  offset="0" style="stop-color:#6F7CEC"/>
					<stop  offset="1" style="stop-color:#9BAAF3"/>
				</linearGradient>
				<path fill-rule="evenodd" clip-rule="evenodd" fill="url(#SVGID_13_)" d="M-83.57,204.449
					c12.186-1.544,22.292,2.532,30.317,12.229c13.861,16.643,14.509,34.064,1.944,52.265
					c-15.253,22.008-35.537,28.696-60.852,20.066c-20.852-7.137-28.627-21.079-23.326-41.826
					C-126.092,221.617-108.787,207.372-83.57,204.449z"/>
			</g>
		</g>
	</g>
	<g>
		<g>
			<path fill-rule="evenodd" clip-rule="evenodd" fill="#73D7DF" d="M-3.984,324.964c32.708-14.265,63.458-11.966,92.251,6.896
				c16.208,14.392,21.133,32.227,14.774,53.506c-5.355,17.877-9.536,36.024-12.541,54.443c-4.719,28.702-18,51.777-39.844,69.225
				c-25.666,20.572-55.02,30.063-88.061,28.474c-37.836-1.711-58.731-21.342-62.687-58.893
				c-3.487-33.358,4.179-64.182,22.997-92.471C-58.794,358.602-34.423,338.208-3.984,324.964z"/>
		</g>
		<g>
			<radialGradient id="SVGID_14_" cx="-17.5498" cy="461.4502" r="164.0748" gradientUnits="userSpaceOnUse">
				<stop  offset="0.0078" style="stop-color:#A6FBAC"/>
				<stop  offset="0.7255" style="stop-color:#B8EBF0"/>
			</radialGradient>
			<path fill-rule="evenodd" clip-rule="evenodd" fill="url(#SVGID_14_)" d="M-3.308,328.318
				c30.731-13.5,59.664-11.231,86.798,6.806c15.281,13.75,19.954,30.753,14.017,51.01c-4.992,17.023-8.879,34.308-11.661,51.854
				c-4.378,27.356-16.825,49.323-37.34,65.899C24.41,523.432-3.19,532.413-34.294,530.831c-35.585-1.714-55.286-20.47-59.104-56.267
				c-3.362-31.806,3.779-61.172,21.426-88.101C-54.824,360.257-31.936,340.875-3.308,328.318z"/>
		</g>
		<g>
			<g>
				<linearGradient id="SVGID_15_" gradientUnits="userSpaceOnUse" x1="-12.835" y1="484.7793" x2="-26.7608" y2="388.7044">
					<stop  offset="0" style="stop-color:#6F7CEC"/>
					<stop  offset="1" style="stop-color:#9BAAF3"/>
				</linearGradient>
				<path fill-rule="evenodd" clip-rule="evenodd" fill="url(#SVGID_15_)" d="M-12.75,392.026
					c12.18-1.354,22.208,2.858,30.083,12.64c13.628,16.797,14.038,34.19,1.23,52.182c-15.525,21.749-35.861,28.151-61.008,19.208
					c-20.704-7.408-28.268-21.433-22.694-42.073C-55.405,408.603-37.942,394.617-12.75,392.026z"/>
			</g>
			<g>
				<path fill-rule="evenodd" clip-rule="evenodd" fill="#B8EBF0" d="M-13.068,394.549c11.514-1.301,20.99,2.663,28.428,11.894
					c12.828,15.861,13.208,32.281,1.139,49.261c-14.643,20.53-33.841,26.569-57.593,18.115
					c-19.547-6.987-26.687-20.223-21.42-39.704C-53.332,410.162-36.85,396.974-13.068,394.549z"/>
			</g>
			<g>
				<linearGradient id="SVGID_16_" gradientUnits="userSpaceOnUse" x1="-15.1465" y1="479.625" x2="-24.2059" y2="393.851">
					<stop  offset="0" style="stop-color:#6F7CEC"/>
					<stop  offset="1" style="stop-color:#9BAAF3"/>
				</linearGradient>
				<path fill-rule="evenodd" clip-rule="evenodd" fill="url(#SVGID_16_)" d="M-13.471,396.986
					c10.831-1.223,19.749,2.517,26.753,11.218c12.097,14.936,12.461,30.401,1.092,46.398c-13.801,19.343-31.88,25.032-54.238,17.068
					c-18.416-6.586-25.146-19.051-20.191-37.396C-51.409,411.704-35.881,399.274-13.471,396.986z"/>
			</g>
		</g>
	</g>
	<g>
		<g>
			<path fill-rule="evenodd" clip-rule="evenodd" fill="#73D7DF" d="M573.444-27.605c32.067-5.654,58.853,2.965,80.356,25.858
				c11.298,16.235,11.851,33.11,1.656,50.625c-8.576,14.712-16.168,29.917-22.775,45.612c-10.328,24.451-27.048,42.078-50.157,52.88
				c-27.17,12.757-55.24,14.895-84.21,6.413c-33.196-9.614-47.531-31.5-43.005-65.656c4.046-30.337,17.441-56.04,40.188-77.107
				C517.626-9.495,543.607-22.371,573.444-27.605z"/>
		</g>
		<g>
			<radialGradient id="SVGID_17_" cx="532.25" cy="90.5498" r="149.72" gradientUnits="userSpaceOnUse">
				<stop  offset="0.0078" style="stop-color:#A6FBAC"/>
				<stop  offset="0.7255" style="stop-color:#B8EBF0"/>
			</radialGradient>
			<path fill-rule="evenodd" clip-rule="evenodd" fill="url(#SVGID_17_)" d="M573.326-24.484
				c30.149-5.399,55.329,2.804,75.539,24.611c10.613,15.467,11.12,31.55,1.52,48.249c-8.072,14.033-15.219,28.533-21.44,43.502
				c-9.737,23.331-25.479,40.153-47.226,50.467c-25.558,12.181-51.963,14.242-79.216,6.183c-31.2-9.136-44.663-29.989-40.389-62.561
				c3.823-28.933,16.443-53.455,37.859-73.566C520.793-7.178,545.244-19.473,573.326-24.484z"/>
		</g>
		<g>
			<g>
				<linearGradient id="SVGID_18_" gradientUnits="userSpaceOnUse" x1="531.3984" y1="112.2588" x2="539.5949" y2="24.0585">
					<stop  offset="0" style="stop-color:#6F7CEC"/>
					<stop  offset="1" style="stop-color:#9BAAF3"/>
				</linearGradient>
				<path fill-rule="evenodd" clip-rule="evenodd" fill="url(#SVGID_18_)" d="M551.317,30.008
					c11.095,1.405,19.088,7.288,23.98,17.65c8.495,17.815,5.137,33.333-10.075,46.552c-18.426,15.97-37.835,17.298-58.229,3.983
					c-16.78-11.002-20.489-25.062-11.128-42.179C509.933,35.584,528.416,26.915,551.317,30.008z"/>
			</g>
			<g>
				<path fill-rule="evenodd" clip-rule="evenodd" fill="#B8EBF0" d="M550.495,32.178c10.492,1.31,18.05,6.854,22.672,16.634
					c7.985,16.814,4.809,31.461-9.53,43.941c-17.384,15.079-35.705,16.327-54.966,3.746c-15.844-10.382-19.346-23.65-10.505-39.805
					C511.438,37.411,528.88,29.239,550.495,32.178z"/>
			</g>
			<g>
				<linearGradient id="SVGID_19_" gradientUnits="userSpaceOnUse" x1="530.4424" y1="107.2329" x2="540.7606" y2="29.207">
					<stop  offset="0" style="stop-color:#6F7CEC"/>
					<stop  offset="1" style="stop-color:#9BAAF3"/>
				</linearGradient>
				<path fill-rule="evenodd" clip-rule="evenodd" fill="url(#SVGID_19_)" d="M549.616,34.253c9.87,1.233,16.98,6.458,21.331,15.676
					c7.535,15.837,4.548,29.635-8.96,41.393c-16.382,14.205-33.637,15.383-51.765,3.534c-14.927-9.783-18.229-22.28-9.908-37.493
					C512.813,39.19,529.247,31.487,549.616,34.253z"/>
			</g>
		</g>
	</g>
	<g>
		<g>
			<path fill-rule="evenodd" clip-rule="evenodd" fill="#73D7DF" d="M441.687,333.9c35.78-2.485,64.124,10.054,85.033,37.617
				c10.498,19.09,9.151,37.639-4.04,55.646c-11.096,15.124-21.17,30.901-30.223,47.33c-14.141,25.589-34.493,42.964-61.057,52.126
				c-31.237,10.832-62.232,9.928-92.985-2.713c-35.252-14.37-48.424-40-39.516-76.892c7.939-32.764,25.585-59.369,52.938-79.816
				C378.449,347.284,408.398,336.185,441.687,333.9z"/>
		</g>
		<g>
			<radialGradient id="SVGID_20_" cx="382.8496" cy="458.5498" r="164.9195" gradientUnits="userSpaceOnUse">
				<stop  offset="0.0078" style="stop-color:#A6FBAC"/>
				<stop  offset="0.7255" style="stop-color:#B8EBF0"/>
			</radialGradient>
			<path fill-rule="evenodd" clip-rule="evenodd" fill="url(#SVGID_20_)" d="M441.196,337.306c33.65-2.429,60.283,9.469,79.9,35.693
				c9.837,18.17,8.532,35.845-3.916,53.026c-10.464,14.438-19.969,29.496-28.516,45.174c-13.364,24.43-32.553,41.037-57.566,49.82
				c-29.404,10.389-58.566,9.593-87.488-2.387c-33.12-13.614-45.456-38.014-37.007-73.198c7.534-31.251,24.192-56.653,49.978-76.207
				C381.65,350.188,409.855,339.548,441.196,337.306z"/>
		</g>
		<g>
			<g>
				<linearGradient id="SVGID_21_" gradientUnits="userSpaceOnUse" x1="379.4473" y1="482.2568" x2="398.6405" y2="386.5805">
					<stop  offset="0" style="stop-color:#6F7CEC"/>
					<stop  offset="1" style="stop-color:#9BAAF3"/>
				</linearGradient>
				<path fill-rule="evenodd" clip-rule="evenodd" fill="url(#SVGID_21_)" d="M410.787,394.451
					c11.99,2.822,20.066,10.19,24.228,22.107c7.245,20.497,1.771,37.106-16.419,49.827c-22.031,15.363-43.445,14.574-64.244-2.369
					c-17.109-13.991-19.546-29.821-7.312-47.489C364.809,395.774,386.059,388.415,410.787,394.451z"/>
			</g>
			<g>
				<path fill-rule="evenodd" clip-rule="evenodd" fill="#B8EBF0" d="M409.635,396.733c11.342,2.647,18.979,9.595,22.912,20.842
					c6.803,19.342,1.629,35.02-15.521,47.031c-20.784,14.507-40.999,13.756-60.642-2.253c-16.155-13.204-18.456-28.144-6.904-44.817
					C366.246,397.949,386.298,391.015,409.635,396.733z"/>
			</g>
			<g>
				<linearGradient id="SVGID_22_" gradientUnits="userSpaceOnUse" x1="378.998" y1="476.5762" x2="399.3307" y2="392.303">
					<stop  offset="0" style="stop-color:#6F7CEC"/>
					<stop  offset="1" style="stop-color:#9BAAF3"/>
				</linearGradient>
				<path fill-rule="evenodd" clip-rule="evenodd" fill="url(#SVGID_22_)" d="M408.434,398.905
					c10.668,2.492,17.853,9.038,21.553,19.638c6.422,18.22,1.555,32.988-14.602,44.306c-19.587,13.666-38.624,12.961-57.112-2.114
					c-15.22-12.442-17.392-26.514-6.518-42.216C367.548,400.058,386.44,393.52,408.434,398.905z"/>
			</g>
		</g>
	</g>
	
		<use xlink:href="#cell"  width="340.946" height="316.436" x="-11.15" y="-307.455" transform="matrix(0.105 0.6593 -0.6593 0.105 473.4004 165.75)" overflow="visible"/>
	
		<use xlink:href="#cell"  width="340.946" height="316.436" x="-11.15" y="-307.455" transform="matrix(0.559 -0.0541 -0.0591 -0.6113 626.5498 -16)" overflow="visible"/>
	<g>
		<g>
			<path fill-rule="evenodd" clip-rule="evenodd" fill="#73D7DF" d="M666.943,349.899c40.298-0.532,71.306,15.322,93.024,47.563
				c10.574,22.079,7.894,42.804-8.041,62.173c-13.401,16.269-25.698,33.332-36.89,51.192
				c-17.478,27.816-41.406,46.026-71.785,54.629c-35.728,10.183-70.442,7.214-104.146-8.906
				c-38.642-18.344-51.803-47.929-39.482-88.755c10.973-36.256,32.446-64.991,64.422-86.205
				C595.155,360.927,629.454,350.363,666.943,349.899z"/>
		</g>
		<g>
			<radialGradient id="SVGID_23_" cx="593.0996" cy="486.0498" r="185.3074" gradientUnits="userSpaceOnUse">
				<stop  offset="0.0078" style="stop-color:#A6FBAC"/>
				<stop  offset="0.7255" style="stop-color:#B8EBF0"/>
			</radialGradient>
			<path fill-rule="evenodd" clip-rule="evenodd" fill="url(#SVGID_23_)" d="M666.179,353.688
				c37.904-0.603,67.033,14.425,87.388,45.082c9.89,21.005,7.312,40.752-7.736,59.242c-12.649,15.538-24.263,31.832-34.84,48.881
				c-16.533,26.565-39.107,43.986-67.724,52.263c-33.643,9.801-66.31,7.068-98-8.194c-36.298-17.362-48.599-45.514-36.901-84.453
				c10.422-34.585,30.713-62.032,60.873-82.343C598.563,364.388,630.877,354.229,666.179,353.688z"/>
		</g>
		<g>
			<g>
				<linearGradient id="SVGID_24_" gradientUnits="userSpaceOnUse" x1="587.7773" y1="512.3633" x2="615.3368" y2="406.2657">
					<stop  offset="0" style="stop-color:#6F7CEC"/>
					<stop  offset="1" style="stop-color:#9BAAF3"/>
				</linearGradient>
				<path fill-rule="evenodd" clip-rule="evenodd" fill="url(#SVGID_24_)" d="M628.46,415.882
					c13.274,3.922,21.869,12.698,25.787,26.329c6.835,23.452-0.353,41.74-21.562,54.865c-25.685,15.847-49.659,13.61-71.925-6.709
					c-18.312-16.776-20.048-34.688-5.209-53.738C576.795,414.467,601.099,407.551,628.46,415.882z"/>
			</g>
			<g>
				<path fill-rule="evenodd" clip-rule="evenodd" fill="#B8EBF0" d="M627.024,418.369c12.557,3.686,20.688,11.961,24.39,24.827
					c6.412,22.128-0.381,39.39-20.378,51.784c-24.233,14.964-46.863,12.847-67.892-6.352c-17.291-15.832-18.931-32.737-4.92-50.714
					C578.271,416.998,601.203,410.482,627.024,418.369z"/>
			</g>
			<g>
				<linearGradient id="SVGID_25_" gradientUnits="userSpaceOnUse" x1="587.6426" y1="505.9678" x2="615.7422" y2="412.7177">
					<stop  offset="0" style="stop-color:#6F7CEC"/>
					<stop  offset="1" style="stop-color:#9BAAF3"/>
				</linearGradient>
				<path fill-rule="evenodd" clip-rule="evenodd" fill="url(#SVGID_25_)" d="M625.539,420.729
					c11.811,3.469,19.458,11.266,22.941,23.391c6.056,20.846-0.336,37.106-19.175,48.785c-22.835,14.096-44.148,12.104-63.938-5.974
					c-16.29-14.918-17.841-30.842-4.651-47.771C579.598,419.445,601.205,413.302,625.539,420.729z"/>
			</g>
		</g>
	</g>
	
		<use xlink:href="#cell"  width="340.946" height="316.436" x="-11.15" y="-307.455" transform="matrix(0.5793 -0.3737 -0.3242 -0.5026 624.7002 232.3999)" overflow="visible"/>
</g>
</svg>
