<?xml version="1.0" encoding="utf-8"?>
<!-- Generator: Adobe Illustrator 15.0.0, SVG Export Plug-In . SVG Version: 6.00 Build 0)  -->
<!DOCTYPE svg PUBLIC "-//W3C//DTD SVG 1.1//EN" "http://www.w3.org/Graphics/SVG/1.1/DTD/svg11.dtd">
<svg version="1.1" id="Selected_Items" xmlns="http://www.w3.org/2000/svg" xmlns:xlink="http://www.w3.org/1999/xlink" x="0px"
	 y="0px" width="720px" height="500px" viewBox="0 0 720 500" enable-background="new 0 0 720 500" xml:space="preserve">
<g>
	<linearGradient id="SVGID_1_" gradientUnits="userSpaceOnUse" x1="-5" y1="253.4746" x2="725" y2="253.4746">
		<stop  offset="0" style="stop-color:#CBB85B"/>
		<stop  offset="1" style="stop-color:#E8D17D"/>
	</linearGradient>
	<rect x="-5" y="-4" fill-rule="evenodd" clip-rule="evenodd" fill="url(#SVGID_1_)" width="730" height="514.95"/>
	<g>
		<g>
			<linearGradient id="SVGID_2_" gradientUnits="userSpaceOnUse" x1="109.1055" y1="368.584" x2="774.4545" y2="60.9818">
				<stop  offset="0.0078" style="stop-color:#B8A652"/>
				<stop  offset="1" style="stop-color:#EAD469"/>
			</linearGradient>
			<path fill-rule="evenodd" clip-rule="evenodd" fill="url(#SVGID_2_)" d="M511.15,165.9c-1.7-0.967-2.601-1.467-2.7-1.5
				c-0.4-0.133-0.867-0.233-1.4-0.3c-0.833-0.4-1.717-0.733-2.649-1c0.166,0.433,0.333,0.9,0.5,1.4
				c0.233,0.467,0.483,0.967,0.75,1.5c1.699,1.833,3.133,3.867,4.3,6.1c1.2,2.267,2.184,4.983,2.95,8.15
				c0.199,0.767,0.3,2.817,0.3,6.15c0.666,2.434,1.133,4.9,1.399,7.4c0.067,0.5,0.117,1.2,0.15,2.1c0.333,0.5,0.717,0.95,1.15,1.35
				c0.366-0.1,0.767-0.267,1.199-0.5c0.101,0,0.2,0,0.301,0c0.066,0,0.116,0,0.149,0c1.4-2.033,3.2-4.267,5.4-6.7
				c5.6-6.2,12.083-11.917,19.45-17.15c0.433-0.566,0.767-1.05,1-1.45c0.833-0.267,1.6-0.567,2.3-0.9
				c0.166-0.066,0.333-0.15,0.5-0.25c0.899-0.433,1.666-0.9,2.3-1.4c0.366-0.367,0.684-0.717,0.95-1.05
				c-1.601,0.1-3.283,0.15-5.05,0.15c-1.634,0-3.184-0.017-4.65-0.05c-2.833,0.2-6.816,0.3-11.95,0.3
				C519.5,168.25,513.95,167.467,511.15,165.9z M665.9,313c-0.134,0.934-0.267,1.833-0.4,2.7c-1.8-0.101-3.316,1.217-4.55,3.95
				c-0.834,1.833-1.684,4.283-2.55,7.35c-0.301,0.634-2.101,2.95-5.4,6.95c-2.9,3.5-4.35,5.8-4.35,6.899c0,1,0.133,1.65,0.399,1.95
				l0.351,0.45h0.8c0.033,0.233,0.133,0.483,0.3,0.75c4.866-0.167,10.5,0.283,16.9,1.35c3.733,0.634,7.25,1.417,10.55,2.351
				c-1-2.101-1.917-4.4-2.75-6.9c-0.667-2-1.25-3.95-1.75-5.85c-1.667-2.3-2.684-4.117-3.05-5.45c-0.301-1.066-0.684-3.85-1.15-8.35
				c-0.4-3.767-1.017-6.483-1.85-8.15H665.9z M685.85,171.4c-1.133,0.4-2.283,1.017-3.449,1.85c3.199,2.8,5.216,6.183,6.05,10.15
				c0.3,1.533,0.45,4.65,0.45,9.35l2.5,0.5c1.033,0,2.3-1.167,3.8-3.5c0.833-1.3,1.983-3.217,3.45-5.75
				c0.533-0.767,2.517-2.8,5.949-6.1c3.034-2.9,4.551-4.617,4.551-5.15c0-1-0.167-1.583-0.5-1.75l-0.5-0.25
				c-6.834-0.167-12.084-0.25-15.75-0.25C689.8,170.5,687.616,170.8,685.85,171.4z M629.95,119c-1.233-0.833-2.667-1.25-4.3-1.25
				c0.066,1.7-1.034,3.417-3.301,5.15c-2.3,1.8-3.449,3.5-3.449,5.1c0,1,0.133,1.583,0.399,1.75l0.351,0.25
				c0.433,0.067,1,0.183,1.699,0.35c0.4,0.1,1.084,0.15,2.051,0.15c3.733,0,6.35-0.15,7.85-0.45c-0.467-2.367-0.816-4.883-1.05-7.55
				C630.066,121.2,629.983,120.033,629.95,119z M452.05,75.75c-4.133,3.267-9.35,8.733-15.649,16.4
				c-8.167,9.9-14.834,16.85-20,20.85c0.166,0.267,0.433,0.633,0.8,1.1c0.3,0.4,0.45,0.7,0.45,0.9
				c7.733-0.9,14.533-0.217,20.399,2.05c1.2,0.467,3,1.3,5.4,2.5c1.6,0.8,2.75,1.2,3.45,1.2c0.233,0,0.449,0,0.649,0v-0.05
				c-0.166-1.7-0.316-3.434-0.45-5.2c-0.133-3.833-0.199-5.8-0.199-5.9c0-5,0.267-9.434,0.8-13.3c0.3-2,1.2-6.933,2.7-14.8
				C450.8,79.4,451.35,77.483,452.05,75.75z M480.35,294.3c0.167-1.467,0.351-2.833,0.551-4.1c-0.301-0.733-0.634-1.384-1-1.95
				c-0.634,0.667-2.567,3.333-5.801,8c-3.166,4.533-5.899,7.95-8.199,10.25c-1.767,1.767-6.717,5.517-14.851,11.25
				c-7.434,5.233-11.149,8.017-11.149,8.35c0,0.301,0.017,0.601,0.05,0.9c0.033-0.033,0.066-0.05,0.1-0.05
				c5.967-0.834,14.584-1.4,25.851-1.7c7.199-0.467,13.566-0.417,19.1,0.15c-0.3-0.7-0.583-1.417-0.85-2.15
				c-1.9-5.066-3.084-8.816-3.551-11.25c-0.466-2.333-0.699-5.717-0.699-10.15C479.9,299.884,480.05,297.366,480.35,294.3z
				 M331.5,377.2c5.267-5.066,9.2-8.467,11.8-10.2c0.267-0.167,0.833-0.583,1.7-1.25c-18.267-0.134-29.4-0.65-33.4-1.55
				c-1.333-0.3-2.1-0.717-2.3-1.25c-0.267-0.667-0.517-1.066-0.75-1.2c0.067,0.4,0.017,0.884-0.15,1.45
				c-0.167,0.5-0.267,1.033-0.3,1.6c0.9,1.033,1.717,2.134,2.45,3.3c1.167,1.867,2.25,4.084,3.25,6.65
				c1.467,3.6,2.434,8.25,2.9,13.95c0.066,1.066,0.133,2.3,0.2,3.7c1.767-2.167,4-4.634,6.7-7.4c1.066-1.733,1.8-2.9,2.2-3.5
				C326.433,380.533,328.333,379.1,331.5,377.2z M545.4,390.25c0.6,0,2.767-1.583,6.5-4.75c3.833-3.267,5.75-5.35,5.75-6.25
				c0-1-0.084-1.583-0.25-1.75l-0.25-0.25c-8-0.267-13-0.283-15-0.05c-2.5,0.333-3.75,1.267-3.75,2.8c0,0.134,0.5,1.884,1.5,5.25
				C541.333,388.583,543.167,390.25,545.4,390.25z M184.4,97.4c0.067,0,0.117,0,0.15,0c6.967-0.8,16.467-0.933,28.5-0.4
				c-0.5-0.933-0.983-1.917-1.45-2.95c-1.434-3.167-2.617-6.65-3.55-10.45c-0.2-0.8-0.367-1.5-0.5-2.1c-0.5-0.4-1.1-0.633-1.8-0.7
				c-1.767,2.167-3.833,4.317-6.2,6.45c-3.8,3.467-7.783,6.317-11.95,8.55c-1.067,0.567-2.083,1.067-3.05,1.5
				C184.517,97.333,184.467,97.367,184.4,97.4z M289.75,147.95c0.633,1.1,1.3,2.2,2,3.3c0.9,1.5,1.35,3.1,1.35,4.8
				c0.066,8.567-1.4,16.867-4.4,24.9c-1.8,5.733-3.9,11.4-6.3,17c-0.267,0.6-0.533,1.2-0.8,1.8c-1.5,3.267-2.934,6.167-4.3,8.7
				c1.8-2.733,3.917-6.233,6.35-10.5c2.967-5.833,6.2-11.5,9.7-17l14.65-20c0.667-0.767,1.333-1.517,2-2.25
				c0.867-0.967,1.767-1.967,2.7-3c5.4-6,8.633-9.983,9.7-11.95c-1.566,0.167-3.017,0.25-4.35,0.25c-2.833,0-5.517-0.05-8.05-0.15
				l-22.65-2.1C287.85,143.75,288.65,145.817,289.75,147.95z M59.2,146.15c-0.6,0.5-0.9,1.533-0.9,3.1c0,0.9,0.15,2.467,0.45,4.7
				c0.333,2.466,0.517,4.15,0.55,5.05c0.1,1.367-0.083,3.217-0.55,5.55c-0.333,1.833-0.55,3.217-0.65,4.15
				c6.8-7,14.117-13.517,21.95-19.55c1.267-0.967,2.5-1.883,3.7-2.75c-4.1,0.4-8.333,0.6-12.7,0.6c-4.433,0-8.267-0.367-11.5-1.1
				C59.417,145.967,59.3,146.05,59.2,146.15z M303.525,511.05c-2.086-6.274-3.678-10.891-4.775-13.85
				c-1.9-5.134-4.467-9.417-7.7-12.851c-0.833,0.601-2.833,4.517-6,11.75c-3.333,7.534-5,12.417-5,14.65
				c0,0.085,0.017,0.185,0.05,0.3H-6.4V-6.4h733.95v517.45H489.275c0.228-2.146,0.853-4.879,1.875-8.2c1.333-4.3,2-7.083,2-8.35
				c0-0.833-0.301-1.75-0.9-2.75c-0.8-1.333-1.917-2.217-3.35-2.65c-0.334,1-2.067,4.034-5.2,9.101c-2.7,4.366-4.05,7.5-4.05,9.399
				c0,0.567,0.183,1.084,0.55,1.551c0.099,0.164,0.648,0.797,1.649,1.899H303.525z M245.2,283.2c-0.067-0.334-0.117-0.634-0.15-0.9
				c-0.1,0.334-0.216,0.684-0.35,1.05c-1.1,3.4-2.4,6.617-3.9,9.65c-2.667,5.333-5.417,9.033-8.25,11.1
				c-1.133,1.334-2.216,2.551-3.25,3.65c0.8,0.3,1.833,0.866,3.1,1.7c1.633,0.7,4.184,1.05,7.65,1.05c1,0,2-0.116,3-0.35l1.5-0.4
				c0-2.8,0.167-6.917,0.5-12.35c0.333-5.434,0.5-8.367,0.5-8.801C245.55,286.4,245.433,284.6,245.2,283.2z M111.35,354.45
				c0.3,1.899,0.45,4.75,0.45,8.55c0,1.833-0.5,3.967-1.5,6.4c-1,2.433-1.5,4.416-1.5,5.949c0,1.067,0.184,1.717,0.55,1.95
				c0.033,0,0.05,0.017,0.05,0.05c1.033-2.199,2.233-4.633,3.6-7.3c4.067-7.866,7.25-13.55,9.55-17.05
				c1.233-1.9,2.967-4.167,5.2-6.8c-2.733,0.133-5.333,0.25-7.8,0.35c-5.467,0.233-9.367,0.384-11.7,0.45
				c-0.133,0.066-0.2,0.15-0.2,0.25C109.683,348.783,110.783,351.184,111.35,354.45z M16.55,311.75c0.233,0.033,0.833,0.434,1.8,1.2
				L18.4,313c3.467-0.767,8.45-1.634,14.95-2.6c0.967-0.634,1.45-1.184,1.45-1.65c0-0.934-0.7-3.184-2.1-6.75
				c-1.767-4.434-3.567-7.184-5.4-8.25c-0.733,1.134-2.4,3.95-5,8.45C19.733,306.7,17.817,309.884,16.55,311.75z"/>
			<g>
				<g>
					<path fill-rule="evenodd" clip-rule="evenodd" fill="#73D7DF" d="M504.15,184.6c2.3,12.367,2.633,24.767,1,37.2
						c-1.567,11.4-5.067,22.55-10.5,33.45c-8.2,16.3-19.284,30.4-33.25,42.3c-10,8.601-20.017,17.05-30.051,25.351
						c-19.633,16.267-41.916,27.166-66.85,32.699c-27,5.967-52.6,2.967-76.8-9c-25.067-12.399-37.583-32.666-37.55-60.8
						c0-27.233,9.333-51.083,28-71.55c9.467-10.433,17.767-21.767,24.9-34c7.267-13.167,16.367-24.267,27.3-33.3
						c4.1-3.367,8.367-6.383,12.8-9.05c27.067-13.7,55.617-19.083,85.65-16.15c29.566,0.267,51.4,12.417,65.5,36.45
						C499.1,166.367,502.384,175.167,504.15,184.6z M496.65,187.65c-1.667-8.9-4.75-17.2-9.25-24.9
						c-13.233-22.6-33.7-34.05-61.4-34.35c-28.167-2.733-54.934,2.333-80.3,15.2c-4.167,2.533-8.184,5.4-12.05,8.6
						c-10.2,8.466-18.7,18.9-25.5,31.3c-6.7,11.5-14.5,22.167-23.4,32c-17.467,19.233-26.217,41.684-26.25,67.35
						c-0.033,26.5,11.7,45.584,35.2,57.25c22.733,11.233,46.733,14.051,72,8.45c23.366-5.2,44.25-15.467,62.649-30.8
						c9.434-7.833,18.834-15.767,28.2-23.8c13.101-11.233,23.483-24.517,31.15-39.851c5.1-10.233,8.383-20.733,9.85-31.5
						C499.083,210.933,498.783,199.283,496.65,187.65z"/>
					<radialGradient id="SVGID_3_" cx="399.7002" cy="225.1499" r="178.8875" gradientUnits="userSpaceOnUse">
						<stop  offset="0.0078" style="stop-color:#A6FBAC"/>
						<stop  offset="0.7255" style="stop-color:#B8EBF0"/>
					</radialGradient>
					<path fill-rule="evenodd" clip-rule="evenodd" fill="url(#SVGID_3_)" d="M496.65,187.65c2.133,11.633,2.433,23.283,0.899,34.95
						c-1.467,10.767-4.75,21.267-9.85,31.5c-7.667,15.334-18.05,28.617-31.15,39.851c-9.366,8.033-18.767,15.967-28.2,23.8
						c-18.399,15.333-39.283,25.6-62.649,30.8c-25.267,5.601-49.267,2.783-72-8.45c-23.5-11.666-35.233-30.75-35.2-57.25
						c0.033-25.666,8.783-48.116,26.25-67.35c8.9-9.833,16.7-20.5,23.4-32c6.8-12.4,15.3-22.833,25.5-31.3
						c3.867-3.2,7.883-6.067,12.05-8.6c25.366-12.867,52.133-17.934,80.3-15.2c27.7,0.3,48.167,11.75,61.4,34.35
						C491.9,170.45,494.983,178.75,496.65,187.65z"/>
				</g>
				<g>
					<path fill-rule="evenodd" clip-rule="evenodd" fill="#B8EBF0" d="M453.25,196.1c11.066,20.233,8.184,38.566-8.65,55
						c-20.433,19.9-43,22.75-67.699,8.551c-20.333-11.734-25.601-27.9-15.801-48.5c15.034-24.767,36.017-36.1,62.95-34
						C437.116,178.017,446.85,184.333,453.25,196.1z M450.6,197.65c-6.033-11.1-15.199-17.05-27.5-17.85
						c-25.366-2-45.133,8.684-59.3,32.05c-9.233,19.4-4.267,34.617,14.9,45.65c23.267,13.366,44.517,10.684,63.75-8.05
						C458.316,233.983,461.033,216.717,450.6,197.65z"/>
					<linearGradient id="SVGID_4_" gradientUnits="userSpaceOnUse" x1="404.5752" y1="271.3271" x2="411.8043" y2="174.1025">
						<stop  offset="0" style="stop-color:#6F7CEC"/>
						<stop  offset="1" style="stop-color:#9BAAF3"/>
					</linearGradient>
					<path fill-rule="evenodd" clip-rule="evenodd" fill="url(#SVGID_4_)" d="M450.6,197.65c10.434,19.067,7.717,36.333-8.149,51.8
						c-19.233,18.733-40.483,21.416-63.75,8.05c-19.167-11.033-24.133-26.25-14.9-45.65c14.167-23.367,33.934-34.05,59.3-32.05
						C435.4,180.6,444.566,186.55,450.6,197.65z"/>
					<linearGradient id="SVGID_5_" gradientUnits="userSpaceOnUse" x1="406.1006" y1="277.5273" x2="410.0001" y2="167.8773">
						<stop  offset="0" style="stop-color:#6F7CEC"/>
						<stop  offset="1" style="stop-color:#9BAAF3"/>
					</linearGradient>
					<path fill-rule="evenodd" clip-rule="evenodd" fill="url(#SVGID_5_)" d="M455.8,194.55c11.767,21.434,8.717,40.85-9.149,58.25
						c-21.634,21.066-45.534,24.084-71.7,9.05c-21.534-12.399-27.117-29.516-16.75-51.35c15.934-26.267,38.166-38.3,66.7-36.1
						C438.733,175.367,449.033,182.083,455.8,194.55z M453.25,196.1c-6.4-11.767-16.134-18.083-29.2-18.95
						c-26.934-2.1-47.916,9.233-62.95,34c-9.8,20.6-4.533,36.767,15.801,48.5C401.6,273.85,424.167,271,444.6,251.1
						C461.434,234.667,464.316,216.333,453.25,196.1z"/>
				</g>
			</g>
			<g>
				<g>
					<radialGradient id="SVGID_6_" cx="127.3501" cy="255.8496" r="185.4375" gradientUnits="userSpaceOnUse">
						<stop  offset="0.0078" style="stop-color:#A6FBAC"/>
						<stop  offset="0.7255" style="stop-color:#B8EBF0"/>
					</radialGradient>
					<path fill-rule="evenodd" clip-rule="evenodd" fill="url(#SVGID_6_)" d="M265.15,135.8c14.233,18.367,16,38.217,5.3,59.55
						c-8.967,17.9-16.767,36.333-23.4,55.3c-10.4,29.533-28.683,51.449-54.85,65.75c-30.733,16.866-63.233,21.283-97.5,13.25
						c-39.233-9.101-57.35-33.934-54.35-74.5c2.667-36.034,16.533-67.25,41.6-93.65c24.333-25.7,53.683-42.633,88.05-50.8
						C206.9,101.9,238.617,110.267,265.15,135.8z"/>
					<path fill-rule="evenodd" clip-rule="evenodd" fill="#73D7DF" d="M271.15,133.1c15.1,19.267,16.983,40.1,5.65,62.5
						c-9.566,18.8-17.883,38.133-24.95,58c-11.033,30.967-30.467,53.95-58.3,68.95c-32.667,17.7-67.216,22.334-103.65,13.9
						c-41.733-9.533-61.017-35.584-57.85-78.15c2.867-37.8,17.617-70.533,44.25-98.2c25.9-26.934,57.117-44.684,93.65-53.25
						C209.217,97.583,242.95,106.333,271.15,133.1z M265.15,135.8c-26.533-25.533-58.25-33.9-95.15-25.1
						c-34.367,8.167-63.717,25.1-88.05,50.8c-25.067,26.4-38.934,57.617-41.6,93.65c-3,40.566,15.117,65.399,54.35,74.5
						c34.267,8.033,66.767,3.616,97.5-13.25c26.167-14.301,44.45-36.217,54.85-65.75c6.633-18.967,14.434-37.4,23.4-55.3
						C281.15,174.017,279.383,154.167,265.15,135.8z"/>
				</g>
				<g>
					<path fill-rule="evenodd" clip-rule="evenodd" fill="#B8EBF0" d="M85.55,217.05c-9.233,19.4-4.267,34.634,14.9,45.7
						c23.267,13.366,44.517,10.684,63.75-8.05c15.867-15.5,18.583-32.767,8.15-51.8c-6.033-11.1-15.2-17.066-27.5-17.9
						C119.483,183.033,99.717,193.717,85.55,217.05z M82.85,216.4c15.033-24.8,36.017-36.133,62.95-34
						c13.067,0.867,22.8,7.184,29.2,18.95c11.067,20.233,8.183,38.566-8.65,55c-20.434,19.867-43,22.7-67.7,8.5
						C78.317,253.15,73.05,237,82.85,216.4z"/>
					<linearGradient id="SVGID_7_" gradientUnits="userSpaceOnUse" x1="126.3262" y1="276.5264" x2="133.5553" y2="179.3017">
						<stop  offset="0" style="stop-color:#6F7CEC"/>
						<stop  offset="1" style="stop-color:#9BAAF3"/>
					</linearGradient>
					<path fill-rule="evenodd" clip-rule="evenodd" fill="url(#SVGID_7_)" d="M85.55,217.05c14.167-23.333,33.934-34.017,59.3-32.05
						c12.3,0.833,21.467,6.8,27.5,17.9c10.433,19.033,7.717,36.3-8.15,51.8c-19.233,18.733-40.483,21.416-63.75,8.05
						C81.283,251.684,76.317,236.45,85.55,217.05z"/>
					<linearGradient id="SVGID_8_" gradientUnits="userSpaceOnUse" x1="127.8511" y1="282.7256" x2="131.7506" y2="173.0756">
						<stop  offset="0" style="stop-color:#6F7CEC"/>
						<stop  offset="1" style="stop-color:#9BAAF3"/>
					</linearGradient>
					<path fill-rule="evenodd" clip-rule="evenodd" fill="url(#SVGID_8_)" d="M79.95,215.7c15.933-26.233,38.167-38.25,66.7-36.05
						c13.833,0.934,24.133,7.633,30.9,20.1c11.767,21.433,8.717,40.867-9.15,58.3c-21.633,21.033-45.533,24.05-71.7,9.05
						C75.167,254.667,69.583,237.533,79.95,215.7z M82.85,216.4c-9.8,20.6-4.533,36.75,15.8,48.45c24.7,14.2,47.267,11.367,67.7-8.5
						c16.833-16.433,19.717-34.766,8.65-55c-6.4-11.767-16.133-18.083-29.2-18.95C118.867,180.267,97.883,191.6,82.85,216.4z"/>
				</g>
			</g>
			<g>
				<g>
					<path fill-rule="evenodd" clip-rule="evenodd" fill="#73D7DF" d="M134.3,361.55c-3.333,3.566-6.417,7.367-9.25,11.4
						c-7.533,10.899-12.917,23.217-16.15,36.95c-3.367,12.833-8.017,25.149-13.95,36.949c-11.633,23.167-14.034,47.067-7.2,71.7
						c7.033,25.434,23.383,40.634,49.05,45.601c24.867,4.733,48.684,1.033,71.45-11.101c21.067-11.233,38.383-26.666,51.95-46.3
						c6.933-10.066,13.833-20.217,20.7-30.45c9.6-14.267,16.033-29.783,19.3-46.55c2.167-11.2,2.517-22.167,1.05-32.9
						c-1.667-11.6-5.083-22.716-10.25-33.35c-3.933-8.1-9.1-15.25-15.5-21.45c-18.767-18.166-41.467-23.684-68.1-16.55
						C179.567,330.366,155.2,342.384,134.3,361.55z M130.3,356.7c22.333-20.367,48.333-33.167,78-38.4
						c28.434-7.6,52.65-1.75,72.65,17.55c6.767,6.601,12.267,14.184,16.5,22.75c5.5,11.267,9.133,23.101,10.9,35.5
						c1.533,11.334,1.133,22.967-1.2,34.9c-3.5,17.833-10.383,34.333-20.65,49.5c-7.3,10.9-14.65,21.7-22.05,32.4
						c-14.5,20.866-33,37.283-55.5,49.25c-24.3,12.933-49.7,16.883-76.2,11.85c-27.367-5.2-44.783-21.316-52.25-48.35
						c-7.267-26.167-4.683-51.567,7.75-76.2c6.367-12.566,11.333-25.684,14.9-39.351c3.434-14.566,9.2-27.649,17.3-39.25
						C123.483,364.517,126.767,360.467,130.3,356.7z"/>
					<radialGradient id="SVGID_9_" cx="207.8999" cy="425.4502" r="178.3191" gradientUnits="userSpaceOnUse">
						<stop  offset="0.0078" style="stop-color:#A6FBAC"/>
						<stop  offset="0.7255" style="stop-color:#B8EBF0"/>
					</radialGradient>
					<path fill-rule="evenodd" clip-rule="evenodd" fill="url(#SVGID_9_)" d="M134.3,361.55c20.9-19.166,45.267-31.184,73.1-36.05
						c26.633-7.134,49.333-1.616,68.1,16.55c6.4,6.2,11.567,13.351,15.5,21.45c5.167,10.634,8.583,21.75,10.25,33.35
						c1.467,10.733,1.117,21.7-1.05,32.9c-3.267,16.767-9.7,32.283-19.3,46.55c-6.867,10.233-13.767,20.384-20.7,30.45
						c-13.567,19.634-30.883,35.066-51.95,46.3c-22.767,12.134-46.583,15.834-71.45,11.101
						c-25.667-4.967-42.017-20.167-49.05-45.601c-6.833-24.633-4.433-48.533,7.2-71.7c5.933-11.8,10.583-24.116,13.95-36.949
						c3.233-13.733,8.617-26.051,16.15-36.95C127.883,368.917,130.967,365.116,134.3,361.55z"/>
				</g>
				<g>
					<path fill-rule="evenodd" clip-rule="evenodd" fill="#B8EBF0" d="M251.6,383.25c16.033,16.467,18.167,34.85,6.4,55.15
						c-14.333,24.566-35.25,33.333-62.75,26.3c-22.633-5.867-32-20-28.1-42.4c7.8-27.8,24.917-44.283,51.35-49.45
						C231.3,370.184,242.333,373.65,251.6,383.25z M249.5,385.45c-8.767-9.066-19.167-12.351-31.2-9.851
						c-24.9,4.867-41.05,20.417-48.45,46.65c-3.633,21.066,5.217,34.35,26.55,39.85c25.9,6.667,45.6-1.583,59.1-24.75
						C266.6,418.25,264.6,400.95,249.5,385.45z"/>
					<linearGradient id="SVGID_10_" gradientUnits="userSpaceOnUse" x1="224.9463" y1="468.4639" x2="205.9262" y2="373.1629">
						<stop  offset="0" style="stop-color:#6F7CEC"/>
						<stop  offset="1" style="stop-color:#9BAAF3"/>
					</linearGradient>
					<path fill-rule="evenodd" clip-rule="evenodd" fill="url(#SVGID_10_)" d="M249.5,385.45c15.1,15.5,17.1,32.8,6,51.899
						c-13.5,23.167-33.2,31.417-59.1,24.75c-21.333-5.5-30.183-18.783-26.55-39.85c7.4-26.233,23.55-41.783,48.45-46.65
						C230.333,373.1,240.733,376.384,249.5,385.45z"/>
					<linearGradient id="SVGID_11_" gradientUnits="userSpaceOnUse" x1="228.0708" y1="474.0488" x2="202.5409" y2="367.7">
						<stop  offset="0" style="stop-color:#6F7CEC"/>
						<stop  offset="1" style="stop-color:#9BAAF3"/>
					</linearGradient>
					<path fill-rule="evenodd" clip-rule="evenodd" fill="url(#SVGID_11_)" d="M253.65,381.05c17.033,17.434,19.283,36.9,6.75,58.4
						c-15.167,26-37.3,35.283-66.4,27.85c-24.033-6.166-33.983-21.116-29.85-44.85c8.3-29.467,26.45-46.967,54.45-52.5
						C232.133,367.184,243.817,370.884,253.65,381.05z M251.6,383.25c-9.267-9.6-20.3-13.066-33.1-10.4
						c-26.433,5.167-43.55,21.65-51.35,49.45c-3.9,22.4,5.467,36.533,28.1,42.4c27.5,7.033,48.417-1.733,62.75-26.3
						C269.767,418.1,267.633,399.717,251.6,383.25z"/>
				</g>
			</g>
			<g>
				<g>
					<radialGradient id="SVGID_12_" cx="305.8999" cy="52.5498" r="185.2341" gradientUnits="userSpaceOnUse">
						<stop  offset="0.0078" style="stop-color:#A6FBAC"/>
						<stop  offset="0.7255" style="stop-color:#B8EBF0"/>
					</radialGradient>
					<path fill-rule="evenodd" clip-rule="evenodd" fill="url(#SVGID_12_)" d="M397.75-67.5c37.533,5,64.116,24.167,79.75,57.5
						c6.634,22.233,1.15,41.367-16.45,57.4c-14.8,13.5-28.7,27.9-41.7,43.2c-20.233,23.833-45.116,37.717-74.649,41.65
						c-34.7,4.7-66.583-2.833-95.65-22.6c-33.333-22.5-41.333-52.133-24-88.9c15.434-32.7,39.55-56.85,72.35-72.45
						C329.333-66.9,362.783-72.167,397.75-67.5z"/>
					<path fill-rule="evenodd" clip-rule="evenodd" fill="#73D7DF" d="M399.05-71.1c39.934,5.434,68.25,25.684,84.95,60.75
						c7.2,23.4,1.483,43.5-17.15,60.3C451.184,64.05,436.5,79.1,422.8,95.1c-21.399,24.9-47.75,39.35-79.05,43.35
						c-36.8,4.8-70.683-3.267-101.65-24.2c-35.467-23.833-44.083-55.033-25.85-93.6c16.2-34.2,41.667-59.417,76.4-75.65
						C326.45-70.833,361.917-76.2,399.05-71.1z M397.75-67.5c-34.967-4.667-68.417,0.6-100.35,15.8
						c-32.8,15.6-56.917,39.75-72.35,72.45c-17.333,36.767-9.333,66.4,24,88.9c29.067,19.767,60.95,27.3,95.65,22.6
						c29.533-3.933,54.416-17.817,74.649-41.65c13-15.3,26.9-29.7,41.7-43.2C478.65,31.367,484.134,12.233,477.5-10
						C461.866-43.333,435.283-62.5,397.75-67.5z"/>
				</g>
				<g>
					<linearGradient id="SVGID_13_" gradientUnits="userSpaceOnUse" x1="296.7529" y1="77.8462" x2="339.6989" y2="-22.9805">
						<stop  offset="0" style="stop-color:#6F7CEC"/>
						<stop  offset="1" style="stop-color:#9BAAF3"/>
					</linearGradient>
					<path fill-rule="evenodd" clip-rule="evenodd" fill="url(#SVGID_13_)" d="M351.25-11.6c12.533,5.833,19.733,15.783,21.6,29.85
						c3.301,24.2-6.517,41.217-29.45,51.05c-27.7,11.867-51.05,6.117-70.05-17.25c-15.633-19.3-14.7-37.267,2.8-53.9
						C300.417-20.617,325.45-23.867,351.25-11.6z M349.5-9.3c-24.4-11.633-48.05-8.6-70.95,9.1c-16.5,15.7-17.383,32.667-2.65,50.9
						c17.967,22.066,40.05,27.5,66.25,16.3c21.567-9.3,30.817-25.367,27.75-48.2C368.134,5.533,361.333-3.833,349.5-9.3z"/>
					<path fill-rule="evenodd" clip-rule="evenodd" fill="#B8EBF0" d="M349.5-9.3c11.833,5.466,18.634,14.833,20.4,28.1
						c3.066,22.833-6.184,38.9-27.75,48.2c-26.2,11.2-48.283,5.767-66.25-16.3c-14.733-18.233-13.85-35.2,2.65-50.9
						C301.45-17.9,325.1-20.933,349.5-9.3z M340.7,64.7c20.366-8.767,29.1-23.9,26.2-45.4c-1.667-12.5-8.083-21.333-19.25-26.5
						c-22.967-10.966-45.233-8.083-66.8,8.65c-15.567,14.767-16.383,30.733-2.45,47.9C295.267,70.15,316.033,75.267,340.7,64.7z"/>
					<linearGradient id="SVGID_14_" gradientUnits="userSpaceOnUse" x1="297.5591" y1="71.5" x2="339.157" y2="-16.551">
						<stop  offset="0" style="stop-color:#6F7CEC"/>
						<stop  offset="1" style="stop-color:#9BAAF3"/>
					</linearGradient>
					<path fill-rule="evenodd" clip-rule="evenodd" fill="url(#SVGID_14_)" d="M340.7,64.7c-24.667,10.566-45.434,5.45-62.3-15.35
						c-13.933-17.167-13.117-33.133,2.45-47.9c21.566-16.733,43.833-19.617,66.8-8.65c11.167,5.167,17.583,14,19.25,26.5
						C369.8,40.8,361.066,55.933,340.7,64.7z"/>
				</g>
			</g>
			<g>
				<g>
					<path fill-rule="evenodd" clip-rule="evenodd" fill="#73D7DF" d="M78.4-43.2c4.2-1.867,8.417-3.433,12.65-4.7
						c25.534-5.3,50.483-3.367,74.85,5.8c24.467,6.833,39.883,21.8,46.25,44.9c2.133,7.9,2.867,15.95,2.2,24.15
						c-0.833,10.8-3.317,21.167-7.45,31.1c-3.833,9.133-9.233,17.617-16.2,25.45c-10.467,11.7-22.85,20.933-37.15,27.7
						c-10.167,4.9-20.367,9.683-30.6,14.35c-19.934,9.133-40.867,13.217-62.8,12.25c-23.733-1.1-44.333-9.333-61.8-24.7
						c-18.067-15.9-23.934-35.517-17.6-58.85C-13.117,31.617-0.033,13.883,20,1.05c10.233-6.566,19.667-14.133,28.3-22.7
						C57.267-30.95,67.3-38.133,78.4-43.2z M80.05-38.1c-10.4,4.767-19.816,11.533-28.25,20.3c-8.133,8.066-17,15.167-26.6,21.3
						C6.4,15.6-5.883,32.317-11.65,53.65C-17.583,75.65-12.1,94.1,4.8,109c16.367,14.467,35.667,22.183,57.9,23.15
						c20.6,0.9,40.25-2.933,58.95-11.5c9.6-4.433,19.184-8.933,28.75-13.5c13.4-6.4,25-15.117,34.8-26.15
						c6.5-7.367,11.583-15.367,15.25-24c3.867-9.333,6.2-19.067,7-29.2c0.633-7.767-0.067-15.35-2.1-22.75
						c-5.934-21.733-20.367-35.816-43.3-42.25c-22.833-8.6-46.216-10.383-70.15-5.35C87.9-41.35,83.95-39.867,80.05-38.1z"/>
					<radialGradient id="SVGID_15_" cx="118.5498" cy="37.25" r="153.8774" gradientUnits="userSpaceOnUse">
						<stop  offset="0.0078" style="stop-color:#A6FBAC"/>
						<stop  offset="0.7255" style="stop-color:#B8EBF0"/>
					</radialGradient>
					<path fill-rule="evenodd" clip-rule="evenodd" fill="url(#SVGID_15_)" d="M80.05-38.1c3.9-1.767,7.85-3.25,11.85-4.45
						c23.934-5.034,47.317-3.25,70.15,5.35c22.934,6.434,37.367,20.517,43.3,42.25c2.033,7.4,2.733,14.983,2.1,22.75
						c-0.8,10.133-3.133,19.867-7,29.2c-3.667,8.633-8.75,16.633-15.25,24c-9.8,11.033-21.4,19.75-34.8,26.15
						c-9.566,4.567-19.15,9.067-28.75,13.5c-18.7,8.567-38.35,12.4-58.95,11.5c-22.233-0.967-41.534-8.683-57.9-23.15
						c-16.9-14.9-22.383-33.35-16.45-55.35C-5.883,32.317,6.4,15.6,25.2,3.5c9.6-6.133,18.466-13.233,26.6-21.3
						C60.233-26.567,69.65-33.333,80.05-38.1z"/>
				</g>
				<g>
					<path fill-rule="evenodd" clip-rule="evenodd" fill="#B8EBF0" d="M91.9,60.8c-14.267-14.267-15.033-28.85-2.3-43.75
						c18.033-17.233,38-21.966,59.9-14.2c10.667,3.633,17.35,11.066,20.05,22.3c4.633,19.267-1.867,33.833-19.5,43.7
						C128.65,80.817,109.267,78.133,91.9,60.8z M91.7,18.2c-11.967,14.033-11.233,27.783,2.2,41.25
						c16.3,16.3,34.533,18.833,54.7,7.6c16.667-9.333,22.783-23.083,18.35-41.25c-2.5-10.533-8.767-17.533-18.8-21
						C127.483-2.5,108.667,1.967,91.7,18.2z"/>
					<linearGradient id="SVGID_16_" gradientUnits="userSpaceOnUse" x1="112.2856" y1="76.7144" x2="140.0175" y2="-2.4082">
						<stop  offset="0" style="stop-color:#6F7CEC"/>
						<stop  offset="1" style="stop-color:#9BAAF3"/>
					</linearGradient>
					<path fill-rule="evenodd" clip-rule="evenodd" fill="url(#SVGID_16_)" d="M91.7,18.2c16.966-16.233,35.783-20.7,56.45-13.4
						c10.033,3.467,16.3,10.467,18.8,21c4.433,18.167-1.684,31.917-18.35,41.25c-20.167,11.233-38.4,8.7-54.7-7.6
						C80.467,45.983,79.733,32.233,91.7,18.2z"/>
					<linearGradient id="SVGID_17_" gradientUnits="userSpaceOnUse" x1="112.1475" y1="82.1768" x2="139.9198" y2="-8.0241">
						<stop  offset="0" style="stop-color:#6F7CEC"/>
						<stop  offset="1" style="stop-color:#9BAAF3"/>
					</linearGradient>
					<path fill-rule="evenodd" clip-rule="evenodd" fill="url(#SVGID_17_)" d="M89.75,62.25c-15.1-15.167-15.9-30.633-2.4-46.4
						c19.133-18.267,40.3-23.3,63.5-15.1c11.267,3.9,18.316,11.767,21.15,23.6c4.967,20.433-1.9,35.9-20.6,46.4
						C128.667,83.383,108.117,80.55,89.75,62.25z M91.9,60.8c17.367,17.333,36.75,20.017,58.15,8.05
						c17.633-9.867,24.133-24.434,19.5-43.7c-2.7-11.233-9.383-18.667-20.05-22.3c-21.9-7.767-41.867-3.033-59.9,14.2
						C76.867,31.95,77.633,46.533,91.9,60.8z"/>
				</g>
			</g>
			<g>
				<g>
					<radialGradient id="SVGID_18_" cx="-87.2002" cy="277.1504" r="184.8877" gradientUnits="userSpaceOnUse">
						<stop  offset="0.0078" style="stop-color:#A6FBAC"/>
						<stop  offset="0.7255" style="stop-color:#B8EBF0"/>
					</radialGradient>
					<path fill-rule="evenodd" clip-rule="evenodd" fill="url(#SVGID_18_)" d="M24.75,133.25c17.433,15.267,22.95,34.367,16.55,57.3
						c-5.367,19.233-9.483,38.75-12.35,58.55c-4.5,30.9-18.184,55.85-41.05,74.85c-26.833,22.399-57.783,32.934-92.85,31.6
						c-40.167-1.366-62.667-22.184-67.5-62.45c-4.3-35.8,3.3-69,22.8-99.6c18.933-29.8,44.433-52,76.5-66.6
						C-38.75,111.233-6.117,113.35,24.75,133.25z"/>
					<path fill-rule="evenodd" clip-rule="evenodd" fill="#73D7DF" d="M30.05,129.5c18.5,15.967,24.317,35.983,17.45,60.05
						c-5.767,20.233-10.183,40.75-13.25,61.55C29.35,283.5,14.733,309.7-9.6,329.7c-28.6,23.6-61.517,34.75-98.75,33.45
						c-42.667-1.367-66.517-23.167-71.55-65.4c-4.467-37.533,3.7-72.383,24.5-104.55c20.167-31.3,47.316-54.65,81.45-70.05
						C-37.317,106.583-2.65,108.7,30.05,129.5z M24.75,133.25c-30.867-19.9-63.5-22.017-97.9-6.35
						c-32.067,14.6-57.567,36.8-76.5,66.6c-19.5,30.6-27.1,63.8-22.8,99.6c4.833,40.267,27.333,61.084,67.5,62.45
						c35.067,1.334,66.017-9.2,92.85-31.6c22.867-19,36.55-43.95,41.05-74.85c2.867-19.8,6.983-39.317,12.35-58.55
						C47.7,167.617,42.183,148.517,24.75,133.25z"/>
				</g>
				<g>
					<path fill-rule="evenodd" clip-rule="evenodd" fill="#B8EBF0" d="M-48.9,270.15c-16.2,23.366-37.733,30.466-64.6,21.3
						c-22.167-7.566-30.417-22.367-24.75-44.4c9.967-27.133,28.333-42.25,55.1-45.35c12.967-1.633,23.7,2.683,32.2,12.95
						C-36.217,232.317-35.533,250.816-48.9,270.15z M-51.3,268.9c12.566-18.167,11.917-35.583-1.95-52.25
						c-8.033-9.667-18.133-13.733-30.3-12.2c-25.233,2.9-42.534,17.15-51.9,42.75c-5.333,20.733,2.434,34.666,23.3,41.8
						C-86.85,297.634-66.567,290.934-51.3,268.9z"/>
					<linearGradient id="SVGID_19_" gradientUnits="userSpaceOnUse" x1="-84.1841" y1="297.5264" x2="-95.7094" y2="201.0264">
						<stop  offset="0" style="stop-color:#6F7CEC"/>
						<stop  offset="1" style="stop-color:#9BAAF3"/>
					</linearGradient>
					<path fill-rule="evenodd" clip-rule="evenodd" fill="url(#SVGID_19_)" d="M-51.3,268.9c-15.267,22.033-35.55,28.733-60.85,20.1
						c-20.867-7.134-28.633-21.066-23.3-41.8c9.367-25.6,26.667-39.85,51.9-42.75c12.167-1.534,22.267,2.533,30.3,12.2
						C-39.383,233.317-38.733,250.733-51.3,268.9z"/>
					<linearGradient id="SVGID_20_" gradientUnits="userSpaceOnUse" x1="-81.5132" y1="303.3076" x2="-98.6776" y2="195.2599">
						<stop  offset="0" style="stop-color:#6F7CEC"/>
						<stop  offset="1" style="stop-color:#9BAAF3"/>
					</linearGradient>
					<path fill-rule="evenodd" clip-rule="evenodd" fill="url(#SVGID_20_)" d="M-46.55,271.4C-63.717,296.167-86.533,303.7-115,294
						c-23.433-8.066-32.167-23.75-26.2-47.05c10.567-28.767,30.017-44.8,58.35-48.1c13.733-1.733,25.1,2.85,34.1,13.75
						C-33.15,231.333-32.417,250.934-46.55,271.4z M-48.9,270.15c13.367-19.334,12.683-37.833-2.05-55.5
						c-8.5-10.267-19.233-14.583-32.2-12.95c-26.767,3.1-45.133,18.216-55.1,45.35c-5.667,22.033,2.583,36.834,24.75,44.4
						C-86.633,300.616-65.1,293.517-48.9,270.15z"/>
				</g>
			</g>
			<g>
				<g>
					<radialGradient id="SVGID_21_" cx="-17.5498" cy="461.4502" r="164.0748" gradientUnits="userSpaceOnUse">
						<stop  offset="0.0078" style="stop-color:#A6FBAC"/>
						<stop  offset="0.7255" style="stop-color:#B8EBF0"/>
					</radialGradient>
					<path fill-rule="evenodd" clip-rule="evenodd" fill="url(#SVGID_21_)" d="M83.45,335.1c15.3,13.767,20,30.767,14.1,51
						c-5.033,17.034-8.933,34.317-11.7,51.851C81.45,465.35,69,487.333,48.5,503.9c-24.1,19.533-51.7,28.517-82.8,26.949
						c-35.567-1.699-55.25-20.466-59.05-56.3c-3.4-31.8,3.733-61.166,21.4-88.1c17.133-26.2,40.017-45.566,68.65-58.101
						C27.4,314.85,56.317,317.1,83.45,335.1z"/>
					<path fill-rule="evenodd" clip-rule="evenodd" fill="#73D7DF" d="M88.25,331.85c16.2,14.4,21.117,32.233,14.75,53.5
						c-5.333,17.9-9.5,36.051-12.5,54.45c-4.733,28.733-18.017,51.8-39.85,69.2c-25.667,20.6-55.017,30.1-88.05,28.5
						c-37.833-1.7-58.733-21.316-62.7-58.85c-3.5-33.367,4.167-64.2,23-92.5c18.333-27.534,42.7-47.934,73.1-61.2
						C28.733,310.684,59.483,312.983,88.25,331.85z M83.45,335.1c-27.133-18-56.05-20.25-86.75-6.75
						c-28.633,12.534-51.517,31.9-68.65,58.101c-17.667,26.934-24.8,56.3-21.4,88.1c3.8,35.834,23.483,54.601,59.05,56.3
						c31.1,1.567,58.7-7.416,82.8-26.949c20.5-16.567,32.95-38.551,37.35-65.95c2.767-17.533,6.667-34.816,11.7-51.851
						C103.45,365.866,98.75,348.866,83.45,335.1z"/>
				</g>
				<g>
					<path fill-rule="evenodd" clip-rule="evenodd" fill="#B8EBF0" d="M16.5,455.7c-14.633,20.533-33.833,26.566-57.6,18.1
						c-19.533-6.967-26.667-20.2-21.4-39.7c9.2-23.933,25.683-37.116,49.45-39.55c11.5-1.3,20.983,2.667,28.45,11.9
						C28.2,422.283,28.567,438.7,16.5,455.7z M14.35,454.6c11.4-16,11.033-31.466-1.1-46.399c-6.967-8.7-15.867-12.434-26.7-11.2
						c-22.4,2.267-37.933,14.7-46.6,37.3c-4.967,18.334,1.75,30.8,20.15,37.4C-17.5,479.634,0.583,473.934,14.35,454.6z"/>
					<linearGradient id="SVGID_22_" gradientUnits="userSpaceOnUse" x1="-15.1523" y1="479.625" x2="-24.2118" y2="393.851">
						<stop  offset="0" style="stop-color:#6F7CEC"/>
						<stop  offset="1" style="stop-color:#9BAAF3"/>
					</linearGradient>
					<path fill-rule="evenodd" clip-rule="evenodd" fill="url(#SVGID_22_)" d="M14.35,454.6C0.583,473.934-17.5,479.634-39.9,471.7
						c-18.4-6.601-25.117-19.066-20.15-37.4c8.667-22.6,24.2-35.033,46.6-37.3c10.833-1.233,19.733,2.5,26.7,11.2
						C25.383,423.134,25.75,438.6,14.35,454.6z"/>
					<linearGradient id="SVGID_23_" gradientUnits="userSpaceOnUse" x1="-12.835" y1="484.7793" x2="-26.7608" y2="388.7044">
						<stop  offset="0" style="stop-color:#6F7CEC"/>
						<stop  offset="1" style="stop-color:#9BAAF3"/>
					</linearGradient>
					<path fill-rule="evenodd" clip-rule="evenodd" fill="url(#SVGID_23_)" d="M18.6,456.85
						c-15.567,21.733-35.917,28.134-61.05,19.2c-20.7-7.434-28.267-21.467-22.7-42.1c9.733-25.334,27.2-39.316,52.4-41.95
						c12.167-1.333,22.2,2.884,30.1,12.65C30.95,421.45,31.367,438.85,18.6,456.85z M16.5,455.7c12.067-17,11.7-33.417-1.1-49.25
						c-7.467-9.233-16.95-13.2-28.45-11.9c-23.767,2.434-40.25,15.617-49.45,39.55c-5.267,19.5,1.867,32.733,21.4,39.7
						C-17.333,482.267,1.867,476.233,16.5,455.7z"/>
				</g>
			</g>
			<g>
				<g>
					<radialGradient id="SVGID_24_" cx="532.25" cy="90.5498" r="149.72" gradientUnits="userSpaceOnUse">
						<stop  offset="0.0078" style="stop-color:#A6FBAC"/>
						<stop  offset="0.7255" style="stop-color:#B8EBF0"/>
					</radialGradient>
					<path fill-rule="evenodd" clip-rule="evenodd" fill="url(#SVGID_24_)" d="M648.85,0.15c10.634,15.434,11.15,31.5,1.551,48.2
						c-8.067,14.033-15.233,28.55-21.5,43.55c-9.7,23.3-25.417,40.117-47.15,50.45c-25.6,12.2-52.017,14.25-79.25,6.15
						c-31.2-9.1-44.667-29.95-40.4-62.55c3.834-28.9,16.467-53.417,37.9-73.55c20.8-19.566,45.25-31.85,73.35-36.85
						C603.483-29.85,628.65-21.65,648.85,0.15z"/>
					<path fill-rule="evenodd" clip-rule="evenodd" fill="#73D7DF" d="M573.45-27.6c32.066-5.667,58.85,2.95,80.35,25.85
						c11.3,16.233,11.851,33.1,1.65,50.6C646.884,63.583,639.3,78.8,632.7,94.5c-10.334,24.433-27.066,42.05-50.2,52.85
						c-27.134,12.767-55.2,14.917-84.2,6.45c-33.2-9.633-47.533-31.533-43-65.7c4.066-30.333,17.467-56.033,40.2-77.1
						C517.6-9.5,543.583-22.367,573.45-27.6z M648.85,0.15c-20.199-21.8-45.366-30-75.5-24.6c-28.1,5-52.55,17.284-73.35,36.85
						c-21.434,20.133-34.066,44.65-37.9,73.55c-4.267,32.6,9.2,53.45,40.4,62.55c27.233,8.1,53.65,6.05,79.25-6.15
						c21.733-10.333,37.45-27.15,47.15-50.45c6.267-15,13.433-29.517,21.5-43.55C660,31.65,659.483,15.583,648.85,0.15z"/>
				</g>
				<g>
					<path fill-rule="evenodd" clip-rule="evenodd" fill="#B8EBF0" d="M498.15,56.7c13.267-19.3,30.699-27.483,52.3-24.55
						c10.5,1.3,18.066,6.85,22.7,16.65c8,16.833,4.833,31.483-9.5,43.95c-17.367,15.067-35.7,16.317-55,3.75
						C492.85,86.133,489.35,72.867,498.15,56.7z M500.3,57.4c-8.3,15.2-5,27.684,9.9,37.45c18.166,11.867,35.434,10.683,51.8-3.55
						c13.5-11.767,16.483-25.55,8.95-41.35c-4.334-9.233-11.45-14.467-21.351-15.7C529.233,31.483,512.8,39.2,500.3,57.4z"/>
					<linearGradient id="SVGID_25_" gradientUnits="userSpaceOnUse" x1="530.4443" y1="107.2334" x2="540.7625" y2="29.2075">
						<stop  offset="0" style="stop-color:#6F7CEC"/>
						<stop  offset="1" style="stop-color:#9BAAF3"/>
					</linearGradient>
					<path fill-rule="evenodd" clip-rule="evenodd" fill="url(#SVGID_25_)" d="M500.3,57.4c12.5-18.2,28.934-25.917,49.3-23.15
						c9.9,1.233,17.017,6.467,21.351,15.7c7.533,15.8,4.55,29.583-8.95,41.35c-16.366,14.233-33.634,15.417-51.8,3.55
						C495.3,85.083,492,72.6,500.3,57.4z"/>
					<linearGradient id="SVGID_26_" gradientUnits="userSpaceOnUse" x1="531.4062" y1="112.2598" x2="539.6027" y2="24.0594">
						<stop  offset="0" style="stop-color:#6F7CEC"/>
						<stop  offset="1" style="stop-color:#9BAAF3"/>
					</linearGradient>
					<path fill-rule="evenodd" clip-rule="evenodd" fill="url(#SVGID_26_)" d="M495.9,56.05C509.934,35.617,528.4,26.933,551.3,30
						c11.134,1.4,19.134,7.283,24,17.65c8.5,17.833,5.15,33.35-10.05,46.55c-18.467,15.966-37.884,17.3-58.25,4
						C490.2,87.2,486.5,73.15,495.9,56.05z M498.15,56.7c-8.801,16.167-5.301,29.433,10.5,39.8c19.3,12.567,37.633,11.317,55-3.75
						c14.333-12.467,17.5-27.117,9.5-43.95c-4.634-9.8-12.2-15.35-22.7-16.65C528.85,29.217,511.417,37.4,498.15,56.7z"/>
				</g>
			</g>
			<g>
				<g>
					<radialGradient id="SVGID_27_" cx="382.8496" cy="458.5498" r="164.9195" gradientUnits="userSpaceOnUse">
						<stop  offset="0.0078" style="stop-color:#A6FBAC"/>
						<stop  offset="0.7255" style="stop-color:#B8EBF0"/>
					</radialGradient>
					<path fill-rule="evenodd" clip-rule="evenodd" fill="url(#SVGID_27_)" d="M356.55,369.25
						c25.101-19.066,53.316-29.717,84.65-31.95c33.633-2.434,60.267,9.467,79.899,35.7c9.834,18.167,8.534,35.833-3.899,53
						c-10.467,14.434-19.983,29.5-28.55,45.2C475.283,495.634,456.1,512.233,431.1,521c-29.399,10.4-58.566,9.616-87.5-2.35
						c-33.1-13.634-45.434-38.051-37-73.25C314.133,414.167,330.783,388.783,356.55,369.25z"/>
					<path fill-rule="evenodd" clip-rule="evenodd" fill="#73D7DF" d="M351.85,367.2c26.6-19.934,56.534-31.033,89.8-33.3
						c35.8-2.5,64.166,10.033,85.1,37.6c10.5,19.1,9.134,37.65-4.1,55.65c-11.067,15.133-21.134,30.916-30.2,47.35
						c-14.134,25.6-34.483,42.967-61.05,52.1c-31.233,10.834-62.233,9.934-93-2.699c-35.267-14.367-48.433-39.983-39.5-76.851
						C306.833,414.283,324.483,387.667,351.85,367.2z M356.55,369.25c-25.767,19.533-42.417,44.917-49.95,76.15
						c-8.434,35.199,3.9,59.616,37,73.25c28.933,11.966,58.1,12.75,87.5,2.35c25-8.767,44.184-25.366,57.551-49.8
						c8.566-15.7,18.083-30.767,28.55-45.2c12.434-17.167,13.733-34.833,3.899-53c-19.633-26.233-46.267-38.134-79.899-35.7
						C409.866,339.533,381.65,350.184,356.55,369.25z"/>
				</g>
				<g>
					<path fill-rule="evenodd" clip-rule="evenodd" fill="#B8EBF0" d="M432.55,417.6c6.8,19.301,1.617,34.967-15.55,47
						c-20.767,14.534-40.967,13.784-60.6-2.25c-16.133-13.199-18.45-28.133-6.95-44.8c16.767-19.6,36.833-26.533,60.2-20.8
						C420.983,399.384,428.616,406.333,432.55,417.6z M429.95,418.55c-3.667-10.6-10.834-17.149-21.5-19.649
						c-22-5.4-40.9,1.133-56.7,19.6c-10.867,15.733-8.7,29.816,6.5,42.25c18.5,15.033,37.533,15.733,57.1,2.1
						C431.517,451.517,436.384,436.75,429.95,418.55z"/>
					<linearGradient id="SVGID_28_" gradientUnits="userSpaceOnUse" x1="378.9824" y1="476.5723" x2="399.3151" y2="392.2991">
						<stop  offset="0" style="stop-color:#6F7CEC"/>
						<stop  offset="1" style="stop-color:#9BAAF3"/>
					</linearGradient>
					<path fill-rule="evenodd" clip-rule="evenodd" fill="url(#SVGID_28_)" d="M429.95,418.55c6.434,18.2,1.566,32.967-14.601,44.3
						c-19.566,13.634-38.6,12.934-57.1-2.1c-15.2-12.434-17.367-26.517-6.5-42.25c15.8-18.467,34.7-25,56.7-19.6
						C419.116,401.4,426.283,407.95,429.95,418.55z"/>
					<linearGradient id="SVGID_29_" gradientUnits="userSpaceOnUse" x1="379.4414" y1="482.2549" x2="398.6346" y2="386.5785">
						<stop  offset="0" style="stop-color:#6F7CEC"/>
						<stop  offset="1" style="stop-color:#9BAAF3"/>
					</linearGradient>
					<path fill-rule="evenodd" clip-rule="evenodd" fill="url(#SVGID_29_)" d="M432.55,417.6
						c-3.934-11.267-11.566-18.216-22.899-20.85c-23.367-5.733-43.434,1.2-60.2,20.8c-11.5,16.667-9.184,31.601,6.95,44.8
						c19.633,16.034,39.833,16.784,60.6,2.25C434.167,452.566,439.35,436.9,432.55,417.6z M418.6,466.4
						c-22.033,15.333-43.449,14.533-64.25-2.4c-17.1-13.967-19.55-29.8-7.35-47.5c17.8-20.733,39.066-28.083,63.8-22.05
						c11.967,2.833,20.033,10.2,24.2,22.1C442.267,437.05,436.8,453.667,418.6,466.4z"/>
				</g>
			</g>
			<g>
				<g>
					
						<radialGradient id="SVGID_30_" cx="363.6338" cy="-528.0796" r="159.0293" gradientTransform="matrix(0.1573 0.9876 0.9876 -0.1573 1043.0138 -166.1152)" gradientUnits="userSpaceOnUse">
						<stop  offset="0.0078" style="stop-color:#A6FBAC"/>
						<stop  offset="0.7255" style="stop-color:#B8EBF0"/>
					</radialGradient>
					<path fill-rule="evenodd" clip-rule="evenodd" fill="url(#SVGID_30_)" d="M682.3,228.95C681,250.217,674.9,270,664,288.3
						c-5.533,9.367-11.184,18.717-16.95,28.05c-8.033,13.101-18.25,24.084-30.649,32.95c-8.267,5.9-17.017,10.267-26.25,13.101
						c-10.034,2.966-20.317,4.3-30.851,4c-8.033-0.167-15.75-1.7-23.149-4.601c-21.667-8.467-34.567-24.833-38.7-49.1
						c-6.367-24.334-5.65-48.55,2.149-72.65c1.601-4,3.534-7.9,5.801-11.7c6-10.167,13.983-19.1,23.949-26.8
						c9.167-7.466,17.417-15.816,24.75-25.05c14.467-18,32.967-28.817,55.5-32.45c23.267-3.733,41.65,3.9,55.15,22.9
						C677.85,185.317,683.7,205.983,682.3,228.95z"/>
					<path fill-rule="evenodd" clip-rule="evenodd" fill="#73D7DF" d="M688.3,226.95c-1.366,22.667-7.816,43.75-19.35,63.25
						c-5.9,9.967-11.917,19.934-18.05,29.899c-8.5,13.967-19.334,25.667-32.5,35.101c-8.801,6.3-18.101,10.95-27.9,13.95
						c-10.667,3.166-21.583,4.6-32.75,4.3c-8.533-0.233-16.75-1.884-24.65-4.95c-23.066-9-36.783-26.45-41.149-52.35
						c-6.767-26-6.017-51.834,2.25-77.5c1.7-4.3,3.75-8.483,6.149-12.55c6.4-10.833,14.867-20.35,25.4-28.55
						c9.767-7.966,18.566-16.85,26.4-26.65c15.333-19.233,34.966-30.767,58.899-34.6c24.667-3.966,44.217,4.184,58.65,24.45
						C683.566,180.35,689.767,202.417,688.3,226.95z M682.3,228.95c1.4-22.967-4.45-43.633-17.55-62
						c-13.5-19-31.884-26.633-55.15-22.9c-22.533,3.633-41.033,14.45-55.5,32.45c-7.333,9.233-15.583,17.583-24.75,25.05
						c-9.966,7.7-17.949,16.633-23.949,26.8c-2.267,3.8-4.2,7.7-5.801,11.7c-7.8,24.101-8.517,48.316-2.149,72.65
						c4.133,24.267,17.033,40.633,38.7,49.1c7.399,2.9,15.116,4.434,23.149,4.601c10.533,0.3,20.816-1.034,30.851-4
						c9.233-2.834,17.983-7.2,26.25-13.101c12.399-8.866,22.616-19.85,30.649-32.95c5.767-9.333,11.417-18.683,16.95-28.05
						C674.9,270,681,250.217,682.3,228.95z"/>
				</g>
				<g>
					
						<linearGradient id="SVGID_31_" gradientUnits="userSpaceOnUse" x1="-540.2305" y1="-409.2266" x2="-453.5533" y2="-409.2266" gradientTransform="matrix(-0.9732 0.2302 -0.2302 -0.9732 0 4.882812e-04)">
						<stop  offset="0" style="stop-color:#6F7CEC"/>
						<stop  offset="1" style="stop-color:#9BAAF3"/>
					</linearGradient>
					<path fill-rule="evenodd" clip-rule="evenodd" fill="url(#SVGID_31_)" d="M561.65,324.6
						c-10.567-3.733-17.084-10.949-19.551-21.649c-5.267-21.967,1.351-40.8,19.851-56.5c15.767-10.833,29.833-8.617,42.2,6.649
						c15,18.567,15.616,37.601,1.85,57.101C594.634,326.3,579.85,331.1,561.65,324.6z"/>
					<path fill-rule="evenodd" clip-rule="evenodd" fill="#B8EBF0" d="M560.7,327.2c-11.233-4-18.15-11.667-20.75-23
						c-5.601-23.367,1.434-43.384,21.1-60.05c16.7-11.5,31.617-9.133,44.75,7.1c15.934,19.7,16.584,39.9,1.95,60.6
						C595.684,328.95,580,334.066,560.7,327.2z M561.65,324.6c18.199,6.5,32.983,1.7,44.35-14.399
						c13.767-19.5,13.15-38.533-1.85-57.101c-12.367-15.266-26.434-17.483-42.2-6.649c-18.5,15.7-25.117,34.533-19.851,56.5
						C544.566,313.65,551.083,320.866,561.65,324.6z"/>
					
						<linearGradient id="SVGID_32_" gradientUnits="userSpaceOnUse" x1="-561.123" y1="-389.5566" x2="-463.6035" y2="-389.5566" gradientTransform="matrix(-0.9813 0.1923 -0.1923 -0.9813 -9.765625e-04 0)">
						<stop  offset="0" style="stop-color:#6F7CEC"/>
						<stop  offset="1" style="stop-color:#9BAAF3"/>
					</linearGradient>
					<path fill-rule="evenodd" clip-rule="evenodd" fill="url(#SVGID_32_)" d="M559.7,329.65
						c-11.934-4.233-19.283-12.351-22.05-24.351c-5.9-24.733,1.566-45.95,22.399-63.65c17.7-12.133,33.517-9.617,47.45,7.55
						c16.8,20.866,17.483,42.283,2.05,64.25C596.75,331.583,580.134,336.983,559.7,329.65z M560.7,327.2
						c19.3,6.866,34.983,1.75,47.05-15.351c14.634-20.699,13.983-40.899-1.95-60.6c-13.133-16.233-28.05-18.6-44.75-7.1
						c-19.666,16.667-26.7,36.683-21.1,60.05C542.55,315.533,549.467,323.2,560.7,327.2z"/>
				</g>
			</g>
			<g>
				<g>
					<path fill-rule="evenodd" clip-rule="evenodd" fill="#73D7DF" d="M690.35-13.8c19.067-13.1,39.917-19.534,62.551-19.3
						c21.966-1.9,39.166,6.4,51.6,24.9c4.2,6.333,7.333,13.284,9.4,20.85c2.699,9.9,3.916,19.967,3.649,30.2
						c-0.267,9.4-1.983,18.733-5.149,28c-4.834,13.867-12,26.15-21.5,36.85c-6.733,7.667-13.517,15.25-20.351,22.75
						c-13.3,14.7-29.017,25.183-47.149,31.45c-19.634,6.8-38.934,6.2-57.9-1.8c-19.634-8.3-30.55-23.9-32.75-46.8
						c-2.1-22.167,2.967-42.25,15.2-60.25c6.267-9.2,11.583-19.033,15.95-29.5c4.366-11.233,10.233-20.9,17.6-29
						C684.3-8.517,687.25-11.3,690.35-13.8z M692.7-9.35c-2.9,2.367-5.65,5-8.25,7.9c-6.934,7.633-12.45,16.733-16.55,27.3
						c-4.067,9.867-9.034,19.1-14.9,27.7c-11.467,16.934-16.217,35.85-14.25,56.75c2.066,21.567,12.3,36.25,30.7,44.05
						c17.8,7.533,35.899,8.117,54.3,1.75c16.967-5.934,31.7-15.8,44.2-29.6c6.399-7.067,12.767-14.217,19.1-21.45
						c8.867-10.066,15.55-21.617,20.05-34.65c3-8.7,4.617-17.483,4.851-26.35c0.233-9.633-0.917-19.1-3.45-28.4
						C806.566,8.55,803.634,2,799.7-4c-11.634-17.433-27.767-25.25-48.4-23.45C730.1-27.683,710.566-21.65,692.7-9.35z"/>
					
						<radialGradient id="SVGID_33_" cx="739.2998" cy="53.1499" r="133.771" gradientTransform="matrix(0.9954 -0.0963 0.1053 1.0884 -2.1613 66.4768)" gradientUnits="userSpaceOnUse">
						<stop  offset="0.0078" style="stop-color:#A6FBAC"/>
						<stop  offset="0.7255" style="stop-color:#B8EBF0"/>
					</radialGradient>
					<path fill-rule="evenodd" clip-rule="evenodd" fill="url(#SVGID_33_)" d="M692.7-9.35c17.866-12.3,37.399-18.333,58.6-18.1
						c20.634-1.8,36.767,6.017,48.4,23.45c3.934,6,6.866,12.55,8.8,19.65c2.533,9.3,3.684,18.767,3.45,28.4
						c-0.233,8.867-1.851,17.65-4.851,26.35c-4.5,13.033-11.183,24.583-20.05,34.65c-6.333,7.233-12.7,14.383-19.1,21.45
						c-12.5,13.8-27.233,23.667-44.2,29.6c-18.4,6.367-36.5,5.783-54.3-1.75c-18.4-7.8-28.634-22.483-30.7-44.05
						c-1.967-20.9,2.783-39.816,14.25-56.75c5.866-8.6,10.833-17.833,14.9-27.7c4.1-10.567,9.616-19.667,16.55-27.3
						C687.05-4.35,689.8-6.983,692.7-9.35z"/>
				</g>
				<g>
					<path fill-rule="evenodd" clip-rule="evenodd" fill="#B8EBF0" d="M776.95,25.7c9.833,15.667,9.116,30.783-2.15,45.35
						c-13.666,17.667-30.233,21.617-49.7,11.85c-16.066-8.1-21.283-20.883-15.649-38.35c9.267-21.233,24.017-31.966,44.25-32.2
						C763.5,12.117,771.25,16.567,776.95,25.7z M773.1,69.9c10.567-13.767,11.217-28.033,1.95-42.8
						c-5.366-8.6-12.649-12.783-21.85-12.55c-19.066,0.233-32.95,10.35-41.65,30.35c-5.333,16.467-0.45,28.5,14.65,36.1
						C744.6,90.233,760.233,86.533,773.1,69.9z"/>
					
						<linearGradient id="SVGID_34_" gradientUnits="userSpaceOnUse" x1="-101.9902" y1="743.71" x2="-22.3077" y2="743.71" gradientTransform="matrix(-0.0286 -0.9996 1 -0.0155 0 0)">
						<stop  offset="0" style="stop-color:#6F7CEC"/>
						<stop  offset="1" style="stop-color:#9BAAF3"/>
					</linearGradient>
					<path fill-rule="evenodd" clip-rule="evenodd" fill="url(#SVGID_34_)" d="M773.1,69.9C760.233,86.533,744.6,90.233,726.2,81
						c-15.101-7.6-19.983-19.633-14.65-36.1c8.7-20,22.584-30.117,41.65-30.35c9.2-0.233,16.483,3.95,21.85,12.55
						C784.316,41.867,783.667,56.133,773.1,69.9z"/>
					<linearGradient id="SVGID_35_" gradientUnits="userSpaceOnUse" x1="748.0801" y1="95.3677" x2="742.6389" y2="5.825">
						<stop  offset="0" style="stop-color:#6F7CEC"/>
						<stop  offset="1" style="stop-color:#9BAAF3"/>
					</linearGradient>
					<path fill-rule="evenodd" clip-rule="evenodd" fill="url(#SVGID_35_)" d="M778.7,24.2c10.434,16.566,9.684,32.6-2.25,48.1
						C762.017,91,744.467,95.167,723.8,84.8c-17-8.533-22.517-22.066-16.55-40.6c9.8-22.5,25.434-33.9,46.9-34.2
						C764.483,9.833,772.667,14.567,778.7,24.2z M776.95,25.7c-5.7-9.133-13.45-13.583-23.25-13.35
						c-20.233,0.233-34.983,10.967-44.25,32.2c-5.634,17.467-0.417,30.25,15.649,38.35c19.467,9.767,36.034,5.817,49.7-11.85
						C786.066,56.483,786.783,41.367,776.95,25.7z"/>
				</g>
			</g>
			<g>
				<g>
					<radialGradient id="SVGID_36_" cx="593.0996" cy="486.0498" r="185.3074" gradientUnits="userSpaceOnUse">
						<stop  offset="0.0078" style="stop-color:#A6FBAC"/>
						<stop  offset="0.7255" style="stop-color:#B8EBF0"/>
					</radialGradient>
					<path fill-rule="evenodd" clip-rule="evenodd" fill="url(#SVGID_36_)" d="M753.55,398.8c9.9,20.967,7.334,40.717-7.7,59.25
						c-12.666,15.5-24.283,31.783-34.85,48.851c-16.566,26.566-39.15,44-67.75,52.3c-33.634,9.767-66.3,7.017-98-8.25
						c-36.3-17.367-48.583-45.5-36.85-84.4c10.399-34.6,30.683-62.05,60.85-82.35c29.3-19.8,61.616-29.983,96.95-30.55
						C704.1,353.05,733.217,368.1,753.55,398.8z"/>
					<path fill-rule="evenodd" clip-rule="evenodd" fill="#73D7DF" d="M760,397.5c10.533,22.066,7.85,42.783-8.05,62.15
						c-13.4,16.267-25.717,33.333-36.95,51.199c-17.467,27.801-41.384,46-71.75,54.601c-35.733,10.2-70.434,7.233-104.1-8.9
						c-38.667-18.333-51.851-47.916-39.551-88.75c11-36.267,32.483-65.017,64.45-86.25c31.134-20.633,65.417-31.184,102.851-31.649
						C707.233,349.366,738.267,365.233,760,397.5z M753.55,398.8c-20.333-30.7-49.45-45.75-87.35-45.149
						c-35.334,0.566-67.65,10.75-96.95,30.55c-30.167,20.3-50.45,47.75-60.85,82.35c-11.733,38.9,0.55,67.033,36.85,84.4
						c31.7,15.267,64.366,18.017,98,8.25c28.6-8.3,51.184-25.733,67.75-52.3c10.566-17.067,22.184-33.351,34.85-48.851
						C760.884,439.517,763.45,419.767,753.55,398.8z"/>
				</g>
				<g>
					<path fill-rule="evenodd" clip-rule="evenodd" fill="#B8EBF0" d="M558.25,437.95c20.033-20.967,42.95-27.483,68.75-19.55
						c12.566,3.633,20.7,11.899,24.4,24.8c6.399,22.133-0.384,39.399-20.351,51.8c-24.267,14.967-46.899,12.833-67.899-6.4
						C545.85,472.8,544.217,455.917,558.25,437.95z M560.75,439.15c-13.2,16.966-11.667,32.899,4.6,47.8
						c19.801,18.066,41.117,20.05,63.95,5.95c18.834-11.7,25.217-27.95,19.15-48.75c-3.467-12.167-11.101-19.983-22.9-23.45
						C601.217,413.3,579.616,419.45,560.75,439.15z"/>
					<linearGradient id="SVGID_37_" gradientUnits="userSpaceOnUse" x1="587.6455" y1="505.9688" x2="615.7452" y2="412.7187">
						<stop  offset="0" style="stop-color:#6F7CEC"/>
						<stop  offset="1" style="stop-color:#9BAAF3"/>
					</linearGradient>
					<path fill-rule="evenodd" clip-rule="evenodd" fill="url(#SVGID_37_)" d="M560.75,439.15c18.866-19.7,40.467-25.851,64.8-18.45
						c11.8,3.467,19.434,11.283,22.9,23.45c6.066,20.8-0.316,37.05-19.15,48.75c-22.833,14.1-44.149,12.116-63.95-5.95
						C549.083,472.05,547.55,456.116,560.75,439.15z"/>
					<linearGradient id="SVGID_38_" gradientUnits="userSpaceOnUse" x1="587.7734" y1="512.3623" x2="615.3329" y2="406.2648">
						<stop  offset="0" style="stop-color:#6F7CEC"/>
						<stop  offset="1" style="stop-color:#9BAAF3"/>
					</linearGradient>
					<path fill-rule="evenodd" clip-rule="evenodd" fill="url(#SVGID_38_)" d="M555.55,436.6c21.233-22.133,45.533-29.05,72.9-20.75
						c13.3,3.934,21.899,12.717,25.8,26.351c6.833,23.467-0.366,41.75-21.6,54.85c-25.667,15.867-49.634,13.65-71.9-6.649
						C542.45,473.6,540.717,455.667,555.55,436.6z M558.25,437.95c-14.033,17.967-12.4,34.85,4.9,50.649
						c21,19.233,43.633,21.367,67.899,6.4c19.967-12.4,26.75-29.667,20.351-51.8c-3.7-12.9-11.834-21.167-24.4-24.8
						C601.2,410.467,578.283,416.983,558.25,437.95z"/>
				</g>
			</g>
			<g>
				<g>
					<path fill-rule="evenodd" clip-rule="evenodd" fill="#73D7DF" d="M838.75,148.25c7.134,7.133,12.75,15.25,16.85,24.35
						c3.7,8.467,5.801,17.683,6.301,27.65c0.733,14.967-1.717,29.933-7.351,44.9c-4,10.7-8.083,21.333-12.25,31.9
						c-8.133,20.634-20.616,39.017-37.45,55.15c-18.233,17.399-39.283,28.133-63.149,32.2c-24.667,4.166-43.066-3.184-55.2-22.051
						c-11.767-18.233-14.866-38.833-9.3-61.8c2.833-11.7,4.366-23.434,4.6-35.2c-0.1-12.4,2.101-24.333,6.601-35.8
						c1.733-4.3,3.733-8.45,6-12.45c14.966-22.633,34.666-40.45,59.1-53.45c22.9-14.5,44.983-17.233,66.25-8.2
						C826.983,138.517,833.316,142.783,838.75,148.25z M850.1,176.95c-3.866-8.567-9.149-16.217-15.85-22.95
						c-5.1-5.1-11.05-9.117-17.85-12.05c-19.967-8.534-40.7-6-62.2,7.6c-22.934,12.167-41.4,28.867-55.4,50.1
						c-2.1,3.767-3.95,7.684-5.55,11.75c-4.233,10.733-6.283,21.95-6.15,33.65c-0.199,11.033-1.616,22.05-4.25,33.05
						c-5.166,21.567-2.216,40.95,8.851,58.15c11.399,17.7,28.684,24.616,51.85,20.75c22.367-3.733,42.101-13.783,59.2-30.15
						c15.767-15.1,27.45-32.366,35.05-51.8c3.9-9.899,7.7-19.883,11.4-29.95c5.3-14.033,7.583-28.083,6.85-42.15
						C855.583,193.55,853.6,184.883,850.1,176.95z"/>
					
						<radialGradient id="SVGID_39_" cx="775.6504" cy="227.3501" r="164.2102" gradientTransform="matrix(0.8403 -0.5421 0.4702 0.729 16.933 482.0616)" gradientUnits="userSpaceOnUse">
						<stop  offset="0.0078" style="stop-color:#A6FBAC"/>
						<stop  offset="0.7255" style="stop-color:#B8EBF0"/>
					</radialGradient>
					<path fill-rule="evenodd" clip-rule="evenodd" fill="url(#SVGID_39_)" d="M850.1,176.95c3.5,7.933,5.483,16.6,5.95,26
						c0.733,14.066-1.55,28.117-6.85,42.15c-3.7,10.067-7.5,20.05-11.4,29.95c-7.6,19.434-19.283,36.7-35.05,51.8
						c-17.1,16.367-36.833,26.417-59.2,30.15c-23.166,3.866-40.45-3.05-51.85-20.75c-11.066-17.2-14.017-36.583-8.851-58.15
						c2.634-11,4.051-22.017,4.25-33.05c-0.133-11.7,1.917-22.917,6.15-33.65c1.6-4.066,3.45-7.983,5.55-11.75
						c14-21.233,32.467-37.933,55.4-50.1c21.5-13.6,42.233-16.133,62.2-7.6c6.8,2.933,12.75,6.95,17.85,12.05
						C840.95,160.733,846.233,168.383,850.1,176.95z"/>
				</g>
				<g>
					<path fill-rule="evenodd" clip-rule="evenodd" fill="#B8EBF0" d="M804.5,181.3c17.267,8.034,22.95,21.733,17.05,41.1
						c-7.2,23.467-23.383,36.6-48.55,39.4c-20.767,2.267-31.8-5.934-33.1-24.6c0.899-24.067,12.183-42.1,33.85-54.1
						C784.217,177.167,794.467,176.567,804.5,181.3z M803.1,183.6c-9.466-4.4-19.1-3.817-28.899,1.75
						c-20.467,11.3-31.117,28.283-31.95,50.95c1.267,17.601,11.667,25.316,31.2,23.15c23.733-2.601,38.967-14.967,45.7-37.1
						C824.717,204.083,819.366,191.167,803.1,183.6z"/>
					
						<linearGradient id="SVGID_40_" gradientUnits="userSpaceOnUse" x1="-612.7339" y1="586.418" x2="-535.0307" y2="586.418" gradientTransform="matrix(-0.4684 -0.8835 0.8737 -0.4869 2.441406e-04 0)">
						<stop  offset="0" style="stop-color:#6F7CEC"/>
						<stop  offset="1" style="stop-color:#9BAAF3"/>
					</linearGradient>
					<path fill-rule="evenodd" clip-rule="evenodd" fill="url(#SVGID_40_)" d="M803.1,183.6
						c16.267,7.566,21.617,20.483,16.051,38.75c-6.733,22.133-21.967,34.5-45.7,37.1c-19.533,2.166-29.934-5.55-31.2-23.15
						c0.833-22.667,11.483-39.65,31.95-50.95C784,179.783,793.634,179.2,803.1,183.6z"/>
					<linearGradient id="SVGID_41_" gradientUnits="userSpaceOnUse" x1="803.3984" y1="259.0654" x2="758.7085" y2="183.9711">
						<stop  offset="0" style="stop-color:#6F7CEC"/>
						<stop  offset="1" style="stop-color:#9BAAF3"/>
					</linearGradient>
					<path fill-rule="evenodd" clip-rule="evenodd" fill="url(#SVGID_41_)" d="M805.75,178.95c18.366,8.5,24.4,23.017,18.1,43.55
						c-7.6,24.867-24.733,38.783-51.399,41.75c-21.967,2.4-33.667-6.283-35.101-26.05c0.967-25.5,12.934-44.617,35.9-57.35
						C784.316,174.617,795.15,173.983,805.75,178.95z M804.5,181.3c-10.033-4.733-20.283-4.133-30.75,1.8
						c-21.667,12-32.95,30.033-33.85,54.1c1.3,18.666,12.333,26.866,33.1,24.6c25.167-2.8,41.35-15.933,48.55-39.4
						C827.45,203.033,821.767,189.333,804.5,181.3z"/>
				</g>
			</g>
		</g>
	</g>
</g>
</svg>
