<?xml version="1.0" encoding="utf-8"?>
<!-- Generator: Adobe Illustrator 15.0.0, SVG Export Plug-In . SVG Version: 6.00 Build 0)  -->
<!DOCTYPE svg PUBLIC "-//W3C//DTD SVG 1.1//EN" "http://www.w3.org/Graphics/SVG/1.1/DTD/svg11.dtd">
<svg version="1.1" id="Selected_Items" xmlns="http://www.w3.org/2000/svg" xmlns:xlink="http://www.w3.org/1999/xlink" x="0px"
	 y="0px" width="36.2px" height="45.3px" viewBox="0 0 36.2 45.3" enable-background="new 0 0 36.2 45.3" xml:space="preserve">
<g transform="translate(0,45.3) scale(1,-1)">
	<path fill-rule="evenodd" clip-rule="evenodd" fill="#FFFF00" fill-opacity="0.0549" d="M31.85,7.8
		c2.9,4.133,4.35,9.117,4.35,14.95s-1.45,10.817-4.35,14.95c-0.167,0.2-0.317,0.4-0.45,0.6c-2.8,3.867-6.05,6.133-9.75,6.8
		c-0.6,0.133-1.167,0.2-1.7,0.2h-3.7c-0.533,0-1.083-0.05-1.65-0.15c-4-0.767-7.434-3.25-10.3-7.45c-0.133-0.2-0.25-0.383-0.35-0.55
		c-2.633-4-3.95-8.8-3.95-14.4c0-5.8,1.433-10.767,4.3-14.9C8.067,2.35,12.667-0.267,18.1,0c0.033,0,0.066,0,0.1,0
		c5.4-0.2,9.95,2.417,13.65,7.85V7.8z M35.7,22.75c0-5.7-1.417-10.583-4.25-14.65c-3.6-5.267-8.017-7.8-13.25-7.6
		c-0.034,0-0.067,0-0.1,0C12.833,0.233,8.383,2.767,4.75,8.1L4.7,8.15c-2.8,4.033-4.2,8.9-4.2,14.6c0,5.5,1.3,10.2,3.9,14.1
		c0.1,0.2,0.217,0.383,0.35,0.55c2.767,4.1,6.083,6.517,9.95,7.25c0.533,0.1,1.05,0.15,1.55,0.15h3.7c0.533,0,1.066-0.05,1.6-0.15
		c3.6-0.7,6.75-2.917,9.45-6.65c0.133-0.2,0.283-0.4,0.45-0.6C34.283,33.333,35.7,28.45,35.7,22.75z"/>
	<path fill-rule="evenodd" clip-rule="evenodd" fill="#FFFF00" fill-opacity="0.1098" d="M31,8.4h0.05
		C27.55,3.3,23.267,0.833,18.2,1c-0.034,0-0.067,0-0.1,0C13,0.767,8.683,3.233,5.15,8.4L5.1,8.45C2.367,12.383,1,17.15,1,22.75
		c0,5.367,1.267,9.983,3.8,13.85c0.1,0.167,0.217,0.333,0.35,0.5c2.7,4,5.917,6.35,9.65,7.05c0.5,0.1,0.983,0.15,1.45,0.15h3.7
		c0.466,0,0.95-0.05,1.45-0.15c3.567-0.667,6.684-2.883,9.35-6.65c0.067-0.133,0.15-0.25,0.25-0.35c2.8-4,4.2-8.8,4.2-14.4
		S33.8,12.367,31,8.4z M35.7,22.75c0,5.7-1.417,10.583-4.25,14.65c-0.167,0.2-0.317,0.4-0.45,0.6c-2.7,3.733-5.85,5.95-9.45,6.65
		c-0.533,0.1-1.066,0.15-1.6,0.15h-3.7c-0.5,0-1.017-0.05-1.55-0.15c-3.867-0.733-7.184-3.15-9.95-7.25
		c-0.133-0.167-0.25-0.35-0.35-0.55c-2.6-3.9-3.9-8.6-3.9-14.1c0-5.7,1.4-10.567,4.2-14.6L4.75,8.1
		c3.633-5.333,8.083-7.867,13.35-7.6c0.033,0,0.066,0,0.1,0c5.233-0.2,9.65,2.333,13.25,7.6C34.283,12.167,35.7,17.05,35.7,22.75z"
		/>
	<path fill-rule="evenodd" clip-rule="evenodd" fill="#FFFF00" fill-opacity="0.1686" d="M30.6,8.65V8.7
		c-3.367-4.967-7.5-7.367-12.4-7.2c-0.034,0-0.067,0-0.1,0C13.167,1.267,8.983,3.65,5.55,8.65V8.7c-2.7,3.9-4.05,8.583-4.05,14.05
		c0,5.267,1.25,9.783,3.75,13.55c0.1,0.167,0.2,0.35,0.3,0.55c2.633,3.833,5.767,6.1,9.4,6.8c0.433,0.1,0.867,0.15,1.3,0.15h3.7
		c0.433,0,0.883-0.05,1.35-0.15c3.4-0.633,6.367-2.717,8.9-6.25c0.133-0.167,0.267-0.35,0.4-0.55c2.733-3.9,4.1-8.6,4.1-14.1
		S33.333,12.55,30.6,8.65z M31,8.4c2.8,3.967,4.2,8.75,4.2,14.35s-1.4,10.4-4.2,14.4c-0.1,0.1-0.183,0.217-0.25,0.35
		c-2.667,3.767-5.783,5.983-9.35,6.65c-0.5,0.1-0.983,0.15-1.45,0.15h-3.7c-0.467,0-0.95-0.05-1.45-0.15
		c-3.733-0.7-6.95-3.05-9.65-7.05c-0.133-0.167-0.25-0.333-0.35-0.5C2.267,32.733,1,28.117,1,22.75c0-5.6,1.367-10.367,4.1-14.3
		L5.15,8.4C8.683,3.233,13,0.767,18.1,1c0.033,0,0.066,0,0.1,0c5.066-0.167,9.35,2.3,12.85,7.4H31z"/>
	<path fill-rule="evenodd" clip-rule="evenodd" fill="#FFFF00" fill-opacity="0.2235" d="M30.6,8.65c2.733,3.9,4.1,8.6,4.1,14.1
		s-1.367,10.2-4.1,14.1c-0.133,0.2-0.267,0.383-0.4,0.55c-2.534,3.533-5.5,5.617-8.9,6.25c-0.466,0.1-0.917,0.15-1.35,0.15h-3.7
		c-0.433,0-0.867-0.05-1.3-0.15c-3.633-0.7-6.767-2.967-9.4-6.8c-0.1-0.2-0.2-0.383-0.3-0.55c-2.5-3.767-3.75-8.283-3.75-13.55
		c0-5.467,1.35-10.15,4.05-14.05V8.65c3.434-5,7.617-7.383,12.55-7.15c0.033,0,0.066,0,0.1,0c4.9-0.167,9.033,2.233,12.4,7.2V8.65z
		 M34.2,22.75c0-5.367-1.333-9.967-4-13.8C26.933,4.183,22.917,1.867,18.15,2H18.1C13.3,1.8,9.25,4.117,5.95,8.95V9
		C3.317,12.8,2,17.383,2,22.75c0,5.2,1.217,9.65,3.65,13.35c0.1,0.133,0.2,0.283,0.3,0.45c2.533,3.733,5.566,5.95,9.1,6.65
		c0.4,0.066,0.8,0.1,1.2,0.1h3.7c0.4,0,0.816-0.05,1.25-0.15c3.367-0.633,6.316-2.767,8.85-6.4l0.15-0.2
		c0-0.033,0.017-0.05,0.05-0.05C32.883,32.667,34.2,28.083,34.2,22.75z"/>
	<path fill-rule="evenodd" clip-rule="evenodd" fill="#FFFF00" fill-opacity="0.5608" d="M27.7,10.65h0.05
		c-2.633-3.833-5.833-5.717-9.6-5.65H18.1c-3.8-0.1-7.017,1.783-9.65,5.65C6.15,14.017,5,18.05,5,22.75c0,4.6,1.083,8.533,3.25,11.8
		c0.033,0.1,0.1,0.2,0.2,0.3c2.033,3,4.45,4.8,7.25,5.4c0.2,0.033,0.383,0.05,0.55,0.05h3.7c0.167,0,0.35-0.017,0.55-0.05
		c2.667-0.567,5-2.267,7-5.1c0.067-0.1,0.133-0.183,0.2-0.25c2.333-3.367,3.5-7.417,3.5-12.15S30.033,13.983,27.7,10.65z
		 M31.7,22.75c0,4.833-1.184,8.967-3.55,12.4c-0.1,0.1-0.183,0.2-0.25,0.3c-2.066,2.933-4.483,4.7-7.25,5.3
		c-0.233,0.033-0.467,0.05-0.7,0.05h-3.7c-0.233,0-0.45-0.017-0.65-0.05c-2.934-0.6-5.45-2.467-7.55-5.6
		c-0.1-0.133-0.183-0.25-0.25-0.35c-2.2-3.333-3.3-7.35-3.3-12.05c0-4.833,1.183-8.95,3.55-12.35v-0.05
		c2.733-4.033,6.083-5.983,10.05-5.85h0.05c3.934-0.1,7.267,1.85,10,5.85C30.517,13.783,31.7,17.917,31.7,22.75z"/>
	<path fill-rule="evenodd" clip-rule="evenodd" fill="#FFFF00" fill-opacity="0.6157" d="M27.7,10.65
		c2.333,3.333,3.5,7.367,3.5,12.1s-1.167,8.783-3.5,12.15c-0.067,0.067-0.133,0.15-0.2,0.25c-2,2.833-4.333,4.533-7,5.1
		c-0.2,0.033-0.383,0.05-0.55,0.05h-3.7c-0.167,0-0.35-0.017-0.55-0.05c-2.8-0.6-5.217-2.4-7.25-5.4c-0.1-0.1-0.167-0.2-0.2-0.3
		C6.083,31.283,5,27.35,5,22.75c0-4.7,1.15-8.733,3.45-12.1C11.083,6.783,14.3,4.9,18.1,5h0.05c3.767-0.067,6.967,1.817,9.6,5.65
		H27.7z M30.7,22.75c0-4.6-1.133-8.533-3.4-11.8c-2.5-3.7-5.55-5.517-9.15-5.45H18.1c-3.633-0.1-6.717,1.717-9.25,5.45
		c-2.233,3.267-3.35,7.2-3.35,11.8c0,4.5,1.067,8.35,3.2,11.55c0.033,0.1,0.083,0.2,0.15,0.3c1.967,2.867,4.283,4.583,6.95,5.15
		c0.167,0.033,0.317,0.05,0.45,0.05h3.7c0.133,0,0.283-0.017,0.45-0.05c2.533-0.533,4.767-2.167,6.7-4.9
		c0.066-0.067,0.133-0.15,0.2-0.25C29.567,31.3,30.7,27.35,30.7,22.75z"/>
	<path fill-rule="evenodd" clip-rule="evenodd" fill="#FFFF00" fill-opacity="0.3373" d="M29.35,9.5l0.05,0.05
		C26.333,5.083,22.583,2.9,18.15,3H18.1C13.633,2.833,9.867,5,6.8,9.5v0.05C4.267,13.183,3,17.583,3,22.75
		c0,4.967,1.167,9.233,3.5,12.8c0.1,0.133,0.2,0.284,0.3,0.45c2.367,3.5,5.184,5.567,8.45,6.2c0.333,0.066,0.667,0.1,1,0.1h3.7
		c0.333,0,0.667-0.033,1-0.1c3.066-0.6,5.75-2.5,8.05-5.7c0.1-0.167,0.217-0.333,0.35-0.5c2.566-3.667,3.85-8.083,3.85-13.25
		S31.917,13.167,29.35,9.5z M33.7,22.75c0,5.267-1.3,9.783-3.9,13.55c-0.133,0.167-0.267,0.333-0.4,0.5
		c-2.367,3.3-5.133,5.267-8.3,5.9c-0.4,0.066-0.783,0.1-1.15,0.1h-3.7c-0.367,0-0.733-0.033-1.1-0.1c-3.4-0.667-6.316-2.8-8.75-6.4
		c-0.133-0.167-0.233-0.333-0.3-0.5c-2.4-3.633-3.6-7.983-3.6-13.05c0-5.267,1.283-9.767,3.85-13.5H6.4c3.2-4.7,7.1-6.95,11.7-6.75
		h0.05c4.6-0.133,8.483,2.117,11.65,6.75C32.4,12.983,33.7,17.483,33.7,22.75z"/>
	<path fill-rule="evenodd" clip-rule="evenodd" fill="#FFFF00" fill-opacity="0.3922" d="M29.35,9.5
		c2.566,3.667,3.85,8.083,3.85,13.25S31.917,32.333,29.35,36c-0.133,0.167-0.25,0.333-0.35,0.5c-2.3,3.2-4.983,5.1-8.05,5.7
		c-0.333,0.066-0.667,0.1-1,0.1h-3.7c-0.333,0-0.667-0.033-1-0.1c-3.267-0.633-6.083-2.7-8.45-6.2c-0.1-0.167-0.2-0.317-0.3-0.45
		C4.167,31.983,3,27.717,3,22.75c0-5.167,1.267-9.567,3.8-13.2V9.5C9.867,5,13.633,2.833,18.1,3h0.05
		c4.434-0.1,8.184,2.083,11.25,6.55L29.35,9.5z M32.7,22.75c0-5.033-1.25-9.35-3.75-12.95c-2.934-4.3-6.534-6.4-10.8-6.3H18.1
		c-4.3-0.167-7.934,1.933-10.9,6.3v0.05c-2.467,3.566-3.7,7.867-3.7,12.9c0,4.867,1.15,9.05,3.45,12.55
		c0.066,0.133,0.15,0.267,0.25,0.4c2.3,3.367,5.033,5.367,8.2,6c0.267,0.066,0.55,0.1,0.85,0.1h3.7c0.3,0,0.6-0.033,0.9-0.1
		c3-0.6,5.617-2.483,7.85-5.65c0.1-0.1,0.183-0.216,0.25-0.35C31.45,32.1,32.7,27.783,32.7,22.75z"/>
	<path fill-rule="evenodd" clip-rule="evenodd" fill="#FFFF00" fill-opacity="0.4471" d="M32.7,22.75c0,5.033-1.25,9.35-3.75,12.95
		c-0.067,0.133-0.15,0.25-0.25,0.35c-2.233,3.167-4.85,5.05-7.85,5.65c-0.3,0.066-0.6,0.1-0.9,0.1h-3.7c-0.3,0-0.583-0.033-0.85-0.1
		c-3.167-0.633-5.9-2.633-8.2-6c-0.1-0.133-0.184-0.267-0.25-0.4c-2.3-3.5-3.45-7.683-3.45-12.55c0-5.033,1.233-9.333,3.7-12.9V9.8
		c2.966-4.367,6.6-6.466,10.9-6.3h0.05c4.267-0.1,7.867,2,10.8,6.3C31.45,13.4,32.7,17.717,32.7,22.75z M32.2,22.75
		c0-4.933-1.217-9.15-3.65-12.65c-2.833-4.167-6.3-6.2-10.4-6.1H18.1c-4.133-0.133-7.633,1.9-10.5,6.1C5.2,13.6,4,17.817,4,22.75
		c0,4.8,1.133,8.9,3.4,12.3c0.033,0.133,0.1,0.267,0.2,0.4c2.2,3.233,4.833,5.167,7.9,5.8c0.233,0.033,0.483,0.05,0.75,0.05h3.7
		c0.267,0,0.533-0.033,0.8-0.1c2.867-0.567,5.383-2.383,7.55-5.45c0.067-0.1,0.15-0.2,0.25-0.3
		C30.983,31.917,32.2,27.683,32.2,22.75z"/>
	<path fill-rule="evenodd" clip-rule="evenodd" fill="#FFFF00" fill-opacity="0.2784" d="M33.7,22.75c0-5.267-1.3-9.767-3.9-13.5
		c-3.167-4.633-7.05-6.883-11.65-6.75H18.1C13.5,2.3,9.6,4.55,6.4,9.25H6.35c-2.567,3.733-3.85,8.233-3.85,13.5
		c0,5.067,1.2,9.417,3.6,13.05c0.066,0.167,0.167,0.333,0.3,0.5c2.434,3.6,5.35,5.733,8.75,6.4c0.367,0.066,0.733,0.1,1.1,0.1h3.7
		c0.367,0,0.75-0.033,1.15-0.1c3.167-0.633,5.933-2.6,8.3-5.9c0.133-0.167,0.267-0.333,0.4-0.5C32.4,32.533,33.7,28.017,33.7,22.75z
		 M34.2,22.75c0,5.333-1.317,9.917-3.95,13.75c-0.033,0-0.05,0.017-0.05,0.05l-0.15,0.2c-2.533,3.633-5.483,5.767-8.85,6.4
		c-0.434,0.1-0.85,0.15-1.25,0.15h-3.7c-0.4,0-0.8-0.033-1.2-0.1c-3.533-0.7-6.566-2.917-9.1-6.65c-0.1-0.167-0.2-0.316-0.3-0.45
		C3.217,32.4,2,27.95,2,22.75C2,17.383,3.317,12.8,5.95,9V8.95C9.25,4.117,13.3,1.8,18.1,2h0.05c4.767-0.133,8.783,2.183,12.05,6.95
		C32.867,12.783,34.2,17.383,34.2,22.75z"/>
	<path fill-rule="evenodd" clip-rule="evenodd" fill="#FFFF00" fill-opacity="0.5059" d="M31.7,22.75c0-4.833-1.184-8.967-3.55-12.4
		c-2.733-4-6.066-5.95-10-5.85H18.1c-3.967-0.133-7.317,1.817-10.05,5.85v0.05C5.683,13.8,4.5,17.917,4.5,22.75
		c0,4.7,1.1,8.717,3.3,12.05c0.067,0.1,0.15,0.217,0.25,0.35c2.1,3.133,4.617,5,7.55,5.6c0.2,0.033,0.417,0.05,0.65,0.05h3.7
		c0.233,0,0.466-0.017,0.7-0.05c2.767-0.6,5.184-2.367,7.25-5.3c0.067-0.1,0.15-0.2,0.25-0.3C30.517,31.717,31.7,27.583,31.7,22.75z
		 M32.2,22.75c0,4.933-1.217,9.167-3.65,12.7c-0.1,0.1-0.183,0.2-0.25,0.3c-2.167,3.067-4.683,4.883-7.55,5.45
		c-0.267,0.066-0.533,0.1-0.8,0.1h-3.7c-0.267,0-0.517-0.017-0.75-0.05c-3.067-0.633-5.7-2.567-7.9-5.8
		c-0.1-0.133-0.167-0.267-0.2-0.4c-2.267-3.4-3.4-7.5-3.4-12.3c0-4.933,1.2-9.15,3.6-12.65c2.867-4.2,6.367-6.233,10.5-6.1h0.05
		c4.1-0.1,7.567,1.933,10.4,6.1C30.983,13.6,32.2,17.817,32.2,22.75z"/>
	<path fill-rule="evenodd" clip-rule="evenodd" fill="#FFFF00" fill-opacity="0.6745" d="M30.7,22.75c0,4.6-1.133,8.55-3.4,11.85
		c-0.066,0.1-0.133,0.183-0.2,0.25c-1.934,2.733-4.167,4.367-6.7,4.9c-0.167,0.033-0.316,0.05-0.45,0.05h-3.7
		c-0.133,0-0.283-0.017-0.45-0.05c-2.667-0.567-4.983-2.283-6.95-5.15c-0.067-0.1-0.117-0.2-0.15-0.3c-2.133-3.2-3.2-7.05-3.2-11.55
		c0-4.6,1.117-8.533,3.35-11.8c2.533-3.733,5.617-5.55,9.25-5.45h0.05c3.6-0.067,6.65,1.75,9.15,5.45
		C29.567,14.217,30.7,18.15,30.7,22.75z M30.2,22.75c0-4.5-1.1-8.35-3.3-11.55c-2.4-3.5-5.316-5.233-8.75-5.2H18.1
		c-3.467-0.067-6.417,1.667-8.85,5.2C7.083,14.4,6,18.25,6,22.75c0,4.4,1.05,8.167,3.15,11.3c0,0.1,0.033,0.184,0.1,0.25
		c1.9,2.767,4.133,4.434,6.7,5c0.1,0,0.2,0,0.3,0h3.7c0.1,0,0.216-0.017,0.35-0.05c2.434-0.533,4.567-2.1,6.4-4.7
		c0.066-0.066,0.133-0.15,0.2-0.25C29.1,31.1,30.2,27.25,30.2,22.75z"/>
	<path fill-rule="evenodd" clip-rule="evenodd" fill="#FFFF00" fill-opacity="0.7294" d="M29.7,22.75c0-4.4-1.067-8.15-3.2-11.25
		c-2.3-3.367-5.1-5.033-8.4-5c-3.3-0.067-6.1,1.6-8.4,5c-2.133,3.133-3.2,6.883-3.2,11.25c0,4.3,1.033,8,3.1,11.1
		c0,0.033,0.033,0.1,0.1,0.2c1.767,2.633,3.883,4.217,6.35,4.75c0.067,0,0.133,0,0.2,0h3.7c0.066,0,0.15,0,0.25,0
		c2.3-0.533,4.333-2.05,6.1-4.55c0.067-0.067,0.133-0.133,0.2-0.2C28.633,30.917,29.7,27.15,29.7,22.75z M30.2,22.75
		c0,4.5-1.1,8.35-3.3,11.55c-0.066,0.1-0.133,0.184-0.2,0.25c-1.833,2.6-3.967,4.167-6.4,4.7c-0.133,0.033-0.25,0.05-0.35,0.05h-3.7
		c-0.1,0-0.2,0-0.3,0c-2.567-0.566-4.8-2.233-6.7-5c-0.067-0.066-0.1-0.15-0.1-0.25C7.05,30.917,6,27.15,6,22.75
		c0-4.5,1.083-8.35,3.25-11.55c2.433-3.534,5.383-5.267,8.85-5.2h0.05c3.434-0.033,6.35,1.7,8.75,5.2
		C29.1,14.4,30.2,18.25,30.2,22.75z"/>
	<path fill-rule="evenodd" clip-rule="evenodd" fill="#FFFF00" fill-opacity="0.7843" d="M29.7,22.75c0,4.4-1.067,8.167-3.2,11.3
		c-0.067,0.067-0.133,0.133-0.2,0.2c-1.767,2.5-3.8,4.017-6.1,4.55c-0.1,0-0.184,0-0.25,0h-3.7c-0.067,0-0.133,0-0.2,0
		c-2.466-0.533-4.583-2.117-6.35-4.75c-0.067-0.1-0.1-0.167-0.1-0.2c-2.067-3.1-3.1-6.8-3.1-11.1c0-4.367,1.067-8.117,3.2-11.25
		c2.3-3.4,5.1-5.067,8.4-5c3.3-0.033,6.1,1.633,8.4,5C28.633,14.6,29.7,18.35,29.7,22.75z M29.2,22.75
		c0-4.267-1.034-7.917-3.1-10.95c-2.2-3.2-4.867-4.8-8-4.8c-3.133-0.033-5.8,1.567-8,4.8C8.033,14.833,7,18.483,7,22.75
		c0,4.233,1.017,7.85,3.05,10.85c0,0.033,0.017,0.083,0.05,0.15c1.7,2.5,3.717,4.017,6.05,4.55c0.033,0,0.067,0,0.1,0h3.7
		c0.033,0,0.083,0,0.15,0c2.2-0.5,4.15-1.983,5.85-4.45c0.033-0.033,0.083-0.067,0.15-0.1C28.167,30.683,29.2,27.017,29.2,22.75z"/>
	<path fill-rule="evenodd" clip-rule="evenodd" fill="#FFFF00" fill-opacity="0.8471" d="M29.2,22.75c0,4.267-1.034,7.933-3.1,11
		c-0.067,0.033-0.117,0.067-0.15,0.1c-1.7,2.467-3.65,3.95-5.85,4.45c-0.067,0-0.117,0-0.15,0h-3.7c-0.033,0-0.067,0-0.1,0
		c-2.333-0.533-4.35-2.05-6.05-4.55c-0.033-0.067-0.05-0.117-0.05-0.15C8.017,30.6,7,26.983,7,22.75c0-4.267,1.033-7.917,3.1-10.95
		c2.2-3.233,4.867-4.833,8-4.8c3.133,0,5.8,1.6,8,4.8C28.167,14.833,29.2,18.483,29.2,22.75z"/>
</g>
</svg>
