<?xml version="1.0" encoding="utf-8"?>
<!-- Generator: Adobe Illustrator 15.0.0, SVG Export Plug-In . SVG Version: 6.00 Build 0)  -->
<!DOCTYPE svg PUBLIC "-//W3C//DTD SVG 1.1//EN" "http://www.w3.org/Graphics/SVG/1.1/DTD/svg11.dtd">
<svg version="1.1" id="Selected_Items" xmlns="http://www.w3.org/2000/svg" xmlns:xlink="http://www.w3.org/1999/xlink" x="0px"
	 y="0px" width="37.2px" height="41.417px" viewBox="0 0 37.2 41.417" enable-background="new 0 0 37.2 41.417"
	 xml:space="preserve">
<g transform="translate(0,41.417) scale(1,-1)">
	<path fill-rule="evenodd" clip-rule="evenodd" fill="#FFFF00" fill-opacity="0.1098" d="M30.8,2.8
		c-0.066-0.033-0.117-0.066-0.15-0.1C29.017,1.4,27.467,0.85,26,1.05c-1.1,0-2.133,0.267-3.1,0.8L22.4,2.1l-3.95,0.5L14.6,2.15
		l-0.4-0.2c-0.967-0.534-1.983-0.8-3.05-0.8h-0.3c-0.033,0-0.083,0-0.15,0C9.067,1.183,7.633,1.733,6.4,2.8L6.1,3.05
		C6.033,3.083,5.967,3.133,5.9,3.2c-0.533,0.466-0.983,1-1.35,1.6C4.517,4.867,4.483,4.933,4.45,5C2.15,8.8,1,13.25,1,18.35
		c0,5.7,1.4,10.566,4.2,14.6V33c2.8,4.1,6.15,6.517,10.05,7.25c0.2,0.033,0.4,0.067,0.6,0.1c0.3,0.033,0.6,0.05,0.9,0.05
		c0.067,0,0.133,0,0.2,0h3.5c0.2,0,0.417,0,0.65,0c0.3-0.033,0.617-0.083,0.95-0.15c3.8-0.733,7.1-3.15,9.9-7.25
		c2.833-4.067,4.25-8.95,4.25-14.65c0-5.2-1.2-9.733-3.6-13.6c-0.367-0.567-0.8-1.067-1.3-1.5c-0.066-0.1-0.15-0.183-0.25-0.25
		L30.8,2.8z M30.95,2.3c0.033,0.034,0.083,0.067,0.15,0.1l0.25,0.2c0.1,0.1,0.2,0.183,0.3,0.25C32.217,3.383,32.7,4,33.1,4.7L33,4.5
		c2.467,3.933,3.7,8.55,3.7,13.85c0,5.833-1.45,10.816-4.35,14.95c-2.833,4.1-6.15,6.55-9.95,7.35c-0.433,0.1-0.85,0.184-1.25,0.25
		c-0.267,0-0.5,0-0.7,0h-3.4c-0.433,0.033-0.85,0.017-1.25-0.05c-0.233-0.033-0.45-0.067-0.65-0.1c-4-0.767-7.45-3.25-10.35-7.45
		v-0.05c-2.867-4.133-4.3-9.1-4.3-14.9c0-5.2,1.183-9.733,3.55-13.6c0-0.067,0.034-0.133,0.1-0.2C4.517,3.883,5,3.3,5.6,2.8
		c0.033-0.033,0.083-0.083,0.15-0.15l0.3-0.25c1.357-1.134,2.907-1.717,4.65-1.75c0.066,0,0.117,0,0.15,0h0.3
		c1.167,0,2.267,0.283,3.3,0.85l0.35,0.15l3.65,0.45l3.75-0.45l0.45-0.25C23.683,0.8,24.8,0.517,26,0.55
		C27.533,0.35,29.183,0.933,30.95,2.3z"/>
	<path fill-rule="evenodd" clip-rule="evenodd" fill="#FFFF00" fill-opacity="0.1686" d="M30.8,2.8L31.05,3
		c0.1,0.067,0.184,0.15,0.25,0.25c0.5,0.433,0.934,0.933,1.3,1.5c2.4,3.867,3.6,8.4,3.6,13.6c0,5.7-1.417,10.583-4.25,14.65
		c-2.8,4.1-6.1,6.517-9.9,7.25c-0.333,0.067-0.65,0.117-0.95,0.15c-0.233,0-0.45,0-0.65,0h-3.5c-0.067,0-0.133,0-0.2,0
		c-0.3,0-0.6-0.017-0.9-0.05c-0.2-0.033-0.4-0.067-0.6-0.1C11.35,39.517,8,37.1,5.2,33v-0.05C2.4,28.917,1,24.05,1,18.35
		C1,13.25,2.15,8.8,4.45,5c0.033-0.067,0.066-0.133,0.1-0.2C4.917,4.2,5.367,3.667,5.9,3.2c0.067-0.067,0.133-0.117,0.2-0.15
		L6.4,2.8c1.233-1.066,2.667-1.617,4.3-1.65c0.066,0,0.117,0,0.15,0h0.3c1.067,0,2.083,0.267,3.05,0.8l0.4,0.2l3.85,0.45l3.95-0.5
		l0.5-0.25c0.967-0.533,2-0.8,3.1-0.8c1.467-0.2,3.017,0.35,4.65,1.65C30.683,2.733,30.733,2.767,30.8,2.8z M30.45,3.15
		c-0.034-0.033-0.067-0.05-0.1-0.05C28.817,1.9,27.367,1.383,26,1.55c-1.033-0.033-1.983,0.2-2.85,0.7L22.5,2.6l-4,0.5l-4-0.45
		L14,2.35c-0.9-0.467-1.85-0.7-2.85-0.7h-0.3c-0.033,0-0.083,0-0.15,0C9.2,1.683,7.867,2.2,6.7,3.2H6.65L6.4,3.45
		c-0.066,0.033-0.117,0.066-0.15,0.1C5.717,4.017,5.267,4.583,4.9,5.25L5,5.05c-2.333,3.767-3.5,8.2-3.5,13.3
		c0,5.6,1.367,10.383,4.1,14.35h0.05c2.7,4,5.934,6.35,9.7,7.05c0.167,0.033,0.35,0.067,0.55,0.1c0.3,0.033,0.583,0.05,0.85,0.05
		h3.7c0.167,0,0.367,0,0.6,0c0.267-0.033,0.55-0.083,0.85-0.15c3.7-0.7,6.917-3.05,9.65-7.05v0.05c2.767-4,4.15-8.8,4.15-14.4
		c0-5.1-1.184-9.55-3.55-13.35l0.1,0.2c-0.367-0.633-0.8-1.167-1.3-1.6c-0.067-0.067-0.133-0.133-0.2-0.2L30.45,3.15z"/>
	<path fill-rule="evenodd" clip-rule="evenodd" fill="#FFFF00" fill-opacity="0.5647" d="M28.5,5.45l0.05,0.05l0.3,0.2
		c0.033,0.033,0.066,0.066,0.1,0.1c0.233,0.233,0.45,0.5,0.65,0.8l0.05,0.05c2.033,3.333,3.05,7.233,3.05,11.7
		c0,4.933-1.217,9.167-3.65,12.7c-2.167,3.167-4.7,5.067-7.6,5.7c-0.067,0.033-0.133,0.05-0.2,0.05
		c-0.167,0.034-0.333,0.067-0.5,0.1c-0.1,0-0.2,0-0.3,0h-3.7c-0.167,0-0.317,0-0.45,0c-0.1-0.033-0.2-0.05-0.3-0.05
		c-3.033-0.633-5.667-2.567-7.9-5.8V31c-2.4-3.5-3.6-7.717-3.6-12.65c0-4.467,1-8.35,3-11.65c0-0.034,0.017-0.067,0.05-0.1
		c0.167-0.3,0.4-0.567,0.7-0.8c0-0.033,0.017-0.05,0.05-0.05L8.6,5.5c0.633-0.567,1.367-0.85,2.2-0.85h0.35
		c0.5,0,0.967,0.117,1.4,0.35l1.05,0.55l4.9,0.6l4.95-0.65l1.1-0.6C25.017,4.667,25.5,4.55,26,4.55C26.767,4.45,27.6,4.75,28.5,5.45
		z M28.5,6.1l-0.25-0.2L28.2,5.85c-0.8-0.633-1.534-0.9-2.2-0.8c-0.433-0.033-0.833,0.067-1.2,0.3L23.6,6l-5.1,0.65l-5.1-0.6
		l-1.05-0.6c-0.4-0.2-0.8-0.3-1.2-0.3H10.8c-0.7,0-1.316,0.233-1.85,0.7L8.9,5.9L8.65,6.1c-0.033,0.033-0.066,0.05-0.1,0.05
		c-0.233,0.233-0.433,0.5-0.6,0.8L8,6.85c-2,3.267-3,7.1-3,11.5c0,4.833,1.167,8.967,3.5,12.4c2.133,3.133,4.667,5,7.6,5.6
		c0.1,0,0.183,0.017,0.25,0.05c0.133,0,0.267,0,0.4,0h3.7c0.066,0,0.15,0,0.25,0c0.133,0,0.283-0.017,0.45-0.05
		c2.867-0.6,5.367-2.467,7.5-5.6c2.367-3.433,3.55-7.567,3.55-12.4c0-4.4-1.017-8.233-3.05-11.5L29.2,6.9
		c-0.167-0.267-0.367-0.5-0.6-0.7C28.567,6.167,28.533,6.133,28.5,6.1z"/>
	<path fill-rule="evenodd" clip-rule="evenodd" fill="#FFFF00" fill-opacity="0.6196" d="M28.5,6.1c0.033,0.033,0.067,0.066,0.1,0.1
		c0.233,0.2,0.433,0.433,0.6,0.7l-0.05-0.05c2.033,3.267,3.05,7.1,3.05,11.5c0,4.833-1.184,8.967-3.55,12.4
		c-2.133,3.133-4.633,5-7.5,5.6c-0.167,0.033-0.316,0.05-0.45,0.05c-0.1,0-0.184,0-0.25,0h-3.7c-0.133,0-0.267,0-0.4,0
		c-0.067-0.033-0.15-0.05-0.25-0.05c-2.934-0.6-5.467-2.467-7.6-5.6C6.167,27.317,5,23.183,5,18.35c0-4.4,1-8.233,3-11.5l-0.05,0.1
		c0.167-0.3,0.367-0.567,0.6-0.8c0.034,0,0.067-0.017,0.1-0.05L8.9,5.9l0.05-0.05c0.533-0.467,1.15-0.7,1.85-0.7h0.35
		c0.4,0,0.8,0.1,1.2,0.3l1.05,0.6l5.1,0.6L23.6,6l1.2-0.65c0.367-0.233,0.767-0.333,1.2-0.3c0.667-0.1,1.4,0.167,2.2,0.8l0.05,0.05
		L28.5,6.1z M23.8,6.5l-5.3,0.65l-5.15-0.6L12.1,5.9c-0.3-0.167-0.617-0.25-0.95-0.25H10.8c-0.6,0-1.117,0.2-1.55,0.6L8.95,6.5
		L8.9,6.55c-0.2,0.167-0.367,0.367-0.5,0.6V7.2c-1.933,3.167-2.9,6.883-2.9,11.15c0,4.7,1.15,8.733,3.45,12.1
		c2.033,3,4.45,4.8,7.25,5.4c0.066,0,0.133,0.017,0.2,0.05c0.117,0,0.233,0,0.35,0h3.7c0.066,0,0.133,0,0.2,0
		c0.167-0.033,0.333-0.066,0.5-0.1l-0.1,0.05c2.733-0.6,5.133-2.4,7.2-5.4c2.3-3.367,3.45-7.4,3.45-12.1c0-4.267-0.983-8-2.95-11.2
		V7.1c-0.133-0.2-0.283-0.383-0.45-0.55c-0.033-0.033-0.066-0.05-0.1-0.05l-0.25-0.25H27.9c-0.7-0.533-1.333-0.767-1.9-0.7
		c-0.333,0-0.65,0.083-0.95,0.25L23.8,6.5z"/>
	<path fill-rule="evenodd" clip-rule="evenodd" fill="#FFFF00" fill-opacity="0.5059" d="M28.5,5.45c-0.9-0.7-1.733-1-2.5-0.9
		c-0.5,0-0.983,0.117-1.45,0.35l-1.1,0.6L18.5,6.15l-4.9-0.6L12.55,5c-0.433-0.233-0.9-0.35-1.4-0.35H10.8
		c-0.833,0-1.566,0.283-2.2,0.85L8.3,5.75c-0.033,0-0.05,0.017-0.05,0.05c-0.3,0.233-0.533,0.5-0.7,0.8
		C7.517,6.633,7.5,6.667,7.5,6.7c-2,3.3-3,7.183-3,11.65c0,4.933,1.2,9.15,3.6,12.65v0.05c2.233,3.233,4.867,5.167,7.9,5.8
		c0.1,0,0.2,0.017,0.3,0.05c0.133,0,0.284,0,0.45,0h3.7c0.1,0,0.2,0,0.3,0c0.167-0.033,0.333-0.066,0.5-0.1
		c0.067,0,0.133-0.017,0.2-0.05c2.9-0.633,5.433-2.533,7.6-5.7c2.434-3.533,3.65-7.767,3.65-12.7c0-4.467-1.017-8.367-3.05-11.7
		L29.6,6.6c-0.2-0.3-0.417-0.567-0.65-0.8c-0.034-0.033-0.067-0.066-0.1-0.1l-0.3-0.2L28.5,5.45z M29.3,5.45
		c0.3,0.267,0.567,0.6,0.8,1L30,6.35c2.133,3.4,3.2,7.4,3.2,12c0,5.033-1.25,9.35-3.75,12.95h0.05c-2.333,3.367-5.05,5.367-8.15,6
		c-0.192,0.042-0.375,0.075-0.55,0.1c-0.133,0-0.25,0-0.35,0H16.9c-0.033,0-0.083,0-0.15,0c-0.167,0-0.333,0-0.5,0
		c-0.133-0.033-0.25-0.05-0.35-0.05c-3.167-0.633-5.9-2.65-8.2-6.05C5.233,27.7,4,23.383,4,18.35c0-4.6,1.05-8.6,3.15-12
		c0.195-0.356,0.445-0.656,0.75-0.9C7.933,5.417,7.967,5.383,8,5.35L8.3,5.1C9,4.5,9.833,4.183,10.8,4.15h0.35
		c0.6,0,1.15,0.133,1.65,0.4l0.95,0.5l4.75,0.6L23.3,5l1.05-0.55c0.5-0.3,1.05-0.434,1.65-0.4c0.867-0.133,1.8,0.2,2.8,1
		c0.034,0,0.067,0.017,0.1,0.05l0.25,0.25C29.183,5.383,29.233,5.417,29.3,5.45z"/>
	<path fill-rule="evenodd" clip-rule="evenodd" fill="#FFFF00" fill-opacity="0.2235" d="M30.45,3.15l0.3,0.25
		c0.067,0.067,0.133,0.133,0.2,0.2c0.5,0.433,0.933,0.967,1.3,1.6L32.15,5c2.367,3.8,3.55,8.25,3.55,13.35
		c0,5.6-1.383,10.4-4.15,14.4V32.7c-2.733,4-5.95,6.35-9.65,7.05c-0.3,0.067-0.583,0.117-0.85,0.15c-0.233,0-0.433,0-0.6,0h-3.7
		c-0.267,0-0.55-0.017-0.85-0.05c-0.2-0.033-0.383-0.067-0.55-0.1c-3.767-0.7-7-3.05-9.7-7.05H5.6c-2.733-3.967-4.1-8.75-4.1-14.35
		c0-5.1,1.167-9.533,3.5-13.3l-0.1,0.2c0.367-0.667,0.817-1.233,1.35-1.7c0.033-0.033,0.083-0.066,0.15-0.1L6.65,3.2H6.7
		c1.167-1,2.5-1.517,4-1.55c0.066,0,0.117,0,0.15,0h0.3c1,0,1.95,0.233,2.85,0.7l0.5,0.3l4,0.45l4-0.5l0.65-0.35
		c0.867-0.5,1.817-0.733,2.85-0.7c1.367-0.167,2.817,0.35,4.35,1.55C30.383,3.1,30.417,3.117,30.45,3.15z M30.65,3.95
		c-0.1-0.067-0.183-0.117-0.25-0.15l-0.25-0.25c-0.066-0.033-0.1-0.066-0.1-0.1c-1.433-1.1-2.783-1.567-4.05-1.4
		c-0.933,0-1.817,0.217-2.65,0.65l-0.7,0.4l-4.2,0.55l-4.05-0.5L13.75,2.8c-0.8-0.433-1.667-0.65-2.6-0.65h-0.3
		c-0.033,0-0.067,0-0.1,0C9.35,2.183,8.1,2.65,7,3.55V3.6L6.7,3.8C6.667,3.833,6.617,3.883,6.55,3.95
		c-0.433,0.367-0.8,0.816-1.1,1.35c-0.067,0.067-0.1,0.133-0.1,0.2C3.117,9.167,2,13.45,2,18.35C2,23.817,3.35,28.5,6.05,32.4v0.05
		c2.633,3.867,5.767,6.15,9.4,6.85c0.167,0,0.35,0.017,0.55,0.05c0.233,0.033,0.483,0.05,0.75,0.05h3.7c0.167,0,0.35,0,0.55,0
		c0.3-0.033,0.617-0.1,0.95-0.2l-0.15,0.05c3.567-0.667,6.684-2.933,9.35-6.8H31.1c2.733-3.9,4.1-8.6,4.1-14.1
		c0-4.934-1.133-9.233-3.4-12.9C31.467,4.883,31.083,4.383,30.65,3.95z"/>
	<path fill-rule="evenodd" clip-rule="evenodd" fill="#FFFF00" fill-opacity="0.2824" d="M30.65,3.95
		c0.434,0.433,0.817,0.933,1.15,1.5c2.267,3.667,3.4,7.966,3.4,12.9c0,5.5-1.367,10.2-4.1,14.1h0.05
		c-2.667,3.867-5.783,6.133-9.35,6.8l0.15-0.05c-0.333,0.1-0.65,0.167-0.95,0.2c-0.2,0-0.383,0-0.55,0h-3.7
		c-0.267,0-0.517-0.017-0.75-0.05c-0.2-0.033-0.383-0.05-0.55-0.05c-3.633-0.7-6.767-2.983-9.4-6.85V32.4
		C3.35,28.5,2,23.817,2,18.35c0-4.9,1.117-9.184,3.35-12.85c0-0.067,0.033-0.133,0.1-0.2c0.3-0.533,0.667-0.983,1.1-1.35
		C6.617,3.883,6.667,3.833,6.7,3.8L7,3.6V3.55c1.1-0.9,2.35-1.367,3.75-1.4c0.033,0,0.067,0,0.1,0h0.3c0.934,0,1.8,0.217,2.6,0.65
		l0.65,0.35l4.05,0.5l4.2-0.55l0.7-0.4c0.833-0.434,1.717-0.65,2.65-0.65c1.267-0.167,2.617,0.3,4.05,1.4
		c0,0.033,0.034,0.066,0.1,0.1L30.4,3.8C30.467,3.833,30.55,3.883,30.65,3.95z M30.3,4.35c-0.066-0.067-0.133-0.133-0.2-0.2
		l-0.25-0.2c-0.067-0.034-0.1-0.067-0.1-0.1c-1.333-1.033-2.583-1.467-3.75-1.3c-0.833,0-1.633,0.2-2.4,0.6L22.85,3.6L18.6,4.1
		l-4.5-0.5l-0.6-0.35c-0.733-0.4-1.517-0.6-2.35-0.6h-0.3c-0.033,0-0.067,0-0.1,0c-1.3,0.033-2.433,0.467-3.4,1.3H7.3L7.05,4.2
		C6.983,4.233,6.933,4.267,6.9,4.3C6.433,4.7,6.05,5.167,5.75,5.7l0.1-0.1C3.617,9.2,2.5,13.45,2.5,18.35
		c0,5.367,1.317,9.967,3.95,13.8c2.566,3.733,5.6,5.95,9.1,6.65c0.167,0,0.333,0.017,0.5,0.05c0.233,0.033,0.467,0.05,0.7,0.05h3.7
		c0.133,0,0.3,0,0.5,0c0.233-0.033,0.483-0.083,0.75-0.15c3.466-0.667,6.466-2.867,9-6.6c2.667-3.833,4-8.433,4-13.8
		c0-4.9-1.133-9.167-3.4-12.8l0.1,0.15C31.1,5.167,30.733,4.717,30.3,4.35z"/>
	<path fill-rule="evenodd" clip-rule="evenodd" fill="#FFFF00" fill-opacity="0.3373" d="M30.3,4.35c0.434,0.367,0.8,0.816,1.1,1.35
		l-0.1-0.15c2.267,3.633,3.4,7.9,3.4,12.8c0,5.367-1.333,9.967-4,13.8c-2.534,3.733-5.534,5.934-9,6.6
		c-0.267,0.067-0.517,0.117-0.75,0.15c-0.2,0-0.367,0-0.5,0h-3.7c-0.233,0-0.467-0.017-0.7-0.05c-0.167-0.033-0.333-0.05-0.5-0.05
		c-3.5-0.7-6.533-2.917-9.1-6.65c-2.633-3.833-3.95-8.433-3.95-13.8c0-4.9,1.117-9.15,3.35-12.75l-0.1,0.1
		c0.3-0.534,0.683-1,1.15-1.4c0.033-0.033,0.083-0.066,0.15-0.1L7.3,3.95h0.05c0.967-0.833,2.1-1.267,3.4-1.3c0.033,0,0.067,0,0.1,0
		h0.3c0.833,0,1.617,0.2,2.35,0.6l0.6,0.35l4.5,0.5l4.25-0.5l0.75-0.45c0.767-0.4,1.566-0.6,2.4-0.6
		c1.167-0.167,2.417,0.267,3.75,1.3c0,0.033,0.033,0.066,0.1,0.1l0.25,0.2C30.167,4.217,30.233,4.283,30.3,4.35z M29.5,4.35
		c-0.033-0.033-0.067-0.067-0.1-0.1c-1.2-0.933-2.333-1.333-3.4-1.2c-0.767-0.033-1.483,0.15-2.15,0.55l-0.8,0.45l-4.6,0.55
		l-4.4-0.5L13.3,3.7c-0.667-0.367-1.383-0.55-2.15-0.55h-0.3c-0.033,0-0.067,0-0.1,0c-1.167,0.033-2.2,0.434-3.1,1.2L7.35,4.6
		c-0.033,0.033-0.067,0.066-0.1,0.1C6.85,5,6.533,5.383,6.3,5.85c-0.033,0.033-0.066,0.066-0.1,0.1C4.067,9.483,3,13.617,3,18.35
		c0,5.267,1.283,9.767,3.85,13.5c2.467,3.633,5.417,5.783,8.85,6.45c0.133,0.034,0.267,0.067,0.4,0.1c0.333,0.033,0.65,0.033,0.95,0
		h3.4c0.133,0,0.283,0,0.45,0c0.2-0.033,0.417-0.066,0.65-0.1c0.067-0.033,0.15-0.05,0.25-0.05c3.233-0.733,6.067-2.867,8.5-6.4
		v0.05c2.6-3.767,3.9-8.283,3.9-13.55c0-4.733-1.083-8.867-3.25-12.4c-0.034-0.067-0.067-0.117-0.1-0.15
		c-0.233-0.4-0.533-0.767-0.9-1.1c-0.067-0.034-0.117-0.083-0.15-0.15L29.5,4.35z"/>
	<path fill-rule="evenodd" clip-rule="evenodd" fill="#FFFF00" fill-opacity="0.3922" d="M29.5,4.35l0.3,0.2
		c0.034,0.067,0.083,0.117,0.15,0.15c0.367,0.333,0.667,0.7,0.9,1.1c0.033,0.034,0.066,0.083,0.1,0.15
		c2.167,3.533,3.25,7.667,3.25,12.4c0,5.267-1.3,9.783-3.9,13.55v-0.05c-2.433,3.533-5.267,5.667-8.5,6.4
		c-0.1,0-0.183,0.017-0.25,0.05c-0.233,0.034-0.45,0.067-0.65,0.1c-0.167,0-0.316,0-0.45,0h-3.4c-0.3,0.033-0.617,0.033-0.95,0
		c-0.133-0.033-0.267-0.066-0.4-0.1c-3.434-0.667-6.383-2.816-8.85-6.45C4.283,28.117,3,23.617,3,18.35
		c0-4.733,1.067-8.867,3.2-12.4c0.033-0.034,0.066-0.067,0.1-0.1C6.533,5.383,6.85,5,7.25,4.7c0.033-0.034,0.067-0.067,0.1-0.1
		l0.3-0.25c0.9-0.767,1.934-1.167,3.1-1.2c0.033,0,0.067,0,0.1,0h0.3c0.767,0,1.483,0.184,2.15,0.55l0.75,0.4l4.4,0.5l4.6-0.55
		l0.8-0.45c0.667-0.4,1.383-0.583,2.15-0.55c1.067-0.133,2.2,0.267,3.4,1.2C29.433,4.283,29.467,4.317,29.5,4.35z M29.65,5.1
		c-0.066-0.067-0.133-0.117-0.2-0.15L29.2,4.7c-0.034,0-0.067-0.017-0.1-0.05C28,3.783,26.967,3.417,26,3.55
		c-0.667,0-1.3,0.167-1.9,0.5l-0.9,0.5l-4.7,0.6L13.85,4.6l-0.8-0.45c-0.6-0.333-1.233-0.5-1.9-0.5h-0.3c-0.033,0-0.067,0-0.1,0
		C9.717,3.683,8.8,4.033,8,4.7L7.95,4.75L7.7,4.95c-0.067,0.033-0.117,0.066-0.15,0.1C7.217,5.35,6.933,5.7,6.7,6.1
		C6.667,6.133,6.65,6.167,6.65,6.2C4.55,9.667,3.5,13.717,3.5,18.35c0,5.167,1.25,9.583,3.75,13.25H7.3c2.367,3.5,5.2,5.566,8.5,6.2
		c0.1,0.034,0.217,0.067,0.35,0.1c0.267,0.033,0.55,0.033,0.85,0h3.45c0.133,0,0.267,0,0.4,0c0.2-0.033,0.4-0.066,0.6-0.1
		c0.033-0.033,0.066-0.05,0.1-0.05c0.034,0,0.067,0,0.1,0c0.033-0.033,0.067-0.05,0.1-0.05c3.1-0.7,5.817-2.733,8.15-6.1
		c2.533-3.667,3.8-8.083,3.8-13.25c0-4.633-1.067-8.684-3.2-12.15c-0.033-0.067-0.05-0.117-0.05-0.15
		C30.217,5.683,29.95,5.367,29.65,5.1z"/>
	<path fill-rule="evenodd" clip-rule="evenodd" fill="#FFFF00" fill-opacity="0.451" d="M29.65,5.1c0.3,0.267,0.567,0.583,0.8,0.95
		c0,0.034,0.017,0.083,0.05,0.15c2.133,3.466,3.2,7.517,3.2,12.15c0,5.167-1.267,9.583-3.8,13.25c-2.333,3.367-5.05,5.4-8.15,6.1
		c-0.033,0-0.067,0.017-0.1,0.05c-0.033,0-0.066,0-0.1,0c-0.033,0-0.066,0.017-0.1,0.05c-0.2,0.034-0.4,0.067-0.6,0.1
		c-0.133,0-0.267,0-0.4,0H17c-0.3,0.033-0.583,0.033-0.85,0c-0.133-0.033-0.25-0.066-0.35-0.1c-3.3-0.633-6.133-2.7-8.5-6.2H7.25
		c-2.5-3.667-3.75-8.083-3.75-13.25c0-4.633,1.05-8.684,3.15-12.15c0-0.034,0.017-0.067,0.05-0.1c0.233-0.4,0.517-0.75,0.85-1.05
		c0.034-0.033,0.083-0.066,0.15-0.1l0.25-0.2L8,4.7c0.8-0.667,1.717-1.017,2.75-1.05c0.033,0,0.067,0,0.1,0h0.3
		c0.667,0,1.3,0.167,1.9,0.5l0.8,0.45l4.65,0.55l4.7-0.6l0.9-0.5c0.6-0.333,1.233-0.5,1.9-0.5c0.967-0.133,2,0.233,3.1,1.1
		c0.033,0.033,0.066,0.05,0.1,0.05l0.25,0.25C29.517,4.983,29.583,5.033,29.65,5.1z M29.3,5.45c-0.066-0.034-0.117-0.067-0.15-0.1
		L28.9,5.1c-0.033-0.033-0.066-0.05-0.1-0.05c-1-0.8-1.933-1.133-2.8-1c-0.6-0.033-1.15,0.1-1.65,0.4L23.3,5l-4.8,0.65l-4.75-0.6
		l-0.95-0.5c-0.5-0.267-1.05-0.4-1.65-0.4H10.8C9.833,4.183,9,4.5,8.3,5.1L8,5.35c-0.033,0.033-0.067,0.066-0.1,0.1
		c-0.305,0.244-0.555,0.544-0.75,0.9c-2.1,3.4-3.15,7.4-3.15,12c0,5.033,1.233,9.35,3.7,12.95c2.3,3.4,5.033,5.417,8.2,6.05
		c0.1,0,0.217,0.017,0.35,0.05c0.167,0,0.333,0,0.5,0c0.067,0,0.117,0,0.15,0h3.55c0.1,0,0.216,0,0.35,0
		c0.175-0.025,0.358-0.058,0.55-0.1c3.1-0.633,5.816-2.633,8.15-6h-0.05c2.5-3.6,3.75-7.917,3.75-12.95c0-4.6-1.067-8.6-3.2-12
		l0.1,0.1C29.867,6.05,29.6,5.717,29.3,5.45z"/>
	<path fill-rule="evenodd" clip-rule="evenodd" fill="#FFFF00" fill-opacity="0.0549" d="M30.95,2.3
		C29.183,0.933,27.533,0.35,26,0.55c-1.2-0.033-2.317,0.25-3.35,0.85L22.2,1.65L18.45,2.1L14.8,1.65L14.45,1.5
		c-1.034-0.567-2.133-0.85-3.3-0.85h-0.3c-0.033,0-0.083,0-0.15,0C8.957,0.683,7.407,1.266,6.05,2.4l-0.3,0.25
		C5.683,2.717,5.633,2.767,5.6,2.8C5,3.3,4.517,3.883,4.15,4.55c-0.066,0.067-0.1,0.133-0.1,0.2c-2.367,3.867-3.55,8.4-3.55,13.6
		c0,5.8,1.433,10.767,4.3,14.9v0.05c2.9,4.2,6.35,6.684,10.35,7.45c0.2,0.033,0.417,0.067,0.65,0.1c0.4,0.066,0.817,0.083,1.25,0.05
		h3.4c0.2,0,0.433,0,0.7,0c0.4-0.066,0.817-0.15,1.25-0.25c3.8-0.8,7.117-3.25,9.95-7.35c2.9-4.133,4.35-9.117,4.35-14.95
		c0-5.3-1.233-9.917-3.7-13.85l0.1,0.2c-0.4-0.7-0.883-1.317-1.45-1.85c-0.1-0.067-0.2-0.15-0.3-0.25L31.1,2.4
		C31.033,2.367,30.983,2.333,30.95,2.3z M31.7,2.25C31.8,2.317,31.9,2.4,32,2.5c0.6,0.533,1.117,1.183,1.55,1.95l-0.1-0.2
		c2.5,4,3.75,8.7,3.75,14.1c0,5.933-1.483,11.017-4.45,15.25l0.05-0.05c-3,4.367-6.517,6.917-10.55,7.65
		c-0.367,0.066-0.717,0.133-1.05,0.2c-0.267,0-0.517,0-0.75,0h-3.3c-0.5,0.033-0.967,0.017-1.4-0.05
		c-0.267-0.033-0.517-0.067-0.75-0.1c-4.1-0.767-7.633-3.333-10.6-7.7H4.35C1.45,29.35,0,24.283,0,18.35
		C0,12.95,1.233,8.267,3.7,4.3c0.433-0.7,0.95-1.316,1.55-1.85c0.067-0.067,0.133-0.117,0.2-0.15l0.3-0.25H5.7
		c1.433-1.233,3.1-1.867,5-1.9c0.066,0,0.117,0,0.15,0h0.3c1.233,0,2.417,0.3,3.55,0.9l0.25,0.1l3.5,0.45l3.65-0.45l0.3-0.2
		c1.133-0.6,2.333-0.9,3.6-0.9c1.633-0.233,3.383,0.383,5.25,1.85c0.033,0.033,0.083,0.067,0.15,0.1L31.7,2.25z"/>
	<path fill-rule="evenodd" clip-rule="evenodd" fill="#FFFF00" fill-opacity="0.7333" d="M24.15,7.45l-5.65,0.7L12.95,7.5l-1.3-0.7
		c-0.167-0.1-0.333-0.15-0.5-0.15h-0.3c-0.367,0-0.684,0.117-0.95,0.35L9.6,7.25L9.55,7.3c-0.133,0.1-0.233,0.217-0.3,0.35H9.3
		c-1.867,3.033-2.8,6.6-2.8,10.7c0,4.5,1.083,8.35,3.25,11.55c1.9,2.767,4.133,4.434,6.7,5c0.033,0,0.066,0,0.1,0
		c0.1,0,0.217,0,0.35,0h3.55c0.033,0,0.066,0,0.1,0c0.1,0,0.184-0.017,0.25-0.05c2.534-0.533,4.733-2.184,6.6-4.95
		c2.2-3.2,3.3-7.05,3.3-11.55c0-4.1-0.934-7.667-2.8-10.7c-0.066-0.133-0.167-0.25-0.3-0.35c0-0.033-0.017-0.05-0.05-0.05l-0.25-0.2
		V7c-0.466-0.333-0.9-0.483-1.3-0.45c-0.167,0-0.317,0.034-0.45,0.1L24.15,7.45z M23.95,6.95L25.3,6.2
		c0.2-0.133,0.434-0.184,0.7-0.15c0.5-0.066,1.033,0.133,1.6,0.6l0.3,0.25l0.05,0.05c0.133,0.133,0.267,0.283,0.4,0.45H28.3
		c1.934,3.1,2.9,6.75,2.9,10.95c0,4.6-1.133,8.55-3.4,11.85h0.05c-2,2.867-4.317,4.583-6.95,5.15l0.15-0.05
		c-0.167,0.034-0.316,0.067-0.45,0.1c-0.067,0-0.117,0-0.15,0h-3.5c-0.167,0.033-0.317,0.033-0.45,0c-0.067,0-0.117,0-0.15,0
		c-2.7-0.6-5.033-2.333-7-5.2C7.117,26.9,6,22.95,6,18.35c0-4.167,0.95-7.8,2.85-10.9V7.4c0.1-0.2,0.233-0.367,0.4-0.5H9.3l0.3-0.25
		H9.55c0.367-0.333,0.8-0.5,1.3-0.5h0.3c0.233,0,0.467,0.067,0.7,0.2L13.1,7l5.4,0.65L23.95,6.95z"/>
	<path fill-rule="evenodd" clip-rule="evenodd" fill="#FFFF00" fill-opacity="0.7882" d="M24.15,7.45l1.4-0.8
		c0.133-0.066,0.284-0.1,0.45-0.1c0.4-0.033,0.833,0.117,1.3,0.45v0.05l0.25,0.2c0.034,0,0.05,0.017,0.05,0.05
		c0.133,0.1,0.233,0.217,0.3,0.35c1.867,3.033,2.8,6.6,2.8,10.7c0,4.5-1.1,8.35-3.3,11.55c-1.867,2.767-4.066,4.417-6.6,4.95
		c-0.066,0.033-0.15,0.05-0.25,0.05c-0.033,0-0.066,0-0.1,0H16.9c-0.133,0-0.25,0-0.35,0c-0.033,0-0.066,0-0.1,0
		c-2.567-0.566-4.8-2.233-6.7-5C7.583,26.7,6.5,22.85,6.5,18.35c0-4.1,0.933-7.667,2.8-10.7H9.25C9.317,7.517,9.417,7.4,9.55,7.3
		L9.6,7.25L9.9,7c0.267-0.233,0.583-0.35,0.95-0.35h0.3c0.167,0,0.333,0.05,0.5,0.15l1.3,0.7l5.55,0.65L24.15,7.45z M24.25,7.95
		l-5.75,0.7L12.8,8l-1.4-0.8c-0.1-0.034-0.183-0.05-0.25-0.05h-0.3c-0.233,0-0.45,0.083-0.65,0.25L9.9,7.65
		C9.833,7.717,9.767,7.8,9.7,7.9C7.9,10.867,7,14.35,7,18.35c0,4.367,1.05,8.117,3.15,11.25c1.8,2.667,3.934,4.267,6.4,4.8h0.05
		c0.066,0,0.133,0,0.2,0h3.7c0.067,0,0.15-0.017,0.25-0.05L20.7,34.4c2.4-0.566,4.5-2.167,6.3-4.8c2.133-3.133,3.2-6.883,3.2-11.25
		c0-4-0.917-7.483-2.75-10.45c-0.067-0.1-0.133-0.183-0.2-0.25L27,7.45L26.95,7.4C26.617,7.133,26.3,7.017,26,7.05
		c-0.1-0.033-0.183-0.017-0.25,0.05L24.25,7.95z"/>
	<path fill-rule="evenodd" clip-rule="evenodd" fill="#FFFF00" fill-opacity="0.6745" d="M23.95,6.95l-5.45,0.7L13.1,7l-1.25-0.65
		c-0.233-0.133-0.467-0.2-0.7-0.2h-0.3c-0.5,0-0.934,0.167-1.3,0.5H9.6L9.3,6.9H9.25c-0.167,0.133-0.3,0.3-0.4,0.5v0.05
		C6.95,10.55,6,14.183,6,18.35c0,4.6,1.117,8.55,3.35,11.85c1.967,2.867,4.3,4.6,7,5.2c0.033,0,0.083,0,0.15,0
		c0.133,0.033,0.283,0.033,0.45,0h3.5c0.033,0,0.083,0,0.15,0c0.133-0.033,0.283-0.066,0.45-0.1l-0.15,0.05
		c2.633-0.567,4.95-2.283,6.95-5.15H27.8c2.267-3.3,3.4-7.25,3.4-11.85c0-4.2-0.967-7.85-2.9-10.95h0.05
		c-0.133-0.167-0.267-0.316-0.4-0.45L27.9,6.9l-0.3-0.25c-0.567-0.467-1.1-0.667-1.6-0.6c-0.267-0.033-0.5,0.017-0.7,0.15
		L23.95,6.95z M23.8,6.5l1.25-0.7c0.3-0.167,0.617-0.25,0.95-0.25c0.567-0.066,1.2,0.167,1.9,0.7h0.05L28.2,6.5
		c0.033,0,0.066,0.017,0.1,0.05c0.167,0.167,0.317,0.35,0.45,0.55v0.05c1.967,3.2,2.95,6.934,2.95,11.2c0,4.7-1.15,8.733-3.45,12.1
		c-2.067,3-4.467,4.8-7.2,5.4l0.1-0.05c-0.167,0.034-0.333,0.067-0.5,0.1c-0.066,0-0.133,0-0.2,0h-3.7c-0.117,0-0.233,0-0.35,0
		c-0.066-0.033-0.133-0.05-0.2-0.05c-2.8-0.6-5.217-2.4-7.25-5.4c-2.3-3.367-3.45-7.4-3.45-12.1c0-4.267,0.967-7.983,2.9-11.15V7.15
		c0.133-0.233,0.3-0.433,0.5-0.6L8.95,6.5l0.3-0.25c0.433-0.4,0.95-0.6,1.55-0.6h0.35c0.333,0,0.65,0.083,0.95,0.25l1.25,0.65
		l5.15,0.6L23.8,6.5z"/>
	<path fill-rule="evenodd" clip-rule="evenodd" fill="#FFFF00" fill-opacity="0.851" d="M24.25,7.95l1.5-0.85
		C25.817,7.033,25.9,7.017,26,7.05c0.3-0.033,0.617,0.083,0.95,0.35L27,7.45l0.25,0.2c0.067,0.067,0.133,0.15,0.2,0.25
		c1.833,2.967,2.75,6.45,2.75,10.45c0,4.367-1.067,8.117-3.2,11.25c-1.8,2.633-3.9,4.233-6.3,4.8l0.05-0.05
		c-0.1,0.033-0.183,0.05-0.25,0.05h-3.7c-0.066,0-0.133,0-0.2,0h-0.05c-2.466-0.533-4.6-2.133-6.4-4.8C8.05,26.467,7,22.717,7,18.35
		c0-4,0.9-7.483,2.7-10.45c0.066-0.1,0.133-0.183,0.2-0.25l0.3-0.25c0.2-0.167,0.417-0.25,0.65-0.25h0.3
		c0.067,0,0.15,0.017,0.25,0.05L12.8,8l5.7,0.65L24.25,7.95z"/>
</g>
</svg>
