<?xml version="1.0" encoding="utf-8"?>
<!-- Generator: Adobe Illustrator 15.0.0, SVG Export Plug-In . SVG Version: 6.00 Build 0)  -->
<!DOCTYPE svg PUBLIC "-//W3C//DTD SVG 1.1//EN" "http://www.w3.org/Graphics/SVG/1.1/DTD/svg11.dtd">
<svg version="1.1" id="Selected_Items" xmlns="http://www.w3.org/2000/svg" xmlns:xlink="http://www.w3.org/1999/xlink" x="0px"
	 y="0px" width="21.2px" height="30.3px" viewBox="0 0 21.2 30.3" enable-background="new 0 0 21.2 30.3" xml:space="preserve">
<g>
	<g>
		<path fill-rule="evenodd" clip-rule="evenodd" fill="#CC5B4C" d="M8.75,0h3.675c2.191,0.504,4.1,1.963,5.725,4.375V4.35
			c2.035,2.963,3.052,6.53,3.05,10.7c0.001,4.17-1.015,7.737-3.05,10.7v-0.025c-2.066,3.065-4.583,4.59-7.55,4.575
			c-2.966,0.023-5.5-1.494-7.6-4.55v-0.025C0.999,22.77-0.001,19.211,0,15.05c-0.001-4.161,0.999-7.72,3-10.675V4.35
			C4.647,1.953,6.564,0.503,8.75,0z M17.15,25.05c1.754-2.938,2.621-6.354,2.6-10.25c-0.022-3.895-0.889-7.145-2.6-9.75V5.025
			c-1.8-2.269-3.984-3.402-6.55-3.4C8.033,1.63,5.833,2.771,4,5.05V5.025c-1.646,2.778-2.496,6.12-2.55,10.025
			C1.396,18.955,2.246,22.297,4,25.075V25.05c1.583,2.593,3.667,3.985,6.25,4.175c2.583,0.189,4.883-1.194,6.9-4.15V25.05z"/>
		<path fill-rule="evenodd" clip-rule="evenodd" fill="#F9CEFF" d="M17.15,25.05v0.025c-2.017,2.956-4.317,4.339-6.9,4.15
			C7.667,29.035,5.583,27.643,4,25.05v0.025c-1.754-2.778-2.604-6.12-2.55-10.025C1.504,11.145,2.354,7.803,4,5.025V5.05
			c1.833-2.278,4.033-3.42,6.6-3.425c2.566-0.002,4.75,1.131,6.55,3.4V5.05c1.711,2.605,2.578,5.855,2.6,9.75
			C19.771,18.695,18.904,22.112,17.15,25.05z"/>
	</g>
	<g>
		<path fill-rule="evenodd" clip-rule="evenodd" fill="#4A3217" d="M14.8,10.8h-2.05c-0.167-0.667-0.567-1.133-1.2-1.4
			c-0.333-0.167-0.716-0.25-1.15-0.25c-0.8,0-1.467,0.3-2,0.9c-0.5,0.633-0.75,1.567-0.75,2.8s0.283,2.1,0.85,2.6
			c0.567,0.533,1.2,0.8,1.9,0.8c0.7,0,1.283-0.217,1.75-0.65c0.434-0.4,0.717-0.934,0.85-1.6h-2.35v-1.65h4.2v5.4h-1.4l-0.2-1.25
			c-0.4,0.467-0.767,0.8-1.1,1C11.583,17.833,10.9,18,10.1,18c-1.333,0-2.434-0.467-3.3-1.4c-0.867-0.9-1.3-2.167-1.3-3.8
			s0.45-2.933,1.35-3.9c0.867-1,2.05-1.5,3.55-1.5c1.267,0,2.3,0.333,3.1,1C14.267,9.033,14.7,9.833,14.8,10.8z"/>
	</g>
</g>
</svg>
