<?xml version="1.0" encoding="utf-8"?>
<!-- Generator: Adobe Illustrator 15.0.0, SVG Export Plug-In . SVG Version: 6.00 Build 0)  -->
<!DOCTYPE svg PUBLIC "-//W3C//DTD SVG 1.1//EN" "http://www.w3.org/Graphics/SVG/1.1/DTD/svg11.dtd">
<svg version="1.1" id="Selected_Items" xmlns="http://www.w3.org/2000/svg" xmlns:xlink="http://www.w3.org/1999/xlink" x="0px"
	 y="0px" width="509.031px" height="147.15px" viewBox="0 0 509.031 147.15" enable-background="new 0 0 509.031 147.15"
	 xml:space="preserve">
<g>
	<g>
		<path fill-rule="evenodd" clip-rule="evenodd" fill="#B39554" d="M331.1,1.525c0.818-0.607,1.751-1.015,2.8-1.225
			c4.033-0.966,6.617,0.409,7.75,4.125c0.204,0.724,0.362,1.541,0.475,2.45c0.515-0.046,1.023-0.08,1.525-0.1
			c0.433-0.024,0.858-0.041,1.275-0.05c0.137-0.786,0.645-1.377,1.525-1.775c0.966-0.434,2.1-0.5,3.4-0.2
			c0.823,0.167,1.548,0.417,2.175,0.75c0.084-0.089,0.176-0.172,0.275-0.25c1.3-1.033,2.833-1.467,4.6-1.3
			c1.833,0.167,3.35,0.95,4.55,2.35c0.263,0.32,0.504,0.662,0.725,1.025c0.284,0.35,0.509,0.692,0.675,1.025
			c0.289,0.577,0.456,1.394,0.5,2.45c0.063,0.437,0.105,0.895,0.125,1.375c0.385,0.216,0.776,0.441,1.176,0.675
			c0.899,0.566,2.283,1.883,4.149,3.95c1.167-0.966,3.15-1.417,5.95-1.35c0.767,0.267,1.483,0.8,2.15,1.6c0.666,0.8,1,1.567,1,2.3
			c-0.067,0.233-0.117,0.467-0.15,0.7c1.8-0.466,3.583-0.7,5.35-0.7c3.867,0,6.767,0.733,8.7,2.2c1.066,0.8,2.316,2.017,3.75,3.65
			c0.233,0,0.467,0.017,0.7,0.05c0.267-0.2,0.583-0.4,0.95-0.6c1.533-0.867,3.2-1.3,5-1.3c3.333,0,5.533,1.333,6.6,4
			c0.167-0.1,0.351-0.184,0.55-0.25c0.278-0.116,0.562-0.225,0.851-0.325c-0.033-0.24-0.05-0.465-0.05-0.675
			c0-1.233,0.399-2.383,1.199-3.45c1.167-1.6,2.934-2.4,5.301-2.4c2.733,0,4.533,0.8,5.399,2.4c0.295,0.531,0.462,1.281,0.5,2.25
			c0.393,0,0.792,0,1.2,0c0.8,0,2.15,0.383,4.05,1.15c0.334-0.433,0.733-0.833,1.2-1.2c1.267-0.934,2.8-1.4,4.6-1.4
			c1.801,0,3.317,0.483,4.551,1.45c0.5,0.4,0.933,0.85,1.3,1.35c0.066-0.133,0.166-0.267,0.3-0.4c0.833-0.934,1.85-1.417,3.05-1.45
			c0.473-0.024,0.905,0.009,1.3,0.1c0.065-0.069,0.132-0.136,0.2-0.2c0.9-0.867,1.95-1.267,3.15-1.2
			c2.896,0.157,4.421,2.266,4.575,6.325c0.196-0.03,0.388-0.055,0.574-0.075c0.134-0.533,0.351-1,0.65-1.4
			c1.2-1.567,3.434-2.317,6.7-2.25c1.899,0.733,3.083,1.7,3.55,2.9c0.066,0.233,0.134,0.65,0.2,1.25
			c0.166-0.133,0.35-0.283,0.55-0.45c2.134-1.4,5.1-2.2,8.9-2.4c0.666,0.267,1.416,0.4,2.25,0.4c0.033,0,0.116,0,0.25,0
			c0.566,0.2,1.216,0.45,1.949,0.75c1.142,0.444,2.116,0.994,2.926,1.65c1.044,1.166,1.686,2.616,1.925,4.35v0.05
			c0.869-0.883,2.219-1.233,4.05-1.05c2.033,1.033,3.333,2.233,3.9,3.6c0.267,0.667,0.399,1.917,0.399,3.75
			c0,1.267-0.3,2.267-0.899,3c-0.667,0.867-2.317,2.217-4.95,4.05c0.746,1.089,1.88,1.989,3.399,2.7
			c0.789,0.347,2.015,0.78,3.676,1.3c0.235-0.216,0.511-0.416,0.824-0.6c1.334-0.733,2.867-0.934,4.601-0.6
			c3.758,0.74,5.908,3.082,6.45,7.025c0.432,0.391,0.814,0.716,1.149,0.975c1.634,1.867,2.783,4.15,3.45,6.85
			c1.366,5.5,0.1,10.383-3.8,14.65c-0.5,0.7-1.017,1.367-1.55,2c-0.934,0.867-1.983,1.767-3.15,2.7c0.267,0.2,0.533,0.434,0.8,0.7
			c1.667,1.6,2.5,3.15,2.5,4.65c0,2-0.783,4.333-2.35,7c-1.934,3.3-4.184,4.617-6.75,3.95c-0.4-0.033-0.783-0.1-1.15-0.2
			c-0.366,0.9-0.967,1.717-1.8,2.45c-0.566,0.5-1.184,0.917-1.85,1.25c0.433,1.033,0.649,2.167,0.649,3.4
			c0,2.233-0.733,4.133-2.2,5.7c-1.466,1.6-3.233,2.4-5.3,2.4c-1.566,0-2.95-0.467-4.149-1.4c-0.2,0.2-0.4,0.4-0.601,0.6
			c-0.133,0.133-0.283,0.267-0.45,0.4c0.134,0.133,0.267,0.267,0.4,0.4c1.134,1.333,1.7,2.917,1.7,4.75c0,1.833-0.566,3.4-1.7,4.7
			c-1.134,1.3-2.517,1.95-4.15,1.95c-1.633,0-3.017-0.65-4.149-1.95c-1.134-1.3-1.7-2.867-1.7-4.7c0-0.133,0-0.25,0-0.35
			c-0.467,0.267-0.934,0.517-1.4,0.75c-0.233,0.533-0.616,1.017-1.149,1.45c-0.267,0.233-0.55,0.433-0.851,0.6
			c-0.733,1.1-1.883,2.434-3.449,4c-0.267,0.267-0.517,0.517-0.75,0.75c0.3,0.2,0.6,0.434,0.899,0.7
			c1.167,1.167,1.75,2.533,1.75,4.1c0,1.566-0.583,2.917-1.75,4.05c-1.2,1.133-2.649,1.7-4.35,1.7s-3.134-0.567-4.3-1.7
			c-0.867-0.833-1.417-1.783-1.65-2.85c-0.467,0.667-1.033,1.284-1.7,1.85c-1.967,1.667-4.35,2.5-7.149,2.5
			c-2.767,0-5.117-0.833-7.051-2.5c-1.966-1.633-2.949-3.6-2.949-5.9c0-0.5,0.05-1,0.149-1.5c-0.967,0.2-1.95,0.3-2.95,0.3
			c-3.466,0-6.116-0.85-7.949-2.55c-0.834-0.767-1.384-1.467-1.65-2.1c-1.566,0.934-3.7,1.4-6.4,1.4c-4.733,0-7.733-1.216-9-3.65
			c-0.166-0.367-0.3-0.733-0.399-1.1c-0.566,0.133-1.167,0.2-1.8,0.2c-0.467,1.733-1.817,3.667-4.051,5.8
			c-2.033,1.934-3.85,3.167-5.449,3.7c0,0.233,0,0.467,0,0.7c0,2.7-1.017,5-3.051,6.9c-2.033,1.933-4.5,2.9-7.399,2.9
			c-2.867,0-5.3-0.967-7.3-2.9c-0.667-0.6-1.217-1.25-1.65-1.95c-2.233,0.934-4.033,1.4-5.4,1.4c-1.466,0-2.866-0.2-4.199-0.6
			c-0.067,2.033-0.733,3.767-2,5.2c-1.367,1.567-3.017,2.35-4.95,2.35c-1.934,0-3.567-0.783-4.9-2.35
			c-1.367-1.533-2.05-3.4-2.05-5.6c0-2.167,0.683-4.05,2.05-5.65c0.1-0.1,0.2-0.2,0.3-0.3c-0.2,0-0.417,0-0.65,0
			c-2.2,0-4.083-0.717-5.65-2.15c-0.133-0.1-0.25-0.2-0.35-0.3c-0.167,1.667-0.95,3.1-2.35,4.3c-1.567,1.433-3.5,2.15-5.8,2.15
			c-0.7,0-1.367-0.067-2-0.2c0.434,1.133,0.65,2.367,0.65,3.7c0,2.566-0.817,4.75-2.45,6.55c-1.6,1.833-3.567,2.75-5.9,2.75
			c-2.3,0-4.25-0.917-5.85-2.75c-1.367-1.5-2.15-3.267-2.35-5.3c-2.833-0.434-4.967-1.617-6.4-3.55
			c-0.333-0.466-0.617-0.933-0.85-1.4c-0.2,0-0.4,0-0.6,0c-1.7,0-3.216-0.533-4.55-1.6c-0.2,0.2-0.417,0.4-0.65,0.6
			c-1.533,1.3-3.417,1.95-5.65,1.95c-2.167,0-4.034-0.65-5.6-1.95c-0.8-0.667-1.383-1.417-1.75-2.25
			c-0.367,0.267-0.733,0.517-1.1,0.75c0,0.133,0,0.267,0,0.4c0,1.633-0.383,3.167-1.15,4.6c-0.967,1.733-2.333,2.95-4.1,3.65h-4
			c-2.533-1.3-4.1-2.6-4.7-3.9c-0.2-0.467-0.3-1.467-0.3-3c0-1.033,0.75-2.4,2.25-4.1c0.033-0.066,0.083-0.117,0.15-0.15
			c-0.333-0.433-0.633-0.867-0.9-1.3c-0.633-0.633-0.95-1.35-0.95-2.15c0-0.167,0.017-0.333,0.05-0.5
			c-0.1-0.567-0.15-1.15-0.15-1.75c0-0.2,0.017-0.4,0.05-0.6c-2.067,1.133-4.233,1.7-6.5,1.7c-3.7,0-6.433-1.066-8.2-3.2
			c-0.433,1.1-1.083,2.117-1.95,3.05c-1.633,1.7-3.617,2.55-5.95,2.55c-2.3,0-4.267-0.85-5.9-2.55
			c-0.933-0.933-1.583-1.983-1.95-3.15c-0.133,0.133-0.267,0.267-0.4,0.4c-1.066,1.067-2.367,1.6-3.9,1.6
			c-1.5,0-2.783-0.533-3.85-1.6c-1.066-1.066-1.6-2.367-1.6-3.9c0-1.1,0.284-2.083,0.85-2.95c-2.2-0.066-3.917-0.383-5.15-0.95
			c-0.333,1.066-0.95,2.033-1.85,2.9c0.333,0.267,0.667,0.583,1,0.95c1.2,1.367,1.8,3,1.8,4.9c0,1.867-0.6,3.467-1.8,4.8
			c-1.2,1.367-2.633,2.05-4.3,2.05c-1.7,0-3.133-0.684-4.3-2.05c-1.2-1.333-1.8-2.933-1.8-4.8c0-1.434,0.35-2.717,1.05-3.85
			c-0.733-0.2-1.433-0.483-2.1-0.85c-2.034-0.133-3.784-1.017-5.25-2.65c-0.133-0.133-0.25-0.267-0.35-0.4
			c-0.133,1.333-0.733,2.483-1.8,3.45c-0.8,0.8-1.75,1.317-2.85,1.55c0.4,1.1,0.6,2.283,0.6,3.55c0,2.667-0.867,4.95-2.6,6.85
			c-1.7,1.9-3.784,2.85-6.25,2.85c-2.434,0-4.5-0.95-6.2-2.85c-1.4-1.533-2.233-3.317-2.5-5.35c-1.767,0.934-3.433,1.4-5,1.4
			c-1.833,0-3.65-0.5-5.45-1.5c-0.333,0.8-0.783,1.567-1.35,2.3c-0.233,0.6-0.567,1.15-1,1.65c-0.9,1.167-2,1.75-3.3,1.75
			c-0.467,0-0.9-0.067-1.3-0.2c-0.4,0.034-0.8,0.05-1.2,0.05c-2.4,0-4.433-0.867-6.1-2.6c-1.7-1.667-2.55-3.7-2.55-6.1
			c0-2.367,0.85-4.4,2.55-6.1c0.4-0.4,0.817-0.75,1.25-1.05c-0.066-0.133-0.117-0.25-0.15-0.35c-2.3,0-4.267-0.783-5.9-2.35
			c-0.5-0.466-0.917-0.966-1.25-1.5c-3.967,0.333-7.117,0.784-9.45,1.35c-0.066,1.4-0.583,2.617-1.55,3.65
			c-0.933,0.967-2.033,1.517-3.3,1.65c0.133,0.267,0.25,0.5,0.35,0.7c0.6,0.267,1.15,0.684,1.65,1.25
			c1.033,1.167,1.55,2.583,1.55,4.25c0,1.633-0.517,3.033-1.55,4.2c-1.034,1.167-2.3,1.75-3.8,1.75c-1.467,0-2.733-0.583-3.8-1.75
			c-1.033-1.167-1.55-2.567-1.55-4.2c0-1.233,0.284-2.316,0.85-3.25c-0.033-0.233-0.05-0.433-0.05-0.6
			c-0.7,0.3-1.483,0.45-2.35,0.45c-0.067,0-0.133,0-0.2,0c-0.4,1.333-1.167,2.533-2.3,3.6c-1.733,1.667-3.833,2.5-6.3,2.5
			c-0.167,0-0.333,0-0.5,0c-0.5,0.133-1.017,0.2-1.55,0.2c-1.467,0-2.7-0.533-3.7-1.6c-0.6-0.6-1.034-1.267-1.3-2
			c0-0.034-0.017-0.05-0.05-0.05c-0.333,0.9-0.9,1.7-1.7,2.4c-1.133,1.067-2.45,1.717-3.95,1.95c-0.233,1.033-0.633,2.05-1.2,3.05
			c-1.4,2.5-3.4,3.75-6,3.75c-2.933,0-4.683-0.966-5.25-2.9c0-2.033,0-3.117,0-3.25c0-0.3,0.017-0.6,0.05-0.9
			c-0.966,0.467-2.033,0.733-3.2,0.8c-0.267,0.034-0.533,0.05-0.8,0.05c-0.433,0-0.833-0.05-1.2-0.15
			c-1.767-0.367-2.9-1.434-3.4-3.2c-0.133-2.267-0.2-3.467-0.2-3.6c0-1.2,0.183-2.283,0.55-3.25c-0.066-0.033-0.15-0.066-0.25-0.1
			h-0.1c-0.1,0.167-0.233,0.333-0.4,0.5c-0.466,0.4-1.017,0.6-1.65,0.6c-0.6,0-1.133-0.2-1.6-0.6
			c-0.066-0.066-0.117-0.117-0.15-0.15c-0.566,0.067-1.133,0.133-1.7,0.2c0,0.133,0,0.267,0,0.4c0,1.733-0.633,3.217-1.9,4.45
			c-1.267,1.233-2.816,1.85-4.65,1.85c-1.8,0-3.333-0.617-4.6-1.85c-1.267-1.233-1.9-2.717-1.9-4.45c0-0.167,0.017-0.333,0.05-0.5
			c-0.1-0.1-0.2-0.183-0.3-0.25H79.1c-0.867,0-1.7-0.083-2.5-0.25c-0.6,0.967-1.383,1.983-2.35,3.05
			c-2.533,2.8-5.583,4.483-9.15,5.05c-0.3,1.033-0.783,1.983-1.45,2.85l0.05-0.05c0.3-0.233,0.633-0.367,1-0.4
			c-0.6,0.567-1.067,1.267-1.4,2.1c-0.066-0.167-0.1-0.35-0.1-0.55c0-0.3,0.083-0.583,0.25-0.85c-0.667,0.867-1.417,1.517-2.25,1.95
			c-0.233,1.767-0.983,3.4-2.25,4.9c-1.333,1.567-3.117,2.65-5.35,3.25c-1.367,1.167-2.983,1.75-4.85,1.75
			c-2.967,0-5.267-0.767-6.9-2.3c-0.133-0.067-0.25-0.133-0.35-0.2c-2.167-1.133-3.25-3.267-3.25-6.4c0-0.566,0.017-1.083,0.05-1.55
			c-0.833-0.4-1.6-0.983-2.3-1.75c-0.433-0.467-0.8-0.967-1.1-1.5c-0.7,0.566-1.533,0.85-2.5,0.85c-1.1,0-2.033-0.383-2.8-1.15
			c-0.8-0.767-1.2-1.7-1.2-2.8c0-1.067,0.4-2,1.2-2.8c0.167-0.167,0.367-0.317,0.6-0.45c-1.833-1.9-2.9-2.967-3.2-3.2
			c-1.233,0.034-2.35,0-3.35-0.1c-0.1,2.3-0.883,4.283-2.35,5.95c-1.533,1.767-3.417,2.65-5.65,2.65c-2.167,0-4.033-0.883-5.6-2.65
			c-1.533-1.767-2.3-3.9-2.3-6.4c0-2.467,0.767-4.6,2.3-6.4c1.567-1.767,3.434-2.65,5.6-2.65c0.033,0,0.067,0,0.1,0
			c0-0.067,0-0.133,0-0.2c-0.533,0.067-1.1,0.1-1.7,0.1c-3.267,0-5.833-1.767-7.7-5.3c-1.233-3.566-1.85-5.367-1.85-5.4
			c0-1.3,0.233-2.433,0.7-3.4c-1.867-0.5-3.267-1.5-4.2-3c-0.667-2.233-1-3.4-1-3.5c0-2,0.7-3.533,2.1-4.6
			c1.233-0.933,2.767-1.367,4.6-1.3c0.033-1.033,0.066-1.667,0.1-1.9c0.233-1.167,0.917-2.317,2.05-3.45
			c0.867-0.8,2.316-1.233,4.35-1.3c0.267,0,0.517,0,0.75,0c-0.5-1.133-0.75-2.35-0.75-3.65c0-2.133,0.683-4.017,2.05-5.65
			c-1.433-0.1-2.683-0.617-3.75-1.55c-1.133-1.033-1.7-2.283-1.7-3.75s0.567-2.717,1.7-3.75c1.167-1.033,2.55-1.55,4.15-1.55
			c1.133,0,2.167,0.267,3.1,0.8c0-0.267,0-0.533,0-0.8c0.2,0.034,0.4,0.067,0.6,0.1c-0.067-1.333-0.1-2.017-0.1-2.05
			c0-2.8,0.9-5.083,2.7-6.85c1.667-1.6,3.667-2.433,6-2.5c1.933-0.067,3.633,0.417,5.1,1.45C33.017,44,33,43.883,33,43.85
			c0-2,0.55-3.867,1.65-5.6c1.434-2.267,3.533-3.5,6.3-3.7c0.267-1.033,0.566-2.167,0.9-3.4c0.8-2.933,2.283-5.1,4.45-6.5
			c1.833-0.867,3.95-1.3,6.35-1.3c0.767,0,2.033,0.517,3.8,1.55c0.867,0.533,1.716,1.05,2.55,1.55c0.6,0,1.3-0.167,2.1-0.5
			c0.767-0.367,1.283-0.55,1.55-0.55c0.4,0,0.917,0.15,1.55,0.45c0.633,0.3,1.033,0.45,1.2,0.45c0.167-0.767,0.4-1.5,0.7-2.2
			c-0.033-0.434-0.05-0.684-0.05-0.75c0-2.5,0.9-4.567,2.7-6.2c1.633-1.467,3.633-2.283,6-2.45c2.333-0.2,4.317,0.3,5.95,1.5
			c0.833,0.6,1.466,1.333,1.9,2.2c0.1,0.033,0.217,0.083,0.35,0.15c1.2-1.633,2.367-2.983,3.5-4.05c0.566-0.8,1.417-1.533,2.55-2.2
			c2.2-1.333,4.733-2.05,7.6-2.15c3.1-0.066,5.633,0.633,7.6,2.1c1,0.733,1.783,1.65,2.35,2.75c0.267,0.4,0.6,0.883,1,1.45
			c0.833,1.3,1.55,1.95,2.15,1.95c0.566,0,1.383-0.3,2.45-0.9c0.167-0.1,0.333-0.183,0.5-0.25c0.3-0.933,0.867-1.7,1.7-2.3
			c1.233-0.833,2.683-1.1,4.35-0.8c1.733,0.3,3.183,1.15,4.35,2.55c0.034,0.066,0.083,0.133,0.15,0.2
			c0.267-0.233,0.566-0.45,0.9-0.65c1.633-1,3.517-1.5,5.65-1.5c2.267-0.033,4.133,0.55,5.6,1.75c1.467,1.233,2.3,2.933,2.5,5.1
			c0.167,0.267,0.267,0.583,0.3,0.95c0.067-0.066,0.15-0.133,0.25-0.2c0.333-1.067,1.033-1.85,2.1-2.35
			c1.367-0.633,3.067-0.7,5.1-0.2c2,0.467,3.7,1.333,5.1,2.6c0.933,0.833,1.583,1.733,1.95,2.7c0.467-0.4,1.05-0.767,1.75-1.1
			c2.267-1.133,4.483-1,6.65,0.4c0.498,0.713,0.931,1.355,1.3,1.925c0.646,0.833,1.188,1.757,1.625,2.775
			c1.165-0.398,2.54-0.582,4.125-0.55c2.9,0.667,4.8,1.967,5.7,3.9c0.267,0.533,0.45,1.216,0.55,2.05c0.6-0.333,1.9-1.267,3.9-2.8
			c2-1.5,4.533-2.25,7.6-2.25c2.433,0,4.733,0.483,6.9,1.45c1.1,0.467,2.05,0.934,2.85,1.4c0.233,0,0.583-0.167,1.05-0.5
			c0.154-1.045,0.471-1.97,0.95-2.775c0-0.022,0-0.047,0-0.075c0-2.2,0.933-3.867,2.8-5c1.7-1.067,3.767-1.467,6.2-1.2
			c2.433,0.267,4.483,1.133,6.15,2.6c0.013,0.012,0.03,0.02,0.05,0.025c0.284-0.305,0.601-0.613,0.95-0.925
			c2.767-2.46,7.134-3.785,13.1-3.975c0.04-0.58,0.19-1.071,0.45-1.475c0-0.067,0.333-0.483,1-1.25c4.5-2.4,8-2.25,10.5,0.45
			c1.7,1.867,2.55,3.983,2.55,6.35v0.025c0.237,0.161,0.47,0.319,0.7,0.475c0.3,0,1.1-0.433,2.4-1.3c0.533-1.867,2.1-3.467,4.7-4.8
			c3.033-1.567,6.6-2.333,10.7-2.3c4.333,0,7.917,0.917,10.75,2.75c0.767,0.5,1.433,1.05,2,1.65c0-0.133,0-0.267,0-0.4
			c0-1.3,0.783-2.65,2.35-4.05c2.133-1.9,4.983-2.5,8.55-1.8c0.567,0.5,1.1,0.967,1.6,1.4c0.033-0.034,0.1-0.05,0.2-0.05
			c0.167-1,0.784-1.833,1.85-2.5c1.2-0.7,2.617-0.983,4.25-0.85c2.155,0.189,3.747,0.897,4.775,2.125
			c0.267-0.488,0.608-0.946,1.025-1.375c1.1-1.133,2.433-1.8,4-2c1.6-0.2,2.933,0.167,4,1.1c0.12,0.106,0.236,0.215,0.35,0.325
			c0.312-0.258,0.645-0.55,1-0.875c0.133-0.1,0.284-0.2,0.45-0.3c0.533-0.867,1.4-1.683,2.6-2.45c2.066-1.267,4.45-1.934,7.15-2
			c2.9-0.067,5.283,0.617,7.15,2.05c0.344,0.269,0.66,0.561,0.95,0.875c0.33,0.347,0.622,0.722,0.875,1.125
			c0.029,0.033,0.054,0.066,0.075,0.1c0.061-0.033,0.128-0.066,0.2-0.1c0.432-0.232,0.949-0.499,1.55-0.8l0.6-0.35
			c-0.138-0.133-0.254-0.266-0.35-0.4c-0.267-0.333-0.4-0.983-0.4-1.95c0-1.7,0.45-3.183,1.35-4.45
			C329.45,2.427,330.233,1.785,331.1,1.525z M400.6,88.55c-0.133-0.1-0.233-0.216-0.3-0.35c-0.467,0.167-0.934,0.283-1.399,0.35
			c0.033,0.1,0.066,0.217,0.1,0.35C399.5,88.667,400.033,88.55,400.6,88.55z M296.8,122.55h0.05l-0.05-0.05V122.55z M65.3,76.75
			c-0.066,0-0.133,0-0.2,0c0.033,0.067,0.083,0.133,0.15,0.2C65.25,76.883,65.267,76.817,65.3,76.75z M65.95,84.3
			c0.033,0,0.066,0,0.1,0C66.017,84.267,66,84.233,66,84.2C65.967,84.233,65.95,84.267,65.95,84.3z"/>
	</g>
	<g>
		<path fill-rule="evenodd" clip-rule="evenodd" fill="#C4A35D" d="M26.5,92.75c-1.2,2-3.533,3-7,3c-2.1,0-3.617-1.083-4.55-3.25
			c-0.5-2.2-0.75-3.35-0.75-3.45c0-2.2,0.683-3.816,2.05-4.85c1.2-0.9,2.7-1.25,4.5-1.05c1.733,0.2,3.233,0.817,4.5,1.85
			c1.367,1.133,2.05,2.433,2.05,3.9C27.3,90.533,27.033,91.817,26.5,92.75z"/>
		<g>
			<path fill-rule="evenodd" clip-rule="evenodd" fill="#C4A35D" d="M490.45,54.75c1.066,0.567,1.6,1.75,1.6,3.55
				c0,1.833-0.383,3.617-1.149,5.35c0.133-0.133,0.267-0.267,0.399-0.4c1.367-1.333,2.917-2.15,4.65-2.45
				c1.899-0.333,3.45,0.1,4.649,1.3c1.2,1.2,1.884,3.066,2.051,5.6c0.199,0.8,0.3,1.716,0.3,2.75c0,1.5-0.601,2.9-1.8,4.2
				c-0.934,1-2.101,1.783-3.5,2.35c-0.101,1-0.434,1.867-1,2.6c0.033,0.066,0.066,0.117,0.1,0.15c0.866,1.033,1.3,2.283,1.3,3.75
				s-0.434,2.717-1.3,3.75s-1.917,1.55-3.15,1.55s-2.283-0.517-3.149-1.55c-0.867-1.033-1.3-2.283-1.3-3.75
				c0-1.267,0.333-2.367,1-3.3c-0.067-0.067-0.134-0.133-0.2-0.2c-0.867-0.967-1.3-2.133-1.3-3.5c0-0.167,0.017-0.333,0.05-0.5
				c-0.2-0.3-0.384-0.617-0.55-0.95c-0.467-1-0.7-2.15-0.7-3.45c0-1.7,0.616-3.283,1.85-4.75c0.033-0.3,0.101-0.583,0.2-0.85
				c-0.934,1.033-2.05,1.55-3.35,1.55c-0.301,0-0.601-0.017-0.9-0.05c0.066,0.567,0.05,1.133-0.05,1.7c0,2.033-0.566,4.167-1.7,6.4
				c-1.533,3-3.634,4.5-6.3,4.5c-2.566,0-4.834-0.184-6.8-0.55c-0.301,0.667-0.684,1.35-1.15,2.05c-1.3,1.933-2.884,3.167-4.75,3.7
				c0.033,0.333,0.066,0.7,0.1,1.1c0.4,0,0.817,0.033,1.25,0.1c1.801,0.3,3.384,0.917,4.75,1.85c0.667-0.267,1.4-0.4,2.2-0.4
				c0.834,0,1.634,0.15,2.4,0.45c1.566-1.2,3.434-1.8,5.6-1.8c2.4,0,4.434,0.7,6.101,2.1c1.666,1.466,2.5,3.2,2.5,5.2
				s-0.834,3.7-2.5,5.1c-1.667,1.433-3.7,2.15-6.101,2.15c-1.3,0-2.5-0.217-3.6-0.65c-1.233,1.133-2.7,1.7-4.4,1.7
				c-1.733,0-3.217-0.6-4.45-1.8c-0.366,0.133-0.75,0.283-1.149,0.45l-2.25-0.5c-0.634-0.7-1.783-1.733-3.45-3.1
				c-1.167,1.3-2.517,2.25-4.05,2.85c0.467,0.633,0.7,1.333,0.7,2.1c0,0.867-0.267,1.633-0.801,2.3c0.4,0.867,0.601,1.85,0.601,2.95
				c0,0.667-0.167,1.35-0.5,2.05c0.899-0.2,1.85-0.3,2.85-0.3c3.233,0,5.983,0.95,8.25,2.85c1.667,1.434,2.717,3.083,3.15,4.95
				c0.133,0.067,0.25,0.167,0.35,0.3c0.434,0.534,0.65,1.15,0.65,1.85c0,0.733-0.217,1.35-0.65,1.85
				c-0.133,0.167-0.267,0.3-0.399,0.4c-0.5,1.7-1.534,3.217-3.101,4.55c-1.866,1.566-4.033,2.5-6.5,2.8
				c-0.267,0.5-0.583,0.983-0.95,1.45c-0.966,1.167-2.149,1.75-3.55,1.75c-1.399,0-2.6-0.583-3.6-1.75
				c-0.533-0.667-0.917-1.383-1.15-2.15c-0.3-0.167-0.566-0.4-0.8-0.7c-0.467-0.6-0.717-1.317-0.75-2.15
				c-1.7-1.767-2.55-3.817-2.55-6.15c0-2.267,0.816-4.283,2.45-6.05c-3.767-2.133-6-3.483-6.7-4.05
				c-0.566-0.467-0.967-1.05-1.2-1.75v0.05c0,0.833-0.283,1.55-0.85,2.15c-0.167,0.167-0.317,0.317-0.45,0.45
				c0.333,0.833,0.5,1.833,0.5,3c0,2.033-0.733,3.783-2.2,5.25c-1.866,1.833-4.55,2.75-8.05,2.75c-2.033,0-3.434-0.917-4.2-2.75
				c-0.366-0.9-0.55-1.9-0.55-3c0-2.067,0.783-3.9,2.35-5.5c1.101-1.1,2.384-1.9,3.851-2.4c-0.534-0.367-1.017-0.817-1.45-1.35
				c-1.467-1.7-2.2-3.733-2.2-6.1s0.733-4.417,2.2-6.15c1.434-1.667,3.184-2.5,5.25-2.5c0.2,0,0.399,0.017,0.6,0.05
				c-0.233-0.733-0.35-1.467-0.35-2.2c0-3.034,1.399-6.05,4.2-9.05c0.066-0.066,0.133-0.117,0.199-0.15
				c-0.033-0.133-0.05-0.267-0.05-0.4c0-1.133,0.467-2.083,1.4-2.85c0.233-0.2,0.467-0.367,0.7-0.5c-0.067,0-0.134,0-0.2,0
				c-1.467,0-2.733-0.483-3.8-1.45c-0.567-0.5-0.967-1.066-1.2-1.7c-0.167,0.033-0.334,0.066-0.5,0.1
				c-0.334,0.533-0.7,1.033-1.101,1.5c-1.233,1.466-2.649,2.383-4.25,2.75c0.067,0.466,0.101,0.966,0.101,1.5
				c0,2.733-1.084,5.066-3.25,7c-0.101,0.1-0.2,0.2-0.3,0.3c0,0.367-0.15,0.7-0.45,1s-0.667,0.45-1.101,0.45
				c-0.166,0-0.333-0.017-0.5-0.05c-1.633,0.833-3.466,1.25-5.5,1.25c-3.033,0-5.616-0.983-7.75-2.95
				c-2.166-1.934-3.25-4.267-3.25-7c0-0.934,0.134-1.833,0.4-2.7c-2.3,0.2-4.717,0.4-7.25,0.6c-0.733,0.4-1.566,0.6-2.5,0.6
				c-0.6,0-1.167-0.083-1.7-0.25c-1.6,0.1-3.25,0.216-4.95,0.35c-1.033,0.934-2.283,1.4-3.75,1.4c-0.933,0-1.767-0.184-2.5-0.55
				c0,0.067,0,0.133,0,0.2c0,0.8-0.149,1.55-0.449,2.25c1.833,1.8,2.75,3.9,2.75,6.3c0,2.667-1.117,4.934-3.351,6.8
				c-1.3,1.1-2.75,1.883-4.35,2.35c-0.101,0.233-0.233,0.45-0.4,0.65c-0.399,0.5-0.883,0.75-1.45,0.75c-0.6,0-1.1-0.25-1.5-0.75
				c-0.033-0.067-0.066-0.117-0.1-0.15c-0.134,0-0.267,0-0.4,0c-0.8,0-1.566-0.05-2.3-0.15c0,0.067,0,0.133,0,0.2
				c0,2.533-0.967,4.733-2.899,6.6c0.033,0.566,0.05,1.2,0.05,1.9c0,0.767-0.033,1.5-0.101,2.2c0.2-0.033,0.417-0.05,0.65-0.05
				c2.733,0,5.066,0.95,7,2.85c1.934,1.933,2.9,4.233,2.9,6.9c0,2.033-0.551,3.833-1.65,5.4c1.167,1.567,1.75,3.383,1.75,5.45
				c0,2.633-0.967,4.883-2.9,6.75c-1.933,1.867-4.283,2.8-7.05,2.8c-2.7,0-5.017-0.933-6.95-2.8
				c-1.933-1.867-2.899-4.117-2.899-6.75c0-2,0.566-3.783,1.7-5.35c-1.167-1.6-1.75-3.433-1.75-5.5c0-0.833,0.1-1.633,0.3-2.4
				c-0.834-0.067-1.584-0.184-2.25-0.35c0,0.167,0,0.367,0,0.6c0,1.9-0.417,3.667-1.25,5.3c-1.066,2.133-2.6,3.2-4.6,3.2
				c-4.833,0-7.25-1.917-7.25-5.75c0-0.033,0-0.067,0-0.1c-0.233,1.5-0.983,2.817-2.25,3.95c-1.5,1.367-3.333,2.05-5.5,2.05
				c-0.833,0-1.6-0.1-2.3-0.3c-1.466,0.833-3.117,1.25-4.95,1.25c-2.767,0-5.117-0.967-7.05-2.9c-1.933-1.9-2.9-4.2-2.9-6.9
				c0-2.7,0.967-5.017,2.9-6.95c1.934-1.9,4.284-2.85,7.05-2.85c1.733,0,3.3,0.367,4.7,1.1c-0.133-0.867-0.2-1.317-0.2-1.35
				c0-5.133,1.95-9.15,5.85-12.05c3.3-2.466,7.583-3.85,12.85-4.15c0.934-0.066,1.851-0.083,2.75-0.05c0.7-0.4,1.434-0.7,2.2-0.9
				c-0.8-1.4-1.2-2.983-1.2-4.75c0-1.733,0.367-3.267,1.101-4.6h-0.45c-3.967-0.467-8.034-0.833-12.2-1.1
				c0.467,0.767,0.783,1.633,0.95,2.6c0.033,0.033,0.066,0.066,0.1,0.1c0.934,1,1.4,2.2,1.4,3.6c0,1.4-0.467,2.6-1.4,3.6
				c-0.966,1-2.133,1.5-3.5,1.5c-0.4,0-0.767-0.033-1.1-0.1c-0.267,0.633-0.7,1.217-1.3,1.75c-1,0.9-2.233,1.35-3.7,1.35
				c-1.467,0-2.7-0.45-3.7-1.35c-0.167-0.167-0.333-0.333-0.5-0.5c-1.267,0.9-2.75,1.35-4.45,1.35c-1.966,0-3.65-0.617-5.05-1.85
				c-1.4-1.167-2.1-2.6-2.1-4.3s0.7-3.15,2.1-4.35c0.9-0.767,1.9-1.283,3-1.55c-0.467-0.833-0.7-1.733-0.7-2.7
				c-1.333-0.066-2.617-0.133-3.85-0.2c-0.333,1.066-0.9,2.05-1.7,2.95c-1.4,1.633-3.1,2.45-5.1,2.45c-0.6,0-1.183-0.067-1.75-0.2
				c-0.533,0.133-1.1,0.2-1.7,0.2c-1.833,0-3.383-0.75-4.65-2.25c-0.566-0.633-1-1.317-1.3-2.05c0,0.167,0,0.35,0,0.55
				c0,2.233-0.817,4.15-2.45,5.75c-1.667,1.633-3.667,2.45-6,2.45c-1.033,0-2-0.167-2.9-0.5c-0.133,0.1-0.267,0.167-0.4,0.2
				c1.067,1.567,1.6,3.183,1.6,4.85c0,0.5,0,1,0,1.5c0.233-0.033,0.483-0.05,0.75-0.05c2.533,0,4.7,0.95,6.5,2.85
				c1.8,1.9,2.7,4.184,2.7,6.85s-0.9,4.95-2.7,6.85c-1.567,1.633-3.4,2.566-5.5,2.8c0.3,0.867,0.45,1.783,0.45,2.75
				c0,2.367-0.867,4.383-2.6,6.05c-1.767,1.7-3.9,2.55-6.4,2.55c-2.433,0-4.533-0.85-6.3-2.55c-1.733-1.667-2.6-3.684-2.6-6.05
				c0-1.367,0.3-2.633,0.9-3.8c-2.167-0.967-4.033-2-5.6-3.1c-0.4,1.3-1.067,2.5-2,3.6c-1.633,1.9-3.617,2.85-5.95,2.85
				c-2.3,0-4.267-0.95-5.9-2.85c-0.7-0.8-1.233-1.667-1.6-2.6c-0.2,0.467-0.483,0.9-0.85,1.3c-0.767,0.833-1.7,1.25-2.8,1.25
				s-2.033-0.417-2.8-1.25c-0.6-0.633-0.966-1.383-1.1-2.25c-0.733,0.767-1.617,1.317-2.65,1.65c0.034,0.033,0.083,0.083,0.15,0.15
				c1.333,1.467,2,3.217,2,5.25s-0.667,3.767-2,5.2c-1.333,1.467-2.967,2.2-4.9,2.2c-1.9,0-3.517-0.733-4.85-2.2
				c-1.333-1.433-2-3.167-2-5.2s0.667-3.783,2-5.25c0.966-1.067,2.1-1.733,3.4-2c-1.367-1.5-2.867-3.633-4.5-6.4
				c-1.833-3.434-3.033-5.6-3.6-6.5c-0.367,0.066-0.733,0.1-1.1,0.1c-0.5,0-0.967-0.066-1.4-0.2c-0.2,0.867-0.483,1.7-0.85,2.5
				c-1.3,2.833-3.4,4.25-6.3,4.25c-0.167,0-0.333,0-0.5,0c0.667,1.367,1,2.783,1,4.25c0,1.6-0.5,3.1-1.5,4.5
				c-1.267,1.667-2.934,2.5-5,2.5c-3.867,0-6.767-1.5-8.7-4.5c-1.2-1.867-1.8-3.5-1.8-4.9c0-1,0.15-1.95,0.45-2.85
				c-0.8,0.367-1.667,0.55-2.6,0.55c-1.667,0-3.083-0.566-4.25-1.7c-1.167-1.133-1.75-2.483-1.75-4.05c0-1.566,0.583-2.933,1.75-4.1
				c1.167-1.1,2.583-1.65,4.25-1.65c1.667,0,3.083,0.55,4.25,1.65c1.167,1.167,1.75,2.534,1.75,4.1c0,0.133,0,0.283,0,0.45
				c1.6-1.2,3.483-1.617,5.65-1.25c0.367,0.233,0.717,0.483,1.05,0.75c0.133-2.633,0.817-4.8,2.05-6.5
				c1.233-1.633,2.783-2.617,4.65-2.95c0.833-0.167,1.617-0.167,2.35,0c0.267-1.066,0.733-2.017,1.4-2.85
				c1.133-1.367,2.483-2.05,4.05-2.05c1.6,0,2.967,0.683,4.1,2.05c1.1,1.4,1.65,3.067,1.65,5c0,0.2,0,0.4,0,0.6
				c1.467-0.367,3.117-0.383,4.95-0.05c2.733,0.5,5.033,1.633,6.9,3.4c1.2,1.167,2.05,2.483,2.55,3.95
				c0.233-0.167,0.5-0.25,0.8-0.25c0.333,0,0.617,0.1,0.85,0.3c0.2,0.233,0.3,0.5,0.3,0.8c0,0.3-0.1,0.567-0.3,0.8
				c-0.233,0.2-0.517,0.3-0.85,0.3c-0.133,0-0.25-0.017-0.35-0.05c0.067,0.5,0.1,1,0.1,1.5c0,1.433-0.133,2.767-0.4,4
				c0.5-0.267,1.05-0.4,1.65-0.4c1.1,0,2.033,0.417,2.8,1.25l0.05,0.05c0.1-2.433,0.9-4.533,2.4-6.3c1.633-1.867,3.6-2.8,5.9-2.8
				c0.567,0,1.1,0.05,1.6,0.15c0-0.267,0-0.55,0-0.85c0-1,0.05-1.95,0.15-2.85c-2,0-3.717-0.717-5.15-2.15
				c-1.4-1.434-2.1-3.15-2.1-5.15c0-0.267,0.017-0.533,0.05-0.8c-0.8,0.233-1.667,0.35-2.6,0.35c-2.1,0-3.883-0.65-5.35-1.95
				c-1.434-1.267-2.184-2.767-2.25-4.5c-4.167,0.233-8.3,0.5-12.4,0.8h-16.7c-0.467,1.433-1.283,2.733-2.45,3.9
				c-1.133,1.133-2.4,1.933-3.8,2.4c0.267,0.5,0.4,1.067,0.4,1.7c0,1.167-0.45,2.167-1.35,3c-0.9,0.833-2,1.25-3.3,1.25
				s-2.4-0.417-3.3-1.25c-0.9-0.833-1.35-1.833-1.35-3c0-0.934,0.316-1.767,0.95-2.5c-0.733-0.434-1.417-0.967-2.05-1.6
				c-0.133-0.133-0.267-0.283-0.4-0.45c-0.167,1.3-0.4,2.367-0.7,3.2c-1.633,4.5-5.15,6.75-10.55,6.75
				c-1.033,0-2.05-0.083-3.05-0.25l-1.2-0.25c-2.934-1.533-5.333-3.9-7.2-7.1c-1.533-2.633-2.3-4.9-2.3-6.8c0-0.2,0-0.4,0-0.6
				c-3.934-0.367-6.967-0.65-9.1-0.85c0.067,0.467,0.1,0.95,0.1,1.45c0,1.8-0.517,3.383-1.55,4.75c0.333,0.233,0.667,0.483,1,0.75
				c0.8,0.667,1.534,1.333,2.2,2c1.3-1,2.817-1.5,4.55-1.5c2.1,0,3.883,0.716,5.35,2.15c1.467,1.5,2.2,3.267,2.2,5.3
				s-0.733,3.783-2.2,5.25s-3.25,2.2-5.35,2.2c-1.033,0-1.983-0.167-2.85-0.5c-0.167,0.3-0.35,0.617-0.55,0.95
				c-0.667,1.167-1.35,2.217-2.05,3.15c1.667,0.267,3.117,1.066,4.35,2.4c1.6,1.733,2.4,3.8,2.4,6.2c0,2.4-0.8,4.45-2.4,6.15
				c-1.6,1.733-3.55,2.6-5.85,2.6c-1.267,0-2.434-0.267-3.5-0.8c0,0.033,0,0.083,0,0.15c0,2.133-0.7,3.95-2.1,5.45
				c-1.367,1.533-3.05,2.3-5.05,2.3c-1.934,0-3.6-0.767-5-2.3c-1.367-1.5-2.05-3.317-2.05-5.45s0.684-3.967,2.05-5.5
				c0.566-0.6,1.167-1.066,1.8-1.4c-0.167-0.4-0.25-0.817-0.25-1.25c0-0.967,0.383-1.8,1.15-2.5c0.8-0.7,1.75-1.05,2.85-1.05
				c0.867,0,1.65,0.233,2.35,0.7c0.3-0.933,0.75-1.783,1.35-2.55c-0.5-0.067-0.967-0.15-1.4-0.25c-0.066,0.133-0.15,0.25-0.25,0.35
				c-0.267,0.333-0.6,0.5-1,0.5c-0.4,0-0.733-0.167-1-0.5c-0.233-0.267-0.367-0.583-0.4-0.95c-1.333-0.4-2.35-0.85-3.05-1.35
				c-1.467-1.033-2.967-1.55-4.5-1.55c-0.167,0-0.667,0.417-1.5,1.25c0.2,0.133,0.383,0.283,0.55,0.45
				c0.033,0.034,0.083,0.083,0.15,0.15c1.1,0.1,2.034,0.5,2.8,1.2c0.933,0.867,1.4,1.883,1.4,3.05c0,1.2-0.467,2.216-1.4,3.05
				c-0.9,0.833-2.033,1.25-3.4,1.25c-0.7,0-1.35-0.117-1.95-0.35c-0.4,0.067-0.817,0.1-1.25,0.1c-1.433,0-2.65-0.483-3.65-1.45
				c-1-0.966-1.5-2.133-1.5-3.5c0-0.4,0.05-0.767,0.15-1.1c-0.5,0.2-1.05,0.3-1.65,0.3c-1.167,0-2.167-0.45-3-1.35
				c-0.833-0.867-1.25-1.917-1.25-3.15s0.417-2.3,1.25-3.2c0.433-0.433,0.9-0.75,1.4-0.95c-0.033-0.033-0.05-0.067-0.05-0.1
				c-0.233-0.567-0.35-2.117-0.35-4.65c-1.5,0.667-3.233,0.833-5.2,0.5c0,0.2,0,0.4,0,0.6c0,1.333-0.283,2.533-0.85,3.6
				c0.267,0.133,0.534,0.3,0.8,0.5c1.667,1.233,2.5,2.917,2.5,5.05c0,1.333-0.133,2.7-0.4,4.1c0.267,0.833,0.4,1.8,0.4,2.9
				c0,1.5-0.267,2.767-0.8,3.8c-1.033,2-2.933,2.9-5.7,2.7l-2.25-0.5c-0.6-0.633-1.1-1.217-1.5-1.75
				c-3.833-0.333-5.75-3.083-5.75-8.25c-0.567,0.566-1.184,1.033-1.85,1.4c0.067,0.5,0.1,1.033,0.1,1.6
				c0,2.066-0.633,4.217-1.9,6.45c-1.967,3.434-4.917,5.2-8.85,5.3l-2.25-0.5c-0.7-0.7-1.684-2.567-2.95-5.6
				c-1.2-2.967-1.8-4.85-1.8-5.65c0-2.867,0.883-5.15,2.65-6.85c-1.3-0.5-2.283-1.25-2.95-2.25c-0.466,1.233-1.117,2.567-1.95,4
				c-2.267,3.833-4.85,5.867-7.75,6.1c-2.067-0.3-3.7-1.1-4.9-2.4c-0.9,0.6-1.934,1.066-3.1,1.4l-2.25-0.5
				c-1.833-1.367-2.75-2.867-2.75-4.5c0-2.1,0.583-3.783,1.75-5.05c1.033-1.1,2.333-1.683,3.9-1.75c0.067,0,0.15,0,0.25,0
				c0.3-1.966,1.1-3.7,2.4-5.2c1.8-2.133,4.267-3.133,7.4-3c-0.667-0.3-1.267-0.733-1.8-1.3c-1-1.066-1.5-2.35-1.5-3.85
				s0.5-2.784,1.5-3.85c1.033-1.067,2.25-1.6,3.65-1.6c-0.033-0.033-0.05-0.067-0.05-0.1c-0.167-0.667-0.25-1.933-0.25-3.8
				c0-1.133,0.117-2.15,0.35-3.05c-0.9-0.133-1.717-0.45-2.45-0.95c-0.267,1.167-0.8,2.217-1.6,3.15
				c-0.767,0.867-1.65,1.45-2.65,1.75c-0.2,0.7-0.417,1.4-0.65,2.1c-0.233,0.633-0.467,1.25-0.7,1.85
				c0.233,0.133,0.467,0.316,0.7,0.55c0.633,0.633,0.95,1.417,0.95,2.35c0,0.933-0.316,1.717-0.95,2.35c-0.6,0.633-1.3,0.966-2.1,1
				c0.267,0.7,0.4,1.45,0.4,2.25c0,1.8-0.7,3.35-2.1,4.65c-1.433,1.3-3.167,1.95-5.2,1.95c-2,0-3.7-0.65-5.1-1.95
				c-1.433-1.3-2.15-2.85-2.15-4.65c-4.867-0.467-8.217-1.833-10.05-4.1c-0.966-1.2-1.45-2.95-1.45-5.25c0-2.367,0.467-4.1,1.4-5.2
				c0.167-0.2,1.2-1.1,3.1-2.7c-0.133,0-0.267,0-0.4,0c-2.267,0-4.2-0.85-5.8-2.55c-1.6-1.667-2.4-3.683-2.4-6.05
				c0-0.934,0.133-1.8,0.4-2.6c-0.633,0.1-1.3,0.15-2,0.15c-2.133,0-4.017-0.583-5.65-1.75c-3.533-0.6-6-1.55-7.4-2.85
				c-0.033-0.033-0.067-0.066-0.1-0.1c-0.233,0-0.467,0-0.7,0c-2.566,0-4.767-0.9-6.6-2.7c-1.833-1.8-2.75-3.95-2.75-6.45
				c0-0.466,0.033-0.9,0.1-1.3c0.2,0,0.4,0.017,0.6,0.05c-0.066-0.3-0.1-0.583-0.1-0.85c0-1.333,0.284-2.333,0.85-3
				c1-1.2,2.934-1.8,5.8-1.8c1.9,0,3.45,0.333,4.65,1c0.4-0.4,0.967-0.8,1.7-1.2c1.6-0.833,3.417-1.333,5.45-1.5
				c1.467-0.133,2.8-0.4,4-0.8c1.2-0.433,3.117-0.767,5.75-1c0.433-1.167,1.267-2.283,2.5-3.35c1.833-1.566,4.167-2.533,7-2.9
				c0.867-1.967,1.65-3.133,2.35-3.5c1.633-0.9,4.667-0.833,9.1,0.2c2.267,1.566,3.767,3,4.5,4.3c0.133,0.233,0.25,0.483,0.35,0.75
				c0.8-0.967,2-1.533,3.6-1.7c1.3-0.133,2.4,0.15,3.3,0.85c0.333,0.267,0.617,0.567,0.85,0.9c0.167-0.567,0.467-1.083,0.9-1.55
				c0.233-0.233,0.517-0.467,0.85-0.7c-0.8,0.1-1.733,0.15-2.8,0.15c-1.467,0-2.517-0.7-3.15-2.1c-0.333-0.767-0.5-1.533-0.5-2.3
				c0-1.333,0.566-2.434,1.7-3.3c1.034-0.8,2.284-1.25,3.75-1.35c3.633-0.2,5.45,1.25,5.45,4.35c0,1.333-0.317,2.367-0.95,3.1
				c0.833,0,1.817,0.317,2.95,0.95c0.167,0.1,0.333,0.2,0.5,0.3c0.9-0.7,2.117-1.433,3.65-2.2c1.3-0.633,2.567-0.783,3.8-0.45
				c0.267,0.066,1.65,0.65,4.15,1.75c1.1,0.467,2.7,0.917,4.8,1.35c1.667,0.3,2.583,0.583,2.75,0.85c0.367,0.534,0.684,1,0.95,1.4
				c0.167-0.967,0.683-1.767,1.55-2.4c0.967-0.733,2.15-1.117,3.55-1.15c3.466-0.133,5.2,1.35,5.2,4.45c0,0.8-0.033,1.483-0.1,2.05
				c0.467-0.133,0.95-0.2,1.45-0.2c4.133-0.067,6.2,2.783,6.2,8.55c0,0.2-0.05,0.433-0.15,0.7c0.2,0.1,0.4,0.233,0.6,0.4
				c0.067-0.033,0.117-0.067,0.15-0.1c-0.066-0.333-0.1-0.65-0.1-0.95c0-1,0.466-1.9,1.4-2.7c0.4-0.367,1.55-1.133,3.45-2.3
				c3.567-0.3,6.083,0.717,7.55,3.05c0.733,1.133,1.15,2.333,1.25,3.6c0.867-0.267,1.517-0.65,1.95-1.15
				c0.967-1.167,2.184-2.066,3.65-2.7c1.433-0.633,2.883-0.95,4.35-0.95c2.733,0,4.867,0.6,6.4,1.8c1.3,1.033,2.417,2.783,3.35,5.25
				c0.633-0.034,1.534,0.2,2.7,0.7c1.1,0.467,1.883,0.917,2.35,1.35c0.833-0.3,1.783-0.567,2.85-0.8c-0.1-1.8-0.15-2.8-0.15-3
				c0-0.867,0.2-1.583,0.6-2.15c0.5-0.667,1.4-1.383,2.7-2.15c4.033,0.167,6.667,0.9,7.9,2.2c0.367,0.367,0.617,0.917,0.75,1.65
				c0.733-0.233,1.833-0.55,3.3-0.95c-1-1.733-0.733-3.35,0.8-4.85c1.367-1.333,3.367-2.3,6-2.9c2.633-0.566,4.917-0.566,6.85,0
				c0.5,0.167,0.933,0.35,1.3,0.55c0.5-1.167,1.7-2.35,3.6-3.55c2.733-1.667,5-1.8,6.8-0.4c1.633,1.067,2.983,2.667,4.05,4.8
				c0.966,1.933,1.35,3.483,1.15,4.65c0.633-0.133,1.7-0.133,3.2,0c1.867,0.2,2.917,0.3,3.15,0.3c1.4,0,2.733-0.467,4-1.4
				c1.267-0.933,2.883-1.4,4.85-1.4c2.5,0,4.684,0.3,6.55,0.9c0.333-0.633,0.917-1.15,1.75-1.55c-2.1-0.333-3.617-1.317-4.55-2.95
				c-0.667-1.167-1-2.567-1-4.2c0-2.1,0.2-3.566,0.6-4.4c0.934-1.9,2.967-2.717,6.1-2.45c2.8,0.667,4.733,1.95,5.8,3.85
				c0.633,1.1,0.95,2.367,0.95,3.8c0,0.767-0.2,1.583-0.6,2.45c0.567,0,1.1,0.15,1.6,0.45s0.917,0.7,1.25,1.2
				c-0.033-0.067-0.067-0.133-0.1-0.2c-0.1-0.333-0.15-1.117-0.15-2.35c0-4,1.7-5.7,5.1-5.1c1.3,0.233,2.45,0.817,3.45,1.75
				c0.267,0.233,0.5,0.467,0.7,0.7c-0.033-0.167-0.05-0.317-0.05-0.45c0-0.767,0.4-1.3,1.2-1.6c0.8-0.267,2.45-0.467,4.95-0.6
				c0.133-1.567,0.933-3.117,2.4-4.65c1.8-1.867,3.883-2.667,6.25-2.4c2.8,0.3,5.017,1.117,6.65,2.45c1.434,1.167,3.4,1.75,5.9,1.75
				c3.534,0,5.8,1.033,6.8,3.1c0.167-0.567,0.35-1.083,0.55-1.55c0.667-1.6,1.684-2.633,3.05-3.1c1.8-0.367,3.35-0.284,4.65,0.25
				l-0.5-2.25c0-1.6,0.767-2.85,2.3-3.75c1.367-0.833,3.05-1.233,5.05-1.2c1.966,0.033,3.633,0.5,5,1.4c1.533,1,2.3,2.333,2.3,4
				c0,0.3-0.017,0.6-0.05,0.9c0.6-0.433,1.283-0.683,2.05-0.75c1.2-0.1,2.2,0.284,3,1.15c0.367,0.4,0.667,0.867,0.9,1.4
				c0.367-0.167,0.8-0.283,1.3-0.35c-0.1-0.533-0.15-1.15-0.15-1.85c0-1.867,0.483-3.483,1.45-4.85c1.633-2.267,4.383-3.2,8.25-2.8
				c2.367,1.733,3.7,2.783,4,3.15c0.367,0.467,0.55,1.367,0.55,2.7c0,0.1,0,0.2,0,0.3c0.367-0.367,0.65-0.566,0.85-0.6
				c5.767-0.2,9.8,0.8,12.1,3c1.233,1.2,2.267,2.934,3.1,5.2c0.5,0.033,1.117,0.267,1.851,0.7c0.7,0.4,1.333,0.6,1.899,0.6
				c0.567,0,1.65-0.233,3.25-0.7c1.634-0.5,2.717-0.75,3.25-0.75c2.9,0,5.017,0.717,6.351,2.15c0.566,0.6,1.017,1.5,1.35,2.7
				c0.3,0,1-0.15,2.101-0.45c1.267-0.3,2.25-0.5,2.949-0.6c1.5,0.7,2.733,1.533,3.7,2.5c0.367-0.033,0.9,0.083,1.601,0.35
				c-0.167-0.767-0.25-1.6-0.25-2.5c0-1.6,0.533-2.85,1.6-3.75c0.967-0.833,2.15-1.217,3.55-1.15c1.4,0.066,2.566,0.6,3.5,1.6
				c1.066,1.1,1.601,2.566,1.601,4.4c0,1.133-0.017,2.05-0.051,2.75c2.801,0.533,4.95,1.683,6.45,3.45
				c0.101-1.133,0.717-2.333,1.851-3.6c1.5-1.7,3.267-2.317,5.3-1.85c0.8,0.633,1.684,1.816,2.649,3.55c0.067,0.1,0.134,0.2,0.2,0.3
				c0.233-0.2,0.533-0.4,0.9-0.6c1.267-0.667,2.8-1.05,4.6-1.15c0.967-0.034,1.834,0,2.601,0.1c0.1-1.333,0.666-2.466,1.699-3.4
				c1.067-0.9,2.317-1.383,3.75-1.45c3.634-0.2,5.45,1.716,5.45,5.75c1.167,0.066,2.267,0.2,3.3,0.4
				c1.301,0.233,2.417,0.55,3.351,0.95c-0.101-0.333-0.15-0.65-0.15-0.95c0-2.333,2.867-3.5,8.601-3.5c0.466,0,2.05,0.5,4.75,1.5
				l4.05,1.5c1.767,0,3.45-0.15,5.05-0.45c0.2-0.8,0.634-1.566,1.3-2.3c1.467-1.633,3.783-2.367,6.95-2.2
				c2.467,0.833,3.75,2.017,3.85,3.55c0.067,0.566,0.017,1.3-0.149,2.2c0.7,0.967,1.149,2.2,1.35,3.7
				c0.033,0.033,0.066,0.083,0.101,0.15c0.533,0.7,0.949,1.3,1.25,1.8c0.833,0.2,1.583,0.667,2.25,1.4
				c1.166,1.267,1.75,3.117,1.75,5.55c0,3.367-1.45,5.05-4.351,5.05c-0.033,0-0.066,0-0.1,0c-0.101,0.2-0.167,0.4-0.2,0.6
				c0.1-0.066,0.217-0.133,0.35-0.2C488.25,54.317,489.45,54.25,490.45,54.75z M415.35,91c-0.1,0-0.166-0.033-0.199-0.1
				c-0.067-0.066-0.101-0.15-0.101-0.25c0-0.066,0.033-0.133,0.101-0.2c0.033-0.067,0.1-0.1,0.199-0.1c0.067,0,0.134,0.033,0.2,0.1
				c0.066,0.066,0.101,0.133,0.101,0.2c0,0.1-0.034,0.184-0.101,0.25C415.483,90.967,415.417,91,415.35,91z M411.95,88.95
				c1,0.966,1.5,2.1,1.5,3.4c0,0.5-0.066,0.983-0.2,1.45c0.134,1.034,0.2,2.133,0.2,3.3c0,2.667-0.783,5.583-2.351,8.75
				c-2.133,4.333-5.017,6.5-8.649,6.5c0.133,0.267,0.233,0.55,0.3,0.85c1.066,0,1.967,0.316,2.7,0.95c0.733,0.667,1.1,1.45,1.1,2.35
				s-0.366,1.667-1.1,2.3s-1.634,0.95-2.7,0.95s-1.967-0.317-2.7-0.95c-0.366-0.3-0.633-0.633-0.8-1
				c-0.866-0.033-1.616-0.4-2.25-1.1c-0.667-0.7-1-1.55-1-2.55c0-1.033,0.333-1.917,1-2.65c0.033-0.033,0.066-0.067,0.1-0.1
				c-1.233-0.667-2.316-1.633-3.25-2.9c-0.8,0.467-1.683,0.75-2.649,0.85c-3.167-1.467-5.2-2.767-6.101-3.9
				c-0.6-0.733-0.899-1.85-0.899-3.35c0-1.767,0.717-3.217,2.149-4.35c1.134-0.933,2.5-1.5,4.101-1.7c0.066-3.733,1.267-6.8,3.6-9.2
				c1.134-1.167,2.384-2.067,3.75-2.7c-0.5-0.733-0.75-1.566-0.75-2.5c0-1.1,0.316-2.05,0.95-2.85c0.6-0.767,1.35-1.15,2.25-1.15
				c0.866,0,1.616,0.383,2.25,1.15c0.634,0.8,0.95,1.75,0.95,2.85c0,0.533-0.066,1.033-0.2,1.5c2.6,0.133,4.8,1.167,6.6,3.1
				c0.667,0.7,1.25,1.5,1.75,2.4C411.7,88.75,411.816,88.85,411.95,88.95z M414.7,99.45c0-1.967,0.649-3.684,1.95-5.15
				c1.166-1.333,2.6-2.183,4.3-2.55s3.133-0.117,4.3,0.75c1.3,0.933,1.95,2.467,1.95,4.6c0,2.1-0.15,3.6-0.45,4.5
				c-0.767,2.333-2.45,3.5-5.05,3.5c-3.601,0-5.834-0.883-6.7-2.65c-0.3-0.567-0.434-1.217-0.4-1.95
				C414.667,99.867,414.7,99.517,414.7,99.45z M444.85,101.4c0.134-0.133,0.284-0.25,0.45-0.35c0.767-0.466,1.617-0.767,2.55-0.9
				c-1.033-0.333-2-0.733-2.899-1.2c0,0.267,0,0.533,0,0.8C444.95,100.317,444.917,100.867,444.85,101.4z M481.7,62.05
				c-0.066,0-0.117,0.017-0.15,0.05c0.033,0,0.084,0.017,0.15,0.05C481.667,62.117,481.667,62.083,481.7,62.05z M474.8,58.95
				c1.066-0.267,2.033-0.517,2.9-0.75c-0.767-0.267-1.467-0.65-2.101-1.15C475.434,57.717,475.167,58.35,474.8,58.95z M452.2,73.85
				c0.1-0.833,0.25-1.617,0.45-2.35c-0.301,0.367-0.634,0.717-1,1.05c-0.434,0.4-0.9,0.767-1.4,1.1
				c-0.066,0.067-0.134,0.133-0.2,0.2c-0.767,0.867-1.7,1.3-2.8,1.3c-0.066,0-0.134,0-0.2,0c-0.1,0.067-0.184,0.117-0.25,0.15
				c0.334,0,0.667,0.034,1,0.1c1.101-0.566,2.233-1.017,3.4-1.35C451.533,73.95,451.866,73.883,452.2,73.85z M472.8,102.9
				c1.2,0,2.233,0.467,3.101,1.4c0.433,0.467,0.75,0.983,0.949,1.55c0.034,0,0.084,0,0.15,0c0.533,0,0.967,0.183,1.3,0.55
				c0.367,0.333,0.55,0.75,0.55,1.25s-0.183,0.917-0.55,1.25c-0.333,0.367-0.767,0.55-1.3,0.55c-0.066,0-0.116,0-0.15,0
				c-0.233,0.533-0.55,1.033-0.949,1.5c-0.867,0.933-1.9,1.4-3.101,1.4s-2.233-0.467-3.1-1.4c-0.834-0.934-1.25-2.05-1.25-3.35
				c0-1.267,0.416-2.367,1.25-3.3C470.566,103.367,471.6,102.9,472.8,102.9z M340.35,82.55c-0.1-0.4-0.15-0.8-0.15-1.2
				c-0.2,0.133-0.417,0.25-0.65,0.35c0.2,0.3,0.383,0.617,0.55,0.95C340.167,82.617,340.25,82.583,340.35,82.55z M332.1,91.8
				c1.5,1.1,2.25,2.284,2.25,3.55c0,1.3-0.733,2.967-2.2,5c-1.733,2.433-3.667,3.6-5.8,3.5c-2.767-0.434-4.65-1.583-5.65-3.45
				c-0.567-1.066-0.85-2.467-0.85-4.2c0-2.467,0.75-4.25,2.25-5.35c1.3-0.934,2.967-1.267,5-1
				C328.967,90.083,330.633,90.733,332.1,91.8z M357.65,101.8c-1.333,0.567-2.35,1.35-3.05,2.35c-0.467,0.633-0.983,1.817-1.55,3.55
				c-0.5,1.466-1.1,2.5-1.8,3.1c-0.333,0.3-0.733,0.55-1.2,0.75c-0.167,0.5-0.466,0.967-0.9,1.4c-0.033,0.033-0.05,0.066-0.05,0.1
				c0.7,1.034,1.05,2.2,1.05,3.5c0,0.133,0,0.284,0,0.45c0.167-1.267,0.833-2.617,2-4.05c1.3-1.567,2.8-2.733,4.5-3.5
				c0.733-0.333,1.417-0.534,2.05-0.6c-0.2-1.133-0.217-2.5-0.05-4.1c0.067-0.633,0.133-1.167,0.2-1.6
				C358.383,102.717,357.983,102.267,357.65,101.8z M392.75,78.8c0.2-0.2,0.45-0.3,0.75-0.3c0.267,0,0.517,0.1,0.75,0.3
				c0.2,0.233,0.3,0.483,0.3,0.75c0,0.3-0.1,0.567-0.3,0.8c-0.233,0.2-0.483,0.3-0.75,0.3c-0.3,0-0.55-0.1-0.75-0.3
				c-0.2-0.233-0.3-0.5-0.3-0.8C392.45,79.283,392.55,79.033,392.75,78.8z M374.45,78.25c0.1-0.067,0.217-0.117,0.35-0.15h-0.45
				C374.384,78.133,374.417,78.183,374.45,78.25z M333.35,129.6c0,1.367-0.567,2.867-1.7,4.5c-1.566,2.167-3.667,3.25-6.3,3.25
				c-3.033,0-5.267-1.25-6.7-3.75c-0.867-1.5-1.3-2.883-1.3-4.15c0-2.567,0.767-4.534,2.3-5.9c-0.8,0.167-1.816,0.45-3.05,0.85
				c-2.367,0.8-4.45,1.283-6.25,1.45l-2.25-0.5c-1.3-0.333-2.25-1.184-2.85-2.55c-0.433-0.966-0.65-2.117-0.65-3.45
				c0-2.2,0.6-4.117,1.8-5.75c1.7-2.333,4.35-3.333,7.95-3c0.967-0.2,3.1,1.2,6.4,4.2c3.233,2.934,4.85,4.817,4.85,5.65
				c0,0.5-0.067,0.933-0.2,1.3c2.1,0.133,3.917,0.883,5.45,2.25C332.517,125.5,333.35,127.367,333.35,129.6z M443,106
				c-0.033-0.133-0.05-0.267-0.05-0.4c-0.033,0.033-0.066,0.083-0.101,0.15C442.884,105.817,442.934,105.9,443,106z M417.85,112.4
				c0,0.333-0.1,0.617-0.3,0.85s-0.434,0.35-0.7,0.35s-0.5-0.117-0.699-0.35c-0.2-0.233-0.301-0.517-0.301-0.85
				c0-0.3,0.101-0.566,0.301-0.8c0.199-0.233,0.433-0.35,0.699-0.35s0.5,0.117,0.7,0.35S417.85,112.1,417.85,112.4z M410.55,123.55
				c0-1.966,0.65-3.65,1.95-5.05s2.866-2.1,4.7-2.1c1.833,0,3.399,0.7,4.7,2.1c1.3,1.4,1.949,3.083,1.949,5.05
				c0,2-0.649,3.684-1.949,5.05c-1.301,1.433-2.867,2.15-4.7,2.15c-1.834,0-3.4-0.717-4.7-2.15
				C411.2,127.233,410.55,125.55,410.55,123.55z M244.6,36.05c-0.733,0.733-1.633,1.1-2.7,1.1c-2.267,0-3.95-0.617-5.05-1.85
				c-0.7-0.8-1.05-1.633-1.05-2.5c0-1.333,0.517-2.4,1.55-3.2c0.933-0.733,2.066-1.1,3.4-1.1c3.3,0,4.95,1.483,4.95,4.45
				C245.7,34.217,245.333,35.25,244.6,36.05z M276.7,75c-1.833,0.167-3.55,0.317-5.15,0.45c0.034,0.233,0.05,0.483,0.05,0.75
				c0,0.033,0,0.066,0,0.1c0.667-0.2,1.383-0.3,2.15-0.3c1,0,1.917,0.167,2.75,0.5c0.2-0.4,0.417-0.767,0.65-1.1
				C276.983,75.267,276.833,75.133,276.7,75z M253.15,68.4c-0.6,0.567-1.3,0.85-2.1,0.85c-0.333,0-0.65-0.05-0.95-0.15
				c-0.1,0-0.184,0-0.25,0c-1.7,0-3.217-0.517-4.55-1.55c0.034,0.2,0.05,0.417,0.05,0.65c0,1.833-0.267,3.35-0.8,4.55h0.85
				c4.4-0.433,8.533-0.85,12.4-1.25c-0.833-0.367-1.6-0.917-2.3-1.65c-0.6-0.633-1.05-1.3-1.35-2l-0.05-0.05
				C253.8,68.033,253.483,68.233,253.15,68.4z M246.85,69.3c0.267,0,0.483,0.083,0.65,0.25c0.167,0.167,0.25,0.367,0.25,0.6
				s-0.083,0.434-0.25,0.6S247.117,71,246.85,71c-0.233,0-0.45-0.083-0.65-0.25c-0.167-0.167-0.25-0.367-0.25-0.6
				s0.083-0.433,0.25-0.6C246.4,69.383,246.617,69.3,246.85,69.3z M255.7,83.9c0.533-0.467,1.167-0.7,1.9-0.7
				c0.767,0,1.4,0.233,1.9,0.7c0.533,0.5,0.8,1.083,0.8,1.75c0,0.7-0.267,1.283-0.8,1.75c-0.5,0.5-1.133,0.75-1.9,0.75
				c-0.733,0-1.367-0.25-1.9-0.75c-0.534-0.467-0.8-1.05-0.8-1.75C254.9,84.983,255.167,84.4,255.7,83.9z M261.55,95.75
				c0.167-0.167,0.383-0.25,0.65-0.25c0.233,0,0.45,0.083,0.65,0.25c0.167,0.133,0.25,0.317,0.25,0.55c0,0.2-0.083,0.383-0.25,0.55
				c-0.2,0.133-0.417,0.2-0.65,0.2c-0.267,0-0.483-0.066-0.65-0.2c-0.167-0.167-0.25-0.35-0.25-0.55
				C261.3,96.067,261.383,95.883,261.55,95.75z M290.1,74.75h-0.65c0.1,0.2,0.183,0.4,0.25,0.6
				C289.8,75.15,289.933,74.95,290.1,74.75z M290.35,79.1c1.467,0.533,2.867,1.283,4.2,2.25c-0.6-1.1-0.917-2.283-0.95-3.55
				c-0.1,0.2-0.233,0.4-0.4,0.6c-0.434,0.533-0.95,0.8-1.55,0.8c-0.566,0-1.05-0.217-1.45-0.65
				C290.233,78.717,290.283,78.9,290.35,79.1z M294.1,74.8h-0.85c0.267,0.3,0.45,0.65,0.55,1.05
				C293.867,75.483,293.967,75.133,294.1,74.8z M321.15,85.3c0,1.067-0.367,1.983-1.1,2.75c-0.767,0.767-1.683,1.15-2.75,1.15
				c-0.333,0-0.65-0.034-0.95-0.1c0.167,0.133,0.333,0.283,0.5,0.45c1,1.067,1.5,2.317,1.5,3.75c0,1.434-0.5,2.65-1.5,3.65
				c-0.967,1.033-2.15,1.55-3.55,1.55c-1.4,0-2.6-0.517-3.6-1.55c-0.967-1-1.45-2.217-1.45-3.65c0-1.433,0.483-2.683,1.45-3.75
				c0.167-0.167,0.333-0.3,0.5-0.4c-0.1-0.1-0.2-0.2-0.3-0.3c-0.767-0.867-1.15-1.9-1.15-3.1s0.383-2.233,1.15-3.1
				c0.8-0.867,1.75-1.3,2.85-1.3c0.867,0,1.633,0.267,2.3,0.8c0.633-0.5,1.383-0.75,2.25-0.75c1.067,0,1.983,0.383,2.75,1.15
				C320.783,83.317,321.15,84.233,321.15,85.3z M312.05,101.5c0.9-0.833,1.983-1.25,3.25-1.25c1.3,0,2.4,0.417,3.3,1.25
				c0.867,0.833,1.3,1.817,1.3,2.95c0,1.167-0.433,2.167-1.3,3c-0.9,0.833-2,1.25-3.3,1.25c-1.267,0-2.35-0.417-3.25-1.25
				c-0.9-0.833-1.35-1.833-1.35-3C310.7,103.317,311.15,102.333,312.05,101.5z M164.25,72.7c-1.033,0.633-2.183,0.95-3.45,0.95
				c-2,0-3.7-0.816-5.1-2.45c-0.434-0.467-0.784-0.967-1.05-1.5c-2.4-0.8-5.25-1.534-8.55-2.2c-1.733,0.9-3.684,1.35-5.85,1.35
				c-0.767,0-1.5-0.05-2.2-0.15c0.434,1.033,0.65,2.2,0.65,3.5c0,0.1,0,0.2,0,0.3c0.933-0.433,1.95-0.683,3.05-0.75
				c2.3-0.133,4.267,0.55,5.9,2.05c1.167,1.067,1.967,2.383,2.4,3.95c0.1-0.1,0.217-0.183,0.35-0.25
				c3.333-2.167,7.617-2.733,12.85-1.7c0.233,0.034,0.467,0.083,0.7,0.15c0.033-1.133,0.283-2.184,0.75-3.15
				C164.533,72.767,164.383,72.733,164.25,72.7z M193.15,92.1c0.033,0.033,0.05,0.066,0.05,0.1c0,0.033-0.017,0.066-0.05,0.1
				c-0.033,0.034-0.066,0.05-0.1,0.05c-0.033,0-0.066-0.017-0.1-0.05c-0.034-0.033-0.05-0.066-0.05-0.1
				c0-0.034,0.017-0.067,0.05-0.1c0.033-0.033,0.066-0.05,0.1-0.05C193.083,92.05,193.117,92.067,193.15,92.1z M199,102.25
				c1.367,1.533,2.05,3.367,2.05,5.5s-0.683,3.95-2.05,5.45c-1.367,1.533-3.033,2.3-5,2.3s-3.633-0.767-5-2.3
				c-1.367-1.5-2.05-3.317-2.05-5.45s0.683-3.967,2.05-5.5c1.367-1.5,3.033-2.25,5-2.25S197.633,100.75,199,102.25z M204.75,118.65
				c-0.8-0.767-1.2-1.7-1.2-2.8s0.4-2.05,1.2-2.85c0.8-0.767,1.767-1.15,2.9-1.15c1.167,0,2.15,0.383,2.95,1.15
				c0.8,0.8,1.2,1.75,1.2,2.85s-0.4,2.033-1.2,2.8c-0.8,0.8-1.783,1.2-2.95,1.2C206.517,119.85,205.55,119.45,204.75,118.65z
				 M198.85,115.7c0.2,0.2,0.3,0.433,0.3,0.7s-0.1,0.483-0.3,0.65c-0.167,0.2-0.4,0.3-0.7,0.3c-0.267,0-0.483-0.1-0.65-0.3
				c-0.2-0.167-0.3-0.383-0.3-0.65s0.1-0.5,0.3-0.7c0.167-0.167,0.383-0.25,0.65-0.25C198.45,115.45,198.683,115.533,198.85,115.7z
				 M190.1,116.1c0,0.9-0.3,1.667-0.9,2.3c-0.6,0.633-1.35,0.95-2.25,0.95c-0.833,0-1.567-0.317-2.2-0.95
				c-0.6-0.633-0.9-1.4-0.9-2.3c0-0.867,0.3-1.617,0.9-2.25c0.633-0.633,1.367-0.95,2.2-0.95c0.9,0,1.65,0.317,2.25,0.95
				C189.8,114.483,190.1,115.233,190.1,116.1z M302.75,124.25c0.2,0.2,0.3,0.433,0.3,0.7c0,0.3-0.1,0.55-0.3,0.75
				c-0.2,0.2-0.45,0.3-0.75,0.3c-0.267,0-0.5-0.1-0.7-0.3c-0.2-0.2-0.3-0.45-0.3-0.75c0-0.267,0.1-0.5,0.3-0.7
				c0.2-0.2,0.434-0.3,0.7-0.3C302.3,123.95,302.55,124.05,302.75,124.25z M113.95,62.7l-4.25-0.05
				c-0.167,0.267-0.35,0.517-0.55,0.75c-0.433,0.5-0.883,0.9-1.35,1.2c0,0.167,0,0.333,0,0.5c0,0.333-0.033,0.65-0.1,0.95
				c0.767,0.267,1.466,0.717,2.1,1.35c0.633-0.4,1.333-0.65,2.1-0.75c0.033-0.633,0.317-1.183,0.85-1.65
				c0.6-0.533,1.333-0.8,2.2-0.8s1.6,0.267,2.2,0.8c0.633,0.533,0.95,1.167,0.95,1.9c0,0.434-0.117,0.833-0.35,1.2l0.05,0.05
				c1.267,1.133,1.9,2.483,1.9,4.05c0,1.566-0.633,2.9-1.9,4c-1.233,1.133-2.75,1.7-4.55,1.7c-0.6,0-1.167-0.066-1.7-0.2
				c-0.9,2.1-2.633,3.15-5.2,3.15l-0.4-0.1c0.1,0.467,0.15,0.95,0.15,1.45c0,1.5-0.5,2.783-1.5,3.85c-0.833,0.9-1.8,1.434-2.9,1.6
				c0.3,0.067,0.6,0.133,0.9,0.2c1.133,0.933,2.083,1.933,2.85,3c0.333-0.8,0.833-1.45,1.5-1.95c1.267-0.967,2.816-1.316,4.65-1.05
				c1.833,0.3,3.383,1.1,4.65,2.4c0.1,0.1,0.183,0.2,0.25,0.3c1.167-0.8,2.483-1.2,3.95-1.2c2.2,0,4.066,0.833,5.6,2.5
				c1.4,1.6,2.15,3.5,2.25,5.7c0-0.033,0.017-0.066,0.05-0.1c0.2-0.233,0.417-0.434,0.65-0.6c-1.067-1.3-1.6-2.85-1.6-4.65
				c0-1.867,0.583-3.467,1.75-4.8c1.133-1.3,2.517-1.967,4.15-2c-0.133-0.767-0.2-1.617-0.2-2.55c0-1.1,0.1-2.117,0.3-3.05
				c-0.333,0.034-0.667,0.05-1,0.05c-1.733,0-3.2-0.75-4.4-2.25c-1.233-1.5-1.85-3.3-1.85-5.4c0-2.133,0.617-3.95,1.85-5.45
				c0.467-0.567,0.967-1.033,1.5-1.4c-0.033-0.033-0.067-0.067-0.1-0.1c-0.133-0.133-0.233-0.267-0.3-0.4
				c-0.367-0.033-0.733-0.083-1.1-0.15c-0.133,0.133-0.267,0.267-0.4,0.4c-1.367,1.333-2.783,2-4.25,2
				c-2.367,0-3.867-0.917-4.5-2.75c-0.033-0.333-0.05-0.65-0.05-0.95C116.033,63.033,114.417,62.8,113.95,62.7z M119.45,78.55
				c0.733,0.733,1.1,1.617,1.1,2.65c0,1-0.367,1.867-1.1,2.6c-0.733,0.7-1.633,1.05-2.7,1.05s-1.967-0.35-2.7-1.05
				c-0.733-0.733-1.1-1.6-1.1-2.6c0-1.034,0.367-1.917,1.1-2.65c0.733-0.7,1.633-1.05,2.7-1.05S118.717,77.85,119.45,78.55z
				 M92.95,83.95c0.333-0.434,0.75-0.65,1.25-0.65s0.933,0.217,1.3,0.65c0.333,0.466,0.5,1,0.5,1.6c0,0.633-0.167,1.167-0.5,1.6
				c-0.367,0.434-0.8,0.65-1.3,0.65s-0.917-0.216-1.25-0.65c-0.367-0.433-0.55-0.967-0.55-1.6C92.4,84.95,92.583,84.417,92.95,83.95
				z M81.95,101.35c-0.733,0.6-1.633,0.9-2.7,0.9c-0.133,0-0.267,0-0.4,0c1.333,1.433,2,3.217,2,5.35c0,1.667-0.417,3.183-1.25,4.55
				c-1.033,1.633-2.45,2.45-4.25,2.45c-2.9,0-5.233-1.75-7-5.25c-0.3-0.867-0.55-1.633-0.75-2.3c-0.167,0.167-0.317,0.317-0.45,0.45
				c-1.167,1.133-2.566,1.7-4.2,1.7c-0.534,0-1.05-0.05-1.55-0.15c-0.367,0.067-0.75,0.1-1.15,0.1c-1.433,0-2.633-0.566-3.6-1.7
				c0.4,1.433,0.8,3.1,1.2,5c0,1.533-0.4,3.167-1.2,4.9c-0.233,0.533-0.5,1-0.8,1.4c0,1.5-0.383,2.767-1.15,3.8
				c-0.867,1.133-2.317,2.15-4.35,3.05c-3.233-0.7-5.417-1.75-6.55-3.15c-0.633-0.733-0.95-1.733-0.95-3c0-1.4,0.267-2.617,0.8-3.65
				c-0.2-0.7-0.3-1.483-0.3-2.35c0-0.333,0-0.667,0-1c-1.6,0.933-3.6,1.4-6,1.4c-4.033,0-6.783-1.383-8.25-4.15
				c-0.467-0.9-0.767-1.9-0.9-3c-0.067-0.4-0.1-0.9-0.1-1.5c0-1.267,0.85-3.5,2.55-6.7c1.733-3.3,3.133-5.183,4.2-5.65
				c0.833-0.4,1.65-0.7,2.45-0.9c-2.867-0.5-4.767-2.05-5.7-4.65c-0.367-1-0.55-2.133-0.55-3.4c0.034-1.066,0.05-1.633,0.05-1.7
				c0-3.321,0.75-6.038,2.25-8.15c-0.034,0.017-0.067,0.034-0.1,0.05c-1.933,1.867-4.283,2.8-7.05,2.8c-2.733,0-5.067-0.933-7-2.8
				c-1.934-1.833-2.9-4.05-2.9-6.65c0-2.567,0.967-4.784,2.9-6.65c1.933-1.833,4.267-2.75,7-2.75c2.767,0,5.117,0.917,7.05,2.75
				c1.933,1.867,2.9,4.083,2.9,6.65c0,1.966-0.55,3.716-1.65,5.25c1.267-1.267,2.767-2,4.5-2.2c2.1-0.233,3.9,0.333,5.4,1.7
				c1.633,1.533,2.45,3.667,2.45,6.4c0,0.9-0.367,2-1.1,3.3c-0.033,0.067-0.067,0.133-0.1,0.2c1.367-0.467,3.184-0.417,5.45,0.15
				c0.633,0.167,1.283,0.383,1.95,0.65c0.133-1.533,0.75-2.85,1.85-3.95c1.233-1.267,2.733-1.9,4.5-1.9c1.8,0,3.317,0.633,4.55,1.9
				c1.267,1.267,1.9,2.783,1.9,4.55c0,1.8-0.633,3.333-1.9,4.6C62.717,89.367,61.2,90,59.4,90c-0.333,0-0.633-0.017-0.9-0.05
				c-0.567,0.767-1.283,1.683-2.15,2.75c-2.434,2.966-4.1,4.433-5,4.4c-1.934-0.5-3.533-1.083-4.8-1.75c0.867,1.267,1.3,2.6,1.3,4
				c0,0.467,0,0.917,0,1.35c1-0.434,2.167-0.55,3.5-0.35l2.25,0.5c0.233,0.133,0.467,0.367,0.7,0.7c0.1-0.5,0.317-0.95,0.65-1.35
				c0.3-0.333,0.633-0.567,1-0.7c0.167-0.267,0.367-0.533,0.6-0.8c1-1.2,2.233-1.8,3.7-1.8c0.933,0,1.767,0.233,2.5,0.7
				c0.067,0,0.133,0,0.2,0c1.633,0,3.033,0.566,4.2,1.7c0.5,0.467,0.9,0.983,1.2,1.55c0.133-0.133,0.3-0.25,0.5-0.35
				c0.833-0.5,1.767-0.8,2.8-0.9c-0.4-0.2-0.767-0.467-1.1-0.8c-0.733-0.733-1.1-1.633-1.1-2.7c0-1.067,0.367-1.983,1.1-2.75
				c0.733-0.733,1.633-1.1,2.7-1.1s1.967,0.367,2.7,1.1c0.733,0.767,1.1,1.683,1.1,2.75c0,0.167,0,0.316,0,0.45
				c0.633-0.4,1.367-0.6,2.2-0.6c1.067,0,1.967,0.3,2.7,0.9c0.733,0.633,1.1,1.383,1.1,2.25S82.683,100.717,81.95,101.35z
				 M51.85,68.5c-0.934,0-1.733-0.417-2.4-1.25c-0.667-0.8-1-1.767-1-2.9s0.333-2.1,1-2.9c0.667-0.8,1.466-1.2,2.4-1.2
				c0.933,0,1.733,0.4,2.4,1.2c0.667,0.8,1,1.767,1,2.9s-0.333,2.1-1,2.9C53.583,68.083,52.783,68.5,51.85,68.5z M43,92.3
				c-0.167-0.4-0.3-0.867-0.4-1.4c-0.367,0.367-0.767,0.65-1.2,0.85C41.967,91.85,42.5,92.033,43,92.3z M75.7,100.15
				c-0.133-0.3-0.2-0.617-0.2-0.95c-0.333,0.267-0.683,0.466-1.05,0.6C74.883,99.867,75.3,99.983,75.7,100.15z M96.1,108.4
				c1.933,0,3.583,0.767,4.95,2.3c1.333,1.6,2,3.483,2,5.65c0,2.2-0.667,4.066-2,5.6c-1.033,1.2-2.233,1.95-3.6,2.25
				c-0.4,1.4-1.1,2.65-2.1,3.75c-1.6,1.833-3.567,2.75-5.9,2.75c-2.3,0-4.25-0.917-5.85-2.75c-1.633-1.8-2.45-3.983-2.45-6.55
				c0-2.566,0.817-4.783,2.45-6.65c1.6-1.8,3.55-2.7,5.85-2.7c0.267,0,0.533,0.017,0.8,0.05c0.267-0.5,0.583-0.967,0.95-1.4
				C92.533,109.167,94.167,108.4,96.1,108.4z"/>
		</g>
	</g>
	<g>
		<g>
			<path fill-rule="evenodd" clip-rule="evenodd" fill="#D3B166" d="M492.2,70.2c0,6.1-2.667,10.233-8,12.4
				c-0.667-0.233-1.3-0.467-1.9-0.7c-2.366,2.867-4.066,4.434-5.1,4.7l-4.25-0.75c-0.634-0.434-1.217-0.9-1.75-1.4
				c0,1.433-0.517,3.233-1.55,5.4c-1.067,2.3-2.134,3.633-3.2,4l-2.25,0.5c-2.3,0.3-4.117-1.1-5.45-4.2
				c-0.866-3.2-1.3-4.85-1.3-4.95c0-1.4,0.366-2.534,1.1-3.4c-0.566,0.233-1.184,0.35-1.85,0.35c-1.233,0-2.283-0.417-3.15-1.25
				c-0.866-0.8-1.3-1.783-1.3-2.95c0-1.167,0.434-2.15,1.3-2.95c0.867-0.833,1.917-1.25,3.15-1.25s2.283,0.417,3.149,1.25
				c0.867,0.8,1.301,1.783,1.301,2.95c0,0.867-0.233,1.633-0.7,2.3c1.166-0.7,2.75-1.333,4.75-1.9l2.05,0.45
				c-0.7-1.066-1.05-2.216-1.05-3.45c0-0.733,0.05-1.45,0.149-2.15c-0.833-1.333-1.25-2.85-1.25-4.55c0-1.9,0.534-3.566,1.601-5
				c-1.134-0.2-2.117-0.717-2.95-1.55c-0.333-0.333-0.6-0.684-0.8-1.05c-0.267,0.034-0.517,0.05-0.75,0.05l-1.9-0.4
				c-0.267,0.9-0.767,1.7-1.5,2.4c-1.3,1.267-3.166,1.933-5.6,2h-0.05c0,1.333-0.584,2.5-1.75,3.5c-1.167,1-2.584,1.5-4.25,1.5
				c-0.9,0-1.717-0.133-2.45-0.4c-1.334,1.1-2.884,1.966-4.65,2.6c0,0.2,0,0.417,0,0.65c0,2.033-0.733,3.767-2.2,5.2
				c-0.733,0.767-1.566,1.333-2.5,1.7c1.767,1.267,2.717,2.617,2.851,4.05c4.467-0.767,7.916,0.583,10.35,4.05
				c1.767,2.5,2.65,5,2.65,7.5c0,3.033-0.65,5.667-1.95,7.9c-1.9,3.167-4.917,4.75-9.05,4.75c-2.434,0-4.55-0.317-6.351-0.95
				c0.5,1.167,0.75,2.417,0.75,3.75c0,2.6-0.916,4.817-2.75,6.65c-1.833,1.867-4.066,2.8-6.699,2.8c-2.601,0-4.817-0.934-6.65-2.8
				c-1.833-1.833-2.75-4.05-2.75-6.65c0-2.566,0.917-4.783,2.75-6.65c1.833-1.833,4.05-2.75,6.65-2.75c0.866,0,1.683,0.1,2.449,0.3
				c-0.466-0.933-0.783-1.917-0.949-2.95c-6.4-0.1-10.551-1.817-12.45-5.15c-0.634-1.1-0.983-2.317-1.05-3.65
				c0.033-1.167,0.05-1.783,0.05-1.85c0-4.267,1.3-7.4,3.899-9.4c2.2-1.7,5.067-2.45,8.601-2.25c0.133,0,0.25,0.017,0.35,0.05
				c-0.633-1.1-0.95-2.317-0.95-3.65c0-0.333,0.017-0.667,0.051-1c-1.134-1.567-1.7-3.434-1.7-5.6c0-0.4,0.017-0.767,0.05-1.1
				c-0.3,0.033-0.6,0.067-0.9,0.1c-3.466,0.467-6.683,0.816-9.649,1.05c-0.434,1.533-1.233,2.9-2.4,4.1
				c-0.033,0.033-0.066,0.067-0.1,0.1c0.6,0.033,1.116,0.233,1.55,0.6c0.267-0.767,0.75-1.45,1.45-2.05
				c1.1-0.967,2.45-1.45,4.05-1.45s2.95,0.483,4.05,1.45c1.134,0.967,1.7,2.133,1.7,3.5c0,1.333-0.566,2.483-1.7,3.45
				c-1.1,0.967-2.45,1.45-4.05,1.45s-2.95-0.483-4.05-1.45c-0.167-0.167-0.334-0.317-0.5-0.45c-0.134,0.267-0.3,0.517-0.5,0.75
				c-0.566,0.667-1.267,1-2.101,1c-0.833,0-1.533-0.333-2.1-1c-0.566-0.667-0.85-1.467-0.85-2.4c0-0.5,0.083-0.967,0.25-1.4
				c-1.101,0.5-2.317,0.75-3.65,0.75c-2.533,0-4.7-0.95-6.5-2.85c-0.533-0.533-0.983-1.1-1.35-1.7
				c-0.167,0.367-0.384,0.717-0.65,1.05c-0.134,0.167-0.267,0.316-0.4,0.45c1.4,1.767,2.101,3.983,2.101,6.65
				c0,1.733-0.217,2.983-0.65,3.75c-0.533,1.066-1.899,2.45-4.1,4.15c-0.733,0.167-2.3,0.3-4.7,0.4
				c-2.366,0.067-3.884,0.183-4.55,0.35c-1.967-0.733-3.566-1.65-4.8-2.75c0.466,1.066,0.716,2.233,0.75,3.5
				c2.566-0.434,4.833-0.233,6.8,0.6c2.166,0.933,3.25,2.4,3.25,4.4c0,1-0.267,1.867-0.8,2.6c-0.134,0.466-0.351,0.9-0.65,1.3
				c1.3-0.933,2.75-1.633,4.35-2.1c1.601-0.467,3.051-0.6,4.351-0.4c-0.167-0.2-0.334-0.417-0.5-0.65c-0.834-2.2-1.25-3.2-1.25-3
				c0-1.4,0.633-2.567,1.899-3.5c-0.1-0.467-0.149-0.934-0.149-1.4c0-1.833,0.7-3.217,2.1-4.15c0.867-0.6,1.867-0.95,3-1.05
				c0.3-0.3,0.684-0.45,1.15-0.45s0.883,0.167,1.25,0.5c1.5,0.233,2.8,0.8,3.899,1.7c1.4,1.167,2.101,2.617,2.101,4.35
				c0,1.3-0.384,2.45-1.15,3.45v0.05c0.101,0.5,0.15,1.033,0.15,1.6c0,1.133-0.417,2.267-1.25,3.4c-0.967,1.333-2.134,2-3.5,2
				c-1.233,0-2.334-0.117-3.3-0.35c0.699,1.033,1.05,2.35,1.05,3.95c0,2.633-1,5.517-3,8.65c-2.367,3.667-5.117,5.5-8.25,5.5
				c-1.033,0-1.967-0.083-2.8-0.25l-0.95-0.25c-3.167-1.6-4.75-3.733-4.75-6.4c0-3.4,1.033-6.35,3.1-8.85
				c0.267-0.3,0.533-0.583,0.8-0.85c-0.733,0.367-1.55,0.55-2.449,0.55c-0.667,0-1.284-0.117-1.851-0.35
				c0.134,0.233,0.367,0.533,0.7,0.9c0.3,0.5,0.45,1.283,0.45,2.35c0,1.733-0.584,3.117-1.75,4.15c-1.267,1.167-3.101,1.75-5.5,1.75
				c-1.033,0-1.967-0.083-2.8-0.25l-0.95-0.25c-1.7-0.633-2.783-1.867-3.25-3.7c-0.167-0.667-0.25-2.066-0.25-4.2
				c0-0.467,0.033-0.934,0.1-1.4c-1.399,0-2.684-0.233-3.85-0.7c-0.2,0.367-0.45,0.717-0.75,1.05c-0.434,0.5-0.884,0.9-1.351,1.2
				c0.9,1.2,1.351,2.367,1.351,3.5c0,2.3-0.584,4.833-1.75,7.6c-1.667,3.833-3.95,6.05-6.85,6.65c-2,0-3.75-0.167-5.25-0.5
				c-2.3-1.867-3.717-3.233-4.25-4.1c-0.5-0.833-0.75-2.217-0.75-4.15c0-3.733,0.367-6.4,1.1-8c1.333-2.934,4.033-4.717,8.1-5.35
				c-0.1-0.467-0.15-0.933-0.15-1.4c0-1.8,0.55-3.35,1.65-4.65c-0.966,0.333-2.033,0.5-3.2,0.5c-0.367,0-0.733-0.017-1.1-0.05
				c0.233,0.633,0.35,1.4,0.35,2.3c0,1.133-1.15,2.983-3.45,5.55c-2.533,2.833-4.883,4.533-7.05,5.1l-2.25-0.5
				c-1.1-1.2-1.95-2.317-2.55-3.35c-0.466-0.733-0.7-1.25-0.7-1.55c0-1.4,0.467-2.784,1.4-4.15c-1.133-0.1-2.183-0.25-3.15-0.45
				c-1.333-0.934-2.367-1.783-3.1-2.55c-0.867,1.067-1.9,2.184-3.1,3.35c0.167,0,0.35,0.017,0.55,0.05c0.066-0.1,0.133-0.2,0.2-0.3
				c0.533-0.633,1.184-0.95,1.95-0.95c0.733,0,1.367,0.316,1.9,0.95c0.533,0.667,0.8,1.45,0.8,2.35v0.05
				c0.2,0.133,0.4,0.284,0.6,0.45c2.133,1.833,3.2,4.117,3.2,6.85c0,7.167-3.75,10.75-11.25,10.75c-1.033,0-1.967-0.083-2.8-0.25
				l-0.95-0.25c-2.767-1.233-4.483-2.733-5.15-4.5c-0.233-0.6-0.35-1.983-0.35-4.15c0-1.1,0.1-2.117,0.3-3.05
				c-0.2,0.067-0.383,0.133-0.55,0.2c-2.533-1.633-6.9-3.417-13.1-5.35c-0.3-0.1-0.583-0.2-0.85-0.3c0.5,0.367,0.983,0.8,1.45,1.3
				c1.333,1.4,2,2.767,2,4.1c0,1.467-0.583,2.967-1.75,4.5c-1.267,1.667-2.684,2.5-4.25,2.5c-2.3,0-4.05-0.667-5.25-2
				c-1-1.1-1.5-2.483-1.5-4.15c0-2,0.217-3.617,0.65-4.85c-1.1,1.433-2.233,2.35-3.4,2.75c-0.033,0-0.067-0.017-0.1-0.05
				c0.067,0.367,0.1,0.75,0.1,1.15c0,2.433-0.417,4.6-1.25,6.5c-1.2,2.767-3.117,4.316-5.75,4.65l-2.25-0.5
				c-2.3-2.833-3.717-4.85-4.25-6.05c-0.5-1.133-0.75-2.75-0.75-4.85c0-2.067,0.75-3.667,2.25-4.8c1.3-1,2.933-1.45,4.9-1.35
				c0.1,0,0.2,0.017,0.3,0.05c0-0.067-0.017-0.117-0.05-0.15c-0.133-0.267-0.25-0.567-0.35-0.9c-0.6,0.2-1.533,0.3-2.8,0.3
				c-1.033,0-1.883-0.083-2.55-0.25l-0.7-0.25c-1.033-0.233-1.85-0.75-2.45-1.55c-1.467,2.534-3.233,3.8-5.3,3.8
				c-1.733,0-3.267-0.417-4.6-1.25c-0.167,0.133-0.333,0.283-0.5,0.45c-0.267,0.967-0.783,1.833-1.55,2.6
				c0.6,0.133,1.233,0.283,1.9,0.45c3.367,0.033,5.85,0.717,7.45,2.05c1.2,1,1.8,2.267,1.8,3.8c0,1.533-0.417,2.933-1.25,4.2
				c-1.3,1.9-3.383,2.883-6.25,2.95c-3.9-1.733-6.667-3.417-8.3-5.05c-1.3-1.3-1.95-2.667-1.95-4.1c0-0.733,0.083-1.367,0.25-1.9
				c-1.8-0.133-3.35-0.783-4.65-1.95c-1.467-1.267-2.2-2.783-2.2-4.55c0-0.633,0.1-1.216,0.3-1.75c-0.267-0.5-0.466-1-0.6-1.5
				c-0.034,0-0.067,0.017-0.1,0.05c-1.567,1-3.783,1.5-6.65,1.5c0.466,0.233,0.917,0.533,1.35,0.9c1.367,1.133,2.05,2.583,2.05,4.35
				c0,1.4-0.434,2.566-1.3,3.5c-1.267,1.333-3.333,2-6.2,2l-2.25-0.5c-1.1-1.2-1.95-2.317-2.55-3.35c-0.466-0.733-0.7-1.25-0.7-1.55
				c0-2.067,0.683-3.667,2.05-4.8c1.2-0.967,2.684-1.417,4.45-1.35c-1-0.566-1.833-1.466-2.5-2.7c-0.233-0.4-0.417-0.767-0.55-1.1
				c-0.6,0.067-1.083,0.1-1.45,0.1c-2,0-4.25-0.617-6.75-1.85c-0.3-0.167-0.583-0.3-0.85-0.4c1.167,1.1,2.45,2.433,3.85,4
				c0,0.867-0.233,1.75-0.7,2.65c0.1,0.067,0.2,0.15,0.3,0.25c0.533,0.467,0.8,1.033,0.8,1.7c0,0.633-0.267,1.183-0.8,1.65
				c-0.534,0.467-1.184,0.7-1.95,0.7c-0.667,0-1.25-0.183-1.75-0.55c-2.467,1.9-5.017,2.85-7.65,2.85c-3.5,0-5.917-1.25-7.25-3.75
				l-0.4-1.5c-0.367,0.1-0.75,0.15-1.15,0.15c-1.2,0-2.216-0.5-3.05-1.5c-0.867-1-1.3-2.217-1.3-3.65c0-1.333,0.4-2.483,1.2-3.45
				c-0.267-0.1-0.517-0.2-0.75-0.3c-2.633-1.167-4.233-1.75-4.8-1.75c-1.467,0-4.917,0.733-10.35,2.2c0.167,0.6,0.25,1.233,0.25,1.9
				c0,1.733-0.533,3.216-1.6,4.45c-0.066,0.067-0.117,0.133-0.15,0.2c0.5,0.467,0.9,1.066,1.2,1.8c0.267-0.433,0.583-0.833,0.95-1.2
				c1.633-1.733,3.567-2.684,5.8-2.85c0-0.033,0-0.067,0-0.1c0-0.1,0.05-0.2,0.15-0.3c0.066-0.067,0.167-0.1,0.3-0.1
				s0.233,0.033,0.3,0.1c0.1,0.1,0.15,0.2,0.15,0.3v0.05c2.5,0.034,4.633,1,6.4,2.9c1.8,1.933,2.7,4.25,2.7,6.95
				c0,2.733-0.9,5.05-2.7,6.95c-1.8,1.967-3.983,2.95-6.55,2.95c-2.567,0-4.75-0.983-6.55-2.95c-1.267-1.333-2.083-2.85-2.45-4.55
				c-1.1,0.934-2.55,1.7-4.35,2.3l-2.25-0.5c-1.033-1.133-1.883-2.3-2.55-3.5l-0.7-1.4c0-1.934,0.633-3.65,1.9-5.15
				c0.4-0.5,0.817-0.917,1.25-1.25c-0.2-0.2-0.4-0.417-0.6-0.65c-1.033-1.2-1.566-2.65-1.6-4.35c-1.7,1.867-3.85,2.8-6.45,2.8
				c-1.6,0-3.117-0.083-4.55-0.25c-0.466,0.267-0.95,0.517-1.45,0.75l-5.25-1.25c-0.934-0.567-1.65-1.217-2.15-1.95
				c-2.167-1.066-4.133-2.417-5.9-4.05c-0.6-0.567-1.15-1.133-1.65-1.7c-0.633-0.333-1.217-0.733-1.75-1.2
				c-0.333,0.466-0.767,0.966-1.3,1.5c-1.9,1.933-4.233,2.733-7,2.4l-2.25-0.5c-1.7-0.867-2.783-2-3.25-3.4
				c-0.133-0.367-0.2-1-0.2-1.9c-2.6-0.333-4.433-1.167-5.5-2.5c-0.233-0.3-0.433-0.617-0.6-0.95c-0.3-0.6-0.45-1.733-0.45-3.4
				c0-2.8,0.517-5.083,1.55-6.85h-2.45c-0.1,0.167-0.184,0.333-0.25,0.5c-1.133,2.367-3.333,3.533-6.6,3.5
				c-0.3-0.067-0.567-0.15-0.8-0.25c-0.066,0.2-0.15,0.417-0.25,0.65c0.5-0.067,1.017-0.067,1.55,0c1.6,0.233,2.983,0.933,4.15,2.1
				c1.233,1.233,1.85,2.65,1.85,4.25c0,0.167,0,0.316,0,0.45c-0.233,2.7-2.4,4.717-6.5,6.05h-0.1c0.067,0.533,0.1,1.117,0.1,1.75
				c0,1.367-0.567,2.867-1.7,4.5c-1.566,2.167-3.667,3.25-6.3,3.25c-3.033,0-5.267-1.25-6.7-3.75c-0.867-1.5-1.3-2.883-1.3-4.15
				c0-2.434,0.833-4.417,2.5-5.95l-1.75-0.4c-0.4-0.3-0.767-0.733-1.1-1.3c-0.233-0.367-0.45-0.767-0.65-1.2
				c-0.667,0.467-1.4,0.867-2.2,1.2c-0.267,0.1-0.533,0.2-0.8,0.3c-0.233-0.1-0.467-0.2-0.7-0.3c-3.7-1.6-6.617-3.233-8.75-4.9
				c-0.233,0.833-0.65,1.733-1.25,2.7c-0.367,0.566-0.75,1.05-1.15,1.45c0.233,0.233,0.45,0.483,0.65,0.75
				c0.967,1.267,1.45,2.784,1.45,4.55c0,1.9-0.417,3.667-1.25,5.3c-1.267,2.467-3.267,3.7-6,3.7c-4.033,0-6.617-1.733-7.75-5.2
				c-0.367-1.1-0.55-2.333-0.55-3.7c0.034-1.233,0.05-1.9,0.05-2c0-1,0.183-1.883,0.55-2.65c0.4-0.867,1.017-1.583,1.85-2.15
				c0.4-0.267,0.833-0.5,1.3-0.7c-1.3-1.633-1.95-3.083-1.95-4.35c0-1.867,0.683-3.3,2.05-4.3l-0.8-0.2
				c-0.267-0.1-0.517-0.217-0.75-0.35c-0.167-0.033-0.317-0.05-0.45-0.05c-0.566,0.433-1.2,0.75-1.9,0.95
				c-0.6,1.233-1.55,2.883-2.85,4.95c-2.167,3.4-3.7,5.233-4.6,5.5v0.05c0.1,0.2,0.184,0.417,0.25,0.65
				c0.367,1.167,0.55,2.467,0.55,3.9c0,1.533-0.233,2.933-0.7,4.2c0.333,0.233,0.65,0.5,0.95,0.8c0.967,1.033,1.45,2.267,1.45,3.7
				c0,1.4-0.483,2.6-1.45,3.6c-0.967,1.033-2.15,1.55-3.55,1.55c-1.367,0-2.533-0.517-3.5-1.55c-0.8-0.833-1.267-1.783-1.4-2.85
				L60.1,86.6c-1.7-0.533-2.95-1.783-3.75-3.75c-0.2-0.5-0.35-0.967-0.45-1.4c-0.667-0.3-1.267-0.733-1.8-1.3
				c-1.1-1.133-1.65-2.517-1.65-4.15c0-1.6,0.55-2.983,1.65-4.15c1.133-1.133,2.483-1.7,4.05-1.7c0.2,0,0.4,0.017,0.6,0.05
				c0.2-0.233,0.4-0.434,0.6-0.6c-0.167-0.2-0.317-0.417-0.45-0.65c-0.533-0.9-0.833-1.9-0.9-3c0.067-0.934,0.1-1.434,0.1-1.5
				c0-1.5,0.35-2.867,1.05-4.1c-0.1-0.2-0.2-0.4-0.3-0.6c-0.167-1.633-0.25-2.517-0.25-2.65c0-0.533,0.033-1.033,0.1-1.5
				c-2.567-0.767-4.35-1.65-5.35-2.65c-0.533-0.567-0.883-1.3-1.05-2.2c-0.033,0.067-0.066,0.117-0.1,0.15
				c-1.167,1.567-2.367,2.35-3.6,2.35c-3.9,0-5.85-1.783-5.85-5.35c0-1.767,0.533-3.3,1.6-4.6c1.467-1.8,3.566-2.267,6.3-1.4
				c0.533,0.467,1.2,1.383,2,2.75c0.333,0.567,0.6,1.05,0.8,1.45c0.066-0.1,0.133-0.184,0.2-0.25c0.033-2.934,1.267-4.883,3.7-5.85
				c0.533-0.2,1-0.3,1.4-0.3c0.067-0.1,0.15-0.184,0.25-0.25c0.7-0.667,1.65-1.067,2.85-1.2c0.066-0.1,0.133-0.183,0.2-0.25
				c-1.6-0.767-2.4-2.133-2.4-4.1c0-3.233,1.733-4.617,5.2-4.15c1.367,0.2,2.566,0.7,3.6,1.5c1.066,0.867,1.6,1.833,1.6,2.9
				c0,0.6-0.233,1.233-0.7,1.9c0.4-0.066,0.8-0.2,1.2-0.4c0.434-0.267,0.85-0.617,1.25-1.05c0.667-0.767,1.35-1.35,2.05-1.75
				c0.367-0.367,0.833-0.717,1.4-1.05c2-1.167,4.317-1.767,6.95-1.8c2.8,0,5.1,0.7,6.9,2.1c1.767,1.367,2.8,3.25,3.1,5.65
				c0.767,0.1,1.667-0.033,2.7-0.4c0.833,0.333,1.517,0.783,2.05,1.35c0.3-0.3,0.65-0.6,1.05-0.9c0.433-0.367,0.867-0.683,1.3-0.95
				l-0.3-2.2c0-2.5,1.45-3.85,4.35-4.05c2.867-0.167,4.3,1.217,4.3,4.15c0,0.033,0,0.067,0,0.1c0.2-0.033,0.417-0.05,0.65-0.05
				c0.567,0,1.3,0.2,2.2,0.6c0.833,0.367,1.4,0.5,1.7,0.4c1.3-0.433,2.466-0.65,3.5-0.65c0.667,0,1.267,0.167,1.8,0.5
				c0.3,0.167,0.7,0.4,1.2,0.7c0.4-0.267,0.95-1.2,1.65-2.8c0.566-1.3,1.483-2.1,2.75-2.4c3.2,0.2,5.417,1.2,6.65,3
				c0.167,0.233,0.6,1.033,1.3,2.4c0.5,1,1.05,1.767,1.65,2.3c0.333,0.633,1.033,1.5,2.1,2.6c-0.167-0.6-0.25-1.167-0.25-1.7
				c0-1.467,0.167-2.433,0.5-2.9c0.8-1.033,2.65-1.5,5.55-1.4c1.367,0.5,2.633,1.566,3.8,3.2c0.934,1.333,1.4,2.3,1.4,2.9
				c0,1.3-0.183,2.417-0.55,3.35c-0.133,0.333-0.283,0.633-0.45,0.9c0.767,0.233,1.55,0.667,2.35,1.3
				c0.167,0.133,0.35,0.283,0.55,0.45c0.5,0.4,1.017,0.85,1.55,1.35c0.1-0.367,0.233-0.683,0.4-0.95c0.567-0.9,1.55-1.4,2.95-1.5
				l2.05,0.05c1.567,1.133,2.35,1.917,2.35,2.35c0,0.333-0.133,0.783-0.4,1.35c1.333,0.033,2.633,0.133,3.9,0.3
				c1.7,0.233,4.317,0.633,7.85,1.2l3.25-3.65c0.667-0.233,1.55-0.45,2.65-0.65c1.1-0.2,2.067-0.3,2.9-0.3
				c4.367,0,7.2,1.433,8.5,4.3c0.567,1.267,0.817,2.583,0.75,3.95c0.833-0.3,1.733-0.567,2.7-0.8c1.333-0.333,2.383-0.5,3.15-0.5
				c0.1,0,0.9,0.284,2.4,0.85c1.5,0.567,2.35,0.85,2.55,0.85c1.867,0,3.3-0.467,4.3-1.4c0.5-0.467,1.2-1.517,2.1-3.15
				c1.6-2.8,4.2-4.35,7.8-4.65c-0.233-0.433-0.417-0.983-0.55-1.65c-0.1-1.767-0.15-2.7-0.15-2.8c0-1.533,0.167-2.45,0.5-2.75
				c0.9-0.833,3.3-1.4,7.2-1.7c2.133,1.267,3.417,2.4,3.85,3.4c0.167,0.4,0.25,1.567,0.25,3.5c0,0.633-0.017,1.233-0.05,1.8
				c0.233,0.033,0.466,0.066,0.7,0.1c0.733,0.133,1.45,0.633,2.15,1.5c0.534,0.667,0.85,1.283,0.95,1.85
				c0.933-0.066,1.817,0.25,2.65,0.95c-0.066-0.367-0.1-0.783-0.1-1.25c0-1.467,0.717-2.8,2.15-4c1.3-1.1,2.85-1.783,4.65-2.05
				c1.9-0.267,3.467,0.033,4.7,0.9c1,0.7,1.65,1.733,1.95,3.1c1.4-0.233,3.067-0.25,5-0.05c0.133,0,0.55,0.133,1.25,0.4
				c0.733,0.267,1.4,0.4,2,0.4c0.7,0,1.25-0.167,1.65-0.5c0.267-0.2,0.7-0.55,1.3-1.05c0.7-0.5,1.75-0.883,3.15-1.15
				c-0.067-0.267-0.1-0.55-0.1-0.85c0-1.1,0.067-1.816,0.2-2.15c0.267-0.767,1-1.7,2.2-2.8c2.4-0.633,3.783-0.95,4.15-0.95
				c0.667,0.033,1.817,0.5,3.45,1.4c0.233-1,0.767-1.933,1.6-2.8c1.1-1.1,2.4-1.85,3.9-2.25c1.567-0.434,2.867-0.317,3.9,0.35
				c1.167,0.733,1.75,2.066,1.75,4c0,0.133,0,0.267,0,0.4c0.567,0,1.167,0.083,1.8,0.25c1.867,0.433,3.2,1.167,4,2.2
				c0.566-0.433,1.183-0.767,1.85-1c0.333-0.466,0.75-0.9,1.25-1.3c1.333-1.133,2.867-1.9,4.6-2.3c1.767-0.434,3.233-0.35,4.4,0.25
				c0.133,0.066,0.267,0.15,0.4,0.25c0.267-0.867,0.85-1.55,1.75-2.05c0.433-0.267,0.966-0.483,1.6-0.65
				c-0.033-0.133-0.05-0.25-0.05-0.35c0-2.933,1.4-4.383,4.2-4.35c1.066,0.034,2.033,0.3,2.9,0.8c0.867,0.566,1.3,1.2,1.3,1.9
				c0,0.133-0.05,0.317-0.15,0.55c0.1,0,0.2,0.017,0.3,0.05c0.034-0.067,0.083-0.133,0.15-0.2c0.433-0.533,1-1.017,1.7-1.45
				c0.9-0.034,2.767-0.117,5.6-0.25c2.6-0.133,4.317-0.267,5.15-0.4c0.4-1.2,1.533-2.55,3.4-4.05c2.133-1.7,4.133-2.55,6-2.55
				c0.567,0,1.534-0.067,2.9-0.2c1.466-0.067,3.133,0.067,5,0.4c1.966,1.167,3.15,1.717,3.55,1.65c0.267-0.033,0.867-0.133,1.8-0.3
				c0.034-1.4,0.25-2.4,0.65-3c0.9-1.3,2.683-1.65,5.35-1.05c1.467,0.466,2.467,1.316,3,2.55c0.233,0.6,0.383,1.383,0.45,2.35
				c1.3-0.033,2.833,0.066,4.6,0.3c1.433,1.067,2.3,2.017,2.6,2.85c0.1,0.3,0.15,1.033,0.15,2.2c0,0.233,0,0.483,0,0.75
				c0.867,0.133,1.583,0.4,2.15,0.8c-0.134-0.4-0.2-0.75-0.2-1.05c0-1.133,0.517-2.2,1.55-3.2c0.967-0.933,2.117-1.533,3.45-1.8
				c3.3-0.7,4.95,0.8,4.95,4.5c0,0.8-0.25,1.633-0.75,2.5c0.833-0.267,1.75-0.3,2.75-0.1c1.5,0.3,2.783,0.983,3.85,2.05
				c0.233-0.267,0.517-0.517,0.851-0.75c1.333-0.967,2.899-1.65,4.7-2.05c3.6-0.833,5.783-0.333,6.55,1.5
				c0.967,0.066,2.717,0.65,5.25,1.75c1.399,0.6,2.95,1.316,4.649,2.15c3.733,0,6.134,0.517,7.2,1.55
				c0.2,0.2,0.483,0.583,0.851,1.15c0.267,0.433,0.583,0.7,0.949,0.8l3.101-1.65c1.3-0.7,2.85-1.05,4.649-1.05
				c1.9,0,3.584,0.75,5.051,2.25c0.166,0.167,0.333,0.35,0.5,0.55c0.333-0.567,1.199-1.083,2.6-1.55c2.134-0.7,5.017-1.05,8.65-1.05
				c0.166,0,1.449,0.567,3.85,1.7c0.1,0,0.65-0.367,1.65-1.1c1.3-0.833,2.583-1.45,3.85-1.85c4.134-1.367,8.116-0.5,11.95,2.6
				c2.633-1.067,4.783-1.133,6.45-0.2c0.267-0.7,0.633-1.35,1.1-1.95c1.533-1.934,3.884-2.517,7.05-1.75
				c1.033,0.533,1.816,1.517,2.351,2.95c0.566-0.4,1.3-0.667,2.199-0.8c1.534-0.267,2.584-0.017,3.15,0.75
				c0.2-0.1,0.4-0.184,0.6-0.25c0.934-0.6,2.067-0.967,3.4-1.1c2.267-0.433,3.816,0.583,4.65,3.05c0.399,1.233,0.583,2.6,0.55,4.1
				c0,0.867-0.483,1.783-1.45,2.75c-0.6,0.6-1.3,1.1-2.1,1.5c-0.101,0.167-0.2,0.35-0.301,0.55c-0.199,0.367-0.366,0.733-0.5,1.1
				c1.034,0,1.9,0.317,2.601,0.95c1.066,0.933,1.6,2.283,1.6,4.05c0,1-0.467,2.3-1.399,3.9c0.966,0.4,2.166,0.683,3.6,0.85
				c0.2,0.3,0.417,0.6,0.65,0.9C491.017,67.067,492.2,69.233,492.2,70.2z M442.25,71.85c1.066-1.233,2.384-1.817,3.95-1.75
				c1.566,0.066,2.883,0.75,3.95,2.05c1.199,1.467,1.8,3.367,1.8,5.7c0,1.5-0.233,2.633-0.7,3.4c-0.866,1.367-2.55,2.317-5.05,2.85
				l-2.25-0.5c-1.267-0.333-2.2-1.184-2.8-2.55c-0.467-1-0.7-2.15-0.7-3.45C440.45,75.133,441.05,73.217,442.25,71.85z
				 M472.75,60.05c0,0.034,0,0.067,0,0.1c0.033-0.033,0.083-0.05,0.15-0.05C472.866,60.067,472.816,60.05,472.75,60.05z M454,99.05
				c1.733-1.8,4.8-1.95,9.2-0.45c0.833,0.9,1.616,1.917,2.35,3.05c0.601,0.967,0.9,1.567,0.9,1.8c0,1.233-0.717,2.65-2.15,4.25
				c-1.767,1.966-3.8,2.767-6.1,2.4l-2.25-0.5c-1.267-0.333-2.2-1.184-2.8-2.55c-0.467-1-0.7-2.15-0.7-3.45
				C452.45,101.6,452.967,100.083,454,99.05z M360.45,74.35c0,1-0.233,1.767-0.7,2.3c0.767,0.967,1.217,2.017,1.35,3.15
				c0.034-0.066,0.084-0.117,0.15-0.15c1.366-1.3,2.95-2.15,4.75-2.55c0.167-1.133,0.634-2.133,1.4-3c0.899-1,1.983-1.533,3.25-1.6
				c-0.134-0.1-0.25-0.2-0.351-0.3c-0.566-0.5-0.85-1.1-0.85-1.8c0-0.133,0.017-0.25,0.05-0.35c-0.1,0.1-0.184,0.2-0.25,0.3
				c-0.533,0.633-1.2,0.95-2,0.95c-0.767,0-1.434-0.316-2-0.95c-0.1-0.133-0.184-0.25-0.25-0.35c-2.2,0.333-4.134,0.717-5.8,1.15
				C360.033,72.783,360.45,73.85,360.45,74.35z M347.45,74.85c-2.5,0.4-5.667,0.633-9.5,0.7v0.05c1.466,0.566,3.066,1.566,4.8,3
				c0.5,0.433,0.967,0.85,1.4,1.25c0.2-1.633,1.017-3.083,2.45-4.35C346.867,75.267,347.15,75.05,347.45,74.85z M373.1,72.9
				c0.567,0.267,1.101,0.667,1.601,1.2c0.467,0.5,0.833,1.066,1.1,1.7c0.267-2.566,1.351-4.7,3.25-6.4c0.033,0,0.05-0.017,0.05-0.05
				c-1.133,0.5-2.399,0.816-3.8,0.95c0,0.034,0,0.067,0,0.1c0,0.7-0.283,1.3-0.85,1.8C374.05,72.567,373.6,72.8,373.1,72.9z
				 M376.05,79.6l0.05,0.05c0.034,0.033,0.067,0.067,0.101,0.1c-0.033-0.1-0.066-0.2-0.101-0.3
				C376.066,79.483,376.05,79.533,376.05,79.6z M452.5,108.95c0.366,0.466,0.55,1.017,0.55,1.65c0,0.6-0.184,1.133-0.55,1.6
				c-0.4,0.433-0.866,0.65-1.4,0.65c-0.566,0-1.033-0.217-1.399-0.65c-0.4-0.467-0.601-1-0.601-1.6c0-0.633,0.2-1.184,0.601-1.65
				c0.366-0.434,0.833-0.65,1.399-0.65C451.634,108.3,452.1,108.517,452.5,108.95z M296.25,26.45c1.033,1.133,1.65,2.816,1.85,5.05
				c0,1.8-0.133,2.967-0.4,3.5c-0.6,1.233-2.083,1.85-4.45,1.85c-2.567,0-4.25-0.767-5.05-2.3c-0.333-1.566-0.5-2.4-0.5-2.5
				c0-1.633,0.55-3.017,1.65-4.15C290.883,26.3,293.183,25.817,296.25,26.45z M274.8,79.9c1-1.7,2.517-2.867,4.55-3.5
				c-0.467-0.667-0.733-1.417-0.8-2.25c-0.733,0.1-1.583,0.417-2.55,0.95c-1.267,0.667-2.317,1-3.15,1c-0.467,0-0.9-0.017-1.3-0.05
				c0.2,0.5,0.267,1.017,0.2,1.55c0.767,0.4,1.5,0.883,2.2,1.45C274.25,79.317,274.533,79.6,274.8,79.9z M249.1,66.95
				c-0.467,0.066-0.934,0.133-1.4,0.2c-0.534,0.2-1.083,0.35-1.65,0.45c-0.6,0.467-1.233,0.816-1.9,1.05
				c0.833,0.367,1.583,0.917,2.25,1.65c0.367,0.4,0.684,0.833,0.95,1.3c0.233-0.033,0.467-0.05,0.7-0.05
				c-0.167-0.466-0.25-0.966-0.25-1.5C247.8,68.85,248.233,67.817,249.1,66.95z M304.85,73.95c0.333,0.167,0.65,0.367,0.95,0.6
				c0.2,0.133,0.383,0.284,0.55,0.45c0.1-0.233,0.183-0.45,0.25-0.65c0.533-1.7,1.517-3.117,2.95-4.25
				c-1.167-0.367-2.283-0.717-3.35-1.05C305.933,70.65,305.483,72.283,304.85,73.95z M289.8,75.85
				c-0.133,0.233-0.283,0.483-0.45,0.75c0.6,0.167,1.133,0.517,1.6,1.05c0.367,0.434,0.633,0.9,0.8,1.4c0.567,0,1.1,0.067,1.6,0.2
				c0-0.167,0-0.333,0-0.5c-0.067-0.1-0.15-0.2-0.25-0.3c-1.267-1.534-2.35-2.4-3.25-2.6H289.8z M297.8,84.25
				c0.034,0.333,0.05,0.7,0.05,1.1c0,2.2-0.8,4.75-2.4,7.65c-0.067,0.1-0.117,0.2-0.15,0.3c1.034-0.8,2.434-0.966,4.2-0.5
				c0.167,0.034,0.35,0.1,0.55,0.2c-1.466-1.1-2.2-2.483-2.2-4.15c0-1.6,0.283-3.1,0.85-4.5c-0.1,0-0.217,0-0.35,0L297.8,84.25z
				 M168.15,45.55c-0.8,0.8-1.617,1.2-2.45,1.2c-2.5,0-4.333-0.517-5.5-1.55c-0.9-0.767-1.35-1.767-1.35-3
				c0-4.6,1.767-6.434,5.3-5.5c1.333,0.367,2.533,1.117,3.6,2.25c1.1,1.167,1.65,2.367,1.65,3.6
				C169.4,43.65,168.983,44.65,168.15,45.55z M184.45,76.45c-0.133,0.933-0.333,1.867-0.6,2.8c0.3-0.2,0.633-0.35,1-0.45
				C184.683,77.867,184.55,77.083,184.45,76.45z M165.1,95.35c0,3.533-2.583,5.45-7.75,5.75c-2.833-0.3-4.8-1.467-5.9-3.5
				c-0.567-1.033-0.85-2.167-0.85-3.4c0-2.467,0.75-4.45,2.25-5.95c1.4-1.4,3.066-2.1,5-2.1c2,0,3.667,0.75,5,2.25
				C164.35,90.067,165.1,92.383,165.1,95.35z M205.55,82.95c0,0.1-0.033,0.2-0.1,0.3c-0.1,0.067-0.2,0.1-0.3,0.1
				c-0.133,0-0.25-0.033-0.35-0.1c-0.066-0.1-0.1-0.2-0.1-0.3c0-0.1,0.033-0.2,0.1-0.3c0.1-0.066,0.217-0.1,0.35-0.1
				c0.1,0,0.2,0.034,0.3,0.1C205.517,82.75,205.55,82.85,205.55,82.95z M226.95,97.05c-0.2,0.167-0.434,0.25-0.7,0.25
				c-0.3,0-0.533-0.083-0.7-0.25c-0.2-0.2-0.3-0.433-0.3-0.7s0.1-0.5,0.3-0.7c0.167-0.2,0.4-0.3,0.7-0.3c0.267,0,0.5,0.1,0.7,0.3
				c0.167,0.2,0.25,0.434,0.25,0.7S227.117,96.85,226.95,97.05z M117.85,73.35c0-0.467,0.033-0.917,0.1-1.35
				c-0.7,0.433-1.45,0.867-2.25,1.3c0.767,0,1.483,0.1,2.15,0.3C117.85,73.5,117.85,73.417,117.85,73.35z M100.35,78.35
				c1.967,0,3.633,0.667,5,2c1.367,1.367,2.05,3,2.05,4.9s-0.683,3.517-2.05,4.85c-1.367,1.367-3.033,2.05-5,2.05
				c-1.934,0-3.583-0.683-4.95-2.05c-1.367-1.333-2.05-2.95-2.05-4.85s0.683-3.533,2.05-4.9
				C96.767,79.017,98.417,78.35,100.35,78.35z M81.9,86.65c0.167,0,0.317,0.067,0.45,0.2c0.1,0.1,0.15,0.25,0.15,0.45
				c0,0.167-0.05,0.3-0.15,0.4c-0.133,0.133-0.283,0.2-0.45,0.2c-0.167,0-0.3-0.066-0.4-0.2c-0.133-0.1-0.2-0.233-0.2-0.4
				c0-0.2,0.067-0.35,0.2-0.45C81.6,86.717,81.733,86.65,81.9,86.65z M83.4,95.95c0.967-0.733,2.117-1.083,3.45-1.05
				c3.333,0,5,1.517,5,4.55c0,1.466-0.567,2.6-1.7,3.4c-0.933,0.667-2.033,1-3.3,1c-2.434,0-4-0.917-4.7-2.75
				c-0.194-1.518-0.293-2.176-0.3-1.975C81.856,97.804,82.373,96.746,83.4,95.95z M117.95,91.6c1.1,1.066,1.65,2.816,1.65,5.25
				c0,1.267-0.417,2.517-1.25,3.75c-1.067,1.5-2.4,2.25-4,2.25c-2.1,0-3.6-0.917-4.5-2.75c-0.5-1-0.75-2-0.75-3
				c0-1.567,0.55-2.983,1.65-4.25c1.033-1.2,2.233-1.934,3.6-2.2C115.817,90.35,117.017,90.667,117.95,91.6z M160.85,68.2
				c-0.533-0.4-0.867-0.617-1-0.65c-1.067-0.333-2.25-0.667-3.55-1C157.8,67.15,159.317,67.7,160.85,68.2z M145.75,64.8
				c0.067,0.434,0.1,0.9,0.1,1.4c0,0.233,0,0.483,0,0.75c0.633,0,1.25,0.083,1.85,0.25c0.5,0.167,0.966,0.383,1.4,0.65
				c0.267-0.6,0.6-1.184,1-1.75c-0.1,0-0.184,0-0.25,0c-0.8,0-1.517-0.083-2.15-0.25c-0.767-0.233-1.4-0.6-1.9-1.1
				C145.767,64.75,145.75,64.767,145.75,64.8z M132.75,82.25c1.133-1.1,2.55-1.533,4.25-1.3c1.6,0.233,3,0.966,4.2,2.2
				c1.267,1.333,1.9,2.85,1.9,4.55c0,0.333,0,0.667,0,1c0.533,0.333,1.033,0.716,1.5,1.15c1.667,1.566,2.5,3.4,2.5,5.5
				c0,2.133-0.434,4.283-1.3,6.45c-1.4,3.534-3.55,5.133-6.45,4.8l-2.25-0.5c-2.967-3.633-4.7-5.783-5.2-6.45
				c-0.533-0.733-0.8-2.333-0.8-4.8c0-1.5,0.233-2.783,0.7-3.85c-0.633-1.9-0.95-2.867-0.95-2.9
				C130.85,85.433,131.483,83.483,132.75,82.25z M38,48.75c1.467,1.533,2.2,3.367,2.2,5.5s-0.733,3.967-2.2,5.5
				c-1.5,1.533-3.317,2.3-5.45,2.3c-2.1,0-3.883-0.767-5.35-2.3c-1.5-1.533-2.25-3.367-2.25-5.5s0.75-3.967,2.25-5.5
				c1.466-1.5,3.25-2.25,5.35-2.25C34.683,46.5,36.5,47.25,38,48.75z M35.35,89.95c1.1-0.7,2.367-1.083,3.8-1.15
				c1.133-1.233,2.2-1.8,3.2-1.7c2.566,0.667,5.566,4.417,9,11.25c0,0.933-0.233,1.816-0.7,2.65c-0.467,0.8-1.083,1.4-1.85,1.8
				c-0.167,0.167-0.316,0.35-0.45,0.55c-1.3,1.667-2.967,2.5-5,2.5c-3.467,0-6.283-1.667-8.45-5c-1.533-3.367-2.3-5.117-2.3-5.25
				C32.6,93,33.517,91.117,35.35,89.95z M54.45,66.9c0,2.267-0.733,4.217-2.2,5.85s-3.233,2.45-5.3,2.45
				c-2.067,0-3.817-0.817-5.25-2.45c-1.467-1.633-2.2-3.583-2.2-5.85c0-2.3,0.733-4.267,2.2-5.9c1.433-1.633,3.183-2.45,5.25-2.45
				c2.066,0,3.833,0.817,5.3,2.45S54.45,64.6,54.45,66.9z M67.35,91.6c1.6,0,2.95,0.533,4.05,1.6c1.1,1.066,1.65,2.35,1.65,3.85
				s-0.55,2.767-1.65,3.8c-1.1,1.1-2.45,1.65-4.05,1.65c-1.567,0-2.9-0.55-4-1.65c-1.1-1.033-1.65-2.3-1.65-3.8
				s0.55-2.783,1.65-3.85C64.45,92.133,65.783,91.6,67.35,91.6z"/>
		</g>
	</g>
	<g>
		<g>
			<path fill-rule="evenodd" clip-rule="evenodd" fill="#DAB66B" d="M454.95,51.2l1.2,0.9c0.433-0.133,0.649-0.533,0.649-1.2
				c-0.633-0.1-1.1-0.1-1.399,0L454.95,51.2z M449.4,45.65c1.566-1.333,3.533-1.9,5.899-1.7c2.267,0.2,4.233,1.033,5.9,2.5
				c1.767,1.566,2.649,3.483,2.649,5.75c0,0.066,0,0.117,0,0.15c0.5-0.2,1-0.417,1.5-0.65c-0.1,0.533-0.216,1-0.35,1.4
				c-0.833,2.3-2.267,3.917-4.3,4.85c-0.934,0.867-1.834,1.383-2.7,1.55h-3.4c-3.133-0.6-5.316-1.633-6.55-3.1
				c-0.866-1-1.3-2.3-1.3-3.9C446.75,49.467,447.634,47.183,449.4,45.65z M479.55,53c0,0.733-0.366,2.117-1.1,4.15
				c-0.767,2.033-1.351,3.25-1.75,3.65l-3.3,1.05h-4l-1.4-0.4c-1.1-1.067-1.767-1.967-2-2.7c-0.134-0.4-0.2-1.25-0.2-2.55
				c0-4.5,3.417-7.267,10.25-8.3l1.4,0.3c0.934,1.1,1.55,2.033,1.85,2.8C479.467,51.5,479.55,52.167,479.55,53z M413.25,44.95
				c3.366-0.467,5.217,1,5.55,4.4c0.7-0.167,1.45-0.233,2.25-0.2c2.334,0.133,4.367,1,6.101,2.6c1.833,1.767,2.75,3.917,2.75,6.45
				c0,1.033-0.184,2.033-0.551,3c0.067,0.367,0.101,0.75,0.101,1.15c0,1.066-0.55,2.333-1.65,3.8c-1.467,1.934-3.333,3-5.6,3.2
				c-2.3-0.333-4.033-1.1-5.2-2.3c-2.1-0.433-3.533-1.583-4.3-3.45c-0.334-2.467-0.5-3.75-0.5-3.85c0-1.9,0.25-3.55,0.75-4.95
				c-0.2,0-0.417,0-0.65,0c-2.399,0-3.883-0.617-4.45-1.85c-0.133-0.267-0.199-1.117-0.199-2.55c0-1.367,0.583-2.583,1.75-3.65
				C410.5,45.75,411.783,45.15,413.25,44.95z M441.7,50.35c0,0.8-0.15,1.467-0.45,2c-0.5,0.867-1.417,1.566-2.75,2.1
				c-4.9,0.066-7.35-1.2-7.35-3.8c0-0.733,0.149-1.35,0.449-1.85c0.167-0.3,0.551-0.767,1.15-1.4c2.333-1.6,4.5-1.75,6.5-0.45
				C440.884,47.983,441.7,49.117,441.7,50.35z M431.95,79.1c-1.033-1.1-1.834-2.2-2.4-3.3c-0.399-0.8-0.6-1.45-0.6-1.95
				c0-2.4,0.633-4.15,1.899-5.25c1.067-0.934,2.434-1.283,4.101-1.05c1.566,0.233,2.95,0.9,4.149,2
				c1.233,1.167,1.851,2.467,1.851,3.9c0,1.066-0.4,2.066-1.2,3c-1.167,1.367-3.017,2.417-5.55,3.15L431.95,79.1z M468.7,67.45
				c0,1.433-0.733,2.733-2.2,3.9c-1.6,1.267-3.7,2.017-6.3,2.25l-2.25-0.5c-1.033-1.1-1.834-2.2-2.4-3.3
				c-0.399-0.8-0.6-1.45-0.6-1.95c0-1.967,0.717-3.467,2.149-4.5c1.267-0.9,2.851-1.317,4.75-1.25c1.801,0.1,3.367,0.617,4.7,1.55
				C467.983,64.683,468.7,65.95,468.7,67.45z M474.2,70.2c0.5-0.7,1.8-1.583,3.899-2.65c2.534-0.333,4.417,0.333,5.65,2
				c0.833,1.067,1.25,2.184,1.25,3.35c0,1.1-0.25,2.083-0.75,2.95c-1.033,1.767-2.85,2.383-5.45,1.85
				c-2.033-1.133-3.333-1.967-3.899-2.5c-0.7-0.7-1.051-1.65-1.051-2.85C473.85,71.283,473.967,70.567,474.2,70.2z M365.6,39.95
				c-0.533,1.066-1.283,1.6-2.25,1.6c-1.433,0-2.267-0.45-2.5-1.35c0-0.9,0-1.4,0-1.5c0-1.133,0.267-1.85,0.801-2.15
				c0.433-0.233,1.333-0.25,2.699-0.05l1.2,0.5l0.65,1C366.167,38.167,365.967,38.817,365.6,39.95z M380.9,53.9
				c-0.834,1.367-2.384,2.434-4.65,3.2c0.767,0.533,1.366,1.283,1.8,2.25c0.233,0.533,0.417,1.217,0.55,2.05
				c0.267-0.1,0.551-0.183,0.851-0.25c0,0.1,0,0.2,0,0.3c0,0.8-0.217,1.733-0.65,2.8c0,0.067,0,0.133,0,0.2
				c0,0.633-0.05,0.95-0.149,0.95c-0.2-0.033-0.317,0-0.351,0.1h-0.05c-0.233,0.4-0.5,0.833-0.8,1.3
				c-0.566,0.9-1.117,1.667-1.65,2.3c0.367,0.967,0.634,2.017,0.8,3.15c0.5,0.2,1.034,0.483,1.601,0.85c1.133,0.533,2.133,1.8,3,3.8
				c0.666,1.533,1,2.633,1,3.3c0,1.6-0.601,2.9-1.8,3.9c-1.5,1.267-3.9,1.933-7.2,2l-2.25-0.5c-1.233-0.267-2.167-1.133-2.8-2.6
				c-0.334-0.7-0.534-1.333-0.601-1.9c-3.267-0.2-5.483-1.7-6.649-4.5c-0.101-0.233-0.167-0.45-0.2-0.65
				c-1.067,1.1-2.184,1.65-3.35,1.65c-2.967,0-5.55-0.317-7.75-0.95c-0.2,0.267-0.434,0.55-0.7,0.85
				c-2.033,2.333-4.217,3.7-6.55,4.1c-3.033-0.067-5.267-1.333-6.7-3.8c-0.733-1.367-1.15-2.683-1.25-3.95c-1.2,0.667-2.3,1-3.3,1
				c-1.8,0-3.6-0.35-5.4-1.05c-1.5,0.867-3.284,1.3-5.35,1.3c-3,0-5.517-0.867-7.55-2.6c0.034,0.633,0.05,1.283,0.05,1.95
				c0,2.633-0.833,5.267-2.5,7.9c-2.333,3.667-5.667,5.5-10,5.5c-6.833,0-11.5-2.667-14-8c-0.8-1.633-1.333-3.45-1.6-5.45
				l-0.15-2.45c0-0.067,0-0.117,0-0.15c-0.833,0.367-1.75,0.55-2.75,0.55c-3.6,0-6.35-1.667-8.25-5l-0.85-2.4
				c-1.133,1.333-2.183,2.3-3.15,2.9c2.133,0.433,4.017,1.267,5.65,2.5c2.567,1.933,3.85,4.55,3.85,7.85c0,1.533-0.4,2.95-1.2,4.25
				c-1.233,1.966-3.083,2.767-5.55,2.4c-1,0.1-2.117-0.317-3.35-1.25c-1.033-0.767-1.75-1.517-2.15-2.25
				c-0.9,0-1.783,0.066-2.65,0.2c-0.333,0.667-0.784,1.25-1.35,1.75c-1.367,1.2-3.45,1.8-6.25,1.8c-3,0-4.9-0.983-5.7-2.95
				c-0.2-2-0.3-3.05-0.3-3.15c0-2.933,0.733-5.067,2.2-6.4c0.934-0.833,2.05-1.267,3.35-1.3c0.567-0.633,1.25-1.2,2.05-1.7
				c1.167-0.733,2.45-1.267,3.85-1.6c-2.433-0.633-4.417-1.767-5.95-3.4c-0.967-1-1.684-2.067-2.15-3.2
				c0,0.033-0.017,0.083-0.05,0.15c-1.267,3.333-3.783,5.267-7.55,5.8c-0.233-0.067-0.45-0.117-0.65-0.15
				c0.433,1.2,0.65,2.5,0.65,3.9c0,2.333-0.567,4.333-1.7,6c-1.5,2.167-3.767,3.25-6.8,3.25c-4.967,0-8.55-1.75-10.75-5.25
				c-0.667-1.067-1.167-2.233-1.5-3.5l-0.25-1.4c0-0.3,0.017-0.6,0.05-0.9c-2.5-0.4-4.683-1.466-6.55-3.2
				c-0.167,0.867-0.367,1.583-0.6,2.15c-1,2.2-2.983,3.3-5.95,3.3c-0.466,0-0.917-0.033-1.35-0.1c-0.8,0.267-1.667,0.483-2.6,0.65
				l-2.25-0.5c-0.267-0.133-0.517-0.283-0.75-0.45c1.133-0.1,2.25-0.217,3.35-0.35c-1.034-0.433-2.05-1.066-3.05-1.9
				c-2-1.633-3-3.167-3-4.6c0-1.3,0.267-2.633,0.8-4c0.8-2,1.966-3.133,3.5-3.4c2.966,0.2,5.433,0.65,7.4,1.35
				c0-0.133,0-0.25,0-0.35c0-0.9,0.25-1.75,0.75-2.55c0.767-1,1.417-1.917,1.95-2.75c7.9-2.467,13.633-2.333,17.2,0.4
				c2.267,1.767,3.4,4.183,3.4,7.25c0,1.433-0.6,2.983-1.8,4.65c1.233-0.4,2.483-0.816,3.75-1.25c-0.367-0.733-0.55-1.6-0.55-2.6
				c0-1.7,0.317-3.15,0.95-4.35c1.033-1.9,2.783-2.784,5.25-2.65c3.133,1.167,5.1,2.3,5.9,3.4c0.434,0.566,0.65,1.583,0.65,3.05
				c0,0.067,0,0.133,0,0.2c0.333,0,0.667,0.017,1,0.05c0.833,0.1,1.667,0.183,2.5,0.25c-1.233-1.1-1.85-2.167-1.85-3.2
				c0-2.633,0.966-4.65,2.9-6.05c1.733-1.233,3.85-1.75,6.35-1.55c2.5,0.167,4.617,0.983,6.35,2.45c1.934,1.6,2.9,3.617,2.9,6.05
				c0,0.9-0.083,1.683-0.25,2.35c2-0.167,4.017-0.383,6.05-0.65c-0.2-0.267-0.383-0.566-0.55-0.9c-0.733-2.6-1.1-3.95-1.1-4.05
				c0-2.3,2.233-3.6,6.7-3.9c2.4-0.167,4.15,0.083,5.25,0.75c0-0.033,0-0.066,0-0.1c0-1.067,0.4-1.95,1.2-2.65
				c-0.033-0.233-0.05-0.466-0.05-0.7c0-1.533,0.7-2.8,2.1-3.8c1.833-1.3,4.383-1.6,7.65-0.9c0.4,0.5,0.966,1.617,1.7,3.35
				c0,0.033,0.017,0.05,0.05,0.05c0.033,0,0.066,0,0.1,0c0.367,0,1.233-1.05,2.6-3.15c0.2-0.233,1.267-0.85,3.2-1.85
				c1.867-0.966,3.083-1.55,3.65-1.75c2.3-0.9,4.017-1.7,5.15-2.4c1-0.233,5.35-0.533,13.05-0.9c0.533,0.333,1.233,0.917,2.1,1.75
				c0.567,0.6,1.1,0.9,1.6,0.9c0.567,0,1.967-1.05,4.2-3.15c2.733-1.933,5.7-2.45,8.9-1.55c2.867,0.9,4.95,3.117,6.25,6.65
				c0.867,2.267,1.3,4.6,1.3,7c0,0.267,0,0.533,0,0.8c0.434-0.1,0.917-0.183,1.45-0.25c4.4-0.533,8.083,0.4,11.05,2.8
				c1.7,1.5,2.834,3.267,3.4,5.3c0.033,0.067,0.05,0.15,0.05,0.25c0.5-0.567,1.167-1.1,2-1.6c0.934-0.167,1.8-0.233,2.6-0.2
				c-0.666-0.4-1.166-0.867-1.5-1.4c-0.399-0.667-0.6-1.7-0.6-3.1c0-4.434,1.767-6.684,5.3-6.75c1.367-0.034,2.566,0.417,3.601,1.35
				c1.1,0.967,1.649,2.233,1.649,3.8C381.8,51.667,381.5,52.933,380.9,53.9z M402.95,52.7c2.533,2,3.8,4.05,3.8,6.15
				c0,2.566-0.65,4.683-1.95,6.35c-0.934,1.2-2.149,2.117-3.649,2.75c-1.233,1.767-2.884,2.65-4.95,2.65
				c-4.7,0-7.733-1.367-9.101-4.1c-0.699-0.467-1.35-1-1.949-1.6c-1.9-1.933-2.851-3.566-2.851-4.9c0-0.933,0.066-1.8,0.2-2.6
				c-0.233-0.467-0.35-0.717-0.35-0.75c0-3.033,1.116-5.233,3.35-6.6c1.634-1,3.616-1.417,5.95-1.25c0.967-0.033,2,0.034,3.1,0.2
				C397.65,49.533,400.45,50.767,402.95,52.7z M331.2,90.35c-1.233,1.267-2.85,2.017-4.85,2.25c-4.467-2.033-7-3.267-7.6-3.7
				c-1.267-0.867-1.9-2.1-1.9-3.7c0-1.467,0.833-2.667,2.5-3.6c1.566-0.9,3.4-1.367,5.5-1.4c2.2,0,4.033,0.483,5.5,1.45
				c1.667,1.133,2.5,2.733,2.5,4.8C332.85,87.883,332.3,89.183,331.2,90.35z M368.55,65.6c-0.033-0.067-0.083-0.117-0.149-0.15
				c-0.067,0.066-0.117,0.15-0.15,0.25C368.35,65.667,368.45,65.633,368.55,65.6z M312.2,94.85c1.267-0.633,2.816-0.85,4.65-0.65
				c1.8,0.233,3.35,0.783,4.65,1.65c1.4,1,2.1,2.167,2.1,3.5c0,0.733-0.367,1.483-1.1,2.25c-0.8,0.867-1.85,1.533-3.15,2
				c-4.133-0.1-6.883-0.867-8.25-2.3c-0.667-0.733-1-1.767-1-3.1C310.1,96.667,310.8,95.55,312.2,94.85z M192.9,63.8
				c-0.3,0.934-0.983,1.4-2.05,1.4c-1.767,0-2.917-0.4-3.45-1.2c-0.233-0.8-0.35-1.217-0.35-1.25c0-1.967,1-3.033,3-3.2
				c2-0.167,3,0.733,3,2.7C193.05,63.017,193,63.533,192.9,63.8z M188.7,72.25c2.3-0.033,4.65-0.15,7.05-0.35
				c0.167,0.2,0.333,0.417,0.5,0.65c1.067,1.567,1.6,3.534,1.6,5.9c0,1.433-0.583,2.566-1.75,3.4c-0.9,0.667-1.817,1-2.75,1
				c-2.3,0-3.95-0.917-4.95-2.75c-0.533-1-0.8-2-0.8-3C187.6,75.067,187.967,73.45,188.7,72.25z M179.25,67.15
				c0,1.967-0.483,3.483-1.45,4.55c-0.2,0.233-0.417,0.45-0.65,0.65c-1.566,3.167-3.5,4.75-5.8,4.75c-5.767,0-9.934-1.167-12.5-3.5
				c-1.833-1.667-2.75-3.8-2.75-6.4c0-0.233,0.017-0.467,0.05-0.7c0.434,0.167,0.867,0.333,1.3,0.5c-0.4-1.3-0.6-2.767-0.6-4.4
				c0-2.9,1.167-5.117,3.5-6.65c2.167-1.434,4.733-1.983,7.7-1.65c3.067,0.333,5.633,1.534,7.7,3.6
				C178.083,60.3,179.25,63.383,179.25,67.15z M125.45,50.1c0-1.767,0.733-3.283,2.2-4.55c1.633-1.433,3.85-2.216,6.65-2.35
				c2.667,0,5.034,1.133,7.1,3.4c1.667,1.833,2.5,3.35,2.5,4.55c0,0.733-0.217,1.483-0.65,2.25c0.5-0.133,1.083-0.117,1.75,0.05
				c1.1,0.267,2.067,0.883,2.9,1.85c0.9,1,1.35,2.05,1.35,3.15c0,0.933-0.4,1.95-1.2,3.05c-1,1.333-2.167,2-3.5,2
				c-1.767,0-2.917-0.75-3.45-2.25c-0.233-1.5-0.35-2.3-0.35-2.4c0-1.133,0.1-2.1,0.3-2.9c-1.9,1.566-4.3,2.35-7.2,2.35
				c-3.167,0-5.517-1.466-7.05-4.4C125.9,51.133,125.45,49.867,125.45,50.1z M125,48.3c0,1.667-0.117,2.767-0.35,3.3
				c-0.433,1.1-1.4,1.65-2.9,1.65c-1.667,0-2.783-0.617-3.35-1.85c-0.233-1.267-0.35-1.95-0.35-2.05c0-2.467,1.167-3.817,3.5-4.05
				C123.85,45.1,125,46.1,125,48.3z M85.9,42.2c0,1.167-0.233,2.316-0.7,3.45c-0.867,2.1-2.317,3.25-4.35,3.45H78.2
				c-0.667-0.434-1.25-0.85-1.75-1.25c0,1.367-0.617,2.783-1.85,4.25c-1.333,1.633-2.85,2.45-4.55,2.45c-2.867,0-4.7-0.983-5.5-2.95
				c-0.233-2-0.35-3.05-0.35-3.15c0-1.9,0.633-3.383,1.9-4.45c1.133-0.967,2.55-1.45,4.25-1.45c1.633,0,3.033,0.45,4.2,1.35
				c0.034,0.033,0.067,0.05,0.1,0.05c-0.033-0.367-0.05-0.784-0.05-1.25c0-3.034,1.883-4.55,5.65-4.55c1.5,0,2.8,0.35,3.9,1.05
				C85.317,39.967,85.9,40.967,85.9,42.2z M87.3,51.5c0.333-0.333,0.784-0.6,1.35-0.8c-0.566-0.3-0.983-0.767-1.25-1.4
				c-0.131-1.02-0.198-1.47-0.2-1.35c0.002-1.8,1.052-2.867,3.15-3.2c2.2-0.333,3.883,0.883,5.05,3.65
				c-0.333,0.5-0.867,0.967-1.6,1.4c0.767-0.033,1.6-0.05,2.5-0.05c1.733,0.9,3.017,2.433,3.85,4.6c0.533,1.467,0.8,2.967,0.8,4.5
				c0,0.967-0.684,2.15-2.05,3.55c-1.4,1.434-2.95,2.533-4.65,3.3c-2.767-0.167-4.867-1.684-6.3-4.55c-0.1-0.233-0.2-0.45-0.3-0.65
				c-0.333-0.3-0.65-0.617-0.95-0.95c0.167,0,0.35,0.017,0.55,0.05c-0.567-1.567-0.85-3.133-0.85-4.7
				C86.4,53.2,86.7,52.067,87.3,51.5z M97.6,46.2c0-1.367,0.517-2.7,1.55-4c1.434-1.8,3.483-2.7,6.15-2.7c3.7,0,6.167,0.95,7.4,2.85
				c0.533,0.8,0.8,1.883,0.8,3.25c0,1.9-0.767,3.816-2.3,5.75c-1.667,2.133-3.517,3.2-5.55,3.2c-2.4,0-4.45-1.367-6.15-4.1
				C98.233,47.717,97.6,46.3,97.6,46.2z M121.1,68.35c0,1.2-0.567,2.367-1.7,3.5c-1.367,1.4-3.05,1.983-5.05,1.75l-2.25-0.5
				c-0.867-0.934-1.7-2.684-2.5-5.25c-0.667-2.167-1-3.667-1-4.5c0-1.233,0.167-2.3,0.5-3.2c3.066-0.066,6.133-0.167,9.2-0.3
				c0.3,0.333,0.583,0.717,0.85,1.15C120.45,63.033,121.1,65.483,121.1,68.35z M135.65,58.2c1.2-0.167,2.4-0.333,3.6-0.5
				c0.167,0.1,0.317,0.2,0.45,0.3c-0.467,0.367-0.917,0.733-1.35,1.1l-2.25-0.5C135.933,58.467,135.783,58.333,135.65,58.2z"/>
		</g>
		<g>
			<path fill-rule="evenodd" clip-rule="evenodd" fill="#DAB66B" d="M423.95,79.95c1.399-1.467,2.684-2.317,3.85-2.55
				c2.334,0.7,4.066,1.867,5.2,3.5c0.833,1.233,1.25,2.567,1.25,4c0,1.367-0.2,2.434-0.6,3.2c-0.801,1.333-2.267,2-4.4,2
				c-4.866,0-7.3-2.317-7.3-6.95C421.95,82.417,422.616,81.35,423.95,79.95z M348.35,89.8c-0.3-2.2-0.45-3.35-0.45-3.45
				c0-3.667,1.567-5.283,4.7-4.85c1.3,0.133,2.383,0.65,3.25,1.55c1,1,1.5,2.184,1.5,3.55c0,1.333-0.267,2.583-0.8,3.75
				c-0.867,1.767-2.216,2.65-4.05,2.65C350.467,93,349.083,91.933,348.35,89.8z M169.4,85.95c0-1.567,0.517-3.167,1.55-4.8
				c1.267-2.133,2.816-2.75,4.65-1.85c1.066,0.534,1.95,1.317,2.65,2.35c0.6,0.9,0.9,1.65,0.9,2.25c0,0.667-0.467,1.833-1.4,3.5
				c-1.033,1.8-1.983,2.934-2.85,3.4c-1.367,0-2.533-0.167-3.5-0.5C170.067,88.567,169.4,87.117,169.4,85.95z M212.75,73.45
				c1.1-0.9,2.4-1.233,3.9-1c3.767,0.533,5.65,3.367,5.65,8.5c0,1.4-0.466,2.566-1.4,3.5c-0.967,0.9-2.25,1.35-3.85,1.35
				c-3.066,0-5-1.267-5.8-3.8c-0.167-0.567-0.25-2.017-0.25-4.35C211,75.85,211.583,74.45,212.75,73.45z M209.1,62.45
				c3-0.4,4.5,1.167,4.5,4.7c0,1-0.5,2.1-1.5,3.3c-1.1,1.3-2.217,1.95-3.35,1.95c-2.1,0-3.417-0.8-3.95-2.4
				c-0.133-1.633-0.2-2.5-0.2-2.6C204.6,64.467,206.1,62.817,209.1,62.45z M153.5,77.5c0,1.833-0.417,3.483-1.25,4.95
				c-1.233,2.167-3.133,3.15-5.7,2.95l-1.35-0.45c-0.8-1.267-2.117-2.883-3.95-4.85c-0.6-0.633-0.9-1.883-0.9-3.75
				c0-1.6,0.683-2.867,2.05-3.8c1.233-0.867,2.75-1.283,4.55-1.25c1.767,0.034,3.267,0.55,4.5,1.55
				C152.817,73.983,153.5,75.533,153.5,77.5z"/>
		</g>
	</g>
</g>
</svg>
