<?xml version="1.0" encoding="utf-8"?>
<!-- Generator: Adobe Illustrator 15.0.0, SVG Export Plug-In . SVG Version: 6.00 Build 0)  -->
<!DOCTYPE svg PUBLIC "-//W3C//DTD SVG 1.1//EN" "http://www.w3.org/Graphics/SVG/1.1/DTD/svg11.dtd">
<svg version="1.1" id="Selected_Items" xmlns="http://www.w3.org/2000/svg" xmlns:xlink="http://www.w3.org/1999/xlink" x="0px"
	 y="0px" width="117.325px" height="67.9px" viewBox="0 0 117.325 67.9" enable-background="new 0 0 117.325 67.9"
	 xml:space="preserve">
	<g id="Layer_2_2_" transform="matrix(1 0 0 -1 -1.9751 19.2002)">
		<path fill-rule="evenodd" clip-rule="evenodd" fill="#9BF386" d="M75.7-14.375c-0.048,0.022-0.098,0.039-0.15,0.05
			c0.362,0.367,0.779,0.826,1.25,1.375c0.092,0.108,0.184,0.216,0.275,0.325c0.072-0.004,0.146-0.004,0.225,0
			c3.186-0.21,6.203-0.985,9.05-2.325h0.05c0.567-0.3,1.15-0.6,1.75-0.9l0.05-0.05c1.867-1.067,3.617-2.367,5.25-3.9v0.05
			c0.5-0.467,0.983-0.967,1.45-1.5l0.05-0.05c1.833-2.3,3.316-4.85,4.45-7.65c1.167-2.9,1.983-5.833,2.45-8.8c0-0.033,0-0.067,0-0.1
			c0.255-3.188,0.338-6.379,0.25-9.575c0.004-0.138,0.004-0.28,0-0.425v-0.05c0-0.067,0-0.133,0-0.2c0-0.033,0-0.083,0-0.15
			c-0.8,0.133-1.867,0.217-3.2,0.25c-0.33,0.013-0.647,0.022-0.95,0.025c0.167,0.75,0.25,1.292,0.25,1.625
			c0.133,2.533,0.2,3.967,0.2,4.3l-0.2,3.8c-0.1,0.967-0.117,1.617-0.05,1.95c0.067,0.433,0.067,1.083,0,1.95
			c-0.066,0.367-0.35,1.05-0.85,2.05c-0.433,0.867-0.6,1.483-0.5,1.85c0.133,0.534,0.017,1.217-0.35,2.05
			c-0.434,0.9-0.717,1.517-0.85,1.85c-0.167,0.466-0.567,1.133-1.2,2c-0.733,1.033-1.167,1.667-1.3,1.9c-0.567,1.1-0.9,1.717-1,1.85
			c-0.633,0.733-1.717,1.333-3.25,1.8c-0.1,0.033-0.467,0.317-1.1,0.85c-0.633,0.5-1.267,0.85-1.9,1.05
			c-0.867,0.267-2.067,0.917-3.6,1.95c-0.4,0.267-0.883,0.517-1.45,0.75c-0.5,0.233-0.867,0.433-1.1,0.6
			c-0.667,0.4-1.083,0.633-1.25,0.7c-0.467,0.133-0.917,0.017-1.35-0.35c-0.199-0.139-0.34-0.306-0.425-0.5
			c-0.349-0.09-0.59-0.248-0.725-0.475C75.862-14.408,75.778-14.392,75.7-14.375z M43.2-13.65c-0.021,0.031-0.046,0.064-0.075,0.1
			c0.247,0.09,0.514,0.198,0.8,0.325c0.128,0.018,0.253,0.035,0.375,0.05c0.382,0.061,0.766,0.128,1.15,0.2
			c0.519-0.349,1.002-0.757,1.45-1.225v-0.05c0.967-1.167,1.833-2.433,2.6-3.8h0.05c1.1-2.034,1.917-4.184,2.45-6.45
			c0.533-2.333,0.833-4.633,0.9-6.9c0.1-2.7,0.167-5.417,0.2-8.15v-0.05c0-1.367-0.017-2.767-0.05-4.2c0-1.267-0.017-2.55-0.05-3.85
			c-0.533,0.1-1.15,0.1-1.85,0c-0.048-0.006-0.099-0.015-0.15-0.025c0.094,1.329,0.094,3.104,0,5.325
			c0.1,3.434,0.033,5.983-0.2,7.65c-0.433,2.833-0.767,5.383-1,7.65c-0.267,2.7-0.8,5.25-1.6,7.65c-0.567,1.5-1.167,2.75-1.8,3.75
			c-0.633,1.1-1.05,1.75-1.25,1.95c-0.874,0.247-1.457,0.164-1.75-0.25C43.337-13.844,43.271-13.744,43.2-13.65z M5.75-48.025
			L5.6-47.55L4.175-47.6H4.1c-0.212,0-0.429,0-0.65,0c0.097,0.571,0.13,1.388,0.1,2.45c-0.1,3.566,0.083,6.566,0.55,9
			c0.667,3.8,2.217,8.05,4.65,12.75c2.833,5.433,6.883,9.617,12.15,12.55c0.302,0.169,0.603,0.336,0.9,0.5
			c2.5,1.333,5,2.567,7.5,3.7c0.101,0.049,0.201,0.099,0.3,0.15c0.25,0.116,0.5,0.232,0.75,0.35L30.65-6
			c0.452,0.228,0.885,0.461,1.3,0.7c0.737,0.416,1.429,0.849,2.075,1.3c1.239,0.019,2.364,0.452,3.375,1.3
			c0.295,0.248,0.537,0.481,0.725,0.7H38.7c-0.243-0.214-0.485-0.43-0.725-0.65C37.582-2.976,37.19-3.317,36.8-3.675
			c-0.074-0.063-0.149-0.13-0.225-0.2L36.55-3.9c-0.517-0.487-1.05-0.954-1.6-1.4c-0.271-0.222-0.546-0.438-0.825-0.65
			c-0.455-0.344-0.921-0.678-1.4-1c-1.223-0.818-2.514-1.551-3.875-2.2c-2.333-1.167-4.684-2.434-7.05-3.8
			c-0.636-0.432-1.252-0.882-1.85-1.35v-0.05c-1.133-0.8-2.2-1.683-3.2-2.65c-1.267-1.233-2.45-2.517-3.55-3.85
			c-1-1.167-1.917-2.433-2.75-3.8c-1.233-2.067-2.1-4.283-2.6-6.65C7.283-33.833,6.8-36.4,6.4-39
			c-0.233-1.533-0.316-3.083-0.25-4.65c0.03-1.076-0.02-2.543-0.15-4.4c-0.016-0.21-0.033-0.427-0.05-0.65L5.75-48.025z"/>
		<path fill-rule="evenodd" clip-rule="evenodd" fill="#72DB66" d="M77.3-12.625c0.049,0.149,0.149,0.274,0.3,0.375
			c0.167,0.167,0.367,0.25,0.6,0.25c3.9,0.033,7.55-0.75,10.95-2.35h0.05c0.566-0.3,1.15-0.6,1.75-0.9L91-15.3
			c1.867-1.067,3.617-2.367,5.25-3.9v0.05c0.5-0.467,0.983-0.967,1.45-1.5l0.05-0.05c1.833-2.3,3.317-4.85,4.45-7.65
			c1.167-2.9,1.983-5.833,2.45-8.8c0-0.033,0-0.067,0-0.1c0.267-3.333,0.35-6.667,0.25-10v-0.05c0-0.064,0-0.131,0-0.2
			c-0.002-0.047-0.002-0.097,0-0.15c-0.728,0.114-1.661,0.189-2.8,0.225c0.088,3.195,0.005,6.387-0.25,9.575c0,0.033,0,0.067,0,0.1
			c-0.467,2.967-1.283,5.9-2.45,8.8c-1.133,2.8-2.617,5.35-4.45,7.65l-0.05,0.05c-0.467,0.533-0.95,1.033-1.45,1.5v-0.05
			c-1.633,1.533-3.383,2.833-5.25,3.9l-0.05,0.05c-0.6,0.3-1.183,0.6-1.75,0.9h-0.05C83.502-13.61,80.486-12.835,77.3-12.625z
			 M44.3-13.175c0.121,0.068,0.238,0.126,0.35,0.175c0.157,0.089,0.315,0.131,0.475,0.125c0.069,0.005,0.145-0.003,0.225-0.025
			c0.562-0.094,1.096-0.277,1.6-0.55c0.019-0.008,0.035-0.016,0.05-0.025c0.019-0.008,0.036-0.017,0.05-0.025
			c0.995-0.429,1.878-1.046,2.65-1.85v-0.05c1-1.1,1.9-2.317,2.7-3.65h0.05c1.133-1.967,2-4.05,2.6-6.25
			c0.567-2.267,0.917-4.483,1.05-6.65c0.167-2.633,0.3-5.267,0.4-7.9v-0.05c0.033-1.333,0.05-2.684,0.05-4.05
			c0-1.221-0.008-2.462-0.025-3.725c-0.504,0.087-1.112,0.079-1.825-0.025c-1.604-0.18-2.846-0.33-3.725-0.45
			c0.006,0.153,0.014,0.312,0.025,0.475c0.051,0.01,0.102,0.019,0.15,0.025c0.7,0.1,1.317,0.1,1.85,0
			c0.033,1.3,0.05,2.583,0.05,3.85c0.034,1.433,0.05,2.833,0.05,4.2v0.05c-0.033,2.733-0.1,5.45-0.2,8.15
			c-0.066,2.267-0.367,4.566-0.9,6.9c-0.533,2.267-1.35,4.417-2.45,6.45H49.5c-0.767,1.367-1.633,2.633-2.6,3.8v0.05
			c-0.448,0.468-0.931,0.876-1.45,1.225C45.065-13.047,44.682-13.114,44.3-13.175z M42.825-2c-0.935-1.191-1.952-2.292-3.05-3.3
			c-0.25-0.221-0.5-0.438-0.75-0.65C38.376-6.5,37.702-7.017,37-7.5c-0.311-0.227-0.628-0.443-0.95-0.65
			c-2.466-1.633-4.917-3.117-7.35-4.45c-0.633-0.3-1.267-0.617-1.9-0.95c-0.991-0.611-1.941-1.261-2.85-1.95l-0.025-0.025
			c-1.131-0.802-2.198-1.669-3.2-2.6h0.025c-1.261-1.201-2.453-2.459-3.575-3.775c-0.983-1.133-1.892-2.367-2.725-3.7
			c-1.233-2.033-2.1-4.2-2.6-6.5c-0.567-2.467-1.05-4.967-1.45-7.5c-0.233-1.5-0.316-3.017-0.25-4.55
			c0.033-1.167-0.1-2.283-0.4-3.35L9.6-47.95L8.1-48c-0.588,0.01-1.255,0.01-2,0l1-0.15c-0.391,0.04-0.758,0.073-1.1,0.1
			c0.13,1.857,0.18,3.324,0.15,4.4C6.083-42.083,6.167-40.533,6.4-39c0.4,2.6,0.883,5.167,1.45,7.7c0.5,2.367,1.367,4.583,2.6,6.65
			c0.833,1.367,1.75,2.633,2.75,3.8c1.1,1.333,2.283,2.617,3.55,3.85c1,0.967,2.067,1.85,3.2,2.65v0.05
			c0.597,0.468,1.214,0.917,1.85,1.35c2.367,1.367,4.717,2.633,7.05,3.8c1.361,0.649,2.652,1.382,3.875,2.2
			c0.479,0.322,0.945,0.656,1.4,1c0.279,0.212,0.554,0.428,0.825,0.65c0.549,0.446,1.083,0.913,1.6,1.4l0.025,0.025
			c0.076,0.07,0.151,0.137,0.225,0.2c0.39,0.357,0.782,0.699,1.175,1.025C38.215-2.43,38.457-2.214,38.7-2H42.825z M4.175-47.6
			L5.6-47.55l0.15-0.475c-0.589,0.035-1.106,0.051-1.55,0.05C4.194-47.855,4.186-47.73,4.175-47.6z"/>
		<path fill-rule="evenodd" clip-rule="evenodd" fill="#3DAF47" d="M9.75-47.5c0.3,1.067,0.433,2.183,0.4,3.35
			c-0.066,1.533,0.017,3.05,0.25,4.55c0.4,2.533,0.883,5.033,1.45,7.5c0.5,2.3,1.367,4.467,2.6,6.5
			c0.833,1.333,1.742,2.567,2.725,3.7c1.123,1.315,2.314,2.574,3.575,3.775h-0.025c1.002,0.931,2.069,1.798,3.2,2.6L23.95-15.5
			c0.909,0.689,1.859,1.339,2.85,1.95c0.633,0.333,1.267,0.65,1.9,0.95c2.433,1.333,4.883,2.817,7.35,4.45
			C36.372-7.943,36.689-7.727,37-7.5c0.702,0.483,1.376,1,2.025,1.55c0.25,0.212,0.5,0.429,0.75,0.65
			c1.099,1.008,2.115,2.108,3.05,3.3H85.55c0.38-0.392,0.88-0.825,1.5-1.3c1.676-1.287,3.434-1.995,5.275-2.125
			c0.45-0.172,0.9-0.347,1.35-0.525c0.397-0.155,0.789-0.313,1.175-0.475C94.838-6.452,94.83-6.477,94.825-6.5
			c-0.045-0.206-0.145-0.381-0.3-0.525c3.01-1.349,5.893-2.907,8.65-4.675l1.725-1.15c0.117-0.085,0.234-0.168,0.35-0.25
			c6.43-4.51,10.521-11.443,12.275-20.8c0.77-4.074,1.095-8.607,0.975-13.6h-13.6c0,0.069,0,0.136,0,0.2v0.05
			c0.1,3.333,0.017,6.667-0.25,10c0,0.033,0,0.067,0,0.1c-0.467,2.967-1.283,5.9-2.45,8.8c-1.133,2.8-2.617,5.35-4.45,7.65
			l-0.05,0.05c-0.467,0.533-0.95,1.033-1.45,1.5v-0.05c-1.633,1.534-3.383,2.833-5.25,3.9l-0.05,0.05c-0.6,0.3-1.184,0.6-1.75,0.9
			h-0.05c-3.4,1.6-7.05,2.383-10.95,2.35c-0.233,0-0.434-0.083-0.6-0.25c-0.151-0.101-0.251-0.226-0.3-0.375
			c-0.078-0.004-0.153-0.004-0.225,0c-0.092-0.109-0.184-0.217-0.275-0.325c-0.471-0.549-0.888-1.008-1.25-1.375
			c0.052-0.011,0.102-0.028,0.15-0.05c-0.067-0.07-0.133-0.145-0.2-0.225c-3.503-4.194-5.037-15.227-4.6-33.1H56.65
			c-0.038,0.009-0.08,0.018-0.125,0.025c0.017,1.262,0.025,2.504,0.025,3.725c0,1.367-0.017,2.717-0.05,4.05v0.05
			c-0.1,2.633-0.233,5.267-0.4,7.9c-0.133,2.167-0.483,4.383-1.05,6.65c-0.6,2.2-1.466,4.283-2.6,6.25H52.4
			c-0.8,1.333-1.7,2.55-2.7,3.65v0.05c-0.772,0.804-1.655,1.421-2.65,1.85c-0.014,0.008-0.031,0.017-0.05,0.025
			c-0.015,0.009-0.031,0.017-0.05,0.025c-0.504,0.273-1.038,0.457-1.6,0.55c-0.07,0.021-0.137,0.037-0.2,0.05l-0.025-0.025
			c-0.16,0.006-0.318-0.036-0.475-0.125c-0.112-0.048-0.229-0.106-0.35-0.175c-0.122-0.016-0.247-0.032-0.375-0.05
			c-0.286-0.127-0.553-0.235-0.8-0.325c0.029-0.036,0.054-0.069,0.075-0.1c-3.785-1.344-7.302-3.144-10.55-5.4
			c-6.105-4.314-9.172-13.797-9.2-28.45H9.75z"/>
		<path fill-rule="evenodd" clip-rule="evenodd" fill="#82FF74" d="M2.1-47.6c0.022,0,0.047,0,0.075,0
			c0.004-0.021,0.013-0.046,0.025-0.075c-0.08,0.012-0.155,0.021-0.225,0.025L2.1-47.6z"/>
		<g>
			<path fill-rule="evenodd" clip-rule="evenodd" fill="#297216" d="M94.725-6.25c0.365-0.163,0.732-0.33,1.1-0.5
				c0.782-0.368,1.557-0.751,2.325-1.15c2.607-1.364,5.115-2.89,7.525-4.575c6.594-4.597,10.794-11.689,12.6-21.275l0.025-0.025
				c0.671-3.638,1.004-7.646,1-12.025v-0.05c-0.033-0.55-0.049-1.1-0.05-1.65c-0.002-0.205-0.077-0.38-0.225-0.525
				c-0.145-0.148-0.32-0.223-0.525-0.225c-0.206,0.002-0.38,0.077-0.525,0.225c-0.148,0.145-0.224,0.32-0.225,0.525
				c0,0.583,0.016,1.167,0.05,1.75c0.002,4.268-0.323,8.176-0.975,11.725c-1.733,9.135-5.733,15.901-12,20.3
				c-2.146,1.499-4.371,2.857-6.675,4.075l-9.4,4.4c-1.54,0.624-2.839,1.391-3.9,2.3L84.9-2.8c0.233-0.034,0.583-0.184,1.05-0.45
				c0.7-0.433,1.183-0.717,1.45-0.85c0.231-0.116,0.682-0.299,1.35-0.55l1.3-0.5l-1.3,0.9c-0.319,0.21-0.636,0.427-0.95,0.65
				c0.307-0.102,0.624-0.21,0.95-0.325c0.4-0.15,0.8-0.309,1.2-0.475C91.57-4.953,93.162-5.569,94.725-6.25z M4.45-47.5
				c0.001-0.192-0.065-0.358-0.2-0.5c-0.143-0.156-0.318-0.239-0.525-0.25c-0.203-0.007-0.377,0.059-0.525,0.2
				c-0.156,0.143-0.239,0.317-0.25,0.525c-0.034,1.042-0.034,2.066,0,3.075v0.025C3.159-29.44,7.767-18.79,16.775-12.475
				c1.898,1.322,3.856,2.538,5.875,3.65c0.133,0.078,0.267,0.152,0.4,0.225c0.464,0.257,0.93,0.507,1.4,0.75l0.4,0.2
				c0.511,0.251,1.027,0.501,1.55,0.75l0.925,0.4C29.363-5.597,31.454-4.764,33.6-4c0.497,0.175,0.997,0.35,1.5,0.525
				c0.128,0.055,0.27,0.113,0.425,0.175c0.04,0.016,0.082,0.033,0.125,0.05c0.434,0.333,0.883,0.6,1.35,0.8
				c-0.155-0.283-0.471-0.566-0.95-0.85c-0.133-0.083-0.283-0.167-0.45-0.25c-0.578-0.265-0.994-0.448-1.25-0.55
				c-0.215-0.17-0.432-0.336-0.65-0.5c-0.034-0.023-0.067-0.048-0.1-0.075c-0.042-0.024-0.083-0.049-0.125-0.075
				c0.042,0.013,0.084,0.03,0.125,0.05c0.435,0.119,0.802,0.186,1.1,0.2l0.1-0.25c-0.165-0.062-0.564-0.253-1.2-0.575
				c-0.393-0.19-0.876-0.432-1.45-0.725c-0.346-0.18-0.846-0.388-1.5-0.625c-0.792-0.302-1.567-0.627-2.325-0.975L24.45-9.575
				c-0.606-0.316-1.206-0.642-1.8-0.975c-1.722-0.984-3.396-2.043-5.025-3.175C9.035-19.808,4.644-30.05,4.45-44.45v-0.025
				c-0.033-0.983-0.033-1.983,0-3V-47.5z"/>

				<path fill-rule="evenodd" clip-rule="evenodd" fill="none" stroke="#297216" stroke-width="1.5" stroke-linecap="round" stroke-linejoin="round" stroke-miterlimit="3" d="
				M98.55-47.5c0.143,5.184-0.115,9.717-0.775,13.6c-1.199,7.167-3.758,12.116-7.675,14.85c-3.784,2.65-7.959,4.667-12.525,6.05
				 M44.45-13.25c-4.267-1.366-8.2-3.3-11.8-5.8c-6.105-4.314-9.172-13.797-9.2-28.45"/>

				<path fill-rule="evenodd" clip-rule="evenodd" fill="none" stroke="#297216" stroke-width="1.2" stroke-linecap="round" stroke-linejoin="round" stroke-miterlimit="3" d="
				M77.575-13c-0.875-0.455-1.566-0.988-2.075-1.6c-3.503-4.194-5.037-15.227-4.6-33.1H50.7c0.577,20.461-1.506,31.944-6.25,34.45
				 M23.45-47.5h-19 M117.75-47.5h-19.2"/>
		</g>
		<g>
			<path fill-rule="evenodd" clip-rule="evenodd" fill="#3DAF47" d="M60.925,18.15L62.2,18.6h2.6c0.367,0.066,0.65,0,0.85-0.2
				c-0.058-0.058-0.133-0.116-0.225-0.175h0.15L67.95,18.2l0.175-0.075c0.332-0.023,0.657-0.048,0.975-0.075c0.033,0,0.066,0,0.1,0
				c0.867-0.167,1.683-0.367,2.45-0.6c1.9-0.567,2.95-1.15,3.15-1.75c2.133-1.567,3.45-3.333,3.95-5.3
				c0.3-1.566,0.483-2.45,0.55-2.65c0.067-0.167,0.4-1.033,1-2.6l0.4-1.35c0.066-0.133,0.216-0.35,0.45-0.65
				c0.267-0.333,0.434-0.55,0.5-0.65l1.15-2.65c0.167-0.333,0.567-0.767,1.2-1.3c0.9-0.767,1.4-1.2,1.5-1.3
				c0.167-0.2,0.75-0.583,1.75-1.15H43.9l-1.2-1.2H42l0.875,1.2c1.017,1.167,1.842,2.45,2.475,3.85c0.933,1.933,1.816,3.9,2.65,5.9
				c0.2,0.533,0.383,1.066,0.55,1.6c0.617,1.969,1.15,3.603,1.6,4.9c0.1,0.367,0.367,0.8,0.8,1.3c0.133,0.233,0.333,0.45,0.6,0.65
				c1.754,1.527,4.08,2.602,6.975,3.225c0.844,0.262,1.585,0.454,2.225,0.575L60.925,18.15z"/>
			<path fill-rule="evenodd" clip-rule="evenodd" fill="#72DB66" d="M42.875-3.9c-0.25-0.2-0.508-0.417-0.775-0.65
				c-2-1.534-4.142-2.883-6.425-4.05c-1.645-0.824-3.72-1.741-6.225-2.75c0.867,0.733,2.216,1.6,4.05,2.6
				c0.093,0.051,0.184,0.101,0.275,0.15c0.483,0.233,0.958,0.467,1.425,0.7c1.966,1.133,3.85,2.467,5.65,4h-1.625
				c1.228,0.728,1.919,1.353,2.075,1.875c1.098,0.991,1.998,2.149,2.7,3.475c0.533,0.966,0.967,1.983,1.3,3.05
				c0.3,1,0.575,1.983,0.825,2.95c0.48,1.97,0.972,3.603,1.475,4.9c0.133,0.367,0.4,0.8,0.8,1.3c0.167,0.233,0.367,0.45,0.6,0.65
				c2.744,2.446,6.719,3.729,11.925,3.85L60.75,18.1c-0.64-0.121-1.381-0.313-2.225-0.575c-2.896-0.624-5.221-1.698-6.975-3.225
				c-0.267-0.2-0.466-0.417-0.6-0.65c-0.434-0.5-0.7-0.933-0.8-1.3c-0.45-1.297-0.983-2.931-1.6-4.9
				C48.383,6.917,48.2,6.383,48,5.85c-0.833-2-1.717-3.967-2.65-5.9C44.717-1.45,43.892-2.733,42.875-3.9z M65.575,18.225
				c0.216,0.137,0.325,0.262,0.325,0.375L65.05,19l2.15-0.05l1.25-0.25c0.533-0.133,1-0.25,1.4-0.35c-0.133-0.1-0.35-0.2-0.65-0.3
				c-0.034,0-0.067,0-0.1,0c-0.318,0.027-0.643,0.052-0.975,0.075L67.95,18.2L65.575,18.225z"/>
			<path fill-rule="evenodd" clip-rule="evenodd" fill="#9BF386" d="M65.05,19l0.85-0.4c0-0.113-0.108-0.238-0.325-0.375h-0.15
				c0.092,0.059,0.167,0.117,0.225,0.175c-0.2,0.2-0.483,0.267-0.85,0.2h-2.6l-1.275-0.45C55.719,18.029,51.744,16.746,49,14.3
				c-0.233-0.2-0.433-0.417-0.6-0.65c-0.4-0.5-0.667-0.933-0.8-1.3c-0.503-1.297-0.995-2.93-1.475-4.9
				C45.875,6.483,45.6,5.5,45.3,4.5c-0.333-1.067-0.767-2.083-1.3-3.05c-0.702-1.326-1.602-2.484-2.7-3.475
				c-0.155-0.522-0.847-1.147-2.075-1.875c-0.761-0.458-1.736-0.958-2.925-1.5c-0.32-0.129-0.628-0.254-0.925-0.375
				c-1.278-0.669-2.72-1.294-4.325-1.875L30.7-7.5c0.021,0.013,0.046,0.029,0.075,0.05c-0.401,0.052-0.643,0.119-0.725,0.2l0.1,0.15
				c1.652,0.682,3.002,1.24,4.05,1.675c0.978,0.582,1.836,1.09,2.575,1.525H36.5c1.733,0.933,3.217,2.183,4.45,3.75
				c0.4,0.533,0.767,1.083,1.1,1.65c1.133,1.833,1.909,3.817,2.325,5.95c0.148,0.642,0.307,1.492,0.475,2.55
				c0.3,1.3,0.733,2.417,1.3,3.35c0.067,0.1,0.133,0.2,0.2,0.3c2.2,3.567,6.867,5.383,14,5.45c0.767,0.033,1.55,0.05,2.35,0.05
				c0.733-0.033,1.5-0.066,2.3-0.1L65.05,19z"/>
			<g>
				<path fill-rule="evenodd" clip-rule="evenodd" fill="#297216" d="M59.4,19.1c1.533,0.033,3.083,0.05,4.65,0.05
					c0.233,0,0.483,0,0.75,0c6.7-0.2,11.167-2.017,13.4-5.45c0.066-0.1,0.133-0.2,0.2-0.3c0.6-0.933,1.05-2.05,1.35-3.35
					c0.267-1.466,0.5-2.533,0.7-3.2c0.667-2.767,1.733-5,3.2-6.7c1.267-1.467,2.45-2.566,3.55-3.3c1.933-1.267,4.633-2.35,8.1-3.25
					c-0.433-0.233-0.716-0.35-0.85-0.35c-6.267,1.4-10.333,3.467-12.2,6.2c-1.8,2.533-2.9,4.683-3.3,6.45
					c-0.667,2.7-1.333,4.867-2,6.5c-0.133,0.367-0.4,0.8-0.8,1.3c-0.167,0.233-0.383,0.45-0.65,0.65c-2.533,2.233-6.1,3.5-10.7,3.8
					c-1.066,0.033-2.117,0.05-3.15,0.05c-1.133-0.133-2.133-0.05-3,0.25c-0.033,0.066-0.05,0.133-0.05,0.2h0.05
					c0.033,0.033,0.083,0.067,0.15,0.1C59,18.85,59.2,18.967,59.4,19.1z"/>
			</g>
			<g>
				<path fill-rule="evenodd" clip-rule="evenodd" fill="#297216" d="M58.6,19.15c0.767,0.033,1.55,0.05,2.35,0.05
					c0.733-0.034,1.5-0.067,2.3-0.1l0.9-0.45c0-0.1-0.066-0.2-0.2-0.3c-0.1,0-0.2,0-0.3,0c-1.433,0-2.333-0.033-2.7-0.1
					c-0.034,0-0.067-0.017-0.1-0.05c-6.033,0.133-10.567-1.15-13.6-3.85c-0.233-0.2-0.433-0.417-0.6-0.65
					c-0.4-0.5-0.667-0.934-0.8-1.3C45.217,10.767,44.6,8.6,44,5.9c-0.367-1.767-1.433-3.917-3.2-6.45
					c-1.833-2.733-5.85-4.8-12.05-6.2c-0.133,0-0.433,0.117-0.9,0.35C31.317-5.5,34-4.417,35.9-3.15c1.1,0.733,2.267,1.833,3.5,3.3
					c1.434,1.7,2.45,3.934,3.05,6.7c0.2,0.667,0.417,1.733,0.65,3.2c0.3,1.3,0.733,2.417,1.3,3.35c0.067,0.1,0.133,0.2,0.2,0.3
					C46.8,17.267,51.467,19.083,58.6,19.15z"/>
			</g>
		</g>
	</g>
</svg>
