<?xml version="1.0" encoding="UTF-8" standalone="no"?>
<!-- Created with Inkscape (http://www.inkscape.org/) -->

<svg
   xmlns:dc="http://purl.org/dc/elements/1.1/"
   xmlns:cc="http://creativecommons.org/ns#"
   xmlns:rdf="http://www.w3.org/1999/02/22-rdf-syntax-ns#"
   xmlns:svg="http://www.w3.org/2000/svg"
   xmlns="http://www.w3.org/2000/svg"
   version="1.1"
   width="19.049999"
   height="21.049999"
   viewBox="0 0 19.05 21.049999"
   id="Selected_Items"
   xml:space="preserve"><metadata
     id="metadata154"><rdf:RDF><cc:Work
         rdf:about=""><dc:format>image/svg+xml</dc:format><dc:type
           rdf:resource="http://purl.org/dc/dcmitype/StillImage" /><dc:title></dc:title></cc:Work></rdf:RDF></metadata><defs
     id="defs152" /><g
     transform="translate(-7.95,-6.3500004)"
     id="g84"><g
       id="g86"><path
         d="m 22.3,27.35 c -0.1,0.033 -0.183,0.033 -0.25,0 -0.066,-0.033 -0.1,-0.067 -0.1,-0.1 V 27.2 L 26,17.3 17.45,8 l -8.4,9.2 3.85,9.9 c 0.067,-0.033 0.117,-0.067 0.15,-0.1 0.1,0 0.133,0.033 0.1,0.1 -0.033,0.1 -0.083,0.167 -0.15,0.2 l -0.05,0.05 c -0.1,0.033 -0.2,0.033 -0.3,0 -0.1,-0.033 -0.183,-0.1 -0.25,-0.2 L 8.1,17.55 C 8.067,17.517 8.05,17.467 8.05,17.4 7.984,17.334 7.95,17.25 7.95,17.15 c 0,-0.1 0.033,-0.183 0.1,-0.25 l 9.4,-10.55 c 1.1,1.433 2.216,2.717 3.35,3.85 l 6.1,6.7 c 0.067,0.067 0.1,0.15 0.1,0.25 0,0.1 -0.033,0.184 -0.1,0.25 0,0.067 0,0.117 0,0.15 l -4.3,9.6 c -0.067,0.1 -0.133,0.167 -0.2,0.2 h -0.1 z"
         id="path88"
         style="fill:#278db0;fill-rule:evenodd" /><path
         d="m 21.95,27.2 -0.1,-0.1 c 0,0.066 0.033,0.117 0.1,0.15 0,0.033 0.033,0.067 0.1,0.1 0.067,0.033 0.15,0.033 0.25,0 v 0.05 h -4.15 c -0.133,0 -1.816,-0.017 -5.05,-0.05 L 13,27.3 c 0.067,-0.033 0.117,-0.1 0.15,-0.2 0.033,-0.067 0,-0.1 -0.1,-0.1 -0.033,0.033 -0.083,0.067 -0.15,0.1 L 9.05,17.2 17.45,8 26,17.3 21.95,27.2 z"
         id="path90"
         style="fill:#a2d6ff;fill-rule:evenodd" /><path
         d="m 21.95,27.25 c -0.067,-0.033 -0.1,-0.083 -0.1,-0.15 l 0.1,0.1 v 0.05 z"
         id="path92"
         style="fill-rule:evenodd" /></g><g
       id="g94"><path
         d="m 16.55,20.85 h 1.75 l -0.9,-2.65 -0.85,2.65 z m 1.7,-4.25 0.05,0.05 2.35,6.8 H 19.1 l -0.45,-1.4 h -2.5 l -0.45,1.4 h -1.5 l 2.45,-6.85 h 1.6 z"
         id="path96"
         style="fill:#4a3217;fill-rule:evenodd" /></g></g></svg>