<?xml version="1.0" encoding="UTF-8" standalone="no"?>
<!-- Created with Inkscape (http://www.inkscape.org/) -->

<svg
   xmlns:dc="http://purl.org/dc/elements/1.1/"
   xmlns:cc="http://creativecommons.org/ns#"
   xmlns:rdf="http://www.w3.org/1999/02/22-rdf-syntax-ns#"
   xmlns:svg="http://www.w3.org/2000/svg"
   xmlns="http://www.w3.org/2000/svg"
   version="1.1"
   width="49.099998"
   height="21.050766"
   viewBox="0 0 49.1 21.050766"
   id="Selected_Items"
   xml:space="preserve"><metadata
     id="metadata150"><rdf:RDF><cc:Work
         rdf:about=""><dc:format>image/svg+xml</dc:format><dc:type
           rdf:resource="http://purl.org/dc/dcmitype/StillImage" /><dc:title></dc:title></cc:Work></rdf:RDF></metadata><defs
     id="defs148" /><g
     transform="translate(-10.75,-30.599234)"
     id="g64"><path
       d="m 35.55,40.65 c -0.167,-1.333 -0.783,-2.667 -1.85,-4 l 7.35,4.65 -7.35,4.65 c 1,-1.267 1.6,-2.534 1.8,-3.8 h -7.2 v -1.5 h 7.25 z"
       id="path66"
       style="fill:#828a8b;fill-rule:evenodd" /></g><g
     transform="translate(-10.75,-30.599234)"
     id="g72"><g
       id="g74"><path
         d="m 22.85,32.75 c 0.1,-0.033 0.2,-0.033 0.3,0 0.067,0.033 0.133,0.1 0.2,0.2 1.167,1.933 1.75,4.183 1.75,6.75 0,2.833 -0.684,5.25 -2.05,7.25 -1.133,1.633 -2.433,2.617 -3.9,2.95 h -2.5 c -1.5,-0.333 -2.8,-1.316 -3.9,-2.95 -1.333,-2 -2,-4.417 -2,-7.25 0,-2.567 0.567,-4.817 1.7,-6.75 0.033,-0.1 0.1,-0.167 0.2,-0.2 0.1,-0.033 0.2,-0.033 0.3,0 0.066,0.033 0.133,0.1 0.2,0.2 0.067,0.167 0.167,0.316 0.3,0.45 1.233,1.8 2.716,2.717 4.45,2.75 1.767,0 3.25,-0.917 4.45,-2.75 0.133,-0.133 0.233,-0.283 0.3,-0.45 0.067,-0.1 0.133,-0.167 0.2,-0.2 z m 1.2,7.35 c 0.034,-2.4 -0.316,-4.45 -1.05,-6.15 -1.4,2.233 -3.1,3.367 -5.1,3.4 -1.967,0.033 -3.65,-1.1 -5.05,-3.4 -0.8,1.633 -1.2,3.633 -1.2,6 0.033,2.367 0.633,4.533 1.8,6.5 1.233,1.633 2.716,2.45 4.45,2.45 1.767,0.033 3.25,-0.767 4.45,-2.4 v -0.05 c 1.1,-1.8 1.667,-3.917 1.7,-6.35 z"
         id="path76"
         style="fill:#cc5b4c;fill-rule:evenodd" /><path
         d="m 24.05,40.1 c -0.033,2.433 -0.6,4.55 -1.7,6.35 v 0.05 c -1.2,1.633 -2.684,2.433 -4.45,2.4 -1.733,0 -3.217,-0.816 -4.45,-2.45 -1.167,-1.967 -1.767,-4.133 -1.8,-6.5 0,-2.367 0.4,-4.367 1.2,-6 1.4,2.3 3.083,3.433 5.05,3.4 2,-0.033 3.7,-1.167 5.1,-3.4 0.733,1.7 1.083,3.75 1.05,6.15 z"
         id="path78"
         style="fill:#fbb394;fill-rule:evenodd" /></g><g
       id="g80"><path
         d="m 18,40.3 c -0.533,0 -0.933,0.217 -1.2,0.65 -0.3,0.4 -0.45,0.983 -0.45,1.75 0,0.767 0.15,1.35 0.45,1.75 0.267,0.333 0.633,0.517 1.1,0.55 0.033,0 0.067,0 0.1,0 0.467,0 0.833,-0.167 1.1,-0.5 0.133,-0.167 0.25,-0.433 0.35,-0.8 h 1.45 c -0.133,0.767 -0.45,1.383 -0.95,1.85 -0.5,0.467 -1.15,0.7 -1.95,0.7 -0.933,0 -1.667,-0.283 -2.2,-0.85 -0.033,-0.033 -0.066,-0.066 -0.1,-0.1 -0.534,-0.633 -0.8,-1.5 -0.8,-2.6 0,-1.2 0.317,-2.117 0.95,-2.75 0.533,-0.567 1.233,-0.85 2.1,-0.85 0.833,0 1.483,0.2 1.95,0.6 l 0.2,0.15 c 0.1,0.1 0.2,0.217 0.3,0.35 0.3,0.433 0.467,0.867 0.5,1.3 H 19.45 V 41.45 C 19.383,41.15 19.266,40.916 19.1,40.75 19.033,40.65 18.95,40.567 18.85,40.5 18.617,40.367 18.333,40.3 18,40.3 z"
         id="path82"
         style="fill:#4a3217;fill-rule:evenodd" /></g></g><g
     transform="translate(-10.75,-30.599234)"
     id="g84"><g
       id="g86"><path
         d="m 57.1,34.4 c 1.2,2 1.783,4.317 1.75,6.95 0,2.667 -0.583,4.867 -1.75,6.6 -1.2,1.566 -2.684,2.35 -4.45,2.35 -1.733,0 -3.217,-0.783 -4.45,-2.35 -1.1,-1.867 -1.684,-4.117 -1.75,-6.75 -0.034,-2.667 0.55,-4.934 1.75,-6.8 1.066,-1.767 2.483,-2.717 4.25,-2.85 1.733,-0.1 3.283,0.85 4.65,2.85 z"
         id="path88"
         style="fill:#f9ceff;fill-rule:evenodd" /><path
         d="m 57.1,34.4 c -1.367,-2 -2.917,-2.95 -4.65,-2.85 -1.767,0.133 -3.184,1.083 -4.25,2.85 -1.2,1.867 -1.784,4.133 -1.75,6.8 0.066,2.633 0.65,4.883 1.75,6.75 1.233,1.566 2.716,2.35 4.45,2.35 1.767,0 3.25,-0.783 4.45,-2.35 1.167,-1.733 1.75,-3.934 1.75,-6.6 C 58.883,38.717 58.3,36.4 57.1,34.4 z m 2.75,6.8 c 0,2.833 -0.684,5.25 -2.05,7.25 V 48.4 c -1.133,1.667 -2.433,2.667 -3.9,3 H 51.4 C 49.9,51.067 48.6,50.084 47.5,48.45 V 48.4 c -1.333,-1.967 -2,-4.367 -2,-7.2 0,-2.833 0.667,-5.25 2,-7.25 1.433,-2.1 3.15,-3.133 5.15,-3.1 2.033,0 3.75,1.033 5.15,3.1 1.367,2 2.05,4.417 2.05,7.25 z"
         id="path90"
         style="fill:#cc5b4c;fill-rule:evenodd" /></g><g
       id="g92"><path
         d="m 53.2,38.9 c 0.7,0.033 1.267,0.233 1.7,0.6 0.533,0.433 0.833,0.983 0.9,1.65 h -1.4 c -0.1,-0.467 -0.35,-0.8 -0.75,-1 -0.1,-0.033 -0.2,-0.066 -0.3,-0.1 C 53.183,40.017 53.017,40 52.85,40 c -0.567,0 -1.017,0.217 -1.35,0.65 -0.367,0.4 -0.55,1.017 -0.55,1.85 0,0.833 0.2,1.433 0.6,1.8 0.367,0.333 0.8,0.5 1.3,0.5 0.1,0 0.217,0 0.35,0 0.3,-0.066 0.566,-0.2 0.8,-0.4 0.3,-0.267 0.5,-0.617 0.6,-1.05 V 43.3 H 53 v -1.1 h 2.85 v 3.65 H 54.9 L 54.75,45 c -0.267,0.333 -0.517,0.567 -0.75,0.7 -0.233,0.133 -0.5,0.233 -0.8,0.3 -0.2,0.033 -0.4,0.05 -0.6,0.05 -0.9,0 -1.633,-0.316 -2.2,-0.95 -0.6,-0.633 -0.9,-1.5 -0.9,-2.6 0,-1.1 0.3,-1.983 0.9,-2.65 0.6,-0.667 1.4,-1 2.4,-1 0.133,0 0.267,0.017 0.4,0.05 z"
         id="path94"
         style="fill:#4a3217;fill-rule:evenodd" /></g></g></svg>