<?xml version="1.0" encoding="UTF-8" standalone="no"?>
<!-- Created with Inkscape (http://www.inkscape.org/) -->

<svg
   xmlns:dc="http://purl.org/dc/elements/1.1/"
   xmlns:cc="http://creativecommons.org/ns#"
   xmlns:rdf="http://www.w3.org/1999/02/22-rdf-syntax-ns#"
   xmlns:svg="http://www.w3.org/2000/svg"
   xmlns="http://www.w3.org/2000/svg"
   version="1.1"
   width="51.700001"
   height="21.02475"
   viewBox="0 0 51.700002 21.024749"
   id="Selected_Items"
   xml:space="preserve"><metadata
     id="metadata150"><rdf:RDF><cc:Work
         rdf:about=""><dc:format>image/svg+xml</dc:format><dc:type
           rdf:resource="http://purl.org/dc/dcmitype/StillImage" /><dc:title></dc:title></cc:Work></rdf:RDF></metadata><defs
     id="defs148" /><g
     transform="translate(-10.75,-54.425251)"
     id="g60"><path
       d="m 33.7,69.2 c 1,-1.267 1.6,-2.534 1.8,-3.8 h -7.2 v -1.5 h 7.25 c -0.167,-1.333 -0.783,-2.667 -1.85,-4 l 7.35,4.65 -7.35,4.65 z"
       id="path62"
       style="fill:#828a8b;fill-rule:evenodd" /></g><g
     transform="translate(-10.75,-54.425251)"
     id="g110"><g
       id="g112"><path
         d="M 57.55,73.05 H 57.1 c 0.066,-0.133 0.15,-0.3 0.25,-0.5 0.833,-1.966 2.117,-5.15 3.85,-9.55 l -4.75,-5.65 -3.65,4.1 c -0.066,0 -0.1,-0.017 -0.1,-0.05 -0.167,-0.066 -0.284,-0.167 -0.35,-0.3 H 52.3 C 51.4,60.166 50.533,59.217 49.7,58.25 L 49,57.35 44.3,63 c 1.767,4.5 3.05,7.683 3.85,9.55 0.067,0.2 0.133,0.367 0.2,0.5 h -0.3 -0.5 c -0.033,0 -0.05,-0.033 -0.05,-0.1 l -4.3,-9.6 c 0,-0.033 -0.017,-0.067 -0.05,-0.1 -0.066,-0.1 -0.1,-0.2 -0.1,-0.3 0,-0.167 0.05,-0.317 0.15,-0.45 l 5.55,-6.1 c 0.067,-0.066 0.15,-0.117 0.25,-0.15 0.1,-0.033 0.2,-0.033 0.3,0 0.1,0.033 0.2,0.083 0.3,0.15 l 3.1,3.5 3.2,-3.5 c 0.067,-0.066 0.15,-0.117 0.25,-0.15 0.1,-0.033 0.2,-0.033 0.3,0 0.1,0.033 0.2,0.083 0.3,0.15 l 5.55,6.1 c 0.1,0.133 0.15,0.283 0.15,0.45 0,0.1 -0.034,0.2 -0.1,0.3 -0.033,0.033 -0.05,0.067 -0.05,0.1 l -4.35,9.7 h -0.4 z"
         id="path114"
         style="fill:#278db0;fill-rule:evenodd" /><path
         d="m 57.55,73.05 c -0.033,0.034 -0.066,0.05 -0.1,0.05 -0.233,0.066 -2.717,0.066 -7.45,0 l 0.9,0.05 c -1.333,0 -2.15,0 -2.45,0 -0.167,0 -0.3,-0.033 -0.4,-0.1 h 0.3 c -0.067,-0.133 -0.133,-0.3 -0.2,-0.5 C 47.35,70.683 46.067,67.5 44.3,63 l 4.7,-5.65 0.7,0.9 c 0.833,0.967 1.7,1.917 2.6,2.85 h 0.05 c 0.066,0.133 0.183,0.233 0.35,0.3 0,0.033 0.033,0.05 0.1,0.05 l 3.65,-4.1 4.75,5.65 c -1.733,4.4 -3.017,7.583 -3.85,9.55 -0.1,0.2 -0.184,0.367 -0.25,0.5 h 0.45 z"
         id="path116"
         style="fill:#99f0e3;fill-rule:evenodd" /></g><g
       id="g118"><polygon
         points="51.9,64.55 49.85,64.55 49.85,63.3 55.4,63.3 55.4,64.55 53.35,64.55 53.35,70.15 51.9,70.15 "
         id="polygon120"
         style="fill:#4a3217;fill-rule:evenodd" /></g></g><g
     transform="translate(-10.75,-54.425251)"
     id="g134"><g
       id="g136"><path
         d="m 23.15,56.5 c 0.067,0.033 0.133,0.1 0.2,0.2 1.167,1.933 1.75,4.183 1.75,6.75 0,2.833 -0.684,5.25 -2.05,7.25 -1.133,1.633 -2.433,2.617 -3.9,2.95 h -2.5 c -1.5,-0.333 -2.8,-1.316 -3.9,-2.95 -1.333,-2 -2,-4.417 -2,-7.25 0,-2.567 0.567,-4.817 1.7,-6.75 0.033,-0.1 0.1,-0.167 0.2,-0.2 0.1,-0.033 0.2,-0.033 0.3,0 0.066,0.033 0.133,0.1 0.2,0.2 0.067,0.167 0.167,0.316 0.3,0.45 1.233,1.8 2.716,2.717 4.45,2.75 1.767,0 3.25,-0.917 4.45,-2.75 0.133,-0.133 0.233,-0.283 0.3,-0.45 0.067,-0.1 0.133,-0.167 0.2,-0.2 0.1,-0.033 0.2,-0.033 0.3,0 z m 0.9,7.35 C 24.084,61.45 23.734,59.4 23,57.7 c -1.4,2.233 -3.1,3.367 -5.1,3.4 -1.967,0.033 -3.65,-1.1 -5.05,-3.4 -0.8,1.633 -1.2,3.633 -1.2,6 0.033,2.367 0.633,4.533 1.8,6.5 1.233,1.633 2.716,2.45 4.45,2.45 1.767,0.033 3.25,-0.767 4.45,-2.4 V 70.2 c 1.1,-1.8 1.667,-3.917 1.7,-6.35 z"
         id="path138"
         style="fill:#cc5b4c;fill-rule:evenodd" /><path
         d="m 24.05,63.85 c -0.033,2.433 -0.6,4.55 -1.7,6.35 v 0.05 c -1.2,1.633 -2.684,2.433 -4.45,2.4 -1.733,0 -3.217,-0.816 -4.45,-2.45 -1.167,-1.967 -1.767,-4.133 -1.8,-6.5 0,-2.367 0.4,-4.367 1.2,-6 1.4,2.3 3.083,3.433 5.05,3.4 2,-0.033 3.7,-1.167 5.1,-3.4 0.733,1.7 1.083,3.75 1.05,6.15 z"
         id="path140"
         style="fill:#fbb394;fill-rule:evenodd" /></g><g
       id="g142"><path
         d="m 17.95,62.85 c 0.833,0 1.483,0.2 1.95,0.6 l 0.2,0.15 c 0.1,0.1 0.2,0.217 0.3,0.35 0.3,0.433 0.467,0.867 0.5,1.3 H 19.45 V 65.2 c -0.067,-0.3 -0.184,-0.534 -0.35,-0.7 -0.067,-0.1 -0.15,-0.183 -0.25,-0.25 -0.233,-0.133 -0.517,-0.2 -0.85,-0.2 -0.533,0 -0.933,0.217 -1.2,0.65 -0.3,0.4 -0.45,0.983 -0.45,1.75 0,0.767 0.15,1.35 0.45,1.75 0.267,0.333 0.633,0.517 1.1,0.55 0.033,0 0.067,0 0.1,0 0.467,0 0.833,-0.167 1.1,-0.5 0.133,-0.167 0.25,-0.433 0.35,-0.8 h 1.45 c -0.133,0.767 -0.45,1.383 -0.95,1.85 -0.5,0.467 -1.15,0.7 -1.95,0.7 -0.933,0 -1.667,-0.283 -2.2,-0.85 -0.033,-0.033 -0.066,-0.066 -0.1,-0.1 -0.534,-0.633 -0.8,-1.5 -0.8,-2.6 0,-1.2 0.317,-2.117 0.95,-2.75 0.533,-0.567 1.233,-0.85 2.1,-0.85 z"
         id="path144"
         style="fill:#4a3217;fill-rule:evenodd" /></g></g></svg>