<?xml version="1.0" encoding="UTF-8" standalone="no"?>
<!-- Created with Inkscape (http://www.inkscape.org/) -->

<svg
   xmlns:dc="http://purl.org/dc/elements/1.1/"
   xmlns:cc="http://creativecommons.org/ns#"
   xmlns:rdf="http://www.w3.org/1999/02/22-rdf-syntax-ns#"
   xmlns:svg="http://www.w3.org/2000/svg"
   xmlns="http://www.w3.org/2000/svg"
   xmlns:xlink="http://www.w3.org/1999/xlink"
   version="1.1"
   width="51.5"
   height="21.049999"
   viewBox="0 0 51.500001 21.049999"
   id="Selected_Items"
   xml:space="preserve"><metadata
     id="metadata150"><rdf:RDF><cc:Work
         rdf:about=""><dc:format>image/svg+xml</dc:format><dc:type
           rdf:resource="http://purl.org/dc/dcmitype/StillImage" /><dc:title></dc:title></cc:Work></rdf:RDF></metadata><defs
     id="defs148"><linearGradient
       x1="36.435501"
       y1="5.1499"
       x2="36.373501"
       y2="81.149902"
       id="linearGradient3245"
       xlink:href="#SVGID_1_"
       gradientUnits="userSpaceOnUse" /><linearGradient
       x1="36.476101"
       y1="0.39989999"
       x2="36.414101"
       y2="76.399902"
       id="linearGradient3247"
       xlink:href="#SVGID_2_"
       gradientUnits="userSpaceOnUse" /><linearGradient
       x1="36.454102"
       y1="6.9243002"
       x2="36.395802"
       y2="75.2743"
       id="linearGradient3249"
       xlink:href="#SVGID_3_"
       gradientUnits="userSpaceOnUse" /></defs><g
     transform="translate(-10.75,-6.3500003)"
     id="g68"><path
       d="m 28.3,16.65 h 7.25 c -0.167,-1.333 -0.783,-2.667 -1.85,-4 l 7.35,4.65 -7.35,4.65 c 1,-1.267 1.6,-2.534 1.8,-3.8 h -7.2 v -1.5 z"
       id="path70"
       style="fill:#828a8b;fill-rule:evenodd" /></g><g
     transform="translate(-10.75,-6.3500003)"
     id="g96"><g
       id="g98"><path
         d="m 57.55,27.35 c -0.1,0.033 -0.183,0.033 -0.25,0 -0.066,-0.033 -0.1,-0.067 -0.1,-0.1 V 27.2 L 61.25,17.3 52.7,8 l -8.4,9.2 3.85,9.9 c 0.067,-0.033 0.117,-0.067 0.15,-0.1 0.1,0 0.133,0.033 0.1,0.1 -0.033,0.1 -0.083,0.167 -0.15,0.2 l -0.05,0.05 c -0.1,0.033 -0.2,0.033 -0.3,0 -0.1,-0.033 -0.183,-0.1 -0.25,-0.2 l -4.3,-9.6 C 43.317,17.517 43.3,17.467 43.3,17.4 c -0.066,-0.066 -0.1,-0.15 -0.1,-0.25 0,-0.1 0.033,-0.183 0.1,-0.25 L 52.7,6.35 c 1.1,1.433 2.216,2.717 3.35,3.85 l 6.1,6.7 c 0.067,0.067 0.1,0.15 0.1,0.25 0,0.1 -0.033,0.184 -0.1,0.25 0,0.067 0,0.117 0,0.15 l -4.3,9.6 c -0.067,0.1 -0.133,0.167 -0.2,0.2 h -0.1 z"
         id="path100"
         style="fill:#278db0;fill-rule:evenodd" /><path
         d="m 57.2,27.2 -0.1,-0.1 c 0,0.066 0.033,0.117 0.1,0.15 0,0.033 0.033,0.067 0.1,0.1 0.067,0.033 0.15,0.033 0.25,0 V 27.4 H 53.4 c -0.133,0 -1.816,-0.017 -5.05,-0.05 l -0.1,-0.05 c 0.067,-0.033 0.117,-0.1 0.15,-0.2 0.033,-0.067 0,-0.1 -0.1,-0.1 -0.033,0.033 -0.083,0.067 -0.15,0.1 L 44.3,17.2 52.7,8 l 8.55,9.3 -4.05,9.9 z"
         id="path102"
         style="fill:#a2d6ff;fill-rule:evenodd" /><path
         d="M 57.2,27.25 C 57.133,27.217 57.1,27.167 57.1,27.1 l 0.1,0.1 v 0.05 z"
         id="path104"
         style="fill-rule:evenodd" /></g><g
       id="g106"><path
         d="m 52.65,18.2 -0.85,2.65 h 1.75 L 52.65,18.2 z M 51.9,16.6 h 1.6 l 0.05,0.05 2.35,6.8 h -1.55 l -0.45,-1.4 h -2.5 l -0.45,1.4 h -1.5 L 51.9,16.6 z"
         id="path108"
         style="fill:#4a3217;fill-rule:evenodd" /></g></g><g
     transform="translate(-10.75,-6.3500003)"
     id="g122"><g
       id="g124"><path
         d="m 23.35,10.2 c 1.167,1.933 1.75,4.183 1.75,6.75 0,2.833 -0.684,5.25 -2.05,7.25 -1.133,1.633 -2.433,2.617 -3.9,2.95 h -2.5 c -1.5,-0.333 -2.8,-1.316 -3.9,-2.95 -1.333,-2 -2,-4.417 -2,-7.25 0,-2.567 0.567,-4.817 1.7,-6.75 0.033,-0.1 0.1,-0.167 0.2,-0.2 0.1,-0.033 0.2,-0.033 0.3,0 0.066,0.033 0.133,0.1 0.2,0.2 0.067,0.167 0.167,0.316 0.3,0.45 1.233,1.8 2.716,2.717 4.45,2.75 1.767,0 3.25,-0.917 4.45,-2.75 0.133,-0.133 0.233,-0.283 0.3,-0.45 0.067,-0.1 0.133,-0.167 0.2,-0.2 0.1,-0.033 0.2,-0.033 0.3,0 0.067,0.033 0.133,0.1 0.2,0.2 z m -0.35,1 c -1.4,2.233 -3.1,3.367 -5.1,3.4 -1.967,0.033 -3.65,-1.1 -5.05,-3.4 -0.8,1.633 -1.2,3.633 -1.2,6 0.033,2.367 0.633,4.533 1.8,6.5 1.233,1.633 2.716,2.45 4.45,2.45 1.767,0.033 3.25,-0.767 4.45,-2.4 V 23.7 c 1.1,-1.8 1.667,-3.917 1.7,-6.35 C 24.083,14.95 23.733,12.9 23,11.2 z"
         id="path126"
         style="fill:#cc5b4c;fill-rule:evenodd" /><path
         d="m 23,11.2 c 0.733,1.7 1.083,3.75 1.05,6.15 -0.033,2.433 -0.6,4.55 -1.7,6.35 v 0.05 c -1.2,1.633 -2.684,2.433 -4.45,2.4 -1.733,0 -3.217,-0.816 -4.45,-2.45 -1.167,-1.967 -1.767,-4.133 -1.8,-6.5 0,-2.367 0.4,-4.367 1.2,-6 1.4,2.3 3.083,3.433 5.05,3.4 2,-0.033 3.7,-1.167 5.1,-3.4 z"
         id="path128"
         style="fill:#fbb394;fill-rule:evenodd" /></g><g
       id="g130"><path
         d="m 17.95,16.35 c 0.833,0 1.483,0.2 1.95,0.6 l 0.2,0.15 c 0.1,0.1 0.2,0.217 0.3,0.35 0.3,0.433 0.467,0.867 0.5,1.3 H 19.45 V 18.7 C 19.383,18.4 19.266,18.166 19.1,18 19.033,17.9 18.95,17.817 18.85,17.75 18.617,17.617 18.333,17.55 18,17.55 c -0.533,0 -0.933,0.217 -1.2,0.65 -0.3,0.4 -0.45,0.983 -0.45,1.75 0,0.767 0.15,1.35 0.45,1.75 0.267,0.333 0.633,0.517 1.1,0.55 0.033,0 0.067,0 0.1,0 0.467,0 0.833,-0.167 1.1,-0.5 0.133,-0.167 0.25,-0.433 0.35,-0.8 h 1.45 c -0.133,0.767 -0.45,1.383 -0.95,1.85 -0.5,0.467 -1.15,0.7 -1.95,0.7 -0.933,0 -1.667,-0.283 -2.2,-0.85 -0.033,-0.033 -0.066,-0.066 -0.1,-0.1 -0.534,-0.633 -0.8,-1.5 -0.8,-2.6 0,-1.2 0.317,-2.117 0.95,-2.75 0.533,-0.567 1.233,-0.85 2.1,-0.85 z"
         id="path132"
         style="fill:#4a3217;fill-rule:evenodd" /></g></g></svg>