<?xml version="1.0" encoding="utf-8"?>
<!-- Generator: Adobe Illustrator 15.0.0, SVG Export Plug-In . SVG Version: 6.00 Build 0)  -->
<!DOCTYPE svg PUBLIC "-//W3C//DTD SVG 1.1//EN" "http://www.w3.org/Graphics/SVG/1.1/DTD/svg11.dtd">
<svg version="1.1" id="Selected_Items" xmlns="http://www.w3.org/2000/svg" xmlns:xlink="http://www.w3.org/1999/xlink" x="0px"
	 y="0px" width="337.4px" height="89.824px" viewBox="0 0 337.4 89.824" enable-background="new 0 0 337.4 89.824"
	 xml:space="preserve">
<g transform="matrix(1 0 0 -1 168.7002 45.2373)">
	<g id="Layer_1_1_">
		<path fill="#FFE900" d="M-123.325-14.387h0.025c1.3-0.699,2.6-1.399,3.9-2.1c0.9-0.467,1.8-0.95,2.7-1.45
			c1.534-0.899,3.1-1.767,4.7-2.6c1.767-0.935,3.533-1.784,5.3-2.55c1.867-0.801,3.733-1.518,5.6-2.15
			c6.021-1.997,12.071-3.046,18.15-3.15c0.417-0.002,0.833-0.002,1.25,0c0.867,0.033,1.75,0.066,2.65,0.101
			c0.423,0.03,0.848,0.062,1.275,0.1c0.04-0.003,0.082-0.003,0.125,0c5.766,0.454,11.549,1.771,17.35,3.95
			c0.165,0.068,0.332,0.135,0.5,0.2c1.233,0.5,2.466,1.017,3.7,1.55c0.3,0.167,0.617,0.317,0.95,0.45
			c0.033,0.016,0.066,0.033,0.1,0.05c0.502,0.252,1.019,0.519,1.55,0.8c4.333,2.233,8.55,4.617,12.65,7.15l5,3.149
			c3.7,2.434,7.317,4.983,10.85,7.65c1.433,1.1,2.867,2.233,4.3,3.4c3.8-3.066,7.517-6.301,11.15-9.7
			c-0.667-0.633-1.317-1.284-1.95-1.95c-13.3-13.867-28.167-23.433-44.6-28.7c-0.8-0.267-1.6-0.533-2.4-0.8
			c-6.467-1.9-12.883-3.05-19.25-3.45c-13.233-0.8-26.217,1.617-38.95,7.25c-10.767,4.5-21.167,9.75-31.2,15.75
			c-2.898,1.732-7.09,4.541-12.575,8.425c-3.183,2.254-5.491,4.004-6.925,5.25l15.65,8.726c2.857-1.556,4.94-2.688,6.25-3.4
			l0.025-0.024c1.753-0.918,3.503-1.86,5.25-2.825h0.025c3.934-2.101,7.867-4.217,11.8-6.351
			C-126.705-12.533-125.013-13.45-123.325-14.387z M37.55,19.613c-1.5-0.467-2.983-0.982-4.45-1.55c-1.967-0.7-3.9-1.482-5.8-2.35
			c-2.233-0.935-4.45-1.967-6.65-3.101c-1.5-0.767-3-1.583-4.5-2.449c-0.433-0.268-0.867-0.518-1.3-0.75
			C11.35,7.313,7.933,5.047,4.6,2.613c-1.133-0.8-2.25-1.616-3.35-2.449c-1.433,1.133-2.833,2.282-4.2,3.449
			c-2.233,2-4.433,4.066-6.6,6.2c1.633,1.534,3.233,3.083,4.8,4.65c0.333,0.333,0.683,0.683,1.05,1.05
			c1.133,1.1,2.333,2.15,3.6,3.15c4.767,3.866,9.75,7.267,14.95,10.199c4.133,2.233,8.316,4.167,12.55,5.801
			c12.1,4.633,24.733,6.967,37.9,7c26.708,0.084,52-5.559,75.875-16.926c3.518-1.816,6.942-3.691,10.275-5.625
			c5.022-2.871,10.314-6.062,15.875-9.574l0.625-0.625l-13.4-9.325c-0.134-0.09-0.268-0.183-0.399-0.275
			c-3.155,2.361-6.348,4.553-9.575,6.575l-3.5,2.125c-0.495,0.289-0.986,0.572-1.476,0.85l-4.1,2.2
			c-3.429,1.798-6.888,3.415-10.375,4.851H125.1c-1.585,0.66-3.186,1.269-4.8,1.824l-0.05,0.025
			c-4.617,1.699-9.292,3.107-14.025,4.225c-0.195,0.04-0.387,0.082-0.575,0.125c-1.367,0.301-2.717,0.583-4.05,0.851
			c-0.267,0.05-0.533,0.101-0.8,0.149c-5.794,1.063-11.694,1.729-17.7,2c-0.082-0.003-0.165-0.003-0.25,0
			c-1.467,0.066-2.917,0.117-4.35,0.15c-0.101,0.001-0.201,0.001-0.3,0c-3.536,0.027-7.085-0.073-10.65-0.3
			c-2.667-0.133-5.316-0.351-7.95-0.65c-1.633-0.167-3.233-0.367-4.8-0.6C48.9,22.813,43.15,21.446,37.55,19.613z"/>
		<path fill="#FFFFFF" d="M106.05-22.812c-0.083-0.027-0.167-0.053-0.25-0.075c-1.5-0.366-3-0.717-4.5-1.05
			c-0.171-0.037-0.346-0.069-0.525-0.1c-0.017,4.088-0.025,6.188-0.025,6.3c-0.033,4-0.067,7.8-0.1,11.4c0,7,0.1,12.35,0.3,16.05
			c-0.1,5.966-0.15,10.433-0.15,13.399c0.267-0.049,0.534-0.1,0.8-0.149c1.333-0.268,2.683-0.55,4.05-0.851
			c0.188-0.043,0.38-0.085,0.575-0.125c0.017-3.179-0.108-7.437-0.375-12.774c0-5.935,0.066-14.95,0.2-27.05
			C106.05-18.235,106.05-19.894,106.05-22.812z M125.225-16.536c-1.49-0.604-2.982-1.187-4.475-1.75
			c-0.024-0.009-0.049-0.018-0.075-0.025l-0.375,36.05c1.615-0.556,3.215-1.165,4.8-1.824h0.025L125.225-16.536z M140.35-9.437
			l-4.3-2.25l-0.55,22.75l4.1-2.2c0.233-3.333,0.417-6.684,0.551-10.05C140.25-3.919,140.317-6.669,140.35-9.437z M83.1,25.113
			c0.024-0.488,0.041-0.988,0.05-1.5c0.033-3.133,0.033-7.55,0-13.25c0.133-5.667,0.2-14.366,0.2-26.1c0-0.536,0-4.086,0-10.65
			c-0.233-0.021-0.467-0.038-0.7-0.05c-1.267-0.065-2.533-0.117-3.8-0.149c-0.252-0.004-0.502-0.004-0.75,0
			c-0.033,7.043-0.05,10.627-0.05,10.75c0,13.866,0.067,22.684,0.2,26.449c-0.133,5.667-0.167,10.066-0.1,13.2
			c0.009,0.499,0.026,0.982,0.05,1.45c0.099,0.001,0.199,0.001,0.3,0c1.433-0.033,2.883-0.083,4.35-0.15
			C82.935,25.11,83.019,25.11,83.1,25.113z M37.85-20.036c-1.767,0.6-3.5,1.232-5.2,1.899v0.75c0.1,14.533,0.25,26.351,0.45,35.45
			c1.467,0.567,2.95,1.083,4.45,1.55c-0.033-0.767-0.066-1.6-0.1-2.5c0.133-2.399,0.2-6.232,0.2-11.5c0-4.866,0.067-12.566,0.2-23.1
			C37.85-18.387,37.85-19.236,37.85-20.036z M60-25.486c-1.867,0.267-3.733,0.567-5.6,0.9c-0.033,3.633-0.05,5.5-0.05,5.6
			c0.133,13.133,0.2,22.933,0.2,29.4c0,1.1,0.067,3.55,0.2,7.35c0.067,2.333,0.083,4.317,0.05,5.95c1.567,0.232,3.167,0.433,4.8,0.6
			c0.033-0.5,0.083-1.133,0.15-1.899v-30.4c0.133-2.467,0.2-6.2,0.2-11.2C59.95-19.986,59.967-22.086,60-25.486z M21-12.687
			c-1.467,0.768-2.9,1.583-4.3,2.45c-0.434,0.267-0.85,0.517-1.25,0.75c0.066,4.8,0.216,9.767,0.45,14.9
			c0.067,1.699,0.15,3.282,0.25,4.75c1.5,0.866,3,1.684,4.5,2.449c0.1-6.866,0.167-10.366,0.2-10.5
			C20.85-1.319,20.9-6.253,21-12.687z M-35.85-10.887l-5-3.149c0.1,3.232,0.167,6.466,0.2,9.7c0.066,6.232,0.033,12.449-0.1,18.649
			l4.7-3L-35.85-10.887z M-20.7,0.164c-1.433-1.167-2.867-2.301-4.3-3.4c0,0.433-0.017,0.783-0.05,1.05
			c-0.167,2.233-0.284,4.233-0.35,6C-23.833,2.646-22.267,1.431-20.7,0.164z M-60.25,24.589c0.38-0.158,0.764-0.316,1.15-0.476
			c1.167-0.5,2.333-1.032,3.5-1.6c0.24-0.103,0.481-0.211,0.725-0.325c0.025-3.071-0.1-7.263-0.375-12.575
			c0-5.732,0.067-14.434,0.2-26.1c0-0.43,0-2.264,0-5.5c-0.034-0.017-0.067-0.034-0.1-0.05c-0.333-0.133-0.65-0.284-0.95-0.45
			c-1.233-0.533-2.467-1.05-3.7-1.55c-0.168-0.065-0.335-0.132-0.5-0.2c-0.034,5.139-0.05,7.772-0.05,7.9
			c-0.033,3.833-0.066,7.5-0.1,11c0,6.732,0.1,11.883,0.3,15.449c-0.1,5.733-0.15,10.033-0.15,12.9
			C-60.295,23.55-60.278,24.074-60.25,24.589z M-101.1-25.236c-1.867,0.633-3.733,1.35-5.6,2.15c-0.033,2.667-0.05,4.032-0.05,4.1
			c0.133,13.133,0.2,22.933,0.2,29.4c0,0.399,0.017,1,0.05,1.8l0.175,9.85c1.577,0.588,3.16,1.155,4.75,1.7l0.225-31.75
			c0.133-2.467,0.2-6.2,0.2-11.2C-101.15-19.953-101.133-21.97-101.1-25.236z M-77.775-28.187c-0.427-0.036-0.852-0.069-1.275-0.1
			c-0.9-0.034-1.784-0.067-2.65-0.101c-0.417-0.002-0.833-0.002-1.25,0c-0.019,0.455-0.035,0.923-0.05,1.4
			c-0.033,8.367-0.05,12.617-0.05,12.75c0,14.067,0.066,23,0.2,26.8c-0.133,5.7-0.167,10.15-0.1,13.351
			c0.017,1.008,0.058,1.958,0.125,2.85c0.628,0.067,1.262,0.1,1.9,0.1c0.538-0.02,1.08-0.053,1.625-0.1
			c0.402-0.02,0.811-0.045,1.225-0.075c0.066-0.932,0.108-1.924,0.125-2.975c0.034-3.167,0.034-7.633,0-13.4
			c0.133-5.732,0.2-14.55,0.2-26.45c0-0.6,0-5.05,0-13.35C-77.759-27.727-77.768-27.96-77.775-28.187z M-145.475-2.461
			c0.058,2.274,0.116,4.583,0.175,6.925c1.666,0.837,3.333,1.663,5,2.475c0.007-2.229,0.023-3.372,0.05-3.425
			c0-2.443,0.008-5.376,0.025-8.8C-141.972-4.321-143.722-3.38-145.475-2.461z M-123.325-14.387
			c-1.688,0.937-3.379,1.854-5.075,2.75c0.06,9.115,0.143,17.24,0.25,24.375c1.547,0.711,3.105,1.42,4.675,2.125
			c0.017-1.899,0.025-4.05,0.025-6.449C-123.45,3.376-123.408-4.225-123.325-14.387z"/>
		<path fill="#FFBF25" d="M-123.475,14.863c-1.569-0.705-3.127-1.414-4.675-2.125c-1.241-0.573-2.475-1.148-3.7-1.725
			c-2.819-1.329-5.635-2.687-8.45-4.075c-1.667-0.812-3.334-1.637-5-2.475c-0.743-0.374-1.485-0.749-2.225-1.125l-4.225-2.375
			l-15.65-8.726l-1.05-0.574l-0.25,19.149c1.095,1.312,2.603,2.586,4.525,3.825c3.11,1.996,6.202,3.946,9.275,5.85
			c2.246,1.399,4.754,2.851,7.525,4.351l3.525,1.85c8.78,4.469,18.814,8.711,30.1,12.726c9.467,3.366,19.175,5.309,29.125,5.824
			c1.266-0.005,2.532-0.047,3.8-0.125c1.226-0.083,2.451-0.183,3.675-0.3c25.033-2.467,46.9-13.45,65.6-32.95
			c0.667-0.699,1.333-1.383,2-2.05c2.167-2.133,4.367-4.2,6.6-6.2c1.367-1.167,2.767-2.316,4.2-3.449c2-1.601,4.033-3.134,6.1-4.601
			c2.667-1.7,5.367-3.383,8.1-5.05c0.4-0.233,0.816-0.483,1.25-0.75c1.4-0.867,2.833-1.683,4.3-2.45c0.667-0.367,1.333-0.732,2-1.1
			c1.333-0.667,2.683-1.317,4.05-1.95c1.833-0.833,3.7-1.633,5.6-2.4c1.7-0.667,3.434-1.3,5.2-1.899
			c0.233-0.101,0.467-0.185,0.7-0.25c5.2-1.833,10.483-3.268,15.85-4.3c1.867-0.333,3.733-0.634,5.6-0.9
			c2.433-0.333,4.9-0.6,7.4-0.8c3.579-0.249,7.146-0.35,10.7-0.3c0.248-0.005,0.498-0.005,0.75,0c1.267,0.032,2.533,0.083,3.8,0.149
			c0.233,0.012,0.467,0.029,0.7,0.05c5.033,0.277,10.066,0.895,15.1,1.851c0.79,0.163,1.564,0.33,2.325,0.5
			c0.179,0.03,0.354,0.062,0.525,0.1c1.5,0.333,3,0.685,4.5,1.05c0.083,0.021,0.167,0.046,0.25,0.075
			c4.956,1.273,9.831,2.773,14.625,4.5c0.026,0.008,0.051,0.018,0.075,0.025c1.493,0.563,2.985,1.146,4.475,1.75h0.025
			c0.4,0.167,0.8,0.333,1.2,0.5c3.267,1.333,6.466,2.783,9.6,4.35l4.3,2.25c3.101,1.768,6.15,3.65,9.15,5.65
			c1.567,1,3.117,2.033,4.65,3.1c0.132,0.094,0.266,0.187,0.399,0.275l13.4,9.325l0.5,0.35l0.25-19.35l-13.175-8.75
			c-1.987-1.35-3.995-2.649-6.025-3.9c-3.8-2.5-7.767-4.783-11.9-6.85c-8.3-4.134-16.833-7.5-25.6-10.101
			c-9.633-2.767-19.517-4.533-29.65-5.3c-10.033-0.7-19.917,0.067-29.65,2.3c-8.8,2.133-17.383,4.9-25.75,8.3
			c-1.333,0.566-2.65,1.117-3.95,1.65c-2.633,1.133-5.2,2.383-7.7,3.75c-9,4.8-16.983,11-23.95,18.6c-0.3,0.301-0.6,0.583-0.9,0.851
			c-3.633,3.399-7.35,6.633-11.15,9.7c-1.566,1.267-3.133,2.482-4.7,3.649c-3.5,2.633-7.05,5.133-10.65,7.5l-4.7,3
			c-4.167,2.567-8.433,4.967-12.8,7.2c-0.439,0.241-0.88,0.466-1.325,0.675c-0.244,0.114-0.485,0.224-0.725,0.325
			c-1.167,0.567-2.333,1.1-3.5,1.6c-0.386,0.159-0.77,0.317-1.15,0.476c-5.684,2.215-11.351,3.557-17,4.024
			c-0.278,0.026-0.553,0.052-0.825,0.075c-0.414,0.03-0.823,0.056-1.225,0.075c-0.545,0.047-1.087,0.081-1.625,0.1
			c-0.639,0-1.272-0.032-1.9-0.1c-0.58-0.056-1.154-0.139-1.725-0.25c-0.068-0.011-0.135-0.019-0.2-0.025
			c-4.662-1.021-9.262-2.255-13.8-3.699c-1.014-0.333-2.022-0.675-3.025-1.025c-1.59-0.545-3.173-1.112-4.75-1.7
			c-2.816-1.051-5.625-2.167-8.425-3.35C-117.685,17.448-120.594,16.165-123.475,14.863z"/>
	</g>
</g>
</svg>
