<?xml version="1.0" encoding="UTF-8" standalone="no"?>
<!-- Created with Inkscape (http://www.inkscape.org/) -->

<svg
   xmlns:dc="http://purl.org/dc/elements/1.1/"
   xmlns:cc="http://creativecommons.org/ns#"
   xmlns:rdf="http://www.w3.org/1999/02/22-rdf-syntax-ns#"
   xmlns:svg="http://www.w3.org/2000/svg"
   xmlns="http://www.w3.org/2000/svg"
   version="1.1"
   width="50.5"
   height="21.299999"
   viewBox="0 0 50.500001 21.299999"
   id="Selected_Items"
   xml:space="preserve"><metadata
     id="metadata150"><rdf:RDF><cc:Work
         rdf:about=""><dc:format>image/svg+xml</dc:format><dc:type
           rdf:resource="http://purl.org/dc/dcmitype/StillImage" /><dc:title></dc:title></cc:Work></rdf:RDF></metadata><defs
     id="defs148" /><g
     transform="translate(-11.5,-6.3500003)"
     id="g68"><path
       d="m 28.3,16.65 h 7.25 c -0.167,-1.333 -0.783,-2.667 -1.85,-4 l 7.35,4.65 -7.35,4.65 c 1,-1.267 1.6,-2.534 1.8,-3.8 h -7.2 v -1.5 z"
       id="path70"
       style="fill:#828a8b;fill-rule:evenodd" /></g><g
     transform="translate(-11.5,-6.3500003)"
     id="g74"><path
       d="m 23.8,10.2 c 1.367,2 2.05,4.417 2.05,7.25 0,2.833 -0.684,5.25 -2.05,7.25 v -0.05 c -1.133,1.667 -2.433,2.667 -3.9,3 H 17.4 C 15.9,27.317 14.6,26.334 13.5,24.7 v -0.05 c -1.333,-1.967 -2,-4.367 -2,-7.2 0,-2.833 0.667,-5.25 2,-7.25 1.433,-2.1 3.15,-3.133 5.15,-3.1 2.033,0 3.75,1.033 5.15,3.1 z M 18.45,7.8 c -1.767,0.133 -3.184,1.083 -4.25,2.85 -1.2,1.867 -1.784,4.133 -1.75,6.8 0.066,2.633 0.65,4.883 1.75,6.75 1.233,1.566 2.716,2.35 4.45,2.35 1.767,0 3.25,-0.783 4.45,-2.35 1.167,-1.733 1.75,-3.934 1.75,-6.6 C 24.883,14.967 24.3,12.65 23.1,10.65 21.733,8.65 20.183,7.7 18.45,7.8 z"
       id="path76"
       style="fill:#cc5b4c;fill-rule:evenodd" /><path
       d="m 18.45,7.8 c 1.733,-0.1 3.283,0.85 4.65,2.85 1.2,2 1.783,4.317 1.75,6.95 0,2.667 -0.583,4.867 -1.75,6.6 -1.2,1.566 -2.684,2.35 -4.45,2.35 -1.733,0 -3.217,-0.783 -4.45,-2.35 -1.1,-1.867 -1.684,-4.117 -1.75,-6.75 -0.034,-2.667 0.55,-4.934 1.75,-6.8 1.067,-1.767 2.483,-2.717 4.25,-2.85 z"
       id="path78"
       style="fill:#f9ceff;fill-rule:evenodd" /></g><g
     transform="translate(-11.5,-6.3500003)"
     id="g80"><path
       d="m 19.2,15.15 c 0.7,0.033 1.267,0.233 1.7,0.6 0.533,0.433 0.833,0.983 0.9,1.65 h -1.4 c -0.1,-0.467 -0.35,-0.8 -0.75,-1 -0.1,-0.033 -0.2,-0.066 -0.3,-0.1 -0.167,-0.033 -0.333,-0.05 -0.5,-0.05 -0.567,0 -1.017,0.217 -1.35,0.65 -0.367,0.4 -0.55,1.017 -0.55,1.85 0,0.833 0.2,1.433 0.6,1.8 0.367,0.333 0.8,0.5 1.3,0.5 0.1,0 0.217,0 0.35,0 0.3,-0.066 0.566,-0.2 0.8,-0.4 0.3,-0.267 0.5,-0.617 0.6,-1.05 V 19.55 H 19 v -1.1 h 2.85 V 22.1 H 20.9 l -0.15,-0.85 c -0.267,0.333 -0.517,0.567 -0.75,0.7 -0.233,0.133 -0.5,0.233 -0.8,0.3 -0.2,0.033 -0.4,0.05 -0.6,0.05 -0.9,0 -1.633,-0.316 -2.2,-0.95 -0.6,-0.633 -0.9,-1.5 -0.9,-2.6 0,-1.1 0.3,-1.983 0.9,-2.65 0.6,-0.667 1.4,-1 2.4,-1 0.133,0 0.267,0.017 0.4,0.05 z"
       id="path82"
       style="fill:#4a3217;fill-rule:evenodd" /></g><g
     transform="translate(-11.5,-6.3500003)"
     id="g108"><g
       id="g110"><path
         d="m 48,27.3 -0.05,0.05 c -0.1,0.033 -0.2,0.033 -0.3,0 -0.1,-0.033 -0.183,-0.1 -0.25,-0.2 l -4.3,-9.6 c -0.033,-0.033 -0.05,-0.083 -0.05,-0.15 -0.066,-0.066 -0.1,-0.15 -0.1,-0.25 0,-0.1 0.033,-0.183 0.1,-0.25 l 9.4,-10.55 c 1.1,1.433 2.216,2.717 3.35,3.85 l 6.1,6.7 c 0.067,0.067 0.1,0.15 0.1,0.25 0,0.1 -0.033,0.184 -0.1,0.25 0,0.067 0,0.117 0,0.15 l -4.3,9.6 c -0.067,0.1 -0.133,0.167 -0.2,0.2 h -0.1 c -0.1,0.033 -0.183,0.033 -0.25,0 -0.066,-0.033 -0.1,-0.067 -0.1,-0.1 V 27.2 L 61,17.3 52.45,8 l -8.4,9.2 3.85,9.9 c 0.067,-0.033 0.117,-0.067 0.15,-0.1 0.1,0 0.133,0.033 0.1,0.1 -0.033,0.1 -0.083,0.167 -0.15,0.2 z"
         id="path112"
         style="fill:#278db0;fill-rule:evenodd" /><path
         d="m 56.95,27.2 -0.1,-0.1 c 0,0.066 0.033,0.117 0.1,0.15 0,0.033 0.033,0.067 0.1,0.1 0.067,0.033 0.15,0.033 0.25,0 v 0.05 h -4.15 c -0.133,0 -1.816,-0.017 -5.05,-0.05 L 48,27.3 c 0.067,-0.033 0.117,-0.1 0.15,-0.2 0.033,-0.067 0,-0.1 -0.1,-0.1 -0.033,0.033 -0.083,0.067 -0.15,0.1 L 44.05,17.2 52.45,8 61,17.3 56.95,27.2 z"
         id="path114"
         style="fill:#a2d6ff;fill-rule:evenodd" /><path
         d="m 56.95,27.25 c -0.067,-0.033 -0.1,-0.083 -0.1,-0.15 l 0.1,0.1 v 0.05 z"
         id="path116"
         style="fill-rule:evenodd" /></g><g
       id="g118"><path
         d="m 51.65,16.6 h 1.6 l 0.05,0.05 2.35,6.8 H 54.1 l -0.45,-1.4 h -2.5 l -0.45,1.4 h -1.5 l 2.45,-6.85 z m -0.1,4.25 h 1.75 l -0.9,-2.65 -0.85,2.65 z"
         id="path120"
         style="fill:#4a3217;fill-rule:evenodd" /></g></g></svg>