<?xml version="1.0" encoding="utf-8"?>
<!-- Generator: Adobe Illustrator 15.0.0, SVG Export Plug-In . SVG Version: 6.00 Build 0)  -->
<!DOCTYPE svg PUBLIC "-//W3C//DTD SVG 1.1//EN" "http://www.w3.org/Graphics/SVG/1.1/DTD/svg11.dtd">
<svg version="1.1" id="Selected_Items" xmlns="http://www.w3.org/2000/svg" xmlns:xlink="http://www.w3.org/1999/xlink" x="0px"
	 y="0px" width="45.566px" height="40.65px" viewBox="0 0 45.566 40.65" enable-background="new 0 0 45.566 40.65"
	 xml:space="preserve">
<g transform="translate(0,40.65) scale(1,-1)">
	<path fill-rule="evenodd" clip-rule="evenodd" fill="#FFFF00" fill-opacity="0.0549" d="M33.25,2.225l-0.85-0.55
		c-1.168-0.749-2.435-1.124-3.8-1.125h-0.8c-0.532-0.004-1.065,0.055-1.6,0.175l-3.625,0.85l-3.05-0.8
		c-0.589-0.152-1.181-0.227-1.775-0.225C17.328,0.444,16.445,0.594,15.1,1c-0.129,0.041-0.263,0.083-0.4,0.125
		c-0.926,0.337-1.593,0.646-2,0.925c-0.569,0.349-1.086,0.774-1.55,1.275l-8.3,9.05c-0.07,0.078-0.137,0.162-0.2,0.25
		c-0.778,0.83-1.311,1.763-1.6,2.8c-0.081,0.227-0.155,0.46-0.225,0.7c-0.026,0.089-0.051,0.164-0.075,0.225
		c-0.172,0.7-0.255,1.4-0.25,2.1c0.002,0.705,0.11,1.405,0.325,2.1l0.25,0.8c0.089,0.263,0.189,0.521,0.3,0.775l6.4,14.25
		c0.127,0.268,0.269,0.535,0.425,0.8l0.4,0.65c0.618,1.007,1.443,1.807,2.475,2.4c1.041,0.595,2.157,0.904,3.35,0.925l15.2,0.25
		c0.336,0.007,0.669-0.01,1-0.05c0.517-0.011,1.025-0.078,1.525-0.2c0.037-0.008,0.079-0.016,0.125-0.025
		c0.741-0.158,1.441-0.424,2.1-0.8c1.86-1.057,3.043-2.407,3.55-4.05l6.1-13.6c0.185-0.345,0.344-0.712,0.475-1.1
		c0.911-2.749,0.711-5.323-0.6-7.725c-0.291-0.533-0.641-1.025-1.05-1.475l-8.25-9C34.19,2.935,33.741,2.551,33.25,2.225z
		 M33.525,1.8c0.527,0.347,1.01,0.756,1.45,1.225l8.25,9c0.438,0.489,0.813,1.022,1.125,1.6c1.376,2.518,1.584,5.218,0.625,8.1
		c-0.093,0.275-0.202,0.542-0.325,0.8l-6.3,14.05c-0.562,1.69-1.803,3.082-3.725,4.175c-0.706,0.4-1.456,0.683-2.25,0.85
		c-0.037,0.008-0.07,0.017-0.1,0.025c-0.525,0.131-1.059,0.206-1.6,0.225c-0.347,0.041-0.697,0.057-1.05,0.05l-15.2-0.25
		c-1.273-0.026-2.465-0.359-3.575-1c-1.113-0.636-2.005-1.495-2.675-2.575l-0.4-0.65c-0.174-0.282-0.332-0.565-0.475-0.85
		l-6.4-14.25c-0.112-0.278-0.211-0.562-0.3-0.85l-0.25-0.8C0.12,19.939,0.003,19.198,0,18.45c-0.002-0.742,0.09-1.484,0.275-2.225
		C0.299,16.165,0.324,16.09,0.35,16c0.063-0.223,0.129-0.439,0.2-0.65c0.285-1.054,0.801-2.012,1.55-2.875
		c0.118-0.149,0.243-0.3,0.375-0.45l8.3-9.05c0.502-0.531,1.061-0.981,1.675-1.35c0.421-0.295,1.113-0.62,2.075-0.975
		c0.146-0.042,0.288-0.084,0.425-0.125c1.419-0.429,2.353-0.587,2.8-0.475c0.636,0.001,1.27,0.084,1.9,0.25l2.925,0.775l3.5-0.825
		c0.576-0.133,1.151-0.2,1.725-0.2h0.8c1.463-0.001,2.822,0.399,4.075,1.2L33.525,1.8z"/>
	<path fill-rule="evenodd" clip-rule="evenodd" fill="#FFFF00" fill-opacity="0.1098" d="M33.25,2.225
		c0.491,0.326,0.94,0.709,1.35,1.15l8.25,9c0.409,0.45,0.759,0.942,1.05,1.475c1.312,2.402,1.511,4.977,0.6,7.725
		c-0.131,0.388-0.29,0.754-0.475,1.1l-6.1,13.6c-0.507,1.643-1.69,2.993-3.55,4.05c-0.659,0.375-1.359,0.642-2.1,0.8
		c-0.046,0.009-0.088,0.017-0.125,0.025c-0.5,0.122-1.008,0.189-1.525,0.2c-0.331,0.04-0.664,0.057-1,0.05l-15.2-0.25
		c-1.193-0.021-2.309-0.33-3.35-0.925c-1.032-0.593-1.857-1.393-2.475-2.4l-0.4-0.65c-0.157-0.265-0.298-0.532-0.425-0.8l-6.4-14.25
		c-0.111-0.253-0.211-0.512-0.3-0.775l-0.25-0.8c-0.215-0.694-0.323-1.395-0.325-2.1c-0.005-0.7,0.078-1.4,0.25-2.1
		c0.024-0.062,0.049-0.136,0.075-0.225c0.069-0.24,0.144-0.474,0.225-0.7c0.289-1.037,0.822-1.97,1.6-2.8
		c0.063-0.088,0.13-0.172,0.2-0.25l8.3-9.05c0.464-0.501,0.981-0.926,1.55-1.275c0.407-0.279,1.074-0.587,2-0.925
		C14.837,1.083,14.971,1.041,15.1,1c1.345-0.406,2.228-0.556,2.65-0.45c0.594-0.001,1.186,0.073,1.775,0.225l3.05,0.8l3.625-0.85
		c0.534-0.121,1.067-0.179,1.6-0.175h0.8c1.365,0.001,2.632,0.376,3.8,1.125L33.25,2.225z M28.6,1.05h-0.8
		c-0.499,0-0.999,0.059-1.5,0.175L22.55,2.1L19.4,1.275c-0.547-0.146-1.098-0.221-1.65-0.225c-0.405-0.1-1.247,0.042-2.525,0.425
		c-0.113,0.041-0.229,0.083-0.35,0.125c-0.89,0.32-1.531,0.611-1.925,0.875c-0.532,0.321-1.016,0.713-1.45,1.175L3.2,12.7
		c-0.091,0.107-0.182,0.215-0.275,0.325C2.262,13.769,1.804,14.594,1.55,15.5c-0.093,0.253-0.176,0.512-0.25,0.775
		c-0.018,0.08-0.034,0.146-0.05,0.2C1.083,17.133,1,17.792,1,18.45c0.001,0.655,0.101,1.305,0.3,1.95l0.25,0.8
		c0.082,0.246,0.173,0.488,0.275,0.725l6.4,14.25c0.12,0.243,0.253,0.485,0.4,0.725l0.4,0.65c0.575,0.943,1.341,1.693,2.3,2.25
		c0.971,0.55,2.012,0.833,3.125,0.85l15.2,0.25c0.32,0.007,0.636-0.01,0.95-0.05c0.483-0.015,0.958-0.082,1.425-0.2
		c0.044-0.008,0.095-0.016,0.15-0.025c0.688-0.141,1.338-0.382,1.95-0.725c1.673-0.958,2.756-2.175,3.25-3.65
		c0.018-0.049,0.035-0.1,0.05-0.15l6.15-13.65c0.176-0.331,0.326-0.681,0.45-1.05c0.863-2.606,0.671-5.047-0.575-7.325
		c-0.262-0.497-0.579-0.956-0.95-1.375l-8.25-9c-0.387-0.403-0.812-0.753-1.275-1.05l-0.85-0.55
		C31.042,1.402,29.866,1.052,28.6,1.05z"/>
	<path fill-rule="evenodd" clip-rule="evenodd" fill="#FFFF00" fill-opacity="0.1686" d="M28.6,1.05
		c1.266,0.002,2.441,0.353,3.525,1.05l0.85,0.55c0.463,0.297,0.888,0.647,1.275,1.05l8.25,9c0.372,0.419,0.688,0.878,0.95,1.375
		c1.246,2.277,1.438,4.719,0.575,7.325c-0.124,0.37-0.274,0.72-0.45,1.05l-6.15,13.65c-0.015,0.05-0.032,0.101-0.05,0.15
		c-0.494,1.475-1.577,2.692-3.25,3.65c-0.612,0.343-1.262,0.584-1.95,0.725c-0.055,0.009-0.105,0.017-0.15,0.025
		c-0.467,0.119-0.942,0.185-1.425,0.2c-0.314,0.04-0.63,0.057-0.95,0.05l-15.2-0.25c-1.113-0.017-2.154-0.3-3.125-0.85
		c-0.959-0.557-1.726-1.307-2.3-2.25l-0.4-0.65c-0.147-0.24-0.28-0.482-0.4-0.725l-6.4-14.25C1.723,21.688,1.631,21.446,1.55,21.2
		L1.3,20.4c-0.199-0.645-0.298-1.295-0.3-1.95c0-0.659,0.083-1.317,0.25-1.975c0.016-0.054,0.032-0.121,0.05-0.2
		c0.074-0.263,0.157-0.521,0.25-0.775c0.254-0.906,0.712-1.731,1.375-2.475C3.018,12.916,3.109,12.807,3.2,12.7l8.3-9.05
		c0.435-0.462,0.918-0.854,1.45-1.175c0.394-0.264,1.035-0.555,1.925-0.875c0.121-0.042,0.237-0.084,0.35-0.125
		c1.278-0.383,2.12-0.525,2.525-0.425c0.552,0.004,1.103,0.079,1.65,0.225L22.55,2.1l3.75-0.875c0.501-0.116,1.001-0.175,1.5-0.175
		H28.6z M28.6,1.55h-0.8c-0.458-0.003-0.916,0.047-1.375,0.15L22.55,2.625L19.275,1.75c-0.506-0.132-1.014-0.199-1.525-0.2
		c-0.38-0.093-1.171,0.04-2.375,0.4c-0.105,0.032-0.213,0.066-0.325,0.1c-0.845,0.311-1.453,0.594-1.825,0.85
		C12.73,3.202,12.28,3.568,11.875,4l-8.3,9.05c-0.066,0.074-0.133,0.149-0.2,0.225C2.733,13.97,2.291,14.745,2.05,15.6
		c-0.105,0.259-0.197,0.526-0.275,0.8c-0.018,0.079-0.034,0.146-0.05,0.2c-0.153,0.616-0.229,1.233-0.225,1.85
		c0,0.604,0.092,1.205,0.275,1.8l0.25,0.8c0.074,0.221,0.157,0.438,0.25,0.65l6.4,14.25c0.113,0.234,0.238,0.468,0.375,0.7l0.4,0.65
		c0.531,0.861,1.239,1.544,2.125,2.05c0.893,0.513,1.851,0.779,2.875,0.8l15.2,0.25c0.303,0.006,0.604-0.01,0.9-0.05
		c0.458-0.007,0.908-0.066,1.35-0.175c0.052-0.016,0.11-0.033,0.175-0.05c0.635-0.131,1.235-0.356,1.8-0.675
		c1.592-0.904,2.617-2.055,3.075-3.45l6.2-13.8c0.157-0.305,0.29-0.622,0.4-0.95c0.823-2.464,0.648-4.772-0.525-6.925
		c-0.25-0.461-0.549-0.886-0.9-1.275l-8.25-9c-0.357-0.374-0.749-0.699-1.175-0.975l-0.85-0.55C30.851,1.879,29.768,1.554,28.6,1.55
		z"/>
	<path fill-rule="evenodd" clip-rule="evenodd" fill="#FFFF00" fill-opacity="0.2235" d="M28.6,2.05h-0.8
		c-0.416,0.001-0.833,0.051-1.25,0.15L22.6,3.125l-3.45-0.9c-0.465-0.119-0.931-0.177-1.4-0.175
		c-0.354-0.087-1.096,0.038-2.225,0.375c-0.097,0.033-0.197,0.066-0.3,0.1c-0.809,0.293-1.392,0.56-1.75,0.8
		c-0.45,0.273-0.858,0.607-1.225,1l-8.3,9.05c-0.053,0.061-0.104,0.119-0.15,0.175c-0.623,0.66-1.047,1.401-1.275,2.225
		C2.42,16.021,2.329,16.279,2.25,16.55c-0.009,0.069-0.018,0.128-0.025,0.175C2.077,17.3,2.002,17.875,2,18.45
		c0,0.554,0.083,1.104,0.25,1.65l0.25,0.8c0.066,0.204,0.142,0.404,0.225,0.6l6.4,14.25c0.105,0.209,0.222,0.417,0.35,0.625
		l0.4,0.65c0.487,0.796,1.138,1.43,1.95,1.9c0.815,0.467,1.69,0.709,2.625,0.725l15.2,0.25c0.292,0.006,0.583-0.01,0.875-0.05
		c0.421-0.01,0.838-0.068,1.25-0.175c0.06-0.008,0.126-0.016,0.2-0.025c0.582-0.123,1.132-0.331,1.65-0.625
		c1.468-0.833,2.417-1.892,2.85-3.175l6.25-13.925c0.138-0.265,0.255-0.54,0.35-0.825c0.774-2.33,0.607-4.514-0.5-6.55
		c-0.229-0.424-0.504-0.816-0.825-1.175l-8.25-9c-0.318-0.345-0.668-0.645-1.05-0.9l-0.85-0.55C30.677,2.339,29.677,2.047,28.6,2.05
		z M28.6,1.55c1.167,0.004,2.251,0.33,3.25,0.975l0.85,0.55c0.426,0.276,0.818,0.601,1.175,0.975l8.25,9
		c0.351,0.39,0.65,0.814,0.9,1.275c1.173,2.152,1.348,4.461,0.525,6.925c-0.11,0.329-0.243,0.645-0.4,0.95L36.95,36
		c-0.458,1.396-1.483,2.546-3.075,3.45c-0.565,0.318-1.165,0.543-1.8,0.675c-0.065,0.017-0.123,0.034-0.175,0.05
		c-0.442,0.109-0.892,0.168-1.35,0.175c-0.296,0.04-0.597,0.056-0.9,0.05l-15.2-0.25c-1.024-0.021-1.982-0.287-2.875-0.8
		c-0.886-0.506-1.594-1.189-2.125-2.05l-0.4-0.65c-0.137-0.232-0.262-0.465-0.375-0.7l-6.4-14.25c-0.093-0.213-0.176-0.43-0.25-0.65
		l-0.25-0.8C1.592,19.655,1.5,19.055,1.5,18.45c-0.003-0.617,0.072-1.234,0.225-1.85c0.016-0.055,0.032-0.122,0.05-0.2
		c0.078-0.274,0.17-0.541,0.275-0.8c0.241-0.855,0.683-1.63,1.325-2.325c0.067-0.076,0.134-0.151,0.2-0.225l8.3-9.05
		c0.405-0.432,0.855-0.798,1.35-1.1c0.372-0.256,0.98-0.539,1.825-0.85c0.112-0.034,0.22-0.067,0.325-0.1
		c1.204-0.36,1.995-0.494,2.375-0.4c0.511,0.001,1.019,0.068,1.525,0.2l3.275,0.875L26.425,1.7c0.459-0.104,0.917-0.154,1.375-0.15
		H28.6z"/>
	<path fill-rule="evenodd" clip-rule="evenodd" fill="#FFFF00" fill-opacity="0.2824" d="M28.6,2.05c1.077-0.002,2.077,0.29,3,0.875
		l0.85,0.55c0.382,0.255,0.732,0.555,1.05,0.9l8.25,9c0.321,0.359,0.596,0.75,0.825,1.175c1.107,2.037,1.274,4.22,0.5,6.55
		c-0.095,0.285-0.212,0.56-0.35,0.825l-6.25,13.925c-0.433,1.283-1.382,2.341-2.85,3.175c-0.518,0.294-1.068,0.502-1.65,0.625
		c-0.074,0.009-0.141,0.017-0.2,0.025c-0.412,0.107-0.829,0.166-1.25,0.175c-0.292,0.04-0.583,0.056-0.875,0.05l-15.2-0.25
		c-0.935-0.016-1.81-0.258-2.625-0.725c-0.812-0.47-1.463-1.104-1.95-1.9l-0.4-0.65c-0.128-0.208-0.245-0.416-0.35-0.625l-6.4-14.25
		c-0.083-0.196-0.159-0.396-0.225-0.6l-0.25-0.8C2.083,19.554,2,19.004,2,18.45c0.002-0.575,0.077-1.15,0.225-1.725
		c0.007-0.047,0.016-0.106,0.025-0.175c0.079-0.271,0.17-0.529,0.275-0.775c0.228-0.824,0.652-1.565,1.275-2.225
		c0.047-0.056,0.097-0.114,0.15-0.175l8.3-9.05c0.367-0.393,0.775-0.727,1.225-1c0.358-0.24,0.941-0.507,1.75-0.8
		c0.103-0.034,0.203-0.067,0.3-0.1c1.129-0.337,1.871-0.462,2.225-0.375c0.469-0.002,0.935,0.057,1.4,0.175l3.45,0.9L26.55,2.2
		c0.417-0.099,0.834-0.149,1.25-0.15H28.6z M28.6,2.55h-0.8c-0.382-0.002-0.766,0.039-1.15,0.125L22.525,3.65l-3.5-0.925
		c-0.423-0.113-0.848-0.172-1.275-0.175c-0.329-0.08-1.021,0.037-2.075,0.35C15.586,2.933,15.495,2.966,15.4,3
		c-0.772,0.284-1.33,0.542-1.675,0.775c-0.404,0.246-0.771,0.546-1.1,0.9l-8.3,9.05C4.215,13.848,4.107,13.973,4,14.1
		c-0.468,0.544-0.801,1.144-1,1.8c-0.091,0.249-0.175,0.507-0.25,0.775c-0.018,0.06-0.034,0.11-0.05,0.15
		c-0.135,0.542-0.202,1.083-0.2,1.625c-0.001,0.504,0.074,1.004,0.225,1.5l0.25,0.8c0.067,0.187,0.142,0.37,0.225,0.55l6.4,14.25
		c0.089,0.193,0.189,0.384,0.3,0.575l0.4,0.65c0.444,0.723,1.036,1.298,1.775,1.725c0.746,0.421,1.545,0.638,2.4,0.65l15.2,0.25
		c0.26,0.005,0.518-0.011,0.775-0.05c0.414,0,0.822-0.05,1.225-0.15c0.059-0.017,0.125-0.033,0.2-0.05
		c0.529-0.105,1.029-0.289,1.5-0.55c1.367-0.784,2.25-1.775,2.65-2.975l6.25-13.95c0.126-0.235,0.234-0.485,0.325-0.75
		c0.726-2.188,0.567-4.238-0.475-6.15c-0.208-0.379-0.458-0.729-0.75-1.05l-8.25-9c-0.288-0.316-0.604-0.591-0.95-0.825l-0.85-0.55
		C30.487,2.816,29.579,2.549,28.6,2.55z"/>
	<path fill-rule="evenodd" clip-rule="evenodd" fill="#FFFF00" fill-opacity="0.5059" d="M30.225,5.025
		c-0.5-0.319-1.041-0.477-1.625-0.475h-0.8c-0.233-0.001-0.466,0.023-0.7,0.075L22.525,5.7l-4-1.05
		c-0.257-0.066-0.516-0.1-0.775-0.1c-0.236-0.046-0.736,0.045-1.5,0.275c-0.057,0.016-0.115,0.033-0.175,0.05
		c-0.61,0.222-1.052,0.422-1.325,0.6c-0.239,0.151-0.456,0.334-0.65,0.55l-8.3,9.05c-0.078,0.082-0.153,0.165-0.225,0.25
		c-0.338,0.371-0.563,0.788-0.675,1.25C4.813,16.783,4.739,17,4.675,17.225c-0.009,0.039-0.017,0.072-0.025,0.1
		C4.553,17.7,4.502,18.075,4.5,18.45c-0.004,0.302,0.038,0.602,0.125,0.9l0.25,0.8c0.045,0.11,0.095,0.219,0.15,0.325l6.4,14.25
		c0.052,0.117,0.11,0.234,0.175,0.35l0.4,0.65c0.27,0.43,0.628,0.772,1.075,1.025c0.442,0.256,0.917,0.39,1.425,0.4l15.2,0.25
		c0.203,0.004,0.403-0.012,0.6-0.05c0.05,0,0.1,0,0.15,0c0.245-0.003,0.486-0.037,0.725-0.1c0.097-0.017,0.205-0.033,0.325-0.05
		c0.317-0.07,0.618-0.187,0.9-0.35c0.898-0.513,1.481-1.163,1.75-1.95v-0.025L40.425,20.9c0.113-0.19,0.205-0.39,0.275-0.6
		c0.541-1.636,0.424-3.169-0.35-4.6c-0.125-0.227-0.275-0.435-0.45-0.625l-8.25-9c-0.174-0.191-0.366-0.358-0.575-0.5L30.225,5.025z
		 M28.6,4.05c0.682-0.004,1.315,0.18,1.9,0.55l0.85,0.55c0.245,0.163,0.47,0.355,0.675,0.575l8.25,9
		c0.205,0.229,0.379,0.479,0.525,0.75c0.839,1.547,0.964,3.205,0.375,4.975c-0.049,0.146-0.107,0.288-0.175,0.425l-6.35,14.15
		c-0.028,0.062-0.062,0.12-0.1,0.175c-0.312,0.842-0.954,1.542-1.925,2.1c-0.33,0.18-0.68,0.305-1.05,0.375
		c-0.103,0.025-0.194,0.05-0.275,0.075c-0.279,0.068-0.562,0.102-0.85,0.1c-0.034,0-0.067,0-0.1,0
		c-0.215,0.038-0.432,0.055-0.65,0.05l-15.2-0.25c-0.596-0.006-1.155-0.156-1.675-0.45c-0.521-0.305-0.937-0.713-1.25-1.225
		l-0.4-0.65c-0.082-0.133-0.157-0.266-0.225-0.4l-6.4-14.25C4.495,20.552,4.444,20.427,4.4,20.3l-0.25-0.8
		C4.047,19.153,3.997,18.803,4,18.45c-0.002-0.417,0.047-0.833,0.15-1.25c0.008-0.027,0.016-0.06,0.025-0.1
		c0.076-0.26,0.159-0.51,0.25-0.75C4.573,15.853,4.832,15.403,5.2,15c0.074-0.095,0.149-0.187,0.225-0.275l8.3-9.05
		c0.232-0.246,0.49-0.455,0.775-0.625c0.287-0.194,0.754-0.41,1.4-0.65c0.069-0.017,0.135-0.034,0.2-0.05
		c0.839-0.253,1.389-0.353,1.65-0.3c0.301,0.003,0.601,0.045,0.9,0.125l3.9,1.025L27,4.15c0.267-0.064,0.534-0.098,0.8-0.1H28.6z"/>
	<path fill-rule="evenodd" clip-rule="evenodd" fill="#FFFF00" fill-opacity="0.5647" d="M30.225,5.025l0.85,0.55
		c0.209,0.142,0.4,0.309,0.575,0.5l8.25,9c0.175,0.19,0.325,0.398,0.45,0.625c0.774,1.43,0.891,2.964,0.35,4.6
		c-0.07,0.21-0.162,0.41-0.275,0.6L34.15,34.875V34.9c-0.269,0.788-0.852,1.438-1.75,1.95c-0.282,0.163-0.583,0.28-0.9,0.35
		c-0.12,0.017-0.228,0.033-0.325,0.05c-0.238,0.063-0.48,0.097-0.725,0.1c-0.051,0-0.101,0-0.15,0
		c-0.197,0.038-0.397,0.054-0.6,0.05l-15.2-0.25c-0.507-0.01-0.982-0.144-1.425-0.4c-0.447-0.253-0.806-0.595-1.075-1.025l-0.4-0.65
		c-0.065-0.116-0.123-0.233-0.175-0.35l-6.4-14.25C4.97,20.369,4.92,20.26,4.875,20.15l-0.25-0.8
		c-0.087-0.298-0.129-0.598-0.125-0.9c0.002-0.375,0.053-0.75,0.15-1.125c0.008-0.028,0.016-0.061,0.025-0.1
		C4.739,17,4.813,16.783,4.9,16.575c0.112-0.462,0.337-0.879,0.675-1.25c0.071-0.085,0.146-0.168,0.225-0.25l8.3-9.05
		c0.194-0.216,0.411-0.399,0.65-0.55c0.273-0.178,0.715-0.378,1.325-0.6c0.06-0.017,0.118-0.034,0.175-0.05
		c0.764-0.23,1.264-0.322,1.5-0.275c0.259,0,0.518,0.034,0.775,0.1l4,1.05L27.1,4.625c0.233-0.052,0.467-0.077,0.7-0.075h0.8
		C29.184,4.548,29.726,4.706,30.225,5.025z M29.95,5.45c-0.415-0.267-0.865-0.4-1.35-0.4h-0.8c-0.191,0.003-0.383,0.028-0.575,0.075
		l-4.675,1.1l-4.175-1.1c-0.208-0.052-0.416-0.078-0.625-0.075c-0.219-0.04-0.677,0.043-1.375,0.25
		c-0.04,0.017-0.082,0.033-0.125,0.05c-0.565,0.204-0.974,0.388-1.225,0.55c-0.21,0.123-0.402,0.273-0.575,0.45l-8.3,9.05
		c-0.044,0.057-0.085,0.115-0.125,0.175c-0.336,0.339-0.553,0.73-0.65,1.175c-0.086,0.195-0.162,0.404-0.225,0.625
		c-0.009,0.03-0.017,0.055-0.025,0.075C5.041,17.783,5,18.117,5,18.45c0.003,0.252,0.045,0.502,0.125,0.75l0.25,0.8
		c0.029,0.093,0.062,0.185,0.1,0.275l6.4,14.25c0.045,0.092,0.095,0.184,0.15,0.275l0.4,0.65c0.226,0.366,0.526,0.657,0.9,0.875
		c0.364,0.21,0.756,0.319,1.175,0.325l15.2,0.25c0.187,0.004,0.37-0.013,0.55-0.05c0.065,0,0.131,0,0.2,0
		c0.203,0,0.402-0.025,0.6-0.075c0.104-0.025,0.221-0.05,0.35-0.075c0.265-0.053,0.515-0.145,0.75-0.275
		c0.77-0.439,1.27-0.989,1.5-1.65c0.029-0.053,0.055-0.103,0.075-0.15L40,20.65c0.092-0.16,0.167-0.327,0.225-0.5
		c0.5-1.494,0.4-2.894-0.3-4.2c-0.104-0.198-0.229-0.382-0.375-0.55l-8.25-9c-0.152-0.154-0.319-0.287-0.5-0.4L29.95,5.45z"/>
	<path fill-rule="evenodd" clip-rule="evenodd" fill="#FFFF00" fill-opacity="0.6196" d="M29.95,5.45L30.8,6
		c0.181,0.113,0.348,0.246,0.5,0.4l8.25,9c0.146,0.168,0.271,0.352,0.375,0.55c0.701,1.306,0.801,2.706,0.3,4.2
		c-0.058,0.173-0.133,0.34-0.225,0.5l-6.275,13.975c-0.021,0.047-0.046,0.097-0.075,0.15c-0.23,0.661-0.73,1.211-1.5,1.65
		c-0.235,0.131-0.485,0.222-0.75,0.275c-0.129,0.025-0.246,0.05-0.35,0.075c-0.197,0.05-0.397,0.075-0.6,0.075
		c-0.069,0-0.135,0-0.2,0c-0.18,0.037-0.363,0.054-0.55,0.05l-15.2-0.25c-0.419-0.006-0.811-0.114-1.175-0.325
		c-0.374-0.218-0.674-0.509-0.9-0.875l-0.4-0.65c-0.055-0.091-0.105-0.183-0.15-0.275l-6.4-14.25c-0.038-0.09-0.071-0.182-0.1-0.275
		l-0.25-0.8C5.045,18.952,5.003,18.702,5,18.45c0-0.333,0.041-0.667,0.125-1c0.008-0.02,0.016-0.045,0.025-0.075
		c0.063-0.221,0.139-0.43,0.225-0.625c0.097-0.444,0.314-0.836,0.65-1.175c0.04-0.06,0.081-0.119,0.125-0.175l8.3-9.05
		c0.173-0.177,0.364-0.327,0.575-0.45c0.251-0.162,0.66-0.346,1.225-0.55c0.043-0.017,0.085-0.034,0.125-0.05
		c0.698-0.207,1.156-0.29,1.375-0.25c0.209-0.002,0.417,0.023,0.625,0.075l4.175,1.1l4.675-1.1c0.192-0.047,0.384-0.072,0.575-0.075
		h0.8C29.085,5.05,29.535,5.183,29.95,5.45z M28.6,5.55h-0.8C27.65,5.549,27.5,5.565,27.35,5.6L22.5,6.75l-4.25-1.125
		c-0.166-0.047-0.333-0.072-0.5-0.075c-0.193-0.034-0.602,0.042-1.225,0.225c-0.032,0.017-0.065,0.033-0.1,0.05
		c-0.529,0.187-0.912,0.354-1.15,0.5C15.11,6.428,14.96,6.553,14.825,6.7l-8.3,9.05c-0.051,0.058-0.102,0.116-0.15,0.175
		c-0.248,0.252-0.415,0.536-0.5,0.85c-0.097,0.231-0.181,0.473-0.25,0.725c-0.009,0.029-0.017,0.054-0.025,0.075
		c-0.07,0.292-0.104,0.583-0.1,0.875c0.003,0.201,0.036,0.401,0.1,0.6l0.25,0.8c0.022,0.076,0.047,0.151,0.075,0.225l6.4,14.25
		c0.037,0.075,0.079,0.15,0.125,0.225l0.4,0.65c0.174,0.284,0.407,0.509,0.7,0.675c0.303,0.174,0.628,0.265,0.975,0.275l15.2,0.25
		c0.158,0.003,0.316-0.013,0.475-0.05c0.074,0,0.157,0,0.25,0c0.16,0.003,0.319-0.014,0.475-0.05c0.112-0.033,0.237-0.066,0.375-0.1
		c0.212-0.044,0.412-0.119,0.6-0.225c0.616-0.352,1.033-0.785,1.25-1.3c0.047-0.083,0.089-0.167,0.125-0.25l6.35-14.15
		c0.05-0.095,0.091-0.195,0.125-0.3c0.452-1.352,0.36-2.619-0.275-3.8c-0.083-0.153-0.183-0.295-0.3-0.425l-8.25-9
		c-0.122-0.125-0.255-0.233-0.4-0.325l-0.85-0.55C29.345,5.66,28.986,5.551,28.6,5.55z"/>
	<path fill-rule="evenodd" clip-rule="evenodd" fill="#FFFF00" fill-opacity="0.3922" d="M28.6,3.55h-0.8
		c-0.308-0.002-0.616,0.031-0.925,0.1L22.55,4.675l-3.775-1c-0.34-0.085-0.682-0.127-1.025-0.125
		c-0.287-0.059-0.887,0.049-1.8,0.325c-0.073,0.024-0.148,0.049-0.225,0.075c-0.683,0.249-1.174,0.474-1.475,0.675
		c-0.33,0.198-0.63,0.44-0.9,0.725l-8.3,9.05c-0.098,0.11-0.189,0.227-0.275,0.35l-0.1,0.125c-0.318,0.384-0.551,0.8-0.7,1.25
		C3.873,16.392,3.782,16.667,3.7,16.95C3.691,17,3.683,17.041,3.675,17.075C3.559,17.533,3.5,17.992,3.5,18.45
		c-0.002,0.403,0.056,0.803,0.175,1.2l0.25,0.8c0.052,0.152,0.111,0.303,0.175,0.45l6.4,14.25c0.075,0.151,0.158,0.301,0.25,0.45
		l0.4,0.65c0.357,0.577,0.832,1.035,1.425,1.375c0.59,0.339,1.223,0.514,1.9,0.525l15.2,0.25c0.242,0.005,0.483-0.012,0.725-0.05
		h0.05c0.329-0.002,0.654-0.044,0.975-0.125c0.074-0.017,0.157-0.033,0.25-0.05c0.424-0.087,0.824-0.238,1.2-0.45
		c1.099-0.623,1.824-1.406,2.175-2.35c0.015-0.043,0.032-0.085,0.05-0.125l6.35-14.15c0.077-0.152,0.144-0.311,0.2-0.475
		c0.637-1.912,0.504-3.704-0.4-5.375c-0.167-0.307-0.366-0.59-0.6-0.85l-8.25-9c-0.235-0.249-0.493-0.466-0.775-0.65l-0.85-0.55
		C30.106,3.77,29.381,3.553,28.6,3.55z M28.6,3.05c0.88,0.001,1.696,0.243,2.45,0.725l0.85,0.55
		c0.318,0.205,0.609,0.446,0.875,0.725l8.25,9c0.254,0.29,0.471,0.607,0.65,0.95c0.978,1.796,1.127,3.721,0.45,5.775
		c-0.077,0.224-0.168,0.44-0.275,0.65l-6.3,14.025c-0.007,0.017-0.016,0.033-0.025,0.05c-0.371,1.069-1.17,1.953-2.4,2.65
		c-0.423,0.245-0.874,0.42-1.35,0.525c-0.084,0.017-0.159,0.034-0.225,0.05c-0.361,0.086-0.728,0.128-1.1,0.125
		c-0.258,0.039-0.516,0.055-0.775,0.05l-15.2-0.25c-0.766-0.016-1.482-0.215-2.15-0.6c-0.667-0.383-1.2-0.9-1.6-1.55l-0.4-0.65
		c-0.101-0.166-0.193-0.333-0.275-0.5L3.65,21.1c-0.074-0.164-0.14-0.33-0.2-0.5L3.2,19.8c-0.135-0.446-0.202-0.896-0.2-1.35
		c-0.004-0.5,0.054-1,0.175-1.5c0.016-0.033,0.033-0.075,0.05-0.125c0.074-0.261,0.157-0.511,0.25-0.75
		C3.632,15.54,3.89,15.048,4.25,14.6c0.131-0.191,0.272-0.375,0.425-0.55l8.3-9.05c0.3-0.315,0.633-0.582,1-0.8
		c0.323-0.217,0.848-0.459,1.575-0.725c0.086-0.026,0.169-0.051,0.25-0.075c0.988-0.299,1.638-0.416,1.95-0.35
		c0.385,0,0.769,0.051,1.15,0.15l3.675,0.975l4.2-1c0.342-0.082,0.684-0.123,1.025-0.125H28.6z"/>
	<path fill-rule="evenodd" clip-rule="evenodd" fill="#FFFF00" fill-opacity="0.451" d="M28.6,3.55
		c0.781,0.003,1.506,0.22,2.175,0.65l0.85,0.55c0.282,0.184,0.54,0.401,0.775,0.65l8.25,9c0.234,0.26,0.434,0.543,0.6,0.85
		c0.904,1.671,1.037,3.463,0.4,5.375c-0.056,0.165-0.123,0.323-0.2,0.475L35.1,35.25c-0.019,0.04-0.035,0.082-0.05,0.125
		c-0.351,0.944-1.076,1.727-2.175,2.35c-0.376,0.212-0.776,0.362-1.2,0.45c-0.093,0.017-0.176,0.034-0.25,0.05
		c-0.32,0.081-0.646,0.123-0.975,0.125H30.4c-0.242,0.038-0.483,0.055-0.725,0.05l-15.2-0.25c-0.677-0.011-1.31-0.186-1.9-0.525
		c-0.593-0.34-1.068-0.798-1.425-1.375l-0.4-0.65c-0.092-0.149-0.175-0.299-0.25-0.45L4.1,20.9c-0.064-0.147-0.123-0.297-0.175-0.45
		l-0.25-0.8c-0.119-0.397-0.177-0.797-0.175-1.2c0-0.458,0.059-0.917,0.175-1.375C3.683,17.041,3.691,17,3.7,16.95
		c0.082-0.283,0.173-0.558,0.275-0.825c0.148-0.45,0.381-0.866,0.7-1.25l0.1-0.125c0.085-0.123,0.177-0.24,0.275-0.35l8.3-9.05
		c0.27-0.285,0.57-0.527,0.9-0.725c0.301-0.201,0.792-0.426,1.475-0.675c0.077-0.026,0.152-0.051,0.225-0.075
		c0.913-0.276,1.513-0.384,1.8-0.325c0.343-0.002,0.685,0.04,1.025,0.125l3.775,1l4.325-1.025c0.309-0.069,0.617-0.102,0.925-0.1
		H28.6z M28.6,4.05h-0.8c-0.266,0.002-0.533,0.036-0.8,0.1L22.55,5.2l-3.9-1.025c-0.299-0.08-0.599-0.122-0.9-0.125
		c-0.261-0.053-0.811,0.047-1.65,0.3c-0.065,0.016-0.131,0.033-0.2,0.05c-0.646,0.24-1.113,0.456-1.4,0.65
		c-0.285,0.17-0.543,0.379-0.775,0.625l-8.3,9.05C5.349,14.813,5.274,14.905,5.2,15c-0.369,0.403-0.627,0.853-0.775,1.35
		c-0.091,0.24-0.174,0.49-0.25,0.75c-0.009,0.04-0.017,0.073-0.025,0.1C4.047,17.617,3.998,18.033,4,18.45
		c-0.003,0.353,0.047,0.703,0.15,1.05l0.25,0.8c0.044,0.127,0.095,0.252,0.15,0.375l6.4,14.25c0.067,0.134,0.143,0.268,0.225,0.4
		l0.4,0.65c0.313,0.512,0.729,0.92,1.25,1.225c0.52,0.293,1.079,0.443,1.675,0.45l15.2,0.25c0.218,0.005,0.435-0.012,0.65-0.05
		c0.033,0,0.066,0,0.1,0c0.287,0.001,0.57-0.032,0.85-0.1c0.082-0.025,0.173-0.05,0.275-0.075c0.37-0.07,0.72-0.195,1.05-0.375
		c0.971-0.557,1.613-1.257,1.925-2.1c0.039-0.056,0.072-0.114,0.1-0.175L41,20.875c0.067-0.137,0.126-0.279,0.175-0.425
		c0.589-1.77,0.464-3.428-0.375-4.975c-0.146-0.271-0.32-0.521-0.525-0.75l-8.25-9c-0.205-0.22-0.43-0.412-0.675-0.575L30.5,4.6
		C29.916,4.229,29.282,4.046,28.6,4.05z"/>
	<path fill-rule="evenodd" clip-rule="evenodd" fill="#FFFF00" fill-opacity="0.3373" d="M28.6,3.05h-0.8
		c-0.341,0.002-0.683,0.043-1.025,0.125l-4.2,1L18.9,3.2c-0.381-0.1-0.765-0.15-1.15-0.15c-0.312-0.065-0.962,0.051-1.95,0.35
		c-0.081,0.024-0.164,0.049-0.25,0.075c-0.727,0.266-1.252,0.508-1.575,0.725c-0.367,0.218-0.7,0.484-1,0.8l-8.3,9.05
		c-0.152,0.176-0.294,0.359-0.425,0.55c-0.36,0.448-0.618,0.94-0.775,1.475c-0.093,0.239-0.176,0.489-0.25,0.75
		c-0.018,0.05-0.034,0.092-0.05,0.125c-0.121,0.5-0.179,1-0.175,1.5c-0.001,0.453,0.065,0.903,0.2,1.35l0.25,0.8
		c0.06,0.17,0.126,0.336,0.2,0.5l6.4,14.25c0.083,0.167,0.174,0.334,0.275,0.5l0.4,0.65c0.4,0.65,0.934,1.167,1.6,1.55
		c0.667,0.385,1.384,0.584,2.15,0.6l15.2,0.25c0.259,0.005,0.518-0.011,0.775-0.05c0.372,0.003,0.738-0.039,1.1-0.125
		c0.066-0.017,0.141-0.033,0.225-0.05c0.477-0.105,0.927-0.28,1.35-0.525c1.229-0.697,2.029-1.581,2.4-2.65
		c0.009-0.017,0.018-0.033,0.025-0.05l6.3-14.025c0.106-0.209,0.198-0.426,0.275-0.65c0.677-2.054,0.527-3.979-0.45-5.775
		c-0.179-0.343-0.396-0.66-0.65-0.95l-8.25-9c-0.266-0.278-0.557-0.52-0.875-0.725l-0.85-0.55C30.296,3.292,29.48,3.051,28.6,3.05z
		 M28.6,2.55c0.979,0,1.887,0.266,2.725,0.8l0.85,0.55c0.346,0.234,0.663,0.509,0.95,0.825l8.25,9c0.292,0.32,0.542,0.67,0.75,1.05
		c1.042,1.912,1.201,3.962,0.475,6.15c-0.091,0.265-0.199,0.515-0.325,0.75l-6.25,13.95c-0.399,1.2-1.283,2.191-2.65,2.975
		c-0.471,0.261-0.971,0.444-1.5,0.55c-0.075,0.017-0.142,0.034-0.2,0.05c-0.403,0.1-0.811,0.149-1.225,0.15
		c-0.257,0.039-0.516,0.055-0.775,0.05l-15.2-0.25c-0.854-0.012-1.654-0.229-2.4-0.65c-0.74-0.427-1.332-1.002-1.775-1.725
		l-0.4-0.65c-0.11-0.191-0.21-0.382-0.3-0.575L3.2,21.3c-0.083-0.18-0.158-0.363-0.225-0.55l-0.25-0.8
		c-0.151-0.496-0.226-0.996-0.225-1.5c-0.001-0.542,0.065-1.083,0.2-1.625c0.016-0.041,0.032-0.09,0.05-0.15
		C2.825,16.407,2.909,16.149,3,15.9c0.199-0.656,0.532-1.256,1-1.8c0.107-0.127,0.215-0.252,0.325-0.375l8.3-9.05
		c0.329-0.354,0.696-0.654,1.1-0.9C14.07,3.542,14.628,3.284,15.4,3c0.095-0.034,0.187-0.067,0.275-0.1
		c1.055-0.313,1.746-0.43,2.075-0.35c0.427,0.003,0.852,0.062,1.275,0.175l3.5,0.925l4.125-0.975
		c0.384-0.086,0.768-0.127,1.15-0.125H28.6z"/>
	<path fill-rule="evenodd" clip-rule="evenodd" fill="#FFFF00" fill-opacity="0.6745" d="M30.275,6.85l-0.85-0.55
		c-0.254-0.164-0.529-0.247-0.825-0.25h-0.8c-0.116,0.003-0.233,0.02-0.35,0.05l-4.925,1.15l-4.4-1.15
		C18,6.067,17.875,6.05,17.75,6.05c-0.168-0.019-0.526,0.056-1.075,0.225c-0.032,0.008-0.065,0.017-0.1,0.025
		c-0.484,0.178-0.834,0.336-1.05,0.475c-0.12,0.067-0.228,0.15-0.325,0.25l-8.3,9.05c-0.054,0.064-0.104,0.13-0.15,0.2V16.3
		c-0.177,0.172-0.302,0.364-0.375,0.575C6.268,17.12,6.176,17.378,6.1,17.65v0.025C6.035,17.933,6.001,18.191,6,18.45
		c0.002,0.151,0.027,0.301,0.075,0.45l0.25,0.8c0.014,0.059,0.031,0.118,0.05,0.175l6.4,14.25c0.03,0.05,0.063,0.1,0.1,0.15
		l0.4,0.65c0.131,0.22,0.306,0.395,0.525,0.525c0.226,0.128,0.467,0.195,0.725,0.2l15.2,0.25c0.138,0.003,0.28-0.014,0.425-0.05
		c0.083,0,0.183,0,0.3,0c0.126-0.002,0.251-0.019,0.375-0.05c0.111-0.025,0.236-0.05,0.375-0.075
		c0.159-0.035,0.309-0.093,0.45-0.175c0.536-0.306,0.895-0.689,1.075-1.15c0.035-0.056,0.068-0.114,0.1-0.175l6.35-14.15
		c0.017-0.039,0.034-0.081,0.05-0.125c0.017-0.039,0.034-0.08,0.05-0.125c0.404-1.218,0.32-2.36-0.25-3.425
		c-0.062-0.117-0.137-0.226-0.225-0.325l-8.25-9C30.467,6.988,30.375,6.913,30.275,6.85z M28.6,5.55
		c0.386,0.001,0.745,0.11,1.075,0.325l0.85,0.55c0.145,0.092,0.278,0.201,0.4,0.325l8.25,9c0.117,0.13,0.217,0.271,0.3,0.425
		c0.635,1.182,0.727,2.448,0.275,3.8c-0.034,0.104-0.075,0.205-0.125,0.3l-6.35,14.15c-0.036,0.083-0.078,0.167-0.125,0.25
		c-0.217,0.515-0.634,0.948-1.25,1.3c-0.188,0.106-0.388,0.181-0.6,0.225c-0.138,0.033-0.263,0.066-0.375,0.1
		c-0.156,0.037-0.314,0.053-0.475,0.05c-0.093,0-0.176,0-0.25,0c-0.159,0.037-0.317,0.053-0.475,0.05l-15.2-0.25
		c-0.347-0.01-0.672-0.101-0.975-0.275c-0.292-0.166-0.525-0.391-0.7-0.675l-0.4-0.65c-0.046-0.074-0.088-0.149-0.125-0.225
		l-6.4-14.25c-0.028-0.074-0.053-0.149-0.075-0.225l-0.25-0.8c-0.064-0.198-0.097-0.398-0.1-0.6c-0.004-0.292,0.03-0.583,0.1-0.875
		c0.008-0.021,0.016-0.046,0.025-0.075c0.069-0.252,0.153-0.494,0.25-0.725c0.085-0.314,0.252-0.598,0.5-0.85
		c0.048-0.059,0.099-0.117,0.15-0.175l8.3-9.05c0.135-0.147,0.285-0.272,0.45-0.375c0.238-0.146,0.621-0.313,1.15-0.5
		c0.035-0.017,0.068-0.034,0.1-0.05c0.624-0.184,1.032-0.259,1.225-0.225c0.167,0.003,0.334,0.028,0.5,0.075L22.5,6.75l4.85-1.15
		c0.15-0.035,0.3-0.051,0.45-0.05H28.6z"/>
	<path fill-rule="evenodd" clip-rule="evenodd" fill="#FFFF00" fill-opacity="0.7333" d="M30.275,6.85
		c0.101,0.063,0.192,0.138,0.275,0.225l8.25,9c0.088,0.099,0.163,0.208,0.225,0.325c0.57,1.065,0.654,2.207,0.25,3.425
		c-0.016,0.045-0.033,0.086-0.05,0.125c-0.017,0.044-0.033,0.086-0.05,0.125l-6.35,14.15c-0.032,0.061-0.065,0.119-0.1,0.175
		c-0.181,0.46-0.539,0.844-1.075,1.15c-0.141,0.082-0.291,0.14-0.45,0.175c-0.139,0.025-0.264,0.05-0.375,0.075
		c-0.124,0.032-0.249,0.048-0.375,0.05c-0.117,0-0.217,0-0.3,0c-0.145,0.036-0.287,0.053-0.425,0.05l-15.2-0.25
		c-0.258-0.005-0.5-0.072-0.725-0.2c-0.219-0.131-0.394-0.306-0.525-0.525l-0.4-0.65c-0.037-0.05-0.07-0.1-0.1-0.15l-6.4-14.25
		c-0.019-0.057-0.036-0.116-0.05-0.175l-0.25-0.8C6.027,18.751,6.002,18.601,6,18.45c0.001-0.259,0.035-0.517,0.1-0.775V17.65
		c0.076-0.272,0.168-0.53,0.275-0.775c0.073-0.211,0.198-0.403,0.375-0.575v-0.025c0.046-0.069,0.096-0.136,0.15-0.2l8.3-9.05
		c0.097-0.1,0.205-0.183,0.325-0.25c0.216-0.139,0.566-0.297,1.05-0.475c0.034-0.008,0.067-0.017,0.1-0.025
		c0.549-0.169,0.907-0.244,1.075-0.225c0.125,0,0.25,0.017,0.375,0.05l4.4,1.15L27.45,6.1c0.117-0.03,0.233-0.047,0.35-0.05h0.8
		c0.296,0.003,0.571,0.086,0.825,0.25L30.275,6.85z M28.6,6.55h-0.8c-0.075,0-0.15,0.008-0.225,0.025l-5.05,1.2L18,6.575
		c-0.083-0.02-0.167-0.028-0.25-0.025c-0.143-0.013-0.451,0.054-0.925,0.2c-0.025,0-0.05,0-0.075,0
		c-0.448,0.168-0.773,0.318-0.975,0.45c-0.074,0.047-0.141,0.105-0.2,0.175l-8.3,9.05c-0.036,0.04-0.069,0.082-0.1,0.125
		c-0.025,0.04-0.05,0.073-0.075,0.1c-0.134,0.131-0.226,0.281-0.275,0.45c-0.086,0.21-0.162,0.436-0.225,0.675L6.575,17.8
		c-0.052,0.217-0.077,0.434-0.075,0.65c0.001,0.101,0.018,0.201,0.05,0.3l0.25,0.8c0.016,0.034,0.032,0.067,0.05,0.1l6.4,14.25
		c0.015,0.042,0.031,0.083,0.05,0.125l0.4,0.65c0.087,0.146,0.204,0.263,0.35,0.35c0.147,0.083,0.306,0.125,0.475,0.125l15.2,0.25
		c0.117,0.002,0.234-0.014,0.35-0.05H30.1c0.1,0,0.217,0,0.35,0c0.084,0.001,0.167-0.007,0.25-0.025
		c0.118-0.033,0.251-0.067,0.4-0.1c0.106-0.018,0.206-0.051,0.3-0.1c0.451-0.258,0.743-0.583,0.875-0.975
		c0.028-0.049,0.053-0.099,0.075-0.15l6.325-14.075c0.052-0.081,0.094-0.164,0.125-0.25c0.355-1.084,0.28-2.101-0.225-3.05
		c-0.042-0.073-0.092-0.139-0.15-0.2l-8.25-9C30.123,7.358,30.064,7.3,30,7.25L29.15,6.7C28.981,6.597,28.797,6.546,28.6,6.55z
		 M32.15,34.3c0.046-0.048,0.088-0.098,0.125-0.15L32.25,34.2L32.15,34.3z"/>
	<path fill-rule="evenodd" clip-rule="evenodd" fill="#FFFF00" fill-opacity="0.7882" d="M28.6,6.55
		c0.197-0.003,0.381,0.047,0.55,0.15L30,7.25c0.064,0.05,0.123,0.108,0.175,0.175l8.25,9c0.059,0.061,0.108,0.127,0.15,0.2
		c0.505,0.949,0.58,1.966,0.225,3.05c-0.031,0.086-0.073,0.169-0.125,0.25L32.35,34c-0.022,0.051-0.047,0.101-0.075,0.15
		c-0.132,0.393-0.424,0.717-0.875,0.975c-0.094,0.049-0.194,0.082-0.3,0.1c-0.148,0.033-0.282,0.067-0.4,0.1
		c-0.083,0.018-0.166,0.026-0.25,0.025c-0.133,0-0.25,0-0.35,0h-0.025c-0.116,0.036-0.233,0.052-0.35,0.05l-15.2-0.25
		c-0.169,0-0.328-0.042-0.475-0.125c-0.146-0.087-0.263-0.204-0.35-0.35l-0.4-0.65c-0.019-0.042-0.035-0.083-0.05-0.125l-6.4-14.25
		c-0.018-0.033-0.035-0.066-0.05-0.1l-0.25-0.8c-0.032-0.099-0.048-0.199-0.05-0.3c-0.002-0.217,0.023-0.434,0.075-0.65L6.6,17.775
		c0.063-0.239,0.139-0.464,0.225-0.675c0.049-0.169,0.141-0.319,0.275-0.45c0.024-0.027,0.049-0.061,0.075-0.1
		c0.031-0.043,0.064-0.085,0.1-0.125l8.3-9.05c0.059-0.069,0.125-0.127,0.2-0.175c0.202-0.132,0.527-0.282,0.975-0.45
		c0.025,0,0.05,0,0.075,0c0.474-0.146,0.782-0.213,0.925-0.2c0.083-0.002,0.167,0.006,0.25,0.025l4.525,1.2l5.05-1.2
		c0.075-0.018,0.15-0.026,0.225-0.025H28.6z M28.6,7.05h-0.8c-0.042,0.004-0.083,0.012-0.125,0.025L22.5,8.3l-4.625-1.225
		c-0.042-0.014-0.083-0.022-0.125-0.025c-0.125-0.006-0.392,0.052-0.8,0.175h-0.025c-0.403,0.151-0.694,0.284-0.875,0.4
		c-0.045,0.02-0.087,0.044-0.125,0.075l-8.3,9.05c-0.018,0.024-0.035,0.049-0.05,0.075C7.533,16.895,7.491,16.953,7.45,17
		c-0.079,0.077-0.128,0.168-0.15,0.275c-0.087,0.2-0.162,0.417-0.225,0.65C7.028,18.1,7.003,18.275,7,18.45
		c0,0.05,0.009,0.1,0.025,0.15l0.25,0.8c0.007,0.017,0.016,0.034,0.025,0.05l6.4,14.25c0.007,0.017,0.016,0.033,0.025,0.05l0.4,0.65
		c0.043,0.073,0.102,0.132,0.175,0.175c0.078,0.045,0.162,0.07,0.25,0.075l15.2,0.25c0.051,0.001,0.102-0.007,0.15-0.025
		c0.058-0.017,0.125-0.025,0.2-0.025c0.1,0,0.217,0,0.35,0c0.042-0.003,0.083-0.012,0.125-0.025c0.125-0.025,0.267-0.05,0.425-0.075
		c0.053-0.017,0.103-0.042,0.15-0.075c0.328-0.187,0.544-0.42,0.65-0.7V33.95l0.025-0.025c0.028-0.034,0.053-0.075,0.075-0.125
		l6.35-14.15v-0.025c0.034-0.038,0.059-0.08,0.075-0.125c0.315-0.934,0.256-1.809-0.175-2.625c-0.021-0.044-0.046-0.086-0.075-0.125
		l-8.25-9c-0.031-0.029-0.064-0.054-0.1-0.075l-0.85-0.55C28.79,7.073,28.699,7.048,28.6,7.05z M32.15,34.3l0.1-0.1l0.025-0.05
		C32.238,34.202,32.196,34.252,32.15,34.3z"/>
	<path fill-rule="evenodd" clip-rule="evenodd" fill="#FFFF00" fill-opacity="0.851" d="M28.6,7.05
		c0.099-0.001,0.19,0.023,0.275,0.075l0.85,0.55c0.036,0.021,0.069,0.046,0.1,0.075l8.25,9c0.029,0.039,0.054,0.081,0.075,0.125
		c0.432,0.816,0.49,1.691,0.175,2.625c-0.016,0.045-0.041,0.087-0.075,0.125v0.025L31.9,33.8c-0.021,0.05-0.047,0.091-0.075,0.125
		L31.8,33.95v0.025c-0.105,0.279-0.322,0.513-0.65,0.7c-0.047,0.033-0.097,0.058-0.15,0.075c-0.158,0.025-0.299,0.05-0.425,0.075
		c-0.042,0.013-0.083,0.021-0.125,0.025c-0.133,0-0.25,0-0.35,0c-0.076,0-0.143,0.008-0.2,0.025
		c-0.048,0.018-0.099,0.026-0.15,0.025l-15.2-0.25c-0.088-0.004-0.172-0.029-0.25-0.075c-0.073-0.043-0.131-0.102-0.175-0.175
		l-0.4-0.65c-0.009-0.017-0.018-0.033-0.025-0.05L7.3,19.45c-0.009-0.017-0.018-0.033-0.025-0.05l-0.25-0.8
		C7.009,18.55,7,18.5,7,18.45c0.003-0.175,0.028-0.35,0.075-0.525c0.063-0.233,0.138-0.45,0.225-0.65
		C7.322,17.168,7.372,17.077,7.45,17c0.041-0.047,0.083-0.105,0.125-0.175c0.015-0.026,0.032-0.051,0.05-0.075l8.3-9.05
		c0.038-0.031,0.08-0.056,0.125-0.075c0.181-0.116,0.472-0.249,0.875-0.4h0.025c0.408-0.123,0.674-0.182,0.8-0.175
		c0.042,0.003,0.083,0.011,0.125,0.025L22.5,8.3l5.175-1.225c0.042-0.013,0.083-0.021,0.125-0.025H28.6z"/>
</g>
</svg>
