<?xml version="1.0" encoding="utf-8"?>
<!-- Generator: Adobe Illustrator 15.0.0, SVG Export Plug-In . SVG Version: 6.00 Build 0)  -->
<!DOCTYPE svg PUBLIC "-//W3C//DTD SVG 1.1//EN" "http://www.w3.org/Graphics/SVG/1.1/DTD/svg11.dtd">
<svg version="1.1" id="Selected_Items" xmlns="http://www.w3.org/2000/svg" xmlns:xlink="http://www.w3.org/1999/xlink" x="0px"
	 y="0px" width="28.151px" height="31.15px" viewBox="0 0 28.151 31.15" enable-background="new 0 0 28.151 31.15"
	 xml:space="preserve">
<g>
	<g>
		<path fill-rule="evenodd" clip-rule="evenodd" fill="#278DB0" d="M20.7,0.4l-0.075-0.075C20.672,0.273,20.73,0.231,20.8,0.2
			c0.122-0.049,0.247-0.058,0.375-0.025c0.031,0.002,0.064,0.011,0.1,0.025c0.151,0.054,0.26,0.154,0.325,0.3l6.35,14.15
			c0.026,0.065,0.043,0.132,0.05,0.2c0.092,0.104,0.142,0.229,0.15,0.375c0.01,0.163-0.041,0.304-0.15,0.425l-9.025,9.85
			c-1.65,1.667-3.292,3.55-4.925,5.65L0.2,15.65c-0.11-0.121-0.16-0.262-0.15-0.425c0.008-0.146,0.058-0.271,0.15-0.375
			c0.005-0.068,0.021-0.134,0.05-0.2L6.6,0.5c0.074-0.146,0.19-0.246,0.35-0.3c0.151-0.064,0.301-0.064,0.45,0
			c0.038,0.019,0.071,0.043,0.1,0.075C7.593,0.339,7.66,0.431,7.7,0.55c0.047,0.112-0.012,0.154-0.175,0.125
			C7.461,0.656,7.386,0.63,7.3,0.6L1.65,15.125l12.4,13.625l12.6-13.725L20.7,0.4z"/>
		<path fill-rule="evenodd" clip-rule="evenodd" fill="#A2D6FF" d="M21.175,0.175C21.046,0.143,20.921,0.151,20.8,0.2
			c-0.069,0.031-0.128,0.073-0.175,0.125c-0.055,0.054-0.097,0.121-0.125,0.2c-0.063,0.16,0.003,0.118,0.2-0.125l5.95,14.625
			L14.05,28.75L1.65,15.125L7.3,0.6c0.086,0.03,0.161,0.056,0.225,0.075C7.688,0.704,7.747,0.662,7.7,0.55
			C7.66,0.431,7.593,0.339,7.5,0.275L7.6,0.2c4.8-0.067,7.283-0.1,7.45-0.1l6.1,0.05L21.175,0.175z"/>
		<path fill-rule="evenodd" clip-rule="evenodd" d="M20.625,0.325L20.7,0.4c-0.197,0.243-0.264,0.285-0.2,0.125
			C20.528,0.446,20.57,0.379,20.625,0.325z"/>
	</g>
	<g>
		<path fill-rule="evenodd" clip-rule="evenodd" fill="#4A3217" d="M12.85,12.55h2.6l-1.3-3.95L12.85,12.55z M13,6.25h2.4l3.55,10.1
			h-2.3L16,14.3h-3.7l-0.7,2.05H9.4L13,6.25z"/>
	</g>
</g>
</svg>
