<?xml version="1.0" encoding="UTF-8" standalone="no"?>
<!-- Created with Inkscape (http://www.inkscape.org/) -->

<svg
   xmlns:dc="http://purl.org/dc/elements/1.1/"
   xmlns:cc="http://creativecommons.org/ns#"
   xmlns:rdf="http://www.w3.org/1999/02/22-rdf-syntax-ns#"
   xmlns:svg="http://www.w3.org/2000/svg"
   xmlns="http://www.w3.org/2000/svg"
   version="1.1"
   width="54.450001"
   height="21.049999"
   viewBox="0 0 54.450001 21.049999"
   id="Selected_Items"
   xml:space="preserve"><metadata
     id="metadata150"><rdf:RDF><cc:Work
         rdf:about=""><dc:format>image/svg+xml</dc:format><dc:type
           rdf:resource="http://purl.org/dc/dcmitype/StillImage" /><dc:title></dc:title></cc:Work></rdf:RDF></metadata><defs
     id="defs148" /><g
     transform="translate(-7.8,-6.35)"
     id="g68"><path
       d="m 28.3,16.65 h 7.25 c -0.167,-1.333 -0.783,-2.667 -1.85,-4 l 7.35,4.65 -7.35,4.65 c 1,-1.267 1.6,-2.534 1.8,-3.8 h -7.2 v -1.5 z"
       id="path70"
       style="fill:#828a8b;fill-rule:evenodd" /></g><g
     transform="translate(-7.8,-6.35)"
     id="g108"><g
       id="g110"><path
         d="m 57.55,27.35 c -0.1,0.033 -0.183,0.033 -0.25,0 -0.066,-0.033 -0.1,-0.067 -0.1,-0.1 V 27.2 L 61.25,17.3 52.7,8 l -8.4,9.2 3.85,9.9 c 0.067,-0.033 0.117,-0.067 0.15,-0.1 0.1,0 0.133,0.033 0.1,0.1 -0.033,0.1 -0.083,0.167 -0.15,0.2 l -0.05,0.05 c -0.1,0.033 -0.2,0.033 -0.3,0 -0.1,-0.033 -0.183,-0.1 -0.25,-0.2 l -4.3,-9.6 C 43.317,17.517 43.3,17.467 43.3,17.4 c -0.066,-0.066 -0.1,-0.15 -0.1,-0.25 0,-0.1 0.033,-0.183 0.1,-0.25 L 52.7,6.35 c 1.1,1.433 2.216,2.717 3.35,3.85 l 6.1,6.7 c 0.067,0.067 0.1,0.15 0.1,0.25 0,0.1 -0.033,0.184 -0.1,0.25 0,0.067 0,0.117 0,0.15 l -4.3,9.6 c -0.067,0.1 -0.133,0.167 -0.2,0.2 h -0.1 z"
         id="path112"
         style="fill:#278db0;fill-rule:evenodd" /><path
         d="m 57.2,27.2 -0.1,-0.1 c 0,0.066 0.033,0.117 0.1,0.15 0,0.033 0.033,0.067 0.1,0.1 0.067,0.033 0.15,0.033 0.25,0 V 27.4 H 53.4 c -0.133,0 -1.816,-0.017 -5.05,-0.05 l -0.1,-0.05 c 0.067,-0.033 0.117,-0.1 0.15,-0.2 0.033,-0.067 0,-0.1 -0.1,-0.1 -0.033,0.033 -0.083,0.067 -0.15,0.1 L 44.3,17.2 52.7,8 l 8.55,9.3 -4.05,9.9 z"
         id="path114"
         style="fill:#a2d6ff;fill-rule:evenodd" /><path
         d="M 57.2,27.25 C 57.133,27.217 57.1,27.167 57.1,27.1 l 0.1,0.1 v 0.05 z"
         id="path116"
         style="fill-rule:evenodd" /></g><g
       id="g118"><path
         d="m 52.65,18.2 -0.85,2.65 h 1.75 L 52.65,18.2 z M 51.9,16.6 h 1.6 l 0.05,0.05 2.35,6.8 h -1.55 l -0.45,-1.4 h -2.5 l -0.45,1.4 h -1.5 L 51.9,16.6 z"
         id="path120"
         style="fill:#4a3217;fill-rule:evenodd" /></g></g><g
     transform="translate(-7.8,-6.35)"
     id="g134"><g
       id="g136"><path
         d="m 22.3,26.55 h -0.45 c 0.066,-0.133 0.15,-0.3 0.25,-0.5 0.833,-1.966 2.117,-5.15 3.85,-9.55 l -4.75,-5.65 -3.65,4.1 c -0.066,0 -0.1,-0.017 -0.1,-0.05 -0.167,-0.066 -0.284,-0.167 -0.35,-0.3 h -0.05 c -0.9,-0.934 -1.767,-1.883 -2.6,-2.85 l -0.7,-0.9 -4.7,5.65 c 1.767,4.5 3.05,7.683 3.85,9.55 0.067,0.2 0.133,0.367 0.2,0.5 h -0.3 -0.5 c -0.033,0 -0.05,-0.033 -0.05,-0.1 l -4.3,-9.6 C 7.95,16.817 7.933,16.783 7.9,16.75 7.834,16.65 7.8,16.55 7.8,16.45 7.8,16.283 7.85,16.133 7.95,16 L 13.5,9.9 c 0.067,-0.066 0.15,-0.117 0.25,-0.15 0.1,-0.033 0.2,-0.033 0.3,0 0.1,0.033 0.2,0.083 0.3,0.15 l 3.1,3.5 3.2,-3.5 c 0.067,-0.066 0.15,-0.117 0.25,-0.15 0.1,-0.033 0.2,-0.033 0.3,0 0.1,0.033 0.2,0.083 0.3,0.15 l 5.55,6.1 c 0.1,0.133 0.15,0.283 0.15,0.45 0,0.1 -0.034,0.2 -0.1,0.3 -0.033,0.033 -0.05,0.067 -0.05,0.1 l -4.35,9.7 h -0.4 z"
         id="path138"
         style="fill:#278db0;fill-rule:evenodd" /><path
         d="m 22.3,26.55 c -0.033,0.034 -0.066,0.05 -0.1,0.05 -0.233,0.066 -2.717,0.066 -7.45,0 l 0.9,0.05 c -1.333,0 -2.15,0 -2.45,0 -0.167,0 -0.3,-0.033 -0.4,-0.1 h 0.3 C 13.033,26.417 12.967,26.25 12.9,26.05 12.1,24.183 10.817,21 9.05,16.5 l 4.7,-5.65 0.7,0.9 c 0.833,0.967 1.7,1.917 2.6,2.85 h 0.05 c 0.066,0.133 0.183,0.233 0.35,0.3 0,0.033 0.033,0.05 0.1,0.05 l 3.65,-4.1 4.75,5.65 c -1.733,4.4 -3.017,7.583 -3.85,9.55 -0.1,0.2 -0.184,0.367 -0.25,0.5 h 0.45 z"
         id="path140"
         style="fill:#99f0e3;fill-rule:evenodd" /></g><g
       id="g142"><polygon
         points="16.65,23.65 16.65,18.05 14.6,18.05 14.6,16.8 20.15,16.8 20.15,18.05 18.1,18.05 18.1,23.65 "
         id="polygon144"
         style="fill:#4a3217;fill-rule:evenodd" /></g></g></svg>