<?xml version="1.0" encoding="utf-8"?>
<!-- Generator: Adobe Illustrator 15.0.0, SVG Export Plug-In . SVG Version: 6.00 Build 0)  -->
<!DOCTYPE svg PUBLIC "-//W3C//DTD SVG 1.1//EN" "http://www.w3.org/Graphics/SVG/1.1/DTD/svg11.dtd">
<svg version="1.1" id="Selected_Items" xmlns="http://www.w3.org/2000/svg" xmlns:xlink="http://www.w3.org/1999/xlink" x="0px"
	 y="0px" width="15.925px" height="21.14px" viewBox="0 0 15.925 21.14" enable-background="new 0 0 15.925 21.14"
	 xml:space="preserve">
	<g id="Layer_1_1_" transform="matrix(1 0 0 -1 -0.0249 -0.0098)">
		<g>
			<path fill-rule="evenodd" clip-rule="evenodd" fill="#297216" d="M13.649-19.8v0.05l-0.049,0.05
				c-0.234,0.3-0.434,0.616-0.601,0.95c-0.634,1.2-1.116,2.517-1.45,3.95c-0.199,0.7-0.35,1.417-0.449,2.149
				c-0.201,1.301-0.334,2.567-0.4,3.8v0.05c-0.033,0.667-0.033,1.333,0,2c0,1.566,0.033,3.083,0.1,4.55
				c0.033,0.4,0.051,0.8,0.051,1.2c0.033,0.3,0.066,0.617,0.1,0.95h1.5c-0.133-2.2-0.117-4.417,0.05-6.65
				c0-1.933,0.134-3.867,0.399-5.8v-0.05c0.168-2,0.734-3.867,1.701-5.601c0.232-0.399,0.468-0.87,0.834-1.304l0.142-0.281
				 M0.05-19.95c0.167,0.267,0.317,0.5,0.45,0.7v0.05c0.367,0.4,0.683,0.8,0.95,1.2c0.966,1.767,1.533,3.617,1.7,5.55v0.05
				c0.3,1.967,0.467,3.917,0.5,5.851c0.167,2.167,0.2,4.3,0.1,6.4H5.3c0-0.033,0.017-0.083,0.05-0.15c0-0.233,0-0.517,0-0.85
				c0.033-0.3,0.05-0.6,0.05-0.9C5.467-3.517,5.483-5.033,5.45-6.6c-0.034-0.7-0.034-1.383,0-2.05V-8.7
				c-0.1-1.233-0.267-2.5-0.5-3.8c-0.1-0.733-0.25-1.45-0.45-2.15c-0.433-1.6-1.033-3.066-1.8-4.399c-0.1-0.167-0.2-0.333-0.3-0.5
				H2.35c-0.133-0.134-0.233-0.25-0.3-0.351"/>
			<path fill-rule="evenodd" clip-rule="evenodd" fill="#3DAF47" d="M13.649-19.8L2.05-19.9c0.067,0.101,0.167,0.217,0.3,0.351H2.4
				c0.1,0.167,0.2,0.333,0.3,0.5c0.767,1.333,1.367,2.8,1.8,4.399c0.2,0.7,0.35,1.417,0.45,2.15c0.233,1.3,0.4,2.567,0.5,3.8v0.05
				c-0.034,0.667-0.034,1.35,0,2.05C5.483-5.033,5.467-3.517,5.4-2.05c0,0.3-0.017,0.6-0.05,0.9c0,0.333-0.05,0.767-0.05,1
				C6-0.083,7.05-0.167,8.351-0.1c0.332,0,0.683,0.017,1.049,0.05c0.635-0.05,1.193,0.039,1.551-0.05
				c-0.033-0.333-0.066-0.65-0.1-0.95c0-0.4-0.018-0.8-0.051-1.2c-0.066-1.467-0.1-2.983-0.1-4.55c-0.033-0.667-0.033-1.333,0-2
				v-0.05c0.066-1.233,0.199-2.5,0.4-3.8c0.1-0.732,0.25-1.449,0.449-2.149c0.334-1.434,0.816-2.75,1.45-3.95
				c0.167-0.334,0.366-0.65,0.601-0.95l0.049-0.05V-19.8z"/>
		</g>
	</g>
</svg>
