<?xml version="1.0" encoding="utf-8"?>
<!-- Generator: Adobe Illustrator 14.0.0, SVG Export Plug-In . SVG Version: 6.00 Build 43363)  -->
<!DOCTYPE svg PUBLIC "-//W3C//DTD SVG 1.1//EN" "http://www.w3.org/Graphics/SVG/1.1/DTD/svg11.dtd">
<svg version="1.1" id="Layer_1" xmlns="http://www.w3.org/2000/svg" xmlns:xlink="http://www.w3.org/1999/xlink" x="0px" y="0px"
	 width="39px" height="111px" viewBox="25.5 4.093 39 111" enable-background="new 25.5 4.093 39 111" xml:space="preserve">
<linearGradient id="SVGID_1_" gradientUnits="userSpaceOnUse" x1="986.0449" y1="1290.5266" x2="986.0449" y2="1226.1321">
	<stop  offset="0" style="stop-color:#A7A9AC"/>
	<stop  offset="1" style="stop-color:#FFFFFF"/>
</linearGradient>
<path fill="#E6E7E8" stroke="url(#SVGID_1_)" stroke-width="0.5" stroke-miterlimit="10" d="M55.164,93.223
	c0,2.005-1.624,3.628-3.628,3.628H40.599c-2.003,0-3.628-1.622-3.628-3.628V24.765c0-2.003,1.625-3.629,3.628-3.629h10.937
	c2.004,0,3.628,1.625,3.628,3.629V93.223z"/>
<linearGradient id="SVGID_2_" gradientUnits="userSpaceOnUse" x1="1245.5889" y1="890.0461" x2="1245.5889" y2="962.261" gradientTransform="matrix(1 0 0 -1 -1199.4932 985.2251)">
	<stop  offset="0.0043" style="stop-color:#EF4136"/>
	<stop  offset="0.1653" style="stop-color:#F1604B"/>
	<stop  offset="0.5189" style="stop-color:#F79E85"/>
	<stop  offset="1" style="stop-color:#FFFFFF"/>
</linearGradient>
<path fill="url(#SVGID_2_)" d="M49.309,22.964c2.215,0,4.009,1.796,4.009,4.011v64.118c0,2.257-1.828,4.086-4.085,4.086h-6.273
	c-2.257,0-4.086-1.829-4.086-4.086V26.975c0-2.215,1.795-4.011,4.01-4.011H49.309z"/>
<rect x="14.397" y="9.607" fill="none" width="61.36" height="14.812"/>
<text transform="matrix(1 0 0 1 33.0698 16.8108)" fill="#D1D3D4" font-family="'ArialMT'" font-size="9.4798">HIGH</text>
<rect x="14.397" y="103.033" fill="none" width="61.36" height="14.812"/>
<text transform="matrix(1 0 0 1 34.2935 110.2395)" fill="#D1D3D4" font-family="'ArialMT'" font-size="9.4798">LOW</text>
</svg>
