<?xml version="1.0" encoding="utf-8"?>
<!-- Generator: Adobe Illustrator 15.0.2, SVG Export Plug-In . SVG Version: 6.00 Build 0)  -->
<!DOCTYPE svg PUBLIC "-//W3C//DTD SVG 1.1//EN" "http://www.w3.org/Graphics/SVG/1.1/DTD/svg11.dtd">
<svg version="1.1" id="Layer_1" xmlns="http://www.w3.org/2000/svg" xmlns:xlink="http://www.w3.org/1999/xlink" x="0px" y="0px"
	 width="128.639px" height="123.682px" viewBox="0 0 128.639 123.682" enable-background="new 0 0 128.639 123.682"
	 xml:space="preserve">
<g>
	<g>
		<path fill="#FFDE17" stroke="#231F20" stroke-width="0.985" stroke-miterlimit="10" d="M1.269,40.376
			c0,0,23.584-39.291,63.001-39.291c39.413,0,62.999,39.291,62.999,39.291s-12.599-6.993-20.678-6.993c-8.076,0-21,6.993-21,6.993
			s-12.598-6.993-21.321-6.993c-8.722,0-20.678,6.993-20.678,6.993s-13.568-6.993-20.675-6.993
			C15.807,33.383,1.269,40.376,1.269,40.376z"/>
		<path fill="none" stroke="#231F20" stroke-width="0.985" stroke-miterlimit="10" d="M43.515,40.34c0,0-0.755-27.259,20.755-39.34"
			/>
		<path fill="none" stroke="#231F20" stroke-width="0.985" stroke-miterlimit="10" d="M85.657,40.34c0,0-1.03-30.683-21.387-39.34"
			/>
	</g>
	<line fill="none" stroke="#231F20" stroke-width="0.985" stroke-miterlimit="10" x1="1.269" y1="40.376" x2="63.612" y2="62.837"/>
	
		<line fill="none" stroke="#231F20" stroke-width="0.985" stroke-miterlimit="10" x1="43.592" y1="40.376" x2="63.612" y2="62.837"/>
	
		<line fill="none" stroke="#231F20" stroke-width="0.985" stroke-miterlimit="10" x1="85.591" y1="40.376" x2="63.612" y2="62.837"/>
	
		<line fill="none" stroke="#231F20" stroke-width="0.985" stroke-miterlimit="10" x1="127.269" y1="40.376" x2="63.612" y2="62.837"/>
</g>
</svg>
