<?xml version="1.0" encoding="utf-8"?>
<!-- Generator: Adobe Illustrator 15.0.2, SVG Export Plug-In . SVG Version: 6.00 Build 0)  -->
<!DOCTYPE svg PUBLIC "-//W3C//DTD SVG 1.1//EN" "http://www.w3.org/Graphics/SVG/1.1/DTD/svg11.dtd">
<svg version="1.1" id="Layer_1" xmlns="http://www.w3.org/2000/svg" xmlns:xlink="http://www.w3.org/1999/xlink" x="0px" y="0px"
	 width="128.639px" height="123.682px" viewBox="0 0 128.639 123.682" enable-background="new 0 0 128.639 123.682"
	 xml:space="preserve">
<g>
	<g>
		<path fill="#FFDE17" stroke="#231F20" stroke-width="0.9389" stroke-miterlimit="10" d="M7.029,40.376
			c0,0,21.428-39.291,57.241-39.291c35.81,0,57.239,39.291,57.239,39.291s-11.447-6.993-18.787-6.993
			c-7.338,0-19.08,6.993-19.08,6.993s-11.446-6.993-19.372-6.993c-7.925,0-18.787,6.993-18.787,6.993s-12.328-6.993-18.785-6.993
			C20.238,33.383,7.029,40.376,7.029,40.376z"/>
		<path fill="none" stroke="#231F20" stroke-width="0.9389" stroke-miterlimit="10" d="M45.412,40.34c0,0-0.686-27.259,18.858-39.34
			"/>
		<path fill="none" stroke="#231F20" stroke-width="0.9389" stroke-miterlimit="10" d="M83.702,40.34c0,0-0.937-30.683-19.432-39.34
			"/>
	</g>
	
		<line fill="none" stroke="#231F20" stroke-width="0.9389" stroke-miterlimit="10" x1="7.029" y1="40.376" x2="63.672" y2="62.837"/>
	
		<line fill="none" stroke="#231F20" stroke-width="0.9389" stroke-miterlimit="10" x1="45.483" y1="40.376" x2="63.672" y2="62.837"/>
	
		<line fill="none" stroke="#231F20" stroke-width="0.9389" stroke-miterlimit="10" x1="83.642" y1="40.376" x2="63.672" y2="62.837"/>
	
		<line fill="none" stroke="#231F20" stroke-width="0.9389" stroke-miterlimit="10" x1="121.509" y1="40.376" x2="63.672" y2="62.837"/>
</g>
</svg>
