<?xml version="1.0" encoding="utf-8"?>
<!-- Generator: Adobe Illustrator 15.0.2, SVG Export Plug-In . SVG Version: 6.00 Build 0)  -->
<!DOCTYPE svg PUBLIC "-//W3C//DTD SVG 1.1//EN" "http://www.w3.org/Graphics/SVG/1.1/DTD/svg11.dtd">
<svg version="1.1" id="Layer_1" xmlns="http://www.w3.org/2000/svg" xmlns:xlink="http://www.w3.org/1999/xlink" x="0px" y="0px"
	 width="128.639px" height="123.682px" viewBox="0 0 128.639 123.682" enable-background="new 0 0 128.639 123.682"
	 xml:space="preserve">
<g>
	<g>
		<path fill="#FFDE17" stroke="#231F20" stroke-width="0.7845" stroke-miterlimit="10" d="M24.31,40.376
			c0,0,14.958-39.291,39.96-39.291c24.999,0,39.96,39.291,39.96,39.291s-7.993-6.993-13.115-6.993c-5.123,0-13.32,6.993-13.32,6.993
			s-7.992-6.993-13.524-6.993c-5.533,0-13.115,6.993-13.115,6.993s-8.606-6.993-13.115-6.993
			C33.531,33.383,24.31,40.376,24.31,40.376z"/>
		<path fill="none" stroke="#231F20" stroke-width="0.7845" stroke-miterlimit="10" d="M51.105,40.34c0,0-0.479-27.259,13.165-39.34
			"/>
		<path fill="none" stroke="#231F20" stroke-width="0.7845" stroke-miterlimit="10" d="M77.836,40.34c0,0-0.655-30.683-13.566-39.34
			"/>
	</g>
	
		<line fill="none" stroke="#231F20" stroke-width="0.7845" stroke-miterlimit="10" x1="24.31" y1="40.376" x2="63.853" y2="62.837"/>
	
		<line fill="none" stroke="#231F20" stroke-width="0.7845" stroke-miterlimit="10" x1="51.155" y1="40.376" x2="63.853" y2="62.837"/>
	
		<line fill="none" stroke="#231F20" stroke-width="0.7845" stroke-miterlimit="10" x1="77.794" y1="40.376" x2="63.853" y2="62.837"/>
	
		<line fill="none" stroke="#231F20" stroke-width="0.7845" stroke-miterlimit="10" x1="104.23" y1="40.376" x2="63.853" y2="62.837"/>
</g>
</svg>
