<?xml version="1.0" encoding="utf-8"?>
<!-- Generator: Adobe Illustrator 15.0.2, SVG Export Plug-In . SVG Version: 6.00 Build 0)  -->
<!DOCTYPE svg PUBLIC "-//W3C//DTD SVG 1.1//EN" "http://www.w3.org/Graphics/SVG/1.1/DTD/svg11.dtd">
<svg version="1.1" id="Layer_1" xmlns="http://www.w3.org/2000/svg" xmlns:xlink="http://www.w3.org/1999/xlink" x="0px" y="0px"
	 width="128.639px" height="123.682px" viewBox="0 0 128.639 123.682" enable-background="new 0 0 128.639 123.682"
	 xml:space="preserve">
<g>
	<g>
		<path fill="#FFDE17" stroke="#231F20" stroke-width="0.8391" stroke-miterlimit="10" d="M18.55,40.376
			c0,0,17.115-39.291,45.72-39.291c28.603,0,45.72,39.291,45.72,39.291s-9.145-6.993-15.006-6.993s-15.24,6.993-15.24,6.993
			S70.6,33.383,64.27,33.383s-15.006,6.993-15.006,6.993s-9.847-6.993-15.005-6.993C29.1,33.383,18.55,40.376,18.55,40.376z"/>
		<path fill="none" stroke="#231F20" stroke-width="0.8391" stroke-miterlimit="10" d="M49.207,40.34c0,0-0.547-27.259,15.063-39.34
			"/>
		<path fill="none" stroke="#231F20" stroke-width="0.8391" stroke-miterlimit="10" d="M79.792,40.34c0,0-0.749-30.683-15.521-39.34
			"/>
	</g>
	
		<line fill="none" stroke="#231F20" stroke-width="0.8391" stroke-miterlimit="10" x1="18.55" y1="40.376" x2="63.792" y2="62.837"/>
	
		<line fill="none" stroke="#231F20" stroke-width="0.8391" stroke-miterlimit="10" x1="49.264" y1="40.376" x2="63.792" y2="62.837"/>
	
		<line fill="none" stroke="#231F20" stroke-width="0.8391" stroke-miterlimit="10" x1="79.744" y1="40.376" x2="63.792" y2="62.837"/>
	
		<line fill="none" stroke="#231F20" stroke-width="0.8391" stroke-miterlimit="10" x1="109.99" y1="40.376" x2="63.792" y2="62.837"/>
</g>
</svg>
