<?xml version="1.0" encoding="utf-8"?>
<!-- Generator: Adobe Illustrator 15.0.2, SVG Export Plug-In . SVG Version: 6.00 Build 0)  -->
<!DOCTYPE svg PUBLIC "-//W3C//DTD SVG 1.1//EN" "http://www.w3.org/Graphics/SVG/1.1/DTD/svg11.dtd">
<svg version="1.1" id="Layer_1" xmlns="http://www.w3.org/2000/svg" xmlns:xlink="http://www.w3.org/1999/xlink" x="0px" y="0px"
	 width="128.639px" height="123.682px" viewBox="0 0 128.639 123.682" enable-background="new 0 0 128.639 123.682"
	 xml:space="preserve">
<g>
	<g>
		<path fill="#FFDE17" stroke="#231F20" stroke-width="0.8904" stroke-miterlimit="10" d="M12.79,40.376
			c0,0,19.271-39.291,51.48-39.291c32.206,0,51.479,39.291,51.479,39.291s-10.296-6.993-16.896-6.993
			c-6.6,0-17.16,6.993-17.16,6.993s-10.295-6.993-17.423-6.993c-7.127,0-16.896,6.993-16.896,6.993s-11.087-6.993-16.895-6.993
			C24.668,33.383,12.79,40.376,12.79,40.376z"/>
		<path fill="none" stroke="#231F20" stroke-width="0.8904" stroke-miterlimit="10" d="M47.31,40.34c0,0-0.617-27.259,16.96-39.34"
			/>
		<path fill="none" stroke="#231F20" stroke-width="0.8904" stroke-miterlimit="10" d="M81.747,40.34c0,0-0.843-30.683-17.477-39.34
			"/>
	</g>
	
		<line fill="none" stroke="#231F20" stroke-width="0.8904" stroke-miterlimit="10" x1="12.79" y1="40.376" x2="63.732" y2="62.837"/>
	
		<line fill="none" stroke="#231F20" stroke-width="0.8904" stroke-miterlimit="10" x1="47.374" y1="40.376" x2="63.732" y2="62.837"/>
	
		<line fill="none" stroke="#231F20" stroke-width="0.8904" stroke-miterlimit="10" x1="81.693" y1="40.376" x2="63.732" y2="62.837"/>
	
		<line fill="none" stroke="#231F20" stroke-width="0.8904" stroke-miterlimit="10" x1="115.75" y1="40.376" x2="63.732" y2="62.837"/>
</g>
</svg>
