<svg id="Layer_1" data-name="Layer 1" xmlns="http://www.w3.org/2000/svg" viewBox="0 0 389.18 119.4"><defs><style>.cls-1{fill:#e75300;}.cls-2{fill:#ad441d;}.cls-2,.cls-3,.cls-5,.cls-7{fill-rule:evenodd;}.cls-3{fill:#ffd26c;}.cls-4{fill:#fff;}.cls-5{fill:#ffc656;}.cls-6{fill:#00758d;}.cls-7{fill:#231f20;}</style></defs><title>Artboard 1</title><path class="cls-1" d="M95.31,44.27c6.54,4.56,12.75,11.59,12.54,15.36-.12,2.19-8.17,10.2-17.16,13.34C92.76,80.67,93,90,90.42,92.79,89,94.32,78.68,95.26,70,92.44a24.07,24.07,0,0,0,.93-6.33c.31-10.25,13.6-17,13.6-35,0-17-16.83-29.38-30.6-29.38s-30.6,12.39-30.6,29.38c0,18.06,13.29,24.79,13.6,35a22.21,22.21,0,0,0,1.18,7c-6.94,2.94-15.1,4.42-18,2.5-1.84-1.2-4.75-12.17-3-21.53C9.39,72,1.15,67.53.06,63.92c-.64-2.1,4.19-12.38,11.57-18.4C7,39,3.6,30.26,5.09,26.79c.86-2,11.17-6.79,20.69-6.66.68-7.94,3.66-16.84,7-18.54,2-1,12.92,2,20.13,8.19C58.57,4.14,66.57-.76,70.25.1c2.14.5,8.63,9.82,10.16,19.22,7.94-.71,17.21.68,19.48,3.7C101.2,24.77,100.18,36.08,95.31,44.27Z"/><path class="cls-2" d="M64.75,63.25c6.59.67,13.32-4.66,20.09-.76,2.51,1.45,4.54,5.63,5.85,10.47A19,19,0,0,1,81.34,74C75.76,73.1,69.15,67.93,64.75,63.25ZM38.48,56.46c-3.88,5.37-2.62,13.87-9.39,17.77-2.51,1.45-7.15,1.12-12-.17a19,19,0,0,1,3.74-8.63C24.45,61.07,32.22,57.93,38.48,56.46Zm.84-10.68C32.89,47.4,28.4,54.71,20.7,53.36c-2.86-.5-6.19-3.74-9.08-7.84A19,19,0,0,1,20,41.31C25.61,40.28,33.58,42.88,39.32,45.77Zm7.51-7.64c-6-2.89-14.11-.17-19.14-6.16-1.86-2.22-2.34-6.84-1.91-11.84a19,19,0,0,1,9.15,2.19C39.86,25.11,44.29,32.23,46.83,38.13Zm10.67-1c-2.71-6-10.7-9.2-10.7-17,0-2.9,2.6-6.75,6.14-10.3a19,19,0,0,1,5.6,7.56C60.52,22.65,59.35,31,57.5,37.1Zm11.7,16.4C74.68,49.78,76.4,41.37,84.1,40c2.86-.5,7.1,1.39,11.21,4.26a19,19,0,0,1-6.47,6.83C84,54,75.57,54.26,69.19,53.5ZM80.4,19.32a19,19,0,0,1-.57,9.39C77.94,34,71.7,39.65,66.33,43.17,68.14,36.8,64,29.25,69.07,23.26,70.94,21,75.41,19.76,80.4,19.32Z"/><path class="cls-3" d="M42.43,97.36a6.2,6.2,0,0,1-3.27-2.44C38,93,37,90.27,36.92,86.11c-.31-10.25-13.6-17-13.6-35,0-17,16.83-29.38,30.6-29.38s30.6,12.39,30.6,29.38c0,18.06-13.29,24.79-13.6,35-.13,4.37-1.06,7.19-2.37,9.08a6.2,6.2,0,0,1-2.88,2.19l-.31,0H42.43Z"/><path class="cls-4" d="M59.93,55.53c.46-.65,3.78.22,6.84-.81a10,10,0,0,0,2.42-1.21c-4.81-.57-8.48-1.73-8.66-2.82-.07-.79,3-2.26,4.72-5a10,10,0,0,0,1.08-2.48c-4.05,2.66-7.61,4.12-8.44,3.4-.56-.56.87-3.69.39-6.88a10,10,0,0,0-.77-2.59c-1.4,4.64-3.18,8.05-4.28,8-.79-.07-1.7-3.39-4.12-5.52a10,10,0,0,0-2.26-1.49c1.91,4.45,2.74,8.21,1.88,8.91-.65.46-3.48-1.5-6.71-1.57a10,10,0,0,0-2.69.31c4.33,2.18,7.38,4.53,7.17,5.61-.21.77-3.63,1.09-6.15,3.1a10,10,0,0,0-1.86,2c4.72-1.11,8.56-1.27,9.1-.31.34.72-2.08,3.17-2.71,6.33a10,10,0,0,0-.16,2.7c2.9-3.88,5.74-6.48,6.77-6.08.72.34.44,3.76,2,6.59a10,10,0,0,0,1.61,2.17c-.27-4.84.23-8.66,1.28-9,.77-.21,2.76,2.6,5.76,3.77a10,10,0,0,0,2.63.63C61.43,59.72,59.37,56.47,59.93,55.53Z"/><path class="cls-5" d="M67.16,91.34A21.93,21.93,0,0,1,64.67,90a16.17,16.17,0,0,1-3.82-3.22c-3.68-4.31-5.41-12.52-5.78-18.93,4.62,4.75,13.2,5,15.87,12.33a5.46,5.46,0,0,1,.21.74l.41,1.57a13.05,13.05,0,0,0-.64,3.6,23.93,23.93,0,0,1-1,6.4A29.51,29.51,0,0,1,67.16,91.34ZM44.7,65.18c.48,6.61,6.91,12.31,4.23,19.65-.75,2.06-3.09,4.13-6.16,5.93-1,.58-2,1.13-3.14,1.65-.57.27-1.06.5-1.53.7a22.18,22.18,0,0,1-1.18-7c0-.23,0-.46,0-.68,0-.79,0-1.41.07-2a14.09,14.09,0,0,1,.13-1.93C37.78,76.13,41.28,69.76,44.7,65.18ZM77.44,33.06A44.5,44.5,0,0,1,66.33,43.17c1.6-5.64-1.42-12.21,1.35-17.8A34.63,34.63,0,0,1,77.44,33.06ZM69.19,53.5c5-3.4,6.88-10.73,13.06-13a25.77,25.77,0,0,1,2.28,10.57q0,.89,0,1.75A44,44,0,0,1,69.19,53.5ZM57.5,37.1c-2.4-5.34-8.91-8.43-10.4-14.47a26.59,26.59,0,0,1,6.83-.94,26,26,0,0,1,5.59.63A44.67,44.67,0,0,1,57.5,37.1Zm-10.67,1c-5.21-2.52-12.08-.77-17.08-4.27a34.36,34.36,0,0,1,9.49-8A45.44,45.44,0,0,1,46.83,38.13Zm-7.51,7.64C33.68,47.2,29.53,53,23.41,53.49q-.08-1.17-.08-2.42a25.69,25.69,0,0,1,2-9.83A44.93,44.93,0,0,1,39.32,45.77Zm-.84,10.68C35,61.29,35.65,68.63,30.92,72.91a48.42,48.42,0,0,1-5.83-11.08A45.41,45.41,0,0,1,38.48,56.46Zm26.27,6.79c5.95.61,12-3.67,18.1-1.65A47.13,47.13,0,0,1,77.1,72.66,43.68,43.68,0,0,1,64.75,63.25Z"/><path class="cls-6" d="M65.37,107.6v1.55a2.18,2.18,0,0,1,0,4.35l-7.55,2a2.25,2.25,0,0,1,.81,1.75,2.09,2.09,0,0,1-2,2.18H51.21a2.09,2.09,0,0,1-2-2.18,2.2,2.2,0,0,1,1.13-2l-7.87-1.76a2.18,2.18,0,0,1,0-4.35H60.88v-.47L42.48,107.6a2.18,2.18,0,0,1,0-4.35H60.87v-.46l-18.38-1.09a2.18,2.18,0,0,1,0-4.35H65.37a2.18,2.18,0,0,1,0,4.35h-.2v1.55h.2a2.18,2.18,0,0,1,0,4.35Z"/><path class="cls-7" d="M348.74,37.69c.77-1.94,4-5.25,7-5.25a17.59,17.59,0,0,1,2.08.23v6.52a14.49,14.49,0,0,0-2.23-.38c-4.5,0-6.69,4.56-6.69,9.33V59.24h-6.46V38.35a.57.57,0,0,0,0-.2.63.63,0,0,0-.19,0h-3.37V32.74h5.87c2.2,0,4.06,1.1,4.06,3.24C348.77,36.21,348.73,37.47,348.74,37.69Zm-92.07-1.62a11.32,11.32,0,0,1,8.75-3.92c6.28,0,9.09,3.7,9.09,10.36V53.69a.57.57,0,0,0,0,.2.64.64,0,0,0,.19,0h3.21v5.39h-5.87c-2.2,0-4-1.1-4-3.24V43.59c0-3.45-.65-5.36-3.8-5.36-4.37,0-7.42,4-7.42,8.65V59.24h-6.46V38.35a.57.57,0,0,0,0-.2.64.64,0,0,0-.19,0h-3.2V32.74h5.75C255.12,32.74,256.56,33.87,256.67,36.07ZM131.4,29.79A2.07,2.07,0,0,1,133.53,32v3.81H129.8V33.37h-3.43V52.44h-4.12V33.37h-3.43v2.48h-3.73V32.26c0-1.33.59-2.47,2.13-2.47Zm8.8,8a7,7,0,0,1,5.21-2.3c4,0,5.85,2.29,5.85,6.46v7.08h2.41v3.36h-6.45V42.68c0-2.14-.43-3.35-2.4-3.35-2.66,0-4.63,2.25-4.63,5.33v7.78h-4l0-19.29h-1.45V29.79h5.45Zm23.15,15a8.41,8.41,0,0,1-8.73-8.63c0-5.21,3.56-8.63,8.27-8.63s7.23,3.56,7.23,7.78c0,.42-.15,1.66-.15,1.66H158.77a4.62,4.62,0,0,0,4.76,4.19,6.94,6.94,0,0,0,4.75-2L170,50.24s-.47.44-.78.66A10.15,10.15,0,0,1,163.35,52.81ZM162.83,39A3.92,3.92,0,0,0,159,42h7A3.12,3.12,0,0,0,162.83,39Zm34.91,20.4c-11,0-18.86-8.44-18.86-19.06a18.29,18.29,0,0,1,18.66-18.66c4.47,0,14.13,1.63,14.13,7.76v5.1h-6.31V30.93c0-2.64-5.84-3.33-7.62-3.33-7,0-12.06,5.07-12.06,12.5,0,7.81,5.28,13.24,12.35,13.24a13.53,13.53,0,0,0,11.08-5.14l3.23,4.49S208.32,59.36,197.74,59.36Zm32.28.57c-7.89,0-14.32-5.87-14.32-14S222.14,32.08,230,32.08,244.34,37.89,244.34,46,237.9,59.93,230,59.93Zm0-22a7.7,7.7,0,0,0-7.72,8,7.73,7.73,0,1,0,15.44,0A7.73,7.73,0,0,0,230,37.94Zm64.64,22c-7.6,0-14.32-5.29-14.32-13.88a13.69,13.69,0,0,1,14.08-14c3.84,0,10.62,1.46,10.62,6.53v2.77h-6V39.94c0-1.49-3.51-2-4.51-2-4.52,0-7.62,3.13-7.62,8,0,5.16,3.58,8.11,7.91,8.11,3.6,0,5.69-1.65,8.27-3.66l2.61,5A16,16,0,0,1,294.66,59.93Zm27.27,0c-7.89,0-14.32-5.87-14.32-14S314,32.08,321.92,32.08,336.25,37.89,336.25,46,329.81,59.93,321.92,59.93Zm0-22a7.7,7.7,0,0,0-7.72,8,7.73,7.73,0,1,0,15.44,0A7.73,7.73,0,0,0,321.92,37.94Zm57.15-3.39V28.23h-3V22.81h9.5V53.7a.58.58,0,0,0,0,.2.64.64,0,0,0,.19,0h3.38v5.42h-5.84c-2.21,0-3.49-1-3.86-2.55a10.22,10.22,0,0,1-7.63,3.14c-7.33,0-11.76-5.88-11.76-13.93,0-8.31,4.92-13.93,12.2-13.93A10.62,10.62,0,0,1,379.07,34.55ZM373,38c-3.4,0-6.34,2.69-6.34,8,0,5.14,2.69,8.06,6.19,8.06,3.16,0,6.34-2.21,6.34-8C379.22,41.65,377,38,373,38ZM186.42,75.35a10.68,10.68,0,0,1,8.25-3.69c5.92,0,8.57,3.49,8.57,9.77V92a.54.54,0,0,0,0,.19.6.6,0,0,0,.18,0H207v5.08h-6.07c-2.07,0-3.79-1-3.79-3.05V82.44c0-3.25-.61-5.06-3.58-5.06-4.13,0-7,3.78-7,8.15V97.2h-6.09V77.5a.54.54,0,0,0,0-.19.6.6,0,0,0-.18,0h-3V72.21h5.42C185,72.21,186.32,73.28,186.42,75.35Zm-23.94,22.4c-7.39,0-13.42-5.5-13.42-13.09s6-13,13.42-13,13.42,5.45,13.42,13S169.86,97.75,162.48,97.75Zm0-20.6a7.56,7.56,0,0,0,0,15.11,7.56,7.56,0,0,0,0-15.11Zm55.23,20.6c-5.82,0-9.63-4.61-9.63-4.61l3.41-4.09s2.37,3.44,6.36,3.44c2.6,0,3.9-1,3.9-2.2,0-2-3.79-3-5.29-3.49-3.34-1.25-7.83-3-7.83-7.87,0-5.36,5.31-7.27,9.44-7.27,3.22,0,8.89,1.29,8.89,5.52v2.48h-5.54V78.47c0-.64-1-1.59-3.3-1.59s-3.35.88-3.35,2c0,1.92,3.5,2.88,4.86,3.35,3.45,1.15,8.26,2.82,8.26,7.83S223.16,97.75,217.7,97.75Zm27,0c-7.39,0-13.42-5.5-13.42-13.09s6-13,13.42-13,13.42,5.45,13.42,13S252.06,97.75,244.68,97.75Zm0-20.6a7.56,7.56,0,0,0,0,15.11,7.56,7.56,0,0,0,0-15.11Zm25.09-.27c.73-1.83,3.8-4.95,6.59-4.95a16.59,16.59,0,0,1,2,.22V78.3a13.66,13.66,0,0,0-2.1-.36c-4.24,0-6.31,4.3-6.31,8.8V97.2h-6.09V77.5a.54.54,0,0,0,0-.19.6.6,0,0,0-.18,0h-3.72V72.21H266c2.07,0,3.83,1,3.83,3.05C269.8,75.48,269.76,76.67,269.77,76.88ZM293,97.39c-3.05,0-9.72-1-9.72-9.54V77.29H280V72.21h3.42V65.79h6v6.42H295v5.08h-5.59V87.43c0,4.09,2.61,4.55,4.18,4.55.59,0,1.87-.14,1.87-.14v5.34A20.63,20.63,0,0,1,293,97.39Zm15.68-28.22h-6.33V63h6.33Zm2.93,28h-6.46c-1.53,0-2.7-1.15-2.7-3.8V77.29h-3.88V72.21h6.33c3.48,0,3.65,2.52,3.65,3.77V92.12h3.07Zm22.07-3.06a10.46,10.46,0,0,1-8.12,3.62c-5.58,0-8.47-3.23-8.47-9.77V77.29h-3.17V72.21h6.28a2.94,2.94,0,0,1,3,2.84v12c0,3.2.61,5,3.58,5,4,0,6.77-3.91,6.77-8.29V72.21h6.1V92c0,.2,0,.21.21.21h2.9v5h-5.3C335.18,97.2,333.83,96.11,333.7,94.14ZM355,75.32a10.17,10.17,0,0,1,7.47-3.66c3.47,0,5.91,1.4,7.1,4.38a10.18,10.18,0,0,1,8.19-4.38c5.74,0,8.43,3.5,8.43,9.77v10.7h2.91V97.2h-9V82.4c0-3.31-.6-5.06-3.3-5.06-3.69,0-6.08,3.82-6.08,8.29V97.2h-6.09V82.4c0-3.13-.49-5.06-3.26-5.06-3.74,0-6.21,4-6.21,8.48V97.2h-6.09V77.45a.34.34,0,0,0,0-.14.62.62,0,0,0-.18,0h-3.67V72.21h6.07C353.48,72.21,354.89,73.26,355,75.32ZM132.52,97.61c-10.26,0-17.67-7.91-17.67-17.85a17.13,17.13,0,0,1,17.48-17.48c4.19,0,13.23,1.53,13.23,7.27v4.78h-5.91V71c0-2.48-5.47-3.12-7.14-3.12-6.51,0-11.3,4.75-11.3,11.71,0,7.31,4.95,12.4,11.57,12.4a12.68,12.68,0,0,0,10.38-4.82l3,4.2S142.44,97.61,132.52,97.61Z"/></svg>