<svg xmlns="http://www.w3.org/2000/svg" viewBox="0 0 389.2 119.4"><style type="text/css">  
	.st0{fill:#E75300;}
	.st1{fill-rule:evenodd;clip-rule:evenodd;fill:#AD441D;}
	.st2{fill-rule:evenodd;clip-rule:evenodd;fill:#FFD26C;}
	.st3{fill:#FFFFFF;}
	.st4{fill-rule:evenodd;clip-rule:evenodd;fill:#FFC656;}
	.st5{fill:#00758D;}
	.st6{fill-rule:evenodd;clip-rule:evenodd;fill:#666362;}
</style><path class="st0" d="M95.3 44.3c6.5 4.6 12.8 11.6 12.5 15.4 -0.1 2.2-8.2 10.2-17.2 13.3 2.1 7.7 2.3 17.1-0.3 19.8C89 94.3 78.7 95.3 70 92.4c0.5-1.7 0.9-3.8 0.9-6.3 0.3-10.3 13.6-17 13.6-35 0-17-16.8-29.4-30.6-29.4 -13.8 0-30.6 12.4-30.6 29.4 0 18.1 13.3 24.8 13.6 35 0.1 2.9 0.5 5.2 1.2 7 -6.9 2.9-15.1 4.4-18 2.5 -1.8-1.2-4.7-12.2-3-21.5C9.4 72 1.1 67.5 0.1 63.9c-0.6-2.1 4.2-12.4 11.6-18.4C7 39 3.6 30.3 5.1 26.8c0.9-2 11.2-6.8 20.7-6.7 0.7-7.9 3.7-16.8 7-18.5 2-1 12.9 2 20.1 8.2 5.6-5.6 13.6-10.5 17.3-9.7 2.1 0.5 8.6 9.8 10.2 19.2 7.9-0.7 17.2 0.7 19.5 3.7C101.2 24.8 100.2 36.1 95.3 44.3z"/><path class="st1" d="M64.8 63.3c6.6 0.7 13.3-4.7 20.1-0.8 2.5 1.4 4.5 5.6 5.8 10.5 -3.1 1.1-6.3 1.6-9.3 1.1C75.8 73.1 69.2 67.9 64.8 63.3zM38.5 56.5c-3.9 5.4-2.6 13.9-9.4 17.8 -2.5 1.4-7.1 1.1-12-0.2 0.6-3.2 1.8-6.3 3.7-8.6C24.4 61.1 32.2 57.9 38.5 56.5zM39.3 45.8c-6.4 1.6-10.9 8.9-18.6 7.6 -2.9-0.5-6.2-3.7-9.1-7.8 2.5-2.1 5.4-3.6 8.4-4.2C25.6 40.3 33.6 42.9 39.3 45.8zM46.8 38.1c-6-2.9-14.1-0.2-19.1-6.2 -1.9-2.2-2.3-6.8-1.9-11.8 3.3 0 6.5 0.7 9.1 2.2C39.9 25.1 44.3 32.2 46.8 38.1zM57.5 37.1c-2.7-6-10.7-9.2-10.7-17 0-2.9 2.6-6.7 6.1-10.3 2.5 2.1 4.5 4.7 5.6 7.6C60.5 22.6 59.3 31 57.5 37.1zM69.2 53.5c5.5-3.7 7.2-12.1 14.9-13.5 2.9-0.5 7.1 1.4 11.2 4.3 -1.7 2.8-3.8 5.3-6.5 6.8C84 54 75.6 54.3 69.2 53.5zM80.4 19.3c0.5 3.2 0.5 6.5-0.6 9.4 -1.9 5.3-8.1 10.9-13.5 14.5 1.8-6.4-2.3-13.9 2.7-19.9C70.9 21 75.4 19.8 80.4 19.3z"/><path class="st2" d="M42.4 97.4c-1.4-0.5-2.6-1.3-3.3-2.4C38 93 37 90.3 36.9 86.1c-0.3-10.3-13.6-17-13.6-35 0-17 16.8-29.4 30.6-29.4 13.8 0 30.6 12.4 30.6 29.4 0 18.1-13.3 24.8-13.6 35 -0.1 4.4-1.1 7.2-2.4 9.1 -0.7 1-1.7 1.7-2.9 2.2 -0.1 0-0.2 0-0.3 0L42.4 97.4 42.4 97.4z"/><path class="st3" d="M59.9 55.5c0.5-0.7 3.8 0.2 6.8-0.8 0.9-0.3 1.7-0.7 2.4-1.2 -4.8-0.6-8.5-1.7-8.7-2.8 -0.1-0.8 3-2.3 4.7-5 0.5-0.8 0.8-1.6 1.1-2.5 -4.1 2.7-7.6 4.1-8.4 3.4 -0.6-0.6 0.9-3.7 0.4-6.9 -0.1-0.9-0.4-1.8-0.8-2.6 -1.4 4.6-3.2 8.1-4.3 8 -0.8-0.1-1.7-3.4-4.1-5.5 -0.7-0.6-1.5-1.1-2.3-1.5 1.9 4.5 2.7 8.2 1.9 8.9 -0.7 0.5-3.5-1.5-6.7-1.6 -0.9 0-1.8 0.1-2.7 0.3 4.3 2.2 7.4 4.5 7.2 5.6 -0.2 0.8-3.6 1.1-6.1 3.1 -0.7 0.6-1.3 1.2-1.9 2 4.7-1.1 8.6-1.3 9.1-0.3 0.3 0.7-2.1 3.2-2.7 6.3 -0.2 0.9-0.2 1.8-0.2 2.7 2.9-3.9 5.7-6.5 6.8-6.1 0.7 0.3 0.4 3.8 2 6.6 0.5 0.8 1 1.5 1.6 2.2 -0.3-4.8 0.2-8.7 1.3-9 0.8-0.2 2.8 2.6 5.8 3.8 0.9 0.3 1.8 0.5 2.6 0.6C61.4 59.7 59.4 56.5 59.9 55.5z"/><path class="st4" d="M67.2 91.3c-0.9-0.4-1.7-0.8-2.5-1.3 -1.4-0.9-2.7-2-3.8-3.2 -3.7-4.3-5.4-12.5-5.8-18.9 4.6 4.8 13.2 5 15.9 12.3 0.1 0.2 0.2 0.5 0.2 0.7l0.4 1.6c-0.4 1.2-0.6 2.4-0.6 3.6 -0.1 2.6-0.4 4.7-1 6.4C69.1 92.2 68.2 91.8 67.2 91.3zM44.7 65.2c0.5 6.6 6.9 12.3 4.2 19.7 -0.8 2.1-3.1 4.1-6.2 5.9 -1 0.6-2 1.1-3.1 1.6 -0.6 0.3-1.1 0.5-1.5 0.7 -0.7-1.8-1.1-4.1-1.2-7 0-0.2 0-0.5 0-0.7 0-0.8 0-1.4 0.1-2 0-0.6 0-1.3 0.1-1.9C37.8 76.1 41.3 69.8 44.7 65.2zM77.4 33.1c-2.8 3.9-7.2 7.5-11.1 10.1 1.6-5.6-1.4-12.2 1.4-17.8C71.3 27.3 74.7 29.9 77.4 33.1zM69.2 53.5c5-3.4 6.9-10.7 13.1-13 1.4 3.2 2.3 6.8 2.3 10.6 0 0.6 0 1.2 0 1.8C79.8 54 73.9 54.1 69.2 53.5zM57.5 37.1c-2.4-5.3-8.9-8.4-10.4-14.5 2.3-0.6 4.6-0.9 6.8-0.9 1.8 0 3.7 0.2 5.6 0.6C59.8 27.1 58.8 32.7 57.5 37.1zM46.8 38.1c-5.2-2.5-12.1-0.8-17.1-4.3 2.7-3.2 5.9-5.9 9.5-8C42.4 29.3 45.1 34 46.8 38.1zM39.3 45.8c-5.6 1.4-9.8 7.2-15.9 7.7 -0.1-0.8-0.1-1.6-0.1-2.4 0-3.5 0.7-6.8 2-9.8C30 41.8 35.2 43.7 39.3 45.8zM38.5 56.5c-3.5 4.8-2.8 12.2-7.6 16.4 -2.1-3.2-4.3-6.7-5.8-11.1C29 59.3 34.1 57.5 38.5 56.5zM64.8 63.3c5.9 0.6 12-3.7 18.1-1.7 -1.5 4.3-3.6 7.9-5.7 11.1C72.7 70.6 68.1 66.8 64.8 63.3z"/><path class="st5" d="M65.4 107.6v1.5c1.1 0 2 1 2 2.2s-0.9 2.2-2 2.2l-7.5 2c0.5 0.4 0.8 1 0.8 1.8 0 1.2-0.9 2.2-2 2.2h-5.4c-1.1 0-2-1-2-2.2 0-0.9 0.5-1.6 1.1-2l-7.9-1.8c-1.1 0-2-1-2-2.2s0.9-2.2 2-2.2h18.4l0-0.5 -18.4-1.1c-1.1 0-2-1-2-2.2 0-1.2 0.9-2.2 2-2.2h18.4l0-0.5 -18.4-1.1c-1.1 0-2-1-2-2.2s0.9-2.2 2-2.2h22.9c1.1 0 2 1 2 2.2s-0.9 2.2-2 2.2l-0.2 0v1.5h0.2c1.1 0 2 1 2 2.2C67.4 106.6 66.5 107.6 65.4 107.6z"/><path class="st6" d="M348.7 37.7c0.8-1.9 4-5.2 7-5.2 0.7 0 2.1 0.2 2.1 0.2v6.5c0 0-1.6-0.4-2.2-0.4 -4.5 0-6.7 4.6-6.7 9.3l0 11.1h-6.5V38.3c0-0.1 0-0.2 0-0.2 0 0-0.1 0-0.2 0h-3.4v-5.4h5.9c2.2 0 4.1 1.1 4.1 3.2C348.8 36.2 348.7 37.5 348.7 37.7zM256.7 36.1c1.6-1.9 4.5-3.9 8.8-3.9 6.3 0 9.1 3.7 9.1 10.4l0 10.5v0.7c0 0.1 0 0.2 0 0.2 0 0 0.1 0 0.2 0h3.2v5.4h-5.9c-2.2 0-4-1.1-4-3.2l0-1.4 0-11.1c0-3.5-0.6-5.4-3.8-5.4 -4.4 0-7.4 4-7.4 8.6v2.7 4.3 5.4h-6.5v-5.4 -3.4V38.3c0-0.1 0-0.2 0-0.2 0 0-0.1 0-0.2 0h-3.2v-5.4h5.8C255.1 32.7 256.6 33.9 256.7 36.1zM131.4 29.8c1.5 0 2.1 1 2.1 2.3v3.8h-3.7v-2.5h-3.4v19.1h-4.1V33.4h-3.4v2.5h-3.7v-3.6c0-1.3 0.6-2.5 2.1-2.5H131.4zM140.2 37.8c1.1-1.2 2.9-2.3 5.2-2.3 4 0 5.9 2.3 5.9 6.5v7.1h2.4v3.4h-6.4v-9.8c0-2.1-0.4-3.3-2.4-3.3 -2.7 0-4.6 2.3-4.6 5.3l0 7.8h-4l0-19.3h-1.4v-3.4h5.5V37.8zM163.3 52.8c-5.2 0-8.7-3.8-8.7-8.6 0-5.2 3.6-8.6 8.3-8.6 4.8 0 7.2 3.6 7.2 7.8 0 0.4-0.2 1.7-0.2 1.7h-11.2c0.4 2.8 2.4 4.2 4.8 4.2 1.9 0 3.4-0.8 4.8-2l1.8 3.1c0 0-0.5 0.4-0.8 0.7C167.6 52.1 165.5 52.8 163.3 52.8zM162.8 39c-1.8 0-3.3 1.1-3.9 3.1h7C165.7 39.9 164.3 39 162.8 39zM197.7 59.4c-11 0-18.9-8.4-18.9-19.1 0-10.7 8.1-18.7 18.7-18.7 4.5 0 14.1 1.6 14.1 7.8v5.1h-6.3v-3.6c0-2.6-5.8-3.3-7.6-3.3 -7 0-12.1 5.1-12.1 12.5 0 7.8 5.3 13.2 12.4 13.2 7.6 0 11.1-5.1 11.1-5.1l3.2 4.5C212.3 52.7 208.3 59.4 197.7 59.4zM230 59.9c-7.9 0-14.3-5.9-14.3-14 0-8.1 6.4-13.9 14.3-13.9 7.9 0 14.3 5.8 14.3 13.9C244.3 54.1 237.9 59.9 230 59.9zM230 37.9c-4.2 0-7.7 3.3-7.7 8 0 4.8 3.5 8.1 7.7 8.1 4.2 0 7.7-3.3 7.7-8.1C237.7 41.2 234.2 37.9 230 37.9zM294.7 59.9c-7.6 0-14.3-5.3-14.3-13.9 0-8.1 6.2-14 14.1-14 3.8 0 10.6 1.5 10.6 6.5v2.8h-6v-1.4c0-1.5-3.5-2-4.5-2 -4.5 0-7.6 3.1-7.6 8 0 5.2 3.6 8.1 7.9 8.1 3.6 0 5.7-1.6 8.3-3.7l2.6 5C302.6 58.2 299 59.9 294.7 59.9zM321.9 59.9c-7.9 0-14.3-5.9-14.3-14 0-8.1 6.4-13.9 14.3-13.9 7.9 0 14.3 5.8 14.3 13.9C336.2 54.1 329.8 59.9 321.9 59.9zM321.9 37.9c-4.2 0-7.7 3.3-7.7 8 0 4.8 3.5 8.1 7.7 8.1 4.2 0 7.7-3.3 7.7-8.1C329.6 41.2 326.1 37.9 321.9 37.9zM379.1 34.6v-6.3h-3v-5.4h9.5v30.9c0 0.1 0 0.2 0 0.2 0 0 0.1 0 0.2 0h3.4v5.4h-5.8c-2.2 0-3.5-1-3.9-2.6 -1.9 2.1-4.7 3.1-7.6 3.1 -7.3 0-11.8-5.9-11.8-13.9 0-8.3 4.9-13.9 12.2-13.9C374.6 32.1 377.2 32.9 379.1 34.6zM373 38c-3.4 0-6.3 2.7-6.3 8 0 5.1 2.7 8.1 6.2 8.1 3.2 0 6.3-2.2 6.3-8C379.2 41.6 377 38 373 38zM186.4 75.4c1.5-1.8 4.2-3.7 8.3-3.7 5.9 0 8.6 3.5 8.6 9.8l0 9.9V92c0 0.1 0 0.2 0 0.2 0 0 0.1 0 0.2 0h3.6v5.1h-6.1c-2.1 0-3.8-1-3.8-3.1l0-1.3 0-10.4c0-3.3-0.6-5.1-3.6-5.1 -4.1 0-7 3.8-7 8.2v2.5 4 5.1h-6.1v-5.1 -3.2V77.5c0-0.1 0-0.2 0-0.2 0 0-0.1 0-0.2 0h-3v-5.1h5.4C185 72.2 186.3 73.3 186.4 75.4zM162.5 97.8c-7.4 0-13.4-5.5-13.4-13.1 0-7.6 6-13 13.4-13 7.4 0 13.4 5.5 13.4 13C175.9 92.3 169.9 97.8 162.5 97.8zM162.5 77.2c-4 0-7.2 3.1-7.2 7.5 0 4.5 3.3 7.6 7.2 7.6 3.9 0 7.2-3.1 7.2-7.6C169.7 80.3 166.4 77.2 162.5 77.2zM217.7 97.8c-5.8 0-9.6-4.6-9.6-4.6l3.4-4.1c0 0 2.4 3.4 6.4 3.4 2.6 0 3.9-1 3.9-2.2 0-2-3.8-3-5.3-3.5 -3.3-1.2-7.8-3-7.8-7.9 0-5.4 5.3-7.3 9.4-7.3 3.2 0 8.9 1.3 8.9 5.5v2.5h-5.5v-1.2c0-0.6-1-1.6-3.3-1.6 -2.2 0-3.4 0.9-3.4 2 0 1.9 3.5 2.9 4.9 3.3 3.5 1.1 8.3 2.8 8.3 7.8C227.9 95.2 223.2 97.8 217.7 97.8zM244.7 97.8c-7.4 0-13.4-5.5-13.4-13.1 0-7.6 6-13 13.4-13 7.4 0 13.4 5.5 13.4 13C258.1 92.3 252.1 97.8 244.7 97.8zM244.7 77.2c-4 0-7.2 3.1-7.2 7.5 0 4.5 3.3 7.6 7.2 7.6 3.9 0 7.2-3.1 7.2-7.6C251.9 80.3 248.6 77.2 244.7 77.2zM269.8 76.9c0.7-1.8 3.8-4.9 6.6-4.9 0.7 0 2 0.2 2 0.2v6.1c0 0-1.5-0.4-2.1-0.4 -4.2 0-6.3 4.3-6.3 8.8l0 10.5h-6.1V77.5c0-0.1 0-0.2 0-0.2 0 0-0.1 0-0.2 0h-3.7v-5.1h6.1c2.1 0 3.8 1 3.8 3.1C269.8 75.5 269.8 76.7 269.8 76.9zM293 97.4c-3.1 0-9.7-1-9.7-9.5l0-10.6 -3.3 0v-5.1h3.4v-6.4h6l0 6.4h5.6v5.1l-5.6 0 0 10.1c0 4.1 2.6 4.6 4.2 4.6 0.6 0 1.9-0.1 1.9-0.1v5.3C295.4 97.2 294.1 97.4 293 97.4zM308.7 69.2h-6.3V63h6.3V69.2zM311.6 97.2l-6.5 0c-1.5 0-2.7-1.1-2.7-3.8l0-16.1 -3.9 0v-5.1h6.3c3.5 0 3.6 2.5 3.6 3.8v16.1h3.1V97.2zM333.7 94.1c-1.5 1.7-4.1 3.6-8.1 3.6 -5.6 0-8.5-3.2-8.5-9.8V77.3l-3.2 0v-5.1h6.3c1.8 0 3 1.4 3 2.8v12c0 3.2 0.6 5 3.6 5 4 0 6.8-3.9 6.8-8.3l0-11.6 6.1 0V92c0 0.2 0 0.2 0.2 0.2h2.9v5h-5.3C335.2 97.2 333.8 96.1 333.7 94.1zM355 75.3c1.8-2 4.5-3.7 7.5-3.7 3.5 0 5.9 1.4 7.1 4.4 1.7-2.5 4.7-4.4 8.2-4.4 5.7 0 8.4 3.5 8.4 9.8v10.7h2.9v5.1h-9V82.4c0-3.3-0.6-5.1-3.3-5.1 -3.7 0-6.1 3.8-6.1 8.3v3.9 7.7h-6.1V82.4c0-3.1-0.5-5.1-3.3-5.1 -3.7 0-6.2 4-6.2 8.5l0 11.4h-6.1v-5.1 -2.7 -12c0-0.1 0-0.1 0-0.1 0 0-0.1 0-0.2 0h-3.7v-5.1h6.1C353.5 72.2 354.9 73.3 355 75.3zM132.5 97.6c-10.3 0-17.7-7.9-17.7-17.9 0-10 7.6-17.5 17.5-17.5 4.2 0 13.2 1.5 13.2 7.3v4.8h-5.9V71c0-2.5-5.5-3.1-7.1-3.1 -6.5 0-11.3 4.7-11.3 11.7 0 7.3 4.9 12.4 11.6 12.4 7.2 0 10.4-4.8 10.4-4.8l3 4.2C146.2 91.4 142.4 97.6 132.5 97.6z"/></svg>