<?xml version="1.0" encoding="utf-8"?>
<!-- Generator: Adobe Illustrator 15.0.2, SVG Export Plug-In . SVG Version: 6.00 Build 0)  -->
<!DOCTYPE svg PUBLIC "-//W3C//DTD SVG 1.1//EN" "http://www.w3.org/Graphics/SVG/1.1/DTD/svg11.dtd">
<svg version="1.1" id="Layer_1" xmlns="http://www.w3.org/2000/svg" xmlns:xlink="http://www.w3.org/1999/xlink" x="0px" y="0px"
	 width="364px" height="26.646px" viewBox="0 0 364 26.646" enable-background="new 0 0 364 26.646" xml:space="preserve">
<line fill="#B30000" stroke="#B30000" stroke-width="2" stroke-miterlimit="10" x1="0" y1="1" x2="364" y2="1"/>
<line fill="#B30000" stroke="#B30000" stroke-width="2" stroke-miterlimit="10" x1="27.372" y1="1" x2="27.372" y2="5.148"/>
<line fill="#B30000" stroke="#B30000" stroke-width="2" stroke-miterlimit="10" x1="77.247" y1="1" x2="77.247" y2="5.148"/>
<line fill="#B30000" stroke="#B30000" stroke-width="2" stroke-miterlimit="10" x1="127.122" y1="1" x2="127.122" y2="5.148"/>
<line fill="#B30000" stroke="#B30000" stroke-width="2" stroke-miterlimit="10" x1="176.996" y1="1" x2="176.996" y2="5.148"/>
<line fill="#B30000" stroke="#B30000" stroke-width="2" stroke-miterlimit="10" x1="227.524" y1="1" x2="227.524" y2="5.148"/>
<line fill="#B30000" stroke="#B30000" stroke-width="2" stroke-miterlimit="10" x1="277.617" y1="1" x2="277.617" y2="5.148"/>
<line fill="#B30000" stroke="#B30000" stroke-width="2" stroke-miterlimit="10" x1="327.492" y1="1" x2="327.492" y2="5.148"/>
<line fill="#B30000" stroke="#B30000" stroke-width="2" stroke-miterlimit="10" x1="52.418" y1="1" x2="52.418" y2="9.722"/>
<line fill="#B30000" stroke="#B30000" stroke-width="2" stroke-miterlimit="10" x1="102.511" y1="1" x2="102.511" y2="9.722"/>
<line fill="#B30000" stroke="#B30000" stroke-width="2" stroke-miterlimit="10" x1="202.479" y1="1" x2="202.479" y2="9.722"/>
<line fill="#B30000" stroke="#B30000" stroke-width="2" stroke-miterlimit="10" x1="152.167" y1="1" x2="152.167" y2="9.722"/>
<line fill="#B30000" stroke="#B30000" stroke-width="2" stroke-miterlimit="10" x1="252.353" y1="1" x2="252.353" y2="9.722"/>
<line fill="#B30000" stroke="#B30000" stroke-width="2" stroke-miterlimit="10" x1="302.663" y1="1" x2="302.663" y2="9.722"/>
<line fill="#B30000" stroke="#B30000" stroke-width="2" stroke-miterlimit="10" x1="352.103" y1="1" x2="352.103" y2="9.722"/>
<text transform="matrix(1 0 0 1 48.498 23.0073)" fill="#B30000" font-family="'Verdana-Bold'" font-size="12">1</text>
<text transform="matrix(1 0 0 1 98.3726 23.0073)" fill="#B30000" font-family="'Verdana-Bold'" font-size="12">2</text>
<text transform="matrix(1 0 0 1 148.4653 23.0073)" fill="#B30000" font-family="'Verdana-Bold'" font-size="12">3</text>
<text transform="matrix(1 0 0 1 197.9043 23.0073)" fill="#B30000" font-family="'Verdana-Bold'" font-size="12">4</text>
<text transform="matrix(1 0 0 1 248.4336 23.0073)" fill="#B30000" font-family="'Verdana-Bold'" font-size="12">5</text>
<text transform="matrix(1 0 0 1 298.7441 23.0073)" fill="#B30000" font-family="'Verdana-Bold'" font-size="12">6</text>
<text transform="matrix(1 0 0 1 348.8359 23.0073)" fill="#B30000" font-family="'Verdana-Bold'" font-size="12">7</text>
</svg>
